<?xml version="1.0" encoding="UTF-8" standalone="no"?>
<svg xmlns:ffdec="https://www.free-decompiler.com/flash" xmlns:xlink="http://www.w3.org/1999/xlink" ffdec:objectType="morphshape" height="112.65px" width="75.7px" xmlns="http://www.w3.org/2000/svg">
  <g transform="matrix(1.0, 0.0, 0.0, 1.0, 37.85, 56.35)">
    <path d="M-37.85 -53.4 L-37.85 -44.65 Q-37.85 -41.7 -34.9 -41.7 L34.9 -41.7 Q37.85 -41.7 37.85 -44.65 L37.85 -53.4 Q37.85 -56.35 34.9 -56.35 L-34.9 -56.35 Q-37.85 -56.35 -37.85 -53.4" fill="#ffffff" fill-opacity="0.2509804" fill-rule="evenodd" stroke="none">
      <animate attributeName="fill" dur="2.0s" repeatCount="indefinite" values="#ffffff;#ffffff"/>
      <animate attributeName="fill-opacity" dur="2.0s" repeatCount="indefinite" values="0.2509804;0.2509804"/>
      <animate attributeName="d" dur="2.0s" repeatCount="indefinite" values="M-37.85 -53.4 L-37.85 -44.65 Q-37.85 -41.7 -34.9 -41.7 L34.9 -41.7 Q37.85 -41.7 37.85 -44.65 L37.85 -53.4 Q37.85 -56.35 34.9 -56.35 L-34.9 -56.35 Q-37.85 -56.35 -37.85 -53.4;M-37.85 -53.4 L-37.85 53.35 Q-37.85 56.3 -34.9 56.3 L34.9 56.3 Q37.85 56.3 37.85 53.35 L37.85 -53.4 Q37.85 -56.35 34.9 -56.35 L-34.9 -56.35 Q-37.85 -56.35 -37.85 -53.4"/>
    </path>
    <path d="M-37.85 -53.4 Q-37.85 -56.35 -34.9 -56.35 L34.9 -56.35 Q37.85 -56.35 37.85 -53.4 L37.85 -44.65 Q37.85 -41.7 34.9 -41.7 L-34.9 -41.7 Q-37.85 -41.7 -37.85 -44.65 L-37.85 -53.4 Z" fill="none" stroke="#000000" stroke-linecap="round" stroke-linejoin="round" stroke-opacity="0.0" stroke-width="0.0">
      <animate attributeName="stroke" dur="2.0s" repeatCount="indefinite" values="#000000;#000001"/>
      <animate attributeName="stroke-width" dur="2.0s" repeatCount="indefinite" values="0.0;0.0"/>
      <animate attributeName="fill-opacity" dur="2.0s" repeatCount="indefinite" values="0.0;0.0"/>
      <animate attributeName="d" dur="2.0s" repeatCount="indefinite" values="M-37.85 -53.4 Q-37.85 -56.35 -34.9 -56.35 L34.9 -56.35 Q37.85 -56.35 37.85 -53.4 L37.85 -44.65 Q37.85 -41.7 34.9 -41.7 L-34.9 -41.7 Q-37.85 -41.7 -37.85 -44.65 L-37.85 -53.4 Z;M-37.85 -53.4 Q-37.85 -56.35 -34.9 -56.35 L34.9 -56.35 Q37.85 -56.35 37.85 -53.4 L37.85 53.35 Q37.85 56.3 34.9 56.3 L-34.9 56.3 Q-37.85 56.3 -37.85 53.35 L-37.85 -53.4 Z"/>
    </path>
  </g>
</svg>
