<?xml version="1.0" encoding="UTF-8" standalone="no"?>
<svg xmlns:ffdec="https://www.free-decompiler.com/flash" xmlns:xlink="http://www.w3.org/1999/xlink" ffdec:objectType="morphshape" height="146.0px" width="122.45px" xmlns="http://www.w3.org/2000/svg">
  <g transform="matrix(1.0, 0.0, 0.0, 1.0, 26.05, -0.45)">
    <path d="M-26.05 8.45 L-26.05 16.45 Q-26.05 23.85 -19.2 24.4 L-19.2 24.45 88.4 24.45 Q96.4 24.45 96.4 16.45 L96.4 8.45 Q96.4 0.45 88.4 0.45 L-19.2 0.45 -19.2 0.5 Q-26.05 1.05 -26.05 8.45" fill="#ffffff" fill-opacity="0.2" fill-rule="evenodd" stroke="none">
      <animate attributeName="fill" dur="2.0s" repeatCount="indefinite" values="#ffffff;#ffffff"/>
      <animate attributeName="fill-opacity" dur="2.0s" repeatCount="indefinite" values="0.2;0.2"/>
      <animate attributeName="d" dur="2.0s" repeatCount="indefinite" values="M-26.05 8.45 L-26.05 16.45 Q-26.05 23.85 -19.2 24.4 L-19.2 24.45 88.4 24.45 Q96.4 24.45 96.4 16.45 L96.4 8.45 Q96.4 0.45 88.4 0.45 L-19.2 0.45 -19.2 0.5 Q-26.05 1.05 -26.05 8.45;M-26.05 8.45 L-26.05 138.45 Q-26.05 145.85 -19.2 146.4 L-19.2 146.45 88.4 146.45 Q96.4 146.45 96.4 138.45 L96.4 8.45 Q96.4 0.45 88.4 0.45 L-19.2 0.45 -19.2 0.5 Q-26.05 1.05 -26.05 8.45"/>
    </path>
    <path d="M-26.05 8.45 Q-26.05 1.05 -19.2 0.5 L-19.2 0.45 88.4 0.45 Q96.4 0.45 96.4 8.45 L96.4 16.45 Q96.4 24.45 88.4 24.45 L-19.2 24.45 -19.2 24.4 Q-26.05 23.85 -26.05 16.45 L-26.05 8.45 Z" fill="none" stroke="#000000" stroke-linecap="round" stroke-linejoin="round" stroke-opacity="0.0" stroke-width="0.0">
      <animate attributeName="stroke" dur="2.0s" repeatCount="indefinite" values="#000000;#000001"/>
      <animate attributeName="stroke-width" dur="2.0s" repeatCount="indefinite" values="0.0;0.0"/>
      <animate attributeName="fill-opacity" dur="2.0s" repeatCount="indefinite" values="0.0;0.0"/>
      <animate attributeName="d" dur="2.0s" repeatCount="indefinite" values="M-26.05 8.45 Q-26.05 1.05 -19.2 0.5 L-19.2 0.45 88.4 0.45 Q96.4 0.45 96.4 8.45 L96.4 16.45 Q96.4 24.45 88.4 24.45 L-19.2 24.45 -19.2 24.4 Q-26.05 23.85 -26.05 16.45 L-26.05 8.45 Z;M-26.05 8.45 Q-26.05 1.05 -19.2 0.5 L-19.2 0.45 88.4 0.45 Q96.4 0.45 96.4 8.45 L96.4 138.45 Q96.4 146.45 88.4 146.45 L-19.2 146.45 -19.2 146.4 Q-26.05 145.85 -26.05 138.45 L-26.05 8.45 Z"/>
    </path>
  </g>
</svg>
