<?xml version="1.0" encoding="UTF-8" standalone="no"?>
<svg xmlns:ffdec="https://www.free-decompiler.com/flash" xmlns:xlink="http://www.w3.org/1999/xlink" ffdec:objectType="morphshape" height="19.25px" width="117.75px" xmlns="http://www.w3.org/2000/svg">
  <g transform="matrix(1.0, 0.0, 0.0, 1.0, 0.0, 9.6)">
    <path d="M0.0 -1.8 L0.0 1.85 Q0.05 5.0 2.35 7.3 4.65 9.6 7.8 9.65 L49.95 9.65 Q53.1 9.6 55.4 7.3 57.7 5.0 57.75 1.85 L57.75 -1.8 Q57.7 -4.95 55.4 -7.25 53.1 -9.55 49.95 -9.6 L7.8 -9.6 Q4.65 -9.55 2.35 -7.25 0.05 -4.95 0.0 -1.8" fill="#ffffff" fill-opacity="0.2" fill-rule="evenodd" stroke="none">
      <animate attributeName="fill" dur="2.0s" repeatCount="indefinite" values="#ffffff;#ffffff"/>
      <animate attributeName="fill-opacity" dur="2.0s" repeatCount="indefinite" values="0.2;0.2"/>
      <animate attributeName="d" dur="2.0s" repeatCount="indefinite" values="M0.0 -1.8 L0.0 1.85 Q0.05 5.0 2.35 7.3 4.65 9.6 7.8 9.65 L49.95 9.65 Q53.1 9.6 55.4 7.3 57.7 5.0 57.75 1.85 L57.75 -1.8 Q57.7 -4.95 55.4 -7.25 53.1 -9.55 49.95 -9.6 L7.8 -9.6 Q4.65 -9.55 2.35 -7.25 0.05 -4.95 0.0 -1.8;M0.0 -1.8 L0.0 1.85 Q0.05 5.0 2.35 7.3 4.65 9.6 7.8 9.65 L109.95 9.65 Q113.1 9.6 115.4 7.3 117.7 5.0 117.75 1.85 L117.75 -1.8 Q117.7 -4.95 115.4 -7.25 113.1 -9.55 109.95 -9.6 L7.8 -9.6 Q4.65 -9.55 2.35 -7.25 0.05 -4.95 0.0 -1.8"/>
    </path>
    <path d="M0.0 -1.8 Q0.05 -4.95 2.35 -7.25 4.65 -9.55 7.8 -9.6 L49.95 -9.6 Q53.1 -9.55 55.4 -7.25 57.7 -4.95 57.75 -1.8 L57.75 1.85 Q57.7 5.0 55.4 7.3 53.1 9.6 49.95 9.65 L7.8 9.65 Q4.65 9.6 2.35 7.3 0.05 5.0 0.0 1.85 L0.0 -1.8 Z" fill="none" stroke="#000000" stroke-linecap="round" stroke-linejoin="round" stroke-opacity="0.0" stroke-width="0.0">
      <animate attributeName="stroke" dur="2.0s" repeatCount="indefinite" values="#000000;#000001"/>
      <animate attributeName="stroke-width" dur="2.0s" repeatCount="indefinite" values="0.0;0.0"/>
      <animate attributeName="fill-opacity" dur="2.0s" repeatCount="indefinite" values="0.0;0.0"/>
      <animate attributeName="d" dur="2.0s" repeatCount="indefinite" values="M0.0 -1.8 Q0.05 -4.95 2.35 -7.25 4.65 -9.55 7.8 -9.6 L49.95 -9.6 Q53.1 -9.55 55.4 -7.25 57.7 -4.95 57.75 -1.8 L57.75 1.85 Q57.7 5.0 55.4 7.3 53.1 9.6 49.95 9.65 L7.8 9.65 Q4.65 9.6 2.35 7.3 0.05 5.0 0.0 1.85 L0.0 -1.8 Z;M0.0 -1.8 Q0.05 -4.95 2.35 -7.25 4.65 -9.55 7.8 -9.6 L109.95 -9.6 Q113.1 -9.55 115.4 -7.25 117.7 -4.95 117.75 -1.8 L117.75 1.85 Q117.7 5.0 115.4 7.3 113.1 9.6 109.95 9.65 L7.8 9.65 Q4.65 9.6 2.35 7.3 0.05 5.0 0.0 1.85 L0.0 -1.8 Z"/>
    </path>
  </g>
</svg>
