<?xml version="1.0" encoding="UTF-8" standalone="no"?>
<svg xmlns:ffdec="https://www.free-decompiler.com/flash" xmlns:xlink="http://www.w3.org/1999/xlink" ffdec:objectType="morphshape" height="28.0px" width="98.0px" xmlns="http://www.w3.org/2000/svg">
  <g transform="matrix(1.0, 0.0, 0.0, 1.0, 49.0, 14.0)">
    <path d="M-49.0 -2.0 L-49.0 2.0 Q-49.0 6.95 -45.5 10.45 -41.95 14.0 -37.0 14.0 L37.0 14.0 Q41.95 14.0 45.45 10.45 49.0 6.95 49.0 2.0 L49.0 -2.0 Q49.0 -6.95 45.45 -10.5 41.95 -14.0 37.0 -14.0 L-37.0 -14.0 Q-41.95 -14.0 -45.5 -10.5 -49.0 -6.95 -49.0 -2.0" fill="#ffffff" fill-opacity="0.043137256" fill-rule="evenodd" stroke="none">
      <animate attributeName="fill" dur="2.0s" repeatCount="indefinite" values="#ffffff;#ffffff"/>
      <animate attributeName="fill-opacity" dur="2.0s" repeatCount="indefinite" values="0.043137256;0.21176471"/>
      <animate attributeName="d" dur="2.0s" repeatCount="indefinite" values="M-49.0 -2.0 L-49.0 2.0 Q-49.0 6.95 -45.5 10.45 -41.95 14.0 -37.0 14.0 L37.0 14.0 Q41.95 14.0 45.45 10.45 49.0 6.95 49.0 2.0 L49.0 -2.0 Q49.0 -6.95 45.45 -10.5 41.95 -14.0 37.0 -14.0 L-37.0 -14.0 Q-41.95 -14.0 -45.5 -10.5 -49.0 -6.95 -49.0 -2.0;M-49.0 -2.0 L-49.0 2.0 Q-49.0 6.95 -45.5 10.45 -41.95 14.0 -37.0 14.0 L37.0 14.0 Q41.95 14.0 45.45 10.45 49.0 6.95 49.0 2.0 L49.0 -2.0 Q49.0 -6.95 45.45 -10.5 41.95 -14.0 37.0 -14.0 L-37.0 -14.0 Q-41.95 -14.0 -45.5 -10.5 -49.0 -6.95 -49.0 -2.0"/>
    </path>
    <path d="M-49.0 -2.0 Q-49.0 -6.95 -45.5 -10.5 -41.95 -14.0 -37.0 -14.0 L37.0 -14.0 Q41.95 -14.0 45.45 -10.5 49.0 -6.95 49.0 -2.0 L49.0 2.0 Q49.0 6.95 45.45 10.45 41.95 14.0 37.0 14.0 L-37.0 14.0 Q-41.95 14.0 -45.5 10.45 -49.0 6.95 -49.0 2.0 L-49.0 -2.0 Z" fill="none" stroke="#000000" stroke-linecap="round" stroke-linejoin="round" stroke-opacity="0.0" stroke-width="0.0">
      <animate attributeName="stroke" dur="2.0s" repeatCount="indefinite" values="#000000;#000001"/>
      <animate attributeName="stroke-width" dur="2.0s" repeatCount="indefinite" values="0.0;0.0"/>
      <animate attributeName="fill-opacity" dur="2.0s" repeatCount="indefinite" values="0.0;0.0"/>
      <animate attributeName="d" dur="2.0s" repeatCount="indefinite" values="M-49.0 -2.0 Q-49.0 -6.95 -45.5 -10.5 -41.95 -14.0 -37.0 -14.0 L37.0 -14.0 Q41.95 -14.0 45.45 -10.5 49.0 -6.95 49.0 -2.0 L49.0 2.0 Q49.0 6.95 45.45 10.45 41.95 14.0 37.0 14.0 L-37.0 14.0 Q-41.95 14.0 -45.5 10.45 -49.0 6.95 -49.0 2.0 L-49.0 -2.0 Z;M-49.0 -2.0 Q-49.0 -6.95 -45.5 -10.5 -41.95 -14.0 -37.0 -14.0 L37.0 -14.0 Q41.95 -14.0 45.45 -10.5 49.0 -6.95 49.0 -2.0 L49.0 2.0 Q49.0 6.95 45.45 10.45 41.95 14.0 37.0 14.0 L-37.0 14.0 Q-41.95 14.0 -45.5 10.45 -49.0 6.95 -49.0 2.0 L-49.0 -2.0 Z"/>
    </path>
  </g>
</svg>
