<?xml version="1.0" encoding="UTF-8" standalone="no"?>
<svg xmlns:ffdec="https://www.free-decompiler.com/flash" xmlns:xlink="http://www.w3.org/1999/xlink" ffdec:objectType="morphshape" height="414.95px" width="466.0px" xmlns="http://www.w3.org/2000/svg">
  <g transform="matrix(1.0, 0.0, 0.0, 1.0, 233.0, 312.45)">
    <path d="M-233.0 -297.45 L-233.0 -122.5 Q-233.0 -107.5 -218.0 -107.5 L218.0 -107.5 Q233.0 -107.5 233.0 -122.5 L233.0 -297.45 Q233.0 -312.45 218.0 -312.45 L-218.0 -312.45 Q-233.0 -312.45 -233.0 -297.45" fill="#ffffff" fill-opacity="0.101960786" fill-rule="evenodd" stroke="none">
      <animate attributeName="fill" dur="2.0s" repeatCount="indefinite" values="#ffffff;#ffffff"/>
      <animate attributeName="fill-opacity" dur="2.0s" repeatCount="indefinite" values="0.101960786;0.101960786"/>
      <animate attributeName="d" dur="2.0s" repeatCount="indefinite" values="M-233.0 -297.45 L-233.0 -122.5 Q-233.0 -107.5 -218.0 -107.5 L218.0 -107.5 Q233.0 -107.5 233.0 -122.5 L233.0 -297.45 Q233.0 -312.45 218.0 -312.45 L-218.0 -312.45 Q-233.0 -312.45 -233.0 -297.45;M-233.0 -87.45 L-233.0 87.5 Q-233.0 102.5 -218.0 102.5 L218.0 102.5 Q233.0 102.5 233.0 87.5 L233.0 -87.45 Q233.0 -102.45 218.0 -102.45 L-218.0 -102.45 Q-233.0 -102.45 -233.0 -87.45"/>
    </path>
    <path d="M-233.0 -297.45 Q-233.0 -312.45 -218.0 -312.45 L218.0 -312.45 Q233.0 -312.45 233.0 -297.45 L233.0 -122.5 Q233.0 -107.5 218.0 -107.5 L-218.0 -107.5 Q-233.0 -107.5 -233.0 -122.5 L-233.0 -297.45 Z" fill="none" stroke="#000000" stroke-linecap="round" stroke-linejoin="round" stroke-opacity="0.0" stroke-width="0.0">
      <animate attributeName="stroke" dur="2.0s" repeatCount="indefinite" values="#000000;#000001"/>
      <animate attributeName="stroke-width" dur="2.0s" repeatCount="indefinite" values="0.0;0.0"/>
      <animate attributeName="fill-opacity" dur="2.0s" repeatCount="indefinite" values="0.0;0.0"/>
      <animate attributeName="d" dur="2.0s" repeatCount="indefinite" values="M-233.0 -297.45 Q-233.0 -312.45 -218.0 -312.45 L218.0 -312.45 Q233.0 -312.45 233.0 -297.45 L233.0 -122.5 Q233.0 -107.5 218.0 -107.5 L-218.0 -107.5 Q-233.0 -107.5 -233.0 -122.5 L-233.0 -297.45 Z;M-233.0 -87.45 Q-233.0 -102.45 -218.0 -102.45 L218.0 -102.45 Q233.0 -102.45 233.0 -87.45 L233.0 87.5 Q233.0 102.5 218.0 102.5 L-218.0 102.5 Q-233.0 102.5 -233.0 87.5 L-233.0 -87.45 Z"/>
    </path>
  </g>
</svg>
