<?xml version="1.0" encoding="UTF-8" standalone="no"?>
<svg xmlns:ffdec="https://www.free-decompiler.com/flash" xmlns:xlink="http://www.w3.org/1999/xlink" ffdec:objectType="morphshape" height="36.5px" width="48.0px" xmlns="http://www.w3.org/2000/svg">
  <g transform="matrix(1.0, 0.0, 0.0, 1.0, 4.0, 3.05)">
    <path d="M0.0 15.25 Q0.0 21.5 5.85 25.95 11.75 30.4 20.0 30.4 28.25 30.4 34.15 25.95 40.0 21.5 40.0 15.25 40.0 8.9 34.15 4.4 28.25 0.0 20.0 0.0 11.75 0.0 5.85 4.4 0.0 8.9 0.0 15.25" fill="#ffffff" fill-opacity="0.16862746" fill-rule="evenodd" stroke="none">
      <animate attributeName="fill" dur="2.0s" repeatCount="indefinite" values="#ffffff;#ffffff"/>
      <animate attributeName="fill-opacity" dur="2.0s" repeatCount="indefinite" values="0.16862746;0.16862746"/>
      <animate attributeName="d" dur="2.0s" repeatCount="indefinite" values="M0.0 15.25 Q0.0 21.5 5.85 25.95 11.75 30.4 20.0 30.4 28.25 30.4 34.15 25.95 40.0 21.5 40.0 15.25 40.0 8.9 34.15 4.4 28.25 0.0 20.0 0.0 11.75 0.0 5.85 4.4 0.0 8.9 0.0 15.25;M-4.0 15.25 Q-4.0 22.75 3.0 28.1 10.1 33.45 20.0 33.45 29.9 33.45 37.0 28.1 44.0 22.75 44.0 15.25 44.0 7.65 37.0 2.25 29.9 -3.05 20.0 -3.05 10.1 -3.05 3.0 2.25 -4.0 7.65 -4.0 15.25"/>
    </path>
    <path d="M0.0 15.25 Q0.0 8.9 5.85 4.4 11.75 0.0 20.0 0.0 28.25 0.0 34.15 4.4 40.0 8.9 40.0 15.25 40.0 21.5 34.15 25.95 28.25 30.4 20.0 30.4 11.75 30.4 5.85 25.95 0.0 21.5 0.0 15.25 Z" fill="none" stroke="#000000" stroke-linecap="round" stroke-linejoin="round" stroke-opacity="0.0" stroke-width="0.0">
      <animate attributeName="stroke" dur="2.0s" repeatCount="indefinite" values="#000000;#000001"/>
      <animate attributeName="stroke-width" dur="2.0s" repeatCount="indefinite" values="0.0;0.0"/>
      <animate attributeName="fill-opacity" dur="2.0s" repeatCount="indefinite" values="0.0;0.0"/>
      <animate attributeName="d" dur="2.0s" repeatCount="indefinite" values="M0.0 15.25 Q0.0 8.9 5.85 4.4 11.75 0.0 20.0 0.0 28.25 0.0 34.15 4.4 40.0 8.9 40.0 15.25 40.0 21.5 34.15 25.95 28.25 30.4 20.0 30.4 11.75 30.4 5.85 25.95 0.0 21.5 0.0 15.25 Z;M-4.0 15.25 Q-4.0 7.65 3.0 2.25 10.1 -3.05 20.0 -3.05 29.9 -3.05 37.0 2.25 44.0 7.65 44.0 15.25 44.0 22.75 37.0 28.1 29.9 33.45 20.0 33.45 10.1 33.45 3.0 28.1 -4.0 22.75 -4.0 15.25 Z"/>
    </path>
  </g>
</svg>
