<?xml version="1.0" encoding="UTF-8" standalone="no"?>
<svg xmlns:ffdec="https://www.free-decompiler.com/flash" xmlns:xlink="http://www.w3.org/1999/xlink" ffdec:objectType="morphshape" height="573.95px" width="490.0px" xmlns="http://www.w3.org/2000/svg">
  <g transform="matrix(1.0, 0.0, 0.0, 1.0, 245.0, 430.95)">
    <path d="M-245.0 -415.95 L-245.0 -160.0 Q-245.0 -145.0 -230.0 -145.0 L230.0 -145.0 Q245.0 -145.0 245.0 -160.0 L245.0 -415.95 Q245.0 -430.95 230.0 -430.95 L-230.0 -430.95 Q-245.0 -430.95 -245.0 -415.95" fill="#ffffff" fill-opacity="0.101960786" fill-rule="evenodd" stroke="none">
      <animate attributeName="fill" dur="2.0s" repeatCount="indefinite" values="#ffffff;#ffffff"/>
      <animate attributeName="fill-opacity" dur="2.0s" repeatCount="indefinite" values="0.101960786;0.101960786"/>
      <animate attributeName="d" dur="2.0s" repeatCount="indefinite" values="M-245.0 -415.95 L-245.0 -160.0 Q-245.0 -145.0 -230.0 -145.0 L230.0 -145.0 Q245.0 -145.0 245.0 -160.0 L245.0 -415.95 Q245.0 -430.95 230.0 -430.95 L-230.0 -430.95 Q-245.0 -430.95 -245.0 -415.95;M-245.0 -127.95 L-245.0 128.0 Q-245.0 143.0 -230.0 143.0 L230.0 143.0 Q245.0 143.0 245.0 128.0 L245.0 -127.95 Q245.0 -142.95 230.0 -142.95 L-230.0 -142.95 Q-245.0 -142.95 -245.0 -127.95"/>
    </path>
    <path d="M-245.0 -415.95 Q-245.0 -430.95 -230.0 -430.95 L230.0 -430.95 Q245.0 -430.95 245.0 -415.95 L245.0 -160.0 Q245.0 -145.0 230.0 -145.0 L-230.0 -145.0 Q-245.0 -145.0 -245.0 -160.0 L-245.0 -415.95 Z" fill="none" stroke="#000000" stroke-linecap="round" stroke-linejoin="round" stroke-opacity="0.0" stroke-width="0.0">
      <animate attributeName="stroke" dur="2.0s" repeatCount="indefinite" values="#000000;#000001"/>
      <animate attributeName="stroke-width" dur="2.0s" repeatCount="indefinite" values="0.0;0.0"/>
      <animate attributeName="fill-opacity" dur="2.0s" repeatCount="indefinite" values="0.0;0.0"/>
      <animate attributeName="d" dur="2.0s" repeatCount="indefinite" values="M-245.0 -415.95 Q-245.0 -430.95 -230.0 -430.95 L230.0 -430.95 Q245.0 -430.95 245.0 -415.95 L245.0 -160.0 Q245.0 -145.0 230.0 -145.0 L-230.0 -145.0 Q-245.0 -145.0 -245.0 -160.0 L-245.0 -415.95 Z;M-245.0 -127.95 Q-245.0 -142.95 -230.0 -142.95 L230.0 -142.95 Q245.0 -142.95 245.0 -127.95 L245.0 128.0 Q245.0 143.0 230.0 143.0 L-230.0 143.0 Q-245.0 143.0 -245.0 128.0 L-245.0 -127.95 Z"/>
    </path>
  </g>
</svg>
