<?xml version="1.0" encoding="UTF-8" standalone="no"?>
<svg xmlns:ffdec="https://www.free-decompiler.com/flash" xmlns:xlink="http://www.w3.org/1999/xlink" ffdec:objectType="morphshape" height="225.0px" width="427.0px" xmlns="http://www.w3.org/2000/svg">
  <g transform="matrix(1.0, 0.0, 0.0, 1.0, 213.5, 112.5)">
    <path d="M-213.5 -97.35 L-213.5 97.35 Q-213.5 112.5 -198.5 112.5 L198.5 112.5 Q213.5 112.5 213.5 97.35 L213.5 -97.35 Q213.5 -112.5 198.5 -112.5 L-198.5 -112.5 Q-213.5 -112.5 -213.5 -97.35" fill="#ffffff" fill-opacity="0.2509804" fill-rule="evenodd" stroke="none">
      <animate attributeName="fill" dur="2.0s" repeatCount="indefinite" values="#ffffff;#ffffff"/>
      <animate attributeName="fill-opacity" dur="2.0s" repeatCount="indefinite" values="0.2509804;0.101960786"/>
      <animate attributeName="d" dur="2.0s" repeatCount="indefinite" values="M-213.5 -97.35 L-213.5 97.35 Q-213.5 112.5 -198.5 112.5 L198.5 112.5 Q213.5 112.5 213.5 97.35 L213.5 -97.35 Q213.5 -112.5 198.5 -112.5 L-198.5 -112.5 Q-213.5 -112.5 -213.5 -97.35;M-30.0 -14.2 L-30.0 14.2 Q-30.0 30.0 -14.25 30.0 L14.2 30.0 Q30.0 30.0 30.0 14.2 L30.0 -14.2 Q30.0 -30.0 14.2 -30.0 L-14.25 -30.0 Q-30.0 -30.0 -30.0 -14.2"/>
    </path>
    <path d="M-213.5 -97.35 Q-213.5 -112.5 -198.5 -112.5 L198.5 -112.5 Q213.5 -112.5 213.5 -97.35 L213.5 97.35 Q213.5 112.5 198.5 112.5 L-198.5 112.5 Q-213.5 112.5 -213.5 97.35 L-213.5 -97.35 Z" fill="none" stroke="#000000" stroke-linecap="round" stroke-linejoin="round" stroke-opacity="0.0" stroke-width="0.0">
      <animate attributeName="stroke" dur="2.0s" repeatCount="indefinite" values="#000000;#000001"/>
      <animate attributeName="stroke-width" dur="2.0s" repeatCount="indefinite" values="0.0;0.0"/>
      <animate attributeName="fill-opacity" dur="2.0s" repeatCount="indefinite" values="0.0;0.0"/>
      <animate attributeName="d" dur="2.0s" repeatCount="indefinite" values="M-213.5 -97.35 Q-213.5 -112.5 -198.5 -112.5 L198.5 -112.5 Q213.5 -112.5 213.5 -97.35 L213.5 97.35 Q213.5 112.5 198.5 112.5 L-198.5 112.5 Q-213.5 112.5 -213.5 97.35 L-213.5 -97.35 Z;M-30.0 -14.2 Q-30.0 -30.0 -14.25 -30.0 L14.2 -30.0 Q30.0 -30.0 30.0 -14.2 L30.0 14.2 Q30.0 30.0 14.2 30.0 L-14.25 30.0 Q-30.0 30.0 -30.0 14.2 L-30.0 -14.2 Z"/>
    </path>
  </g>
</svg>
