<?xml version="1.0" encoding="UTF-8" standalone="no"?>
<svg xmlns:ffdec="https://www.free-decompiler.com/flash" xmlns:xlink="http://www.w3.org/1999/xlink" ffdec:objectType="morphshape" height="186.95px" width="508.0px" xmlns="http://www.w3.org/2000/svg">
  <g transform="matrix(1.0, 0.0, 0.0, 1.0, -21.0, -131.55)">
    <path d="M254.25 218.45 L254.25 231.3 Q254.25 232.35 255.3 232.35 L293.75 232.35 Q294.8 232.35 294.8 231.3 L294.8 218.45 Q294.8 217.45 293.75 217.45 L255.3 217.45 Q254.25 217.45 254.25 218.45" fill="#ffffff" fill-opacity="0.101960786" fill-rule="evenodd" stroke="none">
      <animate attributeName="fill" dur="2.0s" repeatCount="indefinite" values="#ffffff;#ffffff"/>
      <animate attributeName="fill-opacity" dur="2.0s" repeatCount="indefinite" values="0.101960786;0.101960786"/>
      <animate attributeName="d" dur="2.0s" repeatCount="indefinite" values="M254.25 218.45 L254.25 231.3 Q254.25 232.35 255.3 232.35 L293.75 232.35 Q294.8 232.35 294.8 231.3 L294.8 218.45 Q294.8 217.45 293.75 217.45 L255.3 217.45 Q254.25 217.45 254.25 218.45;M21.0 144.55 L21.0 305.5 Q21.0 318.5 34.0 318.5 L516.0 318.5 Q529.0 318.5 529.0 305.5 L529.0 144.55 Q529.0 131.55 516.0 131.55 L34.0 131.55 Q21.0 131.55 21.0 144.55"/>
    </path>
    <path d="M254.25 218.45 Q254.25 217.45 255.3 217.45 L293.75 217.45 Q294.8 217.45 294.8 218.45 L294.8 231.3 Q294.8 232.35 293.75 232.35 L255.3 232.35 Q254.25 232.35 254.25 231.3 L254.25 218.45 Z" fill="none" stroke="#000000" stroke-linecap="round" stroke-linejoin="round" stroke-opacity="0.0" stroke-width="0.0">
      <animate attributeName="stroke" dur="2.0s" repeatCount="indefinite" values="#000000;#000001"/>
      <animate attributeName="stroke-width" dur="2.0s" repeatCount="indefinite" values="0.0;0.0"/>
      <animate attributeName="fill-opacity" dur="2.0s" repeatCount="indefinite" values="0.0;0.0"/>
      <animate attributeName="d" dur="2.0s" repeatCount="indefinite" values="M254.25 218.45 Q254.25 217.45 255.3 217.45 L293.75 217.45 Q294.8 217.45 294.8 218.45 L294.8 231.3 Q294.8 232.35 293.75 232.35 L255.3 232.35 Q254.25 232.35 254.25 231.3 L254.25 218.45 Z;M21.0 144.55 Q21.0 131.55 34.0 131.55 L516.0 131.55 Q529.0 131.55 529.0 144.55 L529.0 305.5 Q529.0 318.5 516.0 318.5 L34.0 318.5 Q21.0 318.5 21.0 305.5 L21.0 144.55 Z"/>
    </path>
  </g>
</svg>
