<?xml version="1.0" encoding="UTF-8" standalone="no"?>
<svg xmlns:ffdec="https://www.free-decompiler.com/flash" xmlns:xlink="http://www.w3.org/1999/xlink" ffdec:objectType="morphshape" height="62.1px" width="397.6px" xmlns="http://www.w3.org/2000/svg">
  <g transform="matrix(1.0, 0.0, 0.0, 1.0, 0.0, 0.0)">
    <path d="M0.0 20.0 L0.0 42.1 Q0.0 62.1 20.0 62.1 L377.6 62.1 Q397.6 62.1 397.6 42.1 L397.6 20.0 Q397.6 0.0 377.6 0.0 L20.0 0.0 Q0.0 0.0 0.0 20.0" fill="#ffffff" fill-opacity="0.1764706" fill-rule="evenodd" stroke="none">
      <animate attributeName="fill" dur="2.0s" repeatCount="indefinite" values="#ffffff;#ffffff"/>
      <animate attributeName="fill-opacity" dur="2.0s" repeatCount="indefinite" values="0.1764706;0.05882353"/>
      <animate attributeName="d" dur="2.0s" repeatCount="indefinite" values="M0.0 20.0 L0.0 42.1 Q0.0 62.1 20.0 62.1 L377.6 62.1 Q397.6 62.1 397.6 42.1 L397.6 20.0 Q397.6 0.0 377.6 0.0 L20.0 0.0 Q0.0 0.0 0.0 20.0;M0.0 20.0 L0.0 42.1 Q0.0 62.1 20.0 62.1 L377.6 62.1 Q397.6 62.1 397.6 42.1 L397.6 20.0 Q397.6 0.0 377.6 0.0 L20.0 0.0 Q0.0 0.0 0.0 20.0"/>
    </path>
    <path d="M0.0 20.0 Q0.0 0.0 20.0 0.0 L377.6 0.0 Q397.6 0.0 397.6 20.0 L397.6 42.1 Q397.6 62.1 377.6 62.1 L20.0 62.1 Q0.0 62.1 0.0 42.1 L0.0 20.0 Z" fill="none" stroke="#000000" stroke-linecap="round" stroke-linejoin="round" stroke-opacity="0.0" stroke-width="0.0">
      <animate attributeName="stroke" dur="2.0s" repeatCount="indefinite" values="#000000;#000001"/>
      <animate attributeName="stroke-width" dur="2.0s" repeatCount="indefinite" values="0.0;0.0"/>
      <animate attributeName="fill-opacity" dur="2.0s" repeatCount="indefinite" values="0.0;0.0"/>
      <animate attributeName="d" dur="2.0s" repeatCount="indefinite" values="M0.0 20.0 Q0.0 0.0 20.0 0.0 L377.6 0.0 Q397.6 0.0 397.6 20.0 L397.6 42.1 Q397.6 62.1 377.6 62.1 L20.0 62.1 Q0.0 62.1 0.0 42.1 L0.0 20.0 Z;M0.0 20.0 Q0.0 0.0 20.0 0.0 L377.6 0.0 Q397.6 0.0 397.6 20.0 L397.6 42.1 Q397.6 62.1 377.6 62.1 L20.0 62.1 Q0.0 62.1 0.0 42.1 L0.0 20.0 Z"/>
    </path>
  </g>
</svg>
