<?xml version="1.0" encoding="UTF-8" standalone="no"?>
<svg xmlns:ffdec="https://www.free-decompiler.com/flash" xmlns:xlink="http://www.w3.org/1999/xlink" ffdec:objectType="morphshape" height="127.0px" width="305.0px" xmlns="http://www.w3.org/2000/svg">
  <g transform="matrix(1.0, 0.0, 0.0, 1.0, 0.0, 0.0)">
    <path d="M0.0 10.0 L0.0 28.0 305.0 28.0 305.0 10.0 Q305.0 0.0 295.0 0.0 L10.0 0.0 Q0.0 0.0 0.0 10.0" fill="#000000" fill-opacity="0.6" fill-rule="evenodd" stroke="none">
      <animate attributeName="fill" dur="2.0s" repeatCount="indefinite" values="#000000;#000001"/>
      <animate attributeName="fill-opacity" dur="2.0s" repeatCount="indefinite" values="0.6;0.29803923"/>
      <animate attributeName="d" dur="2.0s" repeatCount="indefinite" values="M0.0 10.0 L0.0 28.0 305.0 28.0 305.0 10.0 Q305.0 0.0 295.0 0.0 L10.0 0.0 Q0.0 0.0 0.0 10.0;M0.0 10.0 L0.0 28.0 305.0 28.0 305.0 10.0 Q305.0 0.0 295.0 0.0 L10.0 0.0 Q0.0 0.0 0.0 10.0"/>
    </path>
    <path d="M0.0 28.0 L0.0 117.0 Q0.0 127.0 10.0 127.0 L295.0 127.0 Q305.0 127.0 305.0 117.0 L305.0 28.0 0.0 28.0" fill="#220000" fill-opacity="0.49803922" fill-rule="evenodd" stroke="none">
      <animate attributeName="fill" dur="2.0s" repeatCount="indefinite" values="#220000;#220001"/>
      <animate attributeName="fill-opacity" dur="2.0s" repeatCount="indefinite" values="0.49803922;0.2"/>
      <animate attributeName="d" dur="2.0s" repeatCount="indefinite" values="M0.0 28.0 L0.0 117.0 Q0.0 127.0 10.0 127.0 L295.0 127.0 Q305.0 127.0 305.0 117.0 L305.0 28.0 0.0 28.0;M0.0 28.0 L0.0 117.0 Q0.0 127.0 10.0 127.0 L295.0 127.0 Q305.0 127.0 305.0 117.0 L305.0 28.0 0.0 28.0"/>
    </path>
    <path d="M0.0 10.0 Q0.0 0.0 10.0 0.0 L295.0 0.0 Q305.0 0.0 305.0 10.0 L305.0 28.0 0.0 28.0 0.0 10.0 M0.0 28.0 L305.0 28.0 305.0 117.0 Q305.0 127.0 295.0 127.0 L10.0 127.0 Q0.0 127.0 0.0 117.0 L0.0 28.0 Z" fill="none" stroke="#000000" stroke-linecap="round" stroke-linejoin="round" stroke-opacity="0.0" stroke-width="0.0">
      <animate attributeName="stroke" dur="2.0s" repeatCount="indefinite" values="#000000;#000001"/>
      <animate attributeName="stroke-width" dur="2.0s" repeatCount="indefinite" values="0.0;0.0"/>
      <animate attributeName="fill-opacity" dur="2.0s" repeatCount="indefinite" values="0.0;0.0"/>
      <animate attributeName="d" dur="2.0s" repeatCount="indefinite" values="M0.0 10.0 Q0.0 0.0 10.0 0.0 L295.0 0.0 Q305.0 0.0 305.0 10.0 L305.0 28.0 0.0 28.0 0.0 10.0 M0.0 28.0 L305.0 28.0 305.0 117.0 Q305.0 127.0 295.0 127.0 L10.0 127.0 Q0.0 127.0 0.0 117.0 L0.0 28.0 Z;M0.0 10.0 Q0.0 0.0 10.0 0.0 L295.0 0.0 Q305.0 0.0 305.0 10.0 L305.0 28.0 0.0 28.0 0.0 10.0 M0.0 28.0 L305.0 28.0 305.0 117.0 Q305.0 127.0 295.0 127.0 L10.0 127.0 Q0.0 127.0 0.0 117.0 L0.0 28.0 Z"/>
    </path>
  </g>
</svg>
