<?xml version="1.0" encoding="UTF-8" standalone="no"?>
<svg xmlns:ffdec="https://www.free-decompiler.com/flash" xmlns:xlink="http://www.w3.org/1999/xlink" ffdec:objectType="shape" height="88.1px" width="70.6px" xmlns="http://www.w3.org/2000/svg">
  <g transform="matrix(1.0, 0.0, 0.0, 1.0, 35.3, 44.05)">
    <path d="M34.65 -34.45 L34.65 -33.75 Q33.75 -4.9 26.35 11.7 18.9 28.25 0.3 42.95 L-0.1 43.25 -0.5 42.95 Q-19.05 28.25 -26.45 11.65 -33.8 -4.9 -34.65 -33.75 L-34.65 -34.45 -30.75 -34.35 Q-22.2 -34.35 -14.9 -36.6 -8.85 -38.5 -0.4 -43.15 L-0.1 -43.3 0.2 -43.15 Q8.65 -38.5 14.75 -36.6 22.1 -34.35 30.75 -34.35 L34.65 -34.45" fill="url(#gradient0)" fill-rule="evenodd" stroke="none"/>
    <path d="M34.0 -33.75 L30.75 -33.7 Q21.9 -33.7 14.4 -36.05 8.35 -37.95 -0.1 -42.55 -8.5 -37.95 -14.5 -36.05 -21.95 -33.7 -30.75 -33.7 L-34.0 -33.75 Q-33.2 -4.8 -25.65 11.85 -18.35 27.95 -0.1 42.45 18.25 27.95 25.6 11.85 33.1 -4.75 34.0 -33.75 M30.75 -34.95 L35.3 -35.1 35.3 -33.75 Q34.4 -4.7 26.95 12.0 19.45 28.7 0.7 43.45 L-0.1 44.05 -0.9 43.45 Q-19.55 28.65 -27.0 11.95 -34.45 -4.7 -35.3 -33.75 L-35.3 -35.1 -30.75 -34.95 Q-22.3 -34.95 -15.1 -37.2 -9.05 -39.1 -0.7 -43.7 L-0.1 -44.05 0.55 -43.7 Q8.9 -39.1 14.95 -37.2 22.2 -34.95 30.75 -34.95" fill="#424242" fill-rule="evenodd" stroke="none"/>
    <path d="M-25.05 -24.6 Q-17.3 -24.3 -11.45 -26.05 -7.05 -27.4 0.05 -31.35 L0.05 31.15 Q-14.0 20.0 -19.1 9.05 -24.4 -2.5 -25.05 -24.6" fill="url(#gradient1)" fill-rule="evenodd" stroke="none"/>
    <path d="M11.45 -26.05 Q17.3 -24.3 25.05 -24.6 24.4 -2.45 19.1 9.05 14.0 20.0 -0.1 31.15 L-0.1 -31.35 Q7.0 -27.4 11.45 -26.05" fill="url(#gradient2)" fill-rule="evenodd" stroke="none"/>
    <path d="M26.2 -25.7 L26.2 -24.55 Q25.55 -2.6 20.3 9.0 15.0 20.65 0.6 31.95 L0.3 32.25 -0.05 32.5 -0.7 31.95 Q-15.05 20.65 -20.3 9.0 -25.5 -2.6 -26.2 -24.55 L-26.2 -25.7 -22.6 -25.6 Q-15.95 -25.6 -10.95 -27.3 -7.35 -28.5 -0.55 -32.3 L-0.3 -32.45 -0.05 -32.55 Q0.25 -32.4 0.5 -32.3 7.25 -28.5 10.85 -27.3 15.9 -25.6 22.6 -25.6 L26.2 -25.7 M10.45 -25.2 Q6.65 -26.45 -0.05 -30.1 -6.9 -26.35 -10.6 -25.15 -15.75 -23.45 -22.6 -23.45 L-24.0 -23.45 Q-23.25 -2.7 -18.4 8.1 -13.5 18.9 -0.05 29.75 13.5 18.9 18.35 8.1 23.25 -2.7 24.0 -23.45 L22.6 -23.45 Q15.75 -23.45 10.45 -25.2" fill="#ffffff" fill-rule="evenodd" stroke="none"/>
    <path d="M11.0 -27.8 Q16.0 -26.15 22.6 -26.15 L25.05 -26.15 26.75 -26.25 26.7 -24.55 Q26.05 -2.45 20.75 9.25 15.45 20.95 0.95 32.4 L-0.05 33.15 -1.05 32.4 Q-15.5 20.95 -20.75 9.25 -26.05 -2.5 -26.7 -24.55 L-26.75 -26.25 -22.6 -26.15 Q-15.95 -26.15 -11.15 -27.75 -7.55 -28.95 -0.8 -32.75 L-0.05 -33.15 0.75 -32.75 Q7.35 -29.05 11.0 -27.8 M23.45 -22.95 L22.6 -22.95 Q15.7 -22.95 10.4 -24.65 6.5 -25.9 -0.05 -29.5 -6.6 -25.9 -10.5 -24.65 -15.75 -22.95 -22.6 -22.95 L-23.45 -22.95 Q-22.65 -2.1 -17.4 8.95 -12.7 18.8 -0.05 29.1 13.1 18.5 17.85 7.9 22.65 -2.75 23.45 -22.95 M22.6 -24.0 L24.55 -24.0 Q23.8 -2.35 18.65 8.85 13.7 19.5 -0.05 30.4 -13.7 19.45 -18.65 8.85 -23.8 -2.35 -24.55 -24.0 L-22.6 -24.0 Q-15.75 -24.0 -10.5 -25.75 -6.85 -26.95 -0.05 -30.7 6.75 -27.0 10.4 -25.75 15.7 -24.0 22.6 -24.0 M22.6 -25.1 Q15.75 -25.1 10.55 -26.85 6.95 -28.05 0.25 -31.8 L-0.05 -31.95 Q-0.15 -31.85 -0.3 -31.8 -7.1 -28.05 -10.6 -26.85 -15.8 -25.1 -22.6 -25.1 L-25.7 -25.15 -25.65 -24.55 Q-25.0 -2.4 -19.65 9.25 -14.55 20.4 -0.4 31.55 L-0.05 31.85 0.3 31.55 Q14.5 20.4 19.65 9.25 25.0 -2.35 25.65 -24.55 L25.7 -25.15 22.6 -25.1" fill="#ffffff" fill-rule="evenodd" stroke="none"/>
  </g>
  <defs>
    <linearGradient gradientTransform="matrix(0.0174, -0.0345, -0.0345, -0.0174, -8.3, -3.15)" gradientUnits="userSpaceOnUse" id="gradient0" spreadMethod="pad" x1="-819.2" x2="819.2">
      <stop offset="0.0" stop-color="#939393"/>
      <stop offset="0.5215686274509804" stop-color="#bcbcbc"/>
      <stop offset="1.0" stop-color="#535353"/>
    </linearGradient>
    <linearGradient gradientTransform="matrix(0.0153, 0.0, 0.0, -0.0153, -12.5, -0.1)" gradientUnits="userSpaceOnUse" id="gradient1" spreadMethod="pad" x1="-819.2" x2="819.2">
      <stop offset="0.0" stop-color="#ffffff"/>
      <stop offset="1.0" stop-color="#e5e6e7"/>
    </linearGradient>
    <linearGradient gradientTransform="matrix(0.0153, 0.0, 0.0, -0.0153, 12.45, -0.1)" gradientUnits="userSpaceOnUse" id="gradient2" spreadMethod="pad" x1="-819.2" x2="819.2">
      <stop offset="0.0" stop-color="#ffffff"/>
      <stop offset="1.0" stop-color="#e5e6e7"/>
    </linearGradient>
  </defs>
</svg>
