<?xml version="1.0" encoding="UTF-8" standalone="no"?>
<svg xmlns:ffdec="https://www.free-decompiler.com/flash" xmlns:xlink="http://www.w3.org/1999/xlink" ffdec:objectType="shape" height="51.05px" width="41.1px" xmlns="http://www.w3.org/2000/svg">
  <g transform="matrix(1.0, 0.0, 0.0, 1.0, 0.0, 0.0)">
    <path d="M40.65 5.5 L41.1 5.45 41.1 5.95 Q40.6 23.7 36.3 33.0 32.15 41.9 20.8 50.85 L20.5 51.05 20.25 50.85 Q8.95 41.9 4.8 33.0 0.5 23.7 0.0 5.95 L0.0 5.45 0.45 5.5 2.45 5.5 Q7.95 5.5 12.05 4.1 14.9 3.15 20.3 0.15 L20.5 0.0 20.75 0.15 Q26.15 3.15 29.0 4.1 33.15 5.5 38.65 5.5 L40.65 5.5" fill="url(#gradient0)" fill-rule="evenodd" stroke="none"/>
  </g>
  <defs>
    <linearGradient gradientTransform="matrix(-0.0088, -0.0229, -0.0229, 0.0088, 23.4, 20.4)" gradientUnits="userSpaceOnUse" id="gradient0" spreadMethod="pad" x1="-819.2" x2="819.2">
      <stop offset="0.0" stop-color="#112743"/>
      <stop offset="1.0" stop-color="#204c7a"/>
    </linearGradient>
  </defs>
</svg>
