<?xml version="1.0" encoding="UTF-8" standalone="no"?>
<svg xmlns:ffdec="https://www.free-decompiler.com/flash" xmlns:xlink="http://www.w3.org/1999/xlink" ffdec:objectType="shape" height="30.0px" width="160.0px" xmlns="http://www.w3.org/2000/svg">
  <g transform="matrix(1.0, 0.0, 0.0, 1.0, 0.0, 0.0)">
    <path d="M154.5 0.0 Q160.0 0.0 160.0 5.4 L160.0 24.6 Q160.0 29.45 155.6 29.95 L154.75 30.0 5.25 30.0 4.4 29.95 Q0.0 29.45 0.0 24.6 L0.0 5.4 Q0.0 0.0 5.5 0.0 L154.5 0.0 M159.0 5.4 Q159.0 1.0 154.5 1.0 L5.5 1.0 Q1.0 1.0 1.0 5.4 L1.0 24.6 Q1.0 28.6 4.55 28.95 L5.25 29.0 154.75 29.0 155.45 28.95 Q159.0 28.6 159.0 24.6 L159.0 5.4" fill="#000000" fill-rule="evenodd" stroke="none"/>
  </g>
</svg>
