<?xml version="1.0" encoding="UTF-8" standalone="no"?>
<svg xmlns:ffdec="https://www.free-decompiler.com/flash" xmlns:xlink="http://www.w3.org/1999/xlink" ffdec:objectType="shape" height="350.0px" width="500.0px" xmlns="http://www.w3.org/2000/svg">
  <g transform="matrix(1.0, 0.0, 0.0, 1.0, 0.0, 0.0)">
    <path d="M478.8 0.0 L480.1 0.05 Q499.45 0.65 500.0 19.95 L500.0 21.05 500.0 328.95 500.0 330.05 Q499.45 349.35 480.1 350.0 L478.8 350.0 21.2 350.0 19.95 350.0 Q0.55 349.4 0.05 330.05 L0.0 328.95 0.0 21.05 0.05 19.95 Q0.55 0.6 19.95 0.05 L21.2 0.0 478.8 0.0 M497.5 21.05 L497.5 19.9 Q496.95 3.15 480.15 2.55 L478.8 2.5 21.2 2.5 19.9 2.55 Q3.05 3.15 2.55 19.9 L2.5 21.05 2.5 328.95 2.55 330.1 Q3.05 346.95 19.95 347.55 L21.2 347.55 478.8 347.55 480.1 347.55 Q496.95 346.9 497.5 330.05 L497.5 328.95 497.5 21.05" fill="#e6e6e6" fill-rule="evenodd" stroke="none"/>
    <path d="M497.5 21.05 L497.5 328.95 497.5 330.05 Q496.95 346.9 480.1 347.55 L478.8 347.55 21.2 347.55 19.95 347.55 Q3.05 346.95 2.55 330.1 L2.5 328.95 2.5 21.05 2.55 19.9 Q3.05 3.15 19.9 2.55 L21.2 2.5 478.8 2.5 480.15 2.55 Q496.95 3.15 497.5 19.9 L497.5 21.05" fill="#ffffff" fill-rule="evenodd" stroke="none"/>
  </g>
</svg>
