<?xml version="1.0" encoding="UTF-8" standalone="no"?>
<svg xmlns:ffdec="https://www.free-decompiler.com/flash" xmlns:xlink="http://www.w3.org/1999/xlink" ffdec:objectType="shape" height="34.0px" width="164.0px" xmlns="http://www.w3.org/2000/svg">
  <g transform="matrix(1.0, 0.0, 0.0, 1.0, 2.0, 2.0)">
    <path d="M160.0 5.4 L160.0 24.6 Q160.0 30.0 154.5 30.0 L5.5 30.0 Q0.0 30.0 0.0 24.6 L0.0 5.4 Q0.0 0.0 5.5 0.0 L154.5 0.0 Q160.0 0.0 160.0 5.4" fill="#000000" fill-opacity="0.3019608" fill-rule="evenodd" stroke="none"/>
    <path d="M154.5 -1.5 L5.5 -1.5 Q-1.5 -1.5 -1.5 5.4 L-1.5 24.6 Q-1.5 31.5 5.5 31.5 L154.5 31.5 Q161.5 31.5 161.5 24.6 L161.5 5.4 Q161.5 -1.5 154.5 -1.5 M154.5 -2.0 Q162.05 -2.0 162.0 5.4 L162.0 24.6 Q162.05 32.0 154.5 32.0 L5.5 32.0 Q-2.0 32.0 -2.0 24.6 L-2.0 5.4 Q-2.0 -2.0 5.5 -2.0 L154.5 -2.0" fill="#000000" fill-opacity="0.05882353" fill-rule="evenodd" stroke="none"/>
    <path d="M154.5 -1.0 L5.5 -1.0 Q-1.0 -1.0 -1.0 5.4 L-1.0 24.6 Q-1.0 31.0 5.5 31.0 L154.5 31.0 Q161.0 31.0 161.0 24.6 L161.0 5.4 Q161.0 -1.0 154.5 -1.0 M154.5 -1.5 Q161.5 -1.5 161.5 5.4 L161.5 24.6 Q161.5 31.5 154.5 31.5 L5.5 31.5 Q-1.5 31.5 -1.5 24.6 L-1.5 5.4 Q-1.5 -1.5 5.5 -1.5 L154.5 -1.5" fill="#000000" fill-opacity="0.11764706" fill-rule="evenodd" stroke="none"/>
    <path d="M154.5 -0.5 L5.5 -0.5 Q-0.5 -0.5 -0.5 5.4 L-0.5 24.6 Q-0.5 30.5 5.5 30.5 L154.5 30.5 Q160.5 30.5 160.5 24.6 L160.5 5.4 Q160.5 -0.5 154.5 -0.5 M154.5 -1.0 Q161.0 -1.0 161.0 5.4 L161.0 24.6 Q161.0 31.0 154.5 31.0 L5.5 31.0 Q-1.0 31.0 -1.0 24.6 L-1.0 5.4 Q-1.0 -1.0 5.5 -1.0 L154.5 -1.0" fill="#000000" fill-opacity="0.18039216" fill-rule="evenodd" stroke="none"/>
    <path d="M154.5 -0.5 Q160.5 -0.5 160.5 5.4 L160.5 24.6 Q160.5 30.5 154.5 30.5 L5.5 30.5 Q-0.5 30.5 -0.5 24.6 L-0.5 5.4 Q-0.5 -0.5 5.5 -0.5 L154.5 -0.5 M160.0 5.4 Q160.0 0.0 154.5 0.0 L5.5 0.0 Q0.0 0.0 0.0 5.4 L0.0 24.6 Q0.0 30.0 5.5 30.0 L154.5 30.0 Q160.0 30.0 160.0 24.6 L160.0 5.4" fill="#000000" fill-opacity="0.23921569" fill-rule="evenodd" stroke="none"/>
    <path d="M23.3 0.5 L154.5 0.5 Q159.5 0.5 159.5 5.4 L159.5 24.6 Q159.5 29.5 154.5 29.5 L23.3 29.5 23.3 0.5" fill="url(#gradient0)" fill-rule="evenodd" stroke="none"/>
    <path d="M11.1 29.5 L5.5 29.5 Q0.5 29.5 0.5 24.6 L0.5 5.4 Q0.5 0.5 5.5 0.5 L11.1 0.5 11.1 29.5" fill="url(#gradient1)" fill-rule="evenodd" stroke="none"/>
    <path d="M23.3 29.5 L11.1 29.5 11.1 0.5 23.3 0.5 23.3 29.5" fill="url(#gradient2)" fill-rule="evenodd" stroke="none"/>
  </g>
  <defs>
    <linearGradient gradientTransform="matrix(0.0, -0.0177, -0.0193, 0.0, 80.3, 15.2)" gradientUnits="userSpaceOnUse" id="gradient0" spreadMethod="pad" x1="-819.2" x2="819.2">
      <stop offset="0.0" stop-color="#999999"/>
      <stop offset="1.0" stop-color="#b3b3b3"/>
    </linearGradient>
    <linearGradient gradientTransform="matrix(0.0, -0.0177, 0.0193, 0.0, 79.7, 15.2)" gradientUnits="userSpaceOnUse" id="gradient1" spreadMethod="pad" x1="-819.2" x2="819.2">
      <stop offset="0.0" stop-color="#999999"/>
      <stop offset="1.0" stop-color="#b3b3b3"/>
    </linearGradient>
    <linearGradient gradientTransform="matrix(0.0, -0.0177, -0.0278, 0.0, 105.3, 15.2)" gradientUnits="userSpaceOnUse" id="gradient2" spreadMethod="pad" x1="-819.2" x2="819.2">
      <stop offset="0.0" stop-color="#999999"/>
      <stop offset="1.0" stop-color="#b3b3b3"/>
    </linearGradient>
  </defs>
</svg>
