<?xml version="1.0" encoding="UTF-8" standalone="no"?>
<svg xmlns:ffdec="https://www.free-decompiler.com/flash" xmlns:xlink="http://www.w3.org/1999/xlink" ffdec:objectType="shape" height="50.85px" width="403.9px" xmlns="http://www.w3.org/2000/svg">
  <g transform="matrix(1.0, 0.0, 0.0, 1.0, 159.8, 20.75)">
    <path d="M118.15 -4.35 Q121.1 -1.5 121.1 6.3 L121.1 29.35 112.35 29.35 111.6 27.05 Q106.1 30.1 101.3 30.1 96.55 30.1 94.1 26.95 91.9 24.05 91.9 19.15 91.9 13.7 94.5 11.3 97.0 8.95 102.65 8.95 L110.4 8.95 110.4 6.2 Q110.4 3.25 109.35 2.35 108.15 1.25 104.05 1.25 99.75 1.25 94.25 2.3 L92.85 -5.7 99.05 -7.0 105.8 -7.5 Q114.95 -7.5 118.15 -4.35 M110.4 16.4 L105.3 16.4 Q103.55 16.4 102.85 16.95 102.1 17.55 102.1 19.0 102.1 20.5 102.8 21.15 103.45 21.8 105.0 21.8 107.75 21.8 110.4 20.55 L110.4 16.4" fill="url(#gradient0)" fill-rule="evenodd" stroke="none"/>
    <path d="M162.05 3.7 L158.0 5.5 158.0 29.35 147.35 29.35 147.35 5.5 Q147.35 2.9 144.75 2.9 143.35 2.9 141.0 3.7 138.75 4.5 136.95 5.5 L136.95 29.35 126.3 29.35 126.3 -6.75 134.2 -6.75 135.35 -4.0 Q138.65 -5.6 142.65 -6.55 L149.7 -7.5 Q154.35 -7.5 156.3 -4.0 159.55 -5.55 163.2 -6.5 167.2 -7.5 170.8 -7.5 179.1 -7.5 179.1 4.05 L179.1 29.35 168.4 29.35 168.4 5.5 Q168.4 2.9 165.8 2.9 164.45 2.9 162.05 3.7" fill="url(#gradient1)" fill-rule="evenodd" stroke="none"/>
    <path d="M194.05 7.05 L203.4 7.05 203.4 5.5 Q203.4 3.3 202.55 2.25 201.5 0.9 198.95 0.9 194.05 0.9 194.05 5.5 L194.05 7.05 M198.85 -7.5 Q207.15 -7.5 210.7 -2.95 213.5 0.65 213.5 7.5 L213.5 15.05 194.05 15.05 194.05 16.1 Q194.05 19.15 195.5 20.3 196.85 21.35 200.55 21.35 L206.1 20.95 211.55 19.8 213.1 27.8 Q210.45 28.8 207.0 29.4 L199.55 30.1 Q183.35 30.1 183.35 15.4 L183.35 6.95 Q183.35 -7.5 198.85 -7.5" fill="url(#gradient2)" fill-rule="evenodd" stroke="none"/>
    <path d="M244.1 18.6 Q244.1 24.45 241.25 27.15 238.1 30.1 230.7 30.1 L224.0 29.5 217.55 27.95 219.25 20.0 Q224.75 21.65 230.15 21.65 232.45 21.65 233.2 20.95 233.85 20.3 233.85 18.6 233.85 16.8 233.1 16.25 232.2 15.6 228.0 14.6 221.75 13.05 219.95 10.7 218.45 8.75 218.45 3.35 218.45 -2.55 221.3 -4.95 224.35 -7.5 232.25 -7.5 L237.55 -7.2 243.2 -6.3 242.25 2.0 Q236.65 0.95 232.3 0.95 230.1 0.95 229.2 1.6 228.45 2.1 228.45 3.4 228.45 5.1 229.15 5.65 229.85 6.2 233.05 6.9 240.45 8.55 242.45 10.9 244.1 12.85 244.1 18.6" fill="url(#gradient3)" fill-rule="evenodd" stroke="none"/>
    <path d="M-129.9 -20.0 L-114.8 29.35 -126.35 29.35 -129.0 19.7 -145.55 19.7 -148.2 29.35 -159.8 29.35 -144.75 -20.0 -129.9 -20.0 M-143.05 10.45 L-131.7 10.45 -137.3 -10.25 -143.05 10.45" fill="url(#gradient4)" fill-rule="evenodd" stroke="none"/>
    <path d="M-50.75 5.5 L-50.75 29.35 -61.45 29.35 -61.45 5.5 Q-61.45 2.9 -64.05 2.9 -65.4 2.9 -67.8 3.7 L-71.85 5.5 -71.85 29.35 -82.5 29.35 -82.5 -6.75 -74.55 -6.75 -73.45 -4.0 Q-70.15 -5.6 -66.15 -6.55 -62.25 -7.5 -59.1 -7.5 -54.45 -7.5 -52.5 -4.0 -49.25 -5.55 -45.6 -6.5 -41.6 -7.5 -38.0 -7.5 -29.7 -7.5 -29.7 4.05 L-29.7 29.35 -40.4 29.35 -40.4 5.5 Q-40.4 2.9 -43.0 2.9 L-46.7 3.7 Q-48.95 4.5 -50.75 5.5" fill="url(#gradient5)" fill-rule="evenodd" stroke="none"/>
    <path d="M3.85 25.6 Q-0.25 30.1 -9.1 30.1 -17.95 30.1 -22.05 25.6 -25.4 21.9 -25.4 15.5 L-25.4 7.1 Q-25.4 0.7 -22.05 -2.95 -17.95 -7.5 -9.1 -7.5 -0.25 -7.5 3.85 -2.95 7.2 0.7 7.2 7.1 L7.2 15.5 Q7.2 21.9 3.85 25.6 M-9.1 1.5 Q-14.75 1.5 -14.75 6.8 L-14.75 15.8 Q-14.75 21.15 -9.1 21.15 -3.5 21.15 -3.5 15.8 L-3.5 6.8 Q-3.5 1.5 -9.1 1.5" fill="url(#gradient6)" fill-rule="evenodd" stroke="none"/>
    <path d="M87.4 4.5 L87.45 4.5 87.45 27.75 Q79.2 30.1 70.4 30.1 61.6 30.1 56.85 25.9 52.3 21.9 52.3 14.95 L52.3 -5.65 Q52.3 -12.65 56.85 -16.6 61.55 -20.75 70.4 -20.75 78.0 -20.75 86.15 -19.2 L84.85 -9.5 70.4 -10.7 Q66.5 -10.7 64.8 -8.75 63.4 -7.15 63.4 -3.95 L63.4 13.05 Q63.4 16.3 64.8 18.0 66.5 20.1 70.4 20.1 L77.0 19.65 77.0 13.1 71.15 13.5 70.85 4.55 76.7 3.8 Q83.35 3.25 87.4 4.5" fill="url(#gradient7)" fill-rule="evenodd" stroke="none"/>
    <path d="M-98.6 7.35 L-98.6 29.35 -109.25 29.35 -109.25 -6.75 -100.35 -6.75 -99.6 -3.25 Q-97.65 -4.6 -93.6 -6.2 -89.0 -8.0 -86.45 -8.1 L-87.3 1.55 -93.25 4.0 Q-97.1 5.8 -98.6 7.35" fill="url(#gradient8)" fill-rule="evenodd" stroke="none"/>
    <path d="M21.25 7.35 L21.25 29.35 10.6 29.35 10.6 -6.75 19.5 -6.75 20.25 -3.25 Q22.2 -4.6 26.25 -6.2 30.85 -8.0 33.4 -8.1 L32.55 1.55 26.6 4.0 Q22.75 5.8 21.25 7.35" fill="url(#gradient9)" fill-rule="evenodd" stroke="none"/>
  </g>
  <defs>
    <linearGradient gradientTransform="matrix(-0.0022, 0.0215, 0.0215, 0.0022, 106.15, 19.8)" gradientUnits="userSpaceOnUse" id="gradient0" spreadMethod="pad" x1="-819.2" x2="819.2">
      <stop offset="0.0" stop-color="#363636"/>
      <stop offset="1.0" stop-color="#202020"/>
    </linearGradient>
    <linearGradient gradientTransform="matrix(-0.0022, 0.0215, 0.0215, 0.0022, 151.35, 24.4)" gradientUnits="userSpaceOnUse" id="gradient1" spreadMethod="pad" x1="-819.2" x2="819.2">
      <stop offset="0.0" stop-color="#363636"/>
      <stop offset="1.0" stop-color="#202020"/>
    </linearGradient>
    <linearGradient gradientTransform="matrix(-0.0022, 0.0215, 0.0215, 0.0022, 197.0, 29.0)" gradientUnits="userSpaceOnUse" id="gradient2" spreadMethod="pad" x1="-819.2" x2="819.2">
      <stop offset="0.0" stop-color="#363636"/>
      <stop offset="1.0" stop-color="#202020"/>
    </linearGradient>
    <linearGradient gradientTransform="matrix(-0.0022, 0.0215, 0.0215, 0.0022, 229.1, 32.25)" gradientUnits="userSpaceOnUse" id="gradient3" spreadMethod="pad" x1="-819.2" x2="819.2">
      <stop offset="0.0" stop-color="#363636"/>
      <stop offset="1.0" stop-color="#202020"/>
    </linearGradient>
    <linearGradient gradientTransform="matrix(-0.0022, 0.0215, 0.0215, 0.0022, -133.85, -4.4)" gradientUnits="userSpaceOnUse" id="gradient4" spreadMethod="pad" x1="-819.2" x2="819.2">
      <stop offset="0.0" stop-color="#363636"/>
      <stop offset="1.0" stop-color="#202020"/>
    </linearGradient>
    <linearGradient gradientTransform="matrix(-0.0022, 0.0215, 0.0215, 0.0022, -55.3, 3.5)" gradientUnits="userSpaceOnUse" id="gradient5" spreadMethod="pad" x1="-819.2" x2="819.2">
      <stop offset="0.0" stop-color="#363636"/>
      <stop offset="1.0" stop-color="#202020"/>
    </linearGradient>
    <linearGradient gradientTransform="matrix(-0.0022, 0.0215, 0.0215, 0.0022, -8.8, 8.2)" gradientUnits="userSpaceOnUse" id="gradient6" spreadMethod="pad" x1="-819.2" x2="819.2">
      <stop offset="0.0" stop-color="#363636"/>
      <stop offset="1.0" stop-color="#202020"/>
    </linearGradient>
    <linearGradient gradientTransform="matrix(-0.0022, 0.0215, 0.0215, 0.0022, 69.3, 16.1)" gradientUnits="userSpaceOnUse" id="gradient7" spreadMethod="pad" x1="-819.2" x2="819.2">
      <stop offset="0.0" stop-color="#363636"/>
      <stop offset="1.0" stop-color="#202020"/>
    </linearGradient>
    <linearGradient gradientTransform="matrix(-0.0022, 0.0215, 0.0215, 0.0022, -98.45, -0.85)" gradientUnits="userSpaceOnUse" id="gradient8" spreadMethod="pad" x1="-819.2" x2="819.2">
      <stop offset="0.0" stop-color="#363636"/>
      <stop offset="1.0" stop-color="#202020"/>
    </linearGradient>
    <linearGradient gradientTransform="matrix(-0.0022, 0.0215, 0.0215, 0.0022, 20.2, 11.15)" gradientUnits="userSpaceOnUse" id="gradient9" spreadMethod="pad" x1="-819.2" x2="819.2">
      <stop offset="0.0" stop-color="#363636"/>
      <stop offset="1.0" stop-color="#202020"/>
    </linearGradient>
  </defs>
</svg>
