<?xml version="1.0" encoding="UTF-8" standalone="no"?>
<svg xmlns:ffdec="https://www.free-decompiler.com/flash" xmlns:xlink="http://www.w3.org/1999/xlink" ffdec:objectType="shape" height="97.1px" width="97.1px" xmlns="http://www.w3.org/2000/svg">
  <g transform="matrix(1.0, 0.0, 0.0, 1.0, 0.0, 0.0)">
    <path d="M96.1 10.5 L96.1 9.45 Q95.55 1.0 86.6 1.0 L86.05 1.0 10.95 1.0 10.5 1.0 Q1.55 1.0 1.05 9.45 L1.0 10.5 1.0 86.05 1.0 86.6 Q1.0 96.1 10.5 96.1 L10.95 96.1 86.05 96.1 86.6 96.1 Q96.1 96.1 96.1 86.6 L96.1 86.05 96.1 10.5 M86.6 0.0 Q96.55 0.0 97.1 9.45 L97.1 10.5 97.1 86.05 97.1 86.6 Q97.1 97.1 86.6 97.1 L86.05 97.1 10.95 97.1 10.5 97.1 Q0.0 97.1 0.0 86.6 L0.0 86.05 0.0 10.5 0.05 9.45 Q0.55 0.0 10.5 0.0 L10.95 0.0 86.05 0.0 86.6 0.0" fill="#c5c5c5" fill-rule="evenodd" stroke="none"/>
    <path d="M96.1 10.5 L96.1 86.05 96.1 86.6 Q96.1 96.1 86.6 96.1 L86.05 96.1 10.95 96.1 10.5 96.1 Q1.0 96.1 1.0 86.6 L1.0 86.05 1.0 10.5 1.05 9.45 Q1.55 1.0 10.5 1.0 L10.95 1.0 86.05 1.0 86.6 1.0 Q95.55 1.0 96.1 9.45 L96.1 10.5" fill="#ffffff" fill-rule="evenodd" stroke="none"/>
    <path d="M95.1 11.3 L95.1 85.8 Q95.1 95.1 85.8 95.1 L11.3 95.1 Q2.0 95.1 2.0 85.8 L2.0 11.3 2.1 9.5 Q2.95 2.0 11.3 2.0 L85.8 2.0 Q94.15 2.0 95.0 9.5 L95.1 11.3" fill="url(#gradient0)" fill-rule="evenodd" stroke="none"/>
  </g>
  <defs>
    <linearGradient gradientTransform="matrix(0.0, 0.0568, -0.0568, 0.0, 48.55, 48.55)" gradientUnits="userSpaceOnUse" id="gradient0" spreadMethod="pad" x1="-819.2" x2="819.2">
      <stop offset="0.0" stop-color="#333333" stop-opacity="0.101960786"/>
      <stop offset="1.0" stop-color="#333333" stop-opacity="0.0"/>
    </linearGradient>
  </defs>
</svg>
