<?xml version="1.0" encoding="UTF-8" standalone="no"?>
<svg xmlns:ffdec="https://www.free-decompiler.com/flash" xmlns:xlink="http://www.w3.org/1999/xlink" ffdec:objectType="shape" height="16.5px" width="16.5px" xmlns="http://www.w3.org/2000/svg">
  <g transform="matrix(1.0, 0.0, 0.0, 1.0, 8.25, 8.25)">
    <path d="M5.3 -5.35 Q7.5 -3.15 7.5 0.0 7.5 3.1 5.3 5.3 3.15 7.5 0.0 7.5 -3.1 7.5 -5.3 5.3 -7.5 3.1 -7.5 0.0 -7.5 -3.15 -5.3 -5.35 -3.1 -7.5 0.0 -7.5 3.15 -7.5 5.3 -5.35" fill="url(#gradient0)" fill-rule="evenodd" stroke="none"/>
    <path d="M5.3 -5.35 Q7.5 -3.15 7.5 0.0 7.5 3.1 5.3 5.3 3.15 7.5 0.0 7.5 -3.1 7.5 -5.3 5.3 -7.5 3.1 -7.5 0.0 -7.5 -3.15 -5.3 -5.35 -3.1 -7.5 0.0 -7.5 3.15 -7.5 5.3 -5.35 Z" fill="none" stroke="#eeeeee" stroke-linecap="round" stroke-linejoin="round" stroke-width="1.5"/>
  </g>
  <defs>
    <radialGradient cx="0" cy="0" gradientTransform="matrix(0.0093, 0.0, 0.0, 0.0093, 0.0, 0.0)" gradientUnits="userSpaceOnUse" id="gradient0" r="819.2" spreadMethod="pad">
      <stop offset="0.0" stop-color="#ffffff"/>
      <stop offset="1.0" stop-color="#e6e6e6"/>
    </radialGradient>
  </defs>
</svg>
