<?xml version="1.0" encoding="UTF-8" standalone="no"?>
<svg xmlns:ffdec="https://www.free-decompiler.com/flash" xmlns:xlink="http://www.w3.org/1999/xlink" ffdec:objectType="shape" height="15.0px" width="93.0px" xmlns="http://www.w3.org/2000/svg">
  <g transform="matrix(1.0, 0.0, 0.0, 1.0, 46.5, -28.7)">
    <path d="M-41.5 30.7 L-41.5 41.7 Q-41.5 43.7 -42.95 43.7 L-45.05 43.7 Q-46.5 43.7 -46.5 41.7 L-46.5 30.7 Q-46.5 28.7 -45.05 28.7 L-42.95 28.7 Q-41.5 28.7 -41.5 30.7 M-13.05 28.7 L-10.95 28.7 Q-9.5 28.7 -9.5 30.7 L-9.5 41.7 Q-9.5 43.7 -10.95 43.7 L-13.05 43.7 Q-14.5 43.7 -14.5 41.7 L-14.5 30.7 Q-14.5 28.7 -13.05 28.7 M-2.95 28.7 Q-1.5 28.7 -1.5 30.7 L-1.5 41.7 Q-1.5 43.7 -2.95 43.7 L-5.05 43.7 Q-6.5 43.7 -6.5 41.7 L-6.5 30.7 Q-6.5 28.7 -5.05 28.7 L-2.95 28.7 M-38.5 30.7 Q-38.5 28.7 -37.05 28.7 L-34.95 28.7 Q-33.5 28.7 -33.5 30.7 L-33.5 41.7 Q-33.5 43.7 -34.95 43.7 L-37.05 43.7 Q-38.5 43.7 -38.5 41.7 L-38.5 30.7 M-22.5 30.7 Q-22.5 28.7 -21.05 28.7 L-18.95 28.7 Q-17.5 28.7 -17.5 30.7 L-17.5 41.7 Q-17.5 43.7 -18.95 43.7 L-21.05 43.7 Q-22.5 43.7 -22.5 41.7 L-22.5 30.7 M-29.05 28.7 L-26.95 28.7 Q-25.5 28.7 -25.5 30.7 L-25.5 41.7 Q-25.5 43.7 -26.95 43.7 L-29.05 43.7 Q-30.5 43.7 -30.5 41.7 L-30.5 30.7 Q-30.5 28.7 -29.05 28.7 M25.5 30.7 Q25.5 28.7 26.95 28.7 L29.05 28.7 Q30.5 28.7 30.5 30.7 L30.5 41.7 Q30.5 43.7 29.05 43.7 L26.95 43.7 Q25.5 43.7 25.5 41.7 L25.5 30.7 M37.05 28.7 Q38.5 28.7 38.5 30.7 L38.5 41.7 Q38.5 43.7 37.05 43.7 L34.95 43.7 Q33.5 43.7 33.5 41.7 L33.5 30.7 Q33.5 28.7 34.95 28.7 L37.05 28.7 M1.5 30.7 Q1.5 28.7 2.95 28.7 L5.05 28.7 Q6.5 28.7 6.5 30.7 L6.5 41.7 Q6.5 43.7 5.05 43.7 L2.95 43.7 Q1.5 43.7 1.5 41.7 L1.5 30.7 M17.5 30.7 Q17.5 28.7 18.95 28.7 L21.05 28.7 Q22.5 28.7 22.5 30.7 L22.5 41.7 Q22.5 43.7 21.05 43.7 L18.95 43.7 Q17.5 43.7 17.5 41.7 L17.5 30.7 M13.05 28.7 Q14.5 28.7 14.5 30.7 L14.5 41.7 Q14.5 43.7 13.05 43.7 L10.95 43.7 Q9.5 43.7 9.5 41.7 L9.5 30.7 Q9.5 28.7 10.95 28.7 L13.05 28.7 M46.5 30.7 L46.5 41.7 Q46.5 43.7 45.05 43.7 L42.95 43.7 Q41.5 43.7 41.5 41.7 L41.5 30.7 Q41.5 28.7 42.95 28.7 L45.05 28.7 Q46.5 28.7 46.5 30.7" fill="#c5c5c5" fill-rule="evenodd" stroke="none"/>
  </g>
</svg>
