<?xml version="1.0" encoding="UTF-8" standalone="no"?>
<svg xmlns:ffdec="https://www.free-decompiler.com/flash" xmlns:xlink="http://www.w3.org/1999/xlink" ffdec:objectType="shape" height="21.0px" width="8.5px" xmlns="http://www.w3.org/2000/svg">
  <g transform="matrix(1.0, 0.0, 0.0, 1.0, 0.5, 0.5)">
    <path d="M2.2 0.5 L5.35 0.5 Q7.0 0.55 7.0 2.65 L7.0 17.3 Q7.0 19.45 5.35 19.5 L2.2 19.5 Q0.5 19.45 0.5 17.3 L0.5 2.65 Q0.5 0.55 2.2 0.5" fill="#009900" fill-rule="evenodd" stroke="none"/>
    <path d="M2.2 -0.5 L5.35 -0.5 Q8.0 -0.55 8.0 2.65 L8.0 17.3 Q8.0 20.55 5.35 20.5 L2.2 20.5 Q-0.5 20.55 -0.5 17.3 L-0.5 2.65 Q-0.5 -0.55 2.2 -0.5 M2.2 0.5 Q0.5 0.55 0.5 2.65 L0.5 17.3 Q0.5 19.45 2.2 19.5 L5.35 19.5 Q7.0 19.45 7.0 17.3 L7.0 2.65 Q7.0 0.55 5.35 0.5 L2.2 0.5" fill="#006600" fill-rule="evenodd" stroke="none"/>
    <path d="M6.1 3.35 Q6.1 1.5 5.0 1.45 L2.6 1.45 Q1.4 1.5 1.4 3.35 L1.4 16.6 Q1.4 18.5 2.6 18.55 L5.0 18.55 Q6.1 18.45 6.1 16.6 L6.1 3.35 M5.0 0.45 Q7.1 0.35 7.1 3.35 L7.1 16.6 Q7.1 19.65 5.0 19.55 L2.6 19.55 Q0.4 19.6 0.4 16.6 L0.4 3.35 Q0.4 0.4 2.6 0.45 L5.0 0.45" fill="#00cc00" fill-rule="evenodd" stroke="none"/>
  </g>
</svg>
