<?xml version="1.0" encoding="UTF-8" standalone="no"?>
<svg xmlns:ffdec="https://www.free-decompiler.com/flash" xmlns:xlink="http://www.w3.org/1999/xlink" ffdec:objectType="shape" height="22.8px" width="81.25px" xmlns="http://www.w3.org/2000/svg">
  <g transform="matrix(1.0, 0.0, 0.0, 1.0, 0.5, 0.5)">
    <path d="M79.75 10.9 Q79.75 15.2 76.7 18.25 73.65 21.3 69.35 21.3 L10.9 21.3 Q6.6 21.3 3.55 18.25 0.5 15.2 0.5 10.9 0.5 6.6 3.55 3.55 6.6 0.5 10.9 0.5 L69.35 0.5 Q73.65 0.5 76.7 3.55 79.75 6.6 79.75 10.9" fill="url(#gradient0)" fill-rule="evenodd" stroke="none"/>
    <path d="M10.9 -0.5 L69.35 -0.5 Q74.05 -0.5 77.4 2.85 80.75 6.2 80.75 10.9 80.75 15.6 77.4 18.95 74.05 22.3 69.35 22.3 L10.9 22.3 Q6.2 22.3 2.85 18.95 -0.5 15.6 -0.5 10.9 -0.5 6.2 2.85 2.85 6.2 -0.5 10.9 -0.5 M79.75 10.9 Q79.75 6.6 76.7 3.55 73.65 0.5 69.35 0.5 L10.9 0.5 Q6.6 0.5 3.55 3.55 0.5 6.6 0.5 10.9 0.5 15.2 3.55 18.25 6.6 21.3 10.9 21.3 L69.35 21.3 Q73.65 21.3 76.7 18.25 79.75 15.2 79.75 10.9" fill="#999999" fill-rule="evenodd" stroke="none"/>
  </g>
  <defs>
    <linearGradient gradientTransform="matrix(0.0, 0.0133, -0.0133, 0.0, 40.1, 10.9)" gradientUnits="userSpaceOnUse" id="gradient0" spreadMethod="pad" x1="-819.2" x2="819.2">
      <stop offset="0.0" stop-color="#ffffff"/>
      <stop offset="1.0" stop-color="#e1e1e1"/>
    </linearGradient>
  </defs>
</svg>
