<?xml version="1.0" encoding="UTF-8" standalone="no"?>
<svg xmlns:ffdec="https://www.free-decompiler.com/flash" xmlns:xlink="http://www.w3.org/1999/xlink" ffdec:objectType="shape" height="54.1px" width="43.5px" xmlns="http://www.w3.org/2000/svg">
  <g transform="matrix(1.0, 0.0, 0.0, 1.0, 22.15, 26.7)">
    <path d="M-0.65 -25.0 Q-6.05 -22.0 -8.9 -21.05 -13.0 -19.65 -18.5 -19.65 L-20.5 -19.65 -20.95 -19.7 -20.95 -19.2 Q-20.4 -1.45 -16.1 7.85 -12.0 16.75 -0.7 25.7 L-0.45 25.9 -0.15 25.7 Q11.2 16.75 15.35 7.85 19.65 -1.45 20.15 -19.2 L20.15 -19.7 19.7 -19.65 17.7 -19.65 Q12.2 -19.65 8.05 -21.05 5.2 -22.0 -0.2 -25.0 L-0.45 -25.15 -0.65 -25.0 Z" fill="none" stroke="#f2f2f2" stroke-linecap="butt" stroke-linejoin="miter-clip" stroke-miterlimit="4.0" stroke-width="2.4000000000000004"/>
  </g>
</svg>
