<?xml version="1.0" encoding="UTF-8" standalone="no"?>
<svg xmlns:ffdec="https://www.free-decompiler.com/flash" xmlns:xlink="http://www.w3.org/1999/xlink" ffdec:objectType="shape" height="16.0px" width="18.75px" xmlns="http://www.w3.org/2000/svg">
  <g transform="matrix(1.0, 0.0, 0.0, 1.0, 44.95, 8.0)">
    <path d="M-26.7 4.5 Q-26.7 6.1 -27.15 7.5 -27.85 5.75 -29.25 4.35 -31.75 1.85 -35.35 1.85 L-36.0 1.9 -36.0 4.9 -44.45 -1.3 -36.0 -7.5 -36.0 -4.1 -35.35 -4.15 Q-31.75 -4.15 -29.25 -1.65 -26.7 0.9 -26.7 4.5" fill="#ffffff" fill-opacity="0.40392157" fill-rule="evenodd" stroke="none"/>
    <path d="M-26.7 4.5 Q-26.7 6.1 -27.15 7.5 -27.85 5.75 -29.25 4.35 -31.75 1.85 -35.35 1.85 L-36.0 1.9 -36.0 4.9 -44.45 -1.3 -36.0 -7.5 -36.0 -4.1 -35.35 -4.15 Q-31.75 -4.15 -29.25 -1.65 -26.7 0.9 -26.7 4.5 Z" fill="none" stroke="#ffffff" stroke-linecap="round" stroke-linejoin="round" stroke-width="1.0"/>
  </g>
</svg>
