<?xml version="1.0" encoding="UTF-8" standalone="no"?>
<svg xmlns:ffdec="https://www.free-decompiler.com/flash" xmlns:xlink="http://www.w3.org/1999/xlink" ffdec:objectType="shape" height="23.0px" width="91.95px" xmlns="http://www.w3.org/2000/svg">
  <g transform="matrix(1.0, 0.0, 0.0, 1.0, 46.0, 11.5)">
    <path d="M38.95 -11.5 Q45.95 -11.5 45.95 -4.5 L45.95 4.5 Q45.95 11.5 38.95 11.5 L-40.0 11.5 -40.0 11.45 Q-46.0 11.0 -46.0 4.5 L-46.0 -4.5 Q-46.0 -11.0 -40.0 -11.45 L-40.0 -11.5 38.95 -11.5 M-33.05 -1.45 L-34.65 -1.45 -34.65 4.8 -37.35 4.8 -33.85 8.25 -30.4 4.8 -33.05 4.8 -33.05 -1.45 M-36.95 -5.0 L-34.25 -5.0 -37.75 -8.45 -41.2 -5.0 -38.55 -5.0 -38.55 1.25 -36.95 1.25 -36.95 -5.0" fill="#ffffff" fill-opacity="0.12156863" fill-rule="evenodd" stroke="none"/>
    <path d="M-36.95 -5.0 L-36.95 1.25 -38.55 1.25 -38.55 -5.0 -41.2 -5.0 -37.75 -8.45 -34.25 -5.0 -36.95 -5.0 M-33.05 -1.45 L-33.05 4.8 -30.4 4.8 -33.85 8.25 -37.35 4.8 -34.65 4.8 -34.65 -1.45 -33.05 -1.45" fill="#ffffff" fill-opacity="0.2509804" fill-rule="evenodd" stroke="none"/>
    <path d="M-36.95 -5.0 L-36.95 1.25 -38.55 1.25 -38.55 -5.0 -41.2 -5.0 -37.75 -8.45 -34.25 -5.0 -36.95 -5.0 M-33.05 -1.45 L-33.05 4.8 -30.4 4.8 -33.85 8.25 -37.35 4.8 -34.65 4.8 -34.65 -1.45 -33.05 -1.45 Z" fill="none" stroke="#ffffff" stroke-linecap="round" stroke-linejoin="round" stroke-width="1.0"/>
  </g>
</svg>
