<?xml version="1.0" encoding="UTF-8" standalone="no"?>
<svg xmlns:ffdec="https://www.free-decompiler.com/flash" xmlns:xlink="http://www.w3.org/1999/xlink" ffdec:objectType="shape" height="11.25px" width="13.1px" xmlns="http://www.w3.org/2000/svg">
  <g transform="matrix(1.0, 0.0, 0.0, 1.0, 41.8, 9.55)">
    <path d="M-34.7 -2.85 Q-35.15 -3.3 -35.15 -3.9 -35.15 -4.55 -34.7 -5.0 -34.25 -5.45 -33.6 -5.45 -33.0 -5.45 -32.5 -5.0 -32.05 -4.55 -32.05 -3.9 -32.05 -3.3 -32.5 -2.85 -33.0 -2.4 -33.6 -2.4 -34.25 -2.4 -34.7 -2.85 M-40.3 -6.6 Q-39.6 -6.4 -39.2 -6.0 -38.05 -5.1 -38.05 -3.85 -38.05 -2.45 -39.2 -1.6 -39.6 -1.2 -40.3 -0.95 L-40.95 -0.65 -40.95 -6.75 -40.3 -6.6 M-41.55 -6.65 L-41.55 -9.3 -28.95 -9.3 -28.95 1.45 -41.55 1.45 -41.55 -0.95" ffdec:has-small-stroke="true" ffdec:original-stroke-width="0.5" fill="none" stroke="#ffffff" stroke-linecap="round" stroke-linejoin="round" stroke-width="1.0"/>
  </g>
</svg>
