<?xml version="1.0" encoding="UTF-8" standalone="no"?>
<svg xmlns:ffdec="https://www.free-decompiler.com/flash" xmlns:xlink="http://www.w3.org/1999/xlink" ffdec:objectType="shape" height="10.3px" width="8.45px" xmlns="http://www.w3.org/2000/svg">
  <g transform="matrix(1.0, 0.0, 0.0, 1.0, 39.95, 5.15)">
    <path d="M-33.25 -4.8 L-32.5 -4.4 -32.5 -4.35 -32.25 -4.1 -32.1 -3.85 -31.9 -3.35 -31.8 -2.75 -31.75 -2.55 -31.75 -2.4 -31.8 -2.1 -31.8 -1.95 -31.95 -1.4 -32.3 -0.3 -32.4 -0.3 -33.4 1.45 -34.3 2.7 Q-35.0 3.45 -35.5 4.35 L-35.8 4.9 -35.95 4.9 Q-36.15 4.15 -36.65 3.65 L-37.5 2.55 -38.3 1.4 -38.9 0.4 -39.55 -1.0 -39.6 -1.0 -39.7 -2.6 Q-39.65 -3.5 -39.2 -4.2 -38.8 -4.85 -37.95 -4.8 -37.45 -4.8 -37.05 -4.45 -36.35 -3.75 -35.95 -2.85 L-35.85 -2.35 Q-35.7 -3.35 -35.05 -4.05 L-34.35 -4.65 -34.3 -4.7 -33.25 -4.8 Z" ffdec:has-small-stroke="true" ffdec:original-stroke-width="0.5" fill="none" stroke="#ffffff" stroke-linecap="round" stroke-linejoin="round" stroke-width="1.0"/>
  </g>
</svg>
