<?xml version="1.0" encoding="UTF-8" standalone="no"?>
<svg xmlns:ffdec="https://www.free-decompiler.com/flash" xmlns:xlink="http://www.w3.org/1999/xlink" ffdec:objectType="shape" height="10.7px" width="10.7px" xmlns="http://www.w3.org/2000/svg">
  <g transform="matrix(1.0, 0.0, 0.0, 1.0, 5.35, 5.35)">
    <path d="M3.75 -3.75 Q5.25 -2.2 5.25 0.0 5.25 2.15 3.75 3.7 2.2 5.25 0.0 5.25 -2.15 5.25 -3.7 3.7 -5.25 2.15 -5.25 0.0 -5.25 -2.2 -3.7 -3.75 -2.15 -5.25 0.0 -5.25 2.2 -5.25 3.75 -3.75 M0.25 1.85 L0.0 1.9 -0.5 2.35 Q-0.7 3.2 0.25 3.35 L0.55 3.2 1.0 2.55 0.9 2.4 Q0.8 1.85 0.25 1.85 M3.35 1.0 L3.3 0.8 Q3.0 0.4 2.45 0.4 L2.45 0.45 2.2 0.5 2.0 0.6 1.75 0.95 1.5 1.2 1.5 1.45 1.5 1.8 1.55 1.9 1.9 2.25 Q3.3 2.35 3.35 1.0 M-3.2 -2.2 L-3.45 -2.15 Q-4.3 -1.6 -4.4 -0.65 -4.0 0.1 -3.15 -0.15 L-2.95 -0.3 Q-2.35 -0.9 -2.55 -1.65 L-2.55 -1.8 Q-2.75 -2.15 -3.2 -2.2 M-0.3 -3.45 Q-0.4 -3.95 -1.0 -4.05 L-1.2 -3.9 -1.75 -3.5 Q-1.9 -2.65 -1.0 -2.5 L-0.65 -2.65 Q-0.25 -2.85 -0.25 -3.3 L-0.3 -3.45" fill="#ffffff" fill-opacity="0.2509804" fill-rule="evenodd" stroke="none"/>
    <path d="M3.35 1.0 Q3.3 2.35 1.9 2.25 L1.55 1.9 1.5 1.8 1.5 1.45 1.5 1.2 1.75 0.95 2.0 0.6 2.2 0.5 2.45 0.45 2.45 0.4 Q3.0 0.4 3.3 0.8 L3.35 1.0 M0.25 1.85 Q0.8 1.85 0.9 2.4 L1.0 2.55 0.55 3.2 0.25 3.35 Q-0.7 3.2 -0.5 2.35 L0.0 1.9 0.25 1.85" fill="#ffffff" fill-opacity="0.101960786" fill-rule="evenodd" stroke="none"/>
    <path d="M-0.3 -3.45 L-0.25 -3.3 Q-0.25 -2.85 -0.65 -2.65 L-1.0 -2.5 Q-1.9 -2.65 -1.75 -3.5 L-1.2 -3.9 -1.0 -4.05 Q-0.4 -3.95 -0.3 -3.45 M-3.2 -2.2 Q-2.75 -2.15 -2.55 -1.8 L-2.55 -1.65 Q-2.35 -0.9 -2.95 -0.3 L-3.15 -0.15 Q-4.0 0.1 -4.4 -0.65 -4.3 -1.6 -3.45 -2.15 L-3.2 -2.2" fill="#ffffff" fill-opacity="0.4509804" fill-rule="evenodd" stroke="none"/>
    <path d="M3.75 -3.75 Q5.25 -2.2 5.25 0.0 5.25 2.15 3.75 3.7 2.2 5.25 0.0 5.25 -2.15 5.25 -3.7 3.7 -5.25 2.15 -5.25 0.0 -5.25 -2.2 -3.7 -3.75 -2.15 -5.25 0.0 -5.25 2.2 -5.25 3.75 -3.75 Z" ffdec:has-small-stroke="true" ffdec:original-stroke-width="0.2" fill="none" stroke="#ffffff" stroke-linecap="round" stroke-linejoin="round" stroke-width="1.0"/>
  </g>
</svg>
