<?xml version="1.0" encoding="UTF-8" standalone="no"?>
<svg xmlns:ffdec="https://www.free-decompiler.com/flash" xmlns:xlink="http://www.w3.org/1999/xlink" ffdec:objectType="shape" height="152.0px" width="152.0px" xmlns="http://www.w3.org/2000/svg">
  <g transform="matrix(1.0, 0.0, 0.0, 1.0, 75.5, 76.0)">
    <path d="M69.45 -32.45 Q76.5 -17.7 76.5 0.0 76.5 17.7 69.45 32.5 L68.45 34.5 64.5 41.25 Q60.15 47.8 54.25 53.75 31.95 76.0 0.5 76.0 -30.95 76.0 -53.2 53.75 -75.5 31.45 -75.5 0.0 -75.5 -31.45 -53.2 -53.7 -30.95 -76.0 0.5 -76.0 31.95 -76.0 54.25 -53.7 60.15 -47.8 64.5 -41.2 L68.45 -34.5 69.45 -32.45 M61.9 0.0 Q61.9 -25.45 43.9 -43.4 25.9 -61.4 0.5 -61.4 -24.95 -61.4 -42.9 -43.4 -57.9 -28.45 -60.4 -8.3 -60.9 -4.3 -60.9 0.0 -60.9 4.25 -60.4 8.3 -57.9 28.4 -42.9 43.4 -24.95 61.4 0.5 61.4 25.9 61.4 43.9 43.4 61.9 25.4 61.9 0.0" fill="url(#gradient0)" fill-rule="evenodd" stroke="none"/>
    <path d="M61.9 0.0 Q61.9 25.4 43.9 43.4 25.9 61.4 0.5 61.4 -24.95 61.4 -42.9 43.4 -57.9 28.4 -60.4 8.3 -60.9 4.25 -60.9 0.0 -60.9 -4.3 -60.4 -8.3 -57.9 -28.45 -42.9 -43.4 -24.95 -61.4 0.5 -61.4 25.9 -61.4 43.9 -43.4 61.9 -25.45 61.9 0.0" fill="url(#gradient1)" fill-rule="evenodd" stroke="none"/>
    <path d="M61.9 0.0 Q61.9 25.4 43.9 43.4 25.9 61.4 0.5 61.4 -24.95 61.4 -42.9 43.4 -57.9 28.4 -60.4 8.3 -60.9 4.25 -60.9 0.0 -60.9 -4.3 -60.4 -8.3 -57.9 -28.45 -42.9 -43.4 -24.95 -61.4 0.5 -61.4 25.9 -61.4 43.9 -43.4 61.9 -25.45 61.9 0.0 Z" fill="none" stroke="#ffffff" stroke-linecap="round" stroke-linejoin="round" stroke-width="1.0"/>
  </g>
  <defs>
    <radialGradient cx="0" cy="0" gradientTransform="matrix(0.0945, 0.0, 0.0, 0.0945, 0.5, 0.0)" gradientUnits="userSpaceOnUse" id="gradient0" r="819.2" spreadMethod="pad">
      <stop offset="0.6352941176470588" stop-color="#ffffff"/>
      <stop offset="0.9568627450980393" stop-color="#ffffff" stop-opacity="0.0"/>
    </radialGradient>
    <radialGradient cx="0" cy="0" gradientTransform="matrix(0.0771, 0.0, 0.0, 0.0771, 0.5, 0.0)" gradientUnits="userSpaceOnUse" id="gradient1" r="819.2" spreadMethod="pad">
      <stop offset="0.7294117647058823" stop-color="#cb1b1b"/>
      <stop offset="0.9803921568627451" stop-color="#ffaaaa"/>
    </radialGradient>
  </defs>
</svg>
