<?xml version="1.0" encoding="UTF-8" standalone="no"?>
<svg xmlns:ffdec="https://www.free-decompiler.com/flash" xmlns:xlink="http://www.w3.org/1999/xlink" ffdec:objectType="shape" height="194.05px" width="216.1px" xmlns="http://www.w3.org/2000/svg">
  <g transform="matrix(1.0, 0.0, 0.0, 1.0, 0.0, 0.0)">
    <path d="M216.1 30.05 Q216.1 42.5 207.3 51.3 198.5 60.1 186.05 60.1 173.6 60.1 164.8 51.3 156.0 42.5 156.0 30.05 156.0 17.6 164.8 8.8 173.6 0.0 186.05 0.0 198.5 0.0 207.3 8.8 216.1 17.6 216.1 30.05 M73.0 48.05 Q103.25 48.05 124.6 69.4 146.0 90.8 146.0 121.05 146.0 151.3 124.6 172.65 103.25 194.05 73.0 194.05 42.75 194.05 21.35 172.65 0.0 151.3 0.0 121.05 0.0 90.8 21.35 69.4 42.75 48.05 73.0 48.05" fill="#ffffff" fill-rule="evenodd" stroke="none"/>
  </g>
</svg>
