<?xml version="1.0" encoding="UTF-8" standalone="no"?>
<svg xmlns:ffdec="https://www.free-decompiler.com/flash" xmlns:xlink="http://www.w3.org/1999/xlink" ffdec:objectType="shape" height="432.65px" width="529.8px" xmlns="http://www.w3.org/2000/svg">
  <g transform="matrix(1.0, 0.0, 0.0, 1.0, 264.9, 216.3)">
    <path d="M252.9 -216.3 Q264.9 -216.3 264.9 -204.3 L264.9 204.35 Q264.9 216.35 252.9 216.35 L-253.4 216.35 Q-264.9 216.1 -264.9 204.35 L-264.9 -204.3 Q-264.9 -216.05 -253.4 -216.3 L252.9 -216.3" fill="#ffffff" fill-opacity="0.078431375" fill-rule="evenodd" stroke="none"/>
    <path d="M4.5 -107.6 Q4.5 -119.6 16.5 -119.6 L228.5 -119.6 Q240.5 -119.6 240.5 -107.6 L240.5 -61.6 Q240.5 -49.6 228.5 -49.6 L16.5 -49.6 Q4.5 -49.6 4.5 -61.6 L4.5 -107.6" fill="#ffffff" fill-opacity="0.09803922" fill-rule="evenodd" stroke="none"/>
    <path d="M11.9 -199.05 L16.5 -199.6 228.5 -199.6 Q240.5 -199.6 240.5 -187.6 L240.5 -141.6 Q240.5 -129.6 228.5 -129.6 L16.5 -129.6 11.9 -130.15 Q4.5 -132.2 4.5 -141.6 L4.5 -187.6 Q4.5 -197.0 11.9 -199.05" fill="#ffffff" fill-opacity="0.09803922" fill-rule="evenodd" stroke="none"/>
    <path d="M-228.5 -129.6 Q-240.5 -129.6 -240.5 -141.6 L-240.5 -187.6 Q-240.5 -199.6 -228.5 -199.6 L-67.6 -199.6 -67.6 -129.6 -228.5 -129.6 M-67.55 -199.6 L-16.5 -199.6 Q-4.5 -199.6 -4.5 -187.6 L-4.5 -141.6 Q-4.5 -129.6 -16.5 -129.6 L-67.55 -129.6 -67.55 -199.6" fill="#ffffff" fill-opacity="0.09803922" fill-rule="evenodd" stroke="none"/>
    <path d="M-240.5 -107.6 Q-240.5 -119.6 -228.5 -119.6 L-16.5 -119.6 Q-4.5 -119.6 -4.5 -107.6 L-4.5 -61.6 Q-4.5 -49.6 -16.5 -49.6 L-228.5 -49.6 Q-240.5 -49.6 -240.5 -61.6 L-240.5 -107.6" fill="#ffffff" fill-opacity="0.09803922" fill-rule="evenodd" stroke="none"/>
    <path d="M-240.5 -27.6 Q-240.5 -39.6 -228.5 -39.6 L-16.5 -39.6 Q-4.5 -39.6 -4.5 -27.6 L-4.5 18.4 Q-4.5 30.4 -16.5 30.4 L-228.5 30.4 Q-240.5 30.4 -240.5 18.4 L-240.5 -27.6" fill="#ffffff" fill-opacity="0.09803922" fill-rule="evenodd" stroke="none"/>
    <path d="M-4.5 52.4 L-4.5 98.4 Q-4.5 110.4 -16.5 110.4 L-228.5 110.4 Q-240.5 110.4 -240.5 98.4 L-240.5 52.4 Q-240.5 40.4 -228.5 40.4 L-16.5 40.4 Q-4.5 40.4 -4.5 52.4" fill="#ffffff" fill-opacity="0.09803922" fill-rule="evenodd" stroke="none"/>
  </g>
</svg>
