<?xml version="1.0" encoding="UTF-8" standalone="no"?>
<svg xmlns:ffdec="https://www.free-decompiler.com/flash" xmlns:xlink="http://www.w3.org/1999/xlink" ffdec:objectType="shape" height="70.0px" width="236.0px" xmlns="http://www.w3.org/2000/svg">
  <g transform="matrix(1.0, 0.0, 0.0, 1.0, 120.5, 40.0)">
    <path d="M103.5 -40.0 Q115.5 -40.0 115.5 -28.0 L115.5 18.0 Q115.5 30.0 103.5 30.0 L-108.5 30.0 Q-120.5 30.0 -120.5 18.0 L-120.5 -28.0 Q-120.5 -40.0 -108.5 -40.0 L103.5 -40.0" fill="#ffffff" fill-opacity="0.09803922" fill-rule="evenodd" stroke="none"/>
    <path d="M3.85 -3.9 L4.0 -3.55 3.85 -3.2 Q3.7 -3.05 3.5 -3.05 3.3 -3.05 3.15 -3.2 3.0 -3.35 3.0 -3.55 L3.15 -3.9 3.5 -4.05 3.85 -3.9 M7.15 -3.9 L7.5 -4.05 7.85 -3.9 8.0 -3.55 7.85 -3.2 Q7.7 -3.05 7.5 -3.05 7.3 -3.05 7.15 -3.2 7.0 -3.35 7.0 -3.55 L7.15 -3.9 M15.15 -3.9 L15.5 -4.05 15.85 -3.9 16.0 -3.55 15.85 -3.2 Q15.7 -3.05 15.5 -3.05 15.3 -3.05 15.15 -3.2 15.0 -3.35 15.0 -3.55 L15.15 -3.9 M11.15 -3.9 L11.5 -4.05 11.85 -3.9 12.0 -3.55 11.85 -3.2 11.5 -3.05 Q11.3 -3.05 11.15 -3.2 L11.0 -3.55 11.15 -3.9 M19.15 -3.9 L19.5 -4.05 19.85 -3.9 20.0 -3.55 19.85 -3.2 Q19.7 -3.05 19.5 -3.05 19.3 -3.05 19.15 -3.2 19.0 -3.35 19.0 -3.55 L19.15 -3.9 M23.15 -3.9 L23.5 -4.05 23.85 -3.9 24.0 -3.55 23.85 -3.2 23.5 -3.05 23.15 -3.2 23.0 -3.55 23.15 -3.9 M27.15 -3.9 L27.5 -4.05 27.85 -3.9 28.0 -3.55 27.85 -3.2 27.5 -3.05 Q27.3 -3.05 27.15 -3.2 L27.0 -3.55 27.15 -3.9 M35.15 -3.9 L35.5 -4.05 35.85 -3.9 36.0 -3.55 35.85 -3.2 35.5 -3.05 35.15 -3.2 35.0 -3.55 35.15 -3.9 M31.15 -3.9 L31.5 -4.05 31.85 -3.9 32.0 -3.55 31.85 -3.2 31.5 -3.05 Q31.3 -3.05 31.15 -3.2 31.0 -3.35 31.0 -3.55 L31.15 -3.9 M39.15 -3.9 L39.5 -4.05 39.85 -3.9 40.0 -3.55 39.85 -3.2 39.5 -3.05 Q39.3 -3.05 39.15 -3.2 L39.0 -3.55 39.15 -3.9 M43.85 -3.9 L44.0 -3.55 43.85 -3.2 43.5 -3.05 Q43.3 -3.05 43.15 -3.2 43.0 -3.35 43.0 -3.55 L43.15 -3.9 43.5 -4.05 43.85 -3.9 M47.15 -3.9 L47.5 -4.05 47.85 -3.9 48.0 -3.55 47.85 -3.2 47.5 -3.05 47.15 -3.2 47.0 -3.55 47.15 -3.9 M55.15 -3.9 L55.5 -4.05 55.85 -3.9 56.0 -3.55 55.85 -3.2 55.5 -3.05 Q55.3 -3.05 55.15 -3.2 L55.0 -3.55 55.15 -3.9 M51.15 -3.9 L51.5 -4.05 51.85 -3.9 52.0 -3.55 51.85 -3.2 Q51.7 -3.05 51.5 -3.05 L51.15 -3.2 51.0 -3.55 51.15 -3.9 M59.15 -3.9 L59.5 -4.05 59.85 -3.9 60.0 -3.55 59.85 -3.2 59.5 -3.05 Q59.3 -3.05 59.15 -3.2 L59.0 -3.55 59.15 -3.9 M63.15 -3.9 L63.5 -4.05 63.85 -3.9 64.0 -3.55 63.85 -3.2 Q63.7 -3.05 63.5 -3.05 63.3 -3.05 63.15 -3.2 L63.0 -3.55 63.15 -3.9 M67.15 -3.9 Q67.3 -4.05 67.5 -4.05 L67.85 -3.9 68.0 -3.55 67.85 -3.2 67.5 -3.05 Q67.3 -3.05 67.15 -3.2 L67.0 -3.55 67.15 -3.9 M75.15 -3.9 L75.5 -4.05 75.85 -3.9 76.0 -3.55 75.85 -3.2 Q75.7 -3.05 75.5 -3.05 75.3 -3.05 75.15 -3.2 75.0 -3.35 75.0 -3.55 L75.15 -3.9 M71.15 -3.9 L71.5 -4.05 71.85 -3.9 72.0 -3.55 71.85 -3.2 71.5 -3.05 Q71.3 -3.05 71.15 -3.2 L71.0 -3.55 71.15 -3.9 M79.15 -3.9 L79.5 -4.05 79.85 -3.9 80.0 -3.55 79.85 -3.2 Q79.7 -3.05 79.5 -3.05 79.3 -3.05 79.15 -3.2 79.0 -3.35 79.0 -3.55 L79.15 -3.9 M81.15 -3.9 L81.5 -4.05 81.85 -3.9 82.0 -3.55 81.85 -3.2 81.5 -3.05 Q81.3 -3.05 81.15 -3.2 L81.0 -3.55 81.15 -3.9 M81.15 0.1 L81.5 -0.05 81.85 0.1 82.0 0.45 81.85 0.8 81.5 0.95 81.15 0.8 81.0 0.45 81.15 0.1 M81.15 4.1 Q81.3 3.95 81.5 3.95 L81.85 4.1 82.0 4.45 81.85 4.8 81.5 4.95 81.15 4.8 81.0 4.45 81.15 4.1 M81.85 8.1 L82.0 8.45 81.85 8.8 81.5 8.95 81.15 8.8 81.0 8.45 81.15 8.1 Q81.3 7.95 81.5 7.95 L81.85 8.1 M81.5 11.95 L81.85 12.1 82.0 12.45 81.85 12.8 81.5 12.95 81.15 12.8 81.0 12.45 81.15 12.1 Q81.3 11.95 81.5 11.95 M81.15 16.1 Q81.3 15.95 81.5 15.95 L81.85 16.1 82.0 16.45 81.85 16.8 81.5 16.95 81.15 16.8 81.0 16.45 81.15 16.1 M64.85 19.1 L65.0 19.45 64.85 19.8 64.5 19.95 64.15 19.8 64.0 19.45 Q64.0 19.25 64.15 19.1 64.3 18.95 64.5 18.95 L64.85 19.1 M61.0 19.45 L60.85 19.8 60.5 19.95 60.15 19.8 60.0 19.45 60.15 19.1 Q60.3 18.95 60.5 18.95 L60.85 19.1 61.0 19.45 M68.85 19.1 L69.0 19.45 68.85 19.8 68.5 19.95 68.15 19.8 68.0 19.45 68.15 19.1 68.5 18.95 68.85 19.1 M72.15 19.1 L72.5 18.95 Q72.7 18.95 72.85 19.1 L73.0 19.45 72.85 19.8 72.5 19.95 72.15 19.8 72.0 19.45 72.15 19.1 M80.15 19.1 Q80.3 18.95 80.5 18.95 L80.85 19.1 81.0 19.45 80.85 19.8 80.5 19.95 80.15 19.8 80.0 19.45 80.15 19.1 M76.15 19.1 Q76.3 18.95 76.5 18.95 L76.85 19.1 77.0 19.45 76.85 19.8 76.5 19.95 76.15 19.8 76.0 19.45 76.15 19.1 M44.85 19.1 L45.0 19.45 44.85 19.8 44.5 19.95 44.15 19.8 44.0 19.45 44.15 19.1 44.5 18.95 44.85 19.1 M41.0 19.45 L40.85 19.8 40.5 19.95 40.15 19.8 40.0 19.45 Q40.0 19.25 40.15 19.1 40.3 18.95 40.5 18.95 40.7 18.95 40.85 19.1 L41.0 19.45 M48.85 19.1 L49.0 19.45 48.85 19.8 48.5 19.95 48.15 19.8 48.0 19.45 48.15 19.1 Q48.3 18.95 48.5 18.95 L48.85 19.1 M52.15 19.1 Q52.3 18.95 52.5 18.95 L52.85 19.1 53.0 19.45 52.85 19.8 52.5 19.95 52.15 19.8 52.0 19.45 Q52.0 19.25 52.15 19.1 M56.15 19.1 L56.5 18.95 56.85 19.1 57.0 19.45 56.85 19.8 56.5 19.95 56.15 19.8 56.0 19.45 56.15 19.1 M24.85 19.1 L25.0 19.45 24.85 19.8 24.5 19.95 24.15 19.8 24.0 19.45 Q24.0 19.25 24.15 19.1 24.3 18.95 24.5 18.95 24.7 18.95 24.85 19.1 M21.0 19.45 L20.85 19.8 20.5 19.95 20.15 19.8 20.0 19.45 20.15 19.1 Q20.3 18.95 20.5 18.95 L20.85 19.1 21.0 19.45 M28.85 19.1 L29.0 19.45 28.85 19.8 28.5 19.95 28.15 19.8 28.0 19.45 Q28.0 19.25 28.15 19.1 28.3 18.95 28.5 18.95 28.7 18.95 28.85 19.1 M32.15 19.1 Q32.3 18.95 32.5 18.95 L32.85 19.1 33.0 19.45 32.85 19.8 32.5 19.95 32.15 19.8 32.0 19.45 32.15 19.1 M36.15 19.1 Q36.3 18.95 36.5 18.95 36.7 18.95 36.85 19.1 L37.0 19.45 36.85 19.8 36.5 19.95 36.15 19.8 36.0 19.45 Q36.0 19.25 36.15 19.1 M4.85 19.1 L5.0 19.45 4.85 19.8 4.5 19.95 Q4.3 19.95 4.15 19.8 L4.0 19.45 4.15 19.1 Q4.3 18.95 4.5 18.95 L4.85 19.1 M0.15 19.1 Q0.3 18.95 0.5 18.95 0.7 18.95 0.85 19.1 L1.0 19.45 0.85 19.8 0.5 19.95 0.15 19.8 0.0 19.45 0.15 19.1 M8.85 19.1 L9.0 19.45 8.85 19.8 8.5 19.95 8.15 19.8 8.0 19.45 8.15 19.1 Q8.3 18.95 8.5 18.95 L8.85 19.1 M12.15 19.1 Q12.3 18.95 12.5 18.95 12.7 18.95 12.85 19.1 L13.0 19.45 12.85 19.8 12.5 19.95 12.15 19.8 12.0 19.45 Q12.0 19.25 12.15 19.1 M16.15 19.1 Q16.3 18.95 16.5 18.95 16.7 18.95 16.85 19.1 L17.0 19.45 16.85 19.8 16.5 19.95 16.15 19.8 16.0 19.45 Q16.0 19.25 16.15 19.1 M-52.85 -3.9 L-52.5 -4.05 -52.15 -3.9 -52.0 -3.55 Q-52.0 -3.35 -52.15 -3.2 -52.3 -3.05 -52.5 -3.05 L-52.85 -3.2 -53.0 -3.55 -52.85 -3.9 M-54.85 -1.9 L-54.5 -2.05 -54.15 -1.9 -54.0 -1.55 Q-54.0 -1.35 -54.15 -1.2 -54.3 -1.05 -54.5 -1.05 -54.7 -1.05 -54.85 -1.2 L-55.0 -1.55 -54.85 -1.9 M-48.15 -3.9 L-48.0 -3.55 -48.15 -3.2 Q-48.3 -3.05 -48.5 -3.05 L-48.85 -3.2 -49.0 -3.55 -48.85 -3.9 -48.5 -4.05 -48.15 -3.9 M-40.85 -3.9 L-40.5 -4.05 -40.15 -3.9 -40.0 -3.55 Q-40.0 -3.35 -40.15 -3.2 -40.3 -3.05 -40.5 -3.05 -40.7 -3.05 -40.85 -3.2 L-41.0 -3.55 -40.85 -3.9 M-44.15 -3.9 L-44.0 -3.55 -44.15 -3.2 -44.5 -3.05 -44.85 -3.2 -45.0 -3.55 -44.85 -3.9 -44.5 -4.05 -44.15 -3.9 M-36.85 -3.9 L-36.5 -4.05 -36.15 -3.9 -36.0 -3.55 Q-36.0 -3.35 -36.15 -3.2 -36.3 -3.05 -36.5 -3.05 -36.7 -3.05 -36.85 -3.2 L-37.0 -3.55 -36.85 -3.9 M-32.85 -3.9 L-32.5 -4.05 -32.15 -3.9 -32.0 -3.55 -32.15 -3.2 Q-32.3 -3.05 -32.5 -3.05 L-32.85 -3.2 -33.0 -3.55 -32.85 -3.9 M-28.15 -3.9 L-28.0 -3.55 Q-28.0 -3.35 -28.15 -3.2 -28.3 -3.05 -28.5 -3.05 -28.7 -3.05 -28.85 -3.2 L-29.0 -3.55 -28.85 -3.9 -28.5 -4.05 -28.15 -3.9 M-20.85 -3.9 L-20.5 -4.05 -20.15 -3.9 -20.0 -3.55 -20.15 -3.2 Q-20.3 -3.05 -20.5 -3.05 L-20.85 -3.2 -21.0 -3.55 -20.85 -3.9 M-24.15 -3.9 L-24.0 -3.55 Q-24.0 -3.35 -24.15 -3.2 -24.3 -3.05 -24.5 -3.05 -24.7 -3.05 -24.85 -3.2 L-25.0 -3.55 -24.85 -3.9 -24.5 -4.05 -24.15 -3.9 M-16.85 -3.9 L-16.5 -4.05 -16.15 -3.9 -16.0 -3.55 Q-16.0 -3.35 -16.15 -3.2 -16.3 -3.05 -16.5 -3.05 -16.7 -3.05 -16.85 -3.2 L-17.0 -3.55 -16.85 -3.9 M-12.85 -3.9 L-12.5 -4.05 -12.15 -3.9 -12.0 -3.55 Q-12.0 -3.35 -12.15 -3.2 -12.3 -3.05 -12.5 -3.05 -12.7 -3.05 -12.85 -3.2 L-13.0 -3.55 -12.85 -3.9 M-8.15 -3.9 L-8.0 -3.55 -8.15 -3.2 Q-8.3 -3.05 -8.5 -3.05 L-8.85 -3.2 -9.0 -3.55 -8.85 -3.9 -8.5 -4.05 -8.15 -3.9 M-0.85 -3.9 L-0.5 -4.05 -0.15 -3.9 0.0 -3.55 -0.15 -3.2 Q-0.3 -3.05 -0.5 -3.05 -0.7 -3.05 -0.85 -3.2 L-1.0 -3.55 -0.85 -3.9 M-4.15 -3.9 L-4.0 -3.55 -4.15 -3.2 Q-4.3 -3.05 -4.5 -3.05 L-4.85 -3.2 -5.0 -3.55 -4.85 -3.9 -4.5 -4.05 Q-4.3 -4.05 -4.15 -3.9 M-15.5 18.95 Q-15.3 18.95 -15.15 19.1 -15.0 19.25 -15.0 19.45 L-15.15 19.8 -15.5 19.95 -15.85 19.8 -16.0 19.45 -15.85 19.1 Q-15.7 18.95 -15.5 18.95 M-19.85 19.1 Q-19.7 18.95 -19.5 18.95 -19.3 18.95 -19.15 19.1 -19.0 19.25 -19.0 19.45 L-19.15 19.8 -19.5 19.95 -19.85 19.8 -20.0 19.45 -19.85 19.1 M-11.85 19.1 L-11.5 18.95 Q-11.3 18.95 -11.15 19.1 L-11.0 19.45 -11.15 19.8 -11.5 19.95 -11.85 19.8 -12.0 19.45 -11.85 19.1 M-7.85 19.1 Q-7.7 18.95 -7.5 18.95 -7.3 18.95 -7.15 19.1 -7.0 19.25 -7.0 19.45 L-7.15 19.8 -7.5 19.95 -7.85 19.8 -8.0 19.45 -7.85 19.1 M-3.15 19.1 Q-3.0 19.25 -3.0 19.45 L-3.15 19.8 -3.5 19.95 -3.85 19.8 -4.0 19.45 -3.85 19.1 Q-3.7 18.95 -3.5 18.95 -3.3 18.95 -3.15 19.1 M-35.5 18.95 L-35.15 19.1 -35.0 19.45 -35.15 19.8 -35.5 19.95 -35.85 19.8 -36.0 19.45 -35.85 19.1 -35.5 18.95 M-39.85 19.1 L-39.5 18.95 Q-39.3 18.95 -39.15 19.1 L-39.0 19.45 -39.15 19.8 -39.5 19.95 -39.85 19.8 -40.0 19.45 -39.85 19.1 M-31.85 19.1 L-31.5 18.95 Q-31.3 18.95 -31.15 19.1 -31.0 19.25 -31.0 19.45 L-31.15 19.8 -31.5 19.95 -31.85 19.8 -32.0 19.45 -31.85 19.1 M-27.85 19.1 L-27.5 18.95 Q-27.3 18.95 -27.15 19.1 L-27.0 19.45 -27.15 19.8 -27.5 19.95 -27.85 19.8 -28.0 19.45 -27.85 19.1 M-23.85 19.1 L-23.5 18.95 -23.15 19.1 -23.0 19.45 -23.15 19.8 -23.5 19.95 -23.85 19.8 -24.0 19.45 -23.85 19.1 M-54.85 2.1 Q-54.7 1.95 -54.5 1.95 -54.3 1.95 -54.15 2.1 -54.0 2.25 -54.0 2.45 L-54.15 2.8 -54.5 2.95 -54.85 2.8 -55.0 2.45 -54.85 2.1 M-54.15 6.1 Q-54.0 6.25 -54.0 6.45 L-54.15 6.8 -54.5 6.95 -54.85 6.8 -55.0 6.45 -54.85 6.1 Q-54.7 5.95 -54.5 5.95 -54.3 5.95 -54.15 6.1 M-54.85 10.1 Q-54.7 9.95 -54.5 9.95 -54.3 9.95 -54.15 10.1 -54.0 10.25 -54.0 10.45 L-54.15 10.8 -54.5 10.95 -54.85 10.8 -55.0 10.45 -54.85 10.1 M-54.85 14.1 Q-54.7 13.95 -54.5 13.95 -54.3 13.95 -54.15 14.1 -54.0 14.25 -54.0 14.45 L-54.15 14.8 -54.5 14.95 -54.85 14.8 -55.0 14.45 -54.85 14.1 M-54.15 18.1 Q-54.0 18.25 -54.0 18.45 L-54.15 18.8 -54.5 18.95 -54.85 18.8 -55.0 18.45 -54.85 18.1 Q-54.7 17.95 -54.5 17.95 -54.3 17.95 -54.15 18.1 M-51.85 19.1 Q-51.7 18.95 -51.5 18.95 L-51.15 19.1 -51.0 19.45 -51.15 19.8 -51.5 19.95 -51.85 19.8 -52.0 19.45 -51.85 19.1 M-47.85 19.1 L-47.5 18.95 -47.15 19.1 -47.0 19.45 -47.15 19.8 -47.5 19.95 -47.85 19.8 -48.0 19.45 -47.85 19.1 M-43.15 19.1 Q-43.0 19.25 -43.0 19.45 L-43.15 19.8 -43.5 19.95 -43.85 19.8 -44.0 19.45 -43.85 19.1 -43.5 18.95 Q-43.3 18.95 -43.15 19.1" fill="#ffffff" fill-rule="evenodd" stroke="none"/>
  </g>
</svg>
