<?xml version="1.0" encoding="UTF-8" standalone="no"?>
<svg xmlns:ffdec="https://www.free-decompiler.com/flash" xmlns:xlink="http://www.w3.org/1999/xlink" ffdec:objectType="shape" height="23.5px" width="30.0px" xmlns="http://www.w3.org/2000/svg">
  <g transform="matrix(1.0, 0.0, 0.0, 1.0, 15.0, 11.75)">
    <path d="M8.5 -11.25 Q14.5 -11.25 14.5 -5.25 L14.5 5.25 Q14.5 11.25 8.5 11.25 L-8.5 11.25 Q-14.5 11.25 -14.5 5.25 L-14.5 -5.25 Q-14.5 -11.25 -8.5 -11.25 L8.5 -11.25" fill="#ffffff" fill-opacity="0.2509804" fill-rule="evenodd" stroke="none"/>
    <path d="M8.5 -11.25 L-8.5 -11.25 Q-14.5 -11.25 -14.5 -5.25 L-14.5 5.25 Q-14.5 11.25 -8.5 11.25 L8.5 11.25 Q14.5 11.25 14.5 5.25 L14.5 -5.25 Q14.5 -11.25 8.5 -11.25 Z" fill="none" stroke="#ffffff" stroke-linecap="round" stroke-linejoin="round" stroke-opacity="0.8" stroke-width="1.0"/>
  </g>
</svg>
