<?xml version="1.0" encoding="UTF-8" standalone="no"?>
<svg xmlns:ffdec="https://www.free-decompiler.com/flash" xmlns:xlink="http://www.w3.org/1999/xlink" ffdec:objectType="shape" height="21.0px" width="100.5px" xmlns="http://www.w3.org/2000/svg">
  <g transform="matrix(1.0, 0.0, 0.0, 1.0, 50.25, 10.5)">
    <path d="M43.75 -10.0 Q49.75 -10.0 49.75 -4.0 L49.75 4.0 Q49.75 10.0 43.75 10.0 L-43.75 10.0 Q-49.75 10.0 -49.75 4.0 L-49.75 -4.0 Q-49.75 -10.0 -43.75 -10.0 L43.75 -10.0" fill="#ffffff" fill-opacity="0.2509804" fill-rule="evenodd" stroke="none"/>
    <path d="M43.75 -10.0 L-43.75 -10.0 Q-49.75 -10.0 -49.75 -4.0 L-49.75 4.0 Q-49.75 10.0 -43.75 10.0 L43.75 10.0 Q49.75 10.0 49.75 4.0 L49.75 -4.0 Q49.75 -10.0 43.75 -10.0 Z" fill="none" stroke="#ffffff" stroke-linecap="round" stroke-linejoin="round" stroke-opacity="0.8" stroke-width="1.0"/>
  </g>
</svg>
