<?xml version="1.0" encoding="UTF-8" standalone="no"?>
<svg xmlns:ffdec="https://www.free-decompiler.com/flash" xmlns:xlink="http://www.w3.org/1999/xlink" ffdec:objectType="shape" height="188.0px" width="447.0px" xmlns="http://www.w3.org/2000/svg">
  <g transform="matrix(1.0, 0.0, 0.0, 1.0, 225.0, 166.0)">
    <path d="M-144.15 -165.85 L-144.0 -165.5 -144.15 -165.15 Q-144.3 -165.0 -144.5 -165.0 L-144.85 -165.15 -145.0 -165.5 -144.85 -165.85 -144.5 -166.0 -144.15 -165.85 M-148.0 -165.5 Q-148.0 -165.3 -148.15 -165.15 -148.3 -165.0 -148.5 -165.0 L-148.85 -165.15 -149.0 -165.5 -148.85 -165.85 -148.5 -166.0 -148.15 -165.85 -148.0 -165.5 M-140.15 -165.85 L-140.0 -165.5 -140.15 -165.15 -140.5 -165.0 -140.85 -165.15 -141.0 -165.5 -140.85 -165.85 -140.5 -166.0 -140.15 -165.85 M-156.85 -165.85 L-156.5 -166.0 -156.15 -165.85 -156.0 -165.5 -156.15 -165.15 -156.5 -165.0 Q-156.7 -165.0 -156.85 -165.15 L-157.0 -165.5 -156.85 -165.85 M-152.85 -165.85 L-152.5 -166.0 -152.15 -165.85 -152.0 -165.5 -152.15 -165.15 -152.5 -165.0 -152.85 -165.15 -153.0 -165.5 -152.85 -165.85 M-164.15 -165.85 L-164.0 -165.5 -164.15 -165.15 Q-164.3 -165.0 -164.5 -165.0 L-164.85 -165.15 -165.0 -165.5 -164.85 -165.85 -164.5 -166.0 -164.15 -165.85 M-168.0 -165.5 L-168.15 -165.15 Q-168.3 -165.0 -168.5 -165.0 -168.7 -165.0 -168.85 -165.15 L-169.0 -165.5 -168.85 -165.85 -168.5 -166.0 -168.15 -165.85 -168.0 -165.5 M-160.85 -165.85 L-160.5 -166.0 -160.15 -165.85 -160.0 -165.5 -160.15 -165.15 Q-160.3 -165.0 -160.5 -165.0 L-160.85 -165.15 -161.0 -165.5 -160.85 -165.85 M-176.85 -165.85 L-176.5 -166.0 -176.15 -165.85 -176.0 -165.5 -176.15 -165.15 Q-176.3 -165.0 -176.5 -165.0 L-176.85 -165.15 -177.0 -165.5 -176.85 -165.85 M-172.15 -165.85 L-172.0 -165.5 -172.15 -165.15 Q-172.3 -165.0 -172.5 -165.0 L-172.85 -165.15 -173.0 -165.5 -172.85 -165.85 -172.5 -166.0 Q-172.3 -166.0 -172.15 -165.85 M-163.85 -142.85 L-163.5 -143.0 -163.15 -142.85 -163.0 -142.5 Q-163.0 -142.3 -163.15 -142.15 -163.3 -142.0 -163.5 -142.0 -163.7 -142.0 -163.85 -142.15 L-164.0 -142.5 -163.85 -142.85 M-167.85 -142.85 L-167.5 -143.0 -167.15 -142.85 -167.0 -142.5 -167.15 -142.15 Q-167.3 -142.0 -167.5 -142.0 L-167.85 -142.15 -168.0 -142.5 -167.85 -142.85 M-159.85 -142.85 L-159.5 -143.0 -159.15 -142.85 -159.0 -142.5 Q-159.0 -142.3 -159.15 -142.15 -159.3 -142.0 -159.5 -142.0 -159.7 -142.0 -159.85 -142.15 L-160.0 -142.5 -159.85 -142.85 M-175.85 -142.85 L-175.5 -143.0 -175.15 -142.85 -175.0 -142.5 Q-175.0 -142.3 -175.15 -142.15 -175.3 -142.0 -175.5 -142.0 -175.7 -142.0 -175.85 -142.15 L-176.0 -142.5 -175.85 -142.85 M-171.85 -142.85 L-171.5 -143.0 -171.15 -142.85 -171.0 -142.5 Q-171.0 -142.3 -171.15 -142.15 -171.3 -142.0 -171.5 -142.0 -171.7 -142.0 -171.85 -142.15 L-172.0 -142.5 -171.85 -142.85 M-143.85 -142.85 L-143.5 -143.0 -143.15 -142.85 -143.0 -142.5 -143.15 -142.15 Q-143.3 -142.0 -143.5 -142.0 L-143.85 -142.15 -144.0 -142.5 -143.85 -142.85 M-147.85 -142.85 L-147.5 -143.0 -147.15 -142.85 -147.0 -142.5 -147.15 -142.15 Q-147.3 -142.0 -147.5 -142.0 -147.7 -142.0 -147.85 -142.15 L-148.0 -142.5 -147.85 -142.85 M-139.85 -142.85 L-139.5 -143.0 -139.15 -142.85 -139.0 -142.5 -139.15 -142.15 Q-139.3 -142.0 -139.5 -142.0 L-139.85 -142.15 -140.0 -142.5 -139.85 -142.85 M-155.85 -142.85 L-155.5 -143.0 -155.15 -142.85 -155.0 -142.5 -155.15 -142.15 Q-155.3 -142.0 -155.5 -142.0 L-155.85 -142.15 -156.0 -142.5 -155.85 -142.85 M-151.85 -142.85 L-151.5 -143.0 Q-151.3 -143.0 -151.15 -142.85 L-151.0 -142.5 -151.15 -142.15 Q-151.3 -142.0 -151.5 -142.0 L-151.85 -142.15 -152.0 -142.5 -151.85 -142.85 M-104.85 -165.85 L-104.5 -166.0 -104.15 -165.85 -104.0 -165.5 -104.15 -165.15 Q-104.3 -165.0 -104.5 -165.0 L-104.85 -165.15 -105.0 -165.5 -104.85 -165.85 M-100.15 -165.85 L-100.0 -165.5 Q-100.0 -165.3 -100.15 -165.15 -100.3 -165.0 -100.5 -165.0 -100.7 -165.0 -100.85 -165.15 L-101.0 -165.5 -100.85 -165.85 -100.5 -166.0 -100.15 -165.85 M-116.85 -165.85 L-116.5 -166.0 -116.15 -165.85 -116.0 -165.5 -116.15 -165.15 Q-116.3 -165.0 -116.5 -165.0 L-116.85 -165.15 -117.0 -165.5 -116.85 -165.85 M-108.85 -165.85 L-108.5 -166.0 -108.15 -165.85 -108.0 -165.5 Q-108.0 -165.3 -108.15 -165.15 -108.3 -165.0 -108.5 -165.0 -108.7 -165.0 -108.85 -165.15 L-109.0 -165.5 -108.85 -165.85 M-112.85 -165.85 L-112.5 -166.0 -112.15 -165.85 -112.0 -165.5 Q-112.0 -165.3 -112.15 -165.15 -112.3 -165.0 -112.5 -165.0 -112.7 -165.0 -112.85 -165.15 L-113.0 -165.5 -112.85 -165.85 M-124.15 -165.85 L-124.0 -165.5 Q-124.0 -165.3 -124.15 -165.15 -124.3 -165.0 -124.5 -165.0 -124.7 -165.0 -124.85 -165.15 L-125.0 -165.5 -124.85 -165.85 -124.5 -166.0 -124.15 -165.85 M-128.0 -165.5 L-128.15 -165.15 -128.5 -165.0 -128.85 -165.15 -129.0 -165.5 -128.85 -165.85 -128.5 -166.0 -128.15 -165.85 -128.0 -165.5 M-120.85 -165.85 L-120.5 -166.0 -120.15 -165.85 -120.0 -165.5 Q-120.0 -165.3 -120.15 -165.15 -120.3 -165.0 -120.5 -165.0 -120.7 -165.0 -120.85 -165.15 L-121.0 -165.5 -120.85 -165.85 M-136.85 -165.85 L-136.5 -166.0 -136.15 -165.85 -136.0 -165.5 Q-136.0 -165.3 -136.15 -165.15 -136.3 -165.0 -136.5 -165.0 L-136.85 -165.15 -137.0 -165.5 -136.85 -165.85 M-132.85 -165.85 L-132.5 -166.0 -132.15 -165.85 -132.0 -165.5 -132.15 -165.15 Q-132.3 -165.0 -132.5 -165.0 L-132.85 -165.15 -133.0 -165.5 -132.85 -165.85 M-123.85 -142.85 L-123.5 -143.0 -123.15 -142.85 -123.0 -142.5 -123.15 -142.15 Q-123.3 -142.0 -123.5 -142.0 L-123.85 -142.15 -124.0 -142.5 -123.85 -142.85 M-127.85 -142.85 L-127.5 -143.0 -127.15 -142.85 -127.0 -142.5 Q-127.0 -142.3 -127.15 -142.15 -127.3 -142.0 -127.5 -142.0 L-127.85 -142.15 -128.0 -142.5 -127.85 -142.85 M-119.85 -142.85 L-119.5 -143.0 -119.15 -142.85 -119.0 -142.5 -119.15 -142.15 -119.5 -142.0 -119.85 -142.15 -120.0 -142.5 -119.85 -142.85 M-135.85 -142.85 L-135.5 -143.0 -135.15 -142.85 -135.0 -142.5 -135.15 -142.15 -135.5 -142.0 Q-135.7 -142.0 -135.85 -142.15 L-136.0 -142.5 -135.85 -142.85 M-131.85 -142.85 L-131.5 -143.0 -131.15 -142.85 -131.0 -142.5 -131.15 -142.15 -131.5 -142.0 -131.85 -142.15 -132.0 -142.5 -131.85 -142.85 M-103.85 -142.85 L-103.5 -143.0 -103.15 -142.85 -103.0 -142.5 Q-103.0 -142.3 -103.15 -142.15 -103.3 -142.0 -103.5 -142.0 -103.7 -142.0 -103.85 -142.15 L-104.0 -142.5 -103.85 -142.85 M-107.85 -142.85 L-107.5 -143.0 -107.15 -142.85 -107.0 -142.5 -107.15 -142.15 -107.5 -142.0 -107.85 -142.15 -108.0 -142.5 -107.85 -142.85 M-99.85 -142.85 L-99.5 -143.0 -99.15 -142.85 -99.0 -142.5 Q-99.0 -142.3 -99.15 -142.15 -99.3 -142.0 -99.5 -142.0 -99.7 -142.0 -99.85 -142.15 L-100.0 -142.5 -99.85 -142.85 M-115.85 -142.85 L-115.5 -143.0 -115.15 -142.85 -115.0 -142.5 Q-115.0 -142.3 -115.15 -142.15 -115.3 -142.0 -115.5 -142.0 L-115.85 -142.15 -116.0 -142.5 -115.85 -142.85 M-111.85 -142.85 L-111.5 -143.0 -111.15 -142.85 -111.0 -142.5 -111.15 -142.15 Q-111.3 -142.0 -111.5 -142.0 L-111.85 -142.15 -112.0 -142.5 -111.85 -142.85 M-64.85 -165.85 L-64.5 -166.0 -64.15 -165.85 -64.0 -165.5 Q-64.0 -165.3 -64.15 -165.15 -64.3 -165.0 -64.5 -165.0 L-64.85 -165.15 -65.0 -165.5 -64.85 -165.85 M-60.15 -165.85 L-60.0 -165.5 -60.15 -165.15 Q-60.3 -165.0 -60.5 -165.0 L-60.85 -165.15 -61.0 -165.5 -60.85 -165.85 -60.5 -166.0 -60.15 -165.85 M-72.85 -165.85 L-72.5 -166.0 -72.15 -165.85 -72.0 -165.5 -72.15 -165.15 -72.5 -165.0 Q-72.7 -165.0 -72.85 -165.15 L-73.0 -165.5 -72.85 -165.85 M-76.85 -165.85 L-76.5 -166.0 -76.15 -165.85 -76.0 -165.5 -76.15 -165.15 Q-76.3 -165.0 -76.5 -165.0 L-76.85 -165.15 -77.0 -165.5 -76.85 -165.85 M-68.85 -165.85 L-68.5 -166.0 -68.15 -165.85 -68.0 -165.5 -68.15 -165.15 -68.5 -165.0 -68.85 -165.15 -69.0 -165.5 -68.85 -165.85 M-84.85 -165.85 L-84.5 -166.0 -84.15 -165.85 -84.0 -165.5 -84.15 -165.15 Q-84.3 -165.0 -84.5 -165.0 -84.7 -165.0 -84.85 -165.15 L-85.0 -165.5 -84.85 -165.85 M-80.85 -165.85 L-80.5 -166.0 -80.15 -165.85 -80.0 -165.5 -80.15 -165.15 Q-80.3 -165.0 -80.5 -165.0 L-80.85 -165.15 -81.0 -165.5 -80.85 -165.85 M-96.85 -165.85 L-96.5 -166.0 -96.15 -165.85 -96.0 -165.5 Q-96.0 -165.3 -96.15 -165.15 -96.3 -165.0 -96.5 -165.0 -96.7 -165.0 -96.85 -165.15 L-97.0 -165.5 -96.85 -165.85 M-88.85 -165.85 L-88.5 -166.0 Q-88.3 -166.0 -88.15 -165.85 L-88.0 -165.5 -88.15 -165.15 Q-88.3 -165.0 -88.5 -165.0 L-88.85 -165.15 -89.0 -165.5 -88.85 -165.85 M-92.0 -165.5 L-92.15 -165.15 Q-92.3 -165.0 -92.5 -165.0 L-92.85 -165.15 -93.0 -165.5 -92.85 -165.85 -92.5 -166.0 -92.15 -165.85 -92.0 -165.5 M-83.85 -142.85 L-83.5 -143.0 -83.15 -142.85 -83.0 -142.5 -83.15 -142.15 Q-83.3 -142.0 -83.5 -142.0 L-83.85 -142.15 -84.0 -142.5 -83.85 -142.85 M-87.0 -142.5 Q-87.0 -142.3 -87.15 -142.15 -87.3 -142.0 -87.5 -142.0 -87.7 -142.0 -87.85 -142.15 L-88.0 -142.5 -87.85 -142.85 -87.5 -143.0 -87.15 -142.85 -87.0 -142.5 M-79.85 -142.85 L-79.5 -143.0 -79.15 -142.85 -79.0 -142.5 Q-79.0 -142.3 -79.15 -142.15 -79.3 -142.0 -79.5 -142.0 -79.7 -142.0 -79.85 -142.15 L-80.0 -142.5 -79.85 -142.85 M-95.85 -142.85 L-95.5 -143.0 -95.15 -142.85 -95.0 -142.5 -95.15 -142.15 Q-95.3 -142.0 -95.5 -142.0 L-95.85 -142.15 -96.0 -142.5 -95.85 -142.85 M-91.85 -142.85 L-91.5 -143.0 -91.15 -142.85 -91.0 -142.5 Q-91.0 -142.3 -91.15 -142.15 -91.3 -142.0 -91.5 -142.0 -91.7 -142.0 -91.85 -142.15 L-92.0 -142.5 -91.85 -142.85 M-63.85 -142.85 L-63.5 -143.0 -63.15 -142.85 -63.0 -142.5 -63.15 -142.15 Q-63.3 -142.0 -63.5 -142.0 -63.7 -142.0 -63.85 -142.15 L-64.0 -142.5 -63.85 -142.85 M-67.0 -142.5 L-67.15 -142.15 Q-67.3 -142.0 -67.5 -142.0 L-67.85 -142.15 -68.0 -142.5 -67.85 -142.85 -67.5 -143.0 Q-67.3 -143.0 -67.15 -142.85 L-67.0 -142.5 M-59.85 -142.85 L-59.5 -143.0 -59.15 -142.85 -59.0 -142.5 -59.15 -142.15 Q-59.3 -142.0 -59.5 -142.0 L-59.85 -142.15 -60.0 -142.5 -59.85 -142.85 M-75.85 -142.85 L-75.5 -143.0 -75.15 -142.85 -75.0 -142.5 Q-75.0 -142.3 -75.15 -142.15 -75.3 -142.0 -75.5 -142.0 -75.7 -142.0 -75.85 -142.15 L-76.0 -142.5 -75.85 -142.85 M-71.15 -142.85 L-71.0 -142.5 -71.15 -142.15 Q-71.3 -142.0 -71.5 -142.0 L-71.85 -142.15 -72.0 -142.5 -71.85 -142.85 -71.5 -143.0 -71.15 -142.85 M-24.0 -165.5 Q-24.0 -165.3 -24.15 -165.15 -24.3 -165.0 -24.5 -165.0 -24.7 -165.0 -24.85 -165.15 L-25.0 -165.5 -24.85 -165.85 -24.5 -166.0 -24.15 -165.85 -24.0 -165.5 M-24.85 -163.85 L-24.5 -164.0 -24.15 -163.85 -24.0 -163.5 Q-24.0 -163.3 -24.15 -163.15 -24.3 -163.0 -24.5 -163.0 -24.7 -163.0 -24.85 -163.15 L-25.0 -163.5 -24.85 -163.85 M-32.5 -166.0 L-32.15 -165.85 -32.0 -165.5 -32.15 -165.15 Q-32.3 -165.0 -32.5 -165.0 L-32.85 -165.15 -33.0 -165.5 -32.85 -165.85 -32.5 -166.0 M-36.85 -165.85 L-36.5 -166.0 -36.15 -165.85 -36.0 -165.5 Q-36.0 -165.3 -36.15 -165.15 -36.3 -165.0 -36.5 -165.0 -36.7 -165.0 -36.85 -165.15 L-37.0 -165.5 -36.85 -165.85 M-28.85 -165.85 L-28.5 -166.0 -28.15 -165.85 -28.0 -165.5 Q-28.0 -165.3 -28.15 -165.15 -28.3 -165.0 -28.5 -165.0 -28.7 -165.0 -28.85 -165.15 L-29.0 -165.5 -28.85 -165.85 M-24.85 -159.85 L-24.5 -160.0 -24.15 -159.85 -24.0 -159.5 Q-24.0 -159.3 -24.15 -159.15 -24.3 -159.0 -24.5 -159.0 -24.7 -159.0 -24.85 -159.15 L-25.0 -159.5 -24.85 -159.85 M-24.0 -155.5 Q-24.0 -155.3 -24.15 -155.15 -24.3 -155.0 -24.5 -155.0 -24.7 -155.0 -24.85 -155.15 L-25.0 -155.5 -24.85 -155.85 -24.5 -156.0 -24.15 -155.85 -24.0 -155.5 M-24.85 -151.85 L-24.5 -152.0 -24.15 -151.85 -24.0 -151.5 Q-24.0 -151.3 -24.15 -151.15 -24.3 -151.0 -24.5 -151.0 -24.7 -151.0 -24.85 -151.15 L-25.0 -151.5 -24.85 -151.85 M-44.85 -165.85 L-44.5 -166.0 -44.15 -165.85 -44.0 -165.5 -44.15 -165.15 -44.5 -165.0 -44.85 -165.15 -45.0 -165.5 -44.85 -165.85 M-40.85 -165.85 L-40.5 -166.0 -40.15 -165.85 -40.0 -165.5 Q-40.0 -165.3 -40.15 -165.15 -40.3 -165.0 -40.5 -165.0 -40.7 -165.0 -40.85 -165.15 L-41.0 -165.5 -40.85 -165.85 M-52.5 -166.0 L-52.15 -165.85 -52.0 -165.5 Q-52.0 -165.3 -52.15 -165.15 -52.3 -165.0 -52.5 -165.0 L-52.85 -165.15 -53.0 -165.5 -52.85 -165.85 -52.5 -166.0 M-56.85 -165.85 L-56.5 -166.0 -56.15 -165.85 -56.0 -165.5 -56.15 -165.15 -56.5 -165.0 -56.85 -165.15 -57.0 -165.5 -56.85 -165.85 M-48.85 -165.85 L-48.5 -166.0 -48.15 -165.85 -48.0 -165.5 -48.15 -165.15 Q-48.3 -165.0 -48.5 -165.0 L-48.85 -165.15 -49.0 -165.5 -48.85 -165.85 M-43.85 -142.85 L-43.5 -143.0 -43.15 -142.85 -43.0 -142.5 Q-43.0 -142.3 -43.15 -142.15 -43.3 -142.0 -43.5 -142.0 L-43.85 -142.15 -44.0 -142.5 -43.85 -142.85 M-47.0 -142.5 L-47.15 -142.15 -47.5 -142.0 -47.85 -142.15 -48.0 -142.5 -47.85 -142.85 -47.5 -143.0 -47.15 -142.85 -47.0 -142.5 M-39.85 -142.85 L-39.5 -143.0 -39.15 -142.85 -39.0 -142.5 -39.15 -142.15 Q-39.3 -142.0 -39.5 -142.0 L-39.85 -142.15 -40.0 -142.5 -39.85 -142.85 M-55.85 -142.85 L-55.5 -143.0 -55.15 -142.85 -55.0 -142.5 -55.15 -142.15 Q-55.3 -142.0 -55.5 -142.0 L-55.85 -142.15 -56.0 -142.5 -55.85 -142.85 M-51.15 -142.85 L-51.0 -142.5 -51.15 -142.15 -51.5 -142.0 Q-51.7 -142.0 -51.85 -142.15 L-52.0 -142.5 -51.85 -142.85 -51.5 -143.0 -51.15 -142.85 M-24.15 -147.85 L-24.0 -147.5 Q-24.0 -147.3 -24.15 -147.15 -24.3 -147.0 -24.5 -147.0 -24.7 -147.0 -24.85 -147.15 L-25.0 -147.5 -24.85 -147.85 -24.5 -148.0 -24.15 -147.85 M-24.15 -143.85 L-24.0 -143.5 Q-24.0 -143.3 -24.15 -143.15 -24.3 -143.0 -24.5 -143.0 -24.7 -143.0 -24.85 -143.15 L-25.0 -143.5 -24.85 -143.85 -24.5 -144.0 -24.15 -143.85 M-35.85 -142.85 L-35.5 -143.0 -35.15 -142.85 -35.0 -142.5 -35.15 -142.15 -35.5 -142.0 -35.85 -142.15 -36.0 -142.5 -35.85 -142.85 M-27.85 -142.85 L-27.5 -143.0 -27.15 -142.85 -27.0 -142.5 -27.15 -142.15 Q-27.3 -142.0 -27.5 -142.0 L-27.85 -142.15 -28.0 -142.5 -27.85 -142.85 M-31.15 -142.85 L-31.0 -142.5 Q-31.0 -142.3 -31.15 -142.15 -31.3 -142.0 -31.5 -142.0 L-31.85 -142.15 -32.0 -142.5 -31.85 -142.85 -31.5 -143.0 -31.15 -142.85 M-224.85 -165.85 L-224.5 -166.0 -224.15 -165.85 -224.0 -165.5 -224.15 -165.15 -224.5 -165.0 -224.85 -165.15 -225.0 -165.5 -224.85 -165.85 M-220.85 -165.85 L-220.5 -166.0 -220.15 -165.85 -220.0 -165.5 Q-220.0 -165.3 -220.15 -165.15 -220.3 -165.0 -220.5 -165.0 L-220.85 -165.15 -221.0 -165.5 -220.85 -165.85 M-224.0 -157.5 L-224.15 -157.15 -224.5 -157.0 -224.85 -157.15 -225.0 -157.5 -224.85 -157.85 -224.5 -158.0 -224.15 -157.85 -224.0 -157.5 M-224.15 -161.85 L-224.0 -161.5 -224.15 -161.15 -224.5 -161.0 -224.85 -161.15 -225.0 -161.5 -224.85 -161.85 -224.5 -162.0 -224.15 -161.85 M-224.85 -153.85 L-224.5 -154.0 -224.15 -153.85 -224.0 -153.5 -224.15 -153.15 -224.5 -153.0 -224.85 -153.15 -225.0 -153.5 -224.85 -153.85 M-224.15 -149.85 L-224.0 -149.5 -224.15 -149.15 -224.5 -149.0 -224.85 -149.15 -225.0 -149.5 -224.85 -149.85 -224.5 -150.0 -224.15 -149.85 M-224.0 -145.5 L-224.15 -145.15 -224.5 -145.0 -224.85 -145.15 -225.0 -145.5 -224.85 -145.85 -224.5 -146.0 -224.15 -145.85 -224.0 -145.5 M-219.85 -142.85 L-219.5 -143.0 -219.15 -142.85 -219.0 -142.5 -219.15 -142.15 -219.5 -142.0 Q-219.7 -142.0 -219.85 -142.15 L-220.0 -142.5 -219.85 -142.85 M-223.15 -142.85 L-223.0 -142.5 -223.15 -142.15 Q-223.3 -142.0 -223.5 -142.0 L-223.85 -142.15 -224.0 -142.5 -223.85 -142.85 -223.5 -143.0 -223.15 -142.85 M-184.15 -165.85 L-184.0 -165.5 Q-184.0 -165.3 -184.15 -165.15 -184.3 -165.0 -184.5 -165.0 -184.7 -165.0 -184.85 -165.15 L-185.0 -165.5 -184.85 -165.85 -184.5 -166.0 -184.15 -165.85 M-188.85 -165.85 L-188.5 -166.0 -188.15 -165.85 -188.0 -165.5 -188.15 -165.15 Q-188.3 -165.0 -188.5 -165.0 L-188.85 -165.15 -189.0 -165.5 -188.85 -165.85 M-180.15 -165.85 L-180.0 -165.5 Q-180.0 -165.3 -180.15 -165.15 -180.3 -165.0 -180.5 -165.0 -180.7 -165.0 -180.85 -165.15 L-181.0 -165.5 -180.85 -165.85 -180.5 -166.0 -180.15 -165.85 M-196.85 -165.85 L-196.5 -166.0 -196.15 -165.85 -196.0 -165.5 Q-196.0 -165.3 -196.15 -165.15 -196.3 -165.0 -196.5 -165.0 -196.7 -165.0 -196.85 -165.15 L-197.0 -165.5 -196.85 -165.85 M-192.15 -165.85 L-192.0 -165.5 Q-192.0 -165.3 -192.15 -165.15 -192.3 -165.0 -192.5 -165.0 -192.7 -165.0 -192.85 -165.15 L-193.0 -165.5 -192.85 -165.85 -192.5 -166.0 -192.15 -165.85 M-204.5 -166.0 L-204.15 -165.85 -204.0 -165.5 Q-204.0 -165.3 -204.15 -165.15 -204.3 -165.0 -204.5 -165.0 -204.7 -165.0 -204.85 -165.15 L-205.0 -165.5 -204.85 -165.85 -204.5 -166.0 M-208.85 -165.85 L-208.5 -166.0 -208.15 -165.85 -208.0 -165.5 Q-208.0 -165.3 -208.15 -165.15 -208.3 -165.0 -208.5 -165.0 -208.7 -165.0 -208.85 -165.15 L-209.0 -165.5 -208.85 -165.85 M-200.15 -165.85 L-200.0 -165.5 -200.15 -165.15 Q-200.3 -165.0 -200.5 -165.0 L-200.85 -165.15 -201.0 -165.5 -200.85 -165.85 -200.5 -166.0 -200.15 -165.85 M-216.85 -165.85 L-216.5 -166.0 -216.15 -165.85 -216.0 -165.5 -216.15 -165.15 Q-216.3 -165.0 -216.5 -165.0 L-216.85 -165.15 -217.0 -165.5 -216.85 -165.85 M-212.15 -165.85 L-212.0 -165.5 -212.15 -165.15 -212.5 -165.0 -212.85 -165.15 -213.0 -165.5 -212.85 -165.85 -212.5 -166.0 -212.15 -165.85 M-207.15 -142.85 L-207.0 -142.5 -207.15 -142.15 Q-207.3 -142.0 -207.5 -142.0 L-207.85 -142.15 -208.0 -142.5 -207.85 -142.85 -207.5 -143.0 -207.15 -142.85 M-199.85 -142.85 L-199.5 -143.0 -199.15 -142.85 -199.0 -142.5 Q-199.0 -142.3 -199.15 -142.15 -199.3 -142.0 -199.5 -142.0 L-199.85 -142.15 -200.0 -142.5 -199.85 -142.85 M-203.15 -142.85 L-203.0 -142.5 -203.15 -142.15 -203.5 -142.0 -203.85 -142.15 -204.0 -142.5 -203.85 -142.85 -203.5 -143.0 -203.15 -142.85 M-215.85 -142.85 L-215.5 -143.0 -215.15 -142.85 -215.0 -142.5 -215.15 -142.15 -215.5 -142.0 -215.85 -142.15 -216.0 -142.5 -215.85 -142.85 M-211.85 -142.85 L-211.5 -143.0 -211.15 -142.85 -211.0 -142.5 Q-211.0 -142.3 -211.15 -142.15 -211.3 -142.0 -211.5 -142.0 L-211.85 -142.15 -212.0 -142.5 -211.85 -142.85 M-187.15 -142.85 L-187.0 -142.5 Q-187.0 -142.3 -187.15 -142.15 -187.3 -142.0 -187.5 -142.0 -187.7 -142.0 -187.85 -142.15 L-188.0 -142.5 -187.85 -142.85 -187.5 -143.0 -187.15 -142.85 M-179.85 -142.85 L-179.5 -143.0 -179.15 -142.85 -179.0 -142.5 -179.15 -142.15 Q-179.3 -142.0 -179.5 -142.0 L-179.85 -142.15 -180.0 -142.5 -179.85 -142.85 M-183.15 -142.85 L-183.0 -142.5 Q-183.0 -142.3 -183.15 -142.15 -183.3 -142.0 -183.5 -142.0 -183.7 -142.0 -183.85 -142.15 L-184.0 -142.5 -183.85 -142.85 -183.5 -143.0 -183.15 -142.85 M-195.85 -142.85 L-195.5 -143.0 -195.15 -142.85 -195.0 -142.5 -195.15 -142.15 Q-195.3 -142.0 -195.5 -142.0 L-195.85 -142.15 -196.0 -142.5 -195.85 -142.85 M-191.85 -142.85 L-191.5 -143.0 -191.15 -142.85 -191.0 -142.5 -191.15 -142.15 -191.5 -142.0 -191.85 -142.15 -192.0 -142.5 -191.85 -142.85" fill="#ffffff" fill-rule="evenodd" stroke="none"/>
    <path d="M101.85 -165.85 L102.0 -165.5 101.85 -165.15 101.5 -165.0 Q101.3 -165.0 101.15 -165.15 L101.0 -165.5 101.15 -165.85 101.5 -166.0 101.85 -165.85 M98.0 -165.5 L97.85 -165.15 97.5 -165.0 Q97.3 -165.0 97.15 -165.15 L97.0 -165.5 97.15 -165.85 97.5 -166.0 97.85 -165.85 98.0 -165.5 M105.85 -165.85 L106.0 -165.5 105.85 -165.15 Q105.7 -165.0 105.5 -165.0 105.3 -165.0 105.15 -165.15 L105.0 -165.5 105.15 -165.85 105.5 -166.0 105.85 -165.85 M89.15 -165.85 L89.5 -166.0 89.85 -165.85 90.0 -165.5 89.85 -165.15 89.5 -165.0 89.15 -165.15 89.0 -165.5 89.15 -165.85 M93.15 -165.85 L93.5 -166.0 93.85 -165.85 94.0 -165.5 93.85 -165.15 Q93.7 -165.0 93.5 -165.0 L93.15 -165.15 93.0 -165.5 93.15 -165.85 M81.85 -165.85 L82.0 -165.5 81.85 -165.15 81.5 -165.0 Q81.3 -165.0 81.15 -165.15 L81.0 -165.5 81.15 -165.85 81.5 -166.0 81.85 -165.85 M78.0 -165.5 L77.85 -165.15 77.5 -165.0 77.15 -165.15 77.0 -165.5 77.15 -165.85 77.5 -166.0 77.85 -165.85 78.0 -165.5 M85.15 -165.85 L85.5 -166.0 85.85 -165.85 86.0 -165.5 85.85 -165.15 85.5 -165.0 Q85.3 -165.0 85.15 -165.15 85.0 -165.3 85.0 -165.5 L85.15 -165.85 M69.15 -165.85 L69.5 -166.0 69.85 -165.85 70.0 -165.5 69.85 -165.15 69.5 -165.0 Q69.3 -165.0 69.15 -165.15 L69.0 -165.5 69.15 -165.85 M73.85 -165.85 L74.0 -165.5 73.85 -165.15 73.5 -165.0 Q73.3 -165.0 73.15 -165.15 73.0 -165.3 73.0 -165.5 L73.15 -165.85 73.5 -166.0 73.85 -165.85 M82.15 -142.85 L82.5 -143.0 82.85 -142.85 83.0 -142.5 82.85 -142.15 Q82.7 -142.0 82.5 -142.0 82.3 -142.0 82.15 -142.15 82.0 -142.3 82.0 -142.5 L82.15 -142.85 M78.15 -142.85 L78.5 -143.0 78.85 -142.85 79.0 -142.5 78.85 -142.15 Q78.7 -142.0 78.5 -142.0 78.3 -142.0 78.15 -142.15 78.0 -142.3 78.0 -142.5 L78.15 -142.85 M86.15 -142.85 L86.5 -143.0 86.85 -142.85 87.0 -142.5 86.85 -142.15 86.5 -142.0 86.15 -142.15 86.0 -142.5 86.15 -142.85 M70.15 -142.85 L70.5 -143.0 70.85 -142.85 71.0 -142.5 70.85 -142.15 Q70.7 -142.0 70.5 -142.0 70.3 -142.0 70.15 -142.15 70.0 -142.3 70.0 -142.5 L70.15 -142.85 M74.15 -142.85 L74.5 -143.0 74.85 -142.85 75.0 -142.5 74.85 -142.15 74.5 -142.0 Q74.3 -142.0 74.15 -142.15 L74.0 -142.5 74.15 -142.85 M102.15 -142.85 L102.5 -143.0 102.85 -142.85 103.0 -142.5 102.85 -142.15 102.5 -142.0 Q102.3 -142.0 102.15 -142.15 L102.0 -142.5 102.15 -142.85 M98.15 -142.85 L98.5 -143.0 98.85 -142.85 99.0 -142.5 98.85 -142.15 98.5 -142.0 98.15 -142.15 98.0 -142.5 98.15 -142.85 M106.15 -142.85 L106.5 -143.0 106.85 -142.85 107.0 -142.5 106.85 -142.15 106.5 -142.0 Q106.3 -142.0 106.15 -142.15 106.0 -142.3 106.0 -142.5 L106.15 -142.85 M90.15 -142.85 L90.5 -143.0 90.85 -142.85 91.0 -142.5 90.85 -142.15 90.5 -142.0 Q90.3 -142.0 90.15 -142.15 L90.0 -142.5 90.15 -142.85 M94.15 -142.85 L94.5 -143.0 94.85 -142.85 95.0 -142.5 94.85 -142.15 94.5 -142.0 Q94.3 -142.0 94.15 -142.15 94.0 -142.3 94.0 -142.5 L94.15 -142.85 M141.15 -165.85 L141.5 -166.0 141.85 -165.85 142.0 -165.5 141.85 -165.15 Q141.7 -165.0 141.5 -165.0 141.3 -165.0 141.15 -165.15 141.0 -165.3 141.0 -165.5 L141.15 -165.85 M145.85 -165.85 L146.0 -165.5 145.85 -165.15 Q145.7 -165.0 145.5 -165.0 145.3 -165.0 145.15 -165.15 145.0 -165.3 145.0 -165.5 L145.15 -165.85 145.5 -166.0 145.85 -165.85 M129.15 -165.85 L129.5 -166.0 129.85 -165.85 130.0 -165.5 129.85 -165.15 Q129.7 -165.0 129.5 -165.0 129.3 -165.0 129.15 -165.15 129.0 -165.3 129.0 -165.5 L129.15 -165.85 M137.15 -165.85 L137.5 -166.0 137.85 -165.85 138.0 -165.5 137.85 -165.15 137.5 -165.0 Q137.3 -165.0 137.15 -165.15 L137.0 -165.5 137.15 -165.85 M133.15 -165.85 L133.5 -166.0 133.85 -165.85 134.0 -165.5 133.85 -165.15 Q133.7 -165.0 133.5 -165.0 133.3 -165.0 133.15 -165.15 133.0 -165.3 133.0 -165.5 L133.15 -165.85 M121.85 -165.85 L122.0 -165.5 121.85 -165.15 Q121.7 -165.0 121.5 -165.0 121.3 -165.0 121.15 -165.15 121.0 -165.3 121.0 -165.5 L121.15 -165.85 121.5 -166.0 121.85 -165.85 M118.0 -165.5 L117.85 -165.15 Q117.7 -165.0 117.5 -165.0 117.3 -165.0 117.15 -165.15 117.0 -165.3 117.0 -165.5 L117.15 -165.85 117.5 -166.0 117.85 -165.85 118.0 -165.5 M125.15 -165.85 L125.5 -166.0 125.85 -165.85 126.0 -165.5 125.85 -165.15 125.5 -165.0 Q125.3 -165.0 125.15 -165.15 L125.0 -165.5 125.15 -165.85 M109.15 -165.85 Q109.3 -166.0 109.5 -166.0 L109.85 -165.85 110.0 -165.5 109.85 -165.15 109.5 -165.0 Q109.3 -165.0 109.15 -165.15 L109.0 -165.5 109.15 -165.85 M113.15 -165.85 L113.5 -166.0 113.85 -165.85 114.0 -165.5 113.85 -165.15 113.5 -165.0 Q113.3 -165.0 113.15 -165.15 L113.0 -165.5 113.15 -165.85 M122.15 -142.85 L122.5 -143.0 122.85 -142.85 123.0 -142.5 122.85 -142.15 122.5 -142.0 Q122.3 -142.0 122.15 -142.15 L122.0 -142.5 122.15 -142.85 M118.15 -142.85 L118.5 -143.0 118.85 -142.85 119.0 -142.5 118.85 -142.15 118.5 -142.0 Q118.3 -142.0 118.15 -142.15 L118.0 -142.5 118.15 -142.85 M126.15 -142.85 L126.5 -143.0 126.85 -142.85 127.0 -142.5 126.85 -142.15 Q126.7 -142.0 126.5 -142.0 126.3 -142.0 126.15 -142.15 L126.0 -142.5 126.15 -142.85 M110.15 -142.85 L110.5 -143.0 110.85 -142.85 111.0 -142.5 110.85 -142.15 110.5 -142.0 110.15 -142.15 110.0 -142.5 110.15 -142.85 M114.15 -142.85 L114.5 -143.0 114.85 -142.85 115.0 -142.5 114.85 -142.15 Q114.7 -142.0 114.5 -142.0 L114.15 -142.15 114.0 -142.5 114.15 -142.85 M142.15 -142.85 L142.5 -143.0 142.85 -142.85 143.0 -142.5 142.85 -142.15 Q142.7 -142.0 142.5 -142.0 142.3 -142.0 142.15 -142.15 142.0 -142.3 142.0 -142.5 L142.15 -142.85 M138.15 -142.85 L138.5 -143.0 138.85 -142.85 139.0 -142.5 138.85 -142.15 Q138.7 -142.0 138.5 -142.0 138.3 -142.0 138.15 -142.15 138.0 -142.3 138.0 -142.5 L138.15 -142.85 M146.15 -142.85 L146.5 -143.0 146.85 -142.85 147.0 -142.5 146.85 -142.15 146.5 -142.0 Q146.3 -142.0 146.15 -142.15 L146.0 -142.5 146.15 -142.85 M130.15 -142.85 Q130.3 -143.0 130.5 -143.0 L130.85 -142.85 131.0 -142.5 130.85 -142.15 130.5 -142.0 Q130.3 -142.0 130.15 -142.15 L130.0 -142.5 130.15 -142.85 M134.15 -142.85 L134.5 -143.0 134.85 -142.85 135.0 -142.5 134.85 -142.15 134.5 -142.0 Q134.3 -142.0 134.15 -142.15 L134.0 -142.5 134.15 -142.85 M181.15 -165.85 L181.5 -166.0 181.85 -165.85 182.0 -165.5 181.85 -165.15 181.5 -165.0 Q181.3 -165.0 181.15 -165.15 L181.0 -165.5 181.15 -165.85 M185.85 -165.85 L186.0 -165.5 185.85 -165.15 185.5 -165.0 Q185.3 -165.0 185.15 -165.15 L185.0 -165.5 185.15 -165.85 185.5 -166.0 185.85 -165.85 M173.15 -165.85 L173.5 -166.0 173.85 -165.85 174.0 -165.5 173.85 -165.15 173.5 -165.0 173.15 -165.15 173.0 -165.5 173.15 -165.85 M169.15 -165.85 L169.5 -166.0 169.85 -165.85 170.0 -165.5 169.85 -165.15 169.5 -165.0 Q169.3 -165.0 169.15 -165.15 169.0 -165.3 169.0 -165.5 L169.15 -165.85 M177.15 -165.85 L177.5 -166.0 177.85 -165.85 178.0 -165.5 177.85 -165.15 Q177.7 -165.0 177.5 -165.0 L177.15 -165.15 177.0 -165.5 177.15 -165.85 M161.15 -165.85 L161.5 -166.0 161.85 -165.85 162.0 -165.5 161.85 -165.15 161.5 -165.0 161.15 -165.15 161.0 -165.5 161.15 -165.85 M165.15 -165.85 L165.5 -166.0 165.85 -165.85 166.0 -165.5 165.85 -165.15 165.5 -165.0 Q165.3 -165.0 165.15 -165.15 L165.0 -165.5 165.15 -165.85 M149.15 -165.85 L149.5 -166.0 149.85 -165.85 150.0 -165.5 149.85 -165.15 149.5 -165.0 149.15 -165.15 149.0 -165.5 149.15 -165.85 M157.15 -165.85 L157.5 -166.0 157.85 -165.85 158.0 -165.5 157.85 -165.15 157.5 -165.0 Q157.3 -165.0 157.15 -165.15 157.0 -165.3 157.0 -165.5 L157.15 -165.85 M154.0 -165.5 L153.85 -165.15 153.5 -165.0 Q153.3 -165.0 153.15 -165.15 L153.0 -165.5 153.15 -165.85 153.5 -166.0 153.85 -165.85 154.0 -165.5 M162.15 -142.85 L162.5 -143.0 162.85 -142.85 163.0 -142.5 162.85 -142.15 Q162.7 -142.0 162.5 -142.0 162.3 -142.0 162.15 -142.15 162.0 -142.3 162.0 -142.5 L162.15 -142.85 M159.0 -142.5 L158.85 -142.15 158.5 -142.0 Q158.3 -142.0 158.15 -142.15 L158.0 -142.5 158.15 -142.85 158.5 -143.0 158.85 -142.85 159.0 -142.5 M166.15 -142.85 L166.5 -143.0 166.85 -142.85 167.0 -142.5 166.85 -142.15 Q166.7 -142.0 166.5 -142.0 166.3 -142.0 166.15 -142.15 166.0 -142.3 166.0 -142.5 L166.15 -142.85 M150.15 -142.85 L150.5 -143.0 150.85 -142.85 151.0 -142.5 150.85 -142.15 Q150.7 -142.0 150.5 -142.0 150.3 -142.0 150.15 -142.15 150.0 -142.3 150.0 -142.5 L150.15 -142.85 M154.15 -142.85 L154.5 -143.0 154.85 -142.85 155.0 -142.5 154.85 -142.15 Q154.7 -142.0 154.5 -142.0 154.3 -142.0 154.15 -142.15 154.0 -142.3 154.0 -142.5 L154.15 -142.85 M182.15 -142.85 L182.5 -143.0 182.85 -142.85 183.0 -142.5 182.85 -142.15 182.5 -142.0 182.15 -142.15 182.0 -142.5 182.15 -142.85 M179.0 -142.5 L178.85 -142.15 178.5 -142.0 Q178.3 -142.0 178.15 -142.15 178.0 -142.3 178.0 -142.5 L178.15 -142.85 178.5 -143.0 178.85 -142.85 179.0 -142.5 M186.15 -142.85 L186.5 -143.0 186.85 -142.85 187.0 -142.5 186.85 -142.15 186.5 -142.0 Q186.3 -142.0 186.15 -142.15 L186.0 -142.5 186.15 -142.85 M170.15 -142.85 L170.5 -143.0 170.85 -142.85 171.0 -142.5 170.85 -142.15 170.5 -142.0 170.15 -142.15 170.0 -142.5 170.15 -142.85 M174.85 -142.85 L175.0 -142.5 174.85 -142.15 174.5 -142.0 Q174.3 -142.0 174.15 -142.15 L174.0 -142.5 174.15 -142.85 174.5 -143.0 174.85 -142.85 M222.0 -165.5 L221.85 -165.15 221.5 -165.0 Q221.3 -165.0 221.15 -165.15 L221.0 -165.5 221.15 -165.85 221.5 -166.0 221.85 -165.85 222.0 -165.5 M221.15 -163.85 L221.5 -164.0 221.85 -163.85 222.0 -163.5 221.85 -163.15 221.5 -163.0 Q221.3 -163.0 221.15 -163.15 L221.0 -163.5 221.15 -163.85 M213.5 -166.0 L213.85 -165.85 214.0 -165.5 213.85 -165.15 Q213.7 -165.0 213.5 -165.0 213.3 -165.0 213.15 -165.15 213.0 -165.3 213.0 -165.5 L213.15 -165.85 213.5 -166.0 M209.15 -165.85 L209.5 -166.0 209.85 -165.85 210.0 -165.5 209.85 -165.15 209.5 -165.0 Q209.3 -165.0 209.15 -165.15 L209.0 -165.5 209.15 -165.85 M217.15 -165.85 L217.5 -166.0 217.85 -165.85 218.0 -165.5 217.85 -165.15 Q217.7 -165.0 217.5 -165.0 217.3 -165.0 217.15 -165.15 217.0 -165.3 217.0 -165.5 L217.15 -165.85 M221.15 -159.85 L221.5 -160.0 221.85 -159.85 222.0 -159.5 221.85 -159.15 221.5 -159.0 Q221.3 -159.0 221.15 -159.15 L221.0 -159.5 221.15 -159.85 M222.0 -155.5 L221.85 -155.15 221.5 -155.0 Q221.3 -155.0 221.15 -155.15 L221.0 -155.5 221.15 -155.85 221.5 -156.0 221.85 -155.85 222.0 -155.5 M221.15 -151.85 L221.5 -152.0 221.85 -151.85 222.0 -151.5 221.85 -151.15 221.5 -151.0 Q221.3 -151.0 221.15 -151.15 L221.0 -151.5 221.15 -151.85 M201.15 -165.85 L201.5 -166.0 201.85 -165.85 202.0 -165.5 201.85 -165.15 Q201.7 -165.0 201.5 -165.0 201.3 -165.0 201.15 -165.15 201.0 -165.3 201.0 -165.5 L201.15 -165.85 M205.15 -165.85 L205.5 -166.0 205.85 -165.85 206.0 -165.5 205.85 -165.15 Q205.7 -165.0 205.5 -165.0 205.3 -165.0 205.15 -165.15 205.0 -165.3 205.0 -165.5 L205.15 -165.85 M193.5 -166.0 L193.85 -165.85 194.0 -165.5 193.85 -165.15 193.5 -165.0 Q193.3 -165.0 193.15 -165.15 L193.0 -165.5 193.15 -165.85 Q193.3 -166.0 193.5 -166.0 M189.15 -165.85 L189.5 -166.0 189.85 -165.85 190.0 -165.5 189.85 -165.15 Q189.7 -165.0 189.5 -165.0 189.3 -165.0 189.15 -165.15 L189.0 -165.5 189.15 -165.85 M197.15 -165.85 L197.5 -166.0 197.85 -165.85 198.0 -165.5 197.85 -165.15 197.5 -165.0 Q197.3 -165.0 197.15 -165.15 L197.0 -165.5 197.15 -165.85 M202.15 -142.85 L202.5 -143.0 202.85 -142.85 203.0 -142.5 202.85 -142.15 202.5 -142.0 Q202.3 -142.0 202.15 -142.15 L202.0 -142.5 202.15 -142.85 M199.0 -142.5 L198.85 -142.15 Q198.7 -142.0 198.5 -142.0 L198.15 -142.15 198.0 -142.5 198.15 -142.85 198.5 -143.0 198.85 -142.85 199.0 -142.5 M206.15 -142.85 L206.5 -143.0 206.85 -142.85 207.0 -142.5 206.85 -142.15 206.5 -142.0 Q206.3 -142.0 206.15 -142.15 L206.0 -142.5 206.15 -142.85 M190.15 -142.85 L190.5 -143.0 190.85 -142.85 191.0 -142.5 190.85 -142.15 190.5 -142.0 Q190.3 -142.0 190.15 -142.15 190.0 -142.3 190.0 -142.5 L190.15 -142.85 M194.85 -142.85 L195.0 -142.5 194.85 -142.15 194.5 -142.0 194.15 -142.15 194.0 -142.5 194.15 -142.85 194.5 -143.0 194.85 -142.85 M221.85 -147.85 L222.0 -147.5 221.85 -147.15 221.5 -147.0 Q221.3 -147.0 221.15 -147.15 L221.0 -147.5 221.15 -147.85 221.5 -148.0 221.85 -147.85 M221.85 -143.85 L222.0 -143.5 221.85 -143.15 221.5 -143.0 Q221.3 -143.0 221.15 -143.15 L221.0 -143.5 221.15 -143.85 221.5 -144.0 221.85 -143.85 M210.15 -142.85 L210.5 -143.0 210.85 -142.85 211.0 -142.5 210.85 -142.15 Q210.7 -142.0 210.5 -142.0 210.3 -142.0 210.15 -142.15 L210.0 -142.5 210.15 -142.85 M218.15 -142.85 L218.5 -143.0 218.85 -142.85 219.0 -142.5 218.85 -142.15 218.5 -142.0 Q218.3 -142.0 218.15 -142.15 L218.0 -142.5 218.15 -142.85 M214.85 -142.85 L215.0 -142.5 214.85 -142.15 214.5 -142.0 Q214.3 -142.0 214.15 -142.15 L214.0 -142.5 214.15 -142.85 Q214.3 -143.0 214.5 -143.0 L214.85 -142.85 M21.15 -165.85 L21.5 -166.0 21.85 -165.85 22.0 -165.5 21.85 -165.15 Q21.7 -165.0 21.5 -165.0 21.3 -165.0 21.15 -165.15 L21.0 -165.5 21.15 -165.85 M25.15 -165.85 Q25.3 -166.0 25.5 -166.0 L25.85 -165.85 26.0 -165.5 25.85 -165.15 25.5 -165.0 Q25.3 -165.0 25.15 -165.15 L25.0 -165.5 25.15 -165.85 M22.0 -157.5 L21.85 -157.15 Q21.7 -157.0 21.5 -157.0 21.3 -157.0 21.15 -157.15 L21.0 -157.5 21.15 -157.85 21.5 -158.0 21.85 -157.85 22.0 -157.5 M21.85 -161.85 L22.0 -161.5 21.85 -161.15 Q21.7 -161.0 21.5 -161.0 21.3 -161.0 21.15 -161.15 L21.0 -161.5 21.15 -161.85 21.5 -162.0 21.85 -161.85 M21.15 -153.85 L21.5 -154.0 21.85 -153.85 22.0 -153.5 21.85 -153.15 Q21.7 -153.0 21.5 -153.0 21.3 -153.0 21.15 -153.15 L21.0 -153.5 21.15 -153.85 M21.85 -149.85 L22.0 -149.5 21.85 -149.15 Q21.7 -149.0 21.5 -149.0 21.3 -149.0 21.15 -149.15 L21.0 -149.5 21.15 -149.85 21.5 -150.0 21.85 -149.85 M22.0 -145.5 L21.85 -145.15 Q21.7 -145.0 21.5 -145.0 21.3 -145.0 21.15 -145.15 L21.0 -145.5 21.15 -145.85 21.5 -146.0 21.85 -145.85 22.0 -145.5 M26.15 -142.85 L26.5 -143.0 26.85 -142.85 27.0 -142.5 26.85 -142.15 26.5 -142.0 26.15 -142.15 26.0 -142.5 26.15 -142.85 M22.85 -142.85 L23.0 -142.5 22.85 -142.15 22.5 -142.0 Q22.3 -142.0 22.15 -142.15 22.0 -142.3 22.0 -142.5 L22.15 -142.85 22.5 -143.0 22.85 -142.85 M61.85 -165.85 L62.0 -165.5 61.85 -165.15 Q61.7 -165.0 61.5 -165.0 61.3 -165.0 61.15 -165.15 61.0 -165.3 61.0 -165.5 L61.15 -165.85 61.5 -166.0 61.85 -165.85 M57.15 -165.85 L57.5 -166.0 57.85 -165.85 58.0 -165.5 57.85 -165.15 Q57.7 -165.0 57.5 -165.0 57.3 -165.0 57.15 -165.15 57.0 -165.3 57.0 -165.5 L57.15 -165.85 M65.85 -165.85 L66.0 -165.5 65.85 -165.15 65.5 -165.0 65.15 -165.15 65.0 -165.5 65.15 -165.85 65.5 -166.0 65.85 -165.85 M49.15 -165.85 L49.5 -166.0 49.85 -165.85 50.0 -165.5 49.85 -165.15 Q49.7 -165.0 49.5 -165.0 49.3 -165.0 49.15 -165.15 49.0 -165.3 49.0 -165.5 L49.15 -165.85 M53.85 -165.85 L54.0 -165.5 53.85 -165.15 53.5 -165.0 Q53.3 -165.0 53.15 -165.15 L53.0 -165.5 53.15 -165.85 53.5 -166.0 53.85 -165.85 M41.5 -166.0 L41.85 -165.85 42.0 -165.5 41.85 -165.15 41.5 -165.0 Q41.3 -165.0 41.15 -165.15 L41.0 -165.5 41.15 -165.85 41.5 -166.0 M37.15 -165.85 L37.5 -166.0 37.85 -165.85 38.0 -165.5 37.85 -165.15 Q37.7 -165.0 37.5 -165.0 37.3 -165.0 37.15 -165.15 37.0 -165.3 37.0 -165.5 L37.15 -165.85 M45.85 -165.85 L46.0 -165.5 45.85 -165.15 Q45.7 -165.0 45.5 -165.0 45.3 -165.0 45.15 -165.15 45.0 -165.3 45.0 -165.5 L45.15 -165.85 45.5 -166.0 45.85 -165.85 M29.15 -165.85 L29.5 -166.0 29.85 -165.85 30.0 -165.5 29.85 -165.15 29.5 -165.0 Q29.3 -165.0 29.15 -165.15 L29.0 -165.5 29.15 -165.85 M33.85 -165.85 L34.0 -165.5 33.85 -165.15 Q33.7 -165.0 33.5 -165.0 33.3 -165.0 33.15 -165.15 33.0 -165.3 33.0 -165.5 L33.15 -165.85 33.5 -166.0 33.85 -165.85 M38.85 -142.85 L39.0 -142.5 38.85 -142.15 38.5 -142.0 Q38.3 -142.0 38.15 -142.15 L38.0 -142.5 38.15 -142.85 38.5 -143.0 38.85 -142.85 M46.15 -142.85 Q46.3 -143.0 46.5 -143.0 L46.85 -142.85 47.0 -142.5 46.85 -142.15 46.5 -142.0 Q46.3 -142.0 46.15 -142.15 L46.0 -142.5 46.15 -142.85 M42.85 -142.85 L43.0 -142.5 42.85 -142.15 Q42.7 -142.0 42.5 -142.0 42.3 -142.0 42.15 -142.15 L42.0 -142.5 42.15 -142.85 42.5 -143.0 42.85 -142.85 M30.15 -142.85 L30.5 -143.0 30.85 -142.85 31.0 -142.5 30.85 -142.15 Q30.7 -142.0 30.5 -142.0 L30.15 -142.15 30.0 -142.5 30.15 -142.85 M34.15 -142.85 L34.5 -143.0 34.85 -142.85 35.0 -142.5 34.85 -142.15 34.5 -142.0 Q34.3 -142.0 34.15 -142.15 L34.0 -142.5 34.15 -142.85 M58.85 -142.85 L59.0 -142.5 58.85 -142.15 Q58.7 -142.0 58.5 -142.0 58.3 -142.0 58.15 -142.15 58.0 -142.3 58.0 -142.5 L58.15 -142.85 58.5 -143.0 58.85 -142.85 M66.15 -142.85 L66.5 -143.0 66.85 -142.85 67.0 -142.5 66.85 -142.15 Q66.7 -142.0 66.5 -142.0 66.3 -142.0 66.15 -142.15 66.0 -142.3 66.0 -142.5 L66.15 -142.85 M62.85 -142.85 L63.0 -142.5 62.85 -142.15 62.5 -142.0 Q62.3 -142.0 62.15 -142.15 L62.0 -142.5 62.15 -142.85 62.5 -143.0 62.85 -142.85 M50.15 -142.85 L50.5 -143.0 50.85 -142.85 51.0 -142.5 50.85 -142.15 50.5 -142.0 Q50.3 -142.0 50.15 -142.15 L50.0 -142.5 50.15 -142.85 M54.15 -142.85 L54.5 -143.0 54.85 -142.85 55.0 -142.5 54.85 -142.15 Q54.7 -142.0 54.5 -142.0 54.3 -142.0 54.15 -142.15 54.0 -142.3 54.0 -142.5 L54.15 -142.85" fill="#ffffff" fill-rule="evenodd" stroke="none"/>
    <path d="M77.85 -80.85 L78.0 -80.5 77.85 -80.15 77.5 -80.0 77.15 -80.15 77.0 -80.5 77.15 -80.85 77.5 -81.0 77.85 -80.85 M80.5 -81.0 Q80.3 -81.0 80.15 -81.15 L80.0 -81.5 80.15 -81.85 80.5 -82.0 80.85 -81.85 81.0 -81.5 80.85 -81.15 80.5 -81.0 M84.15 -81.85 L84.5 -82.0 84.85 -81.85 85.0 -81.5 84.85 -81.15 Q84.7 -81.0 84.5 -81.0 84.3 -81.0 84.15 -81.15 L84.0 -81.5 84.15 -81.85 M88.15 -81.85 Q88.3 -82.0 88.5 -82.0 L88.85 -81.85 89.0 -81.5 88.85 -81.15 88.5 -81.0 Q88.3 -81.0 88.15 -81.15 L88.0 -81.5 88.15 -81.85 M92.15 -81.85 L92.5 -82.0 92.85 -81.85 93.0 -81.5 92.85 -81.15 92.5 -81.0 Q92.3 -81.0 92.15 -81.15 L92.0 -81.5 92.15 -81.85 M96.85 -81.85 L97.0 -81.5 96.85 -81.15 Q96.7 -81.0 96.5 -81.0 96.3 -81.0 96.15 -81.15 96.0 -81.3 96.0 -81.5 L96.15 -81.85 96.5 -82.0 96.85 -81.85 M100.85 -81.85 L101.0 -81.5 100.85 -81.15 Q100.7 -81.0 100.5 -81.0 100.3 -81.0 100.15 -81.15 100.0 -81.3 100.0 -81.5 L100.15 -81.85 100.5 -82.0 100.85 -81.85 M104.15 -81.85 L104.5 -82.0 104.85 -81.85 105.0 -81.5 104.85 -81.15 104.5 -81.0 Q104.3 -81.0 104.15 -81.15 L104.0 -81.5 104.15 -81.85 M108.15 -81.85 L108.5 -82.0 108.85 -81.85 109.0 -81.5 108.85 -81.15 Q108.7 -81.0 108.5 -81.0 108.3 -81.0 108.15 -81.15 108.0 -81.3 108.0 -81.5 L108.15 -81.85 M112.15 -81.85 L112.5 -82.0 112.85 -81.85 113.0 -81.5 112.85 -81.15 Q112.7 -81.0 112.5 -81.0 112.3 -81.0 112.15 -81.15 112.0 -81.3 112.0 -81.5 L112.15 -81.85 M116.15 -81.85 L116.5 -82.0 116.85 -81.85 117.0 -81.5 116.85 -81.15 116.5 -81.0 Q116.3 -81.0 116.15 -81.15 L116.0 -81.5 116.15 -81.85 M120.85 -81.85 L121.0 -81.5 120.85 -81.15 Q120.7 -81.0 120.5 -81.0 120.3 -81.0 120.15 -81.15 120.0 -81.3 120.0 -81.5 L120.15 -81.85 120.5 -82.0 120.85 -81.85 M124.15 -81.85 L124.5 -82.0 124.85 -81.85 125.0 -81.5 124.85 -81.15 Q124.7 -81.0 124.5 -81.0 124.3 -81.0 124.15 -81.15 124.0 -81.3 124.0 -81.5 L124.15 -81.85 M128.85 -81.85 L129.0 -81.5 128.85 -81.15 128.5 -81.0 128.15 -81.15 128.0 -81.5 128.15 -81.85 128.5 -82.0 128.85 -81.85 M132.15 -81.85 L132.5 -82.0 132.85 -81.85 133.0 -81.5 132.85 -81.15 132.5 -81.0 Q132.3 -81.0 132.15 -81.15 L132.0 -81.5 132.15 -81.85 M136.85 -81.85 L137.0 -81.5 136.85 -81.15 136.5 -81.0 Q136.3 -81.0 136.15 -81.15 136.0 -81.3 136.0 -81.5 L136.15 -81.85 136.5 -82.0 136.85 -81.85 M140.85 -81.85 L141.0 -81.5 140.85 -81.15 140.5 -81.0 140.15 -81.15 140.0 -81.5 140.15 -81.85 140.5 -82.0 140.85 -81.85 M144.15 -81.85 L144.5 -82.0 144.85 -81.85 145.0 -81.5 144.85 -81.15 144.5 -81.0 Q144.3 -81.0 144.15 -81.15 L144.0 -81.5 144.15 -81.85 M148.85 -81.85 L149.0 -81.5 148.85 -81.15 148.5 -81.0 Q148.3 -81.0 148.15 -81.15 148.0 -81.3 148.0 -81.5 L148.15 -81.85 148.5 -82.0 148.85 -81.85 M152.15 -81.85 L152.5 -82.0 152.85 -81.85 153.0 -81.5 152.85 -81.15 152.5 -81.0 152.15 -81.15 152.0 -81.5 152.15 -81.85 M156.85 -81.85 L157.0 -81.5 156.85 -81.15 Q156.7 -81.0 156.5 -81.0 L156.15 -81.15 156.0 -81.5 156.15 -81.85 156.5 -82.0 156.85 -81.85 M160.15 -81.85 L160.5 -82.0 160.85 -81.85 161.0 -81.5 160.85 -81.15 160.5 -81.0 Q160.3 -81.0 160.15 -81.15 L160.0 -81.5 160.15 -81.85 M164.15 -81.85 L164.5 -82.0 164.85 -81.85 165.0 -81.5 164.85 -81.15 164.5 -81.0 Q164.3 -81.0 164.15 -81.15 L164.0 -81.5 164.15 -81.85 M168.85 -81.85 L169.0 -81.5 168.85 -81.15 Q168.7 -81.0 168.5 -81.0 168.3 -81.0 168.15 -81.15 L168.0 -81.5 168.15 -81.85 168.5 -82.0 168.85 -81.85 M172.15 -81.85 Q172.3 -82.0 172.5 -82.0 L172.85 -81.85 173.0 -81.5 172.85 -81.15 172.5 -81.0 Q172.3 -81.0 172.15 -81.15 L172.0 -81.5 172.15 -81.85 M176.85 -81.85 L177.0 -81.5 176.85 -81.15 176.5 -81.0 Q176.3 -81.0 176.15 -81.15 L176.0 -81.5 176.15 -81.85 176.5 -82.0 176.85 -81.85 M180.15 -81.85 L180.5 -82.0 180.85 -81.85 181.0 -81.5 180.85 -81.15 Q180.7 -81.0 180.5 -81.0 180.3 -81.0 180.15 -81.15 180.0 -81.3 180.0 -81.5 L180.15 -81.85 M184.15 -81.85 L184.5 -82.0 184.85 -81.85 185.0 -81.5 184.85 -81.15 Q184.7 -81.0 184.5 -81.0 184.3 -81.0 184.15 -81.15 184.0 -81.3 184.0 -81.5 L184.15 -81.85 M188.85 -81.85 L189.0 -81.5 188.85 -81.15 188.5 -81.0 Q188.3 -81.0 188.15 -81.15 L188.0 -81.5 188.15 -81.85 188.5 -82.0 188.85 -81.85 M192.15 -81.85 L192.5 -82.0 192.85 -81.85 193.0 -81.5 192.85 -81.15 Q192.7 -81.0 192.5 -81.0 192.3 -81.0 192.15 -81.15 192.0 -81.3 192.0 -81.5 L192.15 -81.85 M196.15 -81.85 L196.5 -82.0 196.85 -81.85 197.0 -81.5 196.85 -81.15 Q196.7 -81.0 196.5 -81.0 196.3 -81.0 196.15 -81.15 196.0 -81.3 196.0 -81.5 L196.15 -81.85 M200.15 -81.85 L200.5 -82.0 200.85 -81.85 201.0 -81.5 200.85 -81.15 200.5 -81.0 Q200.3 -81.0 200.15 -81.15 L200.0 -81.5 200.15 -81.85 M204.15 -81.85 L204.5 -82.0 204.85 -81.85 205.0 -81.5 204.85 -81.15 Q204.7 -81.0 204.5 -81.0 204.3 -81.0 204.15 -81.15 204.0 -81.3 204.0 -81.5 L204.15 -81.85 M208.15 -81.85 L208.5 -82.0 208.85 -81.85 209.0 -81.5 208.85 -81.15 Q208.7 -81.0 208.5 -81.0 208.3 -81.0 208.15 -81.15 208.0 -81.3 208.0 -81.5 L208.15 -81.85 M212.85 -81.85 L213.0 -81.5 212.85 -81.15 212.5 -81.0 212.15 -81.15 212.0 -81.5 212.15 -81.85 212.5 -82.0 212.85 -81.85 M212.15 -77.85 L212.5 -78.0 212.85 -77.85 213.0 -77.5 212.85 -77.15 212.5 -77.0 212.15 -77.15 212.0 -77.5 212.15 -77.85 M212.5 -74.0 L212.85 -73.85 213.0 -73.5 212.85 -73.15 212.5 -73.0 212.15 -73.15 212.0 -73.5 212.15 -73.85 212.5 -74.0 M212.15 -69.85 L212.5 -70.0 212.85 -69.85 213.0 -69.5 212.85 -69.15 212.5 -69.0 212.15 -69.15 212.0 -69.5 212.15 -69.85 M199.85 -58.85 L200.0 -58.5 199.85 -58.15 199.5 -58.0 Q199.3 -58.0 199.15 -58.15 199.0 -58.3 199.0 -58.5 L199.15 -58.85 199.5 -59.0 199.85 -58.85 M196.0 -58.5 L195.85 -58.15 195.5 -58.0 Q195.3 -58.0 195.15 -58.15 L195.0 -58.5 195.15 -58.85 195.5 -59.0 195.85 -58.85 196.0 -58.5 M203.85 -58.85 L204.0 -58.5 203.85 -58.15 203.5 -58.0 203.15 -58.15 203.0 -58.5 203.15 -58.85 203.5 -59.0 203.85 -58.85 M212.15 -65.85 L212.5 -66.0 212.85 -65.85 213.0 -65.5 212.85 -65.15 212.5 -65.0 212.15 -65.15 212.0 -65.5 212.15 -65.85 M212.15 -61.85 L212.5 -62.0 212.85 -61.85 213.0 -61.5 212.85 -61.15 212.5 -61.0 212.15 -61.15 212.0 -61.5 212.15 -61.85 M207.15 -58.85 L207.5 -59.0 207.85 -58.85 208.0 -58.5 207.85 -58.15 207.5 -58.0 Q207.3 -58.0 207.15 -58.15 L207.0 -58.5 207.15 -58.85 M211.15 -58.85 L211.5 -59.0 211.85 -58.85 212.0 -58.5 211.85 -58.15 211.5 -58.0 Q211.3 -58.0 211.15 -58.15 211.0 -58.3 211.0 -58.5 L211.15 -58.85 M179.85 -58.85 L180.0 -58.5 179.85 -58.15 179.5 -58.0 Q179.3 -58.0 179.15 -58.15 L179.0 -58.5 179.15 -58.85 179.5 -59.0 179.85 -58.85 M176.0 -58.5 L175.85 -58.15 Q175.7 -58.0 175.5 -58.0 175.3 -58.0 175.15 -58.15 175.0 -58.3 175.0 -58.5 L175.15 -58.85 175.5 -59.0 175.85 -58.85 176.0 -58.5 M183.85 -58.85 L184.0 -58.5 183.85 -58.15 Q183.7 -58.0 183.5 -58.0 183.3 -58.0 183.15 -58.15 183.0 -58.3 183.0 -58.5 L183.15 -58.85 183.5 -59.0 183.85 -58.85 M187.15 -58.85 L187.5 -59.0 187.85 -58.85 188.0 -58.5 187.85 -58.15 Q187.7 -58.0 187.5 -58.0 187.3 -58.0 187.15 -58.15 187.0 -58.3 187.0 -58.5 L187.15 -58.85 M191.15 -58.85 L191.5 -59.0 191.85 -58.85 192.0 -58.5 191.85 -58.15 191.5 -58.0 191.15 -58.15 191.0 -58.5 191.15 -58.85 M159.85 -58.85 L160.0 -58.5 159.85 -58.15 Q159.7 -58.0 159.5 -58.0 159.3 -58.0 159.15 -58.15 159.0 -58.3 159.0 -58.5 L159.15 -58.85 159.5 -59.0 159.85 -58.85 M156.0 -58.5 L155.85 -58.15 155.5 -58.0 Q155.3 -58.0 155.15 -58.15 L155.0 -58.5 155.15 -58.85 155.5 -59.0 155.85 -58.85 156.0 -58.5 M163.85 -58.85 L164.0 -58.5 163.85 -58.15 Q163.7 -58.0 163.5 -58.0 163.3 -58.0 163.15 -58.15 163.0 -58.3 163.0 -58.5 L163.15 -58.85 163.5 -59.0 163.85 -58.85 M167.15 -58.85 L167.5 -59.0 167.85 -58.85 168.0 -58.5 167.85 -58.15 167.5 -58.0 Q167.3 -58.0 167.15 -58.15 L167.0 -58.5 167.15 -58.85 M171.15 -58.85 L171.5 -59.0 171.85 -58.85 172.0 -58.5 171.85 -58.15 Q171.7 -58.0 171.5 -58.0 171.3 -58.0 171.15 -58.15 171.0 -58.3 171.0 -58.5 L171.15 -58.85 M139.85 -58.85 L140.0 -58.5 139.85 -58.15 139.5 -58.0 Q139.3 -58.0 139.15 -58.15 L139.0 -58.5 139.15 -58.85 139.5 -59.0 139.85 -58.85 M135.15 -58.85 L135.5 -59.0 135.85 -58.85 136.0 -58.5 135.85 -58.15 Q135.7 -58.0 135.5 -58.0 L135.15 -58.15 135.0 -58.5 135.15 -58.85 M143.85 -58.85 L144.0 -58.5 143.85 -58.15 143.5 -58.0 Q143.3 -58.0 143.15 -58.15 L143.0 -58.5 143.15 -58.85 143.5 -59.0 143.85 -58.85 M147.15 -58.85 L147.5 -59.0 147.85 -58.85 148.0 -58.5 147.85 -58.15 Q147.7 -58.0 147.5 -58.0 147.3 -58.0 147.15 -58.15 L147.0 -58.5 147.15 -58.85 M151.15 -58.85 Q151.3 -59.0 151.5 -59.0 L151.85 -58.85 152.0 -58.5 151.85 -58.15 151.5 -58.0 Q151.3 -58.0 151.15 -58.15 L151.0 -58.5 151.15 -58.85 M119.5 -59.0 L119.85 -58.85 120.0 -58.5 119.85 -58.15 119.5 -58.0 119.15 -58.15 119.0 -58.5 119.15 -58.85 119.5 -59.0 M115.15 -58.85 L115.5 -59.0 115.85 -58.85 116.0 -58.5 115.85 -58.15 115.5 -58.0 Q115.3 -58.0 115.15 -58.15 115.0 -58.3 115.0 -58.5 L115.15 -58.85 M123.15 -58.85 L123.5 -59.0 123.85 -58.85 124.0 -58.5 123.85 -58.15 123.5 -58.0 Q123.3 -58.0 123.15 -58.15 L123.0 -58.5 123.15 -58.85 M127.15 -58.85 L127.5 -59.0 127.85 -58.85 128.0 -58.5 127.85 -58.15 127.5 -58.0 Q127.3 -58.0 127.15 -58.15 127.0 -58.3 127.0 -58.5 L127.15 -58.85 M131.85 -58.85 L132.0 -58.5 131.85 -58.15 131.5 -58.0 131.15 -58.15 131.0 -58.5 131.15 -58.85 131.5 -59.0 131.85 -58.85 M99.5 -59.0 L99.85 -58.85 100.0 -58.5 99.85 -58.15 Q99.7 -58.0 99.5 -58.0 99.3 -58.0 99.15 -58.15 99.0 -58.3 99.0 -58.5 L99.15 -58.85 99.5 -59.0 M95.15 -58.85 L95.5 -59.0 95.85 -58.85 96.0 -58.5 95.85 -58.15 95.5 -58.0 Q95.3 -58.0 95.15 -58.15 L95.0 -58.5 95.15 -58.85 M103.15 -58.85 L103.5 -59.0 103.85 -58.85 104.0 -58.5 103.85 -58.15 Q103.7 -58.0 103.5 -58.0 103.3 -58.0 103.15 -58.15 103.0 -58.3 103.0 -58.5 L103.15 -58.85 M107.15 -58.85 L107.5 -59.0 107.85 -58.85 108.0 -58.5 107.85 -58.15 107.5 -58.0 107.15 -58.15 107.0 -58.5 107.15 -58.85 M111.15 -58.85 L111.5 -59.0 111.85 -58.85 112.0 -58.5 111.85 -58.15 111.5 -58.0 Q111.3 -58.0 111.15 -58.15 L111.0 -58.5 111.15 -58.85 M77.15 -76.85 L77.5 -77.0 77.85 -76.85 78.0 -76.5 77.85 -76.15 77.5 -76.0 77.15 -76.15 77.0 -76.5 77.15 -76.85 M77.15 -72.85 L77.5 -73.0 77.85 -72.85 78.0 -72.5 77.85 -72.15 77.5 -72.0 77.15 -72.15 77.0 -72.5 77.15 -72.85 M77.15 -68.85 L77.5 -69.0 77.85 -68.85 78.0 -68.5 77.85 -68.15 77.5 -68.0 77.15 -68.15 77.0 -68.5 77.15 -68.85 M77.15 -64.85 L77.5 -65.0 77.85 -64.85 78.0 -64.5 77.85 -64.15 77.5 -64.0 77.15 -64.15 77.0 -64.5 77.15 -64.85 M78.0 -60.5 L77.85 -60.15 77.5 -60.0 77.15 -60.15 77.0 -60.5 77.15 -60.85 77.5 -61.0 77.85 -60.85 78.0 -60.5 M79.15 -58.85 L79.5 -59.0 79.85 -58.85 80.0 -58.5 79.85 -58.15 Q79.7 -58.0 79.5 -58.0 79.3 -58.0 79.15 -58.15 79.0 -58.3 79.0 -58.5 L79.15 -58.85 M83.15 -58.85 L83.5 -59.0 83.85 -58.85 84.0 -58.5 83.85 -58.15 83.5 -58.0 Q83.3 -58.0 83.15 -58.15 L83.0 -58.5 83.15 -58.85 M87.15 -58.85 L87.5 -59.0 87.85 -58.85 88.0 -58.5 87.85 -58.15 Q87.7 -58.0 87.5 -58.0 87.3 -58.0 87.15 -58.15 87.0 -58.3 87.0 -58.5 L87.15 -58.85 M91.85 -58.85 L92.0 -58.5 91.85 -58.15 Q91.7 -58.0 91.5 -58.0 91.3 -58.0 91.15 -58.15 91.0 -58.3 91.0 -58.5 L91.15 -58.85 91.5 -59.0 91.85 -58.85" fill="#ffffff" fill-rule="evenodd" stroke="none"/>
    <path d="M-166.15 -1.85 L-166.0 -1.5 Q-166.0 -1.3 -166.15 -1.15 -166.3 -1.0 -166.5 -1.0 -166.7 -1.0 -166.85 -1.15 L-167.0 -1.5 -166.85 -1.85 -166.5 -2.0 -166.15 -1.85 M-162.85 -1.85 L-162.5 -2.0 -162.15 -1.85 -162.0 -1.5 Q-162.0 -1.3 -162.15 -1.15 -162.3 -1.0 -162.5 -1.0 -162.7 -1.0 -162.85 -1.15 L-163.0 -1.5 -162.85 -1.85 M-158.15 -1.85 L-158.0 -1.5 -158.15 -1.15 Q-158.3 -1.0 -158.5 -1.0 L-158.85 -1.15 -159.0 -1.5 -158.85 -1.85 -158.5 -2.0 -158.15 -1.85 M-154.85 -1.85 L-154.5 -2.0 -154.15 -1.85 -154.0 -1.5 Q-154.0 -1.3 -154.15 -1.15 -154.3 -1.0 -154.5 -1.0 -154.7 -1.0 -154.85 -1.15 L-155.0 -1.5 -154.85 -1.85 M-150.85 -1.85 L-150.5 -2.0 -150.15 -1.85 -150.0 -1.5 Q-150.0 -1.3 -150.15 -1.15 -150.3 -1.0 -150.5 -1.0 -150.7 -1.0 -150.85 -1.15 L-151.0 -1.5 -150.85 -1.85 M-146.85 -1.85 L-146.5 -2.0 -146.15 -1.85 -146.0 -1.5 -146.15 -1.15 Q-146.3 -1.0 -146.5 -1.0 L-146.85 -1.15 -147.0 -1.5 -146.85 -1.85 M-142.15 -1.85 L-142.0 -1.5 Q-142.0 -1.3 -142.15 -1.15 -142.3 -1.0 -142.5 -1.0 -142.7 -1.0 -142.85 -1.15 L-143.0 -1.5 -142.85 -1.85 -142.5 -2.0 -142.15 -1.85 M-138.15 -1.85 L-138.0 -1.5 Q-138.0 -1.3 -138.15 -1.15 -138.3 -1.0 -138.5 -1.0 -138.7 -1.0 -138.85 -1.15 L-139.0 -1.5 -138.85 -1.85 -138.5 -2.0 -138.15 -1.85 M-134.85 -1.85 L-134.5 -2.0 -134.15 -1.85 -134.0 -1.5 -134.15 -1.15 Q-134.3 -1.0 -134.5 -1.0 L-134.85 -1.15 -135.0 -1.5 -134.85 -1.85 M-130.85 -1.85 L-130.5 -2.0 Q-130.3 -2.0 -130.15 -1.85 L-130.0 -1.5 -130.15 -1.15 Q-130.3 -1.0 -130.5 -1.0 L-130.85 -1.15 -131.0 -1.5 -130.85 -1.85 M-126.85 -1.85 L-126.5 -2.0 -126.15 -1.85 -126.0 -1.5 -126.15 -1.15 Q-126.3 -1.0 -126.5 -1.0 -126.7 -1.0 -126.85 -1.15 L-127.0 -1.5 -126.85 -1.85 M-122.85 -1.85 L-122.5 -2.0 -122.15 -1.85 -122.0 -1.5 -122.15 -1.15 Q-122.3 -1.0 -122.5 -1.0 L-122.85 -1.15 -123.0 -1.5 -122.85 -1.85 M-118.15 -1.85 L-118.0 -1.5 -118.15 -1.15 Q-118.3 -1.0 -118.5 -1.0 L-118.85 -1.15 -119.0 -1.5 -118.85 -1.85 -118.5 -2.0 -118.15 -1.85 M-114.85 -1.85 L-114.5 -2.0 -114.15 -1.85 -114.0 -1.5 -114.15 -1.15 -114.5 -1.0 Q-114.7 -1.0 -114.85 -1.15 L-115.0 -1.5 -114.85 -1.85 M-110.15 -1.85 L-110.0 -1.5 -110.15 -1.15 -110.5 -1.0 -110.85 -1.15 -111.0 -1.5 -110.85 -1.85 -110.5 -2.0 -110.15 -1.85 M-106.85 -1.85 L-106.5 -2.0 -106.15 -1.85 -106.0 -1.5 Q-106.0 -1.3 -106.15 -1.15 -106.3 -1.0 -106.5 -1.0 L-106.85 -1.15 -107.0 -1.5 -106.85 -1.85 M-102.15 -1.85 L-102.0 -1.5 -102.15 -1.15 Q-102.3 -1.0 -102.5 -1.0 L-102.85 -1.15 -103.0 -1.5 -102.85 -1.85 -102.5 -2.0 -102.15 -1.85 M-98.15 -1.85 L-98.0 -1.5 -98.15 -1.15 -98.5 -1.0 -98.85 -1.15 -99.0 -1.5 -98.85 -1.85 -98.5 -2.0 -98.15 -1.85 M-94.85 -1.85 L-94.5 -2.0 -94.15 -1.85 -94.0 -1.5 Q-94.0 -1.3 -94.15 -1.15 -94.3 -1.0 -94.5 -1.0 L-94.85 -1.15 -95.0 -1.5 -94.85 -1.85 M-90.15 -1.85 L-90.0 -1.5 -90.15 -1.15 Q-90.3 -1.0 -90.5 -1.0 L-90.85 -1.15 -91.0 -1.5 -90.85 -1.85 -90.5 -2.0 -90.15 -1.85 M-86.85 -1.85 L-86.5 -2.0 -86.15 -1.85 -86.0 -1.5 -86.15 -1.15 -86.5 -1.0 -86.85 -1.15 -87.0 -1.5 -86.85 -1.85 M-82.15 -1.85 L-82.0 -1.5 Q-82.0 -1.3 -82.15 -1.15 -82.3 -1.0 -82.5 -1.0 -82.7 -1.0 -82.85 -1.15 L-83.0 -1.5 -82.85 -1.85 -82.5 -2.0 -82.15 -1.85 M-78.85 -1.85 L-78.5 -2.0 -78.15 -1.85 -78.0 -1.5 Q-78.0 -1.3 -78.15 -1.15 -78.3 -1.0 -78.5 -1.0 -78.7 -1.0 -78.85 -1.15 L-79.0 -1.5 -78.85 -1.85 M-74.85 -1.85 L-74.5 -2.0 -74.15 -1.85 -74.0 -1.5 -74.15 -1.15 Q-74.3 -1.0 -74.5 -1.0 L-74.85 -1.15 -75.0 -1.5 -74.85 -1.85 M-70.15 -1.85 L-70.0 -1.5 Q-70.0 -1.3 -70.15 -1.15 -70.3 -1.0 -70.5 -1.0 -70.7 -1.0 -70.85 -1.15 L-71.0 -1.5 -70.85 -1.85 -70.5 -2.0 -70.15 -1.85 M-66.85 -1.85 L-66.5 -2.0 -66.15 -1.85 -66.0 -1.5 Q-66.0 -1.3 -66.15 -1.15 -66.3 -1.0 -66.5 -1.0 -66.7 -1.0 -66.85 -1.15 L-67.0 -1.5 -66.85 -1.85 M-62.15 -1.85 L-62.0 -1.5 -62.15 -1.15 Q-62.3 -1.0 -62.5 -1.0 L-62.85 -1.15 -63.0 -1.5 -62.85 -1.85 -62.5 -2.0 -62.15 -1.85 M-58.85 -1.85 L-58.5 -2.0 -58.15 -1.85 -58.0 -1.5 Q-58.0 -1.3 -58.15 -1.15 -58.3 -1.0 -58.5 -1.0 -58.7 -1.0 -58.85 -1.15 L-59.0 -1.5 -58.85 -1.85 M-54.85 -1.85 L-54.5 -2.0 -54.15 -1.85 -54.0 -1.5 Q-54.0 -1.3 -54.15 -1.15 -54.3 -1.0 -54.5 -1.0 -54.7 -1.0 -54.85 -1.15 L-55.0 -1.5 -54.85 -1.85 M-50.15 -1.85 L-50.0 -1.5 -50.15 -1.15 Q-50.3 -1.0 -50.5 -1.0 L-50.85 -1.15 -51.0 -1.5 -50.85 -1.85 -50.5 -2.0 -50.15 -1.85 M-46.85 -1.85 L-46.5 -2.0 Q-46.3 -2.0 -46.15 -1.85 L-46.0 -1.5 -46.15 -1.15 Q-46.3 -1.0 -46.5 -1.0 L-46.85 -1.15 -47.0 -1.5 -46.85 -1.85 M-42.85 -1.85 L-42.5 -2.0 -42.15 -1.85 -42.0 -1.5 -42.15 -1.15 Q-42.3 -1.0 -42.5 -1.0 -42.7 -1.0 -42.85 -1.15 L-43.0 -1.5 -42.85 -1.85 M-38.85 -1.85 L-38.5 -2.0 -38.15 -1.85 -38.0 -1.5 -38.15 -1.15 Q-38.3 -1.0 -38.5 -1.0 L-38.85 -1.15 -39.0 -1.5 -38.85 -1.85 M-34.85 -1.85 L-34.5 -2.0 -34.15 -1.85 -34.0 -1.5 -34.15 -1.15 Q-34.3 -1.0 -34.5 -1.0 L-34.85 -1.15 -35.0 -1.5 -34.85 -1.85 M-30.85 -1.85 L-30.5 -2.0 -30.15 -1.85 -30.0 -1.5 -30.15 -1.15 -30.5 -1.0 Q-30.7 -1.0 -30.85 -1.15 L-31.0 -1.5 -30.85 -1.85 M-30.0 2.5 L-30.15 2.85 -30.5 3.0 -30.85 2.85 -31.0 2.5 -30.85 2.15 Q-30.7 2.0 -30.5 2.0 L-30.15 2.15 -30.0 2.5 M-30.85 6.15 Q-30.7 6.0 -30.5 6.0 L-30.15 6.15 -30.0 6.5 -30.15 6.85 -30.5 7.0 -30.85 6.85 -31.0 6.5 -30.85 6.15 M-30.85 10.15 Q-30.7 10.0 -30.5 10.0 L-30.15 10.15 -30.0 10.5 -30.15 10.85 -30.5 11.0 -30.85 10.85 -31.0 10.5 -30.85 10.15 M-39.15 21.15 L-39.0 21.5 -39.15 21.85 -39.5 22.0 -39.85 21.85 -40.0 21.5 -39.85 21.15 -39.5 21.0 Q-39.3 21.0 -39.15 21.15 M-43.0 21.5 L-43.15 21.85 -43.5 22.0 -43.85 21.85 -44.0 21.5 -43.85 21.15 -43.5 21.0 Q-43.3 21.0 -43.15 21.15 -43.0 21.3 -43.0 21.5 M-35.15 21.15 L-35.0 21.5 -35.15 21.85 -35.5 22.0 -35.85 21.85 -36.0 21.5 -35.85 21.15 -35.5 21.0 -35.15 21.15 M-30.0 14.5 L-30.15 14.85 -30.5 15.0 -30.85 14.85 -31.0 14.5 -30.85 14.15 Q-30.7 14.0 -30.5 14.0 L-30.15 14.15 -30.0 14.5 M-30.85 18.15 Q-30.7 18.0 -30.5 18.0 L-30.15 18.15 -30.0 18.5 -30.15 18.85 -30.5 19.0 -30.85 18.85 -31.0 18.5 -30.85 18.15 M-31.85 21.15 L-31.5 21.0 Q-31.3 21.0 -31.15 21.15 -31.0 21.3 -31.0 21.5 L-31.15 21.85 -31.5 22.0 -31.85 21.85 -32.0 21.5 -31.85 21.15 M-59.15 21.15 L-59.0 21.5 -59.15 21.85 -59.5 22.0 -59.85 21.85 -60.0 21.5 -59.85 21.15 -59.5 21.0 Q-59.3 21.0 -59.15 21.15 M-63.0 21.5 L-63.15 21.85 -63.5 22.0 -63.85 21.85 -64.0 21.5 -63.85 21.15 Q-63.7 21.0 -63.5 21.0 -63.3 21.0 -63.15 21.15 L-63.0 21.5 M-55.15 21.15 L-55.0 21.5 -55.15 21.85 -55.5 22.0 -55.85 21.85 -56.0 21.5 -55.85 21.15 -55.5 21.0 Q-55.3 21.0 -55.15 21.15 M-51.85 21.15 Q-51.7 21.0 -51.5 21.0 L-51.15 21.15 -51.0 21.5 -51.15 21.85 -51.5 22.0 -51.85 21.85 -52.0 21.5 -51.85 21.15 M-47.85 21.15 L-47.5 21.0 -47.15 21.15 -47.0 21.5 -47.15 21.85 -47.5 22.0 -47.85 21.85 -48.0 21.5 -47.85 21.15 M-79.15 21.15 Q-79.0 21.3 -79.0 21.5 L-79.15 21.85 -79.5 22.0 -79.85 21.85 -80.0 21.5 -79.85 21.15 Q-79.7 21.0 -79.5 21.0 -79.3 21.0 -79.15 21.15 M-83.0 21.5 L-83.15 21.85 -83.5 22.0 -83.85 21.85 -84.0 21.5 -83.85 21.15 -83.5 21.0 Q-83.3 21.0 -83.15 21.15 L-83.0 21.5 M-75.15 21.15 Q-75.0 21.3 -75.0 21.5 L-75.15 21.85 -75.5 22.0 -75.85 21.85 -76.0 21.5 -75.85 21.15 Q-75.7 21.0 -75.5 21.0 -75.3 21.0 -75.15 21.15 M-71.85 21.15 L-71.5 21.0 Q-71.3 21.0 -71.15 21.15 L-71.0 21.5 -71.15 21.85 -71.5 22.0 -71.85 21.85 -72.0 21.5 -71.85 21.15 M-67.85 21.15 L-67.5 21.0 Q-67.3 21.0 -67.15 21.15 L-67.0 21.5 -67.15 21.85 Q-67.3 22.0 -67.5 22.0 L-67.85 21.85 -68.0 21.5 -67.85 21.15 M-99.15 21.15 Q-99.0 21.3 -99.0 21.5 L-99.15 21.85 -99.5 22.0 -99.85 21.85 -100.0 21.5 -99.85 21.15 Q-99.7 21.0 -99.5 21.0 -99.3 21.0 -99.15 21.15 M-103.85 21.15 Q-103.7 21.0 -103.5 21.0 -103.3 21.0 -103.15 21.15 -103.0 21.3 -103.0 21.5 L-103.15 21.85 -103.5 22.0 -103.85 21.85 -104.0 21.5 -103.85 21.15 M-95.15 21.15 L-95.0 21.5 -95.15 21.85 -95.5 22.0 -95.85 21.85 -96.0 21.5 -95.85 21.15 -95.5 21.0 Q-95.3 21.0 -95.15 21.15 M-91.85 21.15 Q-91.7 21.0 -91.5 21.0 -91.3 21.0 -91.15 21.15 -91.0 21.3 -91.0 21.5 L-91.15 21.85 -91.5 22.0 -91.85 21.85 -92.0 21.5 -91.85 21.15 M-87.85 21.15 Q-87.7 21.0 -87.5 21.0 -87.3 21.0 -87.15 21.15 -87.0 21.3 -87.0 21.5 L-87.15 21.85 -87.5 22.0 -87.85 21.85 -88.0 21.5 -87.85 21.15 M-119.5 21.0 L-119.15 21.15 -119.0 21.5 -119.15 21.85 -119.5 22.0 -119.85 21.85 -120.0 21.5 -119.85 21.15 -119.5 21.0 M-123.85 21.15 L-123.5 21.0 Q-123.3 21.0 -123.15 21.15 L-123.0 21.5 -123.15 21.85 -123.5 22.0 -123.85 21.85 -124.0 21.5 -123.85 21.15 M-115.85 21.15 L-115.5 21.0 Q-115.3 21.0 -115.15 21.15 -115.0 21.3 -115.0 21.5 L-115.15 21.85 -115.5 22.0 -115.85 21.85 -116.0 21.5 -115.85 21.15 M-111.85 21.15 L-111.5 21.0 Q-111.3 21.0 -111.15 21.15 L-111.0 21.5 -111.15 21.85 -111.5 22.0 -111.85 21.85 -112.0 21.5 -111.85 21.15 M-107.15 21.15 L-107.0 21.5 -107.15 21.85 -107.5 22.0 -107.85 21.85 -108.0 21.5 -107.85 21.15 -107.5 21.0 -107.15 21.15 M-139.5 21.0 Q-139.3 21.0 -139.15 21.15 L-139.0 21.5 -139.15 21.85 -139.5 22.0 -139.85 21.85 -140.0 21.5 -139.85 21.15 -139.5 21.0 M-143.85 21.15 L-143.5 21.0 Q-143.3 21.0 -143.15 21.15 L-143.0 21.5 -143.15 21.85 -143.5 22.0 -143.85 21.85 -144.0 21.5 -143.85 21.15 M-135.85 21.15 Q-135.7 21.0 -135.5 21.0 L-135.15 21.15 -135.0 21.5 -135.15 21.85 -135.5 22.0 -135.85 21.85 -136.0 21.5 -135.85 21.15 M-131.85 21.15 L-131.5 21.0 -131.15 21.15 -131.0 21.5 -131.15 21.85 -131.5 22.0 -131.85 21.85 -132.0 21.5 -131.85 21.15 M-127.85 21.15 L-127.5 21.0 Q-127.3 21.0 -127.15 21.15 -127.0 21.3 -127.0 21.5 L-127.15 21.85 -127.5 22.0 -127.85 21.85 -128.0 21.5 -127.85 21.15 M-160.0 21.5 L-159.85 21.15 Q-159.7 21.0 -159.5 21.0 -159.3 21.0 -159.15 21.15 -159.0 21.3 -159.0 21.5 L-159.15 21.85 -159.5 22.0 -159.85 21.85 -160.0 21.5 M-163.85 21.15 Q-163.7 21.0 -163.5 21.0 -163.3 21.0 -163.15 21.15 -163.0 21.3 -163.0 21.5 L-163.15 21.85 -163.5 22.0 -163.85 21.85 -164.0 21.5 -163.85 21.15 M-155.85 21.15 L-155.5 21.0 Q-155.3 21.0 -155.15 21.15 L-155.0 21.5 -155.15 21.85 -155.5 22.0 -155.85 21.85 -156.0 21.5 -155.85 21.15 M-151.85 21.15 L-151.5 21.0 Q-151.3 21.0 -151.15 21.15 L-151.0 21.5 -151.15 21.85 Q-151.3 22.0 -151.5 22.0 L-151.85 21.85 -152.0 21.5 -151.85 21.15 M-147.15 21.15 L-147.0 21.5 -147.15 21.85 -147.5 22.0 -147.85 21.85 -148.0 21.5 -147.85 21.15 Q-147.7 21.0 -147.5 21.0 -147.3 21.0 -147.15 21.15 M-167.0 1.5 L-167.15 1.85 -167.5 2.0 -167.85 1.85 -168.0 1.5 -167.85 1.15 -167.5 1.0 Q-167.3 1.0 -167.15 1.15 L-167.0 1.5 M-167.5 5.0 Q-167.3 5.0 -167.15 5.15 L-167.0 5.5 -167.15 5.85 -167.5 6.0 -167.85 5.85 -168.0 5.5 -167.85 5.15 -167.5 5.0 M-167.0 9.5 L-167.15 9.85 -167.5 10.0 -167.85 9.85 -168.0 9.5 -167.85 9.15 -167.5 9.0 Q-167.3 9.0 -167.15 9.15 L-167.0 9.5 M-167.5 13.0 Q-167.3 13.0 -167.15 13.15 L-167.0 13.5 -167.15 13.85 -167.5 14.0 -167.85 13.85 -168.0 13.5 -167.85 13.15 -167.5 13.0 M-167.5 17.0 Q-167.3 17.0 -167.15 17.15 L-167.0 17.5 -167.15 17.85 -167.5 18.0 -167.85 17.85 -168.0 17.5 -167.85 17.15 -167.5 17.0 M-167.85 21.15 L-167.5 21.0 Q-167.3 21.0 -167.15 21.15 L-167.0 21.5 -167.15 21.85 -167.5 22.0 -167.85 21.85 -168.0 21.5 -167.85 21.15" fill="#ffffff" fill-rule="evenodd" stroke="none"/>
  </g>
</svg>
