<?xml version="1.0" encoding="UTF-8" standalone="no"?>
<svg xmlns:ffdec="https://www.free-decompiler.com/flash" xmlns:xlink="http://www.w3.org/1999/xlink" ffdec:objectType="shape" height="97.2px" width="158.5px" xmlns="http://www.w3.org/2000/svg">
  <g transform="matrix(1.0, 0.0, 0.0, 1.0, 101.0, 38.9)">
    <path d="M32.95 -20.45 L41.15 -20.45 41.15 -4.1 57.5 -4.1 57.5 4.1 41.15 4.1 41.15 20.45 32.95 20.45 32.95 4.1 16.6 4.1 16.6 -4.1 32.95 -4.1 32.95 -20.45 M7.75 9.85 Q7.75 21.75 -0.55 30.05 -8.85 38.4 -20.75 38.4 L-22.05 38.4 -22.05 44.85 Q-22.05 50.4 -25.95 54.35 -29.9 58.3 -35.45 58.3 L-36.15 58.3 Q-41.65 58.3 -45.6 54.35 -49.55 50.4 -49.55 44.85 L-49.55 34.85 Q-52.9 37.3 -57.35 37.3 L-72.6 37.3 Q-84.4 37.3 -92.7 28.95 -101.0 20.6 -101.0 8.8 L-101.0 -10.4 Q-101.0 -22.25 -92.7 -30.5 -84.4 -38.75 -72.6 -38.8 L-55.0 -38.9 Q-50.4 -38.9 -47.2 -35.65 L-45.65 -33.8 -45.6 -33.85 Q-41.65 -37.8 -36.15 -37.8 L-35.45 -37.8 Q-32.4 -37.8 -29.55 -36.45 -25.25 -37.8 -20.75 -37.8 -8.95 -37.8 -0.6 -29.45 7.75 -21.15 7.75 -9.35 L7.75 9.85 M-96.2 -10.4 Q-96.2 -0.55 -89.3 6.4 -82.4 13.3 -72.5 13.3 L-57.35 13.3 Q-53.7 13.3 -51.2 10.8 -50.15 9.8 -49.55 8.55 L-49.55 -3.0 Q-50.15 -4.25 -51.25 -5.35 -53.8 -7.95 -57.35 -7.95 L-65.3 -7.85 Q-68.1 -7.85 -70.1 -9.85 -72.1 -11.85 -72.1 -14.65 -72.1 -17.5 -70.15 -19.45 -68.2 -21.45 -65.3 -21.45 L-54.9 -21.45 Q-52.35 -21.45 -50.5 -23.3 L-49.55 -24.55 Q-49.5 -26.85 -48.8 -28.9 -49.1 -30.8 -50.5 -32.25 -52.35 -34.15 -54.9 -34.15 L-72.5 -34.05 Q-82.5 -33.95 -89.35 -27.1 -96.2 -20.3 -96.2 -10.4 M-43.9 -27.8 L-43.9 -8.6 Q-43.9 -6.4 -44.75 -4.4 L-44.75 -3.95 Q-43.9 -1.65 -43.9 0.75 L-43.9 23.85 Q-43.9 26.0 -44.45 27.9 -43.95 30.05 -42.25 31.75 -39.65 34.35 -36.15 34.35 L-35.45 34.35 Q-31.9 34.35 -29.35 31.75 -26.8 29.25 -26.8 25.7 L-26.8 13.6 -20.75 14.4 Q-10.85 14.4 -4.0 7.45 2.95 0.55 2.95 -9.35 2.95 -19.25 -4.0 -26.1 -10.85 -32.95 -20.75 -32.95 -25.65 -32.95 -30.1 -31.05 -32.5 -32.95 -35.45 -32.95 L-36.15 -32.95 Q-39.65 -32.95 -42.25 -30.45 L-43.9 -28.15 -43.9 -27.8 M-22.7 -2.55 Q-22.7 -0.6 -24.6 -0.6 -26.45 -0.6 -26.45 -2.55 -26.45 -4.35 -24.6 -4.35 -22.7 -4.35 -22.7 -2.55 M-22.35 -18.9 Q-19.9 -21.35 -16.45 -21.35 -13.0 -21.35 -10.55 -18.9 -8.1 -16.45 -8.1 -13.0 -8.1 -9.55 -10.55 -7.1 -13.0 -4.65 -16.45 -4.65 -19.9 -4.65 -22.35 -7.1 -24.8 -9.55 -24.8 -13.0 -24.8 -16.45 -22.35 -18.9 M-14.45 -1.35 Q-13.15 -0.15 -13.15 1.7 -13.15 3.5 -14.45 4.75 -15.65 6.0 -17.5 6.0 -19.3 6.0 -20.55 4.75 -21.85 3.5 -21.85 1.7 -21.85 -0.15 -20.55 -1.35 -19.3 -2.65 -17.5 -2.65 -15.65 -2.65 -14.45 -1.35" fill="#ffffff" fill-rule="evenodd" stroke="none"/>
  </g>
</svg>
