<?xml version="1.0" encoding="UTF-8" standalone="no"?>
<svg xmlns:ffdec="https://www.free-decompiler.com/flash" xmlns:xlink="http://www.w3.org/1999/xlink" ffdec:objectType="shape" height="432.65px" width="529.8px" xmlns="http://www.w3.org/2000/svg">
  <g transform="matrix(1.0, 0.0, 0.0, 1.0, 264.9, 216.3)">
    <path d="M252.9 -216.3 Q264.9 -216.3 264.9 -204.3 L264.9 204.35 Q264.9 216.35 252.9 216.35 L-253.4 216.35 Q-264.9 216.1 -264.9 204.35 L-264.9 -204.3 Q-264.9 -216.05 -253.4 -216.3 L252.9 -216.3" fill="#ffffff" fill-opacity="0.09803922" fill-rule="evenodd" stroke="none"/>
    <path d="M174.45 -39.0 Q184.45 -39.0 184.45 -29.0 L184.45 -17.0 Q184.45 -7.0 174.45 -7.0 L-174.5 -7.0 Q-184.5 -7.0 -184.5 -17.0 L-184.5 -29.0 Q-184.5 -39.0 -174.5 -39.0 L174.45 -39.0" fill="#000000" fill-opacity="0.21960784" fill-rule="evenodd" stroke="none"/>
  </g>
</svg>
