<?xml version="1.0" encoding="UTF-8" standalone="no"?>
<svg xmlns:ffdec="https://www.free-decompiler.com/flash" xmlns:xlink="http://www.w3.org/1999/xlink" ffdec:objectType="shape" height="432.65px" width="529.8px" xmlns="http://www.w3.org/2000/svg">
  <g transform="matrix(1.0, 0.0, 0.0, 1.0, 264.9, 216.3)">
    <path d="M252.9 -216.3 Q264.9 -216.3 264.9 -204.3 L264.9 204.35 Q264.9 216.35 252.9 216.35 L-253.4 216.35 Q-264.9 216.1 -264.9 204.35 L-264.9 -204.3 Q-264.9 -216.05 -253.4 -216.3 L252.9 -216.3" fill="#ffffff" fill-opacity="0.09803922" fill-rule="evenodd" stroke="none"/>
    <path d="M177.0 -114.0 Q187.0 -114.0 187.0 -104.0 L187.0 58.0 Q187.0 68.0 177.0 68.0 L-175.95 68.0 Q-185.95 68.0 -185.95 58.0 L-185.95 -104.0 Q-185.95 -114.0 -175.95 -114.0 L177.0 -114.0" fill="#000000" fill-opacity="0.2" fill-rule="evenodd" stroke="none"/>
  </g>
</svg>
