<?xml version="1.0" encoding="UTF-8" standalone="no"?>
<svg xmlns:ffdec="https://www.free-decompiler.com/flash" xmlns:xlink="http://www.w3.org/1999/xlink" ffdec:objectType="shape" height="37.0px" width="110.95px" xmlns="http://www.w3.org/2000/svg">
  <g transform="matrix(1.0, 0.0, 0.0, 1.0, 55.5, 18.5)">
    <path d="M46.95 -18.0 Q54.95 -18.0 54.95 -10.0 L54.95 10.0 Q54.95 18.0 46.95 18.0 L-47.0 18.0 Q-55.0 18.0 -55.0 10.0 L-55.0 -10.0 Q-55.0 -18.0 -47.0 -18.0 L46.95 -18.0" fill="#ffffff" fill-opacity="0.3019608" fill-rule="evenodd" stroke="none"/>
    <path d="M46.95 -18.0 L-47.0 -18.0 Q-55.0 -18.0 -55.0 -10.0 L-55.0 10.0 Q-55.0 18.0 -47.0 18.0 L46.95 18.0 Q54.95 18.0 54.95 10.0 L54.95 -10.0 Q54.95 -18.0 46.95 -18.0 Z" fill="none" stroke="#ffffff" stroke-linecap="round" stroke-linejoin="round" stroke-width="1.0"/>
  </g>
</svg>
