<?xml version="1.0" encoding="UTF-8" standalone="no"?>
<svg xmlns:ffdec="https://www.free-decompiler.com/flash" xmlns:xlink="http://www.w3.org/1999/xlink" ffdec:objectType="shape" height="37.0px" width="160.95px" xmlns="http://www.w3.org/2000/svg">
  <g transform="matrix(1.0, 0.0, 0.0, 1.0, 80.5, 18.5)">
    <path d="M71.95 -18.0 Q79.95 -18.0 79.95 -10.0 L79.95 10.0 Q79.95 18.0 71.95 18.0 L-72.0 18.0 Q-80.0 18.0 -80.0 10.0 L-80.0 -10.0 Q-80.0 -18.0 -72.0 -18.0 L71.95 -18.0" fill="#ffffff" fill-opacity="0.3019608" fill-rule="evenodd" stroke="none"/>
    <path d="M71.95 -18.0 L-72.0 -18.0 Q-80.0 -18.0 -80.0 -10.0 L-80.0 10.0 Q-80.0 18.0 -72.0 18.0 L71.95 18.0 Q79.95 18.0 79.95 10.0 L79.95 -10.0 Q79.95 -18.0 71.95 -18.0 Z" fill="none" stroke="#ffffff" stroke-linecap="round" stroke-linejoin="round" stroke-width="1.0"/>
  </g>
</svg>
