<?xml version="1.0" encoding="UTF-8" standalone="no"?>
<svg xmlns:ffdec="https://www.free-decompiler.com/flash" xmlns:xlink="http://www.w3.org/1999/xlink" ffdec:objectType="shape" height="331.95px" width="369.95px" xmlns="http://www.w3.org/2000/svg">
  <g transform="matrix(1.0, 0.0, 0.0, 1.0, -38.0, -46.05)">
    <path d="M44.0 378.0 L44.0 377.85 Q38.0 376.95 38.0 370.0 L38.0 295.05 290.95 295.05 290.95 370.0 Q290.95 377.45 284.0 378.0 L44.0 378.0 M38.0 295.0 L38.0 286.0 Q38.0 279.05 44.0 278.15 L44.0 278.0 284.0 278.0 284.0 278.05 Q290.95 278.55 290.95 286.0 L290.95 295.0 38.0 295.0 M407.95 54.05 L407.95 112.05 Q407.95 120.05 399.95 120.05 L207.95 120.05 Q199.95 120.05 199.95 112.05 L199.95 54.05 Q199.95 46.05 207.95 46.05 L399.95 46.05 Q407.95 46.05 407.95 54.05 M386.95 185.0 Q394.95 185.0 394.95 193.0 L394.95 251.0 Q394.95 259.0 386.95 259.0 L184.95 259.0 Q176.95 259.0 176.95 251.0 L176.95 193.0 Q176.95 185.0 184.95 185.0 L386.95 185.0" fill="#000000" fill-rule="evenodd" stroke="none"/>
  </g>
</svg>
