<?xml version="1.0" encoding="UTF-8" standalone="no"?>
<svg xmlns:ffdec="https://www.free-decompiler.com/flash" xmlns:xlink="http://www.w3.org/1999/xlink" ffdec:objectType="shape" height="88.95px" width="284.0px" xmlns="http://www.w3.org/2000/svg">
  <g transform="matrix(1.0, 0.0, 0.0, 1.0, 142.0, 44.45)">
    <path d="M126.5 -41.95 Q139.5 -41.95 139.5 -28.95 L139.5 29.0 Q139.5 42.0 126.5 42.0 L-126.5 42.0 Q-139.5 42.0 -139.5 29.0 L-139.5 -28.95 Q-139.5 -41.95 -126.5 -41.95 L126.5 -41.95" fill="#fa6b6b" fill-opacity="0.8" fill-rule="evenodd" stroke="none"/>
    <path d="M126.5 -41.95 L-126.5 -41.95 Q-139.5 -41.95 -139.5 -28.95 L-139.5 29.0 Q-139.5 42.0 -126.5 42.0 L126.5 42.0 Q139.5 42.0 139.5 29.0 L139.5 -28.95 Q139.5 -41.95 126.5 -41.95 Z" fill="none" stroke="#ffffff" stroke-linecap="round" stroke-linejoin="round" stroke-width="5.0"/>
  </g>
</svg>
