<?xml version="1.0" encoding="UTF-8" standalone="no"?>
<svg xmlns:ffdec="https://www.free-decompiler.com/flash" xmlns:xlink="http://www.w3.org/1999/xlink" ffdec:objectType="shape" height="191.5px" width="480.5px" xmlns="http://www.w3.org/2000/svg">
  <g transform="matrix(1.0, 0.0, 0.0, 1.0, 240.25, 95.75)">
    <path d="M215.6 -93.25 Q237.75 -93.25 237.75 -64.35 L237.75 64.35 Q237.75 93.25 215.6 93.25 L-215.6 93.25 Q-237.75 93.25 -237.75 64.35 L-237.75 -64.35 Q-237.75 -93.25 -215.6 -93.25 L215.6 -93.25" fill="#000000" fill-opacity="0.9019608" fill-rule="evenodd" stroke="none"/>
    <path d="M215.6 -93.25 L-215.6 -93.25 Q-237.75 -93.25 -237.75 -64.35 L-237.75 64.35 Q-237.75 93.25 -215.6 93.25 L215.6 93.25 Q237.75 93.25 237.75 64.35 L237.75 -64.35 Q237.75 -93.25 215.6 -93.25 Z" fill="none" stroke="#ffffff" stroke-linecap="round" stroke-linejoin="round" stroke-width="5.0"/>
  </g>
</svg>
