<?xml version="1.0" encoding="UTF-8" standalone="no"?>
<svg xmlns:ffdec="https://www.free-decompiler.com/flash" xmlns:xlink="http://www.w3.org/1999/xlink" ffdec:objectType="shape" height="18.0px" width="33.0px" xmlns="http://www.w3.org/2000/svg">
  <g transform="matrix(1.0, 0.0, 0.0, 1.0, 16.5, 9.0)">
    <path d="M1.0 -1.0 L5.0 -1.0 5.0 1.0 1.0 1.0 1.0 5.0 -1.0 5.0 -1.0 1.0 -5.0 1.0 -5.0 -1.0 -1.0 -1.0 -1.0 -5.0 1.0 -5.0 1.0 -1.0" fill="#ffffff" fill-opacity="0.7411765" fill-rule="evenodd" stroke="none"/>
    <path d="M8.5 -9.0 Q11.8 -9.0 14.15 -6.65 16.5 -4.3 16.5 -1.0 L16.5 1.0 Q16.5 4.3 14.15 6.65 11.8 9.0 8.5 9.0 L-8.5 9.0 Q-11.8 9.0 -14.15 6.65 -16.5 4.3 -16.5 1.0 L-16.5 -1.0 Q-16.5 -4.3 -14.15 -6.65 -11.8 -9.0 -8.5 -9.0 L8.5 -9.0 M1.0 -1.0 L1.0 -5.0 -1.0 -5.0 -1.0 -1.0 -5.0 -1.0 -5.0 1.0 -1.0 1.0 -1.0 5.0 1.0 5.0 1.0 1.0 5.0 1.0 5.0 -1.0 1.0 -1.0" fill="#ffffff" fill-opacity="0.2" fill-rule="evenodd" stroke="none"/>
  </g>
</svg>
