<?xml version="1.0" encoding="UTF-8" standalone="no"?>
<svg xmlns:ffdec="https://www.free-decompiler.com/flash" xmlns:xlink="http://www.w3.org/1999/xlink" ffdec:objectType="shape" height="18.0px" width="33.0px" xmlns="http://www.w3.org/2000/svg">
  <g transform="matrix(1.0, 0.0, 0.0, 1.0, 16.5, 9.0)">
    <path d="M8.5 -9.0 Q11.8 -9.0 14.15 -6.65 16.5 -4.3 16.5 -1.0 L16.5 1.0 Q16.5 4.3 14.15 6.65 11.8 9.0 8.5 9.0 L-8.5 9.0 Q-11.8 9.0 -14.15 6.65 -16.5 4.3 -16.5 1.0 L-16.5 -1.0 Q-16.5 -4.3 -14.15 -6.65 -11.8 -9.0 -8.5 -9.0 L8.5 -9.0" fill="#ffffff" fill-opacity="0.2" fill-rule="evenodd" stroke="none"/>
    <path d="M2.2 -2.1 L2.2 -1.05 1.1 -1.05 1.1 1.1 2.2 1.1 2.2 2.2 3.25 2.2 3.25 3.25 2.2 3.25 2.2 2.2 1.1 2.2 1.1 1.1 -1.05 1.1 -1.05 2.2 -2.1 2.2 -2.1 3.25 -3.2 3.25 -3.2 2.2 -2.1 2.2 -2.1 1.1 -1.05 1.1 -1.05 -1.05 -2.1 -1.05 -2.1 -2.1 -3.2 -2.1 -3.2 -3.2 -2.1 -3.2 -2.1 -2.1 -1.05 -2.1 -1.05 -1.05 1.1 -1.05 1.1 -2.1 2.2 -2.1 2.2 -3.2 3.25 -3.2 3.25 -2.1 2.2 -2.1" fill="#ffffff" fill-opacity="0.7921569" fill-rule="evenodd" stroke="none"/>
  </g>
</svg>
