<?xml version="1.0" encoding="UTF-8" standalone="no"?>
<svg xmlns:ffdec="https://www.free-decompiler.com/flash" xmlns:xlink="http://www.w3.org/1999/xlink" ffdec:objectType="shape" height="5.6px" width="4.4px" xmlns="http://www.w3.org/2000/svg">
  <g transform="matrix(1.0, 0.0, 0.0, 1.0, 2.2, 2.8)">
    <path d="M1.55 -2.2 L2.2 -2.2 2.2 -0.3 1.55 -0.3 1.55 0.3 2.2 0.3 2.2 2.2 1.55 2.2 1.55 2.8 -1.55 2.8 -1.55 2.2 -2.2 2.2 -2.2 1.55 -1.55 1.55 -1.55 2.2 1.55 2.2 1.55 0.3 -0.95 0.3 -0.95 -0.3 1.55 -0.3 1.55 -2.2 -1.55 -2.2 -1.55 -1.55 -2.2 -1.55 -2.2 -2.2 -1.55 -2.2 -1.55 -2.8 1.55 -2.8 1.55 -2.2" fill="#ffffff" fill-rule="evenodd" stroke="none"/>
  </g>
</svg>
