<?xml version="1.0" encoding="UTF-8" standalone="no"?>
<svg xmlns:ffdec="https://www.free-decompiler.com/flash" xmlns:xlink="http://www.w3.org/1999/xlink" ffdec:objectType="shape" height="24.0px" width="122.45px" xmlns="http://www.w3.org/2000/svg">
  <g transform="matrix(1.0, 0.0, 0.0, 1.0, 58.25, 12.0)">
    <path d="M56.2 -12.0 Q64.2 -12.0 64.2 -4.0 L64.2 4.0 Q64.2 12.0 56.2 12.0 L-51.4 12.0 -51.4 11.95 Q-58.25 11.4 -58.25 4.0 L-58.25 -4.0 Q-58.25 -11.4 -51.4 -11.95 L-51.4 -12.0 56.2 -12.0 M-10.2 -6.1 L-10.2 4.9 56.75 4.9 56.75 -6.1 -10.2 -6.1 56.75 -6.1 56.75 4.9 -10.2 4.9 -10.2 -6.1" fill="#ffffff" fill-opacity="0.2" fill-rule="evenodd" stroke="none"/>
    <path d="M-10.2 -6.1 L56.75 -6.1 56.75 4.9 -10.2 4.9 -10.2 -6.1 Z" ffdec:has-small-stroke="true" ffdec:original-stroke-width="0.75" fill="none" stroke="#ffffff" stroke-linecap="round" stroke-linejoin="round" stroke-opacity="0.8" stroke-width="1.0"/>
  </g>
</svg>
