<?xml version="1.0" encoding="UTF-8" standalone="no"?>
<svg xmlns:ffdec="https://www.free-decompiler.com/flash" xmlns:xlink="http://www.w3.org/1999/xlink" ffdec:objectType="shape" height="850.5px" width="850.5px" xmlns="http://www.w3.org/2000/svg">
  <g transform="matrix(1.0, 0.0, 0.0, 1.0, 425.25, 425.25)">
    <path d="M299.65 -299.6 Q423.75 -175.5 423.75 0.0 423.75 175.5 299.65 299.65 175.5 423.75 0.0 423.75 L-12.05 423.6 Q-179.8 419.45 -299.6 299.65 -423.75 175.5 -423.75 0.0 -423.75 -175.5 -299.6 -299.6 -179.8 -419.45 -12.05 -423.6 L0.0 -423.75 Q175.5 -423.75 299.65 -299.6" fill="url(#gradient0)" fill-rule="evenodd" stroke="none"/>
    <path d="M299.65 -299.6 Q423.75 -175.5 423.75 0.0 423.75 175.5 299.65 299.65 175.5 423.75 0.0 423.75 L-12.05 423.6 Q-179.8 419.45 -299.6 299.65 -423.75 175.5 -423.75 0.0 -423.75 -175.5 -299.6 -299.6 -179.8 -419.45 -12.05 -423.6 L0.0 -423.75 Q175.5 -423.75 299.65 -299.6 Z" fill="none" stroke="#ffffff" stroke-linecap="round" stroke-linejoin="round" stroke-width="3.0"/>
  </g>
  <defs>
    <radialGradient cx="0" cy="0" gradientTransform="matrix(0.5217, 0.0, 0.0, 0.5217, 0.0, 0.0)" gradientUnits="userSpaceOnUse" id="gradient0" r="819.2" spreadMethod="pad">
      <stop offset="0.7294117647058823" stop-color="#fac0c1" stop-opacity="0.0"/>
      <stop offset="0.9490196078431372" stop-color="#fac0c1" stop-opacity="0.8745098"/>
      <stop offset="1.0" stop-color="#fac0c1"/>
    </radialGradient>
  </defs>
</svg>
