<?xml version="1.0" encoding="UTF-8" standalone="no"?>
<svg xmlns:ffdec="https://www.free-decompiler.com/flash" xmlns:xlink="http://www.w3.org/1999/xlink" ffdec:objectType="shape" height="1391.9px" width="1391.9px" xmlns="http://www.w3.org/2000/svg">
  <g transform="matrix(1.0, 0.0, 0.0, 1.0, 695.95, 695.95)">
    <path d="M-297.8 -297.8 Q-421.25 -174.45 -421.25 0.05 L-421.2 3.0 -695.95 3.0 -695.95 -695.95 695.95 -695.95 695.95 695.95 -695.95 695.95 -695.95 4.05 -428.8 4.0 -428.8 4.05 -421.2 4.05 Q-420.8 59.95 -407.55 110.6 -380.15 215.65 -297.8 297.95 -178.7 417.05 -11.95 421.2 L0.05 421.35 Q58.15 421.35 110.6 407.7 215.65 380.25 297.95 297.95 421.35 174.55 421.35 0.05 L421.35 -3.95 421.2 -11.9 Q417.1 -178.65 297.95 -297.8 215.65 -380.15 110.6 -407.55 58.15 -421.25 0.05 -421.25 L-11.95 -421.1 Q-178.7 -416.95 -297.8 -297.8" fill="#66cc00" fill-rule="evenodd" stroke="none"/>
  </g>
</svg>
