<?xml version="1.0" encoding="UTF-8" standalone="no"?>
<svg xmlns:ffdec="https://www.free-decompiler.com/flash" xmlns:xlink="http://www.w3.org/1999/xlink" ffdec:objectType="shape" height="23.4px" width="224.2px" xmlns="http://www.w3.org/2000/svg">
  <g transform="matrix(1.0, 0.0, 0.0, 1.0, 112.1, 11.7)">
    <path d="M37.2 -11.2 L111.6 -11.2 111.6 11.2 37.2 11.2 37.2 -11.2 37.2 11.2 -37.2 11.2 -111.6 11.2 -111.6 -11.2 -37.2 -11.2 37.2 -11.2 M-37.2 -11.2 L-37.2 11.2 -37.2 -11.2" fill="#ffffff" fill-opacity="0.19215687" fill-rule="evenodd" stroke="none"/>
    <path d="M37.2 11.2 L111.6 11.2 111.6 -11.2 37.2 -11.2 37.2 11.2 -37.2 11.2 -111.6 11.2 -111.6 -11.2 -37.2 -11.2 37.2 -11.2 M-37.2 11.2 L-37.2 -11.2" fill="none" stroke="#ffffff" stroke-linecap="round" stroke-linejoin="round" stroke-width="1.0"/>
  </g>
</svg>
