<?xml version="1.0" encoding="UTF-8" standalone="no"?>
<svg xmlns:ffdec="https://www.free-decompiler.com/flash" xmlns:xlink="http://www.w3.org/1999/xlink" ffdec:objectType="shape" height="28.75px" width="28.75px" xmlns="http://www.w3.org/2000/svg">
  <g transform="matrix(1.0, 0.0, 0.0, 1.0, -386.95, -31.0)">
    <path d="M414.7 32.0 L414.7 58.75 387.95 58.75 387.95 32.0 414.7 32.0 Z" fill="none" stroke="#ffffff" stroke-linecap="round" stroke-linejoin="round" stroke-width="2.0"/>
    <path d="M399.4 39.3 Q400.55 38.95 401.85 38.2 L401.95 38.15 402.05 38.2 Q403.35 38.95 404.55 39.3 L407.25 39.7 407.8 39.7 408.0 39.7 408.0 39.9 Q407.9 44.75 406.6 47.75 405.25 50.7 402.1 53.15 L401.95 53.25 401.8 53.15 Q398.65 50.7 397.35 47.75 396.0 44.75 395.9 39.9 L395.9 39.7 396.15 39.7 396.7 39.7 399.4 39.3" fill="#ffffff" fill-rule="evenodd" stroke="none"/>
  </g>
</svg>
