<?xml version="1.0" encoding="UTF-8" standalone="no"?>
<svg xmlns:ffdec="https://www.free-decompiler.com/flash" xmlns:xlink="http://www.w3.org/1999/xlink" ffdec:objectType="shape" height="203.0px" width="203.0px" xmlns="http://www.w3.org/2000/svg">
  <g transform="matrix(1.0, 0.0, 0.0, 1.0, 101.5, 101.5)">
    <path d="M70.7 -70.75 Q80.1 -61.35 86.45 -50.75 100.0 -28.2 100.0 0.0 100.0 41.4 70.7 70.65 41.4 100.0 0.0 100.0 -41.45 100.0 -70.75 70.65 -100.0 41.4 -100.0 0.0 -100.0 -41.45 -70.75 -70.75 -41.45 -100.0 0.0 -100.0 17.0 -100.0 32.0 -95.05 53.45 -87.95 70.7 -70.75" fill="#484848" fill-opacity="0.0" fill-rule="evenodd" stroke="none"/>
    <path d="M70.7 -70.75 Q80.1 -61.35 86.45 -50.75 100.0 -28.2 100.0 0.0 100.0 41.4 70.7 70.65 41.4 100.0 0.0 100.0 -41.45 100.0 -70.75 70.65 -100.0 41.4 -100.0 0.0 -100.0 -41.45 -70.75 -70.75 -41.45 -100.0 0.0 -100.0 17.0 -100.0 32.0 -95.05 53.45 -87.95 70.7 -70.75 Z" fill="none" stroke="#ffffff" stroke-linecap="round" stroke-linejoin="round" stroke-opacity="0.0" stroke-width="3.0"/>
  </g>
</svg>
