<?xml version="1.0" encoding="UTF-8" standalone="no"?>
<svg xmlns:ffdec="https://www.free-decompiler.com/flash" xmlns:xlink="http://www.w3.org/1999/xlink" ffdec:objectType="shape" height="30.4px" width="40.0px" xmlns="http://www.w3.org/2000/svg">
  <g transform="matrix(1.0, 0.0, 0.0, 1.0, 20.0, 15.2)">
    <path d="M14.15 -10.8 Q20.0 -6.3 20.0 0.05 20.0 6.3 14.15 10.75 8.25 15.2 0.0 15.2 -8.25 15.2 -14.15 10.75 -20.0 6.3 -20.0 0.05 -20.0 -6.3 -14.15 -10.8 -8.25 -15.2 0.0 -15.2 8.25 -15.2 14.15 -10.8" fill="#ffffff" fill-opacity="0.16862746" fill-rule="evenodd" stroke="none"/>
    <path d="M6.7 -6.5 L6.85 -6.3 Q7.4 -5.75 7.4 -4.85 L7.25 -3.95 7.9 -2.35 8.7 -1.9 Q9.25 -1.25 9.25 -0.4 L9.25 -0.2 Q9.25 0.6 8.7 1.25 L7.9 1.7 7.25 3.3 7.4 4.25 Q7.45 5.15 6.85 5.7 L6.7 5.85 Q6.1 6.45 5.25 6.45 L4.3 6.25 2.7 6.9 2.2 7.7 Q1.6 8.3 0.75 8.3 L0.55 8.3 Q-0.3 8.3 -0.9 7.7 L-1.4 6.9 -2.95 6.25 -3.9 6.45 Q-4.75 6.45 -5.35 5.85 L-5.5 5.7 Q-6.1 5.15 -6.1 4.25 L-5.9 3.35 -6.55 1.7 -7.35 1.2 Q-8.0 0.6 -8.0 -0.2 L-8.0 -0.4 Q-8.0 -1.25 -7.35 -1.9 L-6.55 -2.35 -5.9 -4.0 -6.1 -4.85 Q-6.1 -5.75 -5.5 -6.35 L-5.35 -6.5 Q-4.75 -7.1 -3.9 -7.1 L-3.0 -6.85 -1.4 -7.55 -0.9 -8.35 Q-0.3 -8.95 0.55 -8.95 L0.75 -8.95 Q1.6 -8.95 2.2 -8.35 L2.7 -7.55 4.3 -6.85 5.25 -7.1 Q6.1 -7.05 6.7 -6.5 M1.75 -1.45 Q2.2 -1.0 2.2 -0.3 L1.75 0.8 Q1.25 1.25 0.6 1.25 -0.05 1.25 -0.45 0.8 -0.95 0.35 -0.95 -0.3 -0.95 -1.0 -0.45 -1.45 -0.05 -1.9 0.6 -1.9 1.25 -1.9 1.75 -1.45 M4.3 -3.95 Q2.8 -5.5 0.65 -5.5 -1.5 -5.5 -3.0 -3.95 -4.55 -2.5 -4.55 -0.3 -4.55 1.85 -3.0 3.35 -1.5 4.85 0.65 4.85 2.8 4.85 4.3 3.35 5.85 1.85 5.85 -0.3 5.85 -2.5 4.3 -3.95" fill="#ffffff" fill-rule="evenodd" stroke="none"/>
  </g>
</svg>
