<?xml version="1.0" encoding="UTF-8" standalone="no"?>
<svg xmlns:ffdec="https://www.free-decompiler.com/flash" xmlns:xlink="http://www.w3.org/1999/xlink" ffdec:objectType="shape" height="30.4px" width="40.0px" xmlns="http://www.w3.org/2000/svg">
  <g transform="matrix(1.0, 0.0, 0.0, 1.0, 20.0, 15.2)">
    <path d="M14.15 -10.8 Q20.0 -6.3 20.0 0.05 20.0 6.3 14.15 10.75 8.25 15.2 0.0 15.2 -8.25 15.2 -14.15 10.75 -20.0 6.3 -20.0 0.05 -20.0 -6.3 -14.15 -10.8 -8.25 -15.2 0.0 -15.2 8.25 -15.2 14.15 -10.8" fill="#ffffff" fill-opacity="0.16862746" fill-rule="evenodd" stroke="none"/>
    <path d="M-8.05 0.0 L0.1 -7.1 0.1 7.1 -8.05 0.0" fill="#ffffff" fill-rule="evenodd" stroke="none"/>
    <path d="M-8.05 0.0 L0.1 7.1 0.1 -7.1 -8.05 0.0" fill="none" stroke="#ffffff" stroke-linecap="round" stroke-linejoin="round" stroke-width="1.0"/>
    <path d="M5.25 -6.5 L5.25 6.8" fill="none" stroke="#ffffff" stroke-linecap="square" stroke-linejoin="round" stroke-width="2.0"/>
  </g>
</svg>
