<?xml version="1.0" encoding="UTF-8" standalone="no"?>
<svg xmlns:ffdec="https://www.free-decompiler.com/flash" xmlns:xlink="http://www.w3.org/1999/xlink" ffdec:objectType="shape" height="30.4px" width="40.0px" xmlns="http://www.w3.org/2000/svg">
  <g transform="matrix(1.0, 0.0, 0.0, 1.0, 20.0, 15.2)">
    <path d="M14.15 -10.8 Q20.0 -6.3 20.0 0.05 20.0 6.3 14.15 10.75 8.25 15.2 0.0 15.2 -8.25 15.2 -14.15 10.75 -20.0 6.3 -20.0 0.05 -20.0 -6.3 -14.15 -10.8 -8.25 -15.2 0.0 -15.2 8.25 -15.2 14.15 -10.8" fill="#ffffff" fill-opacity="0.16862746" fill-rule="evenodd" stroke="none"/>
    <path d="M4.55 -6.1 L4.4 -5.3 -0.85 6.95 Q-1.35 8.2 -2.75 8.2 L-3.55 8.05 -3.7 8.0 Q-4.95 7.35 -4.95 6.1 L-4.8 5.25 0.45 -6.95 Q0.95 -8.25 2.35 -8.25 L3.15 -8.1 3.3 -8.0 Q4.55 -7.4 4.55 -6.1 M6.85 4.55 L5.6 5.85 5.1 7.55 3.45 6.8 1.7 6.85 1.9 5.05 1.35 3.35 3.1 3.05 4.5 1.95 5.35 3.5 6.85 4.55 M-2.75 -5.95 L-1.3 -4.95 -2.55 -3.65 -3.05 -1.95 -4.65 -2.7 -6.45 -2.65 -6.2 -4.45 -6.8 -6.1 -5.05 -6.45 -3.65 -7.55 -2.75 -5.95" fill="#ffffff" fill-rule="evenodd" stroke="none"/>
  </g>
</svg>
