<?xml version="1.0" encoding="UTF-8" standalone="no"?>
<svg xmlns:ffdec="https://www.free-decompiler.com/flash" xmlns:xlink="http://www.w3.org/1999/xlink" ffdec:objectType="shape" height="30.4px" width="40.0px" xmlns="http://www.w3.org/2000/svg">
  <g transform="matrix(1.0, 0.0, 0.0, 1.0, 20.0, 15.2)">
    <path d="M14.15 -10.8 Q20.0 -6.3 20.0 0.05 20.0 6.3 14.15 10.75 8.25 15.2 0.0 15.2 -8.25 15.2 -14.15 10.75 -20.0 6.3 -20.0 0.05 -20.0 -6.3 -14.15 -10.8 -8.25 -15.2 0.0 -15.2 8.25 -15.2 14.15 -10.8" fill="#ffffff" fill-opacity="0.16862746" fill-rule="evenodd" stroke="none"/>
    <path d="M9.4 -1.15 L9.4 -4.05 13.5 0.1 9.4 4.2 9.4 1.4 5.95 1.4 5.95 6.55 -6.5 6.55 -6.5 -5.9 5.95 -5.9 5.95 -1.15 9.4 -1.15 M4.7 -1.15 L4.7 -4.6 -5.15 -4.6 -5.15 5.2 4.7 5.2 4.7 1.4 -2.15 1.4 -2.15 -1.15 4.7 -1.15" fill="#ffffff" fill-rule="evenodd" stroke="none"/>
  </g>
</svg>
