<?xml version="1.0" encoding="UTF-8" standalone="no"?>
<svg xmlns:ffdec="https://www.free-decompiler.com/flash" xmlns:xlink="http://www.w3.org/1999/xlink" ffdec:objectType="shape" height="139.6px" width="259.0px" xmlns="http://www.w3.org/2000/svg">
  <g transform="matrix(1.0, 0.0, 0.0, 1.0, -205.4, -155.0)">
    <path d="M355.9 155.5 L349.9 155.5 M343.9 155.5 L337.9 155.5 M331.9 155.5 L325.9 155.5 M343.9 184.5 L337.9 184.5 M331.9 184.5 L325.9 184.5 M324.3 175.1 L330.3 175.1 M336.3 175.1 L342.3 175.1 M355.9 184.5 L349.9 184.5 M348.3 175.1 L354.3 175.1 M403.9 155.5 L397.9 155.5 M391.9 155.5 L385.9 155.5 M379.9 155.5 L373.9 155.5 M379.9 184.5 L373.9 184.5 M372.3 175.1 L378.3 175.1 M403.9 184.5 L397.9 184.5 M391.9 184.5 L385.9 184.5 M396.3 175.1 L402.3 175.1 M384.3 175.1 L390.3 175.1 M360.3 175.1 L366.3 175.1 M367.9 155.5 L361.9 155.5 M367.9 184.5 L361.9 184.5 M439.9 155.5 L433.9 155.5 M415.9 155.5 L409.9 155.5 M415.9 184.5 L409.9 184.5 M408.3 175.1 L414.3 175.1 M439.9 184.5 L433.9 184.5 M432.3 175.1 L438.3 175.1 M427.9 184.5 L421.9 184.5 M427.9 155.5 L421.9 155.5 M420.3 175.1 L426.3 175.1 M463.9 158.7 L463.9 155.5 457.9 155.5 M463.9 170.7 L463.9 164.7 M456.3 175.1 L462.3 175.1 M451.9 155.5 L445.9 155.5 M463.9 187.7 L463.9 184.5 457.9 184.5 M451.9 184.5 L445.9 184.5 M444.3 175.1 L450.3 175.1 M456.3 204.1 L462.3 204.1 M451.9 244.5 L445.9 244.5 M463.9 247.7 L463.9 244.5 457.9 244.5 M463.9 217.7 L463.9 214.5 457.9 214.5 M463.9 229.7 L463.9 223.7 M456.3 234.1 L462.3 234.1 M451.9 214.5 L445.9 214.5 M432.3 204.1 L438.3 204.1 M439.9 214.5 L433.9 214.5 M408.3 204.1 L414.3 204.1 M415.9 214.5 L409.9 214.5 M408.3 234.1 L414.3 234.1 M415.9 244.5 L409.9 244.5 M432.3 234.1 L438.3 234.1 M439.9 244.5 L433.9 244.5 M420.3 204.1 L426.3 204.1 M427.9 214.5 L421.9 214.5 M420.3 234.1 L426.3 234.1 M427.9 244.5 L421.9 244.5 M432.3 264.1 L438.3 264.1 M408.3 264.1 L414.3 264.1 M415.9 274.5 L409.9 274.5 M408.3 294.1 L414.3 294.1 M439.9 274.5 L433.9 274.5 M432.3 294.1 L438.3 294.1 M427.9 274.5 L421.9 274.5 M420.3 294.1 L426.3 294.1 M420.3 264.1 L426.3 264.1 M463.9 259.7 L463.9 253.7 M456.3 264.1 L462.3 264.1 M463.9 277.7 L463.9 274.5 457.9 274.5 M463.9 289.7 L463.9 283.7 M456.3 294.1 L462.3 294.1 M451.9 274.5 L445.9 274.5 M444.3 204.1 L450.3 204.1 M444.3 264.1 L450.3 264.1 M444.3 294.1 L450.3 294.1 M444.3 234.1 L450.3 234.1 M396.3 204.1 L402.3 204.1 M403.9 214.5 L397.9 214.5 M391.9 214.5 L385.9 214.5 M372.3 204.1 L378.3 204.1 M379.9 214.5 L373.9 214.5 M372.3 234.1 L378.3 234.1 M379.9 244.5 L373.9 244.5 M396.3 234.1 L402.3 234.1 M403.9 244.5 L397.9 244.5 M391.9 244.5 L385.9 244.5 M384.3 204.1 L390.3 204.1 M384.3 234.1 L390.3 234.1 M348.3 204.1 L354.3 204.1 M355.9 214.5 L349.9 214.5 M336.3 204.1 L342.3 204.1 M324.3 204.1 L330.3 204.1 M343.9 214.5 L337.9 214.5 M331.9 214.5 L325.9 214.5 M324.3 234.1 L330.3 234.1 M336.3 234.1 L342.3 234.1 M343.9 244.5 L337.9 244.5 M331.9 244.5 L325.9 244.5 M348.3 234.1 L354.3 234.1 M355.9 244.5 L349.9 244.5 M348.3 264.1 L354.3 264.1 M324.3 264.1 L330.3 264.1 M336.3 264.1 L342.3 264.1 M343.9 274.5 L337.9 274.5 M331.9 274.5 L325.9 274.5 M324.3 294.1 L330.3 294.1 M336.3 294.1 L342.3 294.1 M355.9 274.5 L349.9 274.5 M348.3 294.1 L354.3 294.1 M396.3 264.1 L402.3 264.1 M372.3 264.1 L378.3 264.1 M379.9 274.5 L373.9 274.5 M372.3 294.1 L378.3 294.1 M403.9 274.5 L397.9 274.5 M391.9 274.5 L385.9 274.5 M396.3 294.1 L402.3 294.1 M384.3 294.1 L390.3 294.1 M384.3 264.1 L390.3 264.1 M360.3 204.1 L366.3 204.1 M360.3 264.1 L366.3 264.1 M367.9 244.5 L361.9 244.5 M360.3 294.1 L366.3 294.1 M367.9 274.5 L361.9 274.5 M360.3 234.1 L366.3 234.1 M367.9 214.5 L361.9 214.5 M463.9 199.7 L463.9 193.7 M235.9 155.5 L229.9 155.5 M211.9 155.5 L205.9 155.5 M205.9 161.5 L205.9 167.5 M216.3 175.1 L222.3 175.1 M205.9 173.5 L205.9 175.1 210.3 175.1 M211.9 184.5 L205.9 184.5 M205.9 190.5 L205.9 196.5 M228.3 175.1 L234.3 175.1 M235.9 184.5 L229.9 184.5 M223.9 184.5 L217.9 184.5 M223.9 155.5 L217.9 155.5 M276.3 175.1 L282.3 175.1 M264.3 175.1 L270.3 175.1 M252.3 175.1 L258.3 175.1 M259.9 155.5 L253.9 155.5 M271.9 155.5 L265.9 155.5 M259.9 184.5 L253.9 184.5 M271.9 184.5 L265.9 184.5 M319.9 155.5 L313.9 155.5 M295.9 155.5 L289.9 155.5 M295.9 184.5 L289.9 184.5 M288.3 175.1 L294.3 175.1 M319.9 184.5 L313.9 184.5 M312.3 175.1 L318.3 175.1 M307.9 184.5 L301.9 184.5 M307.9 155.5 L301.9 155.5 M300.3 175.1 L306.3 175.1 M283.9 155.5 L277.9 155.5 M283.9 184.5 L277.9 184.5 M240.3 175.1 L246.3 175.1 M247.9 155.5 L241.9 155.5 M247.9 184.5 L241.9 184.5 M312.3 204.1 L318.3 204.1 M319.9 214.5 L313.9 214.5 M288.3 204.1 L294.3 204.1 M295.9 214.5 L289.9 214.5 M288.3 234.1 L294.3 234.1 M295.9 244.5 L289.9 244.5 M312.3 234.1 L318.3 234.1 M319.9 244.5 L313.9 244.5 M300.3 204.1 L306.3 204.1 M307.9 214.5 L301.9 214.5 M300.3 234.1 L306.3 234.1 M307.9 244.5 L301.9 244.5 M276.3 204.1 L282.3 204.1 M271.9 214.5 L265.9 214.5 M264.3 204.1 L270.3 204.1 M259.9 214.5 L253.9 214.5 M252.3 204.1 L258.3 204.1 M252.3 234.1 L258.3 234.1 M259.9 244.5 L253.9 244.5 M264.3 234.1 L270.3 234.1 M276.3 234.1 L282.3 234.1 M271.9 244.5 L265.9 244.5 M276.3 264.1 L282.3 264.1 M264.3 264.1 L270.3 264.1 M252.3 264.1 L258.3 264.1 M276.3 294.1 L282.3 294.1 M264.3 294.1 L270.3 294.1 M252.3 294.1 L258.3 294.1 M259.9 274.5 L253.9 274.5 M271.9 274.5 L265.9 274.5 M312.3 264.1 L318.3 264.1 M288.3 264.1 L294.3 264.1 M295.9 274.5 L289.9 274.5 M288.3 294.1 L294.3 294.1 M319.9 274.5 L313.9 274.5 M312.3 294.1 L318.3 294.1 M307.9 274.5 L301.9 274.5 M300.3 294.1 L306.3 294.1 M300.3 264.1 L306.3 264.1 M283.9 244.5 L277.9 244.5 M283.9 274.5 L277.9 274.5 M283.9 214.5 L277.9 214.5 M228.3 204.1 L234.3 204.1 M235.9 214.5 L229.9 214.5 M216.3 204.1 L222.3 204.1 M205.9 202.5 L205.9 204.1 210.3 204.1 M211.9 214.5 L205.9 214.5 M211.9 244.5 L205.9 244.5 M205.9 232.5 L205.9 234.1 210.3 234.1 M216.3 234.1 L222.3 234.1 M228.3 234.1 L234.3 234.1 M235.9 244.5 L229.9 244.5 M223.9 244.5 L217.9 244.5 M223.9 214.5 L217.9 214.5 M205.9 220.5 L205.9 226.5 M228.3 264.1 L234.3 264.1 M216.3 264.1 L222.3 264.1 M205.9 262.5 L205.9 264.1 210.3 264.1 M205.9 250.5 L205.9 256.5 M211.9 274.5 L205.9 274.5 M205.9 280.5 L205.9 286.5 M205.9 292.5 L205.9 294.1 210.3 294.1 M216.3 294.1 L222.3 294.1 M235.9 274.5 L229.9 274.5 M228.3 294.1 L234.3 294.1 M223.9 274.5 L217.9 274.5 M240.3 204.1 L246.3 204.1 M240.3 264.1 L246.3 264.1 M247.9 244.5 L241.9 244.5 M240.3 294.1 L246.3 294.1 M247.9 274.5 L241.9 274.5 M240.3 234.1 L246.3 234.1 M247.9 214.5 L241.9 214.5" fill="none" stroke="#ffffff" stroke-linecap="round" stroke-linejoin="round" stroke-opacity="0.41960785" stroke-width="1.0"/>
  </g>
</svg>
