<?xml version="1.0" encoding="UTF-8" standalone="no"?>
<svg xmlns:ffdec="https://www.free-decompiler.com/flash" xmlns:xlink="http://www.w3.org/1999/xlink" ffdec:objectType="shape" height="2.0px" width="17.0px" xmlns="http://www.w3.org/2000/svg">
  <g transform="matrix(1.0, 0.0, 0.0, 1.0, 1.0, 1.0)">
    <path d="M15.0 -1.0 L15.7 -0.7 16.0 0.0 15.7 0.7 15.0 1.0 Q14.6 1.0 14.3 0.7 L14.0 0.0 14.3 -0.7 Q14.6 -1.0 15.0 -1.0 M10.0 -1.0 L10.7 -0.7 11.0 0.0 10.7 0.7 10.0 1.0 Q9.6 1.0 9.3 0.7 9.0 0.4 9.0 0.0 9.0 -0.4 9.3 -0.7 9.6 -1.0 10.0 -1.0 M5.0 -1.0 L5.7 -0.7 6.0 0.0 5.7 0.7 5.0 1.0 Q4.6 1.0 4.3 0.7 4.0 0.4 4.0 0.0 4.0 -0.4 4.3 -0.7 4.6 -1.0 5.0 -1.0 M0.7 -0.7 L1.0 0.0 0.7 0.7 0.0 1.0 -0.7 0.7 -1.0 0.0 -0.7 -0.7 0.0 -1.0 0.7 -0.7" fill="#ffffff" fill-rule="evenodd" stroke="none"/>
  </g>
</svg>
