<?xml version="1.0" encoding="UTF-8" standalone="no"?>
<svg xmlns:ffdec="https://www.free-decompiler.com/flash" xmlns:xlink="http://www.w3.org/1999/xlink" ffdec:objectType="shape" height="2.0px" width="22.0px" xmlns="http://www.w3.org/2000/svg">
  <g transform="matrix(1.0, 0.0, 0.0, 1.0, 0.65, 1.0)">
    <path d="M16.05 -0.7 L16.35 0.0 16.05 0.7 15.35 1.0 Q14.95 1.0 14.65 0.7 14.35 0.4 14.35 0.0 14.35 -0.4 14.65 -0.7 14.95 -1.0 15.35 -1.0 L16.05 -0.7 M11.05 -0.7 L11.35 0.0 11.05 0.7 10.35 1.0 Q9.95 1.0 9.65 0.7 9.35 0.4 9.35 0.0 9.35 -0.4 9.65 -0.7 9.95 -1.0 10.35 -1.0 L11.05 -0.7 M6.05 -0.7 L6.35 0.0 6.05 0.7 5.35 1.0 Q4.95 1.0 4.65 0.7 4.35 0.4 4.35 0.0 4.35 -0.4 4.65 -0.7 4.95 -1.0 5.35 -1.0 L6.05 -0.7 M1.05 -0.7 L1.35 0.0 1.05 0.7 0.35 1.0 -0.35 0.7 -0.65 0.0 -0.35 -0.7 0.35 -1.0 1.05 -0.7 M21.05 -0.7 L21.35 0.0 21.05 0.7 Q20.75 1.0 20.35 1.0 L19.65 0.7 Q19.35 0.4 19.35 0.0 19.35 -0.4 19.65 -0.7 L20.35 -1.0 Q20.75 -1.0 21.05 -0.7" fill="#ffffff" fill-rule="evenodd" stroke="none"/>
  </g>
</svg>
