<?xml version="1.0" encoding="UTF-8" standalone="no"?>
<svg xmlns:ffdec="https://www.free-decompiler.com/flash" xmlns:xlink="http://www.w3.org/1999/xlink" ffdec:objectType="shape" height="2.0px" width="22.0px" xmlns="http://www.w3.org/2000/svg">
  <g transform="matrix(1.0, 0.0, 0.0, 1.0, -1.7, 1.0)">
    <path d="M2.7 -1.0 Q3.1 -1.0 3.4 -0.7 L3.7 0.0 3.4 0.7 Q3.1 1.0 2.7 1.0 L2.0 0.7 Q1.7 0.4 1.7 0.0 1.7 -0.4 2.0 -0.7 L2.7 -1.0 M18.4 -0.7 L18.7 0.0 18.4 0.7 17.7 1.0 Q17.3 1.0 17.0 0.7 16.7 0.4 16.7 0.0 16.7 -0.4 17.0 -0.7 17.3 -1.0 17.7 -1.0 L18.4 -0.7 M13.4 -0.7 L13.7 0.0 13.4 0.7 12.7 1.0 Q12.3 1.0 12.0 0.7 11.7 0.4 11.7 0.0 11.7 -0.4 12.0 -0.7 12.3 -1.0 12.7 -1.0 L13.4 -0.7 M8.4 -0.7 L8.7 0.0 8.4 0.7 7.7 1.0 Q7.3 1.0 7.0 0.7 6.7 0.4 6.7 0.0 6.7 -0.4 7.0 -0.7 7.3 -1.0 7.7 -1.0 L8.4 -0.7 M23.4 -0.7 L23.7 0.0 23.4 0.7 22.7 1.0 Q22.3 1.0 22.0 0.7 21.7 0.4 21.7 0.0 21.7 -0.4 22.0 -0.7 22.3 -1.0 22.7 -1.0 L23.4 -0.7" fill="#ffffff" fill-rule="evenodd" stroke="none"/>
  </g>
</svg>
