<?xml version="1.0" encoding="UTF-8" standalone="no"?>
<svg xmlns:ffdec="https://www.free-decompiler.com/flash" xmlns:xlink="http://www.w3.org/1999/xlink" ffdec:objectType="shape" height="2.0px" width="27.0px" xmlns="http://www.w3.org/2000/svg">
  <g transform="matrix(1.0, 0.0, 0.0, 1.0, 0.95, 1.0)">
    <path d="M0.75 -0.7 L1.05 0.0 0.75 0.7 0.05 1.0 -0.65 0.7 -0.95 0.0 -0.65 -0.7 0.05 -1.0 0.75 -0.7 M5.05 -1.0 L5.75 -0.7 6.05 0.0 5.75 0.7 5.05 1.0 4.35 0.7 Q4.05 0.4 4.05 0.0 4.05 -0.4 4.35 -0.7 L5.05 -1.0 M20.05 -1.0 L20.75 -0.7 21.05 0.0 20.75 0.7 20.05 1.0 Q19.65 1.0 19.35 0.7 19.05 0.4 19.05 0.0 19.05 -0.4 19.35 -0.7 19.65 -1.0 20.05 -1.0 M15.75 -0.7 L16.05 0.0 15.75 0.7 15.05 1.0 Q14.65 1.0 14.35 0.7 14.05 0.4 14.05 0.0 14.05 -0.4 14.35 -0.7 14.65 -1.0 15.05 -1.0 L15.75 -0.7 M10.75 -0.7 L11.05 0.0 10.75 0.7 Q10.45 1.0 10.05 1.0 L9.35 0.7 Q9.05 0.4 9.05 0.0 9.05 -0.4 9.35 -0.7 L10.05 -1.0 Q10.45 -1.0 10.75 -0.7 M25.75 -0.7 L26.05 0.0 25.75 0.7 25.05 1.0 Q24.65 1.0 24.35 0.7 24.05 0.4 24.05 0.0 24.05 -0.4 24.35 -0.7 24.65 -1.0 25.05 -1.0 L25.75 -0.7" fill="#ffffff" fill-rule="evenodd" stroke="none"/>
  </g>
</svg>
