<?xml version="1.0" encoding="UTF-8" standalone="no"?>
<svg xmlns:ffdec="https://www.free-decompiler.com/flash" xmlns:xlink="http://www.w3.org/1999/xlink" ffdec:objectType="shape" height="2.0px" width="27.0px" xmlns="http://www.w3.org/2000/svg">
  <g transform="matrix(1.0, 0.0, 0.0, 1.0, -1.4, 1.0)">
    <path d="M2.4 -1.0 L3.1 -0.7 3.4 0.0 3.1 0.7 2.4 1.0 Q2.0 1.0 1.7 0.7 L1.4 0.0 1.7 -0.7 Q2.0 -1.0 2.4 -1.0 M7.4 -1.0 L8.1 -0.7 8.4 0.0 8.1 0.7 7.4 1.0 6.7 0.7 Q6.4 0.4 6.4 0.0 6.4 -0.4 6.7 -0.7 L7.4 -1.0 M18.1 -0.7 L18.4 0.0 18.1 0.7 Q17.8 1.0 17.4 1.0 L16.7 0.7 Q16.4 0.4 16.4 0.0 16.4 -0.4 16.7 -0.7 L17.4 -1.0 Q17.8 -1.0 18.1 -0.7 M13.1 -0.7 L13.4 0.0 13.1 0.7 12.4 1.0 11.7 0.7 Q11.4 0.4 11.4 0.0 11.4 -0.4 11.7 -0.7 L12.4 -1.0 13.1 -0.7 M28.1 -0.7 L28.4 0.0 28.1 0.7 27.4 1.0 Q27.0 1.0 26.7 0.7 26.4 0.4 26.4 0.0 26.4 -0.4 26.7 -0.7 27.0 -1.0 27.4 -1.0 L28.1 -0.7 M23.1 -0.7 L23.4 0.0 23.1 0.7 22.4 1.0 Q22.0 1.0 21.7 0.7 21.4 0.4 21.4 0.0 21.4 -0.4 21.7 -0.7 22.0 -1.0 22.4 -1.0 L23.1 -0.7" fill="#ffffff" fill-rule="evenodd" stroke="none"/>
  </g>
</svg>
