<?xml version="1.0" encoding="UTF-8" standalone="no"?>
<svg xmlns:ffdec="https://www.free-decompiler.com/flash" xmlns:xlink="http://www.w3.org/1999/xlink" ffdec:objectType="shape" height="2.0px" width="27.0px" xmlns="http://www.w3.org/2000/svg">
  <g transform="matrix(1.0, 0.0, 0.0, 1.0, -3.75, 1.0)">
    <path d="M4.75 -1.0 L5.45 -0.7 5.75 0.0 5.45 0.7 4.75 1.0 Q4.35 1.0 4.05 0.7 3.75 0.4 3.75 0.0 3.75 -0.4 4.05 -0.7 4.35 -1.0 4.75 -1.0 M9.75 -1.0 L10.45 -0.7 10.75 0.0 10.45 0.7 9.75 1.0 Q9.35 1.0 9.05 0.7 L8.75 0.0 9.05 -0.7 Q9.35 -1.0 9.75 -1.0 M19.75 -1.0 L20.45 -0.7 20.75 0.0 20.45 0.7 19.75 1.0 19.05 0.7 Q18.75 0.4 18.75 0.0 18.75 -0.4 19.05 -0.7 L19.75 -1.0 M15.45 -0.7 L15.75 0.0 15.45 0.7 14.75 1.0 14.05 0.7 Q13.75 0.4 13.75 0.0 13.75 -0.4 14.05 -0.7 L14.75 -1.0 15.45 -0.7 M30.45 -0.7 L30.75 0.0 30.45 0.7 29.75 1.0 Q29.35 1.0 29.05 0.7 28.75 0.4 28.75 0.0 28.75 -0.4 29.05 -0.7 29.35 -1.0 29.75 -1.0 L30.45 -0.7 M25.45 -0.7 L25.75 0.0 25.45 0.7 Q25.15 1.0 24.75 1.0 L24.05 0.7 Q23.75 0.4 23.75 0.0 23.75 -0.4 24.05 -0.7 L24.75 -1.0 Q25.15 -1.0 25.45 -0.7" fill="#ffffff" fill-rule="evenodd" stroke="none"/>
  </g>
</svg>
