<?xml version="1.0" encoding="UTF-8" standalone="no"?>
<svg xmlns:ffdec="https://www.free-decompiler.com/flash" xmlns:xlink="http://www.w3.org/1999/xlink" ffdec:objectType="shape" height="2.0px" width="32.0px" xmlns="http://www.w3.org/2000/svg">
  <g transform="matrix(1.0, 0.0, 0.0, 1.0, -1.1, 1.0)">
    <path d="M2.1 -1.0 L2.8 -0.7 3.1 0.0 2.8 0.7 2.1 1.0 1.4 0.7 Q1.1 0.4 1.1 0.0 1.1 -0.4 1.4 -0.7 L2.1 -1.0 M7.1 -1.0 L7.8 -0.7 8.1 0.0 7.8 0.7 7.1 1.0 Q6.7 1.0 6.4 0.7 6.1 0.4 6.1 0.0 6.1 -0.4 6.4 -0.7 6.7 -1.0 7.1 -1.0 M12.1 -1.0 L12.8 -0.7 13.1 0.0 12.8 0.7 12.1 1.0 Q11.7 1.0 11.4 0.7 11.1 0.4 11.1 0.0 11.1 -0.4 11.4 -0.7 11.7 -1.0 12.1 -1.0 M17.8 -0.7 L18.1 0.0 17.8 0.7 17.1 1.0 Q16.7 1.0 16.4 0.7 L16.1 0.0 16.4 -0.7 Q16.7 -1.0 17.1 -1.0 L17.8 -0.7 M32.8 -0.7 L33.1 0.0 32.8 0.7 Q32.5 1.0 32.1 1.0 L31.4 0.7 Q31.1 0.4 31.1 0.0 31.1 -0.4 31.4 -0.7 L32.1 -1.0 Q32.5 -1.0 32.8 -0.7 M27.8 -0.7 L28.1 0.0 27.8 0.7 27.1 1.0 26.4 0.7 Q26.1 0.4 26.1 0.0 26.1 -0.4 26.4 -0.7 L27.1 -1.0 27.8 -0.7 M22.8 -0.7 L23.1 0.0 22.8 0.7 22.1 1.0 21.4 0.7 Q21.1 0.4 21.1 0.0 21.1 -0.4 21.4 -0.7 L22.1 -1.0 22.8 -0.7" fill="#ffffff" fill-rule="evenodd" stroke="none"/>
  </g>
</svg>
