<?xml version="1.0" encoding="UTF-8" standalone="no"?>
<svg xmlns:ffdec="https://www.free-decompiler.com/flash" xmlns:xlink="http://www.w3.org/1999/xlink" ffdec:objectType="shape" height="2.0px" width="37.0px" xmlns="http://www.w3.org/2000/svg">
  <g transform="matrix(1.0, 0.0, 0.0, 1.0, -0.85, 1.0)">
    <path d="M1.85 -1.0 L2.55 -0.7 2.85 0.0 2.55 0.7 1.85 1.0 Q1.45 1.0 1.15 0.7 0.85 0.4 0.85 0.0 0.85 -0.4 1.15 -0.7 1.45 -1.0 1.85 -1.0 M6.85 -1.0 L7.55 -0.7 7.85 0.0 7.55 0.7 6.85 1.0 Q6.45 1.0 6.15 0.7 5.85 0.4 5.85 0.0 5.85 -0.4 6.15 -0.7 6.45 -1.0 6.85 -1.0 M11.85 -1.0 L12.55 -0.7 12.85 0.0 12.55 0.7 11.85 1.0 Q11.45 1.0 11.15 0.7 L10.85 0.0 11.15 -0.7 Q11.45 -1.0 11.85 -1.0 M16.85 -1.0 L17.55 -0.7 17.85 0.0 17.55 0.7 16.85 1.0 16.15 0.7 Q15.85 0.4 15.85 0.0 15.85 -0.4 16.15 -0.7 L16.85 -1.0 M37.55 -0.7 L37.85 0.0 37.55 0.7 36.85 1.0 Q36.45 1.0 36.15 0.7 35.85 0.4 35.85 0.0 35.85 -0.4 36.15 -0.7 36.45 -1.0 36.85 -1.0 L37.55 -0.7 M32.55 -0.7 L32.85 0.0 32.55 0.7 31.85 1.0 Q31.45 1.0 31.15 0.7 30.85 0.4 30.85 0.0 30.85 -0.4 31.15 -0.7 31.45 -1.0 31.85 -1.0 L32.55 -0.7 M27.55 -0.7 L27.85 0.0 27.55 0.7 Q27.25 1.0 26.85 1.0 L26.15 0.7 Q25.85 0.4 25.85 0.0 25.85 -0.4 26.15 -0.7 L26.85 -1.0 Q27.25 -1.0 27.55 -0.7 M22.55 -0.7 L22.85 0.0 22.55 0.7 21.85 1.0 21.15 0.7 Q20.85 0.4 20.85 0.0 20.85 -0.4 21.15 -0.7 L21.85 -1.0 22.55 -0.7" fill="#ffffff" fill-rule="evenodd" stroke="none"/>
  </g>
</svg>
