<?xml version="1.0" encoding="UTF-8" standalone="no"?>
<svg xmlns:ffdec="https://www.free-decompiler.com/flash" xmlns:xlink="http://www.w3.org/1999/xlink" ffdec:objectType="shape" height="2.0px" width="37.0px" xmlns="http://www.w3.org/2000/svg">
  <g transform="matrix(1.0, 0.0, 0.0, 1.0, -3.2, 1.0)">
    <path d="M4.2 -1.0 L4.9 -0.7 5.2 0.0 4.9 0.7 4.2 1.0 3.5 0.7 Q3.2 0.4 3.2 0.0 3.2 -0.4 3.5 -0.7 L4.2 -1.0 M9.2 -1.0 L9.9 -0.7 10.2 0.0 9.9 0.7 9.2 1.0 Q8.8 1.0 8.5 0.7 8.2 0.4 8.2 0.0 8.2 -0.4 8.5 -0.7 8.8 -1.0 9.2 -1.0 M14.2 -1.0 L14.9 -0.7 15.2 0.0 14.9 0.7 14.2 1.0 Q13.8 1.0 13.5 0.7 13.2 0.4 13.2 0.0 13.2 -0.4 13.5 -0.7 13.8 -1.0 14.2 -1.0 M19.2 -1.0 L19.9 -0.7 20.2 0.0 19.9 0.7 19.2 1.0 Q18.8 1.0 18.5 0.7 L18.2 0.0 18.5 -0.7 Q18.8 -1.0 19.2 -1.0 M39.9 -0.7 L40.2 0.0 39.9 0.7 39.2 1.0 Q38.8 1.0 38.5 0.7 38.2 0.4 38.2 0.0 38.2 -0.4 38.5 -0.7 38.8 -1.0 39.2 -1.0 L39.9 -0.7 M34.9 -0.7 L35.2 0.0 34.9 0.7 Q34.6 1.0 34.2 1.0 L33.5 0.7 Q33.2 0.4 33.2 0.0 33.2 -0.4 33.5 -0.7 L34.2 -1.0 Q34.6 -1.0 34.9 -0.7 M29.9 -0.7 L30.2 0.0 29.9 0.7 29.2 1.0 28.5 0.7 Q28.2 0.4 28.2 0.0 28.2 -0.4 28.5 -0.7 L29.2 -1.0 29.9 -0.7 M24.9 -0.7 L25.2 0.0 24.9 0.7 24.2 1.0 23.5 0.7 Q23.2 0.4 23.2 0.0 23.2 -0.4 23.5 -0.7 L24.2 -1.0 24.9 -0.7" fill="#ffffff" fill-rule="evenodd" stroke="none"/>
  </g>
</svg>
