<?xml version="1.0" encoding="UTF-8" standalone="no"?>
<svg xmlns:ffdec="https://www.free-decompiler.com/flash" xmlns:xlink="http://www.w3.org/1999/xlink" ffdec:objectType="shape" height="2.0px" width="42.0px" xmlns="http://www.w3.org/2000/svg">
  <g transform="matrix(1.0, 0.0, 0.0, 1.0, -0.55, 1.0)">
    <path d="M1.55 -1.0 L2.25 -0.7 2.55 0.0 2.25 0.7 1.55 1.0 Q1.15 1.0 0.85 0.7 0.55 0.4 0.55 0.0 0.55 -0.4 0.85 -0.7 1.15 -1.0 1.55 -1.0 M6.55 -1.0 L7.25 -0.7 7.55 0.0 7.25 0.7 6.55 1.0 5.85 0.7 Q5.55 0.4 5.55 0.0 5.55 -0.4 5.85 -0.7 L6.55 -1.0 M11.55 -1.0 L12.25 -0.7 12.55 0.0 12.25 0.7 11.55 1.0 10.85 0.7 Q10.55 0.4 10.55 0.0 10.55 -0.4 10.85 -0.7 L11.55 -1.0 M16.55 -1.0 L17.25 -0.7 17.55 0.0 17.25 0.7 16.55 1.0 Q16.15 1.0 15.85 0.7 15.55 0.4 15.55 0.0 15.55 -0.4 15.85 -0.7 16.15 -1.0 16.55 -1.0 M37.25 -0.7 L37.55 0.0 37.25 0.7 36.55 1.0 35.85 0.7 Q35.55 0.4 35.55 0.0 35.55 -0.4 35.85 -0.7 L36.55 -1.0 37.25 -0.7 M32.25 -0.7 L32.55 0.0 32.25 0.7 31.55 1.0 30.85 0.7 Q30.55 0.4 30.55 0.0 30.55 -0.4 30.85 -0.7 L31.55 -1.0 32.25 -0.7 M27.25 -0.7 L27.55 0.0 27.25 0.7 26.55 1.0 Q26.15 1.0 25.85 0.7 L25.55 0.0 25.85 -0.7 Q26.15 -1.0 26.55 -1.0 L27.25 -0.7 M22.25 -0.7 L22.55 0.0 22.25 0.7 21.55 1.0 Q21.15 1.0 20.85 0.7 20.55 0.4 20.55 0.0 20.55 -0.4 20.85 -0.7 21.15 -1.0 21.55 -1.0 L22.25 -0.7 M41.55 -1.0 Q41.95 -1.0 42.25 -0.7 L42.55 0.0 42.25 0.7 Q41.95 1.0 41.55 1.0 L40.85 0.7 Q40.55 0.4 40.55 0.0 40.55 -0.4 40.85 -0.7 L41.55 -1.0" fill="#ffffff" fill-rule="evenodd" stroke="none"/>
  </g>
</svg>
