<?xml version="1.0" encoding="UTF-8" standalone="no"?>
<svg xmlns:ffdec="https://www.free-decompiler.com/flash" xmlns:xlink="http://www.w3.org/1999/xlink" ffdec:objectType="shape" height="2.0px" width="42.0px" xmlns="http://www.w3.org/2000/svg">
  <g transform="matrix(1.0, 0.0, 0.0, 1.0, -2.9, 1.0)">
    <path d="M3.9 -1.0 Q4.3 -1.0 4.6 -0.7 L4.9 0.0 4.6 0.7 Q4.3 1.0 3.9 1.0 L3.2 0.7 2.9 0.0 3.2 -0.7 3.9 -1.0 M8.9 -1.0 L9.6 -0.7 9.9 0.0 9.6 0.7 8.9 1.0 Q8.5 1.0 8.2 0.7 7.9 0.4 7.9 0.0 7.9 -0.4 8.2 -0.7 8.5 -1.0 8.9 -1.0 M13.9 -1.0 L14.6 -0.7 14.9 0.0 14.6 0.7 13.9 1.0 13.2 0.7 Q12.9 0.4 12.9 0.0 12.9 -0.4 13.2 -0.7 L13.9 -1.0 M18.9 -1.0 L19.6 -0.7 19.9 0.0 19.6 0.7 18.9 1.0 18.2 0.7 Q17.9 0.4 17.9 0.0 17.9 -0.4 18.2 -0.7 L18.9 -1.0 M39.6 -0.7 L39.9 0.0 39.6 0.7 38.9 1.0 38.2 0.7 Q37.9 0.4 37.9 0.0 37.9 -0.4 38.2 -0.7 L38.9 -1.0 39.6 -0.7 M34.6 -0.7 L34.9 0.0 34.6 0.7 33.9 1.0 Q33.5 1.0 33.2 0.7 L32.9 0.0 33.2 -0.7 Q33.5 -1.0 33.9 -1.0 L34.6 -0.7 M29.6 -0.7 L29.9 0.0 29.6 0.7 28.9 1.0 Q28.5 1.0 28.2 0.7 27.9 0.4 27.9 0.0 27.9 -0.4 28.2 -0.7 28.5 -1.0 28.9 -1.0 L29.6 -0.7 M24.6 -0.7 L24.9 0.0 24.6 0.7 23.9 1.0 Q23.5 1.0 23.2 0.7 22.9 0.4 22.9 0.0 22.9 -0.4 23.2 -0.7 23.5 -1.0 23.9 -1.0 L24.6 -0.7 M43.9 -1.0 L44.6 -0.7 44.9 0.0 44.6 0.7 43.9 1.0 43.2 0.7 Q42.9 0.4 42.9 0.0 42.9 -0.4 43.2 -0.7 L43.9 -1.0" fill="#ffffff" fill-rule="evenodd" stroke="none"/>
  </g>
</svg>
