<?xml version="1.0" encoding="UTF-8" standalone="no"?>
<svg xmlns:ffdec="https://www.free-decompiler.com/flash" xmlns:xlink="http://www.w3.org/1999/xlink" ffdec:objectType="shape" height="2.0px" width="47.0px" xmlns="http://www.w3.org/2000/svg">
  <g transform="matrix(1.0, 0.0, 0.0, 1.0, -0.25, 1.0)">
    <path d="M1.25 -1.0 L1.95 -0.7 2.25 0.0 1.95 0.7 1.25 1.0 Q0.85 1.0 0.55 0.7 0.25 0.4 0.25 0.0 0.25 -0.4 0.55 -0.7 0.85 -1.0 1.25 -1.0 M6.25 -1.0 L6.95 -0.7 7.25 0.0 6.95 0.7 6.25 1.0 Q5.85 1.0 5.55 0.7 5.25 0.4 5.25 0.0 5.25 -0.4 5.55 -0.7 5.85 -1.0 6.25 -1.0 M11.25 -1.0 Q11.65 -1.0 11.95 -0.7 L12.25 0.0 11.95 0.7 Q11.65 1.0 11.25 1.0 L10.55 0.7 10.25 0.0 10.55 -0.7 11.25 -1.0 M16.25 -1.0 L16.95 -0.7 17.25 0.0 16.95 0.7 16.25 1.0 Q15.85 1.0 15.55 0.7 15.25 0.4 15.25 0.0 15.25 -0.4 15.55 -0.7 15.85 -1.0 16.25 -1.0 M36.95 -0.7 L37.25 0.0 36.95 0.7 36.25 1.0 Q35.85 1.0 35.55 0.7 35.25 0.4 35.25 0.0 35.25 -0.4 35.55 -0.7 35.85 -1.0 36.25 -1.0 L36.95 -0.7 M31.95 -0.7 L32.25 0.0 31.95 0.7 31.25 1.0 Q30.85 1.0 30.55 0.7 30.25 0.4 30.25 0.0 30.25 -0.4 30.55 -0.7 30.85 -1.0 31.25 -1.0 L31.95 -0.7 M26.95 -0.7 L27.25 0.0 26.95 0.7 26.25 1.0 25.55 0.7 Q25.25 0.4 25.25 0.0 25.25 -0.4 25.55 -0.7 L26.25 -1.0 26.95 -0.7 M21.95 -0.7 L22.25 0.0 21.95 0.7 21.25 1.0 20.55 0.7 Q20.25 0.4 20.25 0.0 20.25 -0.4 20.55 -0.7 L21.25 -1.0 21.95 -0.7 M41.25 -1.0 L41.95 -0.7 42.25 0.0 41.95 0.7 41.25 1.0 Q40.85 1.0 40.55 0.7 L40.25 0.0 40.55 -0.7 Q40.85 -1.0 41.25 -1.0 M46.25 -1.0 L46.95 -0.7 47.25 0.0 46.95 0.7 46.25 1.0 45.55 0.7 Q45.25 0.4 45.25 0.0 45.25 -0.4 45.55 -0.7 L46.25 -1.0" fill="#ffffff" fill-rule="evenodd" stroke="none"/>
  </g>
</svg>
