<?xml version="1.0" encoding="UTF-8" standalone="no"?>
<svg xmlns:ffdec="https://www.free-decompiler.com/flash" xmlns:xlink="http://www.w3.org/1999/xlink" ffdec:objectType="shape" height="2.0px" width="47.0px" xmlns="http://www.w3.org/2000/svg">
  <g transform="matrix(1.0, 0.0, 0.0, 1.0, -2.6, 1.0)">
    <path d="M3.6 -1.0 L4.3 -0.7 4.6 0.0 4.3 0.7 3.6 1.0 2.9 0.7 Q2.6 0.4 2.6 0.0 2.6 -0.4 2.9 -0.7 L3.6 -1.0 M8.6 -1.0 L9.3 -0.7 9.6 0.0 9.3 0.7 8.6 1.0 Q8.2 1.0 7.9 0.7 7.6 0.4 7.6 0.0 7.6 -0.4 7.9 -0.7 8.2 -1.0 8.6 -1.0 M13.6 -1.0 L14.3 -0.7 14.6 0.0 14.3 0.7 13.6 1.0 Q13.2 1.0 12.9 0.7 12.6 0.4 12.6 0.0 12.6 -0.4 12.9 -0.7 13.2 -1.0 13.6 -1.0 M18.6 -1.0 Q19.0 -1.0 19.3 -0.7 L19.6 0.0 19.3 0.7 Q19.0 1.0 18.6 1.0 L17.9 0.7 17.6 0.0 17.9 -0.7 18.6 -1.0 M39.3 -0.7 L39.6 0.0 39.3 0.7 38.6 1.0 Q38.2 1.0 37.9 0.7 37.6 0.4 37.6 0.0 37.6 -0.4 37.9 -0.7 38.2 -1.0 38.6 -1.0 L39.3 -0.7 M34.3 -0.7 L34.6 0.0 34.3 0.7 33.6 1.0 32.9 0.7 Q32.6 0.4 32.6 0.0 32.6 -0.4 32.9 -0.7 L33.6 -1.0 34.3 -0.7 M29.3 -0.7 L29.6 0.0 29.3 0.7 28.6 1.0 27.9 0.7 Q27.6 0.4 27.6 0.0 27.6 -0.4 27.9 -0.7 L28.6 -1.0 29.3 -0.7 M24.3 -0.7 L24.6 0.0 24.3 0.7 23.6 1.0 Q23.2 1.0 22.9 0.7 22.6 0.4 22.6 0.0 22.6 -0.4 22.9 -0.7 23.2 -1.0 23.6 -1.0 L24.3 -0.7 M43.6 -1.0 L44.3 -0.7 44.6 0.0 44.3 0.7 43.6 1.0 Q43.2 1.0 42.9 0.7 42.6 0.4 42.6 0.0 42.6 -0.4 42.9 -0.7 43.2 -1.0 43.6 -1.0 M48.6 -1.0 L49.3 -0.7 49.6 0.0 49.3 0.7 48.6 1.0 Q48.2 1.0 47.9 0.7 L47.6 0.0 47.9 -0.7 Q48.2 -1.0 48.6 -1.0" fill="#ffffff" fill-rule="evenodd" stroke="none"/>
  </g>
</svg>
