<?xml version="1.0" encoding="UTF-8" standalone="no"?>
<svg xmlns:ffdec="https://www.free-decompiler.com/flash" xmlns:xlink="http://www.w3.org/1999/xlink" ffdec:objectType="shape" height="2.0px" width="52.0px" xmlns="http://www.w3.org/2000/svg">
  <g transform="matrix(1.0, 0.0, 0.0, 1.0, 0.05, 1.0)">
    <path d="M0.95 -1.0 L1.65 -0.7 1.95 0.0 1.65 0.7 0.95 1.0 Q0.55 1.0 0.25 0.7 -0.05 0.4 -0.05 0.0 -0.05 -0.4 0.25 -0.7 0.55 -1.0 0.95 -1.0 M5.95 -1.0 L6.65 -0.7 6.95 0.0 6.65 0.7 5.95 1.0 Q5.55 1.0 5.25 0.7 4.95 0.4 4.95 0.0 4.95 -0.4 5.25 -0.7 5.55 -1.0 5.95 -1.0 M10.95 -1.0 L11.65 -0.7 11.95 0.0 11.65 0.7 10.95 1.0 10.25 0.7 Q9.95 0.4 9.95 0.0 9.95 -0.4 10.25 -0.7 L10.95 -1.0 M15.95 -1.0 L16.65 -0.7 16.95 0.0 16.65 0.7 15.95 1.0 Q15.55 1.0 15.25 0.7 14.95 0.4 14.95 0.0 14.95 -0.4 15.25 -0.7 15.55 -1.0 15.95 -1.0 M36.65 -0.7 L36.95 0.0 36.65 0.7 35.95 1.0 35.25 0.7 Q34.95 0.4 34.95 0.0 34.95 -0.4 35.25 -0.7 L35.95 -1.0 36.65 -0.7 M31.65 -0.7 L31.95 0.0 31.65 0.7 30.95 1.0 Q30.55 1.0 30.25 0.7 29.95 0.4 29.95 0.0 29.95 -0.4 30.25 -0.7 30.55 -1.0 30.95 -1.0 L31.65 -0.7 M26.65 -0.7 L26.95 0.0 26.65 0.7 Q26.35 1.0 25.95 1.0 L25.25 0.7 24.95 0.0 25.25 -0.7 25.95 -1.0 Q26.35 -1.0 26.65 -0.7 M21.65 -0.7 L21.95 0.0 21.65 0.7 20.95 1.0 Q20.55 1.0 20.25 0.7 19.95 0.4 19.95 0.0 19.95 -0.4 20.25 -0.7 20.55 -1.0 20.95 -1.0 L21.65 -0.7 M41.65 -0.7 L41.95 0.0 41.65 0.7 40.95 1.0 40.25 0.7 Q39.95 0.4 39.95 0.0 39.95 -0.4 40.25 -0.7 L40.95 -1.0 41.65 -0.7 M45.95 -1.0 L46.65 -0.7 46.95 0.0 46.65 0.7 45.95 1.0 Q45.55 1.0 45.25 0.7 44.95 0.4 44.95 0.0 44.95 -0.4 45.25 -0.7 45.55 -1.0 45.95 -1.0 M50.95 -1.0 L51.65 -0.7 51.95 0.0 51.65 0.7 50.95 1.0 Q50.55 1.0 50.25 0.7 49.95 0.4 49.95 0.0 49.95 -0.4 50.25 -0.7 50.55 -1.0 50.95 -1.0" fill="#ffffff" fill-rule="evenodd" stroke="none"/>
  </g>
</svg>
