<?xml version="1.0" encoding="UTF-8" standalone="no"?>
<svg xmlns:ffdec="https://www.free-decompiler.com/flash" xmlns:xlink="http://www.w3.org/1999/xlink" ffdec:objectType="shape" height="2.0px" width="52.0px" xmlns="http://www.w3.org/2000/svg">
  <g transform="matrix(1.0, 0.0, 0.0, 1.0, -2.3, 1.0)">
    <path d="M3.3 -1.0 Q3.7 -1.0 4.0 -0.7 L4.3 0.0 4.0 0.7 Q3.7 1.0 3.3 1.0 L2.6 0.7 Q2.3 0.4 2.3 0.0 2.3 -0.4 2.6 -0.7 L3.3 -1.0 M8.3 -1.0 L9.0 -0.7 9.3 0.0 9.0 0.7 8.3 1.0 Q7.9 1.0 7.6 0.7 7.3 0.4 7.3 0.0 7.3 -0.4 7.6 -0.7 7.9 -1.0 8.3 -1.0 M13.3 -1.0 L14.0 -0.7 14.3 0.0 14.0 0.7 13.3 1.0 Q12.9 1.0 12.6 0.7 12.3 0.4 12.3 0.0 12.3 -0.4 12.6 -0.7 12.9 -1.0 13.3 -1.0 M18.3 -1.0 L19.0 -0.7 19.3 0.0 19.0 0.7 18.3 1.0 17.6 0.7 Q17.3 0.4 17.3 0.0 17.3 -0.4 17.6 -0.7 L18.3 -1.0 M39.0 -0.7 L39.3 0.0 39.0 0.7 38.3 1.0 Q37.9 1.0 37.6 0.7 37.3 0.4 37.3 0.0 37.3 -0.4 37.6 -0.7 37.9 -1.0 38.3 -1.0 L39.0 -0.7 M34.0 -0.7 L34.3 0.0 34.0 0.7 Q33.7 1.0 33.3 1.0 L32.6 0.7 32.3 0.0 32.6 -0.7 33.3 -1.0 Q33.7 -1.0 34.0 -0.7 M29.0 -0.7 L29.3 0.0 29.0 0.7 28.3 1.0 Q27.9 1.0 27.6 0.7 27.3 0.4 27.3 0.0 27.3 -0.4 27.6 -0.7 27.9 -1.0 28.3 -1.0 L29.0 -0.7 M24.0 -0.7 L24.3 0.0 24.0 0.7 23.3 1.0 Q22.9 1.0 22.6 0.7 22.3 0.4 22.3 0.0 22.3 -0.4 22.6 -0.7 22.9 -1.0 23.3 -1.0 L24.0 -0.7 M43.3 -1.0 L44.0 -0.7 44.3 0.0 44.0 0.7 43.3 1.0 42.6 0.7 Q42.3 0.4 42.3 0.0 42.3 -0.4 42.6 -0.7 L43.3 -1.0 M48.3 -1.0 L49.0 -0.7 49.3 0.0 49.0 0.7 48.3 1.0 47.6 0.7 Q47.3 0.4 47.3 0.0 47.3 -0.4 47.6 -0.7 L48.3 -1.0 M53.3 -1.0 L54.0 -0.7 54.3 0.0 54.0 0.7 53.3 1.0 Q52.9 1.0 52.6 0.7 52.3 0.4 52.3 0.0 52.3 -0.4 52.6 -0.7 52.9 -1.0 53.3 -1.0" fill="#ffffff" fill-rule="evenodd" stroke="none"/>
  </g>
</svg>
