<?xml version="1.0" encoding="UTF-8" standalone="no"?>
<svg xmlns:ffdec="https://www.free-decompiler.com/flash" xmlns:xlink="http://www.w3.org/1999/xlink" ffdec:objectType="shape" height="2.0px" width="62.0px" xmlns="http://www.w3.org/2000/svg">
  <g transform="matrix(1.0, 0.0, 0.0, 1.0, -1.7, 1.0)">
    <path d="M2.7 -1.0 Q3.1 -1.0 3.4 -0.7 L3.7 0.0 3.4 0.7 Q3.1 1.0 2.7 1.0 L2.0 0.7 Q1.7 0.4 1.7 0.0 1.7 -0.4 2.0 -0.7 L2.7 -1.0 M7.7 -1.0 L8.4 -0.7 8.7 0.0 8.4 0.7 7.7 1.0 Q7.3 1.0 7.0 0.7 6.7 0.4 6.7 0.0 6.7 -0.4 7.0 -0.7 7.3 -1.0 7.7 -1.0 M12.7 -1.0 L13.4 -0.7 13.7 0.0 13.4 0.7 12.7 1.0 Q12.3 1.0 12.0 0.7 11.7 0.4 11.7 0.0 11.7 -0.4 12.0 -0.7 12.3 -1.0 12.7 -1.0 M17.7 -1.0 L18.4 -0.7 18.7 0.0 18.4 0.7 17.7 1.0 Q17.3 1.0 17.0 0.7 16.7 0.4 16.7 0.0 16.7 -0.4 17.0 -0.7 17.3 -1.0 17.7 -1.0 M38.4 -0.7 L38.7 0.0 38.4 0.7 37.7 1.0 Q37.3 1.0 37.0 0.7 36.7 0.4 36.7 0.0 36.7 -0.4 37.0 -0.7 37.3 -1.0 37.7 -1.0 L38.4 -0.7 M33.4 -0.7 L33.7 0.0 33.4 0.7 Q33.1 1.0 32.7 1.0 L32.0 0.7 Q31.7 0.4 31.7 0.0 31.7 -0.4 32.0 -0.7 L32.7 -1.0 Q33.1 -1.0 33.4 -0.7 M28.4 -0.7 L28.7 0.0 28.4 0.7 Q28.1 1.0 27.7 1.0 L27.0 0.7 Q26.7 0.4 26.7 0.0 26.7 -0.4 27.0 -0.7 L27.7 -1.0 Q28.1 -1.0 28.4 -0.7 M23.4 -0.7 L23.7 0.0 23.4 0.7 22.7 1.0 Q22.3 1.0 22.0 0.7 21.7 0.4 21.7 0.0 21.7 -0.4 22.0 -0.7 22.3 -1.0 22.7 -1.0 L23.4 -0.7 M42.7 -1.0 L43.4 -0.7 43.7 0.0 43.4 0.7 42.7 1.0 Q42.3 1.0 42.0 0.7 41.7 0.4 41.7 0.0 41.7 -0.4 42.0 -0.7 42.3 -1.0 42.7 -1.0 M58.4 -0.7 L58.7 0.0 58.4 0.7 57.7 1.0 Q57.3 1.0 57.0 0.7 56.7 0.4 56.7 0.0 56.7 -0.4 57.0 -0.7 57.3 -1.0 57.7 -1.0 L58.4 -0.7 M53.4 -0.7 L53.7 0.0 53.4 0.7 52.7 1.0 Q52.3 1.0 52.0 0.7 51.7 0.4 51.7 0.0 51.7 -0.4 52.0 -0.7 52.3 -1.0 52.7 -1.0 L53.4 -0.7 M48.4 -0.7 L48.7 0.0 48.4 0.7 47.7 1.0 47.0 0.7 Q46.7 0.4 46.7 0.0 46.7 -0.4 47.0 -0.7 L47.7 -1.0 48.4 -0.7 M63.4 -0.7 L63.7 0.0 63.4 0.7 Q63.1 1.0 62.7 1.0 L62.0 0.7 61.7 0.0 62.0 -0.7 62.7 -1.0 Q63.1 -1.0 63.4 -0.7" fill="#ffffff" fill-rule="evenodd" stroke="none"/>
  </g>
</svg>
