<?xml version="1.0" encoding="UTF-8" standalone="no"?>
<svg xmlns:ffdec="https://www.free-decompiler.com/flash" xmlns:xlink="http://www.w3.org/1999/xlink" ffdec:objectType="shape" height="2.0px" width="67.0px" xmlns="http://www.w3.org/2000/svg">
  <g transform="matrix(1.0, 0.0, 0.0, 1.0, 0.95, 1.0)">
    <path d="M0.75 -0.7 L1.05 0.0 0.75 0.7 0.05 1.0 -0.65 0.7 -0.95 0.0 -0.65 -0.7 0.05 -1.0 0.75 -0.7 M5.05 -1.0 L5.75 -0.7 6.05 0.0 5.75 0.7 5.05 1.0 4.35 0.7 Q4.05 0.4 4.05 0.0 4.05 -0.4 4.35 -0.7 L5.05 -1.0 M10.05 -1.0 Q10.45 -1.0 10.75 -0.7 L11.05 0.0 10.75 0.7 Q10.45 1.0 10.05 1.0 L9.35 0.7 Q9.05 0.4 9.05 0.0 9.05 -0.4 9.35 -0.7 L10.05 -1.0 M15.05 -1.0 L15.75 -0.7 16.05 0.0 15.75 0.7 15.05 1.0 Q14.65 1.0 14.35 0.7 14.05 0.4 14.05 0.0 14.05 -0.4 14.35 -0.7 14.65 -1.0 15.05 -1.0 M20.05 -1.0 L20.75 -0.7 21.05 0.0 20.75 0.7 20.05 1.0 Q19.65 1.0 19.35 0.7 19.05 0.4 19.05 0.0 19.05 -0.4 19.35 -0.7 19.65 -1.0 20.05 -1.0 M40.05 -1.0 Q40.45 -1.0 40.75 -0.7 L41.05 0.0 40.75 0.7 Q40.45 1.0 40.05 1.0 L39.35 0.7 Q39.05 0.4 39.05 0.0 39.05 -0.4 39.35 -0.7 L40.05 -1.0 M35.75 -0.7 L36.05 0.0 35.75 0.7 Q35.45 1.0 35.05 1.0 L34.35 0.7 Q34.05 0.4 34.05 0.0 34.05 -0.4 34.35 -0.7 L35.05 -1.0 Q35.45 -1.0 35.75 -0.7 M30.75 -0.7 L31.05 0.0 30.75 0.7 30.05 1.0 Q29.65 1.0 29.35 0.7 29.05 0.4 29.05 0.0 29.05 -0.4 29.35 -0.7 29.65 -1.0 30.05 -1.0 L30.75 -0.7 M25.75 -0.7 L26.05 0.0 25.75 0.7 25.05 1.0 Q24.65 1.0 24.35 0.7 24.05 0.4 24.05 0.0 24.05 -0.4 24.35 -0.7 24.65 -1.0 25.05 -1.0 L25.75 -0.7 M45.05 -1.0 L45.75 -0.7 46.05 0.0 45.75 0.7 45.05 1.0 Q44.65 1.0 44.35 0.7 44.05 0.4 44.05 0.0 44.05 -0.4 44.35 -0.7 44.65 -1.0 45.05 -1.0 M60.05 -1.0 L60.75 -0.7 61.05 0.0 60.75 0.7 60.05 1.0 Q59.65 1.0 59.35 0.7 59.05 0.4 59.05 0.0 59.05 -0.4 59.35 -0.7 59.65 -1.0 60.05 -1.0 M55.75 -0.7 L56.05 0.0 55.75 0.7 55.05 1.0 54.35 0.7 Q54.05 0.4 54.05 0.0 54.05 -0.4 54.35 -0.7 L55.05 -1.0 55.75 -0.7 M50.75 -0.7 L51.05 0.0 50.75 0.7 50.05 1.0 Q49.65 1.0 49.35 0.7 49.05 0.4 49.05 0.0 49.05 -0.4 49.35 -0.7 49.65 -1.0 50.05 -1.0 L50.75 -0.7 M65.75 -0.7 L66.05 0.0 65.75 0.7 65.05 1.0 Q64.65 1.0 64.35 0.7 64.05 0.4 64.05 0.0 64.05 -0.4 64.35 -0.7 64.65 -1.0 65.05 -1.0 L65.75 -0.7" fill="#ffffff" fill-rule="evenodd" stroke="none"/>
  </g>
</svg>
