<?xml version="1.0" encoding="UTF-8" standalone="no"?>
<svg xmlns:ffdec="https://www.free-decompiler.com/flash" xmlns:xlink="http://www.w3.org/1999/xlink" ffdec:objectType="shape" height="2.0px" width="67.0px" xmlns="http://www.w3.org/2000/svg">
  <g transform="matrix(1.0, 0.0, 0.0, 1.0, -1.45, 1.0)">
    <path d="M2.45 -1.0 L3.15 -0.7 3.45 0.0 3.15 0.7 2.45 1.0 Q2.05 1.0 1.75 0.7 1.45 0.4 1.45 0.0 1.45 -0.4 1.75 -0.7 2.05 -1.0 2.45 -1.0 M7.45 -1.0 L8.15 -0.7 8.45 0.0 8.15 0.7 7.45 1.0 Q7.05 1.0 6.75 0.7 6.45 0.4 6.45 0.0 6.45 -0.4 6.75 -0.7 7.05 -1.0 7.45 -1.0 M12.45 -1.0 L13.15 -0.7 13.45 0.0 13.15 0.7 12.45 1.0 Q12.05 1.0 11.75 0.7 11.45 0.4 11.45 0.0 11.45 -0.4 11.75 -0.7 12.05 -1.0 12.45 -1.0 M17.45 -1.0 L18.15 -0.7 18.45 0.0 18.15 0.7 17.45 1.0 Q17.05 1.0 16.75 0.7 16.45 0.4 16.45 0.0 16.45 -0.4 16.75 -0.7 17.05 -1.0 17.45 -1.0 M38.15 -0.7 L38.45 0.0 38.15 0.7 37.45 1.0 Q37.05 1.0 36.75 0.7 36.45 0.4 36.45 0.0 36.45 -0.4 36.75 -0.7 37.05 -1.0 37.45 -1.0 L38.15 -0.7 M33.15 -0.7 L33.45 0.0 33.15 0.7 32.45 1.0 Q32.05 1.0 31.75 0.7 31.45 0.4 31.45 0.0 31.45 -0.4 31.75 -0.7 32.05 -1.0 32.45 -1.0 L33.15 -0.7 M28.15 -0.7 L28.45 0.0 28.15 0.7 Q27.85 1.0 27.45 1.0 L26.75 0.7 Q26.45 0.4 26.45 0.0 26.45 -0.4 26.75 -0.7 L27.45 -1.0 Q27.85 -1.0 28.15 -0.7 M23.15 -0.7 L23.45 0.0 23.15 0.7 Q22.85 1.0 22.45 1.0 L21.75 0.7 Q21.45 0.4 21.45 0.0 21.45 -0.4 21.75 -0.7 L22.45 -1.0 Q22.85 -1.0 23.15 -0.7 M42.45 -1.0 L43.15 -0.7 43.45 0.0 43.15 0.7 42.45 1.0 41.75 0.7 Q41.45 0.4 41.45 0.0 41.45 -0.4 41.75 -0.7 L42.45 -1.0 M47.45 -1.0 L48.15 -0.7 48.45 0.0 48.15 0.7 47.45 1.0 Q47.05 1.0 46.75 0.7 46.45 0.4 46.45 0.0 46.45 -0.4 46.75 -0.7 47.05 -1.0 47.45 -1.0 M58.15 -0.7 L58.45 0.0 58.15 0.7 Q57.85 1.0 57.45 1.0 L56.75 0.7 56.45 0.0 56.75 -0.7 57.45 -1.0 Q57.85 -1.0 58.15 -0.7 M53.15 -0.7 L53.45 0.0 53.15 0.7 52.45 1.0 Q52.05 1.0 51.75 0.7 51.45 0.4 51.45 0.0 51.45 -0.4 51.75 -0.7 52.05 -1.0 52.45 -1.0 L53.15 -0.7 M68.15 -0.7 L68.45 0.0 68.15 0.7 67.45 1.0 66.75 0.7 Q66.45 0.4 66.45 0.0 66.45 -0.4 66.75 -0.7 L67.45 -1.0 68.15 -0.7 M63.15 -0.7 L63.45 0.0 63.15 0.7 62.45 1.0 Q62.05 1.0 61.75 0.7 61.45 0.4 61.45 0.0 61.45 -0.4 61.75 -0.7 62.05 -1.0 62.45 -1.0 L63.15 -0.7" fill="#ffffff" fill-rule="evenodd" stroke="none"/>
  </g>
</svg>
