<?xml version="1.0" encoding="UTF-8" standalone="no"?>
<svg xmlns:ffdec="https://www.free-decompiler.com/flash" xmlns:xlink="http://www.w3.org/1999/xlink" ffdec:objectType="shape" height="2.0px" width="67.0px" xmlns="http://www.w3.org/2000/svg">
  <g transform="matrix(1.0, 0.0, 0.0, 1.0, -3.8, 1.0)">
    <path d="M4.8 -1.0 Q5.2 -1.0 5.5 -0.7 L5.8 0.0 5.5 0.7 Q5.2 1.0 4.8 1.0 L4.1 0.7 Q3.8 0.4 3.8 0.0 3.8 -0.4 4.1 -0.7 L4.8 -1.0 M9.8 -1.0 L10.5 -0.7 10.8 0.0 10.5 0.7 9.8 1.0 Q9.4 1.0 9.1 0.7 8.8 0.4 8.8 0.0 8.8 -0.4 9.1 -0.7 9.4 -1.0 9.8 -1.0 M14.8 -1.0 L15.5 -0.7 15.8 0.0 15.5 0.7 14.8 1.0 Q14.4 1.0 14.1 0.7 13.8 0.4 13.8 0.0 13.8 -0.4 14.1 -0.7 14.4 -1.0 14.8 -1.0 M19.8 -1.0 L20.5 -0.7 20.8 0.0 20.5 0.7 19.8 1.0 Q19.4 1.0 19.1 0.7 18.8 0.4 18.8 0.0 18.8 -0.4 19.1 -0.7 19.4 -1.0 19.8 -1.0 M39.8 -1.0 L40.5 -0.7 40.8 0.0 40.5 0.7 39.8 1.0 Q39.4 1.0 39.1 0.7 38.8 0.4 38.8 0.0 38.8 -0.4 39.1 -0.7 39.4 -1.0 39.8 -1.0 M35.5 -0.7 L35.8 0.0 35.5 0.7 Q35.2 1.0 34.8 1.0 L34.1 0.7 Q33.8 0.4 33.8 0.0 33.8 -0.4 34.1 -0.7 L34.8 -1.0 Q35.2 -1.0 35.5 -0.7 M30.5 -0.7 L30.8 0.0 30.5 0.7 Q30.2 1.0 29.8 1.0 L29.1 0.7 Q28.8 0.4 28.8 0.0 28.8 -0.4 29.1 -0.7 L29.8 -1.0 Q30.2 -1.0 30.5 -0.7 M25.5 -0.7 L25.8 0.0 25.5 0.7 24.8 1.0 Q24.4 1.0 24.1 0.7 23.8 0.4 23.8 0.0 23.8 -0.4 24.1 -0.7 24.4 -1.0 24.8 -1.0 L25.5 -0.7 M44.8 -1.0 L45.5 -0.7 45.8 0.0 45.5 0.7 44.8 1.0 Q44.4 1.0 44.1 0.7 43.8 0.4 43.8 0.0 43.8 -0.4 44.1 -0.7 44.4 -1.0 44.8 -1.0 M49.8 -1.0 L50.5 -0.7 50.8 0.0 50.5 0.7 49.8 1.0 49.1 0.7 Q48.8 0.4 48.8 0.0 48.8 -0.4 49.1 -0.7 L49.8 -1.0 M60.5 -0.7 L60.8 0.0 60.5 0.7 59.8 1.0 Q59.4 1.0 59.1 0.7 58.8 0.4 58.8 0.0 58.8 -0.4 59.1 -0.7 59.4 -1.0 59.8 -1.0 L60.5 -0.7 M55.5 -0.7 L55.8 0.0 55.5 0.7 54.8 1.0 Q54.4 1.0 54.1 0.7 53.8 0.4 53.8 0.0 53.8 -0.4 54.1 -0.7 54.4 -1.0 54.8 -1.0 L55.5 -0.7 M70.5 -0.7 L70.8 0.0 70.5 0.7 69.8 1.0 Q69.4 1.0 69.1 0.7 68.8 0.4 68.8 0.0 68.8 -0.4 69.1 -0.7 69.4 -1.0 69.8 -1.0 L70.5 -0.7 M65.5 -0.7 L65.8 0.0 65.5 0.7 Q65.2 1.0 64.8 1.0 L64.1 0.7 63.8 0.0 64.1 -0.7 64.8 -1.0 Q65.2 -1.0 65.5 -0.7" fill="#ffffff" fill-rule="evenodd" stroke="none"/>
  </g>
</svg>
