<?xml version="1.0" encoding="UTF-8" standalone="no"?>
<svg xmlns:ffdec="https://www.free-decompiler.com/flash" xmlns:xlink="http://www.w3.org/1999/xlink" ffdec:objectType="shape" height="2.0px" width="72.0px" xmlns="http://www.w3.org/2000/svg">
  <g transform="matrix(1.0, 0.0, 0.0, 1.0, -1.15, 1.0)">
    <path d="M2.15 -1.0 L2.85 -0.7 3.15 0.0 2.85 0.7 2.15 1.0 1.45 0.7 Q1.15 0.4 1.15 0.0 1.15 -0.4 1.45 -0.7 L2.15 -1.0 M7.15 -1.0 L7.85 -0.7 8.15 0.0 7.85 0.7 7.15 1.0 6.45 0.7 Q6.15 0.4 6.15 0.0 6.15 -0.4 6.45 -0.7 L7.15 -1.0 M12.15 -1.0 Q12.55 -1.0 12.85 -0.7 L13.15 0.0 12.85 0.7 Q12.55 1.0 12.15 1.0 L11.45 0.7 Q11.15 0.4 11.15 0.0 11.15 -0.4 11.45 -0.7 L12.15 -1.0 M17.15 -1.0 L17.85 -0.7 18.15 0.0 17.85 0.7 17.15 1.0 Q16.75 1.0 16.45 0.7 16.15 0.4 16.15 0.0 16.15 -0.4 16.45 -0.7 16.75 -1.0 17.15 -1.0 M37.85 -0.7 L38.15 0.0 37.85 0.7 Q37.55 1.0 37.15 1.0 L36.45 0.7 Q36.15 0.4 36.15 0.0 36.15 -0.4 36.45 -0.7 L37.15 -1.0 Q37.55 -1.0 37.85 -0.7 M32.85 -0.7 L33.15 0.0 32.85 0.7 32.15 1.0 Q31.75 1.0 31.45 0.7 31.15 0.4 31.15 0.0 31.15 -0.4 31.45 -0.7 31.75 -1.0 32.15 -1.0 L32.85 -0.7 M27.85 -0.7 L28.15 0.0 27.85 0.7 27.15 1.0 Q26.75 1.0 26.45 0.7 26.15 0.4 26.15 0.0 26.15 -0.4 26.45 -0.7 26.75 -1.0 27.15 -1.0 L27.85 -0.7 M22.85 -0.7 L23.15 0.0 22.85 0.7 22.15 1.0 Q21.75 1.0 21.45 0.7 21.15 0.4 21.15 0.0 21.15 -0.4 21.45 -0.7 21.75 -1.0 22.15 -1.0 L22.85 -0.7 M42.15 -1.0 Q42.55 -1.0 42.85 -0.7 L43.15 0.0 42.85 0.7 Q42.55 1.0 42.15 1.0 L41.45 0.7 Q41.15 0.4 41.15 0.0 41.15 -0.4 41.45 -0.7 L42.15 -1.0 M47.15 -1.0 L47.85 -0.7 48.15 0.0 47.85 0.7 47.15 1.0 Q46.75 1.0 46.45 0.7 46.15 0.4 46.15 0.0 46.15 -0.4 46.45 -0.7 46.75 -1.0 47.15 -1.0 M52.15 -1.0 L52.85 -0.7 53.15 0.0 52.85 0.7 52.15 1.0 Q51.75 1.0 51.45 0.7 51.15 0.4 51.15 0.0 51.15 -0.4 51.45 -0.7 51.75 -1.0 52.15 -1.0 M57.85 -0.7 L58.15 0.0 57.85 0.7 57.15 1.0 56.45 0.7 Q56.15 0.4 56.15 0.0 56.15 -0.4 56.45 -0.7 L57.15 -1.0 57.85 -0.7 M72.85 -0.7 L73.15 0.0 72.85 0.7 Q72.55 1.0 72.15 1.0 L71.45 0.7 71.15 0.0 71.45 -0.7 72.15 -1.0 Q72.55 -1.0 72.85 -0.7 M67.85 -0.7 L68.15 0.0 67.85 0.7 67.15 1.0 Q66.75 1.0 66.45 0.7 66.15 0.4 66.15 0.0 66.15 -0.4 66.45 -0.7 66.75 -1.0 67.15 -1.0 L67.85 -0.7 M62.85 -0.7 L63.15 0.0 62.85 0.7 62.15 1.0 Q61.75 1.0 61.45 0.7 61.15 0.4 61.15 0.0 61.15 -0.4 61.45 -0.7 61.75 -1.0 62.15 -1.0 L62.85 -0.7" fill="#ffffff" fill-rule="evenodd" stroke="none"/>
  </g>
</svg>
