<?xml version="1.0" encoding="UTF-8" standalone="no"?>
<svg xmlns:ffdec="https://www.free-decompiler.com/flash" xmlns:xlink="http://www.w3.org/1999/xlink" ffdec:objectType="shape" height="2.0px" width="77.0px" xmlns="http://www.w3.org/2000/svg">
  <g transform="matrix(1.0, 0.0, 0.0, 1.0, -0.85, 1.0)">
    <path d="M1.85 -1.0 L2.55 -0.7 2.85 0.0 2.55 0.7 1.85 1.0 Q1.45 1.0 1.15 0.7 0.85 0.4 0.85 0.0 0.85 -0.4 1.15 -0.7 1.45 -1.0 1.85 -1.0 M6.85 -1.0 L7.55 -0.7 7.85 0.0 7.55 0.7 6.85 1.0 Q6.45 1.0 6.15 0.7 5.85 0.4 5.85 0.0 5.85 -0.4 6.15 -0.7 6.45 -1.0 6.85 -1.0 M11.85 -1.0 L12.55 -0.7 12.85 0.0 12.55 0.7 11.85 1.0 Q11.45 1.0 11.15 0.7 L10.85 0.0 11.15 -0.7 Q11.45 -1.0 11.85 -1.0 M16.85 -1.0 L17.55 -0.7 17.85 0.0 17.55 0.7 16.85 1.0 16.15 0.7 Q15.85 0.4 15.85 0.0 15.85 -0.4 16.15 -0.7 L16.85 -1.0 M37.55 -0.7 L37.85 0.0 37.55 0.7 36.85 1.0 Q36.45 1.0 36.15 0.7 35.85 0.4 35.85 0.0 35.85 -0.4 36.15 -0.7 36.45 -1.0 36.85 -1.0 L37.55 -0.7 M32.55 -0.7 L32.85 0.0 32.55 0.7 31.85 1.0 Q31.45 1.0 31.15 0.7 30.85 0.4 30.85 0.0 30.85 -0.4 31.15 -0.7 31.45 -1.0 31.85 -1.0 L32.55 -0.7 M27.55 -0.7 L27.85 0.0 27.55 0.7 Q27.25 1.0 26.85 1.0 L26.15 0.7 Q25.85 0.4 25.85 0.0 25.85 -0.4 26.15 -0.7 L26.85 -1.0 Q27.25 -1.0 27.55 -0.7 M22.55 -0.7 L22.85 0.0 22.55 0.7 21.85 1.0 21.15 0.7 Q20.85 0.4 20.85 0.0 20.85 -0.4 21.15 -0.7 L21.85 -1.0 22.55 -0.7 M41.85 -1.0 L42.55 -0.7 42.85 0.0 42.55 0.7 41.85 1.0 Q41.45 1.0 41.15 0.7 40.85 0.4 40.85 0.0 40.85 -0.4 41.15 -0.7 41.45 -1.0 41.85 -1.0 M46.85 -1.0 L47.55 -0.7 47.85 0.0 47.55 0.7 46.85 1.0 Q46.45 1.0 46.15 0.7 45.85 0.4 45.85 0.0 45.85 -0.4 46.15 -0.7 46.45 -1.0 46.85 -1.0 M51.85 -1.0 Q52.25 -1.0 52.55 -0.7 L52.85 0.0 52.55 0.7 Q52.25 1.0 51.85 1.0 L51.15 0.7 Q50.85 0.4 50.85 0.0 50.85 -0.4 51.15 -0.7 L51.85 -1.0 M56.85 -1.0 Q57.25 -1.0 57.55 -0.7 L57.85 0.0 57.55 0.7 Q57.25 1.0 56.85 1.0 L56.15 0.7 Q55.85 0.4 55.85 0.0 55.85 -0.4 56.15 -0.7 L56.85 -1.0 M77.55 -0.7 L77.85 0.0 77.55 0.7 76.85 1.0 Q76.45 1.0 76.15 0.7 75.85 0.4 75.85 0.0 75.85 -0.4 76.15 -0.7 76.45 -1.0 76.85 -1.0 L77.55 -0.7 M72.55 -0.7 L72.85 0.0 72.55 0.7 71.85 1.0 71.15 0.7 Q70.85 0.4 70.85 0.0 70.85 -0.4 71.15 -0.7 L71.85 -1.0 72.55 -0.7 M67.55 -0.7 L67.85 0.0 67.55 0.7 66.85 1.0 Q66.45 1.0 66.15 0.7 65.85 0.4 65.85 0.0 65.85 -0.4 66.15 -0.7 66.45 -1.0 66.85 -1.0 L67.55 -0.7 M62.55 -0.7 L62.85 0.0 62.55 0.7 61.85 1.0 Q61.45 1.0 61.15 0.7 60.85 0.4 60.85 0.0 60.85 -0.4 61.15 -0.7 61.45 -1.0 61.85 -1.0 L62.55 -0.7" fill="#ffffff" fill-rule="evenodd" stroke="none"/>
  </g>
</svg>
