<?xml version="1.0" encoding="UTF-8" standalone="no"?>
<svg xmlns:ffdec="https://www.free-decompiler.com/flash" xmlns:xlink="http://www.w3.org/1999/xlink" ffdec:objectType="shape" height="2.0px" width="77.0px" xmlns="http://www.w3.org/2000/svg">
  <g transform="matrix(1.0, 0.0, 0.0, 1.0, -3.2, 1.0)">
    <path d="M4.2 -1.0 L4.9 -0.7 5.2 0.0 4.9 0.7 4.2 1.0 3.5 0.7 Q3.2 0.4 3.2 0.0 3.2 -0.4 3.5 -0.7 L4.2 -1.0 M9.2 -1.0 L9.9 -0.7 10.2 0.0 9.9 0.7 9.2 1.0 Q8.8 1.0 8.5 0.7 8.2 0.4 8.2 0.0 8.2 -0.4 8.5 -0.7 8.8 -1.0 9.2 -1.0 M14.2 -1.0 L14.9 -0.7 15.2 0.0 14.9 0.7 14.2 1.0 Q13.8 1.0 13.5 0.7 13.2 0.4 13.2 0.0 13.2 -0.4 13.5 -0.7 13.8 -1.0 14.2 -1.0 M19.2 -1.0 L19.9 -0.7 20.2 0.0 19.9 0.7 19.2 1.0 Q18.8 1.0 18.5 0.7 L18.2 0.0 18.5 -0.7 Q18.8 -1.0 19.2 -1.0 M39.9 -0.7 L40.2 0.0 39.9 0.7 39.2 1.0 Q38.8 1.0 38.5 0.7 38.2 0.4 38.2 0.0 38.2 -0.4 38.5 -0.7 38.8 -1.0 39.2 -1.0 L39.9 -0.7 M34.9 -0.7 L35.2 0.0 34.9 0.7 Q34.6 1.0 34.2 1.0 L33.5 0.7 Q33.2 0.4 33.2 0.0 33.2 -0.4 33.5 -0.7 L34.2 -1.0 Q34.6 -1.0 34.9 -0.7 M29.9 -0.7 L30.2 0.0 29.9 0.7 29.2 1.0 28.5 0.7 Q28.2 0.4 28.2 0.0 28.2 -0.4 28.5 -0.7 L29.2 -1.0 29.9 -0.7 M24.9 -0.7 L25.2 0.0 24.9 0.7 24.2 1.0 23.5 0.7 Q23.2 0.4 23.2 0.0 23.2 -0.4 23.5 -0.7 L24.2 -1.0 24.9 -0.7 M44.2 -1.0 L44.9 -0.7 45.2 0.0 44.9 0.7 44.2 1.0 Q43.8 1.0 43.5 0.7 43.2 0.4 43.2 0.0 43.2 -0.4 43.5 -0.7 43.8 -1.0 44.2 -1.0 M49.2 -1.0 L49.9 -0.7 50.2 0.0 49.9 0.7 49.2 1.0 Q48.8 1.0 48.5 0.7 48.2 0.4 48.2 0.0 48.2 -0.4 48.5 -0.7 48.8 -1.0 49.2 -1.0 M54.2 -1.0 L54.9 -0.7 55.2 0.0 54.9 0.7 54.2 1.0 Q53.8 1.0 53.5 0.7 53.2 0.4 53.2 0.0 53.2 -0.4 53.5 -0.7 53.8 -1.0 54.2 -1.0 M59.2 -1.0 Q59.6 -1.0 59.9 -0.7 L60.2 0.0 59.9 0.7 Q59.6 1.0 59.2 1.0 L58.5 0.7 Q58.2 0.4 58.2 0.0 58.2 -0.4 58.5 -0.7 L59.2 -1.0 M79.9 -0.7 L80.2 0.0 79.9 0.7 79.2 1.0 78.5 0.7 Q78.2 0.4 78.2 0.0 78.2 -0.4 78.5 -0.7 L79.2 -1.0 79.9 -0.7 M74.9 -0.7 L75.2 0.0 74.9 0.7 74.2 1.0 Q73.8 1.0 73.5 0.7 73.2 0.4 73.2 0.0 73.2 -0.4 73.5 -0.7 73.8 -1.0 74.2 -1.0 L74.9 -0.7 M69.9 -0.7 L70.2 0.0 69.9 0.7 69.2 1.0 Q68.8 1.0 68.5 0.7 68.2 0.4 68.2 0.0 68.2 -0.4 68.5 -0.7 68.8 -1.0 69.2 -1.0 L69.9 -0.7 M64.9 -0.7 L65.2 0.0 64.9 0.7 Q64.6 1.0 64.2 1.0 L63.5 0.7 Q63.2 0.4 63.2 0.0 63.2 -0.4 63.5 -0.7 L64.2 -1.0 Q64.6 -1.0 64.9 -0.7" fill="#ffffff" fill-rule="evenodd" stroke="none"/>
  </g>
</svg>
