<?xml version="1.0" encoding="UTF-8" standalone="no"?>
<svg xmlns:ffdec="https://www.free-decompiler.com/flash" xmlns:xlink="http://www.w3.org/1999/xlink" ffdec:objectType="shape" height="2.0px" width="82.0px" xmlns="http://www.w3.org/2000/svg">
  <g transform="matrix(1.0, 0.0, 0.0, 1.0, -0.55, 1.0)">
    <path d="M1.55 -1.0 L2.25 -0.7 2.55 0.0 2.25 0.7 1.55 1.0 Q1.15 1.0 0.85 0.7 0.55 0.4 0.55 0.0 0.55 -0.4 0.85 -0.7 1.15 -1.0 1.55 -1.0 M6.55 -1.0 L7.25 -0.7 7.55 0.0 7.25 0.7 6.55 1.0 5.85 0.7 Q5.55 0.4 5.55 0.0 5.55 -0.4 5.85 -0.7 L6.55 -1.0 M11.55 -1.0 L12.25 -0.7 12.55 0.0 12.25 0.7 11.55 1.0 10.85 0.7 Q10.55 0.4 10.55 0.0 10.55 -0.4 10.85 -0.7 L11.55 -1.0 M16.55 -1.0 L17.25 -0.7 17.55 0.0 17.25 0.7 16.55 1.0 Q16.15 1.0 15.85 0.7 15.55 0.4 15.55 0.0 15.55 -0.4 15.85 -0.7 16.15 -1.0 16.55 -1.0 M37.25 -0.7 L37.55 0.0 37.25 0.7 36.55 1.0 35.85 0.7 Q35.55 0.4 35.55 0.0 35.55 -0.4 35.85 -0.7 L36.55 -1.0 37.25 -0.7 M32.25 -0.7 L32.55 0.0 32.25 0.7 31.55 1.0 30.85 0.7 Q30.55 0.4 30.55 0.0 30.55 -0.4 30.85 -0.7 L31.55 -1.0 32.25 -0.7 M27.25 -0.7 L27.55 0.0 27.25 0.7 26.55 1.0 Q26.15 1.0 25.85 0.7 L25.55 0.0 25.85 -0.7 Q26.15 -1.0 26.55 -1.0 L27.25 -0.7 M22.25 -0.7 L22.55 0.0 22.25 0.7 21.55 1.0 Q21.15 1.0 20.85 0.7 20.55 0.4 20.55 0.0 20.55 -0.4 20.85 -0.7 21.15 -1.0 21.55 -1.0 L22.25 -0.7 M41.55 -1.0 Q41.95 -1.0 42.25 -0.7 L42.55 0.0 42.25 0.7 Q41.95 1.0 41.55 1.0 L40.85 0.7 Q40.55 0.4 40.55 0.0 40.55 -0.4 40.85 -0.7 L41.55 -1.0 M46.55 -1.0 L47.25 -0.7 47.55 0.0 47.25 0.7 46.55 1.0 Q46.15 1.0 45.85 0.7 45.55 0.4 45.55 0.0 45.55 -0.4 45.85 -0.7 46.15 -1.0 46.55 -1.0 M51.55 -1.0 L52.25 -0.7 52.55 0.0 52.25 0.7 51.55 1.0 Q51.15 1.0 50.85 0.7 50.55 0.4 50.55 0.0 50.55 -0.4 50.85 -0.7 51.15 -1.0 51.55 -1.0 M56.55 -1.0 L57.25 -0.7 57.55 0.0 57.25 0.7 56.55 1.0 Q56.15 1.0 55.85 0.7 55.55 0.4 55.55 0.0 55.55 -0.4 55.85 -0.7 56.15 -1.0 56.55 -1.0 M77.25 -0.7 L77.55 0.0 77.25 0.7 76.55 1.0 Q76.15 1.0 75.85 0.7 75.55 0.4 75.55 0.0 75.55 -0.4 75.85 -0.7 76.15 -1.0 76.55 -1.0 L77.25 -0.7 M72.25 -0.7 L72.55 0.0 72.25 0.7 Q71.95 1.0 71.55 1.0 L70.85 0.7 Q70.55 0.4 70.55 0.0 70.55 -0.4 70.85 -0.7 L71.55 -1.0 Q71.95 -1.0 72.25 -0.7 M67.25 -0.7 L67.55 0.0 67.25 0.7 Q66.95 1.0 66.55 1.0 L65.85 0.7 Q65.55 0.4 65.55 0.0 65.55 -0.4 65.85 -0.7 L66.55 -1.0 Q66.95 -1.0 67.25 -0.7 M62.25 -0.7 L62.55 0.0 62.25 0.7 61.55 1.0 Q61.15 1.0 60.85 0.7 60.55 0.4 60.55 0.0 60.55 -0.4 60.85 -0.7 61.15 -1.0 61.55 -1.0 L62.25 -0.7 M82.25 -0.7 L82.55 0.0 82.25 0.7 81.55 1.0 Q81.15 1.0 80.85 0.7 80.55 0.4 80.55 0.0 80.55 -0.4 80.85 -0.7 81.15 -1.0 81.55 -1.0 L82.25 -0.7" fill="#ffffff" fill-rule="evenodd" stroke="none"/>
  </g>
</svg>
