<?xml version="1.0" encoding="UTF-8" standalone="no"?>
<svg xmlns:ffdec="https://www.free-decompiler.com/flash" xmlns:xlink="http://www.w3.org/1999/xlink" ffdec:objectType="shape" height="2.0px" width="82.0px" xmlns="http://www.w3.org/2000/svg">
  <g transform="matrix(1.0, 0.0, 0.0, 1.0, -2.9, 1.0)">
    <path d="M3.9 -1.0 Q4.3 -1.0 4.6 -0.7 L4.9 0.0 4.6 0.7 Q4.3 1.0 3.9 1.0 L3.2 0.7 2.9 0.0 3.2 -0.7 3.9 -1.0 M8.9 -1.0 L9.6 -0.7 9.9 0.0 9.6 0.7 8.9 1.0 Q8.5 1.0 8.2 0.7 7.9 0.4 7.9 0.0 7.9 -0.4 8.2 -0.7 8.5 -1.0 8.9 -1.0 M13.9 -1.0 L14.6 -0.7 14.9 0.0 14.6 0.7 13.9 1.0 13.2 0.7 Q12.9 0.4 12.9 0.0 12.9 -0.4 13.2 -0.7 L13.9 -1.0 M18.9 -1.0 L19.6 -0.7 19.9 0.0 19.6 0.7 18.9 1.0 18.2 0.7 Q17.9 0.4 17.9 0.0 17.9 -0.4 18.2 -0.7 L18.9 -1.0 M39.6 -0.7 L39.9 0.0 39.6 0.7 38.9 1.0 38.2 0.7 Q37.9 0.4 37.9 0.0 37.9 -0.4 38.2 -0.7 L38.9 -1.0 39.6 -0.7 M34.6 -0.7 L34.9 0.0 34.6 0.7 33.9 1.0 Q33.5 1.0 33.2 0.7 L32.9 0.0 33.2 -0.7 Q33.5 -1.0 33.9 -1.0 L34.6 -0.7 M29.6 -0.7 L29.9 0.0 29.6 0.7 28.9 1.0 Q28.5 1.0 28.2 0.7 27.9 0.4 27.9 0.0 27.9 -0.4 28.2 -0.7 28.5 -1.0 28.9 -1.0 L29.6 -0.7 M24.6 -0.7 L24.9 0.0 24.6 0.7 23.9 1.0 Q23.5 1.0 23.2 0.7 22.9 0.4 22.9 0.0 22.9 -0.4 23.2 -0.7 23.5 -1.0 23.9 -1.0 L24.6 -0.7 M43.9 -1.0 L44.6 -0.7 44.9 0.0 44.6 0.7 43.9 1.0 43.2 0.7 Q42.9 0.4 42.9 0.0 42.9 -0.4 43.2 -0.7 L43.9 -1.0 M48.9 -1.0 Q49.3 -1.0 49.6 -0.7 L49.9 0.0 49.6 0.7 Q49.3 1.0 48.9 1.0 L48.2 0.7 Q47.9 0.4 47.9 0.0 47.9 -0.4 48.2 -0.7 L48.9 -1.0 M53.9 -1.0 L54.6 -0.7 54.9 0.0 54.6 0.7 53.9 1.0 Q53.5 1.0 53.2 0.7 52.9 0.4 52.9 0.0 52.9 -0.4 53.2 -0.7 53.5 -1.0 53.9 -1.0 M58.9 -1.0 L59.6 -0.7 59.9 0.0 59.6 0.7 58.9 1.0 Q58.5 1.0 58.2 0.7 57.9 0.4 57.9 0.0 57.9 -0.4 58.2 -0.7 58.5 -1.0 58.9 -1.0 M79.6 -0.7 L79.9 0.0 79.6 0.7 Q79.3 1.0 78.9 1.0 L78.2 0.7 Q77.9 0.4 77.9 0.0 77.9 -0.4 78.2 -0.7 L78.9 -1.0 Q79.3 -1.0 79.6 -0.7 M74.6 -0.7 L74.9 0.0 74.6 0.7 Q74.3 1.0 73.9 1.0 L73.2 0.7 Q72.9 0.4 72.9 0.0 72.9 -0.4 73.2 -0.7 L73.9 -1.0 Q74.3 -1.0 74.6 -0.7 M69.6 -0.7 L69.9 0.0 69.6 0.7 68.9 1.0 Q68.5 1.0 68.2 0.7 67.9 0.4 67.9 0.0 67.9 -0.4 68.2 -0.7 68.5 -1.0 68.9 -1.0 L69.6 -0.7 M64.6 -0.7 L64.9 0.0 64.6 0.7 63.9 1.0 Q63.5 1.0 63.2 0.7 62.9 0.4 62.9 0.0 62.9 -0.4 63.2 -0.7 63.5 -1.0 63.9 -1.0 L64.6 -0.7 M83.9 -1.0 L84.6 -0.7 84.9 0.0 84.6 0.7 83.9 1.0 Q83.5 1.0 83.2 0.7 82.9 0.4 82.9 0.0 82.9 -0.4 83.2 -0.7 83.5 -1.0 83.9 -1.0" fill="#ffffff" fill-rule="evenodd" stroke="none"/>
  </g>
</svg>
