<?xml version="1.0" encoding="UTF-8" standalone="no"?>
<svg xmlns:ffdec="https://www.free-decompiler.com/flash" xmlns:xlink="http://www.w3.org/1999/xlink" ffdec:objectType="shape" height="2.0px" width="92.0px" xmlns="http://www.w3.org/2000/svg">
  <g transform="matrix(1.0, 0.0, 0.0, 1.0, 0.05, 1.0)">
    <path d="M0.95 -1.0 L1.65 -0.7 1.95 0.0 1.65 0.7 0.95 1.0 Q0.55 1.0 0.25 0.7 -0.05 0.4 -0.05 0.0 -0.05 -0.4 0.25 -0.7 0.55 -1.0 0.95 -1.0 M5.95 -1.0 L6.65 -0.7 6.95 0.0 6.65 0.7 5.95 1.0 Q5.55 1.0 5.25 0.7 4.95 0.4 4.95 0.0 4.95 -0.4 5.25 -0.7 5.55 -1.0 5.95 -1.0 M10.95 -1.0 L11.65 -0.7 11.95 0.0 11.65 0.7 10.95 1.0 10.25 0.7 Q9.95 0.4 9.95 0.0 9.95 -0.4 10.25 -0.7 L10.95 -1.0 M15.95 -1.0 L16.65 -0.7 16.95 0.0 16.65 0.7 15.95 1.0 Q15.55 1.0 15.25 0.7 14.95 0.4 14.95 0.0 14.95 -0.4 15.25 -0.7 15.55 -1.0 15.95 -1.0 M36.65 -0.7 L36.95 0.0 36.65 0.7 35.95 1.0 35.25 0.7 Q34.95 0.4 34.95 0.0 34.95 -0.4 35.25 -0.7 L35.95 -1.0 36.65 -0.7 M31.65 -0.7 L31.95 0.0 31.65 0.7 30.95 1.0 Q30.55 1.0 30.25 0.7 29.95 0.4 29.95 0.0 29.95 -0.4 30.25 -0.7 30.55 -1.0 30.95 -1.0 L31.65 -0.7 M26.65 -0.7 L26.95 0.0 26.65 0.7 Q26.35 1.0 25.95 1.0 L25.25 0.7 24.95 0.0 25.25 -0.7 25.95 -1.0 Q26.35 -1.0 26.65 -0.7 M21.65 -0.7 L21.95 0.0 21.65 0.7 20.95 1.0 Q20.55 1.0 20.25 0.7 19.95 0.4 19.95 0.0 19.95 -0.4 20.25 -0.7 20.55 -1.0 20.95 -1.0 L21.65 -0.7 M41.65 -0.7 L41.95 0.0 41.65 0.7 40.95 1.0 40.25 0.7 Q39.95 0.4 39.95 0.0 39.95 -0.4 40.25 -0.7 L40.95 -1.0 41.65 -0.7 M45.95 -1.0 L46.65 -0.7 46.95 0.0 46.65 0.7 45.95 1.0 Q45.55 1.0 45.25 0.7 44.95 0.4 44.95 0.0 44.95 -0.4 45.25 -0.7 45.55 -1.0 45.95 -1.0 M50.95 -1.0 L51.65 -0.7 51.95 0.0 51.65 0.7 50.95 1.0 Q50.55 1.0 50.25 0.7 49.95 0.4 49.95 0.0 49.95 -0.4 50.25 -0.7 50.55 -1.0 50.95 -1.0 M55.95 -1.0 L56.65 -0.7 56.95 0.0 56.65 0.7 55.95 1.0 Q55.55 1.0 55.25 0.7 L54.95 0.0 55.25 -0.7 Q55.55 -1.0 55.95 -1.0 M80.95 -1.0 L81.65 -0.7 81.95 0.0 81.65 0.7 80.95 1.0 Q80.55 1.0 80.25 0.7 79.95 0.4 79.95 0.0 79.95 -0.4 80.25 -0.7 80.55 -1.0 80.95 -1.0 M76.65 -0.7 L76.95 0.0 76.65 0.7 75.95 1.0 Q75.55 1.0 75.25 0.7 74.95 0.4 74.95 0.0 74.95 -0.4 75.25 -0.7 75.55 -1.0 75.95 -1.0 L76.65 -0.7 M71.65 -0.7 L71.95 0.0 71.65 0.7 Q71.35 1.0 70.95 1.0 L70.25 0.7 Q69.95 0.4 69.95 0.0 69.95 -0.4 70.25 -0.7 L70.95 -1.0 Q71.35 -1.0 71.65 -0.7 M66.65 -0.7 L66.95 0.0 66.65 0.7 65.95 1.0 65.25 0.7 Q64.95 0.4 64.95 0.0 64.95 -0.4 65.25 -0.7 L65.95 -1.0 66.65 -0.7 M61.65 -0.7 L61.95 0.0 61.65 0.7 60.95 1.0 60.25 0.7 Q59.95 0.4 59.95 0.0 59.95 -0.4 60.25 -0.7 L60.95 -1.0 61.65 -0.7 M85.95 -1.0 L86.65 -0.7 86.95 0.0 86.65 0.7 85.95 1.0 Q85.55 1.0 85.25 0.7 84.95 0.4 84.95 0.0 84.95 -0.4 85.25 -0.7 85.55 -1.0 85.95 -1.0 M90.95 -1.0 L91.65 -0.7 91.95 0.0 91.65 0.7 90.95 1.0 Q90.55 1.0 90.25 0.7 89.95 0.4 89.95 0.0 89.95 -0.4 90.25 -0.7 90.55 -1.0 90.95 -1.0" fill="#ffffff" fill-rule="evenodd" stroke="none"/>
  </g>
</svg>
