<?xml version="1.0" encoding="UTF-8" standalone="no"?>
<svg xmlns:ffdec="https://www.free-decompiler.com/flash" xmlns:xlink="http://www.w3.org/1999/xlink" ffdec:objectType="shape" height="2.0px" width="97.0px" xmlns="http://www.w3.org/2000/svg">
  <g transform="matrix(1.0, 0.0, 0.0, 1.0, 0.35, 1.0)">
    <path d="M1.35 -0.7 L1.65 0.0 1.35 0.7 0.65 1.0 Q0.25 1.0 -0.05 0.7 L-0.35 0.0 -0.05 -0.7 Q0.25 -1.0 0.65 -1.0 L1.35 -0.7 M5.65 -1.0 Q6.05 -1.0 6.35 -0.7 L6.65 0.0 6.35 0.7 Q6.05 1.0 5.65 1.0 L4.95 0.7 Q4.65 0.4 4.65 0.0 4.65 -0.4 4.95 -0.7 L5.65 -1.0 M10.65 -1.0 Q11.05 -1.0 11.35 -0.7 L11.65 0.0 11.35 0.7 Q11.05 1.0 10.65 1.0 L9.95 0.7 Q9.65 0.4 9.65 0.0 9.65 -0.4 9.95 -0.7 L10.65 -1.0 M15.65 -1.0 L16.35 -0.7 16.65 0.0 16.35 0.7 15.65 1.0 Q15.25 1.0 14.95 0.7 14.65 0.4 14.65 0.0 14.65 -0.4 14.95 -0.7 15.25 -1.0 15.65 -1.0 M36.35 -0.7 L36.65 0.0 36.35 0.7 35.65 1.0 Q35.25 1.0 34.95 0.7 34.65 0.4 34.65 0.0 34.65 -0.4 34.95 -0.7 35.25 -1.0 35.65 -1.0 L36.35 -0.7 M31.35 -0.7 L31.65 0.0 31.35 0.7 30.65 1.0 Q30.25 1.0 29.95 0.7 29.65 0.4 29.65 0.0 29.65 -0.4 29.95 -0.7 30.25 -1.0 30.65 -1.0 L31.35 -0.7 M26.35 -0.7 L26.65 0.0 26.35 0.7 25.65 1.0 24.95 0.7 Q24.65 0.4 24.65 0.0 24.65 -0.4 24.95 -0.7 L25.65 -1.0 26.35 -0.7 M21.35 -0.7 L21.65 0.0 21.35 0.7 20.65 1.0 Q20.25 1.0 19.95 0.7 19.65 0.4 19.65 0.0 19.65 -0.4 19.95 -0.7 20.25 -1.0 20.65 -1.0 L21.35 -0.7 M41.35 -0.7 L41.65 0.0 41.35 0.7 Q41.05 1.0 40.65 1.0 L39.95 0.7 39.65 0.0 39.95 -0.7 40.65 -1.0 Q41.05 -1.0 41.35 -0.7 M45.65 -1.0 L46.35 -0.7 46.65 0.0 46.35 0.7 45.65 1.0 Q45.25 1.0 44.95 0.7 44.65 0.4 44.65 0.0 44.65 -0.4 44.95 -0.7 45.25 -1.0 45.65 -1.0 M50.65 -1.0 L51.35 -0.7 51.65 0.0 51.35 0.7 50.65 1.0 49.95 0.7 Q49.65 0.4 49.65 0.0 49.65 -0.4 49.95 -0.7 L50.65 -1.0 M55.65 -1.0 L56.35 -0.7 56.65 0.0 56.35 0.7 55.65 1.0 54.95 0.7 Q54.65 0.4 54.65 0.0 54.65 -0.4 54.95 -0.7 L55.65 -1.0 M60.65 -1.0 L61.35 -0.7 61.65 0.0 61.35 0.7 60.65 1.0 Q60.25 1.0 59.95 0.7 59.65 0.4 59.65 0.0 59.65 -0.4 59.95 -0.7 60.25 -1.0 60.65 -1.0 M80.65 -1.0 L81.35 -0.7 81.65 0.0 81.35 0.7 80.65 1.0 79.95 0.7 Q79.65 0.4 79.65 0.0 79.65 -0.4 79.95 -0.7 L80.65 -1.0 M76.35 -0.7 L76.65 0.0 76.35 0.7 75.65 1.0 74.95 0.7 Q74.65 0.4 74.65 0.0 74.65 -0.4 74.95 -0.7 L75.65 -1.0 76.35 -0.7 M71.35 -0.7 L71.65 0.0 71.35 0.7 70.65 1.0 Q70.25 1.0 69.95 0.7 L69.65 0.0 69.95 -0.7 Q70.25 -1.0 70.65 -1.0 L71.35 -0.7 M66.35 -0.7 L66.65 0.0 66.35 0.7 65.65 1.0 Q65.25 1.0 64.95 0.7 64.65 0.4 64.65 0.0 64.65 -0.4 64.95 -0.7 65.25 -1.0 65.65 -1.0 L66.35 -0.7 M85.65 -1.0 Q86.05 -1.0 86.35 -0.7 L86.65 0.0 86.35 0.7 Q86.05 1.0 85.65 1.0 L84.95 0.7 Q84.65 0.4 84.65 0.0 84.65 -0.4 84.95 -0.7 L85.65 -1.0 M90.65 -1.0 L91.35 -0.7 91.65 0.0 91.35 0.7 90.65 1.0 Q90.25 1.0 89.95 0.7 89.65 0.4 89.65 0.0 89.65 -0.4 89.95 -0.7 90.25 -1.0 90.65 -1.0 M95.65 -1.0 L96.35 -0.7 96.65 0.0 96.35 0.7 95.65 1.0 Q95.25 1.0 94.95 0.7 94.65 0.4 94.65 0.0 94.65 -0.4 94.95 -0.7 95.25 -1.0 95.65 -1.0" fill="#ffffff" fill-rule="evenodd" stroke="none"/>
  </g>
</svg>
