<?xml version="1.0" encoding="UTF-8" standalone="no"?>
<svg xmlns:ffdec="https://www.free-decompiler.com/flash" xmlns:xlink="http://www.w3.org/1999/xlink" ffdec:objectType="shape" height="2.0px" width="97.0px" xmlns="http://www.w3.org/2000/svg">
  <g transform="matrix(1.0, 0.0, 0.0, 1.0, -2.0, 1.0)">
    <path d="M3.0 -1.0 L3.7 -0.7 4.0 0.0 3.7 0.7 3.0 1.0 Q2.6 1.0 2.3 0.7 2.0 0.4 2.0 0.0 2.0 -0.4 2.3 -0.7 2.6 -1.0 3.0 -1.0 M8.0 -1.0 L8.7 -0.7 9.0 0.0 8.7 0.7 8.0 1.0 Q7.6 1.0 7.3 0.7 7.0 0.4 7.0 0.0 7.0 -0.4 7.3 -0.7 7.6 -1.0 8.0 -1.0 M13.0 -1.0 Q13.4 -1.0 13.7 -0.7 L14.0 0.0 13.7 0.7 Q13.4 1.0 13.0 1.0 L12.3 0.7 Q12.0 0.4 12.0 0.0 12.0 -0.4 12.3 -0.7 L13.0 -1.0 M18.0 -1.0 Q18.4 -1.0 18.7 -0.7 L19.0 0.0 18.7 0.7 Q18.4 1.0 18.0 1.0 L17.3 0.7 Q17.0 0.4 17.0 0.0 17.0 -0.4 17.3 -0.7 L18.0 -1.0 M38.7 -0.7 L39.0 0.0 38.7 0.7 38.0 1.0 Q37.6 1.0 37.3 0.7 37.0 0.4 37.0 0.0 37.0 -0.4 37.3 -0.7 37.6 -1.0 38.0 -1.0 L38.7 -0.7 M33.7 -0.7 L34.0 0.0 33.7 0.7 33.0 1.0 32.3 0.7 Q32.0 0.4 32.0 0.0 32.0 -0.4 32.3 -0.7 L33.0 -1.0 33.7 -0.7 M28.7 -0.7 L29.0 0.0 28.7 0.7 28.0 1.0 Q27.6 1.0 27.3 0.7 27.0 0.4 27.0 0.0 27.0 -0.4 27.3 -0.7 27.6 -1.0 28.0 -1.0 L28.7 -0.7 M23.7 -0.7 L24.0 0.0 23.7 0.7 23.0 1.0 Q22.6 1.0 22.3 0.7 22.0 0.4 22.0 0.0 22.0 -0.4 22.3 -0.7 22.6 -1.0 23.0 -1.0 L23.7 -0.7 M43.0 -1.0 L43.7 -0.7 44.0 0.0 43.7 0.7 43.0 1.0 Q42.6 1.0 42.3 0.7 42.0 0.4 42.0 0.0 42.0 -0.4 42.3 -0.7 42.6 -1.0 43.0 -1.0 M48.0 -1.0 Q48.4 -1.0 48.7 -0.7 L49.0 0.0 48.7 0.7 Q48.4 1.0 48.0 1.0 L47.3 0.7 47.0 0.0 47.3 -0.7 48.0 -1.0 M53.0 -1.0 L53.7 -0.7 54.0 0.0 53.7 0.7 53.0 1.0 Q52.6 1.0 52.3 0.7 52.0 0.4 52.0 0.0 52.0 -0.4 52.3 -0.7 52.6 -1.0 53.0 -1.0 M58.0 -1.0 L58.7 -0.7 59.0 0.0 58.7 0.7 58.0 1.0 57.3 0.7 Q57.0 0.4 57.0 0.0 57.0 -0.4 57.3 -0.7 L58.0 -1.0 M78.7 -0.7 L79.0 0.0 78.7 0.7 78.0 1.0 Q77.6 1.0 77.3 0.7 L77.0 0.0 77.3 -0.7 Q77.6 -1.0 78.0 -1.0 L78.7 -0.7 M73.7 -0.7 L74.0 0.0 73.7 0.7 73.0 1.0 Q72.6 1.0 72.3 0.7 72.0 0.4 72.0 0.0 72.0 -0.4 72.3 -0.7 72.6 -1.0 73.0 -1.0 L73.7 -0.7 M68.7 -0.7 L69.0 0.0 68.7 0.7 68.0 1.0 Q67.6 1.0 67.3 0.7 67.0 0.4 67.0 0.0 67.0 -0.4 67.3 -0.7 67.6 -1.0 68.0 -1.0 L68.7 -0.7 M63.7 -0.7 L64.0 0.0 63.7 0.7 63.0 1.0 62.3 0.7 Q62.0 0.4 62.0 0.0 62.0 -0.4 62.3 -0.7 L63.0 -1.0 63.7 -0.7 M83.0 -1.0 L83.7 -0.7 84.0 0.0 83.7 0.7 83.0 1.0 82.3 0.7 Q82.0 0.4 82.0 0.0 82.0 -0.4 82.3 -0.7 L83.0 -1.0 M88.0 -1.0 L88.7 -0.7 89.0 0.0 88.7 0.7 88.0 1.0 87.3 0.7 Q87.0 0.4 87.0 0.0 87.0 -0.4 87.3 -0.7 L88.0 -1.0 M93.0 -1.0 Q93.4 -1.0 93.7 -0.7 L94.0 0.0 93.7 0.7 Q93.4 1.0 93.0 1.0 L92.3 0.7 Q92.0 0.4 92.0 0.0 92.0 -0.4 92.3 -0.7 L93.0 -1.0 M98.0 -1.0 L98.7 -0.7 99.0 0.0 98.7 0.7 98.0 1.0 Q97.6 1.0 97.3 0.7 97.0 0.4 97.0 0.0 97.0 -0.4 97.3 -0.7 97.6 -1.0 98.0 -1.0" fill="#ffffff" fill-rule="evenodd" stroke="none"/>
  </g>
</svg>
