<?xml version="1.0" encoding="UTF-8" standalone="no"?>
<svg xmlns:ffdec="https://www.free-decompiler.com/flash" xmlns:xlink="http://www.w3.org/1999/xlink" ffdec:objectType="shape" height="2.0px" width="102.0px" xmlns="http://www.w3.org/2000/svg">
  <g transform="matrix(1.0, 0.0, 0.0, 1.0, 0.65, 1.0)">
    <path d="M1.05 -0.7 L1.35 0.0 1.05 0.7 0.35 1.0 -0.35 0.7 -0.65 0.0 -0.35 -0.7 0.35 -1.0 1.05 -0.7 M5.35 -1.0 L6.05 -0.7 6.35 0.0 6.05 0.7 5.35 1.0 Q4.95 1.0 4.65 0.7 4.35 0.4 4.35 0.0 4.35 -0.4 4.65 -0.7 4.95 -1.0 5.35 -1.0 M10.35 -1.0 L11.05 -0.7 11.35 0.0 11.05 0.7 10.35 1.0 Q9.95 1.0 9.65 0.7 9.35 0.4 9.35 0.0 9.35 -0.4 9.65 -0.7 9.95 -1.0 10.35 -1.0 M15.35 -1.0 L16.05 -0.7 16.35 0.0 16.05 0.7 15.35 1.0 Q14.95 1.0 14.65 0.7 14.35 0.4 14.35 0.0 14.35 -0.4 14.65 -0.7 14.95 -1.0 15.35 -1.0 M40.35 -1.0 L41.05 -0.7 41.35 0.0 41.05 0.7 40.35 1.0 39.65 0.7 Q39.35 0.4 39.35 0.0 39.35 -0.4 39.65 -0.7 L40.35 -1.0 M36.05 -0.7 L36.35 0.0 36.05 0.7 35.35 1.0 Q34.95 1.0 34.65 0.7 34.35 0.4 34.35 0.0 34.35 -0.4 34.65 -0.7 34.95 -1.0 35.35 -1.0 L36.05 -0.7 M31.05 -0.7 L31.35 0.0 31.05 0.7 30.35 1.0 Q29.95 1.0 29.65 0.7 29.35 0.4 29.35 0.0 29.35 -0.4 29.65 -0.7 29.95 -1.0 30.35 -1.0 L31.05 -0.7 M26.05 -0.7 L26.35 0.0 26.05 0.7 Q25.75 1.0 25.35 1.0 L24.65 0.7 Q24.35 0.4 24.35 0.0 24.35 -0.4 24.65 -0.7 L25.35 -1.0 Q25.75 -1.0 26.05 -0.7 M21.05 -0.7 L21.35 0.0 21.05 0.7 Q20.75 1.0 20.35 1.0 L19.65 0.7 Q19.35 0.4 19.35 0.0 19.35 -0.4 19.65 -0.7 L20.35 -1.0 Q20.75 -1.0 21.05 -0.7 M45.35 -1.0 L46.05 -0.7 46.35 0.0 46.05 0.7 45.35 1.0 Q44.95 1.0 44.65 0.7 44.35 0.4 44.35 0.0 44.35 -0.4 44.65 -0.7 44.95 -1.0 45.35 -1.0 M50.35 -1.0 L51.05 -0.7 51.35 0.0 51.05 0.7 50.35 1.0 Q49.95 1.0 49.65 0.7 49.35 0.4 49.35 0.0 49.35 -0.4 49.65 -0.7 49.95 -1.0 50.35 -1.0 M55.35 -1.0 Q55.75 -1.0 56.05 -0.7 L56.35 0.0 56.05 0.7 Q55.75 1.0 55.35 1.0 L54.65 0.7 54.35 0.0 54.65 -0.7 55.35 -1.0 M60.35 -1.0 L61.05 -0.7 61.35 0.0 61.05 0.7 60.35 1.0 Q59.95 1.0 59.65 0.7 59.35 0.4 59.35 0.0 59.35 -0.4 59.65 -0.7 59.95 -1.0 60.35 -1.0 M80.35 -1.0 L81.05 -0.7 81.35 0.0 81.05 0.7 80.35 1.0 Q79.95 1.0 79.65 0.7 79.35 0.4 79.35 0.0 79.35 -0.4 79.65 -0.7 79.95 -1.0 80.35 -1.0 M76.05 -0.7 L76.35 0.0 76.05 0.7 75.35 1.0 Q74.95 1.0 74.65 0.7 74.35 0.4 74.35 0.0 74.35 -0.4 74.65 -0.7 74.95 -1.0 75.35 -1.0 L76.05 -0.7 M71.05 -0.7 L71.35 0.0 71.05 0.7 70.35 1.0 69.65 0.7 Q69.35 0.4 69.35 0.0 69.35 -0.4 69.65 -0.7 L70.35 -1.0 71.05 -0.7 M66.05 -0.7 L66.35 0.0 66.05 0.7 65.35 1.0 64.65 0.7 Q64.35 0.4 64.35 0.0 64.35 -0.4 64.65 -0.7 L65.35 -1.0 66.05 -0.7 M85.35 -1.0 L86.05 -0.7 86.35 0.0 86.05 0.7 85.35 1.0 Q84.95 1.0 84.65 0.7 L84.35 0.0 84.65 -0.7 Q84.95 -1.0 85.35 -1.0 M90.35 -1.0 L91.05 -0.7 91.35 0.0 91.05 0.7 90.35 1.0 89.65 0.7 Q89.35 0.4 89.35 0.0 89.35 -0.4 89.65 -0.7 L90.35 -1.0 M95.35 -1.0 L96.05 -0.7 96.35 0.0 96.05 0.7 95.35 1.0 94.65 0.7 Q94.35 0.4 94.35 0.0 94.35 -0.4 94.65 -0.7 L95.35 -1.0 M100.35 -1.0 Q100.75 -1.0 101.05 -0.7 L101.35 0.0 101.05 0.7 Q100.75 1.0 100.35 1.0 L99.65 0.7 Q99.35 0.4 99.35 0.0 99.35 -0.4 99.65 -0.7 L100.35 -1.0" fill="#ffffff" fill-rule="evenodd" stroke="none"/>
  </g>
</svg>
