<?xml version="1.0" encoding="UTF-8" standalone="no"?>
<svg xmlns:ffdec="https://www.free-decompiler.com/flash" xmlns:xlink="http://www.w3.org/1999/xlink" ffdec:objectType="shape" height="2.0px" width="102.0px" xmlns="http://www.w3.org/2000/svg">
  <g transform="matrix(1.0, 0.0, 0.0, 1.0, -1.75, 1.0)">
    <path d="M2.75 -1.0 L3.45 -0.7 3.75 0.0 3.45 0.7 2.75 1.0 Q2.35 1.0 2.05 0.7 1.75 0.4 1.75 0.0 1.75 -0.4 2.05 -0.7 2.35 -1.0 2.75 -1.0 M7.75 -1.0 Q8.15 -1.0 8.45 -0.7 L8.75 0.0 8.45 0.7 Q8.15 1.0 7.75 1.0 L7.05 0.7 Q6.75 0.4 6.75 0.0 6.75 -0.4 7.05 -0.7 L7.75 -1.0 M12.75 -1.0 Q13.15 -1.0 13.45 -0.7 L13.75 0.0 13.45 0.7 Q13.15 1.0 12.75 1.0 L12.05 0.7 Q11.75 0.4 11.75 0.0 11.75 -0.4 12.05 -0.7 L12.75 -1.0 M17.75 -1.0 L18.45 -0.7 18.75 0.0 18.45 0.7 17.75 1.0 Q17.35 1.0 17.05 0.7 16.75 0.4 16.75 0.0 16.75 -0.4 17.05 -0.7 17.35 -1.0 17.75 -1.0 M38.45 -0.7 L38.75 0.0 38.45 0.7 37.75 1.0 Q37.35 1.0 37.05 0.7 36.75 0.4 36.75 0.0 36.75 -0.4 37.05 -0.7 37.35 -1.0 37.75 -1.0 L38.45 -0.7 M33.45 -0.7 L33.75 0.0 33.45 0.7 32.75 1.0 Q32.35 1.0 32.05 0.7 31.75 0.4 31.75 0.0 31.75 -0.4 32.05 -0.7 32.35 -1.0 32.75 -1.0 L33.45 -0.7 M28.45 -0.7 L28.75 0.0 28.45 0.7 27.75 1.0 27.05 0.7 Q26.75 0.4 26.75 0.0 26.75 -0.4 27.05 -0.7 L27.75 -1.0 28.45 -0.7 M23.45 -0.7 L23.75 0.0 23.45 0.7 22.75 1.0 Q22.35 1.0 22.05 0.7 21.75 0.4 21.75 0.0 21.75 -0.4 22.05 -0.7 22.35 -1.0 22.75 -1.0 L23.45 -0.7 M42.75 -1.0 Q43.15 -1.0 43.45 -0.7 L43.75 0.0 43.45 0.7 Q43.15 1.0 42.75 1.0 L42.05 0.7 41.75 0.0 42.05 -0.7 42.75 -1.0 M47.75 -1.0 L48.45 -0.7 48.75 0.0 48.45 0.7 47.75 1.0 Q47.35 1.0 47.05 0.7 46.75 0.4 46.75 0.0 46.75 -0.4 47.05 -0.7 47.35 -1.0 47.75 -1.0 M52.75 -1.0 L53.45 -0.7 53.75 0.0 53.45 0.7 52.75 1.0 52.05 0.7 Q51.75 0.4 51.75 0.0 51.75 -0.4 52.05 -0.7 L52.75 -1.0 M57.75 -1.0 L58.45 -0.7 58.75 0.0 58.45 0.7 57.75 1.0 57.05 0.7 Q56.75 0.4 56.75 0.0 56.75 -0.4 57.05 -0.7 L57.75 -1.0 M78.45 -0.7 L78.75 0.0 78.45 0.7 77.75 1.0 77.05 0.7 Q76.75 0.4 76.75 0.0 76.75 -0.4 77.05 -0.7 L77.75 -1.0 78.45 -0.7 M73.45 -0.7 L73.75 0.0 73.45 0.7 72.75 1.0 Q72.35 1.0 72.05 0.7 L71.75 0.0 72.05 -0.7 Q72.35 -1.0 72.75 -1.0 L73.45 -0.7 M68.45 -0.7 L68.75 0.0 68.45 0.7 67.75 1.0 Q67.35 1.0 67.05 0.7 66.75 0.4 66.75 0.0 66.75 -0.4 67.05 -0.7 67.35 -1.0 67.75 -1.0 L68.45 -0.7 M63.45 -0.7 L63.75 0.0 63.45 0.7 62.75 1.0 Q62.35 1.0 62.05 0.7 61.75 0.4 61.75 0.0 61.75 -0.4 62.05 -0.7 62.35 -1.0 62.75 -1.0 L63.45 -0.7 M82.75 -1.0 L83.45 -0.7 83.75 0.0 83.45 0.7 82.75 1.0 82.05 0.7 Q81.75 0.4 81.75 0.0 81.75 -0.4 82.05 -0.7 L82.75 -1.0 M98.45 -0.7 L98.75 0.0 98.45 0.7 97.75 1.0 Q97.35 1.0 97.05 0.7 96.75 0.4 96.75 0.0 96.75 -0.4 97.05 -0.7 97.35 -1.0 97.75 -1.0 L98.45 -0.7 M93.45 -0.7 L93.75 0.0 93.45 0.7 92.75 1.0 Q92.35 1.0 92.05 0.7 91.75 0.4 91.75 0.0 91.75 -0.4 92.05 -0.7 92.35 -1.0 92.75 -1.0 L93.45 -0.7 M88.45 -0.7 L88.75 0.0 88.45 0.7 Q88.15 1.0 87.75 1.0 L87.05 0.7 Q86.75 0.4 86.75 0.0 86.75 -0.4 87.05 -0.7 L87.75 -1.0 Q88.15 -1.0 88.45 -0.7 M103.45 -0.7 L103.75 0.0 103.45 0.7 102.75 1.0 Q102.35 1.0 102.05 0.7 101.75 0.4 101.75 0.0 101.75 -0.4 102.05 -0.7 102.35 -1.0 102.75 -1.0 L103.45 -0.7" fill="#ffffff" fill-rule="evenodd" stroke="none"/>
  </g>
</svg>
