<?xml version="1.0" encoding="UTF-8" standalone="no"?>
<svg xmlns:ffdec="https://www.free-decompiler.com/flash" xmlns:xlink="http://www.w3.org/1999/xlink" ffdec:objectType="shape" height="2.0px" width="112.0px" xmlns="http://www.w3.org/2000/svg">
  <g transform="matrix(1.0, 0.0, 0.0, 1.0, -3.5, 1.0)">
    <path d="M4.5 -1.0 L5.2 -0.7 5.5 0.0 5.2 0.7 4.5 1.0 Q4.1 1.0 3.8 0.7 L3.5 0.0 3.8 -0.7 Q4.1 -1.0 4.5 -1.0 M9.5 -1.0 L10.2 -0.7 10.5 0.0 10.2 0.7 9.5 1.0 8.8 0.7 Q8.5 0.4 8.5 0.0 8.5 -0.4 8.8 -0.7 L9.5 -1.0 M14.5 -1.0 L15.2 -0.7 15.5 0.0 15.2 0.7 14.5 1.0 13.8 0.7 Q13.5 0.4 13.5 0.0 13.5 -0.4 13.8 -0.7 L14.5 -1.0 M19.5 -1.0 Q19.9 -1.0 20.2 -0.7 L20.5 0.0 20.2 0.7 Q19.9 1.0 19.5 1.0 L18.8 0.7 Q18.5 0.4 18.5 0.0 18.5 -0.4 18.8 -0.7 L19.5 -1.0 M40.2 -0.7 L40.5 0.0 40.2 0.7 39.5 1.0 Q39.1 1.0 38.8 0.7 38.5 0.4 38.5 0.0 38.5 -0.4 38.8 -0.7 39.1 -1.0 39.5 -1.0 L40.2 -0.7 M35.2 -0.7 L35.5 0.0 35.2 0.7 34.5 1.0 Q34.1 1.0 33.8 0.7 33.5 0.4 33.5 0.0 33.5 -0.4 33.8 -0.7 34.1 -1.0 34.5 -1.0 L35.2 -0.7 M30.2 -0.7 L30.5 0.0 30.2 0.7 29.5 1.0 Q29.1 1.0 28.8 0.7 28.5 0.4 28.5 0.0 28.5 -0.4 28.8 -0.7 29.1 -1.0 29.5 -1.0 L30.2 -0.7 M25.2 -0.7 L25.5 0.0 25.2 0.7 24.5 1.0 Q24.1 1.0 23.8 0.7 23.5 0.4 23.5 0.0 23.5 -0.4 23.8 -0.7 24.1 -1.0 24.5 -1.0 L25.2 -0.7 M44.5 -1.0 Q44.9 -1.0 45.2 -0.7 L45.5 0.0 45.2 0.7 Q44.9 1.0 44.5 1.0 L43.8 0.7 Q43.5 0.4 43.5 0.0 43.5 -0.4 43.8 -0.7 L44.5 -1.0 M49.5 -1.0 Q49.9 -1.0 50.2 -0.7 L50.5 0.0 50.2 0.7 Q49.9 1.0 49.5 1.0 L48.8 0.7 Q48.5 0.4 48.5 0.0 48.5 -0.4 48.8 -0.7 L49.5 -1.0 M54.5 -1.0 L55.2 -0.7 55.5 0.0 55.2 0.7 54.5 1.0 Q54.1 1.0 53.8 0.7 53.5 0.4 53.5 0.0 53.5 -0.4 53.8 -0.7 54.1 -1.0 54.5 -1.0 M59.5 -1.0 L60.2 -0.7 60.5 0.0 60.2 0.7 59.5 1.0 Q59.1 1.0 58.8 0.7 58.5 0.4 58.5 0.0 58.5 -0.4 58.8 -0.7 59.1 -1.0 59.5 -1.0 M80.2 -0.7 L80.5 0.0 80.2 0.7 Q79.9 1.0 79.5 1.0 L78.8 0.7 78.5 0.0 78.8 -0.7 79.5 -1.0 Q79.9 -1.0 80.2 -0.7 M75.2 -0.7 L75.5 0.0 75.2 0.7 74.5 1.0 Q74.1 1.0 73.8 0.7 73.5 0.4 73.5 0.0 73.5 -0.4 73.8 -0.7 74.1 -1.0 74.5 -1.0 L75.2 -0.7 M70.2 -0.7 L70.5 0.0 70.2 0.7 69.5 1.0 Q69.1 1.0 68.8 0.7 68.5 0.4 68.5 0.0 68.5 -0.4 68.8 -0.7 69.1 -1.0 69.5 -1.0 L70.2 -0.7 M65.2 -0.7 L65.5 0.0 65.2 0.7 64.5 1.0 63.8 0.7 Q63.5 0.4 63.5 0.0 63.5 -0.4 63.8 -0.7 L64.5 -1.0 65.2 -0.7 M84.5 -1.0 L85.2 -0.7 85.5 0.0 85.2 0.7 84.5 1.0 Q84.1 1.0 83.8 0.7 83.5 0.4 83.5 0.0 83.5 -0.4 83.8 -0.7 84.1 -1.0 84.5 -1.0 M89.5 -1.0 L90.2 -0.7 90.5 0.0 90.2 0.7 89.5 1.0 88.8 0.7 Q88.5 0.4 88.5 0.0 88.5 -0.4 88.8 -0.7 L89.5 -1.0 M94.5 -1.0 L95.2 -0.7 95.5 0.0 95.2 0.7 94.5 1.0 93.8 0.7 Q93.5 0.4 93.5 0.0 93.5 -0.4 93.8 -0.7 L94.5 -1.0 M100.2 -0.7 L100.5 0.0 100.2 0.7 99.5 1.0 Q99.1 1.0 98.8 0.7 98.5 0.4 98.5 0.0 98.5 -0.4 98.8 -0.7 99.1 -1.0 99.5 -1.0 L100.2 -0.7 M115.2 -0.7 L115.5 0.0 115.2 0.7 114.5 1.0 113.8 0.7 Q113.5 0.4 113.5 0.0 113.5 -0.4 113.8 -0.7 L114.5 -1.0 115.2 -0.7 M110.2 -0.7 L110.5 0.0 110.2 0.7 109.5 1.0 Q109.1 1.0 108.8 0.7 L108.5 0.0 108.8 -0.7 Q109.1 -1.0 109.5 -1.0 L110.2 -0.7 M105.2 -0.7 L105.5 0.0 105.2 0.7 104.5 1.0 Q104.1 1.0 103.8 0.7 103.5 0.4 103.5 0.0 103.5 -0.4 103.8 -0.7 104.1 -1.0 104.5 -1.0 L105.2 -0.7" fill="#ffffff" fill-rule="evenodd" stroke="none"/>
  </g>
</svg>
