<?xml version="1.0" encoding="UTF-8" standalone="no"?>
<svg xmlns:ffdec="https://www.free-decompiler.com/flash" xmlns:xlink="http://www.w3.org/1999/xlink" ffdec:objectType="shape" height="2.0px" width="127.0px" xmlns="http://www.w3.org/2000/svg">
  <g transform="matrix(1.0, 0.0, 0.0, 1.0, -0.25, 1.0)">
    <path d="M1.25 -1.0 L1.95 -0.7 2.25 0.0 1.95 0.7 1.25 1.0 Q0.85 1.0 0.55 0.7 0.25 0.4 0.25 0.0 0.25 -0.4 0.55 -0.7 0.85 -1.0 1.25 -1.0 M6.25 -1.0 L6.95 -0.7 7.25 0.0 6.95 0.7 6.25 1.0 Q5.85 1.0 5.55 0.7 5.25 0.4 5.25 0.0 5.25 -0.4 5.55 -0.7 5.85 -1.0 6.25 -1.0 M11.25 -1.0 Q11.65 -1.0 11.95 -0.7 L12.25 0.0 11.95 0.7 Q11.65 1.0 11.25 1.0 L10.55 0.7 10.25 0.0 10.55 -0.7 11.25 -1.0 M16.25 -1.0 L16.95 -0.7 17.25 0.0 16.95 0.7 16.25 1.0 Q15.85 1.0 15.55 0.7 15.25 0.4 15.25 0.0 15.25 -0.4 15.55 -0.7 15.85 -1.0 16.25 -1.0 M36.95 -0.7 L37.25 0.0 36.95 0.7 36.25 1.0 Q35.85 1.0 35.55 0.7 35.25 0.4 35.25 0.0 35.25 -0.4 35.55 -0.7 35.85 -1.0 36.25 -1.0 L36.95 -0.7 M31.95 -0.7 L32.25 0.0 31.95 0.7 31.25 1.0 Q30.85 1.0 30.55 0.7 30.25 0.4 30.25 0.0 30.25 -0.4 30.55 -0.7 30.85 -1.0 31.25 -1.0 L31.95 -0.7 M26.95 -0.7 L27.25 0.0 26.95 0.7 26.25 1.0 25.55 0.7 Q25.25 0.4 25.25 0.0 25.25 -0.4 25.55 -0.7 L26.25 -1.0 26.95 -0.7 M21.95 -0.7 L22.25 0.0 21.95 0.7 21.25 1.0 20.55 0.7 Q20.25 0.4 20.25 0.0 20.25 -0.4 20.55 -0.7 L21.25 -1.0 21.95 -0.7 M41.25 -1.0 L41.95 -0.7 42.25 0.0 41.95 0.7 41.25 1.0 Q40.85 1.0 40.55 0.7 L40.25 0.0 40.55 -0.7 Q40.85 -1.0 41.25 -1.0 M46.25 -1.0 L46.95 -0.7 47.25 0.0 46.95 0.7 46.25 1.0 45.55 0.7 Q45.25 0.4 45.25 0.0 45.25 -0.4 45.55 -0.7 L46.25 -1.0 M51.25 -1.0 L51.95 -0.7 52.25 0.0 51.95 0.7 51.25 1.0 50.55 0.7 Q50.25 0.4 50.25 0.0 50.25 -0.4 50.55 -0.7 L51.25 -1.0 M56.25 -1.0 Q56.65 -1.0 56.95 -0.7 L57.25 0.0 56.95 0.7 Q56.65 1.0 56.25 1.0 L55.55 0.7 Q55.25 0.4 55.25 0.0 55.25 -0.4 55.55 -0.7 L56.25 -1.0 M76.95 -0.7 L77.25 0.0 76.95 0.7 76.25 1.0 Q75.85 1.0 75.55 0.7 75.25 0.4 75.25 0.0 75.25 -0.4 75.55 -0.7 75.85 -1.0 76.25 -1.0 L76.95 -0.7 M71.95 -0.7 L72.25 0.0 71.95 0.7 71.25 1.0 Q70.85 1.0 70.55 0.7 70.25 0.4 70.25 0.0 70.25 -0.4 70.55 -0.7 70.85 -1.0 71.25 -1.0 L71.95 -0.7 M66.95 -0.7 L67.25 0.0 66.95 0.7 66.25 1.0 Q65.85 1.0 65.55 0.7 65.25 0.4 65.25 0.0 65.25 -0.4 65.55 -0.7 65.85 -1.0 66.25 -1.0 L66.95 -0.7 M61.95 -0.7 L62.25 0.0 61.95 0.7 61.25 1.0 Q60.85 1.0 60.55 0.7 60.25 0.4 60.25 0.0 60.25 -0.4 60.55 -0.7 60.85 -1.0 61.25 -1.0 L61.95 -0.7 M81.95 -0.7 L82.25 0.0 81.95 0.7 Q81.65 1.0 81.25 1.0 L80.55 0.7 Q80.25 0.4 80.25 0.0 80.25 -0.4 80.55 -0.7 L81.25 -1.0 Q81.65 -1.0 81.95 -0.7 M86.25 -1.0 Q86.65 -1.0 86.95 -0.7 L87.25 0.0 86.95 0.7 Q86.65 1.0 86.25 1.0 L85.55 0.7 Q85.25 0.4 85.25 0.0 85.25 -0.4 85.55 -0.7 L86.25 -1.0 M91.25 -1.0 L91.95 -0.7 92.25 0.0 91.95 0.7 91.25 1.0 Q90.85 1.0 90.55 0.7 90.25 0.4 90.25 0.0 90.25 -0.4 90.55 -0.7 90.85 -1.0 91.25 -1.0 M96.25 -1.0 L96.95 -0.7 97.25 0.0 96.95 0.7 96.25 1.0 Q95.85 1.0 95.55 0.7 95.25 0.4 95.25 0.0 95.25 -0.4 95.55 -0.7 95.85 -1.0 96.25 -1.0 M121.25 -1.0 L121.95 -0.7 122.25 0.0 121.95 0.7 121.25 1.0 Q120.85 1.0 120.55 0.7 120.25 0.4 120.25 0.0 120.25 -0.4 120.55 -0.7 120.85 -1.0 121.25 -1.0 M116.95 -0.7 L117.25 0.0 116.95 0.7 Q116.65 1.0 116.25 1.0 L115.55 0.7 115.25 0.0 115.55 -0.7 116.25 -1.0 Q116.65 -1.0 116.95 -0.7 M111.95 -0.7 L112.25 0.0 111.95 0.7 111.25 1.0 Q110.85 1.0 110.55 0.7 110.25 0.4 110.25 0.0 110.25 -0.4 110.55 -0.7 110.85 -1.0 111.25 -1.0 L111.95 -0.7 M106.95 -0.7 L107.25 0.0 106.95 0.7 106.25 1.0 Q105.85 1.0 105.55 0.7 105.25 0.4 105.25 0.0 105.25 -0.4 105.55 -0.7 105.85 -1.0 106.25 -1.0 L106.95 -0.7 M101.95 -0.7 L102.25 0.0 101.95 0.7 101.25 1.0 100.55 0.7 Q100.25 0.4 100.25 0.0 100.25 -0.4 100.55 -0.7 L101.25 -1.0 101.95 -0.7 M126.25 -1.0 L126.95 -0.7 127.25 0.0 126.95 0.7 126.25 1.0 125.55 0.7 Q125.25 0.4 125.25 0.0 125.25 -0.4 125.55 -0.7 L126.25 -1.0" fill="#ffffff" fill-rule="evenodd" stroke="none"/>
  </g>
</svg>
