<?xml version="1.0" encoding="UTF-8" standalone="no"?>
<svg xmlns:ffdec="https://www.free-decompiler.com/flash" xmlns:xlink="http://www.w3.org/1999/xlink" ffdec:objectType="shape" height="2.0px" width="127.0px" xmlns="http://www.w3.org/2000/svg">
  <g transform="matrix(1.0, 0.0, 0.0, 1.0, -2.6, 1.0)">
    <path d="M3.6 -1.0 L4.3 -0.7 4.6 0.0 4.3 0.7 3.6 1.0 2.9 0.7 Q2.6 0.4 2.6 0.0 2.6 -0.4 2.9 -0.7 L3.6 -1.0 M8.6 -1.0 L9.3 -0.7 9.6 0.0 9.3 0.7 8.6 1.0 Q8.2 1.0 7.9 0.7 7.6 0.4 7.6 0.0 7.6 -0.4 7.9 -0.7 8.2 -1.0 8.6 -1.0 M13.6 -1.0 L14.3 -0.7 14.6 0.0 14.3 0.7 13.6 1.0 Q13.2 1.0 12.9 0.7 12.6 0.4 12.6 0.0 12.6 -0.4 12.9 -0.7 13.2 -1.0 13.6 -1.0 M18.6 -1.0 Q19.0 -1.0 19.3 -0.7 L19.6 0.0 19.3 0.7 Q19.0 1.0 18.6 1.0 L17.9 0.7 17.6 0.0 17.9 -0.7 18.6 -1.0 M39.3 -0.7 L39.6 0.0 39.3 0.7 38.6 1.0 Q38.2 1.0 37.9 0.7 37.6 0.4 37.6 0.0 37.6 -0.4 37.9 -0.7 38.2 -1.0 38.6 -1.0 L39.3 -0.7 M34.3 -0.7 L34.6 0.0 34.3 0.7 33.6 1.0 32.9 0.7 Q32.6 0.4 32.6 0.0 32.6 -0.4 32.9 -0.7 L33.6 -1.0 34.3 -0.7 M29.3 -0.7 L29.6 0.0 29.3 0.7 28.6 1.0 27.9 0.7 Q27.6 0.4 27.6 0.0 27.6 -0.4 27.9 -0.7 L28.6 -1.0 29.3 -0.7 M24.3 -0.7 L24.6 0.0 24.3 0.7 23.6 1.0 Q23.2 1.0 22.9 0.7 22.6 0.4 22.6 0.0 22.6 -0.4 22.9 -0.7 23.2 -1.0 23.6 -1.0 L24.3 -0.7 M43.6 -1.0 L44.3 -0.7 44.6 0.0 44.3 0.7 43.6 1.0 Q43.2 1.0 42.9 0.7 42.6 0.4 42.6 0.0 42.6 -0.4 42.9 -0.7 43.2 -1.0 43.6 -1.0 M48.6 -1.0 L49.3 -0.7 49.6 0.0 49.3 0.7 48.6 1.0 Q48.2 1.0 47.9 0.7 L47.6 0.0 47.9 -0.7 Q48.2 -1.0 48.6 -1.0 M53.6 -1.0 L54.3 -0.7 54.6 0.0 54.3 0.7 53.6 1.0 52.9 0.7 Q52.6 0.4 52.6 0.0 52.6 -0.4 52.9 -0.7 L53.6 -1.0 M58.6 -1.0 L59.3 -0.7 59.6 0.0 59.3 0.7 58.6 1.0 57.9 0.7 Q57.6 0.4 57.6 0.0 57.6 -0.4 57.9 -0.7 L58.6 -1.0 M79.3 -0.7 L79.6 0.0 79.3 0.7 78.6 1.0 Q78.2 1.0 77.9 0.7 77.6 0.4 77.6 0.0 77.6 -0.4 77.9 -0.7 78.2 -1.0 78.6 -1.0 L79.3 -0.7 M74.3 -0.7 L74.6 0.0 74.3 0.7 73.6 1.0 Q73.2 1.0 72.9 0.7 72.6 0.4 72.6 0.0 72.6 -0.4 72.9 -0.7 73.2 -1.0 73.6 -1.0 L74.3 -0.7 M69.3 -0.7 L69.6 0.0 69.3 0.7 68.6 1.0 Q68.2 1.0 67.9 0.7 67.6 0.4 67.6 0.0 67.6 -0.4 67.9 -0.7 68.2 -1.0 68.6 -1.0 L69.3 -0.7 M64.3 -0.7 L64.6 0.0 64.3 0.7 Q64.0 1.0 63.6 1.0 L62.9 0.7 Q62.6 0.4 62.6 0.0 62.6 -0.4 62.9 -0.7 L63.6 -1.0 Q64.0 -1.0 64.3 -0.7 M83.6 -1.0 L84.3 -0.7 84.6 0.0 84.3 0.7 83.6 1.0 Q83.2 1.0 82.9 0.7 82.6 0.4 82.6 0.0 82.6 -0.4 82.9 -0.7 83.2 -1.0 83.6 -1.0 M88.6 -1.0 Q89.0 -1.0 89.3 -0.7 L89.6 0.0 89.3 0.7 Q89.0 1.0 88.6 1.0 L87.9 0.7 Q87.6 0.4 87.6 0.0 87.6 -0.4 87.9 -0.7 L88.6 -1.0 M93.6 -1.0 Q94.0 -1.0 94.3 -0.7 L94.6 0.0 94.3 0.7 Q94.0 1.0 93.6 1.0 L92.9 0.7 Q92.6 0.4 92.6 0.0 92.6 -0.4 92.9 -0.7 L93.6 -1.0 M98.6 -1.0 L99.3 -0.7 99.6 0.0 99.3 0.7 98.6 1.0 Q98.2 1.0 97.9 0.7 97.6 0.4 97.6 0.0 97.6 -0.4 97.9 -0.7 98.2 -1.0 98.6 -1.0 M119.3 -0.7 L119.6 0.0 119.3 0.7 118.6 1.0 Q118.2 1.0 117.9 0.7 117.6 0.4 117.6 0.0 117.6 -0.4 117.9 -0.7 118.2 -1.0 118.6 -1.0 L119.3 -0.7 M114.3 -0.7 L114.6 0.0 114.3 0.7 113.6 1.0 Q113.2 1.0 112.9 0.7 112.6 0.4 112.6 0.0 112.6 -0.4 112.9 -0.7 113.2 -1.0 113.6 -1.0 L114.3 -0.7 M109.3 -0.7 L109.6 0.0 109.3 0.7 108.6 1.0 107.9 0.7 Q107.6 0.4 107.6 0.0 107.6 -0.4 107.9 -0.7 L108.6 -1.0 109.3 -0.7 M104.3 -0.7 L104.6 0.0 104.3 0.7 103.6 1.0 Q103.2 1.0 102.9 0.7 102.6 0.4 102.6 0.0 102.6 -0.4 102.9 -0.7 103.2 -1.0 103.6 -1.0 L104.3 -0.7 M123.6 -1.0 Q124.0 -1.0 124.3 -0.7 L124.6 0.0 124.3 0.7 Q124.0 1.0 123.6 1.0 L122.9 0.7 122.6 0.0 122.9 -0.7 123.6 -1.0 M128.6 -1.0 L129.3 -0.7 129.6 0.0 129.3 0.7 128.6 1.0 Q128.2 1.0 127.9 0.7 127.6 0.4 127.6 0.0 127.6 -0.4 127.9 -0.7 128.2 -1.0 128.6 -1.0" fill="#ffffff" fill-rule="evenodd" stroke="none"/>
  </g>
</svg>
