<?xml version="1.0" encoding="UTF-8" standalone="no"?>
<svg xmlns:ffdec="https://www.free-decompiler.com/flash" xmlns:xlink="http://www.w3.org/1999/xlink" ffdec:objectType="shape" height="2.0px" width="132.0px" xmlns="http://www.w3.org/2000/svg">
  <g transform="matrix(1.0, 0.0, 0.0, 1.0, -2.3, 1.0)">
    <path d="M3.3 -1.0 Q3.7 -1.0 4.0 -0.7 L4.3 0.0 4.0 0.7 Q3.7 1.0 3.3 1.0 L2.6 0.7 Q2.3 0.4 2.3 0.0 2.3 -0.4 2.6 -0.7 L3.3 -1.0 M8.3 -1.0 L9.0 -0.7 9.3 0.0 9.0 0.7 8.3 1.0 Q7.9 1.0 7.6 0.7 7.3 0.4 7.3 0.0 7.3 -0.4 7.6 -0.7 7.9 -1.0 8.3 -1.0 M13.3 -1.0 L14.0 -0.7 14.3 0.0 14.0 0.7 13.3 1.0 Q12.9 1.0 12.6 0.7 12.3 0.4 12.3 0.0 12.3 -0.4 12.6 -0.7 12.9 -1.0 13.3 -1.0 M18.3 -1.0 L19.0 -0.7 19.3 0.0 19.0 0.7 18.3 1.0 17.6 0.7 Q17.3 0.4 17.3 0.0 17.3 -0.4 17.6 -0.7 L18.3 -1.0 M39.0 -0.7 L39.3 0.0 39.0 0.7 38.3 1.0 Q37.9 1.0 37.6 0.7 37.3 0.4 37.3 0.0 37.3 -0.4 37.6 -0.7 37.9 -1.0 38.3 -1.0 L39.0 -0.7 M34.0 -0.7 L34.3 0.0 34.0 0.7 Q33.7 1.0 33.3 1.0 L32.6 0.7 32.3 0.0 32.6 -0.7 33.3 -1.0 Q33.7 -1.0 34.0 -0.7 M29.0 -0.7 L29.3 0.0 29.0 0.7 28.3 1.0 Q27.9 1.0 27.6 0.7 27.3 0.4 27.3 0.0 27.3 -0.4 27.6 -0.7 27.9 -1.0 28.3 -1.0 L29.0 -0.7 M24.0 -0.7 L24.3 0.0 24.0 0.7 23.3 1.0 Q22.9 1.0 22.6 0.7 22.3 0.4 22.3 0.0 22.3 -0.4 22.6 -0.7 22.9 -1.0 23.3 -1.0 L24.0 -0.7 M43.3 -1.0 L44.0 -0.7 44.3 0.0 44.0 0.7 43.3 1.0 42.6 0.7 Q42.3 0.4 42.3 0.0 42.3 -0.4 42.6 -0.7 L43.3 -1.0 M48.3 -1.0 L49.0 -0.7 49.3 0.0 49.0 0.7 48.3 1.0 47.6 0.7 Q47.3 0.4 47.3 0.0 47.3 -0.4 47.6 -0.7 L48.3 -1.0 M53.3 -1.0 L54.0 -0.7 54.3 0.0 54.0 0.7 53.3 1.0 Q52.9 1.0 52.6 0.7 52.3 0.4 52.3 0.0 52.3 -0.4 52.6 -0.7 52.9 -1.0 53.3 -1.0 M58.3 -1.0 L59.0 -0.7 59.3 0.0 59.0 0.7 58.3 1.0 Q57.9 1.0 57.6 0.7 57.3 0.4 57.3 0.0 57.3 -0.4 57.6 -0.7 57.9 -1.0 58.3 -1.0 M79.0 -0.7 L79.3 0.0 79.0 0.7 Q78.7 1.0 78.3 1.0 L77.6 0.7 Q77.3 0.4 77.3 0.0 77.3 -0.4 77.6 -0.7 L78.3 -1.0 Q78.7 -1.0 79.0 -0.7 M74.0 -0.7 L74.3 0.0 74.0 0.7 73.3 1.0 72.6 0.7 Q72.3 0.4 72.3 0.0 72.3 -0.4 72.6 -0.7 L73.3 -1.0 74.0 -0.7 M69.0 -0.7 L69.3 0.0 69.0 0.7 68.3 1.0 67.6 0.7 Q67.3 0.4 67.3 0.0 67.3 -0.4 67.6 -0.7 L68.3 -1.0 69.0 -0.7 M64.0 -0.7 L64.3 0.0 64.0 0.7 63.3 1.0 Q62.9 1.0 62.6 0.7 L62.3 0.0 62.6 -0.7 Q62.9 -1.0 63.3 -1.0 L64.0 -0.7 M83.3 -1.0 L84.0 -0.7 84.3 0.0 84.0 0.7 83.3 1.0 Q82.9 1.0 82.6 0.7 82.3 0.4 82.3 0.0 82.3 -0.4 82.6 -0.7 82.9 -1.0 83.3 -1.0 M88.3 -1.0 L89.0 -0.7 89.3 0.0 89.0 0.7 88.3 1.0 Q87.9 1.0 87.6 0.7 87.3 0.4 87.3 0.0 87.3 -0.4 87.6 -0.7 87.9 -1.0 88.3 -1.0 M93.3 -1.0 L94.0 -0.7 94.3 0.0 94.0 0.7 93.3 1.0 Q92.9 1.0 92.6 0.7 92.3 0.4 92.3 0.0 92.3 -0.4 92.6 -0.7 92.9 -1.0 93.3 -1.0 M98.3 -1.0 L99.0 -0.7 99.3 0.0 99.0 0.7 98.3 1.0 Q97.9 1.0 97.6 0.7 97.3 0.4 97.3 0.0 97.3 -0.4 97.6 -0.7 97.9 -1.0 98.3 -1.0 M119.0 -0.7 L119.3 0.0 119.0 0.7 118.3 1.0 Q117.9 1.0 117.6 0.7 117.3 0.4 117.3 0.0 117.3 -0.4 117.6 -0.7 117.9 -1.0 118.3 -1.0 L119.0 -0.7 M114.0 -0.7 L114.3 0.0 114.0 0.7 113.3 1.0 Q112.9 1.0 112.6 0.7 112.3 0.4 112.3 0.0 112.3 -0.4 112.6 -0.7 112.9 -1.0 113.3 -1.0 L114.0 -0.7 M109.0 -0.7 L109.3 0.0 109.0 0.7 Q108.7 1.0 108.3 1.0 L107.6 0.7 Q107.3 0.4 107.3 0.0 107.3 -0.4 107.6 -0.7 L108.3 -1.0 Q108.7 -1.0 109.0 -0.7 M104.0 -0.7 L104.3 0.0 104.0 0.7 Q103.7 1.0 103.3 1.0 L102.6 0.7 Q102.3 0.4 102.3 0.0 102.3 -0.4 102.6 -0.7 L103.3 -1.0 Q103.7 -1.0 104.0 -0.7 M123.3 -1.0 L124.0 -0.7 124.3 0.0 124.0 0.7 123.3 1.0 122.6 0.7 Q122.3 0.4 122.3 0.0 122.3 -0.4 122.6 -0.7 L123.3 -1.0 M128.3 -1.0 L129.0 -0.7 129.3 0.0 129.0 0.7 128.3 1.0 Q127.9 1.0 127.6 0.7 127.3 0.4 127.3 0.0 127.3 -0.4 127.6 -0.7 127.9 -1.0 128.3 -1.0 M133.3 -1.0 L134.0 -0.7 134.3 0.0 134.0 0.7 133.3 1.0 Q132.9 1.0 132.6 0.7 132.3 0.4 132.3 0.0 132.3 -0.4 132.6 -0.7 132.9 -1.0 133.3 -1.0" fill="#ffffff" fill-rule="evenodd" stroke="none"/>
  </g>
</svg>
