<?xml version="1.0" encoding="UTF-8" standalone="no"?>
<svg xmlns:ffdec="https://www.free-decompiler.com/flash" xmlns:xlink="http://www.w3.org/1999/xlink" ffdec:objectType="shape" height="2.0px" width="137.0px" xmlns="http://www.w3.org/2000/svg">
  <g transform="matrix(1.0, 0.0, 0.0, 1.0, 0.3, 1.0)">
    <path d="M0.7 -1.0 L1.4 -0.7 1.7 0.0 1.4 0.7 0.7 1.0 Q0.3 1.0 0.0 0.7 L-0.3 0.0 0.0 -0.7 Q0.3 -1.0 0.7 -1.0 M5.7 -1.0 L6.4 -0.7 6.7 0.0 6.4 0.7 5.7 1.0 5.0 0.7 Q4.7 0.4 4.7 0.0 4.7 -0.4 5.0 -0.7 L5.7 -1.0 M10.7 -1.0 L11.4 -0.7 11.7 0.0 11.4 0.7 10.7 1.0 Q10.3 1.0 10.0 0.7 9.7 0.4 9.7 0.0 9.7 -0.4 10.0 -0.7 10.3 -1.0 10.7 -1.0 M15.7 -1.0 L16.4 -0.7 16.7 0.0 16.4 0.7 15.7 1.0 Q15.3 1.0 15.0 0.7 14.7 0.4 14.7 0.0 14.7 -0.4 15.0 -0.7 15.3 -1.0 15.7 -1.0 M36.4 -0.7 L36.7 0.0 36.4 0.7 35.7 1.0 35.0 0.7 Q34.7 0.4 34.7 0.0 34.7 -0.4 35.0 -0.7 L35.7 -1.0 36.4 -0.7 M31.4 -0.7 L31.7 0.0 31.4 0.7 30.7 1.0 30.0 0.7 Q29.7 0.4 29.7 0.0 29.7 -0.4 30.0 -0.7 L30.7 -1.0 31.4 -0.7 M26.4 -0.7 L26.7 0.0 26.4 0.7 25.7 1.0 Q25.3 1.0 25.0 0.7 24.7 0.4 24.7 0.0 24.7 -0.4 25.0 -0.7 25.3 -1.0 25.7 -1.0 L26.4 -0.7 M21.4 -0.7 L21.7 0.0 21.4 0.7 Q21.1 1.0 20.7 1.0 L20.0 0.7 19.7 0.0 20.0 -0.7 20.7 -1.0 Q21.1 -1.0 21.4 -0.7 M41.4 -0.7 L41.7 0.0 41.4 0.7 40.7 1.0 Q40.3 1.0 40.0 0.7 39.7 0.4 39.7 0.0 39.7 -0.4 40.0 -0.7 40.3 -1.0 40.7 -1.0 L41.4 -0.7 M45.7 -1.0 L46.4 -0.7 46.7 0.0 46.4 0.7 45.7 1.0 Q45.3 1.0 45.0 0.7 44.7 0.4 44.7 0.0 44.7 -0.4 45.0 -0.7 45.3 -1.0 45.7 -1.0 M50.7 -1.0 L51.4 -0.7 51.7 0.0 51.4 0.7 50.7 1.0 Q50.3 1.0 50.0 0.7 L49.7 0.0 50.0 -0.7 Q50.3 -1.0 50.7 -1.0 M55.7 -1.0 L56.4 -0.7 56.7 0.0 56.4 0.7 55.7 1.0 55.0 0.7 Q54.7 0.4 54.7 0.0 54.7 -0.4 55.0 -0.7 L55.7 -1.0 M60.7 -1.0 L61.4 -0.7 61.7 0.0 61.4 0.7 60.7 1.0 60.0 0.7 Q59.7 0.4 59.7 0.0 59.7 -0.4 60.0 -0.7 L60.7 -1.0 M80.7 -1.0 L81.4 -0.7 81.7 0.0 81.4 0.7 80.7 1.0 Q80.3 1.0 80.0 0.7 79.7 0.4 79.7 0.0 79.7 -0.4 80.0 -0.7 80.3 -1.0 80.7 -1.0 M76.4 -0.7 L76.7 0.0 76.4 0.7 75.7 1.0 Q75.3 1.0 75.0 0.7 74.7 0.4 74.7 0.0 74.7 -0.4 75.0 -0.7 75.3 -1.0 75.7 -1.0 L76.4 -0.7 M71.4 -0.7 L71.7 0.0 71.4 0.7 70.7 1.0 Q70.3 1.0 70.0 0.7 69.7 0.4 69.7 0.0 69.7 -0.4 70.0 -0.7 70.3 -1.0 70.7 -1.0 L71.4 -0.7 M66.4 -0.7 L66.7 0.0 66.4 0.7 Q66.1 1.0 65.7 1.0 L65.0 0.7 Q64.7 0.4 64.7 0.0 64.7 -0.4 65.0 -0.7 L65.7 -1.0 Q66.1 -1.0 66.4 -0.7 M85.7 -1.0 L86.4 -0.7 86.7 0.0 86.4 0.7 85.7 1.0 Q85.3 1.0 85.0 0.7 84.7 0.4 84.7 0.0 84.7 -0.4 85.0 -0.7 85.3 -1.0 85.7 -1.0 M90.7 -1.0 Q91.1 -1.0 91.4 -0.7 L91.7 0.0 91.4 0.7 Q91.1 1.0 90.7 1.0 L90.0 0.7 Q89.7 0.4 89.7 0.0 89.7 -0.4 90.0 -0.7 L90.7 -1.0 M95.7 -1.0 Q96.1 -1.0 96.4 -0.7 L96.7 0.0 96.4 0.7 Q96.1 1.0 95.7 1.0 L95.0 0.7 Q94.7 0.4 94.7 0.0 94.7 -0.4 95.0 -0.7 L95.7 -1.0 M100.7 -1.0 L101.4 -0.7 101.7 0.0 101.4 0.7 100.7 1.0 Q100.3 1.0 100.0 0.7 99.7 0.4 99.7 0.0 99.7 -0.4 100.0 -0.7 100.3 -1.0 100.7 -1.0 M121.4 -0.7 L121.7 0.0 121.4 0.7 120.7 1.0 Q120.3 1.0 120.0 0.7 119.7 0.4 119.7 0.0 119.7 -0.4 120.0 -0.7 120.3 -1.0 120.7 -1.0 L121.4 -0.7 M116.4 -0.7 L116.7 0.0 116.4 0.7 115.7 1.0 Q115.3 1.0 115.0 0.7 114.7 0.4 114.7 0.0 114.7 -0.4 115.0 -0.7 115.3 -1.0 115.7 -1.0 L116.4 -0.7 M111.4 -0.7 L111.7 0.0 111.4 0.7 110.7 1.0 110.0 0.7 Q109.7 0.4 109.7 0.0 109.7 -0.4 110.0 -0.7 L110.7 -1.0 111.4 -0.7 M106.4 -0.7 L106.7 0.0 106.4 0.7 105.7 1.0 Q105.3 1.0 105.0 0.7 104.7 0.4 104.7 0.0 104.7 -0.4 105.0 -0.7 105.3 -1.0 105.7 -1.0 L106.4 -0.7 M125.7 -1.0 Q126.1 -1.0 126.4 -0.7 L126.7 0.0 126.4 0.7 Q126.1 1.0 125.7 1.0 L125.0 0.7 124.7 0.0 125.0 -0.7 125.7 -1.0 M130.7 -1.0 L131.4 -0.7 131.7 0.0 131.4 0.7 130.7 1.0 Q130.3 1.0 130.0 0.7 129.7 0.4 129.7 0.0 129.7 -0.4 130.0 -0.7 130.3 -1.0 130.7 -1.0 M135.7 -1.0 L136.4 -0.7 136.7 0.0 136.4 0.7 135.7 1.0 135.0 0.7 Q134.7 0.4 134.7 0.0 134.7 -0.4 135.0 -0.7 L135.7 -1.0" fill="#ffffff" fill-rule="evenodd" stroke="none"/>
  </g>
</svg>
