<?xml version="1.0" encoding="UTF-8" standalone="no"?>
<svg xmlns:ffdec="https://www.free-decompiler.com/flash" xmlns:xlink="http://www.w3.org/1999/xlink" ffdec:objectType="shape" height="2.0px" width="142.0px" xmlns="http://www.w3.org/2000/svg">
  <g transform="matrix(1.0, 0.0, 0.0, 1.0, 0.6, 1.0)">
    <path d="M1.1 -0.7 L1.4 0.0 1.1 0.7 Q0.8 1.0 0.4 1.0 L-0.3 0.7 -0.6 0.0 -0.3 -0.7 0.4 -1.0 Q0.8 -1.0 1.1 -0.7 M5.4 -1.0 Q5.8 -1.0 6.1 -0.7 L6.4 0.0 6.1 0.7 Q5.8 1.0 5.4 1.0 L4.7 0.7 Q4.4 0.4 4.4 0.0 4.4 -0.4 4.7 -0.7 L5.4 -1.0 M10.4 -1.0 L11.1 -0.7 11.4 0.0 11.1 0.7 10.4 1.0 Q10.0 1.0 9.7 0.7 9.4 0.4 9.4 0.0 9.4 -0.4 9.7 -0.7 10.0 -1.0 10.4 -1.0 M15.4 -1.0 L16.1 -0.7 16.4 0.0 16.1 0.7 15.4 1.0 Q15.0 1.0 14.7 0.7 14.4 0.4 14.4 0.0 14.4 -0.4 14.7 -0.7 15.0 -1.0 15.4 -1.0 M40.4 -1.0 L41.1 -0.7 41.4 0.0 41.1 0.7 40.4 1.0 Q40.0 1.0 39.7 0.7 39.4 0.4 39.4 0.0 39.4 -0.4 39.7 -0.7 40.0 -1.0 40.4 -1.0 M36.1 -0.7 L36.4 0.0 36.1 0.7 Q35.8 1.0 35.4 1.0 L34.7 0.7 34.4 0.0 34.7 -0.7 35.4 -1.0 Q35.8 -1.0 36.1 -0.7 M31.1 -0.7 L31.4 0.0 31.1 0.7 30.4 1.0 Q30.0 1.0 29.7 0.7 29.4 0.4 29.4 0.0 29.4 -0.4 29.7 -0.7 30.0 -1.0 30.4 -1.0 L31.1 -0.7 M26.1 -0.7 L26.4 0.0 26.1 0.7 25.4 1.0 Q25.0 1.0 24.7 0.7 24.4 0.4 24.4 0.0 24.4 -0.4 24.7 -0.7 25.0 -1.0 25.4 -1.0 L26.1 -0.7 M21.1 -0.7 L21.4 0.0 21.1 0.7 20.4 1.0 19.7 0.7 Q19.4 0.4 19.4 0.0 19.4 -0.4 19.7 -0.7 L20.4 -1.0 21.1 -0.7 M45.4 -1.0 L46.1 -0.7 46.4 0.0 46.1 0.7 45.4 1.0 44.7 0.7 Q44.4 0.4 44.4 0.0 44.4 -0.4 44.7 -0.7 L45.4 -1.0 M50.4 -1.0 L51.1 -0.7 51.4 0.0 51.1 0.7 50.4 1.0 49.7 0.7 Q49.4 0.4 49.4 0.0 49.4 -0.4 49.7 -0.7 L50.4 -1.0 M55.4 -1.0 L56.1 -0.7 56.4 0.0 56.1 0.7 55.4 1.0 Q55.0 1.0 54.7 0.7 54.4 0.4 54.4 0.0 54.4 -0.4 54.7 -0.7 55.0 -1.0 55.4 -1.0 M60.4 -1.0 L61.1 -0.7 61.4 0.0 61.1 0.7 60.4 1.0 Q60.0 1.0 59.7 0.7 59.4 0.4 59.4 0.0 59.4 -0.4 59.7 -0.7 60.0 -1.0 60.4 -1.0 M80.4 -1.0 Q80.8 -1.0 81.1 -0.7 L81.4 0.0 81.1 0.7 Q80.8 1.0 80.4 1.0 L79.7 0.7 Q79.4 0.4 79.4 0.0 79.4 -0.4 79.7 -0.7 L80.4 -1.0 M76.1 -0.7 L76.4 0.0 76.1 0.7 75.4 1.0 74.7 0.7 Q74.4 0.4 74.4 0.0 74.4 -0.4 74.7 -0.7 L75.4 -1.0 76.1 -0.7 M71.1 -0.7 L71.4 0.0 71.1 0.7 70.4 1.0 69.7 0.7 Q69.4 0.4 69.4 0.0 69.4 -0.4 69.7 -0.7 L70.4 -1.0 71.1 -0.7 M66.1 -0.7 L66.4 0.0 66.1 0.7 65.4 1.0 Q65.0 1.0 64.7 0.7 L64.4 0.0 64.7 -0.7 Q65.0 -1.0 65.4 -1.0 L66.1 -0.7 M85.4 -1.0 L86.1 -0.7 86.4 0.0 86.1 0.7 85.4 1.0 Q85.0 1.0 84.7 0.7 84.4 0.4 84.4 0.0 84.4 -0.4 84.7 -0.7 85.0 -1.0 85.4 -1.0 M90.4 -1.0 L91.1 -0.7 91.4 0.0 91.1 0.7 90.4 1.0 Q90.0 1.0 89.7 0.7 89.4 0.4 89.4 0.0 89.4 -0.4 89.7 -0.7 90.0 -1.0 90.4 -1.0 M95.4 -1.0 L96.1 -0.7 96.4 0.0 96.1 0.7 95.4 1.0 Q95.0 1.0 94.7 0.7 94.4 0.4 94.4 0.0 94.4 -0.4 94.7 -0.7 95.0 -1.0 95.4 -1.0 M100.4 -1.0 L101.1 -0.7 101.4 0.0 101.1 0.7 100.4 1.0 Q100.0 1.0 99.7 0.7 99.4 0.4 99.4 0.0 99.4 -0.4 99.7 -0.7 100.0 -1.0 100.4 -1.0 M121.1 -0.7 L121.4 0.0 121.1 0.7 120.4 1.0 Q120.0 1.0 119.7 0.7 119.4 0.4 119.4 0.0 119.4 -0.4 119.7 -0.7 120.0 -1.0 120.4 -1.0 L121.1 -0.7 M116.1 -0.7 L116.4 0.0 116.1 0.7 115.4 1.0 Q115.0 1.0 114.7 0.7 114.4 0.4 114.4 0.0 114.4 -0.4 114.7 -0.7 115.0 -1.0 115.4 -1.0 L116.1 -0.7 M111.1 -0.7 L111.4 0.0 111.1 0.7 Q110.8 1.0 110.4 1.0 L109.7 0.7 Q109.4 0.4 109.4 0.0 109.4 -0.4 109.7 -0.7 L110.4 -1.0 Q110.8 -1.0 111.1 -0.7 M106.1 -0.7 L106.4 0.0 106.1 0.7 Q105.8 1.0 105.4 1.0 L104.7 0.7 Q104.4 0.4 104.4 0.0 104.4 -0.4 104.7 -0.7 L105.4 -1.0 Q105.8 -1.0 106.1 -0.7 M125.4 -1.0 L126.1 -0.7 126.4 0.0 126.1 0.7 125.4 1.0 124.7 0.7 Q124.4 0.4 124.4 0.0 124.4 -0.4 124.7 -0.7 L125.4 -1.0 M130.4 -1.0 L131.1 -0.7 131.4 0.0 131.1 0.7 130.4 1.0 Q130.0 1.0 129.7 0.7 129.4 0.4 129.4 0.0 129.4 -0.4 129.7 -0.7 130.0 -1.0 130.4 -1.0 M135.4 -1.0 L136.1 -0.7 136.4 0.0 136.1 0.7 135.4 1.0 Q135.0 1.0 134.7 0.7 134.4 0.4 134.4 0.0 134.4 -0.4 134.7 -0.7 135.0 -1.0 135.4 -1.0 M140.4 -1.0 Q140.8 -1.0 141.1 -0.7 L141.4 0.0 141.1 0.7 Q140.8 1.0 140.4 1.0 L139.7 0.7 139.4 0.0 139.7 -0.7 140.4 -1.0" fill="#ffffff" fill-rule="evenodd" stroke="none"/>
  </g>
</svg>
