<?xml version="1.0" encoding="UTF-8" standalone="no"?>
<svg xmlns:ffdec="https://www.free-decompiler.com/flash" xmlns:xlink="http://www.w3.org/1999/xlink" ffdec:objectType="shape" height="2.0px" width="147.0px" xmlns="http://www.w3.org/2000/svg">
  <g transform="matrix(1.0, 0.0, 0.0, 1.0, 0.9, 1.0)">
    <path d="M0.8 -0.7 L1.1 0.0 0.8 0.7 0.1 1.0 -0.6 0.7 -0.9 0.0 -0.6 -0.7 0.1 -1.0 0.8 -0.7 M5.1 -1.0 L5.8 -0.7 6.1 0.0 5.8 0.7 5.1 1.0 Q4.7 1.0 4.4 0.7 4.1 0.4 4.1 0.0 4.1 -0.4 4.4 -0.7 4.7 -1.0 5.1 -1.0 M10.1 -1.0 L10.8 -0.7 11.1 0.0 10.8 0.7 10.1 1.0 Q9.7 1.0 9.4 0.7 9.1 0.4 9.1 0.0 9.1 -0.4 9.4 -0.7 9.7 -1.0 10.1 -1.0 M15.1 -1.0 Q15.5 -1.0 15.8 -0.7 L16.1 0.0 15.8 0.7 Q15.5 1.0 15.1 1.0 L14.4 0.7 Q14.1 0.4 14.1 0.0 14.1 -0.4 14.4 -0.7 L15.1 -1.0 M20.1 -1.0 Q20.5 -1.0 20.8 -0.7 L21.1 0.0 20.8 0.7 Q20.5 1.0 20.1 1.0 L19.4 0.7 Q19.1 0.4 19.1 0.0 19.1 -0.4 19.4 -0.7 L20.1 -1.0 M40.1 -1.0 L40.8 -0.7 41.1 0.0 40.8 0.7 40.1 1.0 Q39.7 1.0 39.4 0.7 39.1 0.4 39.1 0.0 39.1 -0.4 39.4 -0.7 39.7 -1.0 40.1 -1.0 M35.8 -0.7 L36.1 0.0 35.8 0.7 35.1 1.0 34.4 0.7 Q34.1 0.4 34.1 0.0 34.1 -0.4 34.4 -0.7 L35.1 -1.0 35.8 -0.7 M30.8 -0.7 L31.1 0.0 30.8 0.7 30.1 1.0 Q29.7 1.0 29.4 0.7 29.1 0.4 29.1 0.0 29.1 -0.4 29.4 -0.7 29.7 -1.0 30.1 -1.0 L30.8 -0.7 M25.8 -0.7 L26.1 0.0 25.8 0.7 25.1 1.0 Q24.7 1.0 24.4 0.7 24.1 0.4 24.1 0.0 24.1 -0.4 24.4 -0.7 24.7 -1.0 25.1 -1.0 L25.8 -0.7 M45.1 -1.0 L45.8 -0.7 46.1 0.0 45.8 0.7 45.1 1.0 Q44.7 1.0 44.4 0.7 44.1 0.4 44.1 0.0 44.1 -0.4 44.4 -0.7 44.7 -1.0 45.1 -1.0 M50.1 -1.0 Q50.5 -1.0 50.8 -0.7 L51.1 0.0 50.8 0.7 Q50.5 1.0 50.1 1.0 L49.4 0.7 49.1 0.0 49.4 -0.7 50.1 -1.0 M55.1 -1.0 L55.8 -0.7 56.1 0.0 55.8 0.7 55.1 1.0 Q54.7 1.0 54.4 0.7 54.1 0.4 54.1 0.0 54.1 -0.4 54.4 -0.7 54.7 -1.0 55.1 -1.0 M60.1 -1.0 L60.8 -0.7 61.1 0.0 60.8 0.7 60.1 1.0 59.4 0.7 Q59.1 0.4 59.1 0.0 59.1 -0.4 59.4 -0.7 L60.1 -1.0 M80.8 -0.7 L81.1 0.0 80.8 0.7 80.1 1.0 Q79.7 1.0 79.4 0.7 L79.1 0.0 79.4 -0.7 Q79.7 -1.0 80.1 -1.0 L80.8 -0.7 M75.8 -0.7 L76.1 0.0 75.8 0.7 75.1 1.0 Q74.7 1.0 74.4 0.7 74.1 0.4 74.1 0.0 74.1 -0.4 74.4 -0.7 74.7 -1.0 75.1 -1.0 L75.8 -0.7 M70.8 -0.7 L71.1 0.0 70.8 0.7 70.1 1.0 Q69.7 1.0 69.4 0.7 69.1 0.4 69.1 0.0 69.1 -0.4 69.4 -0.7 69.7 -1.0 70.1 -1.0 L70.8 -0.7 M65.8 -0.7 L66.1 0.0 65.8 0.7 65.1 1.0 64.4 0.7 Q64.1 0.4 64.1 0.0 64.1 -0.4 64.4 -0.7 L65.1 -1.0 65.8 -0.7 M85.1 -1.0 L85.8 -0.7 86.1 0.0 85.8 0.7 85.1 1.0 84.4 0.7 Q84.1 0.4 84.1 0.0 84.1 -0.4 84.4 -0.7 L85.1 -1.0 M90.1 -1.0 L90.8 -0.7 91.1 0.0 90.8 0.7 90.1 1.0 89.4 0.7 Q89.1 0.4 89.1 0.0 89.1 -0.4 89.4 -0.7 L90.1 -1.0 M95.1 -1.0 Q95.5 -1.0 95.8 -0.7 L96.1 0.0 95.8 0.7 Q95.5 1.0 95.1 1.0 L94.4 0.7 Q94.1 0.4 94.1 0.0 94.1 -0.4 94.4 -0.7 L95.1 -1.0 M100.1 -1.0 L100.8 -0.7 101.1 0.0 100.8 0.7 100.1 1.0 Q99.7 1.0 99.4 0.7 99.1 0.4 99.1 0.0 99.1 -0.4 99.4 -0.7 99.7 -1.0 100.1 -1.0 M120.8 -0.7 L121.1 0.0 120.8 0.7 Q120.5 1.0 120.1 1.0 L119.4 0.7 Q119.1 0.4 119.1 0.0 119.1 -0.4 119.4 -0.7 L120.1 -1.0 Q120.5 -1.0 120.8 -0.7 M115.8 -0.7 L116.1 0.0 115.8 0.7 115.1 1.0 Q114.7 1.0 114.4 0.7 114.1 0.4 114.1 0.0 114.1 -0.4 114.4 -0.7 114.7 -1.0 115.1 -1.0 L115.8 -0.7 M110.8 -0.7 L111.1 0.0 110.8 0.7 110.1 1.0 Q109.7 1.0 109.4 0.7 109.1 0.4 109.1 0.0 109.1 -0.4 109.4 -0.7 109.7 -1.0 110.1 -1.0 L110.8 -0.7 M105.8 -0.7 L106.1 0.0 105.8 0.7 105.1 1.0 Q104.7 1.0 104.4 0.7 104.1 0.4 104.1 0.0 104.1 -0.4 104.4 -0.7 104.7 -1.0 105.1 -1.0 L105.8 -0.7 M125.1 -1.0 Q125.5 -1.0 125.8 -0.7 L126.1 0.0 125.8 0.7 Q125.5 1.0 125.1 1.0 L124.4 0.7 Q124.1 0.4 124.1 0.0 124.1 -0.4 124.4 -0.7 L125.1 -1.0 M140.8 -0.7 L141.1 0.0 140.8 0.7 140.1 1.0 139.4 0.7 Q139.1 0.4 139.1 0.0 139.1 -0.4 139.4 -0.7 L140.1 -1.0 140.8 -0.7 M135.8 -0.7 L136.1 0.0 135.8 0.7 135.1 1.0 Q134.7 1.0 134.4 0.7 134.1 0.4 134.1 0.0 134.1 -0.4 134.4 -0.7 134.7 -1.0 135.1 -1.0 L135.8 -0.7 M130.8 -0.7 L131.1 0.0 130.8 0.7 130.1 1.0 Q129.7 1.0 129.4 0.7 129.1 0.4 129.1 0.0 129.1 -0.4 129.4 -0.7 129.7 -1.0 130.1 -1.0 L130.8 -0.7 M145.8 -0.7 L146.1 0.0 145.8 0.7 145.1 1.0 Q144.7 1.0 144.4 0.7 144.1 0.4 144.1 0.0 144.1 -0.4 144.4 -0.7 144.7 -1.0 145.1 -1.0 L145.8 -0.7" fill="#ffffff" fill-rule="evenodd" stroke="none"/>
  </g>
</svg>
