<?xml version="1.0" encoding="UTF-8" standalone="no"?>
<svg xmlns:ffdec="https://www.free-decompiler.com/flash" xmlns:xlink="http://www.w3.org/1999/xlink" ffdec:objectType="shape" height="2.0px" width="147.0px" xmlns="http://www.w3.org/2000/svg">
  <g transform="matrix(1.0, 0.0, 0.0, 1.0, -3.8, 1.0)">
    <path d="M4.8 -1.0 Q5.2 -1.0 5.5 -0.7 L5.8 0.0 5.5 0.7 Q5.2 1.0 4.8 1.0 L4.1 0.7 Q3.8 0.4 3.8 0.0 3.8 -0.4 4.1 -0.7 L4.8 -1.0 M9.8 -1.0 L10.5 -0.7 10.8 0.0 10.5 0.7 9.8 1.0 Q9.4 1.0 9.1 0.7 8.8 0.4 8.8 0.0 8.8 -0.4 9.1 -0.7 9.4 -1.0 9.8 -1.0 M14.8 -1.0 L15.5 -0.7 15.8 0.0 15.5 0.7 14.8 1.0 Q14.4 1.0 14.1 0.7 13.8 0.4 13.8 0.0 13.8 -0.4 14.1 -0.7 14.4 -1.0 14.8 -1.0 M19.8 -1.0 L20.5 -0.7 20.8 0.0 20.5 0.7 19.8 1.0 Q19.4 1.0 19.1 0.7 18.8 0.4 18.8 0.0 18.8 -0.4 19.1 -0.7 19.4 -1.0 19.8 -1.0 M39.8 -1.0 L40.5 -0.7 40.8 0.0 40.5 0.7 39.8 1.0 Q39.4 1.0 39.1 0.7 38.8 0.4 38.8 0.0 38.8 -0.4 39.1 -0.7 39.4 -1.0 39.8 -1.0 M35.5 -0.7 L35.8 0.0 35.5 0.7 Q35.2 1.0 34.8 1.0 L34.1 0.7 Q33.8 0.4 33.8 0.0 33.8 -0.4 34.1 -0.7 L34.8 -1.0 Q35.2 -1.0 35.5 -0.7 M30.5 -0.7 L30.8 0.0 30.5 0.7 Q30.2 1.0 29.8 1.0 L29.1 0.7 Q28.8 0.4 28.8 0.0 28.8 -0.4 29.1 -0.7 L29.8 -1.0 Q30.2 -1.0 30.5 -0.7 M25.5 -0.7 L25.8 0.0 25.5 0.7 24.8 1.0 Q24.4 1.0 24.1 0.7 23.8 0.4 23.8 0.0 23.8 -0.4 24.1 -0.7 24.4 -1.0 24.8 -1.0 L25.5 -0.7 M44.8 -1.0 L45.5 -0.7 45.8 0.0 45.5 0.7 44.8 1.0 Q44.4 1.0 44.1 0.7 43.8 0.4 43.8 0.0 43.8 -0.4 44.1 -0.7 44.4 -1.0 44.8 -1.0 M49.8 -1.0 L50.5 -0.7 50.8 0.0 50.5 0.7 49.8 1.0 49.1 0.7 Q48.8 0.4 48.8 0.0 48.8 -0.4 49.1 -0.7 L49.8 -1.0 M54.8 -1.0 L55.5 -0.7 55.8 0.0 55.5 0.7 54.8 1.0 Q54.4 1.0 54.1 0.7 53.8 0.4 53.8 0.0 53.8 -0.4 54.1 -0.7 54.4 -1.0 54.8 -1.0 M59.8 -1.0 L60.5 -0.7 60.8 0.0 60.5 0.7 59.8 1.0 Q59.4 1.0 59.1 0.7 58.8 0.4 58.8 0.0 58.8 -0.4 59.1 -0.7 59.4 -1.0 59.8 -1.0 M80.5 -0.7 L80.8 0.0 80.5 0.7 79.8 1.0 79.1 0.7 Q78.8 0.4 78.8 0.0 78.8 -0.4 79.1 -0.7 L79.8 -1.0 80.5 -0.7 M75.5 -0.7 L75.8 0.0 75.5 0.7 74.8 1.0 74.1 0.7 Q73.8 0.4 73.8 0.0 73.8 -0.4 74.1 -0.7 L74.8 -1.0 75.5 -0.7 M70.5 -0.7 L70.8 0.0 70.5 0.7 69.8 1.0 Q69.4 1.0 69.1 0.7 68.8 0.4 68.8 0.0 68.8 -0.4 69.1 -0.7 69.4 -1.0 69.8 -1.0 L70.5 -0.7 M65.5 -0.7 L65.8 0.0 65.5 0.7 Q65.2 1.0 64.8 1.0 L64.1 0.7 63.8 0.0 64.1 -0.7 64.8 -1.0 Q65.2 -1.0 65.5 -0.7 M84.8 -1.0 L85.5 -0.7 85.8 0.0 85.5 0.7 84.8 1.0 Q84.4 1.0 84.1 0.7 83.8 0.4 83.8 0.0 83.8 -0.4 84.1 -0.7 84.4 -1.0 84.8 -1.0 M89.8 -1.0 L90.5 -0.7 90.8 0.0 90.5 0.7 89.8 1.0 Q89.4 1.0 89.1 0.7 88.8 0.4 88.8 0.0 88.8 -0.4 89.1 -0.7 89.4 -1.0 89.8 -1.0 M94.8 -1.0 L95.5 -0.7 95.8 0.0 95.5 0.7 94.8 1.0 Q94.4 1.0 94.1 0.7 L93.8 0.0 94.1 -0.7 Q94.4 -1.0 94.8 -1.0 M99.8 -1.0 L100.5 -0.7 100.8 0.0 100.5 0.7 99.8 1.0 99.1 0.7 Q98.8 0.4 98.8 0.0 98.8 -0.4 99.1 -0.7 L99.8 -1.0 M120.5 -0.7 L120.8 0.0 120.5 0.7 119.8 1.0 Q119.4 1.0 119.1 0.7 118.8 0.4 118.8 0.0 118.8 -0.4 119.1 -0.7 119.4 -1.0 119.8 -1.0 L120.5 -0.7 M115.5 -0.7 L115.8 0.0 115.5 0.7 114.8 1.0 Q114.4 1.0 114.1 0.7 113.8 0.4 113.8 0.0 113.8 -0.4 114.1 -0.7 114.4 -1.0 114.8 -1.0 L115.5 -0.7 M110.5 -0.7 L110.8 0.0 110.5 0.7 Q110.2 1.0 109.8 1.0 L109.1 0.7 Q108.8 0.4 108.8 0.0 108.8 -0.4 109.1 -0.7 L109.8 -1.0 Q110.2 -1.0 110.5 -0.7 M105.5 -0.7 L105.8 0.0 105.5 0.7 104.8 1.0 104.1 0.7 Q103.8 0.4 103.8 0.0 103.8 -0.4 104.1 -0.7 L104.8 -1.0 105.5 -0.7 M124.8 -1.0 L125.5 -0.7 125.8 0.0 125.5 0.7 124.8 1.0 Q124.4 1.0 124.1 0.7 123.8 0.4 123.8 0.0 123.8 -0.4 124.1 -0.7 124.4 -1.0 124.8 -1.0 M129.8 -1.0 L130.5 -0.7 130.8 0.0 130.5 0.7 129.8 1.0 Q129.4 1.0 129.1 0.7 128.8 0.4 128.8 0.0 128.8 -0.4 129.1 -0.7 129.4 -1.0 129.8 -1.0 M140.5 -0.7 L140.8 0.0 140.5 0.7 Q140.2 1.0 139.8 1.0 L139.1 0.7 Q138.8 0.4 138.8 0.0 138.8 -0.4 139.1 -0.7 L139.8 -1.0 Q140.2 -1.0 140.5 -0.7 M135.5 -0.7 L135.8 0.0 135.5 0.7 Q135.2 1.0 134.8 1.0 L134.1 0.7 Q133.8 0.4 133.8 0.0 133.8 -0.4 134.1 -0.7 L134.8 -1.0 Q135.2 -1.0 135.5 -0.7 M150.5 -0.7 L150.8 0.0 150.5 0.7 149.8 1.0 Q149.4 1.0 149.1 0.7 148.8 0.4 148.8 0.0 148.8 -0.4 149.1 -0.7 149.4 -1.0 149.8 -1.0 L150.5 -0.7 M145.5 -0.7 L145.8 0.0 145.5 0.7 144.8 1.0 Q144.4 1.0 144.1 0.7 143.8 0.4 143.8 0.0 143.8 -0.4 144.1 -0.7 144.4 -1.0 144.8 -1.0 L145.5 -0.7" fill="#ffffff" fill-rule="evenodd" stroke="none"/>
  </g>
</svg>
