<?xml version="1.0" encoding="UTF-8" standalone="no"?>
<svg xmlns:ffdec="https://www.free-decompiler.com/flash" xmlns:xlink="http://www.w3.org/1999/xlink" ffdec:objectType="shape" height="2.0px" width="152.0px" xmlns="http://www.w3.org/2000/svg">
  <g transform="matrix(1.0, 0.0, 0.0, 1.0, -1.15, 1.0)">
    <path d="M2.15 -1.0 L2.85 -0.7 3.15 0.0 2.85 0.7 2.15 1.0 1.45 0.7 Q1.15 0.4 1.15 0.0 1.15 -0.4 1.45 -0.7 L2.15 -1.0 M7.15 -1.0 L7.85 -0.7 8.15 0.0 7.85 0.7 7.15 1.0 6.45 0.7 Q6.15 0.4 6.15 0.0 6.15 -0.4 6.45 -0.7 L7.15 -1.0 M12.15 -1.0 Q12.55 -1.0 12.85 -0.7 L13.15 0.0 12.85 0.7 Q12.55 1.0 12.15 1.0 L11.45 0.7 Q11.15 0.4 11.15 0.0 11.15 -0.4 11.45 -0.7 L12.15 -1.0 M17.15 -1.0 L17.85 -0.7 18.15 0.0 17.85 0.7 17.15 1.0 Q16.75 1.0 16.45 0.7 16.15 0.4 16.15 0.0 16.15 -0.4 16.45 -0.7 16.75 -1.0 17.15 -1.0 M37.85 -0.7 L38.15 0.0 37.85 0.7 Q37.55 1.0 37.15 1.0 L36.45 0.7 Q36.15 0.4 36.15 0.0 36.15 -0.4 36.45 -0.7 L37.15 -1.0 Q37.55 -1.0 37.85 -0.7 M32.85 -0.7 L33.15 0.0 32.85 0.7 32.15 1.0 Q31.75 1.0 31.45 0.7 31.15 0.4 31.15 0.0 31.15 -0.4 31.45 -0.7 31.75 -1.0 32.15 -1.0 L32.85 -0.7 M27.85 -0.7 L28.15 0.0 27.85 0.7 27.15 1.0 Q26.75 1.0 26.45 0.7 26.15 0.4 26.15 0.0 26.15 -0.4 26.45 -0.7 26.75 -1.0 27.15 -1.0 L27.85 -0.7 M22.85 -0.7 L23.15 0.0 22.85 0.7 22.15 1.0 Q21.75 1.0 21.45 0.7 21.15 0.4 21.15 0.0 21.15 -0.4 21.45 -0.7 21.75 -1.0 22.15 -1.0 L22.85 -0.7 M42.15 -1.0 Q42.55 -1.0 42.85 -0.7 L43.15 0.0 42.85 0.7 Q42.55 1.0 42.15 1.0 L41.45 0.7 Q41.15 0.4 41.15 0.0 41.15 -0.4 41.45 -0.7 L42.15 -1.0 M47.15 -1.0 L47.85 -0.7 48.15 0.0 47.85 0.7 47.15 1.0 Q46.75 1.0 46.45 0.7 46.15 0.4 46.15 0.0 46.15 -0.4 46.45 -0.7 46.75 -1.0 47.15 -1.0 M52.15 -1.0 L52.85 -0.7 53.15 0.0 52.85 0.7 52.15 1.0 Q51.75 1.0 51.45 0.7 51.15 0.4 51.15 0.0 51.15 -0.4 51.45 -0.7 51.75 -1.0 52.15 -1.0 M57.15 -1.0 L57.85 -0.7 58.15 0.0 57.85 0.7 57.15 1.0 56.45 0.7 Q56.15 0.4 56.15 0.0 56.15 -0.4 56.45 -0.7 L57.15 -1.0 M77.85 -0.7 L78.15 0.0 77.85 0.7 77.15 1.0 Q76.75 1.0 76.45 0.7 76.15 0.4 76.15 0.0 76.15 -0.4 76.45 -0.7 76.75 -1.0 77.15 -1.0 L77.85 -0.7 M72.85 -0.7 L73.15 0.0 72.85 0.7 Q72.55 1.0 72.15 1.0 L71.45 0.7 71.15 0.0 71.45 -0.7 72.15 -1.0 Q72.55 -1.0 72.85 -0.7 M67.85 -0.7 L68.15 0.0 67.85 0.7 67.15 1.0 Q66.75 1.0 66.45 0.7 66.15 0.4 66.15 0.0 66.15 -0.4 66.45 -0.7 66.75 -1.0 67.15 -1.0 L67.85 -0.7 M62.85 -0.7 L63.15 0.0 62.85 0.7 62.15 1.0 Q61.75 1.0 61.45 0.7 61.15 0.4 61.15 0.0 61.15 -0.4 61.45 -0.7 61.75 -1.0 62.15 -1.0 L62.85 -0.7 M82.15 -1.0 L82.85 -0.7 83.15 0.0 82.85 0.7 82.15 1.0 81.45 0.7 Q81.15 0.4 81.15 0.0 81.15 -0.4 81.45 -0.7 L82.15 -1.0 M87.15 -1.0 L87.85 -0.7 88.15 0.0 87.85 0.7 87.15 1.0 86.45 0.7 Q86.15 0.4 86.15 0.0 86.15 -0.4 86.45 -0.7 L87.15 -1.0 M92.15 -1.0 L92.85 -0.7 93.15 0.0 92.85 0.7 92.15 1.0 Q91.75 1.0 91.45 0.7 91.15 0.4 91.15 0.0 91.15 -0.4 91.45 -0.7 91.75 -1.0 92.15 -1.0 M97.15 -1.0 L97.85 -0.7 98.15 0.0 97.85 0.7 97.15 1.0 Q96.75 1.0 96.45 0.7 96.15 0.4 96.15 0.0 96.15 -0.4 96.45 -0.7 96.75 -1.0 97.15 -1.0 M117.85 -0.7 L118.15 0.0 117.85 0.7 Q117.55 1.0 117.15 1.0 L116.45 0.7 Q116.15 0.4 116.15 0.0 116.15 -0.4 116.45 -0.7 L117.15 -1.0 Q117.55 -1.0 117.85 -0.7 M112.85 -0.7 L113.15 0.0 112.85 0.7 112.15 1.0 111.45 0.7 Q111.15 0.4 111.15 0.0 111.15 -0.4 111.45 -0.7 L112.15 -1.0 112.85 -0.7 M107.85 -0.7 L108.15 0.0 107.85 0.7 107.15 1.0 106.45 0.7 Q106.15 0.4 106.15 0.0 106.15 -0.4 106.45 -0.7 L107.15 -1.0 107.85 -0.7 M102.85 -0.7 L103.15 0.0 102.85 0.7 102.15 1.0 Q101.75 1.0 101.45 0.7 L101.15 0.0 101.45 -0.7 Q101.75 -1.0 102.15 -1.0 L102.85 -0.7 M122.85 -0.7 L123.15 0.0 122.85 0.7 122.15 1.0 Q121.75 1.0 121.45 0.7 121.15 0.4 121.15 0.0 121.15 -0.4 121.45 -0.7 121.75 -1.0 122.15 -1.0 L122.85 -0.7 M127.15 -1.0 L127.85 -0.7 128.15 0.0 127.85 0.7 127.15 1.0 Q126.75 1.0 126.45 0.7 126.15 0.4 126.15 0.0 126.15 -0.4 126.45 -0.7 126.75 -1.0 127.15 -1.0 M132.15 -1.0 L132.85 -0.7 133.15 0.0 132.85 0.7 132.15 1.0 Q131.75 1.0 131.45 0.7 131.15 0.4 131.15 0.0 131.15 -0.4 131.45 -0.7 131.75 -1.0 132.15 -1.0 M137.85 -0.7 L138.15 0.0 137.85 0.7 137.15 1.0 Q136.75 1.0 136.45 0.7 136.15 0.4 136.15 0.0 136.15 -0.4 136.45 -0.7 136.75 -1.0 137.15 -1.0 L137.85 -0.7 M152.85 -0.7 L153.15 0.0 152.85 0.7 152.15 1.0 Q151.75 1.0 151.45 0.7 151.15 0.4 151.15 0.0 151.15 -0.4 151.45 -0.7 151.75 -1.0 152.15 -1.0 L152.85 -0.7 M147.85 -0.7 L148.15 0.0 147.85 0.7 Q147.55 1.0 147.15 1.0 L146.45 0.7 Q146.15 0.4 146.15 0.0 146.15 -0.4 146.45 -0.7 L147.15 -1.0 Q147.55 -1.0 147.85 -0.7 M142.85 -0.7 L143.15 0.0 142.85 0.7 Q142.55 1.0 142.15 1.0 L141.45 0.7 Q141.15 0.4 141.15 0.0 141.15 -0.4 141.45 -0.7 L142.15 -1.0 Q142.55 -1.0 142.85 -0.7" fill="#ffffff" fill-rule="evenodd" stroke="none"/>
  </g>
</svg>
