<?xml version="1.0" encoding="UTF-8" standalone="no"?>
<svg xmlns:ffdec="https://www.free-decompiler.com/flash" xmlns:xlink="http://www.w3.org/1999/xlink" ffdec:objectType="shape" height="2.0px" width="162.0px" xmlns="http://www.w3.org/2000/svg">
  <g transform="matrix(1.0, 0.0, 0.0, 1.0, -2.9, 1.0)">
    <path d="M3.9 -1.0 Q4.3 -1.0 4.6 -0.7 L4.9 0.0 4.6 0.7 Q4.3 1.0 3.9 1.0 L3.2 0.7 2.9 0.0 3.2 -0.7 3.9 -1.0 M8.9 -1.0 L9.6 -0.7 9.9 0.0 9.6 0.7 8.9 1.0 Q8.5 1.0 8.2 0.7 7.9 0.4 7.9 0.0 7.9 -0.4 8.2 -0.7 8.5 -1.0 8.9 -1.0 M13.9 -1.0 L14.6 -0.7 14.9 0.0 14.6 0.7 13.9 1.0 13.2 0.7 Q12.9 0.4 12.9 0.0 12.9 -0.4 13.2 -0.7 L13.9 -1.0 M18.9 -1.0 L19.6 -0.7 19.9 0.0 19.6 0.7 18.9 1.0 18.2 0.7 Q17.9 0.4 17.9 0.0 17.9 -0.4 18.2 -0.7 L18.9 -1.0 M39.6 -0.7 L39.9 0.0 39.6 0.7 38.9 1.0 38.2 0.7 Q37.9 0.4 37.9 0.0 37.9 -0.4 38.2 -0.7 L38.9 -1.0 39.6 -0.7 M34.6 -0.7 L34.9 0.0 34.6 0.7 33.9 1.0 Q33.5 1.0 33.2 0.7 L32.9 0.0 33.2 -0.7 Q33.5 -1.0 33.9 -1.0 L34.6 -0.7 M29.6 -0.7 L29.9 0.0 29.6 0.7 28.9 1.0 Q28.5 1.0 28.2 0.7 27.9 0.4 27.9 0.0 27.9 -0.4 28.2 -0.7 28.5 -1.0 28.9 -1.0 L29.6 -0.7 M24.6 -0.7 L24.9 0.0 24.6 0.7 23.9 1.0 Q23.5 1.0 23.2 0.7 22.9 0.4 22.9 0.0 22.9 -0.4 23.2 -0.7 23.5 -1.0 23.9 -1.0 L24.6 -0.7 M43.9 -1.0 L44.6 -0.7 44.9 0.0 44.6 0.7 43.9 1.0 43.2 0.7 Q42.9 0.4 42.9 0.0 42.9 -0.4 43.2 -0.7 L43.9 -1.0 M48.9 -1.0 Q49.3 -1.0 49.6 -0.7 L49.9 0.0 49.6 0.7 Q49.3 1.0 48.9 1.0 L48.2 0.7 Q47.9 0.4 47.9 0.0 47.9 -0.4 48.2 -0.7 L48.9 -1.0 M53.9 -1.0 L54.6 -0.7 54.9 0.0 54.6 0.7 53.9 1.0 Q53.5 1.0 53.2 0.7 52.9 0.4 52.9 0.0 52.9 -0.4 53.2 -0.7 53.5 -1.0 53.9 -1.0 M58.9 -1.0 L59.6 -0.7 59.9 0.0 59.6 0.7 58.9 1.0 Q58.5 1.0 58.2 0.7 57.9 0.4 57.9 0.0 57.9 -0.4 58.2 -0.7 58.5 -1.0 58.9 -1.0 M79.6 -0.7 L79.9 0.0 79.6 0.7 Q79.3 1.0 78.9 1.0 L78.2 0.7 Q77.9 0.4 77.9 0.0 77.9 -0.4 78.2 -0.7 L78.9 -1.0 Q79.3 -1.0 79.6 -0.7 M74.6 -0.7 L74.9 0.0 74.6 0.7 Q74.3 1.0 73.9 1.0 L73.2 0.7 Q72.9 0.4 72.9 0.0 72.9 -0.4 73.2 -0.7 L73.9 -1.0 Q74.3 -1.0 74.6 -0.7 M69.6 -0.7 L69.9 0.0 69.6 0.7 68.9 1.0 Q68.5 1.0 68.2 0.7 67.9 0.4 67.9 0.0 67.9 -0.4 68.2 -0.7 68.5 -1.0 68.9 -1.0 L69.6 -0.7 M64.6 -0.7 L64.9 0.0 64.6 0.7 63.9 1.0 Q63.5 1.0 63.2 0.7 62.9 0.4 62.9 0.0 62.9 -0.4 63.2 -0.7 63.5 -1.0 63.9 -1.0 L64.6 -0.7 M83.9 -1.0 L84.6 -0.7 84.9 0.0 84.6 0.7 83.9 1.0 Q83.5 1.0 83.2 0.7 82.9 0.4 82.9 0.0 82.9 -0.4 83.2 -0.7 83.5 -1.0 83.9 -1.0 M88.9 -1.0 L89.6 -0.7 89.9 0.0 89.6 0.7 88.9 1.0 Q88.5 1.0 88.2 0.7 87.9 0.4 87.9 0.0 87.9 -0.4 88.2 -0.7 88.5 -1.0 88.9 -1.0 M93.9 -1.0 L94.6 -0.7 94.9 0.0 94.6 0.7 93.9 1.0 93.2 0.7 Q92.9 0.4 92.9 0.0 92.9 -0.4 93.2 -0.7 L93.9 -1.0 M98.9 -1.0 L99.6 -0.7 99.9 0.0 99.6 0.7 98.9 1.0 Q98.5 1.0 98.2 0.7 97.9 0.4 97.9 0.0 97.9 -0.4 98.2 -0.7 98.5 -1.0 98.9 -1.0 M119.6 -0.7 L119.9 0.0 119.6 0.7 118.9 1.0 118.2 0.7 Q117.9 0.4 117.9 0.0 117.9 -0.4 118.2 -0.7 L118.9 -1.0 119.6 -0.7 M114.6 -0.7 L114.9 0.0 114.6 0.7 113.9 1.0 Q113.5 1.0 113.2 0.7 112.9 0.4 112.9 0.0 112.9 -0.4 113.2 -0.7 113.5 -1.0 113.9 -1.0 L114.6 -0.7 M109.6 -0.7 L109.9 0.0 109.6 0.7 Q109.3 1.0 108.9 1.0 L108.2 0.7 107.9 0.0 108.2 -0.7 108.9 -1.0 Q109.3 -1.0 109.6 -0.7 M104.6 -0.7 L104.9 0.0 104.6 0.7 103.9 1.0 Q103.5 1.0 103.2 0.7 102.9 0.4 102.9 0.0 102.9 -0.4 103.2 -0.7 103.5 -1.0 103.9 -1.0 L104.6 -0.7 M123.9 -1.0 L124.6 -0.7 124.9 0.0 124.6 0.7 123.9 1.0 123.2 0.7 Q122.9 0.4 122.9 0.0 122.9 -0.4 123.2 -0.7 L123.9 -1.0 M128.9 -1.0 L129.6 -0.7 129.9 0.0 129.6 0.7 128.9 1.0 Q128.5 1.0 128.2 0.7 127.9 0.4 127.9 0.0 127.9 -0.4 128.2 -0.7 128.5 -1.0 128.9 -1.0 M133.9 -1.0 L134.6 -0.7 134.9 0.0 134.6 0.7 133.9 1.0 Q133.5 1.0 133.2 0.7 132.9 0.4 132.9 0.0 132.9 -0.4 133.2 -0.7 133.5 -1.0 133.9 -1.0 M138.9 -1.0 L139.6 -0.7 139.9 0.0 139.6 0.7 138.9 1.0 Q138.5 1.0 138.2 0.7 L137.9 0.0 138.2 -0.7 Q138.5 -1.0 138.9 -1.0 M159.6 -0.7 L159.9 0.0 159.6 0.7 158.9 1.0 Q158.5 1.0 158.2 0.7 157.9 0.4 157.9 0.0 157.9 -0.4 158.2 -0.7 158.5 -1.0 158.9 -1.0 L159.6 -0.7 M154.6 -0.7 L154.9 0.0 154.6 0.7 Q154.3 1.0 153.9 1.0 L153.2 0.7 Q152.9 0.4 152.9 0.0 152.9 -0.4 153.2 -0.7 L153.9 -1.0 Q154.3 -1.0 154.6 -0.7 M149.6 -0.7 L149.9 0.0 149.6 0.7 148.9 1.0 148.2 0.7 Q147.9 0.4 147.9 0.0 147.9 -0.4 148.2 -0.7 L148.9 -1.0 149.6 -0.7 M144.6 -0.7 L144.9 0.0 144.6 0.7 143.9 1.0 143.2 0.7 Q142.9 0.4 142.9 0.0 142.9 -0.4 143.2 -0.7 L143.9 -1.0 144.6 -0.7 M163.9 -1.0 L164.6 -0.7 164.9 0.0 164.6 0.7 163.9 1.0 Q163.5 1.0 163.2 0.7 162.9 0.4 162.9 0.0 162.9 -0.4 163.2 -0.7 163.5 -1.0 163.9 -1.0" fill="#ffffff" fill-rule="evenodd" stroke="none"/>
  </g>
</svg>
