<?xml version="1.0" encoding="UTF-8" standalone="no"?>
<svg xmlns:ffdec="https://www.free-decompiler.com/flash" xmlns:xlink="http://www.w3.org/1999/xlink" ffdec:objectType="shape" height="2.0px" width="172.0px" xmlns="http://www.w3.org/2000/svg">
  <g transform="matrix(1.0, 0.0, 0.0, 1.0, 0.0, 1.0)">
    <path d="M1.0 -1.0 L1.7 -0.7 2.0 0.0 1.7 0.7 1.0 1.0 Q0.6 1.0 0.3 0.7 0.0 0.4 0.0 0.0 0.0 -0.4 0.3 -0.7 0.6 -1.0 1.0 -1.0 M6.0 -1.0 Q6.4 -1.0 6.7 -0.7 L7.0 0.0 6.7 0.7 Q6.4 1.0 6.0 1.0 L5.3 0.7 5.0 0.0 5.3 -0.7 6.0 -1.0 M11.0 -1.0 L11.7 -0.7 12.0 0.0 11.7 0.7 11.0 1.0 Q10.6 1.0 10.3 0.7 10.0 0.4 10.0 0.0 10.0 -0.4 10.3 -0.7 10.6 -1.0 11.0 -1.0 M16.0 -1.0 L16.7 -0.7 17.0 0.0 16.7 0.7 16.0 1.0 15.3 0.7 Q15.0 0.4 15.0 0.0 15.0 -0.4 15.3 -0.7 L16.0 -1.0 M36.7 -0.7 L37.0 0.0 36.7 0.7 36.0 1.0 Q35.6 1.0 35.3 0.7 L35.0 0.0 35.3 -0.7 Q35.6 -1.0 36.0 -1.0 L36.7 -0.7 M31.7 -0.7 L32.0 0.0 31.7 0.7 31.0 1.0 Q30.6 1.0 30.3 0.7 30.0 0.4 30.0 0.0 30.0 -0.4 30.3 -0.7 30.6 -1.0 31.0 -1.0 L31.7 -0.7 M26.7 -0.7 L27.0 0.0 26.7 0.7 26.0 1.0 Q25.6 1.0 25.3 0.7 25.0 0.4 25.0 0.0 25.0 -0.4 25.3 -0.7 25.6 -1.0 26.0 -1.0 L26.7 -0.7 M21.7 -0.7 L22.0 0.0 21.7 0.7 21.0 1.0 20.3 0.7 Q20.0 0.4 20.0 0.0 20.0 -0.4 20.3 -0.7 L21.0 -1.0 21.7 -0.7 M41.7 -0.7 L42.0 0.0 41.7 0.7 41.0 1.0 40.3 0.7 Q40.0 0.4 40.0 0.0 40.0 -0.4 40.3 -0.7 L41.0 -1.0 41.7 -0.7 M46.0 -1.0 L46.7 -0.7 47.0 0.0 46.7 0.7 46.0 1.0 45.3 0.7 Q45.0 0.4 45.0 0.0 45.0 -0.4 45.3 -0.7 L46.0 -1.0 M51.0 -1.0 Q51.4 -1.0 51.7 -0.7 L52.0 0.0 51.7 0.7 Q51.4 1.0 51.0 1.0 L50.3 0.7 Q50.0 0.4 50.0 0.0 50.0 -0.4 50.3 -0.7 L51.0 -1.0 M56.0 -1.0 L56.7 -0.7 57.0 0.0 56.7 0.7 56.0 1.0 Q55.6 1.0 55.3 0.7 55.0 0.4 55.0 0.0 55.0 -0.4 55.3 -0.7 55.6 -1.0 56.0 -1.0 M76.7 -0.7 L77.0 0.0 76.7 0.7 Q76.4 1.0 76.0 1.0 L75.3 0.7 Q75.0 0.4 75.0 0.0 75.0 -0.4 75.3 -0.7 L76.0 -1.0 Q76.4 -1.0 76.7 -0.7 M71.7 -0.7 L72.0 0.0 71.7 0.7 71.0 1.0 Q70.6 1.0 70.3 0.7 70.0 0.4 70.0 0.0 70.0 -0.4 70.3 -0.7 70.6 -1.0 71.0 -1.0 L71.7 -0.7 M66.7 -0.7 L67.0 0.0 66.7 0.7 66.0 1.0 Q65.6 1.0 65.3 0.7 65.0 0.4 65.0 0.0 65.0 -0.4 65.3 -0.7 65.6 -1.0 66.0 -1.0 L66.7 -0.7 M61.7 -0.7 L62.0 0.0 61.7 0.7 61.0 1.0 Q60.6 1.0 60.3 0.7 60.0 0.4 60.0 0.0 60.0 -0.4 60.3 -0.7 60.6 -1.0 61.0 -1.0 L61.7 -0.7 M81.7 -0.7 L82.0 0.0 81.7 0.7 Q81.4 1.0 81.0 1.0 L80.3 0.7 Q80.0 0.4 80.0 0.0 80.0 -0.4 80.3 -0.7 L81.0 -1.0 Q81.4 -1.0 81.7 -0.7 M86.0 -1.0 L86.7 -0.7 87.0 0.0 86.7 0.7 86.0 1.0 Q85.6 1.0 85.3 0.7 85.0 0.4 85.0 0.0 85.0 -0.4 85.3 -0.7 85.6 -1.0 86.0 -1.0 M91.0 -1.0 L91.7 -0.7 92.0 0.0 91.7 0.7 91.0 1.0 Q90.6 1.0 90.3 0.7 90.0 0.4 90.0 0.0 90.0 -0.4 90.3 -0.7 90.6 -1.0 91.0 -1.0 M96.0 -1.0 L96.7 -0.7 97.0 0.0 96.7 0.7 96.0 1.0 95.3 0.7 Q95.0 0.4 95.0 0.0 95.0 -0.4 95.3 -0.7 L96.0 -1.0 M101.0 -1.0 L101.7 -0.7 102.0 0.0 101.7 0.7 101.0 1.0 Q100.6 1.0 100.3 0.7 100.0 0.4 100.0 0.0 100.0 -0.4 100.3 -0.7 100.6 -1.0 101.0 -1.0 M121.0 -1.0 L121.7 -0.7 122.0 0.0 121.7 0.7 121.0 1.0 120.3 0.7 Q120.0 0.4 120.0 0.0 120.0 -0.4 120.3 -0.7 L121.0 -1.0 M116.7 -0.7 L117.0 0.0 116.7 0.7 116.0 1.0 Q115.6 1.0 115.3 0.7 115.0 0.4 115.0 0.0 115.0 -0.4 115.3 -0.7 115.6 -1.0 116.0 -1.0 L116.7 -0.7 M111.7 -0.7 L112.0 0.0 111.7 0.7 Q111.4 1.0 111.0 1.0 L110.3 0.7 110.0 0.0 110.3 -0.7 111.0 -1.0 Q111.4 -1.0 111.7 -0.7 M106.7 -0.7 L107.0 0.0 106.7 0.7 106.0 1.0 Q105.6 1.0 105.3 0.7 105.0 0.4 105.0 0.0 105.0 -0.4 105.3 -0.7 105.6 -1.0 106.0 -1.0 L106.7 -0.7 M126.0 -1.0 L126.7 -0.7 127.0 0.0 126.7 0.7 126.0 1.0 125.3 0.7 Q125.0 0.4 125.0 0.0 125.0 -0.4 125.3 -0.7 L126.0 -1.0 M131.0 -1.0 L131.7 -0.7 132.0 0.0 131.7 0.7 131.0 1.0 Q130.6 1.0 130.3 0.7 130.0 0.4 130.0 0.0 130.0 -0.4 130.3 -0.7 130.6 -1.0 131.0 -1.0 M136.0 -1.0 L136.7 -0.7 137.0 0.0 136.7 0.7 136.0 1.0 Q135.6 1.0 135.3 0.7 135.0 0.4 135.0 0.0 135.0 -0.4 135.3 -0.7 135.6 -1.0 136.0 -1.0 M141.0 -1.0 L141.7 -0.7 142.0 0.0 141.7 0.7 141.0 1.0 Q140.6 1.0 140.3 0.7 L140.0 0.0 140.3 -0.7 Q140.6 -1.0 141.0 -1.0 M161.7 -0.7 L162.0 0.0 161.7 0.7 161.0 1.0 Q160.6 1.0 160.3 0.7 160.0 0.4 160.0 0.0 160.0 -0.4 160.3 -0.7 160.6 -1.0 161.0 -1.0 L161.7 -0.7 M156.7 -0.7 L157.0 0.0 156.7 0.7 Q156.4 1.0 156.0 1.0 L155.3 0.7 Q155.0 0.4 155.0 0.0 155.0 -0.4 155.3 -0.7 L156.0 -1.0 Q156.4 -1.0 156.7 -0.7 M151.7 -0.7 L152.0 0.0 151.7 0.7 151.0 1.0 150.3 0.7 Q150.0 0.4 150.0 0.0 150.0 -0.4 150.3 -0.7 L151.0 -1.0 151.7 -0.7 M146.7 -0.7 L147.0 0.0 146.7 0.7 146.0 1.0 145.3 0.7 Q145.0 0.4 145.0 0.0 145.0 -0.4 145.3 -0.7 L146.0 -1.0 146.7 -0.7 M166.0 -1.0 L166.7 -0.7 167.0 0.0 166.7 0.7 166.0 1.0 Q165.6 1.0 165.3 0.7 165.0 0.4 165.0 0.0 165.0 -0.4 165.3 -0.7 165.6 -1.0 166.0 -1.0 M171.0 -1.0 L171.7 -0.7 172.0 0.0 171.7 0.7 171.0 1.0 Q170.6 1.0 170.3 0.7 170.0 0.4 170.0 0.0 170.0 -0.4 170.3 -0.7 170.6 -1.0 171.0 -1.0" fill="#ffffff" fill-rule="evenodd" stroke="none"/>
  </g>
</svg>
