<?xml version="1.0" encoding="UTF-8" standalone="no"?>
<svg xmlns:ffdec="https://www.free-decompiler.com/flash" xmlns:xlink="http://www.w3.org/1999/xlink" ffdec:objectType="shape" height="2.0px" width="172.0px" xmlns="http://www.w3.org/2000/svg">
  <g transform="matrix(1.0, 0.0, 0.0, 1.0, -2.35, 1.0)">
    <path d="M3.35 -1.0 L4.05 -0.7 4.35 0.0 4.05 0.7 3.35 1.0 Q2.95 1.0 2.65 0.7 2.35 0.4 2.35 0.0 2.35 -0.4 2.65 -0.7 2.95 -1.0 3.35 -1.0 M8.35 -1.0 L9.05 -0.7 9.35 0.0 9.05 0.7 8.35 1.0 Q7.95 1.0 7.65 0.7 7.35 0.4 7.35 0.0 7.35 -0.4 7.65 -0.7 7.95 -1.0 8.35 -1.0 M13.35 -1.0 Q13.75 -1.0 14.05 -0.7 L14.35 0.0 14.05 0.7 Q13.75 1.0 13.35 1.0 L12.65 0.7 12.35 0.0 12.65 -0.7 13.35 -1.0 M18.35 -1.0 L19.05 -0.7 19.35 0.0 19.05 0.7 18.35 1.0 Q17.95 1.0 17.65 0.7 17.35 0.4 17.35 0.0 17.35 -0.4 17.65 -0.7 17.95 -1.0 18.35 -1.0 M39.05 -0.7 L39.35 0.0 39.05 0.7 38.35 1.0 Q37.95 1.0 37.65 0.7 37.35 0.4 37.35 0.0 37.35 -0.4 37.65 -0.7 37.95 -1.0 38.35 -1.0 L39.05 -0.7 M34.05 -0.7 L34.35 0.0 34.05 0.7 33.35 1.0 Q32.95 1.0 32.65 0.7 32.35 0.4 32.35 0.0 32.35 -0.4 32.65 -0.7 32.95 -1.0 33.35 -1.0 L34.05 -0.7 M29.05 -0.7 L29.35 0.0 29.05 0.7 28.35 1.0 27.65 0.7 Q27.35 0.4 27.35 0.0 27.35 -0.4 27.65 -0.7 L28.35 -1.0 29.05 -0.7 M24.05 -0.7 L24.35 0.0 24.05 0.7 23.35 1.0 22.65 0.7 Q22.35 0.4 22.35 0.0 22.35 -0.4 22.65 -0.7 L23.35 -1.0 24.05 -0.7 M43.35 -1.0 L44.05 -0.7 44.35 0.0 44.05 0.7 43.35 1.0 Q42.95 1.0 42.65 0.7 L42.35 0.0 42.65 -0.7 Q42.95 -1.0 43.35 -1.0 M48.35 -1.0 L49.05 -0.7 49.35 0.0 49.05 0.7 48.35 1.0 47.65 0.7 Q47.35 0.4 47.35 0.0 47.35 -0.4 47.65 -0.7 L48.35 -1.0 M53.35 -1.0 L54.05 -0.7 54.35 0.0 54.05 0.7 53.35 1.0 52.65 0.7 Q52.35 0.4 52.35 0.0 52.35 -0.4 52.65 -0.7 L53.35 -1.0 M58.35 -1.0 Q58.75 -1.0 59.05 -0.7 L59.35 0.0 59.05 0.7 Q58.75 1.0 58.35 1.0 L57.65 0.7 Q57.35 0.4 57.35 0.0 57.35 -0.4 57.65 -0.7 L58.35 -1.0 M79.05 -0.7 L79.35 0.0 79.05 0.7 78.35 1.0 Q77.95 1.0 77.65 0.7 77.35 0.4 77.35 0.0 77.35 -0.4 77.65 -0.7 77.95 -1.0 78.35 -1.0 L79.05 -0.7 M74.05 -0.7 L74.35 0.0 74.05 0.7 73.35 1.0 Q72.95 1.0 72.65 0.7 72.35 0.4 72.35 0.0 72.35 -0.4 72.65 -0.7 72.95 -1.0 73.35 -1.0 L74.05 -0.7 M69.05 -0.7 L69.35 0.0 69.05 0.7 68.35 1.0 Q67.95 1.0 67.65 0.7 67.35 0.4 67.35 0.0 67.35 -0.4 67.65 -0.7 67.95 -1.0 68.35 -1.0 L69.05 -0.7 M64.05 -0.7 L64.35 0.0 64.05 0.7 63.35 1.0 Q62.95 1.0 62.65 0.7 62.35 0.4 62.35 0.0 62.35 -0.4 62.65 -0.7 62.95 -1.0 63.35 -1.0 L64.05 -0.7 M83.35 -1.0 Q83.75 -1.0 84.05 -0.7 L84.35 0.0 84.05 0.7 Q83.75 1.0 83.35 1.0 L82.65 0.7 Q82.35 0.4 82.35 0.0 82.35 -0.4 82.65 -0.7 L83.35 -1.0 M88.35 -1.0 Q88.75 -1.0 89.05 -0.7 L89.35 0.0 89.05 0.7 Q88.75 1.0 88.35 1.0 L87.65 0.7 Q87.35 0.4 87.35 0.0 87.35 -0.4 87.65 -0.7 L88.35 -1.0 M93.35 -1.0 L94.05 -0.7 94.35 0.0 94.05 0.7 93.35 1.0 Q92.95 1.0 92.65 0.7 92.35 0.4 92.35 0.0 92.35 -0.4 92.65 -0.7 92.95 -1.0 93.35 -1.0 M98.35 -1.0 L99.05 -0.7 99.35 0.0 99.05 0.7 98.35 1.0 Q97.95 1.0 97.65 0.7 97.35 0.4 97.35 0.0 97.35 -0.4 97.65 -0.7 97.95 -1.0 98.35 -1.0 M119.05 -0.7 L119.35 0.0 119.05 0.7 Q118.75 1.0 118.35 1.0 L117.65 0.7 117.35 0.0 117.65 -0.7 118.35 -1.0 Q118.75 -1.0 119.05 -0.7 M114.05 -0.7 L114.35 0.0 114.05 0.7 113.35 1.0 Q112.95 1.0 112.65 0.7 112.35 0.4 112.35 0.0 112.35 -0.4 112.65 -0.7 112.95 -1.0 113.35 -1.0 L114.05 -0.7 M109.05 -0.7 L109.35 0.0 109.05 0.7 108.35 1.0 Q107.95 1.0 107.65 0.7 107.35 0.4 107.35 0.0 107.35 -0.4 107.65 -0.7 107.95 -1.0 108.35 -1.0 L109.05 -0.7 M104.05 -0.7 L104.35 0.0 104.05 0.7 103.35 1.0 102.65 0.7 Q102.35 0.4 102.35 0.0 102.35 -0.4 102.65 -0.7 L103.35 -1.0 104.05 -0.7 M123.35 -1.0 L124.05 -0.7 124.35 0.0 124.05 0.7 123.35 1.0 Q122.95 1.0 122.65 0.7 122.35 0.4 122.35 0.0 122.35 -0.4 122.65 -0.7 122.95 -1.0 123.35 -1.0 M128.35 -1.0 L129.05 -0.7 129.35 0.0 129.05 0.7 128.35 1.0 127.65 0.7 Q127.35 0.4 127.35 0.0 127.35 -0.4 127.65 -0.7 L128.35 -1.0 M133.35 -1.0 L134.05 -0.7 134.35 0.0 134.05 0.7 133.35 1.0 132.65 0.7 Q132.35 0.4 132.35 0.0 132.35 -0.4 132.65 -0.7 L133.35 -1.0 M138.35 -1.0 L139.05 -0.7 139.35 0.0 139.05 0.7 138.35 1.0 Q137.95 1.0 137.65 0.7 137.35 0.4 137.35 0.0 137.35 -0.4 137.65 -0.7 137.95 -1.0 138.35 -1.0 M159.05 -0.7 L159.35 0.0 159.05 0.7 158.35 1.0 157.65 0.7 Q157.35 0.4 157.35 0.0 157.35 -0.4 157.65 -0.7 L158.35 -1.0 159.05 -0.7 M154.05 -0.7 L154.35 0.0 154.05 0.7 153.35 1.0 152.65 0.7 Q152.35 0.4 152.35 0.0 152.35 -0.4 152.65 -0.7 L153.35 -1.0 154.05 -0.7 M149.05 -0.7 L149.35 0.0 149.05 0.7 148.35 1.0 Q147.95 1.0 147.65 0.7 L147.35 0.0 147.65 -0.7 Q147.95 -1.0 148.35 -1.0 L149.05 -0.7 M144.05 -0.7 L144.35 0.0 144.05 0.7 143.35 1.0 Q142.95 1.0 142.65 0.7 142.35 0.4 142.35 0.0 142.35 -0.4 142.65 -0.7 142.95 -1.0 143.35 -1.0 L144.05 -0.7 M163.35 -1.0 Q163.75 -1.0 164.05 -0.7 L164.35 0.0 164.05 0.7 Q163.75 1.0 163.35 1.0 L162.65 0.7 Q162.35 0.4 162.35 0.0 162.35 -0.4 162.65 -0.7 L163.35 -1.0 M168.35 -1.0 L169.05 -0.7 169.35 0.0 169.05 0.7 168.35 1.0 Q167.95 1.0 167.65 0.7 167.35 0.4 167.35 0.0 167.35 -0.4 167.65 -0.7 167.95 -1.0 168.35 -1.0 M173.35 -1.0 L174.05 -0.7 174.35 0.0 174.05 0.7 173.35 1.0 Q172.95 1.0 172.65 0.7 172.35 0.4 172.35 0.0 172.35 -0.4 172.65 -0.7 172.95 -1.0 173.35 -1.0" fill="#ffffff" fill-rule="evenodd" stroke="none"/>
  </g>
</svg>
