<?xml version="1.0" encoding="UTF-8" standalone="no"?>
<svg xmlns:ffdec="https://www.free-decompiler.com/flash" xmlns:xlink="http://www.w3.org/1999/xlink" ffdec:objectType="shape" height="17.25px" width="17.25px" xmlns="http://www.w3.org/2000/svg">
  <g transform="matrix(1.0, 0.0, 0.0, 1.0, -12.0, -6.25)">
    <path d="M24.3 11.25 Q22.8 9.7 20.65 9.7 18.5 9.7 17.0 11.25 15.45 12.7 15.45 14.9 15.45 17.05 17.0 18.55 18.5 20.05 20.65 20.05 22.8 20.05 24.3 18.55 25.85 17.05 25.85 14.9 25.85 12.7 24.3 11.25 M22.7 7.65 L24.3 8.35 25.25 8.1 Q26.1 8.15 26.7 8.7 L26.85 8.9 Q27.4 9.45 27.4 10.35 L27.25 11.25 27.9 12.85 Q28.3 12.95 28.7 13.3 29.25 13.95 29.25 14.8 L29.25 15.0 Q29.25 15.8 28.7 16.45 L27.9 16.9 27.25 18.5 27.4 19.45 Q27.45 20.35 26.85 20.9 L26.7 21.05 Q26.1 21.65 25.25 21.65 L24.3 21.45 22.7 22.1 22.2 22.9 Q21.6 23.5 20.75 23.5 L20.55 23.5 Q19.7 23.5 19.1 22.9 L18.6 22.1 17.05 21.45 16.1 21.65 Q15.25 21.65 14.65 21.05 L14.5 20.9 Q13.9 20.35 13.9 19.45 L14.1 18.55 Q13.65 17.8 13.45 16.9 13.0 16.8 12.65 16.4 12.0 15.8 12.0 15.0 L12.0 14.8 Q12.0 13.95 12.65 13.3 13.0 12.95 13.45 12.85 13.65 12.0 14.1 11.2 L13.9 10.35 Q13.9 9.45 14.5 8.85 L14.65 8.7 Q15.25 8.1 16.1 8.1 L17.0 8.35 Q17.8 7.9 18.6 7.65 L19.1 6.85 Q19.7 6.25 20.55 6.25 L20.75 6.25 Q21.6 6.25 22.2 6.85 L22.7 7.65 M21.75 13.75 Q22.2 14.2 22.2 14.9 22.2 15.55 21.75 16.0 L20.6 16.45 Q19.95 16.45 19.55 16.0 19.05 15.55 19.05 14.9 19.05 14.2 19.55 13.75 19.95 13.3 20.6 13.3 21.25 13.3 21.75 13.75" fill="#ffffff" fill-rule="evenodd" stroke="none"/>
  </g>
</svg>
