<?xml version="1.0" encoding="UTF-8" standalone="no"?>
<svg xmlns:ffdec="https://www.free-decompiler.com/flash" xmlns:xlink="http://www.w3.org/1999/xlink" ffdec:objectType="shape" height="2.0px" width="197.0px" xmlns="http://www.w3.org/2000/svg">
  <g transform="matrix(1.0, 0.0, 0.0, 1.0, -0.85, 1.0)">
    <path d="M1.85 -1.0 L2.55 -0.7 2.85 0.0 2.55 0.7 1.85 1.0 Q1.45 1.0 1.15 0.7 0.85 0.4 0.85 0.0 0.85 -0.4 1.15 -0.7 1.45 -1.0 1.85 -1.0 M6.85 -1.0 L7.55 -0.7 7.85 0.0 7.55 0.7 6.85 1.0 Q6.45 1.0 6.15 0.7 5.85 0.4 5.85 0.0 5.85 -0.4 6.15 -0.7 6.45 -1.0 6.85 -1.0 M11.85 -1.0 L12.55 -0.7 12.85 0.0 12.55 0.7 11.85 1.0 Q11.45 1.0 11.15 0.7 L10.85 0.0 11.15 -0.7 Q11.45 -1.0 11.85 -1.0 M16.85 -1.0 L17.55 -0.7 17.85 0.0 17.55 0.7 16.85 1.0 16.15 0.7 Q15.85 0.4 15.85 0.0 15.85 -0.4 16.15 -0.7 L16.85 -1.0 M37.55 -0.7 L37.85 0.0 37.55 0.7 36.85 1.0 Q36.45 1.0 36.15 0.7 35.85 0.4 35.85 0.0 35.85 -0.4 36.15 -0.7 36.45 -1.0 36.85 -1.0 L37.55 -0.7 M32.55 -0.7 L32.85 0.0 32.55 0.7 31.85 1.0 Q31.45 1.0 31.15 0.7 30.85 0.4 30.85 0.0 30.85 -0.4 31.15 -0.7 31.45 -1.0 31.85 -1.0 L32.55 -0.7 M27.55 -0.7 L27.85 0.0 27.55 0.7 Q27.25 1.0 26.85 1.0 L26.15 0.7 Q25.85 0.4 25.85 0.0 25.85 -0.4 26.15 -0.7 L26.85 -1.0 Q27.25 -1.0 27.55 -0.7 M22.55 -0.7 L22.85 0.0 22.55 0.7 21.85 1.0 21.15 0.7 Q20.85 0.4 20.85 0.0 20.85 -0.4 21.15 -0.7 L21.85 -1.0 22.55 -0.7 M41.85 -1.0 L42.55 -0.7 42.85 0.0 42.55 0.7 41.85 1.0 Q41.45 1.0 41.15 0.7 40.85 0.4 40.85 0.0 40.85 -0.4 41.15 -0.7 41.45 -1.0 41.85 -1.0 M46.85 -1.0 L47.55 -0.7 47.85 0.0 47.55 0.7 46.85 1.0 Q46.45 1.0 46.15 0.7 45.85 0.4 45.85 0.0 45.85 -0.4 46.15 -0.7 46.45 -1.0 46.85 -1.0 M51.85 -1.0 Q52.25 -1.0 52.55 -0.7 L52.85 0.0 52.55 0.7 Q52.25 1.0 51.85 1.0 L51.15 0.7 Q50.85 0.4 50.85 0.0 50.85 -0.4 51.15 -0.7 L51.85 -1.0 M56.85 -1.0 Q57.25 -1.0 57.55 -0.7 L57.85 0.0 57.55 0.7 Q57.25 1.0 56.85 1.0 L56.15 0.7 Q55.85 0.4 55.85 0.0 55.85 -0.4 56.15 -0.7 L56.85 -1.0 M77.55 -0.7 L77.85 0.0 77.55 0.7 76.85 1.0 Q76.45 1.0 76.15 0.7 75.85 0.4 75.85 0.0 75.85 -0.4 76.15 -0.7 76.45 -1.0 76.85 -1.0 L77.55 -0.7 M72.55 -0.7 L72.85 0.0 72.55 0.7 71.85 1.0 71.15 0.7 Q70.85 0.4 70.85 0.0 70.85 -0.4 71.15 -0.7 L71.85 -1.0 72.55 -0.7 M67.55 -0.7 L67.85 0.0 67.55 0.7 66.85 1.0 Q66.45 1.0 66.15 0.7 65.85 0.4 65.85 0.0 65.85 -0.4 66.15 -0.7 66.45 -1.0 66.85 -1.0 L67.55 -0.7 M62.55 -0.7 L62.85 0.0 62.55 0.7 61.85 1.0 Q61.45 1.0 61.15 0.7 60.85 0.4 60.85 0.0 60.85 -0.4 61.15 -0.7 61.45 -1.0 61.85 -1.0 L62.55 -0.7 M81.85 -1.0 L82.55 -0.7 82.85 0.0 82.55 0.7 81.85 1.0 Q81.45 1.0 81.15 0.7 80.85 0.4 80.85 0.0 80.85 -0.4 81.15 -0.7 81.45 -1.0 81.85 -1.0 M86.85 -1.0 Q87.25 -1.0 87.55 -0.7 L87.85 0.0 87.55 0.7 Q87.25 1.0 86.85 1.0 L86.15 0.7 85.85 0.0 86.15 -0.7 86.85 -1.0 M91.85 -1.0 L92.55 -0.7 92.85 0.0 92.55 0.7 91.85 1.0 Q91.45 1.0 91.15 0.7 90.85 0.4 90.85 0.0 90.85 -0.4 91.15 -0.7 91.45 -1.0 91.85 -1.0 M96.85 -1.0 L97.55 -0.7 97.85 0.0 97.55 0.7 96.85 1.0 96.15 0.7 Q95.85 0.4 95.85 0.0 95.85 -0.4 96.15 -0.7 L96.85 -1.0 M117.55 -0.7 L117.85 0.0 117.55 0.7 116.85 1.0 Q116.45 1.0 116.15 0.7 L115.85 0.0 116.15 -0.7 Q116.45 -1.0 116.85 -1.0 L117.55 -0.7 M112.55 -0.7 L112.85 0.0 112.55 0.7 111.85 1.0 Q111.45 1.0 111.15 0.7 110.85 0.4 110.85 0.0 110.85 -0.4 111.15 -0.7 111.45 -1.0 111.85 -1.0 L112.55 -0.7 M107.55 -0.7 L107.85 0.0 107.55 0.7 106.85 1.0 Q106.45 1.0 106.15 0.7 105.85 0.4 105.85 0.0 105.85 -0.4 106.15 -0.7 106.45 -1.0 106.85 -1.0 L107.55 -0.7 M102.55 -0.7 L102.85 0.0 102.55 0.7 101.85 1.0 101.15 0.7 Q100.85 0.4 100.85 0.0 100.85 -0.4 101.15 -0.7 L101.85 -1.0 102.55 -0.7 M122.55 -0.7 L122.85 0.0 122.55 0.7 121.85 1.0 121.15 0.7 Q120.85 0.4 120.85 0.0 120.85 -0.4 121.15 -0.7 L121.85 -1.0 122.55 -0.7 M126.85 -1.0 L127.55 -0.7 127.85 0.0 127.55 0.7 126.85 1.0 126.15 0.7 Q125.85 0.4 125.85 0.0 125.85 -0.4 126.15 -0.7 L126.85 -1.0 M131.85 -1.0 Q132.25 -1.0 132.55 -0.7 L132.85 0.0 132.55 0.7 Q132.25 1.0 131.85 1.0 L131.15 0.7 Q130.85 0.4 130.85 0.0 130.85 -0.4 131.15 -0.7 L131.85 -1.0 M136.85 -1.0 L137.55 -0.7 137.85 0.0 137.55 0.7 136.85 1.0 Q136.45 1.0 136.15 0.7 135.85 0.4 135.85 0.0 135.85 -0.4 136.15 -0.7 136.45 -1.0 136.85 -1.0 M161.85 -1.0 Q162.25 -1.0 162.55 -0.7 L162.85 0.0 162.55 0.7 Q162.25 1.0 161.85 1.0 L161.15 0.7 Q160.85 0.4 160.85 0.0 160.85 -0.4 161.15 -0.7 L161.85 -1.0 M157.55 -0.7 L157.85 0.0 157.55 0.7 Q157.25 1.0 156.85 1.0 L156.15 0.7 Q155.85 0.4 155.85 0.0 155.85 -0.4 156.15 -0.7 L156.85 -1.0 Q157.25 -1.0 157.55 -0.7 M152.55 -0.7 L152.85 0.0 152.55 0.7 151.85 1.0 Q151.45 1.0 151.15 0.7 150.85 0.4 150.85 0.0 150.85 -0.4 151.15 -0.7 151.45 -1.0 151.85 -1.0 L152.55 -0.7 M147.55 -0.7 L147.85 0.0 147.55 0.7 146.85 1.0 Q146.45 1.0 146.15 0.7 145.85 0.4 145.85 0.0 145.85 -0.4 146.15 -0.7 146.45 -1.0 146.85 -1.0 L147.55 -0.7 M142.55 -0.7 L142.85 0.0 142.55 0.7 141.85 1.0 Q141.45 1.0 141.15 0.7 140.85 0.4 140.85 0.0 140.85 -0.4 141.15 -0.7 141.45 -1.0 141.85 -1.0 L142.55 -0.7 M166.85 -1.0 L167.55 -0.7 167.85 0.0 167.55 0.7 166.85 1.0 Q166.45 1.0 166.15 0.7 165.85 0.4 165.85 0.0 165.85 -0.4 166.15 -0.7 166.45 -1.0 166.85 -1.0 M171.85 -1.0 L172.55 -0.7 172.85 0.0 172.55 0.7 171.85 1.0 Q171.45 1.0 171.15 0.7 170.85 0.4 170.85 0.0 170.85 -0.4 171.15 -0.7 171.45 -1.0 171.85 -1.0 M176.85 -1.0 L177.55 -0.7 177.85 0.0 177.55 0.7 176.85 1.0 176.15 0.7 Q175.85 0.4 175.85 0.0 175.85 -0.4 176.15 -0.7 L176.85 -1.0 M181.85 -1.0 L182.55 -0.7 182.85 0.0 182.55 0.7 181.85 1.0 Q181.45 1.0 181.15 0.7 180.85 0.4 180.85 0.0 180.85 -0.4 181.15 -0.7 181.45 -1.0 181.85 -1.0 M197.55 -0.7 L197.85 0.0 197.55 0.7 196.85 1.0 Q196.45 1.0 196.15 0.7 195.85 0.4 195.85 0.0 195.85 -0.4 196.15 -0.7 196.45 -1.0 196.85 -1.0 L197.55 -0.7 M192.55 -0.7 L192.85 0.0 192.55 0.7 Q192.25 1.0 191.85 1.0 L191.15 0.7 190.85 0.0 191.15 -0.7 191.85 -1.0 Q192.25 -1.0 192.55 -0.7 M187.55 -0.7 L187.85 0.0 187.55 0.7 186.85 1.0 Q186.45 1.0 186.15 0.7 185.85 0.4 185.85 0.0 185.85 -0.4 186.15 -0.7 186.45 -1.0 186.85 -1.0 L187.55 -0.7" fill="#ffffff" fill-rule="evenodd" stroke="none"/>
  </g>
</svg>
