<?xml version="1.0" encoding="UTF-8" standalone="no"?>
<svg xmlns:ffdec="https://www.free-decompiler.com/flash" xmlns:xlink="http://www.w3.org/1999/xlink" ffdec:objectType="shape" height="2.0px" width="197.0px" xmlns="http://www.w3.org/2000/svg">
  <g transform="matrix(1.0, 0.0, 0.0, 1.0, -3.2, 1.0)">
    <path d="M4.2 -1.0 L4.9 -0.7 5.2 0.0 4.9 0.7 4.2 1.0 3.5 0.7 Q3.2 0.4 3.2 0.0 3.2 -0.4 3.5 -0.7 L4.2 -1.0 M9.2 -1.0 L9.9 -0.7 10.2 0.0 9.9 0.7 9.2 1.0 Q8.8 1.0 8.5 0.7 8.2 0.4 8.2 0.0 8.2 -0.4 8.5 -0.7 8.8 -1.0 9.2 -1.0 M14.2 -1.0 L14.9 -0.7 15.2 0.0 14.9 0.7 14.2 1.0 Q13.8 1.0 13.5 0.7 13.2 0.4 13.2 0.0 13.2 -0.4 13.5 -0.7 13.8 -1.0 14.2 -1.0 M19.2 -1.0 L19.9 -0.7 20.2 0.0 19.9 0.7 19.2 1.0 Q18.8 1.0 18.5 0.7 L18.2 0.0 18.5 -0.7 Q18.8 -1.0 19.2 -1.0 M39.9 -0.7 L40.2 0.0 39.9 0.7 39.2 1.0 Q38.8 1.0 38.5 0.7 38.2 0.4 38.2 0.0 38.2 -0.4 38.5 -0.7 38.8 -1.0 39.2 -1.0 L39.9 -0.7 M34.9 -0.7 L35.2 0.0 34.9 0.7 Q34.6 1.0 34.2 1.0 L33.5 0.7 Q33.2 0.4 33.2 0.0 33.2 -0.4 33.5 -0.7 L34.2 -1.0 Q34.6 -1.0 34.9 -0.7 M29.9 -0.7 L30.2 0.0 29.9 0.7 29.2 1.0 28.5 0.7 Q28.2 0.4 28.2 0.0 28.2 -0.4 28.5 -0.7 L29.2 -1.0 29.9 -0.7 M24.9 -0.7 L25.2 0.0 24.9 0.7 24.2 1.0 23.5 0.7 Q23.2 0.4 23.2 0.0 23.2 -0.4 23.5 -0.7 L24.2 -1.0 24.9 -0.7 M44.2 -1.0 L44.9 -0.7 45.2 0.0 44.9 0.7 44.2 1.0 Q43.8 1.0 43.5 0.7 43.2 0.4 43.2 0.0 43.2 -0.4 43.5 -0.7 43.8 -1.0 44.2 -1.0 M49.2 -1.0 L49.9 -0.7 50.2 0.0 49.9 0.7 49.2 1.0 Q48.8 1.0 48.5 0.7 48.2 0.4 48.2 0.0 48.2 -0.4 48.5 -0.7 48.8 -1.0 49.2 -1.0 M54.2 -1.0 L54.9 -0.7 55.2 0.0 54.9 0.7 54.2 1.0 Q53.8 1.0 53.5 0.7 53.2 0.4 53.2 0.0 53.2 -0.4 53.5 -0.7 53.8 -1.0 54.2 -1.0 M59.2 -1.0 Q59.6 -1.0 59.9 -0.7 L60.2 0.0 59.9 0.7 Q59.6 1.0 59.2 1.0 L58.5 0.7 Q58.2 0.4 58.2 0.0 58.2 -0.4 58.5 -0.7 L59.2 -1.0 M79.9 -0.7 L80.2 0.0 79.9 0.7 79.2 1.0 78.5 0.7 Q78.2 0.4 78.2 0.0 78.2 -0.4 78.5 -0.7 L79.2 -1.0 79.9 -0.7 M74.9 -0.7 L75.2 0.0 74.9 0.7 74.2 1.0 Q73.8 1.0 73.5 0.7 73.2 0.4 73.2 0.0 73.2 -0.4 73.5 -0.7 73.8 -1.0 74.2 -1.0 L74.9 -0.7 M69.9 -0.7 L70.2 0.0 69.9 0.7 69.2 1.0 Q68.8 1.0 68.5 0.7 68.2 0.4 68.2 0.0 68.2 -0.4 68.5 -0.7 68.8 -1.0 69.2 -1.0 L69.9 -0.7 M64.9 -0.7 L65.2 0.0 64.9 0.7 Q64.6 1.0 64.2 1.0 L63.5 0.7 Q63.2 0.4 63.2 0.0 63.2 -0.4 63.5 -0.7 L64.2 -1.0 Q64.6 -1.0 64.9 -0.7 M84.2 -1.0 L84.9 -0.7 85.2 0.0 84.9 0.7 84.2 1.0 Q83.8 1.0 83.5 0.7 83.2 0.4 83.2 0.0 83.2 -0.4 83.5 -0.7 83.8 -1.0 84.2 -1.0 M89.2 -1.0 L89.9 -0.7 90.2 0.0 89.9 0.7 89.2 1.0 Q88.8 1.0 88.5 0.7 88.2 0.4 88.2 0.0 88.2 -0.4 88.5 -0.7 88.8 -1.0 89.2 -1.0 M94.2 -1.0 Q94.6 -1.0 94.9 -0.7 L95.2 0.0 94.9 0.7 Q94.6 1.0 94.2 1.0 L93.5 0.7 93.2 0.0 93.5 -0.7 94.2 -1.0 M99.2 -1.0 L99.9 -0.7 100.2 0.0 99.9 0.7 99.2 1.0 Q98.8 1.0 98.5 0.7 98.2 0.4 98.2 0.0 98.2 -0.4 98.5 -0.7 98.8 -1.0 99.2 -1.0 M119.9 -0.7 L120.2 0.0 119.9 0.7 119.2 1.0 Q118.8 1.0 118.5 0.7 118.2 0.4 118.2 0.0 118.2 -0.4 118.5 -0.7 118.8 -1.0 119.2 -1.0 L119.9 -0.7 M114.9 -0.7 L115.2 0.0 114.9 0.7 114.2 1.0 Q113.8 1.0 113.5 0.7 113.2 0.4 113.2 0.0 113.2 -0.4 113.5 -0.7 113.8 -1.0 114.2 -1.0 L114.9 -0.7 M109.9 -0.7 L110.2 0.0 109.9 0.7 109.2 1.0 108.5 0.7 Q108.2 0.4 108.2 0.0 108.2 -0.4 108.5 -0.7 L109.2 -1.0 109.9 -0.7 M104.9 -0.7 L105.2 0.0 104.9 0.7 104.2 1.0 103.5 0.7 Q103.2 0.4 103.2 0.0 103.2 -0.4 103.5 -0.7 L104.2 -1.0 104.9 -0.7 M124.2 -1.0 L124.9 -0.7 125.2 0.0 124.9 0.7 124.2 1.0 Q123.8 1.0 123.5 0.7 L123.2 0.0 123.5 -0.7 Q123.8 -1.0 124.2 -1.0 M129.2 -1.0 L129.9 -0.7 130.2 0.0 129.9 0.7 129.2 1.0 128.5 0.7 Q128.2 0.4 128.2 0.0 128.2 -0.4 128.5 -0.7 L129.2 -1.0 M134.2 -1.0 L134.9 -0.7 135.2 0.0 134.9 0.7 134.2 1.0 133.5 0.7 Q133.2 0.4 133.2 0.0 133.2 -0.4 133.5 -0.7 L134.2 -1.0 M139.2 -1.0 Q139.6 -1.0 139.9 -0.7 L140.2 0.0 139.9 0.7 Q139.6 1.0 139.2 1.0 L138.5 0.7 Q138.2 0.4 138.2 0.0 138.2 -0.4 138.5 -0.7 L139.2 -1.0 M159.9 -0.7 L160.2 0.0 159.9 0.7 159.2 1.0 Q158.8 1.0 158.5 0.7 158.2 0.4 158.2 0.0 158.2 -0.4 158.5 -0.7 158.8 -1.0 159.2 -1.0 L159.9 -0.7 M154.9 -0.7 L155.2 0.0 154.9 0.7 154.2 1.0 Q153.8 1.0 153.5 0.7 153.2 0.4 153.2 0.0 153.2 -0.4 153.5 -0.7 153.8 -1.0 154.2 -1.0 L154.9 -0.7 M149.9 -0.7 L150.2 0.0 149.9 0.7 149.2 1.0 Q148.8 1.0 148.5 0.7 148.2 0.4 148.2 0.0 148.2 -0.4 148.5 -0.7 148.8 -1.0 149.2 -1.0 L149.9 -0.7 M144.9 -0.7 L145.2 0.0 144.9 0.7 144.2 1.0 Q143.8 1.0 143.5 0.7 143.2 0.4 143.2 0.0 143.2 -0.4 143.5 -0.7 143.8 -1.0 144.2 -1.0 L144.9 -0.7 M164.2 -1.0 Q164.6 -1.0 164.9 -0.7 L165.2 0.0 164.9 0.7 Q164.6 1.0 164.2 1.0 L163.5 0.7 Q163.2 0.4 163.2 0.0 163.2 -0.4 163.5 -0.7 L164.2 -1.0 M169.2 -1.0 Q169.6 -1.0 169.9 -0.7 L170.2 0.0 169.9 0.7 Q169.6 1.0 169.2 1.0 L168.5 0.7 Q168.2 0.4 168.2 0.0 168.2 -0.4 168.5 -0.7 L169.2 -1.0 M174.2 -1.0 L174.9 -0.7 175.2 0.0 174.9 0.7 174.2 1.0 Q173.8 1.0 173.5 0.7 173.2 0.4 173.2 0.0 173.2 -0.4 173.5 -0.7 173.8 -1.0 174.2 -1.0 M179.2 -1.0 L179.9 -0.7 180.2 0.0 179.9 0.7 179.2 1.0 Q178.8 1.0 178.5 0.7 178.2 0.4 178.2 0.0 178.2 -0.4 178.5 -0.7 178.8 -1.0 179.2 -1.0 M199.9 -0.7 L200.2 0.0 199.9 0.7 Q199.6 1.0 199.2 1.0 L198.5 0.7 198.2 0.0 198.5 -0.7 199.2 -1.0 Q199.6 -1.0 199.9 -0.7 M194.9 -0.7 L195.2 0.0 194.9 0.7 194.2 1.0 Q193.8 1.0 193.5 0.7 193.2 0.4 193.2 0.0 193.2 -0.4 193.5 -0.7 193.8 -1.0 194.2 -1.0 L194.9 -0.7 M189.9 -0.7 L190.2 0.0 189.9 0.7 189.2 1.0 Q188.8 1.0 188.5 0.7 188.2 0.4 188.2 0.0 188.2 -0.4 188.5 -0.7 188.8 -1.0 189.2 -1.0 L189.9 -0.7 M184.9 -0.7 L185.2 0.0 184.9 0.7 184.2 1.0 183.5 0.7 Q183.2 0.4 183.2 0.0 183.2 -0.4 183.5 -0.7 L184.2 -1.0 184.9 -0.7" fill="#ffffff" fill-rule="evenodd" stroke="none"/>
  </g>
</svg>
