<?xml version="1.0" encoding="UTF-8" standalone="no"?>
<svg xmlns:ffdec="https://www.free-decompiler.com/flash" xmlns:xlink="http://www.w3.org/1999/xlink" ffdec:objectType="shape" height="2.0px" width="202.0px" xmlns="http://www.w3.org/2000/svg">
  <g transform="matrix(1.0, 0.0, 0.0, 1.0, -0.55, 1.0)">
    <path d="M1.55 -1.0 L2.25 -0.7 2.55 0.0 2.25 0.7 1.55 1.0 Q1.15 1.0 0.85 0.7 0.55 0.4 0.55 0.0 0.55 -0.4 0.85 -0.7 1.15 -1.0 1.55 -1.0 M6.55 -1.0 L7.25 -0.7 7.55 0.0 7.25 0.7 6.55 1.0 5.85 0.7 Q5.55 0.4 5.55 0.0 5.55 -0.4 5.85 -0.7 L6.55 -1.0 M11.55 -1.0 L12.25 -0.7 12.55 0.0 12.25 0.7 11.55 1.0 10.85 0.7 Q10.55 0.4 10.55 0.0 10.55 -0.4 10.85 -0.7 L11.55 -1.0 M16.55 -1.0 L17.25 -0.7 17.55 0.0 17.25 0.7 16.55 1.0 Q16.15 1.0 15.85 0.7 15.55 0.4 15.55 0.0 15.55 -0.4 15.85 -0.7 16.15 -1.0 16.55 -1.0 M37.25 -0.7 L37.55 0.0 37.25 0.7 36.55 1.0 35.85 0.7 Q35.55 0.4 35.55 0.0 35.55 -0.4 35.85 -0.7 L36.55 -1.0 37.25 -0.7 M32.25 -0.7 L32.55 0.0 32.25 0.7 31.55 1.0 30.85 0.7 Q30.55 0.4 30.55 0.0 30.55 -0.4 30.85 -0.7 L31.55 -1.0 32.25 -0.7 M27.25 -0.7 L27.55 0.0 27.25 0.7 26.55 1.0 Q26.15 1.0 25.85 0.7 L25.55 0.0 25.85 -0.7 Q26.15 -1.0 26.55 -1.0 L27.25 -0.7 M22.25 -0.7 L22.55 0.0 22.25 0.7 21.55 1.0 Q21.15 1.0 20.85 0.7 20.55 0.4 20.55 0.0 20.55 -0.4 20.85 -0.7 21.15 -1.0 21.55 -1.0 L22.25 -0.7 M41.55 -1.0 Q41.95 -1.0 42.25 -0.7 L42.55 0.0 42.25 0.7 Q41.95 1.0 41.55 1.0 L40.85 0.7 Q40.55 0.4 40.55 0.0 40.55 -0.4 40.85 -0.7 L41.55 -1.0 M46.55 -1.0 L47.25 -0.7 47.55 0.0 47.25 0.7 46.55 1.0 Q46.15 1.0 45.85 0.7 45.55 0.4 45.55 0.0 45.55 -0.4 45.85 -0.7 46.15 -1.0 46.55 -1.0 M51.55 -1.0 L52.25 -0.7 52.55 0.0 52.25 0.7 51.55 1.0 Q51.15 1.0 50.85 0.7 50.55 0.4 50.55 0.0 50.55 -0.4 50.85 -0.7 51.15 -1.0 51.55 -1.0 M56.55 -1.0 L57.25 -0.7 57.55 0.0 57.25 0.7 56.55 1.0 Q56.15 1.0 55.85 0.7 55.55 0.4 55.55 0.0 55.55 -0.4 55.85 -0.7 56.15 -1.0 56.55 -1.0 M77.25 -0.7 L77.55 0.0 77.25 0.7 76.55 1.0 Q76.15 1.0 75.85 0.7 75.55 0.4 75.55 0.0 75.55 -0.4 75.85 -0.7 76.15 -1.0 76.55 -1.0 L77.25 -0.7 M72.25 -0.7 L72.55 0.0 72.25 0.7 Q71.95 1.0 71.55 1.0 L70.85 0.7 Q70.55 0.4 70.55 0.0 70.55 -0.4 70.85 -0.7 L71.55 -1.0 Q71.95 -1.0 72.25 -0.7 M67.25 -0.7 L67.55 0.0 67.25 0.7 Q66.95 1.0 66.55 1.0 L65.85 0.7 Q65.55 0.4 65.55 0.0 65.55 -0.4 65.85 -0.7 L66.55 -1.0 Q66.95 -1.0 67.25 -0.7 M62.25 -0.7 L62.55 0.0 62.25 0.7 61.55 1.0 Q61.15 1.0 60.85 0.7 60.55 0.4 60.55 0.0 60.55 -0.4 60.85 -0.7 61.15 -1.0 61.55 -1.0 L62.25 -0.7 M82.25 -0.7 L82.55 0.0 82.25 0.7 81.55 1.0 Q81.15 1.0 80.85 0.7 80.55 0.4 80.55 0.0 80.55 -0.4 80.85 -0.7 81.15 -1.0 81.55 -1.0 L82.25 -0.7 M86.55 -1.0 L87.25 -0.7 87.55 0.0 87.25 0.7 86.55 1.0 85.85 0.7 Q85.55 0.4 85.55 0.0 85.55 -0.4 85.85 -0.7 L86.55 -1.0 M91.55 -1.0 L92.25 -0.7 92.55 0.0 92.25 0.7 91.55 1.0 Q91.15 1.0 90.85 0.7 90.55 0.4 90.55 0.0 90.55 -0.4 90.85 -0.7 91.15 -1.0 91.55 -1.0 M96.55 -1.0 L97.25 -0.7 97.55 0.0 97.25 0.7 96.55 1.0 Q96.15 1.0 95.85 0.7 95.55 0.4 95.55 0.0 95.55 -0.4 95.85 -0.7 96.15 -1.0 96.55 -1.0 M117.25 -0.7 L117.55 0.0 117.25 0.7 116.55 1.0 115.85 0.7 Q115.55 0.4 115.55 0.0 115.55 -0.4 115.85 -0.7 L116.55 -1.0 117.25 -0.7 M112.25 -0.7 L112.55 0.0 112.25 0.7 111.55 1.0 110.85 0.7 Q110.55 0.4 110.55 0.0 110.55 -0.4 110.85 -0.7 L111.55 -1.0 112.25 -0.7 M107.25 -0.7 L107.55 0.0 107.25 0.7 106.55 1.0 Q106.15 1.0 105.85 0.7 105.55 0.4 105.55 0.0 105.55 -0.4 105.85 -0.7 106.15 -1.0 106.55 -1.0 L107.25 -0.7 M102.25 -0.7 L102.55 0.0 102.25 0.7 Q101.95 1.0 101.55 1.0 L100.85 0.7 100.55 0.0 100.85 -0.7 101.55 -1.0 Q101.95 -1.0 102.25 -0.7 M122.25 -0.7 L122.55 0.0 122.25 0.7 121.55 1.0 Q121.15 1.0 120.85 0.7 120.55 0.4 120.55 0.0 120.55 -0.4 120.85 -0.7 121.15 -1.0 121.55 -1.0 L122.25 -0.7 M126.55 -1.0 L127.25 -0.7 127.55 0.0 127.25 0.7 126.55 1.0 Q126.15 1.0 125.85 0.7 125.55 0.4 125.55 0.0 125.55 -0.4 125.85 -0.7 126.15 -1.0 126.55 -1.0 M131.55 -1.0 L132.25 -0.7 132.55 0.0 132.25 0.7 131.55 1.0 Q131.15 1.0 130.85 0.7 L130.55 0.0 130.85 -0.7 Q131.15 -1.0 131.55 -1.0 M136.55 -1.0 L137.25 -0.7 137.55 0.0 137.25 0.7 136.55 1.0 135.85 0.7 Q135.55 0.4 135.55 0.0 135.55 -0.4 135.85 -0.7 L136.55 -1.0 M141.55 -1.0 L142.25 -0.7 142.55 0.0 142.25 0.7 141.55 1.0 140.85 0.7 Q140.55 0.4 140.55 0.0 140.55 -0.4 140.85 -0.7 L141.55 -1.0 M161.55 -1.0 L162.25 -0.7 162.55 0.0 162.25 0.7 161.55 1.0 Q161.15 1.0 160.85 0.7 160.55 0.4 160.55 0.0 160.55 -0.4 160.85 -0.7 161.15 -1.0 161.55 -1.0 M157.25 -0.7 L157.55 0.0 157.25 0.7 156.55 1.0 Q156.15 1.0 155.85 0.7 155.55 0.4 155.55 0.0 155.55 -0.4 155.85 -0.7 156.15 -1.0 156.55 -1.0 L157.25 -0.7 M152.25 -0.7 L152.55 0.0 152.25 0.7 151.55 1.0 Q151.15 1.0 150.85 0.7 150.55 0.4 150.55 0.0 150.55 -0.4 150.85 -0.7 151.15 -1.0 151.55 -1.0 L152.25 -0.7 M147.25 -0.7 L147.55 0.0 147.25 0.7 Q146.95 1.0 146.55 1.0 L145.85 0.7 Q145.55 0.4 145.55 0.0 145.55 -0.4 145.85 -0.7 L146.55 -1.0 Q146.95 -1.0 147.25 -0.7 M166.55 -1.0 L167.25 -0.7 167.55 0.0 167.25 0.7 166.55 1.0 Q166.15 1.0 165.85 0.7 165.55 0.4 165.55 0.0 165.55 -0.4 165.85 -0.7 166.15 -1.0 166.55 -1.0 M171.55 -1.0 Q171.95 -1.0 172.25 -0.7 L172.55 0.0 172.25 0.7 Q171.95 1.0 171.55 1.0 L170.85 0.7 Q170.55 0.4 170.55 0.0 170.55 -0.4 170.85 -0.7 L171.55 -1.0 M176.55 -1.0 Q176.95 -1.0 177.25 -0.7 L177.55 0.0 177.25 0.7 Q176.95 1.0 176.55 1.0 L175.85 0.7 Q175.55 0.4 175.55 0.0 175.55 -0.4 175.85 -0.7 L176.55 -1.0 M181.55 -1.0 L182.25 -0.7 182.55 0.0 182.25 0.7 181.55 1.0 Q181.15 1.0 180.85 0.7 180.55 0.4 180.55 0.0 180.55 -0.4 180.85 -0.7 181.15 -1.0 181.55 -1.0 M202.25 -0.7 L202.55 0.0 202.25 0.7 201.55 1.0 Q201.15 1.0 200.85 0.7 200.55 0.4 200.55 0.0 200.55 -0.4 200.85 -0.7 201.15 -1.0 201.55 -1.0 L202.25 -0.7 M197.25 -0.7 L197.55 0.0 197.25 0.7 196.55 1.0 Q196.15 1.0 195.85 0.7 195.55 0.4 195.55 0.0 195.55 -0.4 195.85 -0.7 196.15 -1.0 196.55 -1.0 L197.25 -0.7 M192.25 -0.7 L192.55 0.0 192.25 0.7 191.55 1.0 190.85 0.7 Q190.55 0.4 190.55 0.0 190.55 -0.4 190.85 -0.7 L191.55 -1.0 192.25 -0.7 M187.25 -0.7 L187.55 0.0 187.25 0.7 186.55 1.0 Q186.15 1.0 185.85 0.7 185.55 0.4 185.55 0.0 185.55 -0.4 185.85 -0.7 186.15 -1.0 186.55 -1.0 L187.25 -0.7" fill="#ffffff" fill-rule="evenodd" stroke="none"/>
  </g>
</svg>
