<?xml version="1.0" encoding="UTF-8" standalone="no"?>
<svg xmlns:ffdec="https://www.free-decompiler.com/flash" xmlns:xlink="http://www.w3.org/1999/xlink" ffdec:objectType="shape" height="2.0px" width="207.0px" xmlns="http://www.w3.org/2000/svg">
  <g transform="matrix(1.0, 0.0, 0.0, 1.0, -0.3, 1.0)">
    <path d="M1.3 -1.0 L2.0 -0.7 2.3 0.0 2.0 0.7 1.3 1.0 0.6 0.7 Q0.3 0.4 0.3 0.0 0.3 -0.4 0.6 -0.7 L1.3 -1.0 M6.3 -1.0 L7.0 -0.7 7.3 0.0 7.0 0.7 6.3 1.0 5.6 0.7 Q5.3 0.4 5.3 0.0 5.3 -0.4 5.6 -0.7 L6.3 -1.0 M11.3 -1.0 L12.0 -0.7 12.3 0.0 12.0 0.7 11.3 1.0 Q10.9 1.0 10.6 0.7 10.3 0.4 10.3 0.0 10.3 -0.4 10.6 -0.7 10.9 -1.0 11.3 -1.0 M16.3 -1.0 L17.0 -0.7 17.3 0.0 17.0 0.7 16.3 1.0 Q15.9 1.0 15.6 0.7 15.3 0.4 15.3 0.0 15.3 -0.4 15.6 -0.7 15.9 -1.0 16.3 -1.0 M37.0 -0.7 L37.3 0.0 37.0 0.7 Q36.7 1.0 36.3 1.0 L35.6 0.7 Q35.3 0.4 35.3 0.0 35.3 -0.4 35.6 -0.7 L36.3 -1.0 Q36.7 -1.0 37.0 -0.7 M32.0 -0.7 L32.3 0.0 32.0 0.7 31.3 1.0 30.6 0.7 Q30.3 0.4 30.3 0.0 30.3 -0.4 30.6 -0.7 L31.3 -1.0 32.0 -0.7 M27.0 -0.7 L27.3 0.0 27.0 0.7 26.3 1.0 25.6 0.7 Q25.3 0.4 25.3 0.0 25.3 -0.4 25.6 -0.7 L26.3 -1.0 27.0 -0.7 M22.0 -0.7 L22.3 0.0 22.0 0.7 21.3 1.0 Q20.9 1.0 20.6 0.7 L20.3 0.0 20.6 -0.7 Q20.9 -1.0 21.3 -1.0 L22.0 -0.7 M41.3 -1.0 L42.0 -0.7 42.3 0.0 42.0 0.7 41.3 1.0 Q40.9 1.0 40.6 0.7 40.3 0.4 40.3 0.0 40.3 -0.4 40.6 -0.7 40.9 -1.0 41.3 -1.0 M46.3 -1.0 L47.0 -0.7 47.3 0.0 47.0 0.7 46.3 1.0 Q45.9 1.0 45.6 0.7 45.3 0.4 45.3 0.0 45.3 -0.4 45.6 -0.7 45.9 -1.0 46.3 -1.0 M51.3 -1.0 L52.0 -0.7 52.3 0.0 52.0 0.7 51.3 1.0 Q50.9 1.0 50.6 0.7 50.3 0.4 50.3 0.0 50.3 -0.4 50.6 -0.7 50.9 -1.0 51.3 -1.0 M56.3 -1.0 L57.0 -0.7 57.3 0.0 57.0 0.7 56.3 1.0 Q55.9 1.0 55.6 0.7 55.3 0.4 55.3 0.0 55.3 -0.4 55.6 -0.7 55.9 -1.0 56.3 -1.0 M77.0 -0.7 L77.3 0.0 77.0 0.7 76.3 1.0 Q75.9 1.0 75.6 0.7 75.3 0.4 75.3 0.0 75.3 -0.4 75.6 -0.7 75.9 -1.0 76.3 -1.0 L77.0 -0.7 M72.0 -0.7 L72.3 0.0 72.0 0.7 71.3 1.0 Q70.9 1.0 70.6 0.7 70.3 0.4 70.3 0.0 70.3 -0.4 70.6 -0.7 70.9 -1.0 71.3 -1.0 L72.0 -0.7 M67.0 -0.7 L67.3 0.0 67.0 0.7 Q66.7 1.0 66.3 1.0 L65.6 0.7 Q65.3 0.4 65.3 0.0 65.3 -0.4 65.6 -0.7 L66.3 -1.0 Q66.7 -1.0 67.0 -0.7 M62.0 -0.7 L62.3 0.0 62.0 0.7 Q61.7 1.0 61.3 1.0 L60.6 0.7 Q60.3 0.4 60.3 0.0 60.3 -0.4 60.6 -0.7 L61.3 -1.0 Q61.7 -1.0 62.0 -0.7 M82.0 -0.7 L82.3 0.0 82.0 0.7 81.3 1.0 80.6 0.7 Q80.3 0.4 80.3 0.0 80.3 -0.4 80.6 -0.7 L81.3 -1.0 82.0 -0.7 M86.3 -1.0 L87.0 -0.7 87.3 0.0 87.0 0.7 86.3 1.0 Q85.9 1.0 85.6 0.7 85.3 0.4 85.3 0.0 85.3 -0.4 85.6 -0.7 85.9 -1.0 86.3 -1.0 M91.3 -1.0 L92.0 -0.7 92.3 0.0 92.0 0.7 91.3 1.0 Q90.9 1.0 90.6 0.7 90.3 0.4 90.3 0.0 90.3 -0.4 90.6 -0.7 90.9 -1.0 91.3 -1.0 M96.3 -1.0 Q96.7 -1.0 97.0 -0.7 L97.3 0.0 97.0 0.7 Q96.7 1.0 96.3 1.0 L95.6 0.7 95.3 0.0 95.6 -0.7 96.3 -1.0 M121.3 -1.0 L122.0 -0.7 122.3 0.0 122.0 0.7 121.3 1.0 Q120.9 1.0 120.6 0.7 120.3 0.4 120.3 0.0 120.3 -0.4 120.6 -0.7 120.9 -1.0 121.3 -1.0 M117.0 -0.7 L117.3 0.0 117.0 0.7 116.3 1.0 Q115.9 1.0 115.6 0.7 115.3 0.4 115.3 0.0 115.3 -0.4 115.6 -0.7 115.9 -1.0 116.3 -1.0 L117.0 -0.7 M112.0 -0.7 L112.3 0.0 112.0 0.7 111.3 1.0 110.6 0.7 Q110.3 0.4 110.3 0.0 110.3 -0.4 110.6 -0.7 L111.3 -1.0 112.0 -0.7 M107.0 -0.7 L107.3 0.0 107.0 0.7 106.3 1.0 105.6 0.7 Q105.3 0.4 105.3 0.0 105.3 -0.4 105.6 -0.7 L106.3 -1.0 107.0 -0.7 M102.0 -0.7 L102.3 0.0 102.0 0.7 101.3 1.0 Q100.9 1.0 100.6 0.7 100.3 0.4 100.3 0.0 100.3 -0.4 100.6 -0.7 100.9 -1.0 101.3 -1.0 L102.0 -0.7 M126.3 -1.0 L127.0 -0.7 127.3 0.0 127.0 0.7 126.3 1.0 Q125.9 1.0 125.6 0.7 L125.3 0.0 125.6 -0.7 Q125.9 -1.0 126.3 -1.0 M131.3 -1.0 L132.0 -0.7 132.3 0.0 132.0 0.7 131.3 1.0 130.6 0.7 Q130.3 0.4 130.3 0.0 130.3 -0.4 130.6 -0.7 L131.3 -1.0 M136.3 -1.0 L137.0 -0.7 137.3 0.0 137.0 0.7 136.3 1.0 135.6 0.7 Q135.3 0.4 135.3 0.0 135.3 -0.4 135.6 -0.7 L136.3 -1.0 M141.3 -1.0 Q141.7 -1.0 142.0 -0.7 L142.3 0.0 142.0 0.7 Q141.7 1.0 141.3 1.0 L140.6 0.7 Q140.3 0.4 140.3 0.0 140.3 -0.4 140.6 -0.7 L141.3 -1.0 M161.3 -1.0 L162.0 -0.7 162.3 0.0 162.0 0.7 161.3 1.0 Q160.9 1.0 160.6 0.7 160.3 0.4 160.3 0.0 160.3 -0.4 160.6 -0.7 160.9 -1.0 161.3 -1.0 M157.0 -0.7 L157.3 0.0 157.0 0.7 156.3 1.0 Q155.9 1.0 155.6 0.7 155.3 0.4 155.3 0.0 155.3 -0.4 155.6 -0.7 155.9 -1.0 156.3 -1.0 L157.0 -0.7 M152.0 -0.7 L152.3 0.0 152.0 0.7 151.3 1.0 Q150.9 1.0 150.6 0.7 150.3 0.4 150.3 0.0 150.3 -0.4 150.6 -0.7 150.9 -1.0 151.3 -1.0 L152.0 -0.7 M147.0 -0.7 L147.3 0.0 147.0 0.7 146.3 1.0 Q145.9 1.0 145.6 0.7 145.3 0.4 145.3 0.0 145.3 -0.4 145.6 -0.7 145.9 -1.0 146.3 -1.0 L147.0 -0.7 M166.3 -1.0 Q166.7 -1.0 167.0 -0.7 L167.3 0.0 167.0 0.7 Q166.7 1.0 166.3 1.0 L165.6 0.7 Q165.3 0.4 165.3 0.0 165.3 -0.4 165.6 -0.7 L166.3 -1.0 M171.3 -1.0 Q171.7 -1.0 172.0 -0.7 L172.3 0.0 172.0 0.7 Q171.7 1.0 171.3 1.0 L170.6 0.7 Q170.3 0.4 170.3 0.0 170.3 -0.4 170.6 -0.7 L171.3 -1.0 M176.3 -1.0 L177.0 -0.7 177.3 0.0 177.0 0.7 176.3 1.0 Q175.9 1.0 175.6 0.7 175.3 0.4 175.3 0.0 175.3 -0.4 175.6 -0.7 175.9 -1.0 176.3 -1.0 M181.3 -1.0 L182.0 -0.7 182.3 0.0 182.0 0.7 181.3 1.0 Q180.9 1.0 180.6 0.7 180.3 0.4 180.3 0.0 180.3 -0.4 180.6 -0.7 180.9 -1.0 181.3 -1.0 M202.0 -0.7 L202.3 0.0 202.0 0.7 Q201.7 1.0 201.3 1.0 L200.6 0.7 200.3 0.0 200.6 -0.7 201.3 -1.0 Q201.7 -1.0 202.0 -0.7 M197.0 -0.7 L197.3 0.0 197.0 0.7 196.3 1.0 Q195.9 1.0 195.6 0.7 195.3 0.4 195.3 0.0 195.3 -0.4 195.6 -0.7 195.9 -1.0 196.3 -1.0 L197.0 -0.7 M192.0 -0.7 L192.3 0.0 192.0 0.7 191.3 1.0 Q190.9 1.0 190.6 0.7 190.3 0.4 190.3 0.0 190.3 -0.4 190.6 -0.7 190.9 -1.0 191.3 -1.0 L192.0 -0.7 M187.0 -0.7 L187.3 0.0 187.0 0.7 186.3 1.0 185.6 0.7 Q185.3 0.4 185.3 0.0 185.3 -0.4 185.6 -0.7 L186.3 -1.0 187.0 -0.7 M206.3 -1.0 L207.0 -0.7 207.3 0.0 207.0 0.7 206.3 1.0 Q205.9 1.0 205.6 0.7 205.3 0.4 205.3 0.0 205.3 -0.4 205.6 -0.7 205.9 -1.0 206.3 -1.0" fill="#ffffff" fill-rule="evenodd" stroke="none"/>
  </g>
</svg>
