<?xml version="1.0" encoding="UTF-8" standalone="no"?>
<svg xmlns:ffdec="https://www.free-decompiler.com/flash" xmlns:xlink="http://www.w3.org/1999/xlink" ffdec:objectType="shape" height="2.0px" width="217.0px" xmlns="http://www.w3.org/2000/svg">
  <g transform="matrix(1.0, 0.0, 0.0, 1.0, -2.05, 1.0)">
    <path d="M3.05 -1.0 L3.75 -0.7 4.05 0.0 3.75 0.7 3.05 1.0 Q2.65 1.0 2.35 0.7 2.05 0.4 2.05 0.0 2.05 -0.4 2.35 -0.7 2.65 -1.0 3.05 -1.0 M8.05 -1.0 L8.75 -0.7 9.05 0.0 8.75 0.7 8.05 1.0 Q7.65 1.0 7.35 0.7 7.05 0.4 7.05 0.0 7.05 -0.4 7.35 -0.7 7.65 -1.0 8.05 -1.0 M13.05 -1.0 L13.75 -0.7 14.05 0.0 13.75 0.7 13.05 1.0 12.35 0.7 Q12.05 0.4 12.05 0.0 12.05 -0.4 12.35 -0.7 L13.05 -1.0 M18.05 -1.0 L18.75 -0.7 19.05 0.0 18.75 0.7 18.05 1.0 Q17.65 1.0 17.35 0.7 17.05 0.4 17.05 0.0 17.05 -0.4 17.35 -0.7 17.65 -1.0 18.05 -1.0 M38.75 -0.7 L39.05 0.0 38.75 0.7 38.05 1.0 37.35 0.7 Q37.05 0.4 37.05 0.0 37.05 -0.4 37.35 -0.7 L38.05 -1.0 38.75 -0.7 M33.75 -0.7 L34.05 0.0 33.75 0.7 33.05 1.0 Q32.65 1.0 32.35 0.7 32.05 0.4 32.05 0.0 32.05 -0.4 32.35 -0.7 32.65 -1.0 33.05 -1.0 L33.75 -0.7 M28.75 -0.7 L29.05 0.0 28.75 0.7 Q28.45 1.0 28.05 1.0 L27.35 0.7 27.05 0.0 27.35 -0.7 28.05 -1.0 Q28.45 -1.0 28.75 -0.7 M23.75 -0.7 L24.05 0.0 23.75 0.7 23.05 1.0 Q22.65 1.0 22.35 0.7 22.05 0.4 22.05 0.0 22.05 -0.4 22.35 -0.7 22.65 -1.0 23.05 -1.0 L23.75 -0.7 M43.05 -1.0 L43.75 -0.7 44.05 0.0 43.75 0.7 43.05 1.0 42.35 0.7 Q42.05 0.4 42.05 0.0 42.05 -0.4 42.35 -0.7 L43.05 -1.0 M48.05 -1.0 L48.75 -0.7 49.05 0.0 48.75 0.7 48.05 1.0 Q47.65 1.0 47.35 0.7 47.05 0.4 47.05 0.0 47.05 -0.4 47.35 -0.7 47.65 -1.0 48.05 -1.0 M53.05 -1.0 L53.75 -0.7 54.05 0.0 53.75 0.7 53.05 1.0 Q52.65 1.0 52.35 0.7 52.05 0.4 52.05 0.0 52.05 -0.4 52.35 -0.7 52.65 -1.0 53.05 -1.0 M58.05 -1.0 L58.75 -0.7 59.05 0.0 58.75 0.7 58.05 1.0 Q57.65 1.0 57.35 0.7 L57.05 0.0 57.35 -0.7 Q57.65 -1.0 58.05 -1.0 M78.75 -0.7 L79.05 0.0 78.75 0.7 78.05 1.0 Q77.65 1.0 77.35 0.7 77.05 0.4 77.05 0.0 77.05 -0.4 77.35 -0.7 77.65 -1.0 78.05 -1.0 L78.75 -0.7 M73.75 -0.7 L74.05 0.0 73.75 0.7 Q73.45 1.0 73.05 1.0 L72.35 0.7 Q72.05 0.4 72.05 0.0 72.05 -0.4 72.35 -0.7 L73.05 -1.0 Q73.45 -1.0 73.75 -0.7 M68.75 -0.7 L69.05 0.0 68.75 0.7 68.05 1.0 67.35 0.7 Q67.05 0.4 67.05 0.0 67.05 -0.4 67.35 -0.7 L68.05 -1.0 68.75 -0.7 M63.75 -0.7 L64.05 0.0 63.75 0.7 63.05 1.0 62.35 0.7 Q62.05 0.4 62.05 0.0 62.05 -0.4 62.35 -0.7 L63.05 -1.0 63.75 -0.7 M83.05 -1.0 L83.75 -0.7 84.05 0.0 83.75 0.7 83.05 1.0 Q82.65 1.0 82.35 0.7 82.05 0.4 82.05 0.0 82.05 -0.4 82.35 -0.7 82.65 -1.0 83.05 -1.0 M88.05 -1.0 L88.75 -0.7 89.05 0.0 88.75 0.7 88.05 1.0 Q87.65 1.0 87.35 0.7 87.05 0.4 87.05 0.0 87.05 -0.4 87.35 -0.7 87.65 -1.0 88.05 -1.0 M93.05 -1.0 L93.75 -0.7 94.05 0.0 93.75 0.7 93.05 1.0 Q92.65 1.0 92.35 0.7 92.05 0.4 92.05 0.0 92.05 -0.4 92.35 -0.7 92.65 -1.0 93.05 -1.0 M98.05 -1.0 Q98.45 -1.0 98.75 -0.7 L99.05 0.0 98.75 0.7 Q98.45 1.0 98.05 1.0 L97.35 0.7 Q97.05 0.4 97.05 0.0 97.05 -0.4 97.35 -0.7 L98.05 -1.0 M118.75 -0.7 L119.05 0.0 118.75 0.7 118.05 1.0 117.35 0.7 Q117.05 0.4 117.05 0.0 117.05 -0.4 117.35 -0.7 L118.05 -1.0 118.75 -0.7 M113.75 -0.7 L114.05 0.0 113.75 0.7 113.05 1.0 Q112.65 1.0 112.35 0.7 112.05 0.4 112.05 0.0 112.05 -0.4 112.35 -0.7 112.65 -1.0 113.05 -1.0 L113.75 -0.7 M108.75 -0.7 L109.05 0.0 108.75 0.7 108.05 1.0 Q107.65 1.0 107.35 0.7 107.05 0.4 107.05 0.0 107.05 -0.4 107.35 -0.7 107.65 -1.0 108.05 -1.0 L108.75 -0.7 M103.75 -0.7 L104.05 0.0 103.75 0.7 Q103.45 1.0 103.05 1.0 L102.35 0.7 Q102.05 0.4 102.05 0.0 102.05 -0.4 102.35 -0.7 L103.05 -1.0 Q103.45 -1.0 103.75 -0.7 M123.05 -1.0 L123.75 -0.7 124.05 0.0 123.75 0.7 123.05 1.0 Q122.65 1.0 122.35 0.7 122.05 0.4 122.05 0.0 122.05 -0.4 122.35 -0.7 122.65 -1.0 123.05 -1.0 M128.05 -1.0 L128.75 -0.7 129.05 0.0 128.75 0.7 128.05 1.0 Q127.65 1.0 127.35 0.7 127.05 0.4 127.05 0.0 127.05 -0.4 127.35 -0.7 127.65 -1.0 128.05 -1.0 M133.05 -1.0 Q133.45 -1.0 133.75 -0.7 L134.05 0.0 133.75 0.7 Q133.45 1.0 133.05 1.0 L132.35 0.7 132.05 0.0 132.35 -0.7 133.05 -1.0 M138.05 -1.0 L138.75 -0.7 139.05 0.0 138.75 0.7 138.05 1.0 Q137.65 1.0 137.35 0.7 137.05 0.4 137.05 0.0 137.05 -0.4 137.35 -0.7 137.65 -1.0 138.05 -1.0 M158.75 -0.7 L159.05 0.0 158.75 0.7 158.05 1.0 Q157.65 1.0 157.35 0.7 157.05 0.4 157.05 0.0 157.05 -0.4 157.35 -0.7 157.65 -1.0 158.05 -1.0 L158.75 -0.7 M153.75 -0.7 L154.05 0.0 153.75 0.7 153.05 1.0 Q152.65 1.0 152.35 0.7 152.05 0.4 152.05 0.0 152.05 -0.4 152.35 -0.7 152.65 -1.0 153.05 -1.0 L153.75 -0.7 M148.75 -0.7 L149.05 0.0 148.75 0.7 148.05 1.0 147.35 0.7 Q147.05 0.4 147.05 0.0 147.05 -0.4 147.35 -0.7 L148.05 -1.0 148.75 -0.7 M143.75 -0.7 L144.05 0.0 143.75 0.7 143.05 1.0 142.35 0.7 Q142.05 0.4 142.05 0.0 142.05 -0.4 142.35 -0.7 L143.05 -1.0 143.75 -0.7 M163.05 -1.0 L163.75 -0.7 164.05 0.0 163.75 0.7 163.05 1.0 Q162.65 1.0 162.35 0.7 L162.05 0.0 162.35 -0.7 Q162.65 -1.0 163.05 -1.0 M168.05 -1.0 L168.75 -0.7 169.05 0.0 168.75 0.7 168.05 1.0 167.35 0.7 Q167.05 0.4 167.05 0.0 167.05 -0.4 167.35 -0.7 L168.05 -1.0 M173.05 -1.0 L173.75 -0.7 174.05 0.0 173.75 0.7 173.05 1.0 172.35 0.7 Q172.05 0.4 172.05 0.0 172.05 -0.4 172.35 -0.7 L173.05 -1.0 M178.05 -1.0 Q178.45 -1.0 178.75 -0.7 L179.05 0.0 178.75 0.7 Q178.45 1.0 178.05 1.0 L177.35 0.7 Q177.05 0.4 177.05 0.0 177.05 -0.4 177.35 -0.7 L178.05 -1.0 M198.75 -0.7 L199.05 0.0 198.75 0.7 198.05 1.0 Q197.65 1.0 197.35 0.7 197.05 0.4 197.05 0.0 197.05 -0.4 197.35 -0.7 197.65 -1.0 198.05 -1.0 L198.75 -0.7 M193.75 -0.7 L194.05 0.0 193.75 0.7 193.05 1.0 Q192.65 1.0 192.35 0.7 192.05 0.4 192.05 0.0 192.05 -0.4 192.35 -0.7 192.65 -1.0 193.05 -1.0 L193.75 -0.7 M188.75 -0.7 L189.05 0.0 188.75 0.7 188.05 1.0 Q187.65 1.0 187.35 0.7 187.05 0.4 187.05 0.0 187.05 -0.4 187.35 -0.7 187.65 -1.0 188.05 -1.0 L188.75 -0.7 M183.75 -0.7 L184.05 0.0 183.75 0.7 183.05 1.0 Q182.65 1.0 182.35 0.7 182.05 0.4 182.05 0.0 182.05 -0.4 182.35 -0.7 182.65 -1.0 183.05 -1.0 L183.75 -0.7 M203.75 -0.7 L204.05 0.0 203.75 0.7 Q203.45 1.0 203.05 1.0 L202.35 0.7 Q202.05 0.4 202.05 0.0 202.05 -0.4 202.35 -0.7 L203.05 -1.0 Q203.45 -1.0 203.75 -0.7 M208.05 -1.0 Q208.45 -1.0 208.75 -0.7 L209.05 0.0 208.75 0.7 Q208.45 1.0 208.05 1.0 L207.35 0.7 Q207.05 0.4 207.05 0.0 207.05 -0.4 207.35 -0.7 L208.05 -1.0 M213.05 -1.0 L213.75 -0.7 214.05 0.0 213.75 0.7 213.05 1.0 Q212.65 1.0 212.35 0.7 212.05 0.4 212.05 0.0 212.05 -0.4 212.35 -0.7 212.65 -1.0 213.05 -1.0 M218.05 -1.0 L218.75 -0.7 219.05 0.0 218.75 0.7 218.05 1.0 Q217.65 1.0 217.35 0.7 217.05 0.4 217.05 0.0 217.05 -0.4 217.35 -0.7 217.65 -1.0 218.05 -1.0" fill="#ffffff" fill-rule="evenodd" stroke="none"/>
  </g>
</svg>
