<?xml version="1.0" encoding="UTF-8" standalone="no"?>
<svg xmlns:ffdec="https://www.free-decompiler.com/flash" xmlns:xlink="http://www.w3.org/1999/xlink" ffdec:objectType="shape" height="2.0px" width="227.0px" xmlns="http://www.w3.org/2000/svg">
  <g transform="matrix(1.0, 0.0, 0.0, 1.0, -1.45, 1.0)">
    <path d="M2.45 -1.0 L3.15 -0.7 3.45 0.0 3.15 0.7 2.45 1.0 Q2.05 1.0 1.75 0.7 1.45 0.4 1.45 0.0 1.45 -0.4 1.75 -0.7 2.05 -1.0 2.45 -1.0 M7.45 -1.0 L8.15 -0.7 8.45 0.0 8.15 0.7 7.45 1.0 Q7.05 1.0 6.75 0.7 6.45 0.4 6.45 0.0 6.45 -0.4 6.75 -0.7 7.05 -1.0 7.45 -1.0 M12.45 -1.0 L13.15 -0.7 13.45 0.0 13.15 0.7 12.45 1.0 Q12.05 1.0 11.75 0.7 11.45 0.4 11.45 0.0 11.45 -0.4 11.75 -0.7 12.05 -1.0 12.45 -1.0 M17.45 -1.0 L18.15 -0.7 18.45 0.0 18.15 0.7 17.45 1.0 Q17.05 1.0 16.75 0.7 16.45 0.4 16.45 0.0 16.45 -0.4 16.75 -0.7 17.05 -1.0 17.45 -1.0 M38.15 -0.7 L38.45 0.0 38.15 0.7 37.45 1.0 Q37.05 1.0 36.75 0.7 36.45 0.4 36.45 0.0 36.45 -0.4 36.75 -0.7 37.05 -1.0 37.45 -1.0 L38.15 -0.7 M33.15 -0.7 L33.45 0.0 33.15 0.7 32.45 1.0 Q32.05 1.0 31.75 0.7 31.45 0.4 31.45 0.0 31.45 -0.4 31.75 -0.7 32.05 -1.0 32.45 -1.0 L33.15 -0.7 M28.15 -0.7 L28.45 0.0 28.15 0.7 Q27.85 1.0 27.45 1.0 L26.75 0.7 Q26.45 0.4 26.45 0.0 26.45 -0.4 26.75 -0.7 L27.45 -1.0 Q27.85 -1.0 28.15 -0.7 M23.15 -0.7 L23.45 0.0 23.15 0.7 Q22.85 1.0 22.45 1.0 L21.75 0.7 Q21.45 0.4 21.45 0.0 21.45 -0.4 21.75 -0.7 L22.45 -1.0 Q22.85 -1.0 23.15 -0.7 M42.45 -1.0 L43.15 -0.7 43.45 0.0 43.15 0.7 42.45 1.0 41.75 0.7 Q41.45 0.4 41.45 0.0 41.45 -0.4 41.75 -0.7 L42.45 -1.0 M47.45 -1.0 L48.15 -0.7 48.45 0.0 48.15 0.7 47.45 1.0 Q47.05 1.0 46.75 0.7 46.45 0.4 46.45 0.0 46.45 -0.4 46.75 -0.7 47.05 -1.0 47.45 -1.0 M52.45 -1.0 L53.15 -0.7 53.45 0.0 53.15 0.7 52.45 1.0 Q52.05 1.0 51.75 0.7 51.45 0.4 51.45 0.0 51.45 -0.4 51.75 -0.7 52.05 -1.0 52.45 -1.0 M57.45 -1.0 Q57.85 -1.0 58.15 -0.7 L58.45 0.0 58.15 0.7 Q57.85 1.0 57.45 1.0 L56.75 0.7 56.45 0.0 56.75 -0.7 57.45 -1.0 M78.15 -0.7 L78.45 0.0 78.15 0.7 77.45 1.0 Q77.05 1.0 76.75 0.7 76.45 0.4 76.45 0.0 76.45 -0.4 76.75 -0.7 77.05 -1.0 77.45 -1.0 L78.15 -0.7 M73.15 -0.7 L73.45 0.0 73.15 0.7 72.45 1.0 71.75 0.7 Q71.45 0.4 71.45 0.0 71.45 -0.4 71.75 -0.7 L72.45 -1.0 73.15 -0.7 M68.15 -0.7 L68.45 0.0 68.15 0.7 67.45 1.0 66.75 0.7 Q66.45 0.4 66.45 0.0 66.45 -0.4 66.75 -0.7 L67.45 -1.0 68.15 -0.7 M63.15 -0.7 L63.45 0.0 63.15 0.7 62.45 1.0 Q62.05 1.0 61.75 0.7 61.45 0.4 61.45 0.0 61.45 -0.4 61.75 -0.7 62.05 -1.0 62.45 -1.0 L63.15 -0.7 M82.45 -1.0 L83.15 -0.7 83.45 0.0 83.15 0.7 82.45 1.0 Q82.05 1.0 81.75 0.7 81.45 0.4 81.45 0.0 81.45 -0.4 81.75 -0.7 82.05 -1.0 82.45 -1.0 M87.45 -1.0 L88.15 -0.7 88.45 0.0 88.15 0.7 87.45 1.0 Q87.05 1.0 86.75 0.7 L86.45 0.0 86.75 -0.7 Q87.05 -1.0 87.45 -1.0 M92.45 -1.0 L93.15 -0.7 93.45 0.0 93.15 0.7 92.45 1.0 91.75 0.7 Q91.45 0.4 91.45 0.0 91.45 -0.4 91.75 -0.7 L92.45 -1.0 M97.45 -1.0 L98.15 -0.7 98.45 0.0 98.15 0.7 97.45 1.0 96.75 0.7 Q96.45 0.4 96.45 0.0 96.45 -0.4 96.75 -0.7 L97.45 -1.0 M118.15 -0.7 L118.45 0.0 118.15 0.7 117.45 1.0 Q117.05 1.0 116.75 0.7 116.45 0.4 116.45 0.0 116.45 -0.4 116.75 -0.7 117.05 -1.0 117.45 -1.0 L118.15 -0.7 M113.15 -0.7 L113.45 0.0 113.15 0.7 112.45 1.0 Q112.05 1.0 111.75 0.7 111.45 0.4 111.45 0.0 111.45 -0.4 111.75 -0.7 112.05 -1.0 112.45 -1.0 L113.15 -0.7 M108.15 -0.7 L108.45 0.0 108.15 0.7 107.45 1.0 Q107.05 1.0 106.75 0.7 106.45 0.4 106.45 0.0 106.45 -0.4 106.75 -0.7 107.05 -1.0 107.45 -1.0 L108.15 -0.7 M103.15 -0.7 L103.45 0.0 103.15 0.7 Q102.85 1.0 102.45 1.0 L101.75 0.7 Q101.45 0.4 101.45 0.0 101.45 -0.4 101.75 -0.7 L102.45 -1.0 Q102.85 -1.0 103.15 -0.7 M122.45 -1.0 L123.15 -0.7 123.45 0.0 123.15 0.7 122.45 1.0 Q122.05 1.0 121.75 0.7 121.45 0.4 121.45 0.0 121.45 -0.4 121.75 -0.7 122.05 -1.0 122.45 -1.0 M127.45 -1.0 Q127.85 -1.0 128.15 -0.7 L128.45 0.0 128.15 0.7 Q127.85 1.0 127.45 1.0 L126.75 0.7 Q126.45 0.4 126.45 0.0 126.45 -0.4 126.75 -0.7 L127.45 -1.0 M132.45 -1.0 Q132.85 -1.0 133.15 -0.7 L133.45 0.0 133.15 0.7 Q132.85 1.0 132.45 1.0 L131.75 0.7 Q131.45 0.4 131.45 0.0 131.45 -0.4 131.75 -0.7 L132.45 -1.0 M137.45 -1.0 L138.15 -0.7 138.45 0.0 138.15 0.7 137.45 1.0 Q137.05 1.0 136.75 0.7 136.45 0.4 136.45 0.0 136.45 -0.4 136.75 -0.7 137.05 -1.0 137.45 -1.0 M158.15 -0.7 L158.45 0.0 158.15 0.7 157.45 1.0 Q157.05 1.0 156.75 0.7 156.45 0.4 156.45 0.0 156.45 -0.4 156.75 -0.7 157.05 -1.0 157.45 -1.0 L158.15 -0.7 M153.15 -0.7 L153.45 0.0 153.15 0.7 152.45 1.0 Q152.05 1.0 151.75 0.7 151.45 0.4 151.45 0.0 151.45 -0.4 151.75 -0.7 152.05 -1.0 152.45 -1.0 L153.15 -0.7 M148.15 -0.7 L148.45 0.0 148.15 0.7 147.45 1.0 146.75 0.7 Q146.45 0.4 146.45 0.0 146.45 -0.4 146.75 -0.7 L147.45 -1.0 148.15 -0.7 M143.15 -0.7 L143.45 0.0 143.15 0.7 142.45 1.0 Q142.05 1.0 141.75 0.7 141.45 0.4 141.45 0.0 141.45 -0.4 141.75 -0.7 142.05 -1.0 142.45 -1.0 L143.15 -0.7 M163.15 -0.7 L163.45 0.0 163.15 0.7 Q162.85 1.0 162.45 1.0 L161.75 0.7 161.45 0.0 161.75 -0.7 162.45 -1.0 Q162.85 -1.0 163.15 -0.7 M167.45 -1.0 L168.15 -0.7 168.45 0.0 168.15 0.7 167.45 1.0 Q167.05 1.0 166.75 0.7 166.45 0.4 166.45 0.0 166.45 -0.4 166.75 -0.7 167.05 -1.0 167.45 -1.0 M172.45 -1.0 L173.15 -0.7 173.45 0.0 173.15 0.7 172.45 1.0 171.75 0.7 Q171.45 0.4 171.45 0.0 171.45 -0.4 171.75 -0.7 L172.45 -1.0 M177.45 -1.0 L178.15 -0.7 178.45 0.0 178.15 0.7 177.45 1.0 176.75 0.7 Q176.45 0.4 176.45 0.0 176.45 -0.4 176.75 -0.7 L177.45 -1.0 M202.45 -1.0 L203.15 -0.7 203.45 0.0 203.15 0.7 202.45 1.0 201.75 0.7 Q201.45 0.4 201.45 0.0 201.45 -0.4 201.75 -0.7 L202.45 -1.0 M198.15 -0.7 L198.45 0.0 198.15 0.7 197.45 1.0 196.75 0.7 Q196.45 0.4 196.45 0.0 196.45 -0.4 196.75 -0.7 L197.45 -1.0 198.15 -0.7 M193.15 -0.7 L193.45 0.0 193.15 0.7 192.45 1.0 Q192.05 1.0 191.75 0.7 L191.45 0.0 191.75 -0.7 Q192.05 -1.0 192.45 -1.0 L193.15 -0.7 M188.15 -0.7 L188.45 0.0 188.15 0.7 187.45 1.0 Q187.05 1.0 186.75 0.7 186.45 0.4 186.45 0.0 186.45 -0.4 186.75 -0.7 187.05 -1.0 187.45 -1.0 L188.15 -0.7 M183.15 -0.7 L183.45 0.0 183.15 0.7 182.45 1.0 Q182.05 1.0 181.75 0.7 181.45 0.4 181.45 0.0 181.45 -0.4 181.75 -0.7 182.05 -1.0 182.45 -1.0 L183.15 -0.7 M207.45 -1.0 Q207.85 -1.0 208.15 -0.7 L208.45 0.0 208.15 0.7 Q207.85 1.0 207.45 1.0 L206.75 0.7 Q206.45 0.4 206.45 0.0 206.45 -0.4 206.75 -0.7 L207.45 -1.0 M222.45 -1.0 L223.15 -0.7 223.45 0.0 223.15 0.7 222.45 1.0 Q222.05 1.0 221.75 0.7 221.45 0.4 221.45 0.0 221.45 -0.4 221.75 -0.7 222.05 -1.0 222.45 -1.0 M218.15 -0.7 L218.45 0.0 218.15 0.7 217.45 1.0 Q217.05 1.0 216.75 0.7 216.45 0.4 216.45 0.0 216.45 -0.4 216.75 -0.7 217.05 -1.0 217.45 -1.0 L218.15 -0.7 M213.15 -0.7 L213.45 0.0 213.15 0.7 212.45 1.0 Q212.05 1.0 211.75 0.7 211.45 0.4 211.45 0.0 211.45 -0.4 211.75 -0.7 212.05 -1.0 212.45 -1.0 L213.15 -0.7 M228.15 -0.7 L228.45 0.0 228.15 0.7 227.45 1.0 Q227.05 1.0 226.75 0.7 226.45 0.4 226.45 0.0 226.45 -0.4 226.75 -0.7 227.05 -1.0 227.45 -1.0 L228.15 -0.7" fill="#ffffff" fill-rule="evenodd" stroke="none"/>
  </g>
</svg>
