<?xml version="1.0" encoding="UTF-8" standalone="no"?>
<svg xmlns:ffdec="https://www.free-decompiler.com/flash" xmlns:xlink="http://www.w3.org/1999/xlink" ffdec:objectType="shape" height="19.25px" width="14.3px" xmlns="http://www.w3.org/2000/svg">
  <g transform="matrix(1.0, 0.0, 0.0, 1.0, -12.85, -6.0)">
    <path d="M23.45 8.8 L21.3 8.8 21.3 7.95 13.45 8.55 21.3 7.95 21.3 8.8 23.45 8.8 26.65 8.8 26.65 19.95 21.3 19.95 21.3 24.75 13.35 20.0 13.45 19.9 13.45 15.65 13.45 8.55 23.55 6.5 23.45 8.8 M21.3 8.8 L21.3 19.95 21.3 8.8 M17.25 13.7 L17.85 13.45 18.15 12.85 17.85 12.2 Q17.65 11.85 17.25 11.9 L16.7 12.1 16.5 12.75 16.7 13.35 16.85 13.45 16.65 13.7 16.5 13.6 Q16.3 13.55 16.35 13.75 L16.5 13.95 16.65 13.95 16.8 14.1 16.75 14.3 16.9 14.65 17.2 14.8 17.45 14.75 17.6 14.45 17.45 14.1 17.2 13.9 17.25 13.7 M14.85 10.7 Q14.55 11.0 14.6 11.5 L14.6 17.8 14.85 18.75 15.55 19.5 16.4 19.55 16.7 18.75 16.7 18.1 16.85 18.15 18.95 18.0 Q19.7 17.5 19.95 16.55 L20.0 15.85 20.0 13.45 Q20.0 12.15 19.2 11.25 L19.0 10.95 Q18.05 10.0 16.9 10.15 L16.1 10.3 15.6 10.25 15.55 10.25 Q15.15 10.25 14.85 10.7 M14.95 11.55 Q14.9 11.2 15.1 10.95 15.25 10.7 15.55 10.7 L15.6 10.7 16.05 10.9 16.9 10.65 Q17.75 10.6 18.45 11.25 L18.6 11.35 Q19.4 12.2 19.4 13.4 19.35 14.6 18.6 15.3 17.8 15.85 16.85 15.65 L16.3 15.45 16.3 16.65 16.1 17.2 15.6 17.2 15.55 17.2 15.1 16.8 14.9 16.15 14.95 11.55" fill="#999999" fill-opacity="0.0" fill-rule="evenodd" stroke="none"/>
    <path d="M14.95 11.55 L14.9 16.15 15.1 16.8 15.55 17.2 15.6 17.2 16.1 17.2 16.3 16.65 16.3 15.45 16.85 15.65 Q17.8 15.85 18.6 15.3 19.35 14.6 19.4 13.4 19.4 12.2 18.6 11.35 L18.45 11.25 Q17.75 10.6 16.9 10.65 L16.05 10.9 15.6 10.7 15.55 10.7 Q15.25 10.7 15.1 10.95 14.9 11.2 14.95 11.55 M14.85 10.7 Q15.15 10.25 15.55 10.25 L15.6 10.25 16.1 10.3 16.9 10.15 Q18.05 10.0 19.0 10.95 L19.2 11.25 Q20.0 12.15 20.0 13.45 L20.0 15.85 19.95 16.55 Q19.7 17.5 18.95 18.0 L16.85 18.15 16.7 18.1 16.7 18.75 16.4 19.55 15.55 19.5 14.85 18.75 14.6 17.8 14.6 11.5 Q14.55 11.0 14.85 10.7 M16.85 13.45 L16.7 13.35 16.5 12.75 16.7 12.1 17.25 11.9 Q17.65 11.85 17.85 12.2 L18.15 12.85 17.85 13.45 17.25 13.7 16.85 13.45 M17.2 13.9 L17.45 14.1 17.6 14.45 17.45 14.75 17.2 14.8 16.9 14.65 16.75 14.3 16.8 14.1 16.9 13.95 17.2 13.9 M16.65 13.95 L16.5 13.95 16.35 13.75 Q16.3 13.55 16.5 13.6 L16.65 13.7 16.7 13.8 16.65 13.95" fill="#ffffff" fill-rule="evenodd" stroke="none"/>
    <path d="M13.45 8.55 L21.3 7.95 21.3 8.8 23.45 8.8 23.55 6.5 13.45 8.55 13.45 15.65 13.35 20.0 21.3 24.75 21.3 19.95 21.3 8.8 M21.3 19.95 L26.65 19.95 26.65 8.8 23.45 8.8" fill="none" stroke="#ffffff" stroke-linecap="round" stroke-linejoin="round" stroke-width="1.0"/>
  </g>
</svg>
