<?xml version="1.0" encoding="UTF-8" standalone="no"?>
<svg xmlns:ffdec="https://www.free-decompiler.com/flash" xmlns:xlink="http://www.w3.org/1999/xlink" ffdec:objectType="shape" height="2.0px" width="237.0px" xmlns="http://www.w3.org/2000/svg">
  <g transform="matrix(1.0, 0.0, 0.0, 1.0, -0.9, 1.0)">
    <path d="M1.9 -1.0 L2.6 -0.7 2.9 0.0 2.6 0.7 1.9 1.0 1.2 0.7 Q0.9 0.4 0.9 0.0 0.9 -0.4 1.2 -0.7 L1.9 -1.0 M6.9 -1.0 Q7.3 -1.0 7.6 -0.7 L7.9 0.0 7.6 0.7 Q7.3 1.0 6.9 1.0 L6.2 0.7 Q5.9 0.4 5.9 0.0 5.9 -0.4 6.2 -0.7 L6.9 -1.0 M11.9 -1.0 L12.6 -0.7 12.9 0.0 12.6 0.7 11.9 1.0 Q11.5 1.0 11.2 0.7 10.9 0.4 10.9 0.0 10.9 -0.4 11.2 -0.7 11.5 -1.0 11.9 -1.0 M16.9 -1.0 L17.6 -0.7 17.9 0.0 17.6 0.7 16.9 1.0 Q16.5 1.0 16.2 0.7 15.9 0.4 15.9 0.0 15.9 -0.4 16.2 -0.7 16.5 -1.0 16.9 -1.0 M37.6 -0.7 L37.9 0.0 37.6 0.7 Q37.3 1.0 36.9 1.0 L36.2 0.7 Q35.9 0.4 35.9 0.0 35.9 -0.4 36.2 -0.7 L36.9 -1.0 Q37.3 -1.0 37.6 -0.7 M32.6 -0.7 L32.9 0.0 32.6 0.7 Q32.3 1.0 31.9 1.0 L31.2 0.7 Q30.9 0.4 30.9 0.0 30.9 -0.4 31.2 -0.7 L31.9 -1.0 Q32.3 -1.0 32.6 -0.7 M27.6 -0.7 L27.9 0.0 27.6 0.7 26.9 1.0 Q26.5 1.0 26.2 0.7 25.9 0.4 25.9 0.0 25.9 -0.4 26.2 -0.7 26.5 -1.0 26.9 -1.0 L27.6 -0.7 M22.6 -0.7 L22.9 0.0 22.6 0.7 21.9 1.0 Q21.5 1.0 21.2 0.7 20.9 0.4 20.9 0.0 20.9 -0.4 21.2 -0.7 21.5 -1.0 21.9 -1.0 L22.6 -0.7 M41.9 -1.0 L42.6 -0.7 42.9 0.0 42.6 0.7 41.9 1.0 Q41.5 1.0 41.2 0.7 40.9 0.4 40.9 0.0 40.9 -0.4 41.2 -0.7 41.5 -1.0 41.9 -1.0 M46.9 -1.0 L47.6 -0.7 47.9 0.0 47.6 0.7 46.9 1.0 Q46.5 1.0 46.2 0.7 45.9 0.4 45.9 0.0 45.9 -0.4 46.2 -0.7 46.5 -1.0 46.9 -1.0 M51.9 -1.0 L52.6 -0.7 52.9 0.0 52.6 0.7 51.9 1.0 51.2 0.7 Q50.9 0.4 50.9 0.0 50.9 -0.4 51.2 -0.7 L51.9 -1.0 M56.9 -1.0 L57.6 -0.7 57.9 0.0 57.6 0.7 56.9 1.0 Q56.5 1.0 56.2 0.7 55.9 0.4 55.9 0.0 55.9 -0.4 56.2 -0.7 56.5 -1.0 56.9 -1.0 M77.6 -0.7 L77.9 0.0 77.6 0.7 76.9 1.0 76.2 0.7 Q75.9 0.4 75.9 0.0 75.9 -0.4 76.2 -0.7 L76.9 -1.0 77.6 -0.7 M72.6 -0.7 L72.9 0.0 72.6 0.7 71.9 1.0 Q71.5 1.0 71.2 0.7 70.9 0.4 70.9 0.0 70.9 -0.4 71.2 -0.7 71.5 -1.0 71.9 -1.0 L72.6 -0.7 M67.6 -0.7 L67.9 0.0 67.6 0.7 Q67.3 1.0 66.9 1.0 L66.2 0.7 65.9 0.0 66.2 -0.7 66.9 -1.0 Q67.3 -1.0 67.6 -0.7 M62.6 -0.7 L62.9 0.0 62.6 0.7 61.9 1.0 Q61.5 1.0 61.2 0.7 60.9 0.4 60.9 0.0 60.9 -0.4 61.2 -0.7 61.5 -1.0 61.9 -1.0 L62.6 -0.7 M81.9 -1.0 L82.6 -0.7 82.9 0.0 82.6 0.7 81.9 1.0 81.2 0.7 Q80.9 0.4 80.9 0.0 80.9 -0.4 81.2 -0.7 L81.9 -1.0 M86.9 -1.0 L87.6 -0.7 87.9 0.0 87.6 0.7 86.9 1.0 Q86.5 1.0 86.2 0.7 85.9 0.4 85.9 0.0 85.9 -0.4 86.2 -0.7 86.5 -1.0 86.9 -1.0 M91.9 -1.0 L92.6 -0.7 92.9 0.0 92.6 0.7 91.9 1.0 Q91.5 1.0 91.2 0.7 90.9 0.4 90.9 0.0 90.9 -0.4 91.2 -0.7 91.5 -1.0 91.9 -1.0 M96.9 -1.0 L97.6 -0.7 97.9 0.0 97.6 0.7 96.9 1.0 Q96.5 1.0 96.2 0.7 L95.9 0.0 96.2 -0.7 Q96.5 -1.0 96.9 -1.0 M117.6 -0.7 L117.9 0.0 117.6 0.7 116.9 1.0 Q116.5 1.0 116.2 0.7 115.9 0.4 115.9 0.0 115.9 -0.4 116.2 -0.7 116.5 -1.0 116.9 -1.0 L117.6 -0.7 M112.6 -0.7 L112.9 0.0 112.6 0.7 Q112.3 1.0 111.9 1.0 L111.2 0.7 Q110.9 0.4 110.9 0.0 110.9 -0.4 111.2 -0.7 L111.9 -1.0 Q112.3 -1.0 112.6 -0.7 M107.6 -0.7 L107.9 0.0 107.6 0.7 106.9 1.0 106.2 0.7 Q105.9 0.4 105.9 0.0 105.9 -0.4 106.2 -0.7 L106.9 -1.0 107.6 -0.7 M102.6 -0.7 L102.9 0.0 102.6 0.7 101.9 1.0 101.2 0.7 Q100.9 0.4 100.9 0.0 100.9 -0.4 101.2 -0.7 L101.9 -1.0 102.6 -0.7 M122.6 -0.7 L122.9 0.0 122.6 0.7 121.9 1.0 Q121.5 1.0 121.2 0.7 120.9 0.4 120.9 0.0 120.9 -0.4 121.2 -0.7 121.5 -1.0 121.9 -1.0 L122.6 -0.7 M126.9 -1.0 L127.6 -0.7 127.9 0.0 127.6 0.7 126.9 1.0 Q126.5 1.0 126.2 0.7 125.9 0.4 125.9 0.0 125.9 -0.4 126.2 -0.7 126.5 -1.0 126.9 -1.0 M131.9 -1.0 L132.6 -0.7 132.9 0.0 132.6 0.7 131.9 1.0 Q131.5 1.0 131.2 0.7 130.9 0.4 130.9 0.0 130.9 -0.4 131.2 -0.7 131.5 -1.0 131.9 -1.0 M136.9 -1.0 Q137.3 -1.0 137.6 -0.7 L137.9 0.0 137.6 0.7 Q137.3 1.0 136.9 1.0 L136.2 0.7 Q135.9 0.4 135.9 0.0 135.9 -0.4 136.2 -0.7 L136.9 -1.0 M161.9 -1.0 L162.6 -0.7 162.9 0.0 162.6 0.7 161.9 1.0 Q161.5 1.0 161.2 0.7 160.9 0.4 160.9 0.0 160.9 -0.4 161.2 -0.7 161.5 -1.0 161.9 -1.0 M157.6 -0.7 L157.9 0.0 157.6 0.7 156.9 1.0 156.2 0.7 Q155.9 0.4 155.9 0.0 155.9 -0.4 156.2 -0.7 L156.9 -1.0 157.6 -0.7 M152.6 -0.7 L152.9 0.0 152.6 0.7 151.9 1.0 Q151.5 1.0 151.2 0.7 150.9 0.4 150.9 0.0 150.9 -0.4 151.2 -0.7 151.5 -1.0 151.9 -1.0 L152.6 -0.7 M147.6 -0.7 L147.9 0.0 147.6 0.7 146.9 1.0 Q146.5 1.0 146.2 0.7 145.9 0.4 145.9 0.0 145.9 -0.4 146.2 -0.7 146.5 -1.0 146.9 -1.0 L147.6 -0.7 M142.6 -0.7 L142.9 0.0 142.6 0.7 Q142.3 1.0 141.9 1.0 L141.2 0.7 Q140.9 0.4 140.9 0.0 140.9 -0.4 141.2 -0.7 L141.9 -1.0 Q142.3 -1.0 142.6 -0.7 M166.9 -1.0 L167.6 -0.7 167.9 0.0 167.6 0.7 166.9 1.0 Q166.5 1.0 166.2 0.7 165.9 0.4 165.9 0.0 165.9 -0.4 166.2 -0.7 166.5 -1.0 166.9 -1.0 M171.9 -1.0 Q172.3 -1.0 172.6 -0.7 L172.9 0.0 172.6 0.7 Q172.3 1.0 171.9 1.0 L171.2 0.7 170.9 0.0 171.2 -0.7 171.9 -1.0 M176.9 -1.0 L177.6 -0.7 177.9 0.0 177.6 0.7 176.9 1.0 Q176.5 1.0 176.2 0.7 175.9 0.4 175.9 0.0 175.9 -0.4 176.2 -0.7 176.5 -1.0 176.9 -1.0 M181.9 -1.0 L182.6 -0.7 182.9 0.0 182.6 0.7 181.9 1.0 181.2 0.7 Q180.9 0.4 180.9 0.0 180.9 -0.4 181.2 -0.7 L181.9 -1.0 M201.9 -1.0 L202.6 -0.7 202.9 0.0 202.6 0.7 201.9 1.0 Q201.5 1.0 201.2 0.7 L200.9 0.0 201.2 -0.7 Q201.5 -1.0 201.9 -1.0 M197.6 -0.7 L197.9 0.0 197.6 0.7 196.9 1.0 Q196.5 1.0 196.2 0.7 195.9 0.4 195.9 0.0 195.9 -0.4 196.2 -0.7 196.5 -1.0 196.9 -1.0 L197.6 -0.7 M192.6 -0.7 L192.9 0.0 192.6 0.7 191.9 1.0 Q191.5 1.0 191.2 0.7 190.9 0.4 190.9 0.0 190.9 -0.4 191.2 -0.7 191.5 -1.0 191.9 -1.0 L192.6 -0.7 M187.6 -0.7 L187.9 0.0 187.6 0.7 186.9 1.0 186.2 0.7 Q185.9 0.4 185.9 0.0 185.9 -0.4 186.2 -0.7 L186.9 -1.0 187.6 -0.7 M206.9 -1.0 L207.6 -0.7 207.9 0.0 207.6 0.7 206.9 1.0 206.2 0.7 Q205.9 0.4 205.9 0.0 205.9 -0.4 206.2 -0.7 L206.9 -1.0 M211.9 -1.0 L212.6 -0.7 212.9 0.0 212.6 0.7 211.9 1.0 211.2 0.7 Q210.9 0.4 210.9 0.0 210.9 -0.4 211.2 -0.7 L211.9 -1.0 M216.9 -1.0 Q217.3 -1.0 217.6 -0.7 L217.9 0.0 217.6 0.7 Q217.3 1.0 216.9 1.0 L216.2 0.7 Q215.9 0.4 215.9 0.0 215.9 -0.4 216.2 -0.7 L216.9 -1.0 M222.6 -0.7 L222.9 0.0 222.6 0.7 221.9 1.0 Q221.5 1.0 221.2 0.7 220.9 0.4 220.9 0.0 220.9 -0.4 221.2 -0.7 221.5 -1.0 221.9 -1.0 L222.6 -0.7 M237.6 -0.7 L237.9 0.0 237.6 0.7 236.9 1.0 Q236.5 1.0 236.2 0.7 235.9 0.4 235.9 0.0 235.9 -0.4 236.2 -0.7 236.5 -1.0 236.9 -1.0 L237.6 -0.7 M232.6 -0.7 L232.9 0.0 232.6 0.7 231.9 1.0 Q231.5 1.0 231.2 0.7 230.9 0.4 230.9 0.0 230.9 -0.4 231.2 -0.7 231.5 -1.0 231.9 -1.0 L232.6 -0.7 M227.6 -0.7 L227.9 0.0 227.6 0.7 226.9 1.0 Q226.5 1.0 226.2 0.7 225.9 0.4 225.9 0.0 225.9 -0.4 226.2 -0.7 226.5 -1.0 226.9 -1.0 L227.6 -0.7" fill="#ffffff" fill-rule="evenodd" stroke="none"/>
  </g>
</svg>
