<?xml version="1.0" encoding="UTF-8" standalone="no"?>
<svg xmlns:ffdec="https://www.free-decompiler.com/flash" xmlns:xlink="http://www.w3.org/1999/xlink" ffdec:objectType="shape" height="2.0px" width="237.0px" xmlns="http://www.w3.org/2000/svg">
  <g transform="matrix(1.0, 0.0, 0.0, 1.0, -3.25, 1.0)">
    <path d="M4.25 -1.0 L4.95 -0.7 5.25 0.0 4.95 0.7 4.25 1.0 3.55 0.7 Q3.25 0.4 3.25 0.0 3.25 -0.4 3.55 -0.7 L4.25 -1.0 M9.25 -1.0 L9.95 -0.7 10.25 0.0 9.95 0.7 9.25 1.0 8.55 0.7 Q8.25 0.4 8.25 0.0 8.25 -0.4 8.55 -0.7 L9.25 -1.0 M14.25 -1.0 Q14.65 -1.0 14.95 -0.7 L15.25 0.0 14.95 0.7 Q14.65 1.0 14.25 1.0 L13.55 0.7 Q13.25 0.4 13.25 0.0 13.25 -0.4 13.55 -0.7 L14.25 -1.0 M19.25 -1.0 L19.95 -0.7 20.25 0.0 19.95 0.7 19.25 1.0 Q18.85 1.0 18.55 0.7 18.25 0.4 18.25 0.0 18.25 -0.4 18.55 -0.7 18.85 -1.0 19.25 -1.0 M39.95 -0.7 L40.25 0.0 39.95 0.7 Q39.65 1.0 39.25 1.0 L38.55 0.7 Q38.25 0.4 38.25 0.0 38.25 -0.4 38.55 -0.7 L39.25 -1.0 Q39.65 -1.0 39.95 -0.7 M34.95 -0.7 L35.25 0.0 34.95 0.7 34.25 1.0 Q33.85 1.0 33.55 0.7 33.25 0.4 33.25 0.0 33.25 -0.4 33.55 -0.7 33.85 -1.0 34.25 -1.0 L34.95 -0.7 M29.95 -0.7 L30.25 0.0 29.95 0.7 29.25 1.0 Q28.85 1.0 28.55 0.7 28.25 0.4 28.25 0.0 28.25 -0.4 28.55 -0.7 28.85 -1.0 29.25 -1.0 L29.95 -0.7 M24.95 -0.7 L25.25 0.0 24.95 0.7 24.25 1.0 Q23.85 1.0 23.55 0.7 23.25 0.4 23.25 0.0 23.25 -0.4 23.55 -0.7 23.85 -1.0 24.25 -1.0 L24.95 -0.7 M44.25 -1.0 Q44.65 -1.0 44.95 -0.7 L45.25 0.0 44.95 0.7 Q44.65 1.0 44.25 1.0 L43.55 0.7 Q43.25 0.4 43.25 0.0 43.25 -0.4 43.55 -0.7 L44.25 -1.0 M49.25 -1.0 L49.95 -0.7 50.25 0.0 49.95 0.7 49.25 1.0 Q48.85 1.0 48.55 0.7 48.25 0.4 48.25 0.0 48.25 -0.4 48.55 -0.7 48.85 -1.0 49.25 -1.0 M54.25 -1.0 L54.95 -0.7 55.25 0.0 54.95 0.7 54.25 1.0 Q53.85 1.0 53.55 0.7 53.25 0.4 53.25 0.0 53.25 -0.4 53.55 -0.7 53.85 -1.0 54.25 -1.0 M59.25 -1.0 L59.95 -0.7 60.25 0.0 59.95 0.7 59.25 1.0 58.55 0.7 Q58.25 0.4 58.25 0.0 58.25 -0.4 58.55 -0.7 L59.25 -1.0 M79.95 -0.7 L80.25 0.0 79.95 0.7 79.25 1.0 Q78.85 1.0 78.55 0.7 78.25 0.4 78.25 0.0 78.25 -0.4 78.55 -0.7 78.85 -1.0 79.25 -1.0 L79.95 -0.7 M74.95 -0.7 L75.25 0.0 74.95 0.7 Q74.65 1.0 74.25 1.0 L73.55 0.7 73.25 0.0 73.55 -0.7 74.25 -1.0 Q74.65 -1.0 74.95 -0.7 M69.95 -0.7 L70.25 0.0 69.95 0.7 69.25 1.0 Q68.85 1.0 68.55 0.7 68.25 0.4 68.25 0.0 68.25 -0.4 68.55 -0.7 68.85 -1.0 69.25 -1.0 L69.95 -0.7 M64.95 -0.7 L65.25 0.0 64.95 0.7 64.25 1.0 Q63.85 1.0 63.55 0.7 63.25 0.4 63.25 0.0 63.25 -0.4 63.55 -0.7 63.85 -1.0 64.25 -1.0 L64.95 -0.7 M84.25 -1.0 L84.95 -0.7 85.25 0.0 84.95 0.7 84.25 1.0 83.55 0.7 Q83.25 0.4 83.25 0.0 83.25 -0.4 83.55 -0.7 L84.25 -1.0 M89.25 -1.0 L89.95 -0.7 90.25 0.0 89.95 0.7 89.25 1.0 88.55 0.7 Q88.25 0.4 88.25 0.0 88.25 -0.4 88.55 -0.7 L89.25 -1.0 M94.25 -1.0 L94.95 -0.7 95.25 0.0 94.95 0.7 94.25 1.0 Q93.85 1.0 93.55 0.7 93.25 0.4 93.25 0.0 93.25 -0.4 93.55 -0.7 93.85 -1.0 94.25 -1.0 M99.25 -1.0 L99.95 -0.7 100.25 0.0 99.95 0.7 99.25 1.0 Q98.85 1.0 98.55 0.7 98.25 0.4 98.25 0.0 98.25 -0.4 98.55 -0.7 98.85 -1.0 99.25 -1.0 M119.95 -0.7 L120.25 0.0 119.95 0.7 Q119.65 1.0 119.25 1.0 L118.55 0.7 Q118.25 0.4 118.25 0.0 118.25 -0.4 118.55 -0.7 L119.25 -1.0 Q119.65 -1.0 119.95 -0.7 M114.95 -0.7 L115.25 0.0 114.95 0.7 114.25 1.0 113.55 0.7 Q113.25 0.4 113.25 0.0 113.25 -0.4 113.55 -0.7 L114.25 -1.0 114.95 -0.7 M109.95 -0.7 L110.25 0.0 109.95 0.7 109.25 1.0 108.55 0.7 Q108.25 0.4 108.25 0.0 108.25 -0.4 108.55 -0.7 L109.25 -1.0 109.95 -0.7 M104.95 -0.7 L105.25 0.0 104.95 0.7 104.25 1.0 Q103.85 1.0 103.55 0.7 L103.25 0.0 103.55 -0.7 Q103.85 -1.0 104.25 -1.0 L104.95 -0.7 M124.25 -1.0 L124.95 -0.7 125.25 0.0 124.95 0.7 124.25 1.0 Q123.85 1.0 123.55 0.7 123.25 0.4 123.25 0.0 123.25 -0.4 123.55 -0.7 123.85 -1.0 124.25 -1.0 M129.25 -1.0 L129.95 -0.7 130.25 0.0 129.95 0.7 129.25 1.0 Q128.85 1.0 128.55 0.7 128.25 0.4 128.25 0.0 128.25 -0.4 128.55 -0.7 128.85 -1.0 129.25 -1.0 M134.25 -1.0 L134.95 -0.7 135.25 0.0 134.95 0.7 134.25 1.0 Q133.85 1.0 133.55 0.7 133.25 0.4 133.25 0.0 133.25 -0.4 133.55 -0.7 133.85 -1.0 134.25 -1.0 M139.25 -1.0 L139.95 -0.7 140.25 0.0 139.95 0.7 139.25 1.0 Q138.85 1.0 138.55 0.7 138.25 0.4 138.25 0.0 138.25 -0.4 138.55 -0.7 138.85 -1.0 139.25 -1.0 M159.95 -0.7 L160.25 0.0 159.95 0.7 159.25 1.0 Q158.85 1.0 158.55 0.7 158.25 0.4 158.25 0.0 158.25 -0.4 158.55 -0.7 158.85 -1.0 159.25 -1.0 L159.95 -0.7 M154.95 -0.7 L155.25 0.0 154.95 0.7 154.25 1.0 Q153.85 1.0 153.55 0.7 153.25 0.4 153.25 0.0 153.25 -0.4 153.55 -0.7 153.85 -1.0 154.25 -1.0 L154.95 -0.7 M149.95 -0.7 L150.25 0.0 149.95 0.7 Q149.65 1.0 149.25 1.0 L148.55 0.7 Q148.25 0.4 148.25 0.0 148.25 -0.4 148.55 -0.7 L149.25 -1.0 Q149.65 -1.0 149.95 -0.7 M144.95 -0.7 L145.25 0.0 144.95 0.7 Q144.65 1.0 144.25 1.0 L143.55 0.7 Q143.25 0.4 143.25 0.0 143.25 -0.4 143.55 -0.7 L144.25 -1.0 Q144.65 -1.0 144.95 -0.7 M164.25 -1.0 L164.95 -0.7 165.25 0.0 164.95 0.7 164.25 1.0 163.55 0.7 Q163.25 0.4 163.25 0.0 163.25 -0.4 163.55 -0.7 L164.25 -1.0 M169.25 -1.0 L169.95 -0.7 170.25 0.0 169.95 0.7 169.25 1.0 Q168.85 1.0 168.55 0.7 168.25 0.4 168.25 0.0 168.25 -0.4 168.55 -0.7 168.85 -1.0 169.25 -1.0 M174.25 -1.0 L174.95 -0.7 175.25 0.0 174.95 0.7 174.25 1.0 Q173.85 1.0 173.55 0.7 173.25 0.4 173.25 0.0 173.25 -0.4 173.55 -0.7 173.85 -1.0 174.25 -1.0 M179.25 -1.0 Q179.65 -1.0 179.95 -0.7 L180.25 0.0 179.95 0.7 Q179.65 1.0 179.25 1.0 L178.55 0.7 178.25 0.0 178.55 -0.7 179.25 -1.0 M199.95 -0.7 L200.25 0.0 199.95 0.7 199.25 1.0 Q198.85 1.0 198.55 0.7 198.25 0.4 198.25 0.0 198.25 -0.4 198.55 -0.7 198.85 -1.0 199.25 -1.0 L199.95 -0.7 M194.95 -0.7 L195.25 0.0 194.95 0.7 194.25 1.0 193.55 0.7 Q193.25 0.4 193.25 0.0 193.25 -0.4 193.55 -0.7 L194.25 -1.0 194.95 -0.7 M189.95 -0.7 L190.25 0.0 189.95 0.7 189.25 1.0 188.55 0.7 Q188.25 0.4 188.25 0.0 188.25 -0.4 188.55 -0.7 L189.25 -1.0 189.95 -0.7 M184.95 -0.7 L185.25 0.0 184.95 0.7 184.25 1.0 Q183.85 1.0 183.55 0.7 183.25 0.4 183.25 0.0 183.25 -0.4 183.55 -0.7 183.85 -1.0 184.25 -1.0 L184.95 -0.7 M204.25 -1.0 L204.95 -0.7 205.25 0.0 204.95 0.7 204.25 1.0 Q203.85 1.0 203.55 0.7 203.25 0.4 203.25 0.0 203.25 -0.4 203.55 -0.7 203.85 -1.0 204.25 -1.0 M209.25 -1.0 L209.95 -0.7 210.25 0.0 209.95 0.7 209.25 1.0 Q208.85 1.0 208.55 0.7 L208.25 0.0 208.55 -0.7 Q208.85 -1.0 209.25 -1.0 M214.25 -1.0 L214.95 -0.7 215.25 0.0 214.95 0.7 214.25 1.0 213.55 0.7 Q213.25 0.4 213.25 0.0 213.25 -0.4 213.55 -0.7 L214.25 -1.0 M219.25 -1.0 L219.95 -0.7 220.25 0.0 219.95 0.7 219.25 1.0 218.55 0.7 Q218.25 0.4 218.25 0.0 218.25 -0.4 218.55 -0.7 L219.25 -1.0 M239.95 -0.7 L240.25 0.0 239.95 0.7 239.25 1.0 Q238.85 1.0 238.55 0.7 238.25 0.4 238.25 0.0 238.25 -0.4 238.55 -0.7 238.85 -1.0 239.25 -1.0 L239.95 -0.7 M234.95 -0.7 L235.25 0.0 234.95 0.7 234.25 1.0 Q233.85 1.0 233.55 0.7 233.25 0.4 233.25 0.0 233.25 -0.4 233.55 -0.7 233.85 -1.0 234.25 -1.0 L234.95 -0.7 M229.95 -0.7 L230.25 0.0 229.95 0.7 229.25 1.0 Q228.85 1.0 228.55 0.7 228.25 0.4 228.25 0.0 228.25 -0.4 228.55 -0.7 228.85 -1.0 229.25 -1.0 L229.95 -0.7 M224.95 -0.7 L225.25 0.0 224.95 0.7 Q224.65 1.0 224.25 1.0 L223.55 0.7 Q223.25 0.4 223.25 0.0 223.25 -0.4 223.55 -0.7 L224.25 -1.0 Q224.65 -1.0 224.95 -0.7" fill="#ffffff" fill-rule="evenodd" stroke="none"/>
  </g>
</svg>
