<?xml version="1.0" encoding="UTF-8" standalone="no"?>
<svg xmlns:ffdec="https://www.free-decompiler.com/flash" xmlns:xlink="http://www.w3.org/1999/xlink" ffdec:objectType="shape" height="2.0px" width="242.0px" xmlns="http://www.w3.org/2000/svg">
  <g transform="matrix(1.0, 0.0, 0.0, 1.0, -0.6, 1.0)">
    <path d="M1.6 -1.0 L2.3 -0.7 2.6 0.0 2.3 0.7 1.6 1.0 Q1.2 1.0 0.9 0.7 0.6 0.4 0.6 0.0 0.6 -0.4 0.9 -0.7 1.2 -1.0 1.6 -1.0 M6.6 -1.0 L7.3 -0.7 7.6 0.0 7.3 0.7 6.6 1.0 Q6.2 1.0 5.9 0.7 L5.6 0.0 5.9 -0.7 Q6.2 -1.0 6.6 -1.0 M11.6 -1.0 L12.3 -0.7 12.6 0.0 12.3 0.7 11.6 1.0 10.9 0.7 Q10.6 0.4 10.6 0.0 10.6 -0.4 10.9 -0.7 L11.6 -1.0 M16.6 -1.0 L17.3 -0.7 17.6 0.0 17.3 0.7 16.6 1.0 15.9 0.7 Q15.6 0.4 15.6 0.0 15.6 -0.4 15.9 -0.7 L16.6 -1.0 M37.3 -0.7 L37.6 0.0 37.3 0.7 36.6 1.0 Q36.2 1.0 35.9 0.7 35.6 0.4 35.6 0.0 35.6 -0.4 35.9 -0.7 36.2 -1.0 36.6 -1.0 L37.3 -0.7 M32.3 -0.7 L32.6 0.0 32.3 0.7 31.6 1.0 Q31.2 1.0 30.9 0.7 30.6 0.4 30.6 0.0 30.6 -0.4 30.9 -0.7 31.2 -1.0 31.6 -1.0 L32.3 -0.7 M27.3 -0.7 L27.6 0.0 27.3 0.7 26.6 1.0 Q26.2 1.0 25.9 0.7 25.6 0.4 25.6 0.0 25.6 -0.4 25.9 -0.7 26.2 -1.0 26.6 -1.0 L27.3 -0.7 M22.3 -0.7 L22.6 0.0 22.3 0.7 Q22.0 1.0 21.6 1.0 L20.9 0.7 Q20.6 0.4 20.6 0.0 20.6 -0.4 20.9 -0.7 L21.6 -1.0 Q22.0 -1.0 22.3 -0.7 M41.6 -1.0 L42.3 -0.7 42.6 0.0 42.3 0.7 41.6 1.0 Q41.2 1.0 40.9 0.7 40.6 0.4 40.6 0.0 40.6 -0.4 40.9 -0.7 41.2 -1.0 41.6 -1.0 M46.6 -1.0 Q47.0 -1.0 47.3 -0.7 L47.6 0.0 47.3 0.7 Q47.0 1.0 46.6 1.0 L45.9 0.7 Q45.6 0.4 45.6 0.0 45.6 -0.4 45.9 -0.7 L46.6 -1.0 M51.6 -1.0 Q52.0 -1.0 52.3 -0.7 L52.6 0.0 52.3 0.7 Q52.0 1.0 51.6 1.0 L50.9 0.7 Q50.6 0.4 50.6 0.0 50.6 -0.4 50.9 -0.7 L51.6 -1.0 M56.6 -1.0 L57.3 -0.7 57.6 0.0 57.3 0.7 56.6 1.0 Q56.2 1.0 55.9 0.7 55.6 0.4 55.6 0.0 55.6 -0.4 55.9 -0.7 56.2 -1.0 56.6 -1.0 M77.3 -0.7 L77.6 0.0 77.3 0.7 76.6 1.0 Q76.2 1.0 75.9 0.7 75.6 0.4 75.6 0.0 75.6 -0.4 75.9 -0.7 76.2 -1.0 76.6 -1.0 L77.3 -0.7 M72.3 -0.7 L72.6 0.0 72.3 0.7 71.6 1.0 Q71.2 1.0 70.9 0.7 70.6 0.4 70.6 0.0 70.6 -0.4 70.9 -0.7 71.2 -1.0 71.6 -1.0 L72.3 -0.7 M67.3 -0.7 L67.6 0.0 67.3 0.7 66.6 1.0 65.9 0.7 Q65.6 0.4 65.6 0.0 65.6 -0.4 65.9 -0.7 L66.6 -1.0 67.3 -0.7 M62.3 -0.7 L62.6 0.0 62.3 0.7 61.6 1.0 Q61.2 1.0 60.9 0.7 60.6 0.4 60.6 0.0 60.6 -0.4 60.9 -0.7 61.2 -1.0 61.6 -1.0 L62.3 -0.7 M82.3 -0.7 L82.6 0.0 82.3 0.7 Q82.0 1.0 81.6 1.0 L80.9 0.7 80.6 0.0 80.9 -0.7 81.6 -1.0 Q82.0 -1.0 82.3 -0.7 M86.6 -1.0 L87.3 -0.7 87.6 0.0 87.3 0.7 86.6 1.0 Q86.2 1.0 85.9 0.7 85.6 0.4 85.6 0.0 85.6 -0.4 85.9 -0.7 86.2 -1.0 86.6 -1.0 M91.6 -1.0 L92.3 -0.7 92.6 0.0 92.3 0.7 91.6 1.0 90.9 0.7 Q90.6 0.4 90.6 0.0 90.6 -0.4 90.9 -0.7 L91.6 -1.0 M96.6 -1.0 L97.3 -0.7 97.6 0.0 97.3 0.7 96.6 1.0 95.9 0.7 Q95.6 0.4 95.6 0.0 95.6 -0.4 95.9 -0.7 L96.6 -1.0 M117.3 -0.7 L117.6 0.0 117.3 0.7 116.6 1.0 115.9 0.7 Q115.6 0.4 115.6 0.0 115.6 -0.4 115.9 -0.7 L116.6 -1.0 117.3 -0.7 M112.3 -0.7 L112.6 0.0 112.3 0.7 111.6 1.0 Q111.2 1.0 110.9 0.7 L110.6 0.0 110.9 -0.7 Q111.2 -1.0 111.6 -1.0 L112.3 -0.7 M107.3 -0.7 L107.6 0.0 107.3 0.7 106.6 1.0 Q106.2 1.0 105.9 0.7 105.6 0.4 105.6 0.0 105.6 -0.4 105.9 -0.7 106.2 -1.0 106.6 -1.0 L107.3 -0.7 M102.3 -0.7 L102.6 0.0 102.3 0.7 101.6 1.0 Q101.2 1.0 100.9 0.7 100.6 0.4 100.6 0.0 100.6 -0.4 100.9 -0.7 101.2 -1.0 101.6 -1.0 L102.3 -0.7 M122.3 -0.7 L122.6 0.0 122.3 0.7 121.6 1.0 120.9 0.7 Q120.6 0.4 120.6 0.0 120.6 -0.4 120.9 -0.7 L121.6 -1.0 122.3 -0.7 M126.6 -1.0 Q127.0 -1.0 127.3 -0.7 L127.6 0.0 127.3 0.7 Q127.0 1.0 126.6 1.0 L125.9 0.7 Q125.6 0.4 125.6 0.0 125.6 -0.4 125.9 -0.7 L126.6 -1.0 M131.6 -1.0 L132.3 -0.7 132.6 0.0 132.3 0.7 131.6 1.0 Q131.2 1.0 130.9 0.7 130.6 0.4 130.6 0.0 130.6 -0.4 130.9 -0.7 131.2 -1.0 131.6 -1.0 M136.6 -1.0 L137.3 -0.7 137.6 0.0 137.3 0.7 136.6 1.0 Q136.2 1.0 135.9 0.7 135.6 0.4 135.6 0.0 135.6 -0.4 135.9 -0.7 136.2 -1.0 136.6 -1.0 M141.6 -1.0 L142.3 -0.7 142.6 0.0 142.3 0.7 141.6 1.0 Q141.2 1.0 140.9 0.7 140.6 0.4 140.6 0.0 140.6 -0.4 140.9 -0.7 141.2 -1.0 141.6 -1.0 M161.6 -1.0 L162.3 -0.7 162.6 0.0 162.3 0.7 161.6 1.0 Q161.2 1.0 160.9 0.7 160.6 0.4 160.6 0.0 160.6 -0.4 160.9 -0.7 161.2 -1.0 161.6 -1.0 M157.3 -0.7 L157.6 0.0 157.3 0.7 Q157.0 1.0 156.6 1.0 L155.9 0.7 Q155.6 0.4 155.6 0.0 155.6 -0.4 155.9 -0.7 L156.6 -1.0 Q157.0 -1.0 157.3 -0.7 M152.3 -0.7 L152.6 0.0 152.3 0.7 Q152.0 1.0 151.6 1.0 L150.9 0.7 Q150.6 0.4 150.6 0.0 150.6 -0.4 150.9 -0.7 L151.6 -1.0 Q152.0 -1.0 152.3 -0.7 M147.3 -0.7 L147.6 0.0 147.3 0.7 146.6 1.0 Q146.2 1.0 145.9 0.7 145.6 0.4 145.6 0.0 145.6 -0.4 145.9 -0.7 146.2 -1.0 146.6 -1.0 L147.3 -0.7 M166.6 -1.0 L167.3 -0.7 167.6 0.0 167.3 0.7 166.6 1.0 Q166.2 1.0 165.9 0.7 165.6 0.4 165.6 0.0 165.6 -0.4 165.9 -0.7 166.2 -1.0 166.6 -1.0 M171.6 -1.0 L172.3 -0.7 172.6 0.0 172.3 0.7 171.6 1.0 170.9 0.7 Q170.6 0.4 170.6 0.0 170.6 -0.4 170.9 -0.7 L171.6 -1.0 M176.6 -1.0 L177.3 -0.7 177.6 0.0 177.3 0.7 176.6 1.0 Q176.2 1.0 175.9 0.7 175.6 0.4 175.6 0.0 175.6 -0.4 175.9 -0.7 176.2 -1.0 176.6 -1.0 M181.6 -1.0 L182.3 -0.7 182.6 0.0 182.3 0.7 181.6 1.0 Q181.2 1.0 180.9 0.7 180.6 0.4 180.6 0.0 180.6 -0.4 180.9 -0.7 181.2 -1.0 181.6 -1.0 M202.3 -0.7 L202.6 0.0 202.3 0.7 201.6 1.0 200.9 0.7 Q200.6 0.4 200.6 0.0 200.6 -0.4 200.9 -0.7 L201.6 -1.0 202.3 -0.7 M197.3 -0.7 L197.6 0.0 197.3 0.7 196.6 1.0 195.9 0.7 Q195.6 0.4 195.6 0.0 195.6 -0.4 195.9 -0.7 L196.6 -1.0 197.3 -0.7 M192.3 -0.7 L192.6 0.0 192.3 0.7 191.6 1.0 Q191.2 1.0 190.9 0.7 190.6 0.4 190.6 0.0 190.6 -0.4 190.9 -0.7 191.2 -1.0 191.6 -1.0 L192.3 -0.7 M187.3 -0.7 L187.6 0.0 187.3 0.7 Q187.0 1.0 186.6 1.0 L185.9 0.7 185.6 0.0 185.9 -0.7 186.6 -1.0 Q187.0 -1.0 187.3 -0.7 M206.6 -1.0 L207.3 -0.7 207.6 0.0 207.3 0.7 206.6 1.0 Q206.2 1.0 205.9 0.7 205.6 0.4 205.6 0.0 205.6 -0.4 205.9 -0.7 206.2 -1.0 206.6 -1.0 M211.6 -1.0 L212.3 -0.7 212.6 0.0 212.3 0.7 211.6 1.0 Q211.2 1.0 210.9 0.7 210.6 0.4 210.6 0.0 210.6 -0.4 210.9 -0.7 211.2 -1.0 211.6 -1.0 M216.6 -1.0 L217.3 -0.7 217.6 0.0 217.3 0.7 216.6 1.0 Q216.2 1.0 215.9 0.7 L215.6 0.0 215.9 -0.7 Q216.2 -1.0 216.6 -1.0 M221.6 -1.0 L222.3 -0.7 222.6 0.0 222.3 0.7 221.6 1.0 220.9 0.7 Q220.6 0.4 220.6 0.0 220.6 -0.4 220.9 -0.7 L221.6 -1.0 M242.3 -0.7 L242.6 0.0 242.3 0.7 241.6 1.0 Q241.2 1.0 240.9 0.7 240.6 0.4 240.6 0.0 240.6 -0.4 240.9 -0.7 241.2 -1.0 241.6 -1.0 L242.3 -0.7 M237.3 -0.7 L237.6 0.0 237.3 0.7 236.6 1.0 Q236.2 1.0 235.9 0.7 235.6 0.4 235.6 0.0 235.6 -0.4 235.9 -0.7 236.2 -1.0 236.6 -1.0 L237.3 -0.7 M232.3 -0.7 L232.6 0.0 232.3 0.7 Q232.0 1.0 231.6 1.0 L230.9 0.7 Q230.6 0.4 230.6 0.0 230.6 -0.4 230.9 -0.7 L231.6 -1.0 Q232.0 -1.0 232.3 -0.7 M227.3 -0.7 L227.6 0.0 227.3 0.7 226.6 1.0 225.9 0.7 Q225.6 0.4 225.6 0.0 225.6 -0.4 225.9 -0.7 L226.6 -1.0 227.3 -0.7" fill="#ffffff" fill-rule="evenodd" stroke="none"/>
  </g>
</svg>
