<?xml version="1.0" encoding="UTF-8" standalone="no"?>
<svg xmlns:ffdec="https://www.free-decompiler.com/flash" xmlns:xlink="http://www.w3.org/1999/xlink" ffdec:objectType="shape" height="2.0px" width="242.0px" xmlns="http://www.w3.org/2000/svg">
  <g transform="matrix(1.0, 0.0, 0.0, 1.0, -2.95, 1.0)">
    <path d="M3.95 -1.0 L4.65 -0.7 4.95 0.0 4.65 0.7 3.95 1.0 Q3.55 1.0 3.25 0.7 2.95 0.4 2.95 0.0 2.95 -0.4 3.25 -0.7 3.55 -1.0 3.95 -1.0 M8.95 -1.0 L9.65 -0.7 9.95 0.0 9.65 0.7 8.95 1.0 Q8.55 1.0 8.25 0.7 7.95 0.4 7.95 0.0 7.95 -0.4 8.25 -0.7 8.55 -1.0 8.95 -1.0 M13.95 -1.0 L14.65 -0.7 14.95 0.0 14.65 0.7 13.95 1.0 Q13.55 1.0 13.25 0.7 L12.95 0.0 13.25 -0.7 Q13.55 -1.0 13.95 -1.0 M18.95 -1.0 L19.65 -0.7 19.95 0.0 19.65 0.7 18.95 1.0 18.25 0.7 Q17.95 0.4 17.95 0.0 17.95 -0.4 18.25 -0.7 L18.95 -1.0 M39.65 -0.7 L39.95 0.0 39.65 0.7 38.95 1.0 Q38.55 1.0 38.25 0.7 37.95 0.4 37.95 0.0 37.95 -0.4 38.25 -0.7 38.55 -1.0 38.95 -1.0 L39.65 -0.7 M34.65 -0.7 L34.95 0.0 34.65 0.7 33.95 1.0 Q33.55 1.0 33.25 0.7 32.95 0.4 32.95 0.0 32.95 -0.4 33.25 -0.7 33.55 -1.0 33.95 -1.0 L34.65 -0.7 M29.65 -0.7 L29.95 0.0 29.65 0.7 Q29.35 1.0 28.95 1.0 L28.25 0.7 Q27.95 0.4 27.95 0.0 27.95 -0.4 28.25 -0.7 L28.95 -1.0 Q29.35 -1.0 29.65 -0.7 M24.65 -0.7 L24.95 0.0 24.65 0.7 23.95 1.0 23.25 0.7 Q22.95 0.4 22.95 0.0 22.95 -0.4 23.25 -0.7 L23.95 -1.0 24.65 -0.7 M43.95 -1.0 L44.65 -0.7 44.95 0.0 44.65 0.7 43.95 1.0 Q43.55 1.0 43.25 0.7 42.95 0.4 42.95 0.0 42.95 -0.4 43.25 -0.7 43.55 -1.0 43.95 -1.0 M48.95 -1.0 L49.65 -0.7 49.95 0.0 49.65 0.7 48.95 1.0 Q48.55 1.0 48.25 0.7 47.95 0.4 47.95 0.0 47.95 -0.4 48.25 -0.7 48.55 -1.0 48.95 -1.0 M53.95 -1.0 Q54.35 -1.0 54.65 -0.7 L54.95 0.0 54.65 0.7 Q54.35 1.0 53.95 1.0 L53.25 0.7 Q52.95 0.4 52.95 0.0 52.95 -0.4 53.25 -0.7 L53.95 -1.0 M58.95 -1.0 Q59.35 -1.0 59.65 -0.7 L59.95 0.0 59.65 0.7 Q59.35 1.0 58.95 1.0 L58.25 0.7 Q57.95 0.4 57.95 0.0 57.95 -0.4 58.25 -0.7 L58.95 -1.0 M79.65 -0.7 L79.95 0.0 79.65 0.7 78.95 1.0 Q78.55 1.0 78.25 0.7 77.95 0.4 77.95 0.0 77.95 -0.4 78.25 -0.7 78.55 -1.0 78.95 -1.0 L79.65 -0.7 M74.65 -0.7 L74.95 0.0 74.65 0.7 73.95 1.0 73.25 0.7 Q72.95 0.4 72.95 0.0 72.95 -0.4 73.25 -0.7 L73.95 -1.0 74.65 -0.7 M69.65 -0.7 L69.95 0.0 69.65 0.7 68.95 1.0 Q68.55 1.0 68.25 0.7 67.95 0.4 67.95 0.0 67.95 -0.4 68.25 -0.7 68.55 -1.0 68.95 -1.0 L69.65 -0.7 M64.65 -0.7 L64.95 0.0 64.65 0.7 63.95 1.0 Q63.55 1.0 63.25 0.7 62.95 0.4 62.95 0.0 62.95 -0.4 63.25 -0.7 63.55 -1.0 63.95 -1.0 L64.65 -0.7 M83.95 -1.0 L84.65 -0.7 84.95 0.0 84.65 0.7 83.95 1.0 Q83.55 1.0 83.25 0.7 82.95 0.4 82.95 0.0 82.95 -0.4 83.25 -0.7 83.55 -1.0 83.95 -1.0 M88.95 -1.0 Q89.35 -1.0 89.65 -0.7 L89.95 0.0 89.65 0.7 Q89.35 1.0 88.95 1.0 L88.25 0.7 87.95 0.0 88.25 -0.7 88.95 -1.0 M93.95 -1.0 L94.65 -0.7 94.95 0.0 94.65 0.7 93.95 1.0 Q93.55 1.0 93.25 0.7 92.95 0.4 92.95 0.0 92.95 -0.4 93.25 -0.7 93.55 -1.0 93.95 -1.0 M98.95 -1.0 L99.65 -0.7 99.95 0.0 99.65 0.7 98.95 1.0 98.25 0.7 Q97.95 0.4 97.95 0.0 97.95 -0.4 98.25 -0.7 L98.95 -1.0 M119.65 -0.7 L119.95 0.0 119.65 0.7 118.95 1.0 Q118.55 1.0 118.25 0.7 L117.95 0.0 118.25 -0.7 Q118.55 -1.0 118.95 -1.0 L119.65 -0.7 M114.65 -0.7 L114.95 0.0 114.65 0.7 113.95 1.0 Q113.55 1.0 113.25 0.7 112.95 0.4 112.95 0.0 112.95 -0.4 113.25 -0.7 113.55 -1.0 113.95 -1.0 L114.65 -0.7 M109.65 -0.7 L109.95 0.0 109.65 0.7 108.95 1.0 Q108.55 1.0 108.25 0.7 107.95 0.4 107.95 0.0 107.95 -0.4 108.25 -0.7 108.55 -1.0 108.95 -1.0 L109.65 -0.7 M104.65 -0.7 L104.95 0.0 104.65 0.7 103.95 1.0 103.25 0.7 Q102.95 0.4 102.95 0.0 102.95 -0.4 103.25 -0.7 L103.95 -1.0 104.65 -0.7 M123.95 -1.0 L124.65 -0.7 124.95 0.0 124.65 0.7 123.95 1.0 123.25 0.7 Q122.95 0.4 122.95 0.0 122.95 -0.4 123.25 -0.7 L123.95 -1.0 M128.95 -1.0 L129.65 -0.7 129.95 0.0 129.65 0.7 128.95 1.0 128.25 0.7 Q127.95 0.4 127.95 0.0 127.95 -0.4 128.25 -0.7 L128.95 -1.0 M133.95 -1.0 Q134.35 -1.0 134.65 -0.7 L134.95 0.0 134.65 0.7 Q134.35 1.0 133.95 1.0 L133.25 0.7 Q132.95 0.4 132.95 0.0 132.95 -0.4 133.25 -0.7 L133.95 -1.0 M138.95 -1.0 L139.65 -0.7 139.95 0.0 139.65 0.7 138.95 1.0 Q138.55 1.0 138.25 0.7 137.95 0.4 137.95 0.0 137.95 -0.4 138.25 -0.7 138.55 -1.0 138.95 -1.0 M159.65 -0.7 L159.95 0.0 159.65 0.7 Q159.35 1.0 158.95 1.0 L158.25 0.7 Q157.95 0.4 157.95 0.0 157.95 -0.4 158.25 -0.7 L158.95 -1.0 Q159.35 -1.0 159.65 -0.7 M154.65 -0.7 L154.95 0.0 154.65 0.7 153.95 1.0 Q153.55 1.0 153.25 0.7 152.95 0.4 152.95 0.0 152.95 -0.4 153.25 -0.7 153.55 -1.0 153.95 -1.0 L154.65 -0.7 M149.65 -0.7 L149.95 0.0 149.65 0.7 148.95 1.0 Q148.55 1.0 148.25 0.7 147.95 0.4 147.95 0.0 147.95 -0.4 148.25 -0.7 148.55 -1.0 148.95 -1.0 L149.65 -0.7 M144.65 -0.7 L144.95 0.0 144.65 0.7 143.95 1.0 Q143.55 1.0 143.25 0.7 142.95 0.4 142.95 0.0 142.95 -0.4 143.25 -0.7 143.55 -1.0 143.95 -1.0 L144.65 -0.7 M163.95 -1.0 Q164.35 -1.0 164.65 -0.7 L164.95 0.0 164.65 0.7 Q164.35 1.0 163.95 1.0 L163.25 0.7 Q162.95 0.4 162.95 0.0 162.95 -0.4 163.25 -0.7 L163.95 -1.0 M168.95 -1.0 L169.65 -0.7 169.95 0.0 169.65 0.7 168.95 1.0 Q168.55 1.0 168.25 0.7 167.95 0.4 167.95 0.0 167.95 -0.4 168.25 -0.7 168.55 -1.0 168.95 -1.0 M173.95 -1.0 L174.65 -0.7 174.95 0.0 174.65 0.7 173.95 1.0 Q173.55 1.0 173.25 0.7 172.95 0.4 172.95 0.0 172.95 -0.4 173.25 -0.7 173.55 -1.0 173.95 -1.0 M178.95 -1.0 L179.65 -0.7 179.95 0.0 179.65 0.7 178.95 1.0 178.25 0.7 Q177.95 0.4 177.95 0.0 177.95 -0.4 178.25 -0.7 L178.95 -1.0 M199.65 -0.7 L199.95 0.0 199.65 0.7 198.95 1.0 Q198.55 1.0 198.25 0.7 197.95 0.4 197.95 0.0 197.95 -0.4 198.25 -0.7 198.55 -1.0 198.95 -1.0 L199.65 -0.7 M194.65 -0.7 L194.95 0.0 194.65 0.7 Q194.35 1.0 193.95 1.0 L193.25 0.7 192.95 0.0 193.25 -0.7 193.95 -1.0 Q194.35 -1.0 194.65 -0.7 M189.65 -0.7 L189.95 0.0 189.65 0.7 188.95 1.0 Q188.55 1.0 188.25 0.7 187.95 0.4 187.95 0.0 187.95 -0.4 188.25 -0.7 188.55 -1.0 188.95 -1.0 L189.65 -0.7 M184.65 -0.7 L184.95 0.0 184.65 0.7 183.95 1.0 Q183.55 1.0 183.25 0.7 182.95 0.4 182.95 0.0 182.95 -0.4 183.25 -0.7 183.55 -1.0 183.95 -1.0 L184.65 -0.7 M203.95 -1.0 L204.65 -0.7 204.95 0.0 204.65 0.7 203.95 1.0 203.25 0.7 Q202.95 0.4 202.95 0.0 202.95 -0.4 203.25 -0.7 L203.95 -1.0 M208.95 -1.0 L209.65 -0.7 209.95 0.0 209.65 0.7 208.95 1.0 208.25 0.7 Q207.95 0.4 207.95 0.0 207.95 -0.4 208.25 -0.7 L208.95 -1.0 M213.95 -1.0 L214.65 -0.7 214.95 0.0 214.65 0.7 213.95 1.0 Q213.55 1.0 213.25 0.7 212.95 0.4 212.95 0.0 212.95 -0.4 213.25 -0.7 213.55 -1.0 213.95 -1.0 M218.95 -1.0 L219.65 -0.7 219.95 0.0 219.65 0.7 218.95 1.0 Q218.55 1.0 218.25 0.7 217.95 0.4 217.95 0.0 217.95 -0.4 218.25 -0.7 218.55 -1.0 218.95 -1.0 M239.65 -0.7 L239.95 0.0 239.65 0.7 Q239.35 1.0 238.95 1.0 L238.25 0.7 Q237.95 0.4 237.95 0.0 237.95 -0.4 238.25 -0.7 L238.95 -1.0 Q239.35 -1.0 239.65 -0.7 M234.65 -0.7 L234.95 0.0 234.65 0.7 233.95 1.0 233.25 0.7 Q232.95 0.4 232.95 0.0 232.95 -0.4 233.25 -0.7 L233.95 -1.0 234.65 -0.7 M229.65 -0.7 L229.95 0.0 229.65 0.7 228.95 1.0 228.25 0.7 Q227.95 0.4 227.95 0.0 227.95 -0.4 228.25 -0.7 L228.95 -1.0 229.65 -0.7 M224.65 -0.7 L224.95 0.0 224.65 0.7 223.95 1.0 Q223.55 1.0 223.25 0.7 L222.95 0.0 223.25 -0.7 Q223.55 -1.0 223.95 -1.0 L224.65 -0.7 M243.95 -1.0 L244.65 -0.7 244.95 0.0 244.65 0.7 243.95 1.0 Q243.55 1.0 243.25 0.7 242.95 0.4 242.95 0.0 242.95 -0.4 243.25 -0.7 243.55 -1.0 243.95 -1.0" fill="#ffffff" fill-rule="evenodd" stroke="none"/>
  </g>
</svg>
