<?xml version="1.0" encoding="UTF-8" standalone="no"?>
<svg xmlns:ffdec="https://www.free-decompiler.com/flash" xmlns:xlink="http://www.w3.org/1999/xlink" ffdec:objectType="shape" height="2.0px" width="247.0px" xmlns="http://www.w3.org/2000/svg">
  <g transform="matrix(1.0, 0.0, 0.0, 1.0, -2.65, 1.0)">
    <path d="M3.65 -1.0 L4.35 -0.7 4.65 0.0 4.35 0.7 3.65 1.0 Q3.25 1.0 2.95 0.7 2.65 0.4 2.65 0.0 2.65 -0.4 2.95 -0.7 3.25 -1.0 3.65 -1.0 M8.65 -1.0 L9.35 -0.7 9.65 0.0 9.35 0.7 8.65 1.0 7.95 0.7 Q7.65 0.4 7.65 0.0 7.65 -0.4 7.95 -0.7 L8.65 -1.0 M13.65 -1.0 L14.35 -0.7 14.65 0.0 14.35 0.7 13.65 1.0 12.95 0.7 Q12.65 0.4 12.65 0.0 12.65 -0.4 12.95 -0.7 L13.65 -1.0 M18.65 -1.0 L19.35 -0.7 19.65 0.0 19.35 0.7 18.65 1.0 Q18.25 1.0 17.95 0.7 17.65 0.4 17.65 0.0 17.65 -0.4 17.95 -0.7 18.25 -1.0 18.65 -1.0 M39.35 -0.7 L39.65 0.0 39.35 0.7 38.65 1.0 37.95 0.7 Q37.65 0.4 37.65 0.0 37.65 -0.4 37.95 -0.7 L38.65 -1.0 39.35 -0.7 M34.35 -0.7 L34.65 0.0 34.35 0.7 33.65 1.0 32.95 0.7 Q32.65 0.4 32.65 0.0 32.65 -0.4 32.95 -0.7 L33.65 -1.0 34.35 -0.7 M29.35 -0.7 L29.65 0.0 29.35 0.7 28.65 1.0 Q28.25 1.0 27.95 0.7 L27.65 0.0 27.95 -0.7 Q28.25 -1.0 28.65 -1.0 L29.35 -0.7 M24.35 -0.7 L24.65 0.0 24.35 0.7 23.65 1.0 Q23.25 1.0 22.95 0.7 22.65 0.4 22.65 0.0 22.65 -0.4 22.95 -0.7 23.25 -1.0 23.65 -1.0 L24.35 -0.7 M43.65 -1.0 Q44.05 -1.0 44.35 -0.7 L44.65 0.0 44.35 0.7 Q44.05 1.0 43.65 1.0 L42.95 0.7 Q42.65 0.4 42.65 0.0 42.65 -0.4 42.95 -0.7 L43.65 -1.0 M48.65 -1.0 L49.35 -0.7 49.65 0.0 49.35 0.7 48.65 1.0 Q48.25 1.0 47.95 0.7 47.65 0.4 47.65 0.0 47.65 -0.4 47.95 -0.7 48.25 -1.0 48.65 -1.0 M53.65 -1.0 L54.35 -0.7 54.65 0.0 54.35 0.7 53.65 1.0 Q53.25 1.0 52.95 0.7 52.65 0.4 52.65 0.0 52.65 -0.4 52.95 -0.7 53.25 -1.0 53.65 -1.0 M58.65 -1.0 L59.35 -0.7 59.65 0.0 59.35 0.7 58.65 1.0 Q58.25 1.0 57.95 0.7 57.65 0.4 57.65 0.0 57.65 -0.4 57.95 -0.7 58.25 -1.0 58.65 -1.0 M79.35 -0.7 L79.65 0.0 79.35 0.7 78.65 1.0 Q78.25 1.0 77.95 0.7 77.65 0.4 77.65 0.0 77.65 -0.4 77.95 -0.7 78.25 -1.0 78.65 -1.0 L79.35 -0.7 M74.35 -0.7 L74.65 0.0 74.35 0.7 Q74.05 1.0 73.65 1.0 L72.95 0.7 Q72.65 0.4 72.65 0.0 72.65 -0.4 72.95 -0.7 L73.65 -1.0 Q74.05 -1.0 74.35 -0.7 M69.35 -0.7 L69.65 0.0 69.35 0.7 Q69.05 1.0 68.65 1.0 L67.95 0.7 Q67.65 0.4 67.65 0.0 67.65 -0.4 67.95 -0.7 L68.65 -1.0 Q69.05 -1.0 69.35 -0.7 M64.35 -0.7 L64.65 0.0 64.35 0.7 63.65 1.0 Q63.25 1.0 62.95 0.7 62.65 0.4 62.65 0.0 62.65 -0.4 62.95 -0.7 63.25 -1.0 63.65 -1.0 L64.35 -0.7 M83.65 -1.0 L84.35 -0.7 84.65 0.0 84.35 0.7 83.65 1.0 Q83.25 1.0 82.95 0.7 82.65 0.4 82.65 0.0 82.65 -0.4 82.95 -0.7 83.25 -1.0 83.65 -1.0 M88.65 -1.0 L89.35 -0.7 89.65 0.0 89.35 0.7 88.65 1.0 87.95 0.7 Q87.65 0.4 87.65 0.0 87.65 -0.4 87.95 -0.7 L88.65 -1.0 M93.65 -1.0 L94.35 -0.7 94.65 0.0 94.35 0.7 93.65 1.0 Q93.25 1.0 92.95 0.7 92.65 0.4 92.65 0.0 92.65 -0.4 92.95 -0.7 93.25 -1.0 93.65 -1.0 M98.65 -1.0 L99.35 -0.7 99.65 0.0 99.35 0.7 98.65 1.0 Q98.25 1.0 97.95 0.7 97.65 0.4 97.65 0.0 97.65 -0.4 97.95 -0.7 98.25 -1.0 98.65 -1.0 M119.35 -0.7 L119.65 0.0 119.35 0.7 118.65 1.0 117.95 0.7 Q117.65 0.4 117.65 0.0 117.65 -0.4 117.95 -0.7 L118.65 -1.0 119.35 -0.7 M114.35 -0.7 L114.65 0.0 114.35 0.7 113.65 1.0 112.95 0.7 Q112.65 0.4 112.65 0.0 112.65 -0.4 112.95 -0.7 L113.65 -1.0 114.35 -0.7 M109.35 -0.7 L109.65 0.0 109.35 0.7 108.65 1.0 Q108.25 1.0 107.95 0.7 107.65 0.4 107.65 0.0 107.65 -0.4 107.95 -0.7 108.25 -1.0 108.65 -1.0 L109.35 -0.7 M104.35 -0.7 L104.65 0.0 104.35 0.7 Q104.05 1.0 103.65 1.0 L102.95 0.7 102.65 0.0 102.95 -0.7 103.65 -1.0 Q104.05 -1.0 104.35 -0.7 M123.65 -1.0 L124.35 -0.7 124.65 0.0 124.35 0.7 123.65 1.0 Q123.25 1.0 122.95 0.7 122.65 0.4 122.65 0.0 122.65 -0.4 122.95 -0.7 123.25 -1.0 123.65 -1.0 M128.65 -1.0 L129.35 -0.7 129.65 0.0 129.35 0.7 128.65 1.0 Q128.25 1.0 127.95 0.7 127.65 0.4 127.65 0.0 127.65 -0.4 127.95 -0.7 128.25 -1.0 128.65 -1.0 M133.65 -1.0 L134.35 -0.7 134.65 0.0 134.35 0.7 133.65 1.0 Q133.25 1.0 132.95 0.7 L132.65 0.0 132.95 -0.7 Q133.25 -1.0 133.65 -1.0 M138.65 -1.0 L139.35 -0.7 139.65 0.0 139.35 0.7 138.65 1.0 137.95 0.7 Q137.65 0.4 137.65 0.0 137.65 -0.4 137.95 -0.7 L138.65 -1.0 M159.35 -0.7 L159.65 0.0 159.35 0.7 158.65 1.0 Q158.25 1.0 157.95 0.7 157.65 0.4 157.65 0.0 157.65 -0.4 157.95 -0.7 158.25 -1.0 158.65 -1.0 L159.35 -0.7 M154.35 -0.7 L154.65 0.0 154.35 0.7 153.65 1.0 Q153.25 1.0 152.95 0.7 152.65 0.4 152.65 0.0 152.65 -0.4 152.95 -0.7 153.25 -1.0 153.65 -1.0 L154.35 -0.7 M149.35 -0.7 L149.65 0.0 149.35 0.7 Q149.05 1.0 148.65 1.0 L147.95 0.7 Q147.65 0.4 147.65 0.0 147.65 -0.4 147.95 -0.7 L148.65 -1.0 Q149.05 -1.0 149.35 -0.7 M144.35 -0.7 L144.65 0.0 144.35 0.7 143.65 1.0 142.95 0.7 Q142.65 0.4 142.65 0.0 142.65 -0.4 142.95 -0.7 L143.65 -1.0 144.35 -0.7 M163.65 -1.0 L164.35 -0.7 164.65 0.0 164.35 0.7 163.65 1.0 Q163.25 1.0 162.95 0.7 162.65 0.4 162.65 0.0 162.65 -0.4 162.95 -0.7 163.25 -1.0 163.65 -1.0 M168.65 -1.0 L169.35 -0.7 169.65 0.0 169.35 0.7 168.65 1.0 Q168.25 1.0 167.95 0.7 167.65 0.4 167.65 0.0 167.65 -0.4 167.95 -0.7 168.25 -1.0 168.65 -1.0 M173.65 -1.0 Q174.05 -1.0 174.35 -0.7 L174.65 0.0 174.35 0.7 Q174.05 1.0 173.65 1.0 L172.95 0.7 Q172.65 0.4 172.65 0.0 172.65 -0.4 172.95 -0.7 L173.65 -1.0 M178.65 -1.0 Q179.05 -1.0 179.35 -0.7 L179.65 0.0 179.35 0.7 Q179.05 1.0 178.65 1.0 L177.95 0.7 Q177.65 0.4 177.65 0.0 177.65 -0.4 177.95 -0.7 L178.65 -1.0 M199.35 -0.7 L199.65 0.0 199.35 0.7 198.65 1.0 Q198.25 1.0 197.95 0.7 197.65 0.4 197.65 0.0 197.65 -0.4 197.95 -0.7 198.25 -1.0 198.65 -1.0 L199.35 -0.7 M194.35 -0.7 L194.65 0.0 194.35 0.7 193.65 1.0 192.95 0.7 Q192.65 0.4 192.65 0.0 192.65 -0.4 192.95 -0.7 L193.65 -1.0 194.35 -0.7 M189.35 -0.7 L189.65 0.0 189.35 0.7 188.65 1.0 Q188.25 1.0 187.95 0.7 187.65 0.4 187.65 0.0 187.65 -0.4 187.95 -0.7 188.25 -1.0 188.65 -1.0 L189.35 -0.7 M184.35 -0.7 L184.65 0.0 184.35 0.7 183.65 1.0 Q183.25 1.0 182.95 0.7 182.65 0.4 182.65 0.0 182.65 -0.4 182.95 -0.7 183.25 -1.0 183.65 -1.0 L184.35 -0.7 M203.65 -1.0 L204.35 -0.7 204.65 0.0 204.35 0.7 203.65 1.0 Q203.25 1.0 202.95 0.7 202.65 0.4 202.65 0.0 202.65 -0.4 202.95 -0.7 203.25 -1.0 203.65 -1.0 M208.65 -1.0 Q209.05 -1.0 209.35 -0.7 L209.65 0.0 209.35 0.7 Q209.05 1.0 208.65 1.0 L207.95 0.7 207.65 0.0 207.95 -0.7 208.65 -1.0 M213.65 -1.0 L214.35 -0.7 214.65 0.0 214.35 0.7 213.65 1.0 Q213.25 1.0 212.95 0.7 212.65 0.4 212.65 0.0 212.65 -0.4 212.95 -0.7 213.25 -1.0 213.65 -1.0 M218.65 -1.0 L219.35 -0.7 219.65 0.0 219.35 0.7 218.65 1.0 217.95 0.7 Q217.65 0.4 217.65 0.0 217.65 -0.4 217.95 -0.7 L218.65 -1.0 M239.35 -0.7 L239.65 0.0 239.35 0.7 238.65 1.0 Q238.25 1.0 237.95 0.7 L237.65 0.0 237.95 -0.7 Q238.25 -1.0 238.65 -1.0 L239.35 -0.7 M234.35 -0.7 L234.65 0.0 234.35 0.7 233.65 1.0 Q233.25 1.0 232.95 0.7 232.65 0.4 232.65 0.0 232.65 -0.4 232.95 -0.7 233.25 -1.0 233.65 -1.0 L234.35 -0.7 M229.35 -0.7 L229.65 0.0 229.35 0.7 228.65 1.0 Q228.25 1.0 227.95 0.7 227.65 0.4 227.65 0.0 227.65 -0.4 227.95 -0.7 228.25 -1.0 228.65 -1.0 L229.35 -0.7 M224.35 -0.7 L224.65 0.0 224.35 0.7 223.65 1.0 222.95 0.7 Q222.65 0.4 222.65 0.0 222.65 -0.4 222.95 -0.7 L223.65 -1.0 224.35 -0.7 M244.35 -0.7 L244.65 0.0 244.35 0.7 243.65 1.0 242.95 0.7 Q242.65 0.4 242.65 0.0 242.65 -0.4 242.95 -0.7 L243.65 -1.0 244.35 -0.7 M248.65 -1.0 L249.35 -0.7 249.65 0.0 249.35 0.7 248.65 1.0 247.95 0.7 Q247.65 0.4 247.65 0.0 247.65 -0.4 247.95 -0.7 L248.65 -1.0" fill="#ffffff" fill-rule="evenodd" stroke="none"/>
  </g>
</svg>
