<?xml version="1.0" encoding="UTF-8" standalone="no"?>
<svg xmlns:ffdec="https://www.free-decompiler.com/flash" xmlns:xlink="http://www.w3.org/1999/xlink" ffdec:objectType="shape" height="2.0px" width="252.0px" xmlns="http://www.w3.org/2000/svg">
  <g transform="matrix(1.0, 0.0, 0.0, 1.0, 1.0, 1.0)">
    <path d="M0.7 -0.7 L1.0 0.0 0.7 0.7 0.0 1.0 -0.7 0.7 -1.0 0.0 -0.7 -0.7 0.0 -1.0 0.7 -0.7 M5.7 -0.7 L6.0 0.0 5.7 0.7 5.0 1.0 Q4.6 1.0 4.3 0.7 4.0 0.4 4.0 0.0 4.0 -0.4 4.3 -0.7 4.6 -1.0 5.0 -1.0 L5.7 -0.7 M10.7 -0.7 L11.0 0.0 10.7 0.7 10.0 1.0 Q9.6 1.0 9.3 0.7 9.0 0.4 9.0 0.0 9.0 -0.4 9.3 -0.7 9.6 -1.0 10.0 -1.0 L10.7 -0.7 M15.7 -0.7 L16.0 0.0 15.7 0.7 15.0 1.0 Q14.6 1.0 14.3 0.7 L14.0 0.0 14.3 -0.7 Q14.6 -1.0 15.0 -1.0 L15.7 -0.7 M20.0 -1.0 L20.7 -0.7 21.0 0.0 20.7 0.7 20.0 1.0 19.3 0.7 Q19.0 0.4 19.0 0.0 19.0 -0.4 19.3 -0.7 L20.0 -1.0 M40.0 -1.0 L40.7 -0.7 41.0 0.0 40.7 0.7 40.0 1.0 Q39.6 1.0 39.3 0.7 39.0 0.4 39.0 0.0 39.0 -0.4 39.3 -0.7 39.6 -1.0 40.0 -1.0 M35.0 -1.0 L35.7 -0.7 36.0 0.0 35.7 0.7 35.0 1.0 Q34.6 1.0 34.3 0.7 34.0 0.4 34.0 0.0 34.0 -0.4 34.3 -0.7 34.6 -1.0 35.0 -1.0 M30.0 -1.0 Q30.4 -1.0 30.7 -0.7 L31.0 0.0 30.7 0.7 Q30.4 1.0 30.0 1.0 L29.3 0.7 Q29.0 0.4 29.0 0.0 29.0 -0.4 29.3 -0.7 L30.0 -1.0 M25.0 -1.0 L25.7 -0.7 26.0 0.0 25.7 0.7 25.0 1.0 24.3 0.7 Q24.0 0.4 24.0 0.0 24.0 -0.4 24.3 -0.7 L25.0 -1.0 M45.7 -0.7 L46.0 0.0 45.7 0.7 45.0 1.0 Q44.6 1.0 44.3 0.7 44.0 0.4 44.0 0.0 44.0 -0.4 44.3 -0.7 44.6 -1.0 45.0 -1.0 L45.7 -0.7 M50.7 -0.7 L51.0 0.0 50.7 0.7 50.0 1.0 Q49.6 1.0 49.3 0.7 49.0 0.4 49.0 0.0 49.0 -0.4 49.3 -0.7 49.6 -1.0 50.0 -1.0 L50.7 -0.7 M55.7 -0.7 L56.0 0.0 55.7 0.7 Q55.4 1.0 55.0 1.0 L54.3 0.7 Q54.0 0.4 54.0 0.0 54.0 -0.4 54.3 -0.7 L55.0 -1.0 Q55.4 -1.0 55.7 -0.7 M60.7 -0.7 L61.0 0.0 60.7 0.7 Q60.4 1.0 60.0 1.0 L59.3 0.7 Q59.0 0.4 59.0 0.0 59.0 -0.4 59.3 -0.7 L60.0 -1.0 Q60.4 -1.0 60.7 -0.7 M80.0 -1.0 L80.7 -0.7 81.0 0.0 80.7 0.7 80.0 1.0 Q79.6 1.0 79.3 0.7 79.0 0.4 79.0 0.0 79.0 -0.4 79.3 -0.7 79.6 -1.0 80.0 -1.0 M75.0 -1.0 L75.7 -0.7 76.0 0.0 75.7 0.7 75.0 1.0 74.3 0.7 Q74.0 0.4 74.0 0.0 74.0 -0.4 74.3 -0.7 L75.0 -1.0 M70.0 -1.0 L70.7 -0.7 71.0 0.0 70.7 0.7 70.0 1.0 Q69.6 1.0 69.3 0.7 69.0 0.4 69.0 0.0 69.0 -0.4 69.3 -0.7 69.6 -1.0 70.0 -1.0 M65.0 -1.0 L65.7 -0.7 66.0 0.0 65.7 0.7 65.0 1.0 Q64.6 1.0 64.3 0.7 64.0 0.4 64.0 0.0 64.0 -0.4 64.3 -0.7 64.6 -1.0 65.0 -1.0 M85.7 -0.7 L86.0 0.0 85.7 0.7 85.0 1.0 Q84.6 1.0 84.3 0.7 84.0 0.4 84.0 0.0 84.0 -0.4 84.3 -0.7 84.6 -1.0 85.0 -1.0 L85.7 -0.7 M90.7 -0.7 L91.0 0.0 90.7 0.7 Q90.4 1.0 90.0 1.0 L89.3 0.7 89.0 0.0 89.3 -0.7 90.0 -1.0 Q90.4 -1.0 90.7 -0.7 M95.7 -0.7 L96.0 0.0 95.7 0.7 95.0 1.0 Q94.6 1.0 94.3 0.7 94.0 0.4 94.0 0.0 94.0 -0.4 94.3 -0.7 94.6 -1.0 95.0 -1.0 L95.7 -0.7 M100.7 -0.7 L101.0 0.0 100.7 0.7 100.0 1.0 99.3 0.7 Q99.0 0.4 99.0 0.0 99.0 -0.4 99.3 -0.7 L100.0 -1.0 100.7 -0.7 M120.0 -1.0 L120.7 -0.7 121.0 0.0 120.7 0.7 120.0 1.0 Q119.6 1.0 119.3 0.7 L119.0 0.0 119.3 -0.7 Q119.6 -1.0 120.0 -1.0 M115.0 -1.0 L115.7 -0.7 116.0 0.0 115.7 0.7 115.0 1.0 Q114.6 1.0 114.3 0.7 114.0 0.4 114.0 0.0 114.0 -0.4 114.3 -0.7 114.6 -1.0 115.0 -1.0 M110.0 -1.0 L110.7 -0.7 111.0 0.0 110.7 0.7 110.0 1.0 Q109.6 1.0 109.3 0.7 109.0 0.4 109.0 0.0 109.0 -0.4 109.3 -0.7 109.6 -1.0 110.0 -1.0 M105.0 -1.0 L105.7 -0.7 106.0 0.0 105.7 0.7 105.0 1.0 104.3 0.7 Q104.0 0.4 104.0 0.0 104.0 -0.4 104.3 -0.7 L105.0 -1.0 M125.7 -0.7 L126.0 0.0 125.7 0.7 125.0 1.0 124.3 0.7 Q124.0 0.4 124.0 0.0 124.0 -0.4 124.3 -0.7 L125.0 -1.0 125.7 -0.7 M130.7 -0.7 L131.0 0.0 130.7 0.7 130.0 1.0 129.3 0.7 Q129.0 0.4 129.0 0.0 129.0 -0.4 129.3 -0.7 L130.0 -1.0 130.7 -0.7 M135.7 -0.7 L136.0 0.0 135.7 0.7 Q135.4 1.0 135.0 1.0 L134.3 0.7 Q134.0 0.4 134.0 0.0 134.0 -0.4 134.3 -0.7 L135.0 -1.0 Q135.4 -1.0 135.7 -0.7 M140.7 -0.7 L141.0 0.0 140.7 0.7 140.0 1.0 Q139.6 1.0 139.3 0.7 139.0 0.4 139.0 0.0 139.0 -0.4 139.3 -0.7 139.6 -1.0 140.0 -1.0 L140.7 -0.7 M160.0 -1.0 Q160.4 -1.0 160.7 -0.7 L161.0 0.0 160.7 0.7 Q160.4 1.0 160.0 1.0 L159.3 0.7 Q159.0 0.4 159.0 0.0 159.0 -0.4 159.3 -0.7 L160.0 -1.0 M155.0 -1.0 L155.7 -0.7 156.0 0.0 155.7 0.7 155.0 1.0 Q154.6 1.0 154.3 0.7 154.0 0.4 154.0 0.0 154.0 -0.4 154.3 -0.7 154.6 -1.0 155.0 -1.0 M150.0 -1.0 L150.7 -0.7 151.0 0.0 150.7 0.7 150.0 1.0 Q149.6 1.0 149.3 0.7 149.0 0.4 149.0 0.0 149.0 -0.4 149.3 -0.7 149.6 -1.0 150.0 -1.0 M145.0 -1.0 L145.7 -0.7 146.0 0.0 145.7 0.7 145.0 1.0 Q144.6 1.0 144.3 0.7 144.0 0.4 144.0 0.0 144.0 -0.4 144.3 -0.7 144.6 -1.0 145.0 -1.0 M165.7 -0.7 L166.0 0.0 165.7 0.7 Q165.4 1.0 165.0 1.0 L164.3 0.7 Q164.0 0.4 164.0 0.0 164.0 -0.4 164.3 -0.7 L165.0 -1.0 Q165.4 -1.0 165.7 -0.7 M170.7 -0.7 L171.0 0.0 170.7 0.7 170.0 1.0 Q169.6 1.0 169.3 0.7 169.0 0.4 169.0 0.0 169.0 -0.4 169.3 -0.7 169.6 -1.0 170.0 -1.0 L170.7 -0.7 M175.7 -0.7 L176.0 0.0 175.7 0.7 175.0 1.0 Q174.6 1.0 174.3 0.7 174.0 0.4 174.0 0.0 174.0 -0.4 174.3 -0.7 174.6 -1.0 175.0 -1.0 L175.7 -0.7 M180.7 -0.7 L181.0 0.0 180.7 0.7 180.0 1.0 179.3 0.7 Q179.0 0.4 179.0 0.0 179.0 -0.4 179.3 -0.7 L180.0 -1.0 180.7 -0.7 M200.0 -1.0 L200.7 -0.7 201.0 0.0 200.7 0.7 200.0 1.0 Q199.6 1.0 199.3 0.7 199.0 0.4 199.0 0.0 199.0 -0.4 199.3 -0.7 199.6 -1.0 200.0 -1.0 M195.0 -1.0 Q195.4 -1.0 195.7 -0.7 L196.0 0.0 195.7 0.7 Q195.4 1.0 195.0 1.0 L194.3 0.7 194.0 0.0 194.3 -0.7 195.0 -1.0 M190.0 -1.0 L190.7 -0.7 191.0 0.0 190.7 0.7 190.0 1.0 Q189.6 1.0 189.3 0.7 189.0 0.4 189.0 0.0 189.0 -0.4 189.3 -0.7 189.6 -1.0 190.0 -1.0 M185.0 -1.0 L185.7 -0.7 186.0 0.0 185.7 0.7 185.0 1.0 Q184.6 1.0 184.3 0.7 184.0 0.4 184.0 0.0 184.0 -0.4 184.3 -0.7 184.6 -1.0 185.0 -1.0 M205.7 -0.7 L206.0 0.0 205.7 0.7 205.0 1.0 204.3 0.7 Q204.0 0.4 204.0 0.0 204.0 -0.4 204.3 -0.7 L205.0 -1.0 205.7 -0.7 M210.7 -0.7 L211.0 0.0 210.7 0.7 210.0 1.0 209.3 0.7 Q209.0 0.4 209.0 0.0 209.0 -0.4 209.3 -0.7 L210.0 -1.0 210.7 -0.7 M215.7 -0.7 L216.0 0.0 215.7 0.7 215.0 1.0 Q214.6 1.0 214.3 0.7 214.0 0.4 214.0 0.0 214.0 -0.4 214.3 -0.7 214.6 -1.0 215.0 -1.0 L215.7 -0.7 M220.7 -0.7 L221.0 0.0 220.7 0.7 220.0 1.0 Q219.6 1.0 219.3 0.7 219.0 0.4 219.0 0.0 219.0 -0.4 219.3 -0.7 219.6 -1.0 220.0 -1.0 L220.7 -0.7 M240.0 -1.0 Q240.4 -1.0 240.7 -0.7 L241.0 0.0 240.7 0.7 Q240.4 1.0 240.0 1.0 L239.3 0.7 Q239.0 0.4 239.0 0.0 239.0 -0.4 239.3 -0.7 L240.0 -1.0 M235.0 -1.0 L235.7 -0.7 236.0 0.0 235.7 0.7 235.0 1.0 234.3 0.7 Q234.0 0.4 234.0 0.0 234.0 -0.4 234.3 -0.7 L235.0 -1.0 M230.0 -1.0 L230.7 -0.7 231.0 0.0 230.7 0.7 230.0 1.0 229.3 0.7 Q229.0 0.4 229.0 0.0 229.0 -0.4 229.3 -0.7 L230.0 -1.0 M225.0 -1.0 L225.7 -0.7 226.0 0.0 225.7 0.7 225.0 1.0 Q224.6 1.0 224.3 0.7 L224.0 0.0 224.3 -0.7 Q224.6 -1.0 225.0 -1.0 M250.0 -1.0 L250.7 -0.7 251.0 0.0 250.7 0.7 250.0 1.0 Q249.6 1.0 249.3 0.7 249.0 0.4 249.0 0.0 249.0 -0.4 249.3 -0.7 249.6 -1.0 250.0 -1.0 M245.0 -1.0 L245.7 -0.7 246.0 0.0 245.7 0.7 245.0 1.0 Q244.6 1.0 244.3 0.7 244.0 0.4 244.0 0.0 244.0 -0.4 244.3 -0.7 244.6 -1.0 245.0 -1.0" fill="#ffffff" fill-rule="evenodd" stroke="none"/>
  </g>
</svg>
