<?xml version="1.0" encoding="UTF-8" standalone="no"?>
<svg xmlns:ffdec="https://www.free-decompiler.com/flash" xmlns:xlink="http://www.w3.org/1999/xlink" ffdec:objectType="shape" height="11.85px" width="20.3px" xmlns="http://www.w3.org/2000/svg">
  <g transform="matrix(1.0, 0.0, 0.0, 1.0, -11.0, -9.2)">
    <path d="M26.6 9.2 Q28.3 9.2 29.5 10.1 30.65 10.95 31.15 12.55 L29.65 12.9 Q29.25 11.65 28.5 11.05 27.7 10.5 26.55 10.5 25.25 10.5 24.35 11.15 23.5 11.75 23.1 12.85 22.75 13.9 22.75 15.05 22.75 16.5 23.2 17.6 23.6 18.65 24.5 19.2 25.4 19.75 26.45 19.75 27.75 19.75 28.6 19.0 29.5 18.3 29.8 16.85 L31.3 17.2 Q30.85 19.1 29.6 20.05 28.35 21.05 26.6 21.05 24.75 21.05 23.55 20.3 22.4 19.55 21.8 18.1 21.2 16.7 21.2 15.05 21.2 13.25 21.9 11.9 22.55 10.6 23.85 9.9 25.1 9.2 26.6 9.2 M19.3 9.4 L19.3 10.75 12.55 10.75 12.55 14.25 18.85 14.25 18.85 15.6 12.55 15.6 12.55 19.5 19.55 19.5 19.55 20.85 11.0 20.85 11.0 9.4 19.3 9.4" fill="#ffffff" fill-opacity="0.7176471" fill-rule="evenodd" stroke="none"/>
  </g>
</svg>
