<?xml version="1.0" encoding="UTF-8" standalone="no"?>
<svg xmlns:ffdec="https://www.free-decompiler.com/flash" xmlns:xlink="http://www.w3.org/1999/xlink" ffdec:objectType="shape" height="15.0px" width="15.0px" xmlns="http://www.w3.org/2000/svg">
  <g transform="matrix(1.0, 0.0, 0.0, 1.0, -13.0, -7.5)">
    <path d="M28.0 22.5 L13.0 22.5 13.0 7.5 28.0 7.5 28.0 22.5 M27.25 21.8 L27.25 8.2 13.7 8.2 13.7 21.8 27.25 21.8 M26.2 10.75 L15.05 10.75 15.05 10.0 26.2 10.0 26.2 10.75 M26.2 19.85 L15.05 19.85 15.05 19.15 26.2 19.15 26.2 19.85 M26.2 17.5 L15.05 17.5 15.05 16.75 26.2 16.75 26.2 17.5 M26.2 13.0 L15.05 13.0 15.05 12.25 26.2 12.25 26.2 13.0 M26.2 15.25 L15.05 15.25 15.05 14.5 26.2 14.5 26.2 15.25" fill="#ffffff" fill-rule="evenodd" stroke="none"/>
  </g>
</svg>
