<?xml version="1.0" encoding="UTF-8" standalone="no"?>
<svg xmlns:ffdec="https://www.free-decompiler.com/flash" xmlns:xlink="http://www.w3.org/1999/xlink" ffdec:objectType="shape" height="41.0px" width="41.0px" xmlns="http://www.w3.org/2000/svg">
  <g transform="matrix(1.0, 0.0, 0.0, 1.0, 58.8, 5.8)">
    <path d="M-18.8 -4.8 L-18.8 34.2 -57.8 34.2 -57.8 -4.8 -18.8 -4.8 Z" fill="none" stroke="#ffffff" stroke-linecap="round" stroke-linejoin="round" stroke-width="2.0"/>
    <path d="M-28.6 9.85 Q-28.9 9.45 -29.5 9.45 L-29.5 9.5 -29.75 9.6 -29.9 9.65 -30.25 10.0 -30.5 10.25 -30.5 10.5 -30.5 10.85 -30.4 11.0 -30.15 11.3 Q-28.6 11.45 -28.6 10.0 L-28.6 9.85 M-26.6 9.0 Q-26.6 11.25 -28.2 12.8 -29.75 14.4 -32.0 14.4 -34.25 14.4 -35.8 12.8 -37.4 11.25 -37.4 9.0 -37.4 6.75 -35.8 5.2 -34.25 3.6 -32.0 3.6 -29.75 3.6 -28.2 5.2 -26.6 6.75 -26.6 9.0 M-35.55 6.85 Q-36.4 7.4 -36.55 8.35 -36.1 9.15 -35.3 8.95 L-35.05 8.7 Q-34.45 8.05 -34.6 7.35 L-34.65 7.2 Q-34.9 6.75 -35.3 6.75 L-35.55 6.85 M-32.3 5.7 L-32.3 5.45 Q-32.45 4.95 -33.0 4.9 L-33.3 5.05 -33.8 5.45 Q-34.0 6.35 -33.0 6.5 L-32.7 6.35 Q-32.3 6.1 -32.3 5.7 M-32.05 11.0 L-32.5 11.45 Q-32.7 12.3 -31.8 12.45 L-31.4 12.3 Q-31.0 12.15 -31.0 11.65 L-31.05 11.5 Q-31.2 10.95 -31.8 10.85 L-32.05 11.0 M-33.0 20.9 L-33.3 21.05 -33.8 21.45 Q-34.0 22.35 -33.0 22.5 L-32.7 22.35 Q-32.3 22.1 -32.3 21.7 L-32.3 21.45 Q-32.45 20.95 -33.0 20.9 M-35.55 22.85 Q-36.4 23.4 -36.55 24.35 -36.1 25.15 -35.3 24.95 L-35.05 24.7 Q-34.45 24.05 -34.6 23.35 L-34.65 23.2 Q-34.9 22.75 -35.3 22.75 L-35.55 22.85 M-32.0 19.6 Q-29.75 19.6 -28.2 21.2 -26.6 22.75 -26.6 25.0 -26.6 27.25 -28.2 28.8 -29.75 30.4 -32.0 30.4 -34.25 30.4 -35.8 28.8 -37.4 27.25 -37.4 25.0 -37.4 22.75 -35.8 21.2 -34.25 19.6 -32.0 19.6 M-32.05 27.0 L-32.5 27.45 Q-32.7 28.3 -31.8 28.45 L-31.4 28.3 Q-31.0 28.15 -31.0 27.65 L-31.05 27.5 Q-31.2 26.95 -31.8 26.85 L-32.05 27.0 M-29.5 25.45 L-29.5 25.5 -29.75 25.6 -29.9 25.65 -30.25 26.0 -30.5 26.25 -30.5 26.5 -30.5 26.85 -30.4 27.0 -30.15 27.3 Q-28.6 27.45 -28.6 26.0 L-28.6 25.85 Q-28.9 25.45 -29.5 25.45 M-43.2 12.2 Q-41.6 13.75 -41.6 16.0 -41.6 18.25 -43.2 19.8 -44.75 21.4 -47.0 21.4 -49.25 21.4 -50.8 19.8 -52.4 18.25 -52.4 16.0 -52.4 13.75 -50.8 12.2 -49.25 10.6 -47.0 10.6 -44.75 10.6 -43.2 12.2 M-48.0 11.9 L-48.3 12.05 -48.8 12.45 Q-49.0 13.35 -48.0 13.5 L-47.7 13.35 -47.3 12.7 -47.3 12.45 Q-47.45 11.95 -48.0 11.9 M-43.6 17.0 L-43.6 16.85 Q-43.9 16.45 -44.5 16.45 L-44.5 16.5 -44.75 16.6 -44.9 16.65 -45.25 17.0 -45.5 17.25 -45.5 17.5 -45.5 17.85 -45.4 18.0 -45.15 18.3 Q-43.6 18.45 -43.6 17.0 M-49.6 14.35 L-49.65 14.2 Q-49.9 13.75 -50.3 13.75 L-50.55 13.85 Q-51.4 14.4 -51.55 15.35 -51.1 16.15 -50.3 15.95 L-50.05 15.7 Q-49.45 15.05 -49.6 14.35 M-46.8 17.85 L-47.05 18.0 -47.5 18.45 Q-47.7 19.3 -46.8 19.45 L-46.4 19.3 Q-46.0 19.15 -46.0 18.65 L-46.05 18.5 Q-46.2 17.95 -46.8 17.85" fill="#5955aa" fill-opacity="0.8392157" fill-rule="evenodd" stroke="none"/>
    <path d="M-28.6 9.85 L-28.6 10.0 Q-28.6 11.45 -30.15 11.3 L-30.4 11.0 -30.5 10.85 -30.5 10.5 -30.5 10.25 -30.25 10.0 -29.9 9.65 -29.75 9.6 -29.5 9.5 -29.5 9.45 Q-28.9 9.45 -28.6 9.85 M-32.05 11.0 L-31.8 10.85 Q-31.2 10.95 -31.05 11.5 L-31.0 11.65 Q-31.0 12.15 -31.4 12.3 L-31.8 12.45 Q-32.7 12.3 -32.5 11.45 L-32.05 11.0 M-29.5 25.45 Q-28.9 25.45 -28.6 25.85 L-28.6 26.0 Q-28.6 27.45 -30.15 27.3 L-30.4 27.0 -30.5 26.85 -30.5 26.5 -30.5 26.25 -30.25 26.0 -29.9 25.65 -29.75 25.6 -29.5 25.5 -29.5 25.45 M-32.05 27.0 L-31.8 26.85 Q-31.2 26.95 -31.05 27.5 L-31.0 27.65 Q-31.0 28.15 -31.4 28.3 L-31.8 28.45 Q-32.7 28.3 -32.5 27.45 L-32.05 27.0 M-43.6 17.0 Q-43.6 18.45 -45.15 18.3 L-45.4 18.0 -45.5 17.85 -45.5 17.5 -45.5 17.25 -45.25 17.0 -44.9 16.65 -44.75 16.6 -44.5 16.5 -44.5 16.45 Q-43.9 16.45 -43.6 16.85 L-43.6 17.0 M-46.8 17.85 Q-46.2 17.95 -46.05 18.5 L-46.0 18.65 Q-46.0 19.15 -46.4 19.3 L-46.8 19.45 Q-47.7 19.3 -47.5 18.45 L-47.05 18.0 -46.8 17.85" fill="#3a376f" fill-rule="evenodd" stroke="none"/>
    <path d="M-32.3 5.7 Q-32.3 6.1 -32.7 6.35 L-33.0 6.5 Q-34.0 6.35 -33.8 5.45 L-33.3 5.05 -33.0 4.9 Q-32.45 4.95 -32.3 5.45 L-32.3 5.7 M-35.55 6.85 L-35.3 6.75 Q-34.9 6.75 -34.65 7.2 L-34.6 7.35 Q-34.45 8.05 -35.05 8.7 L-35.3 8.95 Q-36.1 9.15 -36.55 8.35 -36.4 7.4 -35.55 6.85 M-35.55 22.85 L-35.3 22.75 Q-34.9 22.75 -34.65 23.2 L-34.6 23.35 Q-34.45 24.05 -35.05 24.7 L-35.3 24.95 Q-36.1 25.15 -36.55 24.35 -36.4 23.4 -35.55 22.85 M-33.0 20.9 Q-32.45 20.95 -32.3 21.45 L-32.3 21.7 Q-32.3 22.1 -32.7 22.35 L-33.0 22.5 Q-34.0 22.35 -33.8 21.45 L-33.3 21.05 -33.0 20.9 M-48.0 11.9 Q-47.45 11.95 -47.3 12.45 L-47.3 12.7 -47.7 13.35 -48.0 13.5 Q-49.0 13.35 -48.8 12.45 L-48.3 12.05 -48.0 11.9 M-49.6 14.35 Q-49.45 15.05 -50.05 15.7 L-50.3 15.95 Q-51.1 16.15 -51.55 15.35 -51.4 14.4 -50.55 13.85 L-50.3 13.75 Q-49.9 13.75 -49.65 14.2 L-49.6 14.35" fill="#a5a3d1" fill-rule="evenodd" stroke="none"/>
    <path d="M-26.6 9.0 Q-26.6 11.25 -28.2 12.8 -29.75 14.4 -32.0 14.4 -34.25 14.4 -35.8 12.8 -37.4 11.25 -37.4 9.0 -37.4 6.75 -35.8 5.2 -34.25 3.6 -32.0 3.6 -29.75 3.6 -28.2 5.2 -26.6 6.75 -26.6 9.0 M-32.0 19.6 Q-29.75 19.6 -28.2 21.2 -26.6 22.75 -26.6 25.0 -26.6 27.25 -28.2 28.8 -29.75 30.4 -32.0 30.4 -34.25 30.4 -35.8 28.8 -37.4 27.25 -37.4 25.0 -37.4 22.75 -35.8 21.2 -34.25 19.6 -32.0 19.6 M-43.2 12.2 Q-41.6 13.75 -41.6 16.0 -41.6 18.25 -43.2 19.8 -44.75 21.4 -47.0 21.4 -49.25 21.4 -50.8 19.8 -52.4 18.25 -52.4 16.0 -52.4 13.75 -50.8 12.2 -49.25 10.6 -47.0 10.6 -44.75 10.6 -43.2 12.2 Z" fill="none" stroke="#ffffff" stroke-linecap="round" stroke-linejoin="round" stroke-width="1.0"/>
  </g>
</svg>
