<?xml version="1.0" encoding="UTF-8" standalone="no"?>
<svg xmlns:ffdec="https://www.free-decompiler.com/flash" xmlns:xlink="http://www.w3.org/1999/xlink" ffdec:objectType="shape" height="18.35px" width="18.4px" xmlns="http://www.w3.org/2000/svg">
  <g transform="matrix(1.0, 0.0, 0.0, 1.0, -11.0, -6.45)">
    <path d="M22.0 10.45 L22.05 10.45 21.65 11.05 21.6 11.05 21.6 11.1 Q21.45 11.45 21.45 11.9 21.45 12.75 22.0 13.35 L22.05 13.35 Q22.6 13.95 23.45 13.95 24.15 13.95 24.7 13.6 L24.85 13.35 24.95 13.35 Q25.55 12.75 25.55 11.9 25.55 11.05 24.9 10.45 24.35 9.85 23.45 9.85 22.6 9.85 22.0 10.45 M21.5 9.95 L21.5 9.9 Q22.3 9.1 23.45 9.1 24.65 9.1 25.45 9.9 26.3 10.75 26.3 11.9 26.3 13.05 25.45 13.8 L25.45 13.85 25.3 14.0 25.55 15.65 Q25.55 17.75 24.0 19.3 L24.05 19.3 Q22.5 20.85 20.35 20.85 18.2 20.85 16.65 19.3 15.1 17.75 15.1 15.65 15.1 13.5 16.65 11.95 18.2 10.45 20.35 10.45 L21.05 10.45 Q21.2 10.15 21.5 9.95 M20.7 11.9 L20.75 11.2 20.35 11.2 Q18.5 11.2 17.2 12.45 15.85 13.8 15.85 15.65 15.85 17.45 17.2 18.75 18.5 20.1 20.35 20.1 22.2 20.1 23.45 18.75 24.8 17.45 24.8 15.65 L24.7 14.45 23.45 14.7 Q22.3 14.7 21.5 13.85 20.7 13.05 20.7 11.9 M22.7 6.75 Q24.95 7.35 26.65 9.1 29.4 11.8 29.4 15.65 29.4 19.45 26.65 22.1 24.0 24.8 20.2 24.8 16.4 24.8 13.7 22.1 11.0 19.45 11.0 15.65 11.0 11.8 13.7 9.1 16.3 6.45 20.05 6.45 L20.2 6.45 22.7 6.75 M26.15 9.65 Q24.3 7.8 21.9 7.35 L20.2 7.2 20.05 7.2 Q16.65 7.25 14.2 9.65 11.75 12.1 11.75 15.65 11.75 19.15 14.2 21.6 16.7 24.05 20.2 24.05 23.7 24.05 26.15 21.6 28.65 19.15 28.65 15.65 28.65 12.1 26.15 9.65" fill="#ffffff" fill-rule="evenodd" stroke="none"/>
    <path d="M22.0 10.45 Q22.6 9.85 23.45 9.85 24.35 9.85 24.9 10.45 25.55 11.05 25.55 11.9 25.55 12.75 24.95 13.35 L24.85 13.35 24.7 13.6 Q24.15 13.95 23.45 13.95 22.6 13.95 22.05 13.35 L22.0 13.35 Q21.45 12.75 21.45 11.9 21.45 11.45 21.6 11.1 L21.6 11.05 21.65 11.05 22.05 10.45 22.0 10.45 M20.7 11.9 Q20.7 13.05 21.5 13.85 22.3 14.7 23.45 14.7 L24.7 14.45 24.8 15.65 Q24.8 17.45 23.45 18.75 22.2 20.1 20.35 20.1 18.5 20.1 17.2 18.75 15.85 17.45 15.85 15.65 15.85 13.8 17.2 12.45 18.5 11.2 20.35 11.2 L20.75 11.2 20.7 11.9" fill="#ffffff" fill-opacity="0.4" fill-rule="evenodd" stroke="none"/>
  </g>
</svg>
