<?xml version="1.0" encoding="UTF-8" standalone="no"?>
<svg xmlns:ffdec="https://www.free-decompiler.com/flash" xmlns:xlink="http://www.w3.org/1999/xlink" ffdec:objectType="shape" height="41.0px" width="41.0px" xmlns="http://www.w3.org/2000/svg">
  <g transform="matrix(1.0, 0.0, 0.0, 1.0, 58.8, 5.8)">
    <path d="M-18.8 -4.8 L-18.8 34.2 -57.8 34.2 -57.8 -4.8 -18.8 -4.8 Z" fill="none" stroke="#ffffff" stroke-linecap="round" stroke-linejoin="round" stroke-width="2.0"/>
    <path d="M-47.2 6.55 L-47.2 6.25 -46.9 6.25 -46.1 6.25 -42.35 5.75 Q-40.7 5.2 -38.9 4.2 L-41.75 8.35 -39.5 9.95 -40.65 11.6 -37.5 12.85 -39.5 15.2 -36.25 16.1 -39.9 18.45 -37.9 19.6 -40.0 20.85 -38.5 22.6 -39.15 23.45 -38.4 24.45 -38.55 25.15 -38.75 25.3 -38.95 25.15 Q-43.35 21.7 -45.2 17.55 -47.05 13.4 -47.2 6.55 M-39.6 8.05 L-36.25 4.35 -36.05 4.25 -35.95 4.35 Q-34.3 5.6 -32.75 6.35 -31.1 7.05 -29.05 7.35 L-28.25 7.45 -27.95 7.5 -28.0 7.8 Q-29.0 14.5 -31.35 18.45 -33.7 22.35 -38.55 25.15 L-38.3 24.5 -38.95 23.4 -38.15 22.65 -39.45 20.7 -37.2 19.7 -39.05 18.35 -35.15 16.45 -38.25 15.15 -35.95 13.1 -38.95 11.45 -37.55 9.95 -39.6 8.05" fill="#ffffff" fill-rule="evenodd" stroke="none"/>
  </g>
</svg>
