<?xml version="1.0" encoding="UTF-8" standalone="no"?>
<svg xmlns:ffdec="https://www.free-decompiler.com/flash" xmlns:xlink="http://www.w3.org/1999/xlink" ffdec:objectType="shape" height="41.0px" width="41.0px" xmlns="http://www.w3.org/2000/svg">
  <g transform="matrix(1.0, 0.0, 0.0, 1.0, 58.75, 5.8)">
    <path d="M-18.75 -4.8 L-18.75 34.2 -57.75 34.2 -57.75 -4.8 -18.75 -4.8 Z" fill="none" stroke="#ffffff" stroke-linecap="round" stroke-linejoin="round" stroke-width="2.0"/>
    <path d="M-40.75 11.1 L-40.25 11.25 -39.75 11.0 Q-39.1 10.75 -39.1 10.05 L-39.25 9.85 Q-39.35 9.45 -39.6 9.25 L-39.5 8.15 -39.6 7.25 -39.5 8.15 -39.6 9.25 Q-39.9 10.25 -40.7 11.05 L-40.75 11.1 Q-41.55 11.9 -42.55 12.15 -41.55 11.9 -40.75 11.1 M-44.3 12.2 Q-45.05 12.9 -45.15 13.95 -44.6 15.05 -43.4 14.65 L-43.05 14.4 Q-42.25 13.55 -42.45 12.5 L-42.5 12.25 -42.55 12.15 -43.6 12.25 -44.3 12.2 -45.75 11.7 -44.3 12.2 M-45.75 18.0 Q-46.4 16.55 -46.4 14.85 -46.4 13.1 -45.75 11.7 L-46.55 11.05 Q-47.75 9.85 -47.75 8.15 -47.75 6.4 -46.55 5.2 -45.35 4.0 -43.6 4.0 -41.9 4.0 -40.7 5.2 -39.85 6.05 -39.6 7.25 L-38.75 7.2 Q-35.8 7.2 -33.65 9.15 L-33.35 9.45 -32.2 10.9 Q-33.1 11.2 -33.8 11.9 -34.9 13.0 -34.95 14.5 -34.85 13.3 -34.0 12.5 -33.45 11.9 -32.7 11.65 L-31.6 11.5 Q-30.2 11.5 -29.2 12.5 -28.65 13.05 -28.4 13.85 -28.25 14.35 -28.25 14.9 L-28.4 15.95 Q-28.65 16.7 -29.2 17.25 -30.2 18.25 -31.6 18.25 L-32.65 18.1 -32.7 18.1 Q-33.45 17.85 -34.0 17.25 L-34.3 16.95 -34.95 15.4 -35.0 15.15 -34.95 15.45 -35.25 15.45 -35.25 15.55 -35.6 15.6 -35.7 15.65 -35.9 15.75 -36.3 16.15 -36.65 16.6 -36.65 17.0 -36.65 17.5 -36.55 17.65 -36.05 18.1 -35.7 18.15 Q-34.6 18.1 -34.15 17.35 L-33.8 17.75 Q-33.1 18.45 -32.2 18.75 L-32.15 18.75 -32.2 18.8 -33.35 20.25 -35.7 21.85 Q-37.1 22.45 -38.75 22.45 L-39.55 22.4 -39.5 21.55 Q-39.5 19.8 -40.7 18.6 -41.9 17.4 -43.6 17.4 -44.8 17.4 -45.75 18.0 -44.8 17.4 -43.6 17.4 -41.9 17.4 -40.7 18.6 -39.5 19.8 -39.5 21.55 L-39.55 22.4 Q-39.8 23.55 -40.7 24.45 -41.9 25.65 -43.6 25.65 -45.35 25.65 -46.55 24.45 -47.75 23.25 -47.75 21.55 -47.75 19.8 -46.55 18.6 L-45.75 18.0 M-34.95 14.5 L-35.0 14.85 -35.0 15.15 -35.0 14.85 -34.95 14.5 M-33.25 13.75 Q-33.4 13.5 -33.7 13.45 L-33.85 13.55 Q-34.35 13.9 -34.45 14.5 -34.15 15.0 -33.7 14.8 L-33.5 14.7 Q-33.15 14.35 -33.25 13.85 L-33.25 13.75 M-32.25 12.3 L-32.35 12.35 -32.4 12.35 -32.7 12.55 -32.75 12.65 -32.7 13.05 -32.25 13.3 -32.05 13.2 Q-31.75 13.05 -31.75 12.75 L-31.8 12.7 Q-31.9 12.3 -32.25 12.3 M-31.0 16.45 L-31.45 16.1 -31.65 16.15 Q-31.9 16.2 -31.95 16.4 -32.1 17.0 -31.45 17.05 L-31.25 17.0 -31.0 16.55 -31.0 16.45 M-30.65 15.7 L-30.65 15.85 -30.65 16.05 -30.6 16.15 -30.4 16.35 Q-29.5 16.4 -29.45 15.55 L-29.5 15.45 Q-29.65 15.15 -30.05 15.2 L-30.2 15.25 -30.3 15.25 -30.55 15.45 -30.65 15.7 M-38.85 17.65 Q-39.35 17.75 -39.55 18.3 -39.8 19.55 -38.5 19.75 L-38.0 19.55 Q-37.45 19.25 -37.35 18.6 L-37.45 18.35 Q-37.65 17.6 -38.5 17.55 L-38.85 17.65 M-44.15 6.05 Q-43.8 5.9 -43.8 5.55 L-43.85 5.45 Q-43.95 5.0 -44.4 5.0 L-44.6 5.05 -45.0 5.4 Q-45.15 6.05 -44.4 6.2 L-44.15 6.05 M-45.65 6.75 L-46.15 6.4 -46.35 6.5 Q-47.0 6.9 -47.1 7.65 -46.75 8.25 -46.15 8.05 L-45.95 7.9 Q-45.5 7.45 -45.6 6.85 L-45.65 6.75 M-43.65 9.65 L-44.05 10.0 Q-44.2 10.7 -43.45 10.8 L-43.2 10.7 Q-42.9 10.5 -42.85 10.15 L-42.9 10.05 Q-43.0 9.65 -43.45 9.6 L-43.65 9.65 M-41.0 8.95 L-41.05 8.8 Q-41.25 8.45 -41.7 8.5 L-41.9 8.55 -42.05 8.6 -42.3 8.85 -42.45 9.1 -42.45 9.3 -42.45 9.55 -42.4 9.65 -42.15 9.9 Q-41.5 9.95 -41.2 9.65 L-41.1 9.5 -41.0 8.95 M-44.4 18.4 L-44.6 18.45 -45.0 18.8 Q-45.15 19.45 -44.4 19.6 L-44.15 19.45 Q-43.8 19.3 -43.8 18.95 L-43.85 18.85 Q-43.95 18.4 -44.4 18.4 M-45.6 20.25 L-45.65 20.15 -46.15 19.8 -46.35 19.9 Q-47.0 20.3 -47.1 21.05 -46.75 21.65 -46.15 21.45 L-45.95 21.3 Q-45.5 20.85 -45.6 20.25 M-41.0 22.35 L-41.05 22.2 -41.1 22.1 -41.7 21.9 -41.9 21.95 -42.05 22.0 -42.3 22.25 -42.45 22.5 -42.45 22.7 -42.45 22.95 -42.4 23.05 -42.15 23.3 Q-41.05 23.4 -41.0 22.35 M-43.45 23.0 L-43.65 23.05 -44.05 23.4 Q-44.2 24.1 -43.45 24.2 L-43.2 24.1 Q-42.9 23.9 -42.85 23.55 L-42.9 23.45 Q-43.0 23.05 -43.45 23.0" fill="#d92626" fill-rule="evenodd" stroke="none"/>
    <path d="M-39.6 9.25 Q-39.35 9.45 -39.25 9.85 L-39.1 10.05 Q-39.1 10.75 -39.75 11.0 L-40.25 11.25 -40.75 11.1 -40.7 11.05 Q-39.9 10.25 -39.6 9.25 M-42.55 12.15 L-42.5 12.25 -42.45 12.5 Q-42.25 13.55 -43.05 14.4 L-43.4 14.65 Q-44.6 15.05 -45.15 13.95 -45.05 12.9 -44.3 12.2 L-43.6 12.25 -42.55 12.15 M-32.25 12.3 Q-31.9 12.3 -31.8 12.7 L-31.75 12.75 Q-31.75 13.05 -32.05 13.2 L-32.25 13.3 -32.7 13.05 -32.75 12.65 -32.7 12.55 -32.4 12.35 -32.35 12.35 -32.25 12.3 M-33.25 13.75 L-33.25 13.85 Q-33.15 14.35 -33.5 14.7 L-33.7 14.8 Q-34.15 15.0 -34.45 14.5 -34.35 13.9 -33.85 13.55 L-33.7 13.45 Q-33.4 13.5 -33.25 13.75 M-44.15 6.05 L-44.4 6.2 Q-45.15 6.05 -45.0 5.4 L-44.6 5.05 -44.4 5.0 Q-43.95 5.0 -43.85 5.45 L-43.8 5.55 Q-43.8 5.9 -44.15 6.05 M-45.65 6.75 L-45.6 6.85 Q-45.5 7.45 -45.95 7.9 L-46.15 8.05 Q-46.75 8.25 -47.1 7.65 -47.0 6.9 -46.35 6.5 L-46.15 6.4 -45.65 6.75 M-44.4 18.4 Q-43.95 18.4 -43.85 18.85 L-43.8 18.95 Q-43.8 19.3 -44.15 19.45 L-44.4 19.6 Q-45.15 19.45 -45.0 18.8 L-44.6 18.45 -44.4 18.4 M-45.6 20.25 Q-45.5 20.85 -45.95 21.3 L-46.15 21.45 Q-46.75 21.65 -47.1 21.05 -47.0 20.3 -46.35 19.9 L-46.15 19.8 -45.65 20.15 -45.6 20.25" fill="#fe8989" fill-rule="evenodd" stroke="none"/>
    <path d="M-34.15 17.35 Q-34.6 18.1 -35.7 18.15 L-36.05 18.1 -36.55 17.65 -36.65 17.5 -36.65 17.0 -36.65 16.6 -36.3 16.15 -35.9 15.75 -35.7 15.65 -35.6 15.6 -35.25 15.55 -35.25 15.45 -34.95 15.45 Q-34.8 16.5 -34.15 17.35 M-30.65 15.7 L-30.55 15.45 -30.3 15.25 -30.2 15.25 -30.05 15.2 Q-29.65 15.15 -29.5 15.45 L-29.45 15.55 Q-29.5 16.4 -30.4 16.35 L-30.6 16.15 -30.65 16.05 -30.65 15.85 -30.65 15.7 M-31.0 16.45 L-31.0 16.55 -31.25 17.0 -31.45 17.05 Q-32.1 17.0 -31.95 16.4 -31.9 16.2 -31.65 16.15 L-31.45 16.1 -31.0 16.45 M-38.85 17.65 L-38.5 17.55 Q-37.65 17.6 -37.45 18.35 L-37.35 18.6 Q-37.45 19.25 -38.0 19.55 L-38.5 19.75 Q-39.8 19.55 -39.55 18.3 -39.35 17.75 -38.85 17.65 M-41.0 8.95 L-41.1 9.5 -41.2 9.65 Q-41.5 9.95 -42.15 9.9 L-42.4 9.65 -42.45 9.55 -42.45 9.3 -42.45 9.1 -42.3 8.85 -42.05 8.6 -41.9 8.55 -41.7 8.5 Q-41.25 8.45 -41.05 8.8 L-41.0 8.95 M-43.65 9.65 L-43.45 9.6 Q-43.0 9.65 -42.9 10.05 L-42.85 10.15 Q-42.9 10.5 -43.2 10.7 L-43.45 10.8 Q-44.2 10.7 -44.05 10.0 L-43.65 9.65 M-43.45 23.0 Q-43.0 23.05 -42.9 23.45 L-42.85 23.55 Q-42.9 23.9 -43.2 24.1 L-43.45 24.2 Q-44.2 24.1 -44.05 23.4 L-43.65 23.05 -43.45 23.0 M-41.0 22.35 Q-41.05 23.4 -42.15 23.3 L-42.4 23.05 -42.45 22.95 -42.45 22.7 -42.45 22.5 -42.3 22.25 -42.05 22.0 -41.9 21.95 -41.7 21.9 -41.1 22.1 -41.05 22.2 -41.0 22.35" fill="#df4a4a" fill-rule="evenodd" stroke="none"/>
    <path d="M-40.75 11.1 Q-41.55 11.9 -42.55 12.15 L-43.6 12.25 -44.3 12.2 -45.75 11.7 -46.55 11.05 Q-47.75 9.85 -47.75 8.15 -47.75 6.4 -46.55 5.2 -45.35 4.0 -43.6 4.0 -41.9 4.0 -40.7 5.2 -39.85 6.05 -39.6 7.25 L-39.5 8.15 -39.6 9.25 Q-39.9 10.25 -40.7 11.05 L-40.75 11.1 M-45.75 18.0 Q-44.8 17.4 -43.6 17.4 -41.9 17.4 -40.7 18.6 -39.5 19.8 -39.5 21.55 L-39.55 22.4 Q-39.8 23.55 -40.7 24.45 -41.9 25.65 -43.6 25.65 -45.35 25.65 -46.55 24.45 -47.75 23.25 -47.75 21.55 -47.75 19.8 -46.55 18.6 L-45.75 18.0 M-35.0 15.15 L-35.0 14.85 -34.95 14.5 Q-34.85 13.3 -34.0 12.5 -33.45 11.9 -32.7 11.65 L-31.6 11.5 Q-30.2 11.5 -29.2 12.5 -28.65 13.05 -28.4 13.85 -28.25 14.35 -28.25 14.9 L-28.4 15.95 Q-28.65 16.7 -29.2 17.25 -30.2 18.25 -31.6 18.25 L-32.65 18.1 -32.7 18.1 Q-33.45 17.85 -34.0 17.25 L-34.3 16.95 -34.95 15.4 -35.0 15.15" fill="none" stroke="#ffffff" stroke-linecap="round" stroke-linejoin="round" stroke-width="1.0"/>
    <path d="M-45.75 11.7 Q-46.4 13.1 -46.4 14.85 -46.4 16.55 -45.75 18.0 M-39.55 22.4 L-38.75 22.45 Q-37.1 22.45 -35.7 21.85 L-33.35 20.25 -32.2 18.8 M-32.2 10.9 L-33.35 9.45 -33.65 9.15 Q-35.8 7.2 -38.75 7.2 L-39.6 7.25" fill="none" stroke="#ffffff" stroke-linecap="round" stroke-linejoin="round" stroke-width="1.25"/>
  </g>
</svg>
