<?xml version="1.0" encoding="UTF-8" standalone="no"?>
<svg xmlns:ffdec="https://www.free-decompiler.com/flash" xmlns:xlink="http://www.w3.org/1999/xlink" ffdec:objectType="shape" height="41.0px" width="41.0px" xmlns="http://www.w3.org/2000/svg">
  <g transform="matrix(1.0, 0.0, 0.0, 1.0, 58.75, 5.8)">
    <path d="M-18.75 -4.8 L-18.75 34.2 -57.75 34.2 -57.75 -4.8 -18.75 -4.8 Z" fill="none" stroke="#ffffff" stroke-linecap="round" stroke-linejoin="round" stroke-width="2.0"/>
    <path d="M-33.8 11.75 L-32.55 11.55 Q-31.0 11.55 -29.85 12.65 -29.25 13.25 -28.95 14.0 L-28.75 15.35 -29.0 16.75 Q-29.25 17.45 -29.85 18.05 -31.0 19.15 -32.55 19.15 L-33.8 18.95 Q-34.45 20.25 -35.55 21.35 -38.0 23.85 -41.55 23.85 -45.1 23.85 -47.55 21.35 -50.05 18.9 -50.05 15.35 -50.05 11.8 -47.55 9.35 -45.1 6.85 -41.55 6.85 -38.0 6.85 -35.55 9.35 -34.45 10.45 -33.8 11.75 L-35.25 12.65 Q-36.35 13.75 -36.35 15.35 -36.35 16.9 -35.25 18.05 L-33.8 18.95 -35.25 18.05 Q-36.35 16.9 -36.35 15.35 -36.35 13.75 -35.25 12.65 L-33.8 11.75 M-34.9 13.75 L-35.05 13.85 Q-35.7 14.2 -35.75 14.9 -35.45 15.45 -34.85 15.25 L-34.7 15.15 Q-34.3 14.7 -34.4 14.2 L-34.4 14.05 Q-34.55 13.8 -34.9 13.75 M-32.75 13.0 L-32.8 12.85 Q-32.9 12.5 -33.3 12.45 L-33.45 12.5 -33.5 12.55 -33.8 12.85 Q-33.95 13.45 -33.3 13.55 L-33.2 13.55 -33.05 13.45 Q-32.75 13.3 -32.75 13.0 M-37.65 16.15 L-38.0 16.2 -38.35 16.35 -38.8 16.85 -39.2 17.3 -39.2 17.75 -39.2 18.3 -39.05 18.5 -38.55 19.0 Q-36.25 19.2 -36.2 17.0 L-36.25 16.7 Q-36.7 16.0 -37.55 16.05 L-37.65 16.05 -37.65 16.15 M-32.4 16.7 L-32.6 16.75 -32.95 17.05 Q-33.1 17.7 -32.4 17.8 L-32.2 17.7 -31.85 17.2 -31.9 17.1 Q-32.0 16.7 -32.4 16.7 M-30.8 15.7 L-31.0 15.7 -31.15 15.8 -31.35 16.0 -31.5 16.2 -31.5 16.4 -31.5 16.65 -31.45 16.75 -31.2 17.0 Q-30.2 17.05 -30.15 16.05 L-30.2 15.95 Q-30.4 15.65 -30.8 15.65 L-30.8 15.7 M-40.0 19.55 L-40.1 19.25 Q-40.3 18.4 -41.2 18.35 L-41.6 18.5 Q-42.2 18.6 -42.4 19.2 -42.75 20.6 -41.2 20.85 L-40.7 20.6 Q-40.05 20.25 -40.0 19.55 M-44.35 9.75 Q-44.7 11.1 -43.2 11.35 L-42.65 11.1 Q-41.95 10.75 -41.95 10.05 L-42.05 9.8 Q-42.25 8.95 -43.2 8.9 L-43.6 9.0 Q-44.15 9.15 -44.35 9.75 M-46.8 11.8 L-47.15 11.95 Q-48.55 12.8 -48.7 14.35 -48.0 15.55 -46.7 15.15 L-46.3 14.9 Q-45.4 13.9 -45.65 12.75 L-45.75 12.45 Q-46.05 11.9 -46.8 11.8" fill="#d2a800" fill-rule="evenodd" stroke="none"/>
    <path d="M-32.75 13.0 Q-32.75 13.3 -33.05 13.45 L-33.2 13.55 -33.3 13.55 Q-33.95 13.45 -33.8 12.85 L-33.5 12.55 -33.45 12.5 -33.3 12.45 Q-32.9 12.5 -32.8 12.85 L-32.75 13.0 M-34.9 13.75 Q-34.55 13.8 -34.4 14.05 L-34.4 14.2 Q-34.3 14.7 -34.7 15.15 L-34.85 15.25 Q-35.45 15.45 -35.75 14.9 -35.7 14.2 -35.05 13.85 L-34.9 13.75 M-46.8 11.8 Q-46.05 11.9 -45.75 12.45 L-45.65 12.75 Q-45.4 13.9 -46.3 14.9 L-46.7 15.15 Q-48.0 15.55 -48.7 14.35 -48.55 12.8 -47.15 11.95 L-46.8 11.8 M-44.35 9.75 Q-44.15 9.15 -43.6 9.0 L-43.2 8.9 Q-42.25 8.95 -42.05 9.8 L-41.95 10.05 Q-41.95 10.75 -42.65 11.1 L-43.2 11.35 Q-44.7 11.1 -44.35 9.75" fill="#ffeda6" fill-rule="evenodd" stroke="none"/>
    <path d="M-30.8 15.7 L-30.8 15.65 Q-30.4 15.65 -30.2 15.95 L-30.15 16.05 Q-30.2 17.05 -31.2 17.0 L-31.45 16.75 -31.5 16.65 -31.5 16.4 -31.5 16.2 -31.35 16.0 -31.15 15.8 -31.0 15.7 -30.8 15.7 M-32.4 16.7 Q-32.0 16.7 -31.9 17.1 L-31.85 17.2 -32.2 17.7 -32.4 17.8 Q-33.1 17.7 -32.95 17.05 L-32.6 16.75 -32.4 16.7 M-37.55 16.05 Q-36.7 16.0 -36.25 16.7 L-36.2 17.0 Q-36.25 19.2 -38.55 19.0 L-39.05 18.5 -39.2 18.3 -39.2 17.75 -39.2 17.3 -38.8 16.85 -38.35 16.35 -38.0 16.2 -37.65 16.15 -37.55 16.05 M-40.0 19.55 Q-40.05 20.25 -40.7 20.6 L-41.2 20.85 Q-42.75 20.6 -42.4 19.2 -42.2 18.6 -41.6 18.5 L-41.2 18.35 Q-40.3 18.4 -40.1 19.25 L-40.0 19.55" fill="#fbc900" fill-rule="evenodd" stroke="none"/>
    <path d="M-37.65 16.15 L-37.65 16.05 -37.55 16.05 -37.65 16.15" fill="#4f79d2" fill-rule="evenodd" stroke="none"/>
    <path d="M-33.8 11.75 L-32.55 11.55 Q-31.0 11.55 -29.85 12.65 -29.25 13.25 -28.95 14.0 L-28.75 15.35 -29.0 16.75 Q-29.25 17.45 -29.85 18.05 -31.0 19.15 -32.55 19.15 L-33.8 18.95 Q-34.45 20.25 -35.55 21.35 -38.0 23.85 -41.55 23.85 -45.1 23.85 -47.55 21.35 -50.05 18.9 -50.05 15.35 -50.05 11.8 -47.55 9.35 -45.1 6.85 -41.55 6.85 -38.0 6.85 -35.55 9.35 -34.45 10.45 -33.8 11.75 L-35.25 12.65 Q-36.35 13.75 -36.35 15.35 -36.35 16.9 -35.25 18.05 L-33.8 18.95" fill="none" stroke="#ffffff" stroke-linecap="round" stroke-linejoin="round" stroke-width="1.0"/>
  </g>
</svg>
