<?xml version="1.0" encoding="UTF-8" standalone="no"?>
<svg xmlns:ffdec="https://www.free-decompiler.com/flash" xmlns:xlink="http://www.w3.org/1999/xlink" ffdec:objectType="shape" height="27.1px" width="27.1px" xmlns="http://www.w3.org/2000/svg">
  <g transform="matrix(1.0, 0.0, 0.0, 1.0, 13.55, 13.55)">
    <path d="M2.05 -2.1 Q2.95 -1.2 2.95 0.0 2.95 1.2 2.05 2.05 1.2 2.95 0.0 2.95 -1.2 2.95 -2.1 2.05 -2.95 1.2 -2.95 0.0 -2.95 -1.2 -2.1 -2.1 -1.2 -2.95 0.0 -2.95 1.2 -2.95 2.05 -2.1" fill="#ffffff" fill-rule="evenodd" stroke="none"/>
    <path d="M5.55 -5.55 Q3.25 -7.85 0.0 -7.85 -3.25 -7.85 -5.55 -5.55 -7.85 -3.25 -7.85 0.0 -7.85 3.25 -5.55 5.55 -3.25 7.85 0.0 7.85 3.25 7.85 5.55 5.55 7.85 3.25 7.85 0.0 7.85 -3.25 5.55 -5.55 M9.55 -9.6 Q13.55 -5.6 13.55 0.0 13.55 5.6 9.55 9.55 5.6 13.55 0.0 13.55 -5.6 13.55 -9.6 9.55 -12.9 6.25 -13.45 1.75 L-13.55 0.0 -13.45 -1.75 Q-12.9 -6.25 -9.6 -9.6 -5.6 -13.55 0.0 -13.55 5.6 -13.55 9.55 -9.6" fill="#ffffff" fill-opacity="0.6" fill-rule="evenodd" stroke="none"/>
    <path d="M2.05 -2.1 Q1.2 -2.95 0.0 -2.95 -1.2 -2.95 -2.1 -2.1 -2.95 -1.2 -2.95 0.0 -2.95 1.2 -2.1 2.05 -1.2 2.95 0.0 2.95 1.2 2.95 2.05 2.05 2.95 1.2 2.95 0.0 2.95 -1.2 2.05 -2.1 M5.55 -5.55 Q7.85 -3.25 7.85 0.0 7.85 3.25 5.55 5.55 3.25 7.85 0.0 7.85 -3.25 7.85 -5.55 5.55 -7.85 3.25 -7.85 0.0 -7.85 -3.25 -5.55 -5.55 -3.25 -7.85 0.0 -7.85 3.25 -7.85 5.55 -5.55" fill="#ffffff" fill-opacity="0.101960786" fill-rule="evenodd" stroke="none"/>
  </g>
</svg>
