<?xml version="1.0" encoding="UTF-8" standalone="no"?>
<svg xmlns:ffdec="https://www.free-decompiler.com/flash" xmlns:xlink="http://www.w3.org/1999/xlink" ffdec:objectType="shape" height="18.5px" width="103.1px" xmlns="http://www.w3.org/2000/svg">
  <g transform="matrix(1.0, 0.0, 0.0, 1.0, 51.2, 7.35)">
    <path d="M6.95 -7.35 L12.8 6.95 10.65 6.95 9.0 2.6 3.0 2.6 1.45 6.95 -0.6 6.95 4.9 -7.35 6.95 -7.35 M5.1 -3.15 L3.55 1.05 8.4 1.05 6.9 -2.9 5.9 -5.85 5.1 -3.15 M16.8 -1.5 L16.15 -0.55 Q15.85 0.4 15.85 1.5 L15.85 6.95 14.1 6.95 14.1 -3.4 15.7 -3.4 15.7 -1.85 Q16.3 -2.95 16.8 -3.3 17.3 -3.65 17.95 -3.65 L19.75 -3.1 19.15 -1.45 17.85 -1.85 Q17.25 -1.85 16.8 -1.5 M25.05 -2.2 Q23.85 -2.2 23.0 -1.4 22.2 -0.6 22.1 0.75 L27.9 0.75 Q27.75 -0.55 27.2 -1.2 26.4 -2.2 25.05 -2.2 M25.05 -3.65 Q27.1 -3.65 28.4 -2.25 29.75 -0.8 29.75 1.75 L29.75 2.2 22.0 2.2 Q22.1 3.9 22.95 4.85 23.85 5.75 25.15 5.75 26.1 5.75 26.8 5.25 27.45 4.7 27.85 3.6 L29.7 3.85 Q29.25 5.45 28.1 6.3 26.95 7.2 25.1 7.2 22.85 7.2 21.5 5.8 20.2 4.4 20.2 1.85 20.2 -0.75 21.55 -2.2 22.9 -3.65 25.05 -3.65 M33.45 -1.95 Q34.6 -3.65 36.75 -3.65 L38.5 -3.3 39.65 -2.45 40.2 -1.15 40.3 0.55 40.3 6.95 38.55 6.95 38.55 0.65 38.35 -0.95 37.6 -1.8 36.4 -2.15 Q35.25 -2.15 34.45 -1.4 33.65 -0.7 33.65 1.3 L33.65 6.95 31.85 6.95 31.85 -3.4 33.45 -3.4 33.45 -1.95 M45.0 -3.3 L47.35 -3.65 49.5 -3.35 Q50.35 -3.05 50.75 -2.55 L51.3 -1.35 51.35 0.25 51.35 2.6 Q51.35 5.05 51.5 5.7 L51.9 6.95 50.1 6.95 Q49.8 6.4 49.75 5.65 48.75 6.5 47.85 6.85 L45.9 7.2 Q44.2 7.2 43.3 6.35 42.35 5.5 42.35 4.2 42.35 3.45 42.7 2.85 43.05 2.2 43.65 1.8 44.2 1.45 44.9 1.25 L46.45 0.95 49.6 0.35 49.6 -0.1 Q49.6 -1.15 49.1 -1.6 48.45 -2.2 47.1 -2.2 L45.25 -1.75 Q44.7 -1.35 44.4 -0.25 L42.7 -0.45 Q42.9 -1.55 43.45 -2.25 L45.0 -3.3 M49.6 1.75 L46.7 2.4 45.2 2.75 Q44.75 2.95 44.5 3.35 44.25 3.7 44.25 4.15 44.25 4.85 44.8 5.35 45.3 5.8 46.35 5.8 L48.15 5.35 49.3 4.15 49.6 2.4 49.6 1.75 M-41.9 -7.0 Q-40.9 -6.6 -40.35 -5.6 -39.75 -4.65 -39.75 -3.45 -39.75 -1.95 -40.7 -0.9 -41.7 0.15 -43.75 0.45 -43.0 0.8 -42.6 1.15 L-41.05 3.05 -38.55 6.95 -40.95 6.95 -42.85 3.95 -44.2 2.0 -45.15 1.05 -46.05 0.65 -47.1 0.6 -49.3 0.6 -49.3 6.95 -51.2 6.95 -51.2 -7.35 -44.85 -7.35 -41.9 -7.0 M-49.3 -1.05 L-45.2 -1.05 -43.2 -1.3 Q-42.45 -1.6 -42.05 -2.15 -41.7 -2.75 -41.7 -3.45 -41.7 -4.5 -42.4 -5.15 -43.15 -5.8 -44.75 -5.8 L-49.3 -5.8 -49.3 -1.05 M-32.7 -3.65 Q-30.65 -3.65 -29.35 -2.25 -28.0 -0.8 -28.0 1.75 L-28.0 2.2 -35.75 2.2 Q-35.65 3.9 -34.8 4.85 -33.9 5.75 -32.6 5.75 -31.65 5.75 -30.95 5.25 -30.3 4.7 -29.9 3.6 L-28.05 3.85 Q-28.5 5.45 -29.65 6.3 -30.8 7.2 -32.65 7.2 -34.9 7.2 -36.25 5.8 -37.55 4.4 -37.55 1.85 -37.55 -0.75 -36.2 -2.2 -34.85 -3.65 -32.7 -3.65 M-34.75 -1.4 Q-35.55 -0.6 -35.65 0.75 L-29.85 0.75 Q-30.0 -0.55 -30.55 -1.2 -31.35 -2.2 -32.7 -2.2 -33.9 -2.2 -34.75 -1.4 M-25.55 -3.4 L-25.55 -6.0 -23.8 -7.05 -23.8 -3.4 -22.05 -3.4 -22.05 -2.05 -23.8 -2.05 -23.8 4.0 -23.7 5.0 -23.4 5.3 -22.8 5.45 -22.05 5.4 -21.8 6.95 -23.1 7.1 -24.6 6.8 -25.35 6.0 -25.55 3.9 -25.55 -2.05 -26.85 -2.05 -26.85 -3.4 -25.55 -3.4 M-18.75 -1.85 L-17.65 -3.3 Q-17.15 -3.65 -16.5 -3.65 -15.65 -3.65 -14.7 -3.1 L-15.3 -1.45 Q-15.95 -1.85 -16.6 -1.85 L-17.65 -1.5 -18.3 -0.55 -18.6 1.5 -18.6 6.95 -20.35 6.95 -20.35 -3.4 -18.75 -3.4 -18.75 -1.85 M-12.8 -3.4 L-10.6 2.6 -9.85 5.0 -9.15 2.6 -6.95 -3.4 -5.2 -3.4 -9.1 7.15 -10.1 9.5 Q-10.6 10.35 -11.2 10.75 -11.8 11.15 -12.65 11.15 L-13.75 10.95 -13.95 9.3 -12.95 9.45 -12.0 9.25 -11.45 8.7 -10.9 7.4 -10.75 6.95 -14.7 -3.4 -12.8 -3.4" fill="#cccccc" fill-rule="evenodd" stroke="none"/>
  </g>
</svg>
