<?xml version="1.0" encoding="UTF-8" standalone="no"?>
<svg xmlns:ffdec="https://www.free-decompiler.com/flash" xmlns:xlink="http://www.w3.org/1999/xlink" ffdec:objectType="shape" height="18.75px" width="157.6px" xmlns="http://www.w3.org/2000/svg">
  <g transform="matrix(1.0, 0.0, 0.0, 1.0, 78.4, 7.65)">
    <path d="M2.45 -1.45 Q1.65 -0.65 1.55 0.7 L7.35 0.7 Q7.2 -0.6 6.65 -1.25 5.85 -2.25 4.5 -2.25 3.3 -2.25 2.45 -1.45 M7.85 -2.3 Q9.2 -0.85 9.2 1.7 L9.2 2.15 1.45 2.15 Q1.55 3.85 2.4 4.8 3.3 5.7 4.6 5.7 L6.25 5.2 7.3 3.55 9.15 3.8 Q8.7 5.4 7.55 6.25 6.4 7.15 4.55 7.15 2.3 7.15 0.95 5.75 -0.35 4.35 -0.35 1.8 -0.35 -0.8 1.0 -2.25 2.35 -3.7 4.5 -3.7 6.55 -3.7 7.85 -2.3 M20.0 -6.8 Q21.65 -7.65 23.8 -7.65 L26.6 -7.15 Q27.85 -6.65 28.55 -5.75 29.25 -4.85 29.65 -3.4 L27.95 -2.95 27.15 -4.65 25.75 -5.65 23.8 -6.05 Q22.5 -6.05 21.55 -5.65 L20.0 -4.6 19.1 -3.2 Q18.55 -1.85 18.55 -0.3 18.55 1.6 19.25 2.9 19.9 4.2 21.15 4.8 22.4 5.45 23.8 5.45 L26.2 4.95 Q27.4 4.5 28.0 3.95 L28.0 1.3 23.8 1.3 23.8 -0.4 29.85 -0.4 29.85 4.9 27.0 6.6 23.95 7.15 Q21.8 7.15 20.1 6.25 18.35 5.35 17.5 3.65 16.6 1.9 16.6 -0.2 16.6 -2.3 17.5 -4.1 18.35 -5.9 20.0 -6.8 M33.85 -0.3 L32.15 -0.5 Q32.35 -1.6 32.9 -2.3 L34.45 -3.35 36.8 -3.7 38.95 -3.4 Q39.8 -3.1 40.2 -2.6 L40.75 -1.4 40.8 0.2 40.8 2.55 Q40.8 5.0 40.95 5.65 L41.35 6.9 39.55 6.9 Q39.25 6.35 39.2 5.6 38.2 6.45 37.3 6.8 L35.35 7.15 Q33.65 7.15 32.75 6.3 31.8 5.45 31.8 4.15 31.8 3.4 32.15 2.8 32.5 2.15 33.1 1.75 33.65 1.4 34.35 1.2 L35.9 0.9 39.05 0.3 39.05 -0.15 Q39.05 -1.2 38.55 -1.65 37.9 -2.25 36.55 -2.25 35.3 -2.25 34.7 -1.8 34.15 -1.4 33.85 -0.3 M45.1 -3.45 L45.1 -2.0 Q45.6 -2.8 46.4 -3.25 L48.25 -3.7 50.15 -3.25 Q50.85 -2.75 51.15 -1.9 52.4 -3.7 54.35 -3.7 55.9 -3.7 56.75 -2.85 57.55 -2.0 57.55 -0.2 L57.55 6.9 55.8 6.9 55.8 0.35 55.65 -1.15 55.05 -1.9 54.0 -2.2 Q52.9 -2.2 52.15 -1.45 51.45 -0.75 51.45 0.85 L51.45 6.9 49.7 6.9 49.7 0.15 Q49.7 -1.0 49.25 -1.6 48.8 -2.2 47.85 -2.2 47.1 -2.2 46.5 -1.8 45.85 -1.4 45.55 -0.65 45.3 0.1 45.3 1.5 L45.3 6.9 43.5 6.9 43.5 -3.45 45.1 -3.45 M62.4 -1.45 Q61.6 -0.65 61.5 0.7 L67.3 0.7 Q67.15 -0.6 66.6 -1.25 65.8 -2.25 64.45 -2.25 63.25 -2.25 62.4 -1.45 M67.8 -2.3 Q69.15 -0.85 69.15 1.7 L69.15 2.15 61.4 2.15 Q61.5 3.85 62.35 4.8 63.25 5.7 64.55 5.7 65.5 5.7 66.2 5.2 L67.25 3.55 69.1 3.8 Q68.65 5.4 67.5 6.25 66.35 7.15 64.5 7.15 62.25 7.15 60.9 5.75 59.6 4.35 59.6 1.8 59.6 -0.8 60.95 -2.25 62.3 -3.7 64.45 -3.7 66.5 -3.7 67.8 -2.3 M72.75 -0.3 L73.45 0.15 75.0 0.6 77.6 1.45 Q78.35 1.75 78.75 2.35 79.2 2.95 79.2 3.85 79.2 4.75 78.65 5.5 L77.2 6.7 75.0 7.15 Q73.0 7.15 71.9 6.3 70.85 5.45 70.55 3.8 L72.3 3.55 Q72.45 4.6 73.1 5.15 73.8 5.7 75.0 5.7 76.2 5.7 76.8 5.2 77.35 4.7 77.35 4.05 77.35 3.45 76.85 3.1 76.5 2.85 75.05 2.5 L72.4 1.65 71.25 0.7 Q70.85 0.05 70.85 -0.7 70.85 -1.4 71.2 -2.0 L72.05 -3.0 73.15 -3.5 74.7 -3.7 76.85 -3.35 78.2 -2.4 78.8 -0.8 77.05 -0.55 Q76.95 -1.35 76.4 -1.8 75.85 -2.25 74.8 -2.25 73.6 -2.25 73.1 -1.85 72.55 -1.45 72.55 -0.9 L72.75 -0.3 M39.05 1.7 L36.15 2.35 34.65 2.7 33.95 3.3 Q33.7 3.65 33.7 4.1 33.7 4.8 34.25 5.3 34.75 5.75 35.8 5.75 L37.6 5.3 38.75 4.1 39.05 2.35 39.05 1.7 M-76.5 -0.6 L-72.8 -0.6 Q-71.0 -0.6 -70.2 -1.3 -69.45 -2.0 -69.45 -3.2 -69.45 -4.1 -69.9 -4.75 L-71.1 -5.6 -72.85 -5.75 -76.5 -5.75 -76.5 -0.6 M-73.0 -7.4 L-70.85 -7.3 -69.05 -6.6 -67.9 -5.25 Q-67.5 -4.35 -67.5 -3.3 -67.5 -1.45 -68.65 -0.2 -69.8 1.1 -72.85 1.1 L-76.5 1.1 -76.5 6.9 -78.4 6.9 -78.4 -7.4 -73.0 -7.4 M-63.55 -7.4 L-63.55 6.9 -65.3 6.9 -65.3 -7.4 -63.55 -7.4 M-58.55 -1.8 Q-59.1 -1.4 -59.4 -0.3 L-61.1 -0.5 Q-60.9 -1.6 -60.35 -2.3 L-58.8 -3.35 -56.45 -3.7 -54.3 -3.4 Q-53.45 -3.1 -53.05 -2.6 -52.7 -2.15 -52.5 -1.4 L-52.45 0.2 -52.45 2.55 -52.3 5.65 -51.9 6.9 -53.7 6.9 -54.05 5.6 -55.95 6.8 -57.9 7.15 Q-59.6 7.15 -60.5 6.3 -61.45 5.45 -61.45 4.15 -61.45 3.4 -61.1 2.8 L-60.15 1.75 Q-59.6 1.4 -58.9 1.2 L-57.35 0.9 -54.2 0.3 -54.2 -0.15 Q-54.2 -1.2 -54.7 -1.65 -55.35 -2.25 -56.7 -2.25 -57.95 -2.25 -58.55 -1.8 M-41.25 -3.45 L-45.15 7.1 -46.15 9.45 -47.25 10.7 Q-47.85 11.1 -48.7 11.1 L-49.8 10.9 -50.0 9.25 -49.0 9.4 -48.05 9.2 -47.5 8.65 -46.95 7.35 -46.8 6.9 -50.75 -3.45 -48.85 -3.45 -46.65 2.55 -45.9 4.95 -45.2 2.55 -43.0 -3.45 -41.25 -3.45 M-20.35 -7.4 L-20.35 6.9 -22.2 6.9 -22.2 -5.1 -26.35 6.9 -28.05 6.9 -32.2 -5.3 -32.2 6.9 -34.0 6.9 -34.0 -7.4 -31.15 -7.4 -27.8 2.7 -27.1 4.85 -26.35 2.55 -22.9 -7.4 -20.35 -7.4 M-13.3 -3.7 Q-11.2 -3.7 -9.85 -2.3 -8.45 -0.9 -8.45 1.55 -8.45 3.55 -9.05 4.7 -9.65 5.85 -10.8 6.5 -11.95 7.15 -13.3 7.15 -15.5 7.15 -16.85 5.75 -18.2 4.35 -18.2 1.7 -18.2 -1.15 -16.6 -2.55 -15.25 -3.7 -13.3 -3.7 M-13.3 -2.25 Q-14.65 -2.25 -15.5 -1.25 -16.4 -0.3 -16.4 1.7 -16.4 3.7 -15.5 4.7 -14.65 5.7 -13.3 5.7 -12.0 5.7 -11.15 4.7 -10.3 3.7 -10.3 1.65 -10.3 -0.25 -11.15 -1.25 -12.0 -2.25 -13.3 -2.25 M-4.4 -0.6 L-4.7 1.45 -4.7 6.9 -6.45 6.9 -6.45 -3.45 -4.85 -3.45 -4.85 -1.9 -3.75 -3.35 -2.6 -3.7 Q-1.75 -3.7 -0.8 -3.15 L-1.4 -1.5 Q-2.05 -1.9 -2.7 -1.9 L-3.75 -1.55 -4.4 -0.6 M-54.2 1.7 L-57.1 2.35 -58.6 2.7 -59.3 3.3 -59.55 4.1 Q-59.55 4.8 -59.0 5.3 L-57.45 5.75 -55.65 5.3 Q-54.85 4.85 -54.5 4.1 -54.2 3.5 -54.2 2.35 L-54.2 1.7" fill="#ffffff" fill-rule="evenodd" stroke="none"/>
  </g>
</svg>
