<?xml version="1.0" encoding="UTF-8" standalone="no"?>
<svg xmlns:ffdec="https://www.free-decompiler.com/flash" xmlns:xlink="http://www.w3.org/1999/xlink" ffdec:objectType="shape" height="87.0px" width="487.8px" xmlns="http://www.w3.org/2000/svg">
  <g transform="matrix(1.0, 0.0, 0.0, 1.0, 243.9, 43.5)">
    <path d="M206.65 -43.5 Q222.05 -43.5 233.0 -31.95 243.9 -20.45 243.9 -4.05 L243.9 4.2 Q243.9 20.45 233.0 31.95 222.05 43.5 206.65 43.5 L-206.65 43.5 Q-222.05 43.5 -233.0 31.95 -243.9 20.45 -243.9 4.2 L-243.9 -4.05 Q-243.9 -20.45 -233.0 -31.95 -222.05 -43.5 -206.65 -43.5 L206.65 -43.5" fill="#ffffff" fill-opacity="0.101960786" fill-rule="evenodd" stroke="none"/>
    <path d="M224.65 -26.8 Q235.2 -17.1 235.2 -3.45 L235.2 3.5 Q235.2 17.1 224.65 26.8 214.15 36.45 199.25 36.45 L-199.3 36.45 Q-214.15 36.45 -224.7 26.8 -235.25 17.1 -235.25 3.5 L-235.25 -3.45 Q-235.25 -17.1 -224.7 -26.8 -214.15 -36.45 -199.3 -36.45 L199.25 -36.45 Q214.15 -36.45 224.65 -26.8" fill="#ffffff" fill-opacity="0.050980393" fill-rule="evenodd" stroke="none"/>
  </g>
</svg>
