<?xml version="1.0" encoding="UTF-8" standalone="no"?>
<svg xmlns:ffdec="https://www.free-decompiler.com/flash" xmlns:xlink="http://www.w3.org/1999/xlink" ffdec:objectType="shape" height="43.55px" width="26.0px" xmlns="http://www.w3.org/2000/svg">
  <g transform="matrix(1.0, 0.0, 0.0, 1.0, 203.45, 21.4)">
    <path d="M-197.1 -19.25 L-197.4 -19.25 Q-199.0 -19.25 -200.15 -18.1 -201.3 -16.95 -201.3 -15.35 L-201.3 7.05 Q-201.3 8.6 -200.15 9.75 -199.0 10.9 -197.4 10.9 L-197.1 10.9 Q-196.05 10.9 -195.15 10.35 -192.95 11.4 -190.55 11.4 -186.1 11.4 -183.0 8.3 L-181.95 7.1 Q-179.9 4.35 -179.9 0.75 -179.9 -1.35 -180.6 -3.15 -181.4 -5.15 -183.0 -6.75 -186.1 -9.8 -190.55 -9.8 L-193.25 -9.5 -193.25 -15.35 Q-193.25 -16.95 -194.4 -18.1 -195.55 -19.25 -197.1 -19.25 M-192.85 -19.65 Q-191.1 -17.85 -191.1 -15.35 L-191.1 -12.0 -190.55 -12.0 Q-185.25 -12.0 -181.5 -8.25 L-179.65 -6.0 -179.05 -4.95 -179.0 -4.85 -178.8 -4.5 -178.45 -3.65 -178.25 1.75 -178.05 2.0 Q-177.5 3.3 -177.45 4.7 L-177.75 3.75 -177.75 9.35 Q-177.75 12.45 -179.0 15.0 L-180.0 16.7 -181.5 18.4 Q-185.2 22.15 -190.55 22.15 -192.9 22.15 -195.1 21.3 L-197.1 21.65 -197.4 21.65 Q-199.9 21.65 -201.65 19.9 -203.45 18.1 -203.45 15.6 L-203.45 -15.35 Q-203.45 -17.85 -201.65 -19.65 -199.9 -21.4 -197.4 -21.4 L-197.1 -21.4 Q-194.65 -21.4 -192.85 -19.65 M-188.85 -5.2 Q-187.5 -5.2 -186.55 -4.2 -185.55 -3.25 -185.55 -1.85 -185.55 -0.45 -186.5 0.5 -187.45 1.45 -188.85 1.45 -190.3 1.45 -191.25 0.5 -192.2 -0.45 -192.2 -1.85 -192.2 -3.3 -191.25 -4.25 -190.3 -5.2 -188.85 -5.2 M-182.85 -1.15 Q-182.85 -0.15 -183.9 -0.15 -184.9 -0.15 -184.9 -1.15 -184.9 -2.2 -183.9 -2.2 -182.85 -2.2 -182.85 -1.15 M-186.2 1.25 Q-185.65 0.7 -184.85 0.7 -184.0 0.7 -183.45 1.25 -182.85 1.85 -182.85 2.65 -182.85 3.45 -183.45 4.0 -184.0 4.6 -184.85 4.6 -185.65 4.6 -186.2 4.0 -186.75 3.45 -186.75 2.65 -186.75 1.85 -186.2 1.25" fill="#ffffff" fill-rule="evenodd" stroke="none"/>
  </g>
</svg>
