<?xml version="1.0" encoding="UTF-8" standalone="no"?>
<svg xmlns:ffdec="https://www.free-decompiler.com/flash" xmlns:xlink="http://www.w3.org/1999/xlink" ffdec:objectType="shape" height="8.5px" width="8.5px" xmlns="http://www.w3.org/2000/svg">
  <g transform="matrix(1.0, 0.0, 0.0, 1.0, 4.25, 4.25)">
    <path d="M2.65 -2.65 Q3.75 -1.55 3.75 0.0 3.75 1.55 2.65 2.65 1.55 3.75 0.0 3.75 -1.55 3.75 -2.65 2.65 -3.75 1.55 -3.75 0.0 -3.75 -1.55 -2.65 -2.65 -1.55 -3.75 0.0 -3.75 1.55 -3.75 2.65 -2.65 M0.4 2.3 L0.7 1.85 0.65 1.75 Q0.55 1.35 0.15 1.3 L-0.05 1.4 -0.35 1.7 Q-0.5 2.3 0.15 2.4 L0.4 2.3 M1.75 0.3 L1.75 0.35 1.55 0.4 1.45 0.45 1.2 0.7 1.05 0.85 1.05 1.05 1.05 1.3 1.1 1.4 1.3 1.6 Q2.35 1.7 2.35 0.7 L2.35 0.6 Q2.15 0.3 1.75 0.3 M-1.8 -1.15 L-1.85 -1.25 Q-2.0 -1.55 -2.3 -1.55 L-2.45 -1.5 -3.15 -0.45 Q-2.85 0.1 -2.3 -0.05 -2.15 -0.1 -2.1 -0.2 -1.7 -0.65 -1.8 -1.15 M-0.7 -2.85 L-0.9 -2.75 -1.25 -2.45 Q-1.4 -1.85 -0.7 -1.75 L-0.5 -1.85 Q-0.2 -2.0 -0.2 -2.3 L-0.2 -2.45 -0.7 -2.85" fill="#592033" fill-rule="evenodd" stroke="none"/>
    <path d="M-0.7 -2.85 L-0.2 -2.45 -0.2 -2.3 Q-0.2 -2.0 -0.5 -1.85 L-0.7 -1.75 Q-1.4 -1.85 -1.25 -2.45 L-0.9 -2.75 -0.7 -2.85 M-1.8 -1.15 Q-1.7 -0.65 -2.1 -0.2 -2.15 -0.1 -2.3 -0.05 -2.85 0.1 -3.15 -0.45 L-2.45 -1.5 -2.3 -1.55 Q-2.0 -1.55 -1.85 -1.25 L-1.8 -1.15" fill="#89324d" fill-rule="evenodd" stroke="none"/>
    <path d="M1.75 0.3 Q2.15 0.3 2.35 0.6 L2.35 0.7 Q2.35 1.7 1.3 1.6 L1.1 1.4 1.05 1.3 1.05 1.05 1.05 0.85 1.2 0.7 1.45 0.45 1.55 0.4 1.75 0.35 1.75 0.3 M0.4 2.3 L0.15 2.4 Q-0.5 2.3 -0.35 1.7 L-0.05 1.4 0.15 1.3 Q0.55 1.35 0.65 1.75 L0.7 1.85 0.4 2.3" fill="#391521" fill-rule="evenodd" stroke="none"/>
    <path d="M2.65 -2.65 Q3.75 -1.55 3.75 0.0 3.75 1.55 2.65 2.65 1.55 3.75 0.0 3.75 -1.55 3.75 -2.65 2.65 -3.75 1.55 -3.75 0.0 -3.75 -1.55 -2.65 -2.65 -1.55 -3.75 0.0 -3.75 1.55 -3.75 2.65 -2.65 Z" fill="none" stroke="#ffffff" stroke-linecap="round" stroke-linejoin="round" stroke-width="1.0"/>
  </g>
</svg>
