<?xml version="1.0" encoding="UTF-8" standalone="no"?>
<svg xmlns:ffdec="https://www.free-decompiler.com/flash" xmlns:xlink="http://www.w3.org/1999/xlink" ffdec:objectType="shape" height="40.55px" width="77.4px" xmlns="http://www.w3.org/2000/svg">
  <g transform="matrix(1.0, 0.0, 0.0, 1.0, 54.75, 23.3)">
    <path d="M5.95 -3.0 Q5.95 -3.8 12.3 -8.6 19.0 -13.75 22.65 -15.05 18.9 -10.3 6.15 -2.5 5.95 -2.05 5.95 -3.0 M1.65 6.75 L4.15 16.9 3.4 17.25 Q1.55 12.7 1.0 6.8 L1.65 6.75 M-25.45 -23.3 L-14.5 -13.6 Q-8.0 -7.8 -4.05 -3.8 L-4.7 -3.3 Q-19.35 -16.2 -26.0 -22.8 L-25.45 -23.3 M-5.8 1.85 Q-12.3 4.0 -32.9 8.4 -52.25 12.5 -54.2 12.5 L-54.75 12.15 Q-53.05 10.9 -44.25 9.25 L-32.55 7.05 Q-10.3 1.45 -7.4 1.45 -6.3 1.45 -5.8 1.85" fill="#ffffff" fill-rule="evenodd" stroke="none"/>
  </g>
</svg>
