<?xml version="1.0" encoding="UTF-8" standalone="no"?>
<svg xmlns:ffdec="https://www.free-decompiler.com/flash" xmlns:xlink="http://www.w3.org/1999/xlink" ffdec:objectType="shape" height="21.1px" width="21.55px" xmlns="http://www.w3.org/2000/svg">
  <g transform="matrix(1.0, 0.0, 0.0, 1.0, 178.45, 9.8)">
    <path d="M-177.3 -9.0 Q-176.5 -9.8 -175.35 -9.8 -174.2 -9.8 -173.35 -9.0 -172.5 -8.2 -172.5 -7.05 L-172.5 -2.5 Q-172.5 -1.25 -171.65 -0.35 -170.75 0.55 -169.45 0.55 -168.2 0.55 -167.3 -0.35 -166.4 -1.3 -166.4 -2.5 L-166.4 -5.95 Q-166.4 -7.6 -165.3 -8.7 -164.15 -9.8 -162.55 -9.8 L-160.75 -9.8 Q-159.2 -9.8 -158.05 -8.7 -156.9 -7.55 -156.9 -5.95 L-156.95 0.7 Q-156.95 5.2 -160.05 8.25 -163.1 11.3 -167.5 11.3 -172.0 11.3 -175.05 8.25 -176.7 6.65 -177.45 4.7 -177.5 3.3 -178.05 2.0 L-178.25 1.75 -178.45 -3.65 -178.15 -2.55 -178.15 -7.05 Q-178.15 -8.2 -177.3 -9.0" fill="#ffffff" fill-rule="evenodd" stroke="none"/>
  </g>
</svg>
