<?xml version="1.0" encoding="UTF-8" standalone="no"?>
<svg xmlns:ffdec="https://www.free-decompiler.com/flash" xmlns:xlink="http://www.w3.org/1999/xlink" ffdec:objectType="shape" height="8.5px" width="13.8px" xmlns="http://www.w3.org/2000/svg">
  <g transform="matrix(1.0, 0.0, 0.0, 1.0, 6.9, 4.25)">
    <path d="M-3.6 -0.2 L-3.9 -0.05 Q-4.85 0.1 -5.35 -0.45 -5.2 -1.1 -4.2 -1.5 L-3.9 -1.55 -3.15 -1.25 -3.05 -1.15 Q-2.9 -0.65 -3.6 -0.2 M-2.15 -2.45 L-1.55 -2.75 -1.2 -2.85 Q-0.5 -2.8 -0.35 -2.45 L-0.35 -2.3 Q-0.35 -2.0 -0.85 -1.85 L-1.2 -1.75 Q-2.4 -1.85 -2.15 -2.45" fill="#dda2b4" fill-rule="evenodd" stroke="none"/>
    <path d="M4.0 0.6 L4.0 0.7 Q4.0 1.7 2.2 1.6 L1.9 1.4 1.8 1.3 1.8 1.05 1.8 0.85 2.05 0.7 2.45 0.45 2.65 0.4 3.0 0.35 3.0 0.3 Q3.65 0.3 4.0 0.6 M0.7 2.3 L0.25 2.4 Q-0.85 2.3 -0.6 1.7 L-0.1 1.4 0.25 1.3 Q0.95 1.35 1.1 1.75 L1.2 1.85 0.7 2.3" fill="#9c3857" fill-rule="evenodd" stroke="none"/>
    <path d="M4.5 -2.65 Q6.4 -1.55 6.4 0.0 6.4 1.55 4.5 2.65 2.65 3.75 0.0 3.75 -2.65 3.75 -4.5 2.65 -6.4 1.55 -6.4 0.0 -6.4 -1.55 -4.5 -2.65 -2.65 -3.75 0.0 -3.75 2.65 -3.75 4.5 -2.65 M0.7 2.3 L1.2 1.85 1.1 1.75 Q0.95 1.35 0.25 1.3 L-0.1 1.4 -0.6 1.7 Q-0.85 2.3 0.25 2.4 L0.7 2.3 M4.0 0.6 Q3.65 0.3 3.0 0.3 L3.0 0.35 2.65 0.4 2.45 0.45 2.05 0.7 1.8 0.85 1.8 1.05 1.8 1.3 1.9 1.4 2.2 1.6 Q4.0 1.7 4.0 0.7 L4.0 0.6 M-2.15 -2.45 Q-2.4 -1.85 -1.2 -1.75 L-0.85 -1.85 Q-0.35 -2.0 -0.35 -2.3 L-0.35 -2.45 Q-0.5 -2.8 -1.2 -2.85 L-1.55 -2.75 -2.15 -2.45 M-3.6 -0.2 Q-2.9 -0.65 -3.05 -1.15 L-3.15 -1.25 -3.9 -1.55 -4.2 -1.5 Q-5.2 -1.1 -5.35 -0.45 -4.85 0.1 -3.9 -0.05 L-3.6 -0.2" fill="#ff6699" fill-rule="evenodd" stroke="none"/>
    <path d="M4.5 -2.65 Q6.4 -1.55 6.4 0.0 6.4 1.55 4.5 2.65 2.65 3.75 0.0 3.75 -2.65 3.75 -4.5 2.65 -6.4 1.55 -6.4 0.0 -6.4 -1.55 -4.5 -2.65 -2.65 -3.75 0.0 -3.75 2.65 -3.75 4.5 -2.65 Z" fill="none" stroke="#ffffff" stroke-linecap="round" stroke-linejoin="round" stroke-width="1.0"/>
  </g>
</svg>
