<?xml version="1.0" encoding="UTF-8" standalone="no"?>
<svg xmlns:ffdec="https://www.free-decompiler.com/flash" xmlns:xlink="http://www.w3.org/1999/xlink" ffdec:objectType="shape" height="430.6px" width="432.1px" xmlns="http://www.w3.org/2000/svg">
  <g transform="matrix(1.0, 0.0, 0.0, 1.0, 216.55, 213.1)">
    <path d="M95.0 -170.1 L93.9 -169.95 104.0 -157.1 M118.5 -155.6 L117.7 -156.6 109.25 -156.6 113.9 -146.35 124.9 -144.35 125.5 -146.05 M117.7 -156.6 L111.0 -164.6 M109.0 -157.1 L109.25 -156.6 86.5 -156.6 M100.5 -168.6 L105.0 -185.6 M97.0 -167.1 L107.0 -170.1 M64.0 -202.1 L70.6 -184.1 76.55 -167.9 93.9 -169.95 91.0 -173.6 M116.5 -140.55 L113.9 -146.35 110.0 -147.05 M146.0 -140.55 L145.5 -140.65 142.5 -116.55 161.5 -121.1 M167.5 -141.55 L158.05 -136.1 153.45 -133.5 155.0 -130.05 M158.05 -136.1 L161.0 -147.55 M133.0 -141.55 L136.0 -127.55 M146.5 -97.1 L159.05 -107.7 150.0 -110.6 M161.5 -106.1 L161.55 -106.9 159.05 -107.7 M145.5 -140.65 L124.9 -144.35 118.5 -127.55 M142.5 -116.55 L126.0 -112.6 M135.0 -156.6 L117.7 -156.6 M104.5 -156.1 L97.0 -142.05 M128.0 -144.55 L142.0 -163.1 M145.5 -140.65 L146.5 -149.05 153.45 -133.5 M43.45 -200.6 L40.65 -196.95 37.9 -193.4 55.0 -197.1 56.5 -189.6 M48.0 -175.1 L47.1 -175.0 36.45 -168.6 M57.25 -181.1 L55.45 -180.7 55.45 -180.0 57.25 -181.1 60.5 -183.1 M55.5 -181.6 L55.45 -180.7 46.0 -178.6 M55.0 -172.1 L55.45 -180.0 47.1 -175.0 28.5 -172.9 34.45 -152.6 M76.55 -167.9 L66.05 -166.7 68.45 -151.6 M65.95 -167.1 L66.05 -166.7 52.5 -165.1 M57.25 -181.1 L70.6 -184.1 M23.45 -190.1 L26.75 -178.95 37.9 -193.4 36.45 -193.1 M26.45 -178.6 L26.75 -178.95 28.5 -172.9 20.95 -172.1 M7.95 -196.1 L7.55 -196.45 6.6 -192.25 12.45 -177.1 M6.6 -192.25 L5.35 -186.7 3.75 -179.55 -0.05 -162.6 M139.5 -86.1 L138.6 -90.6 135.5 -90.1 M69.5 -192.6 L88.0 -192.1 M134.0 -113.1 L138.6 -90.6 M179.5 -101.1 L178.85 -101.3 171.1 -85.75 184.6 -82.2 191.5 -92.1 M162.5 -127.6 L161.55 -106.9 178.85 -101.3 183.0 -109.6 M187.0 -81.6 L184.6 -82.2 176.5 -70.6 M192.0 -52.05 L192.6 -52.25 187.5 -64.6 M197.0 -54.55 L201.0 -71.1 M188.0 -62.6 L170.5 -73.6 M186.0 -30.05 L187.3 -31.05 179.4 -34.3 171.0 -23.55 M180.5 -23.55 L193.4 -28.5 187.3 -31.05 197.95 -39.2 192.6 -52.25 203.0 -56.05 M179.4 -34.3 L165.5 -40.05 M180.0 -35.05 L179.4 -34.3 M197.0 -15.95 L195.55 -18.1 M184.0 -24.55 L185.0 -15.55 M203.0 -24.55 L202.7 -24.65 193.4 -28.5 M197.0 -15.95 L206.55 -1.55 M176.0 -55.05 L170.0 -46.55 M197.95 -39.2 L205.5 -45.05 M196.5 -36.55 L207.5 -36.05 M189.05 -5.55 L161.5 -15.05 M23.95 -186.1 L9.45 -205.1 7.55 -196.45 -13.05 -213.1 M40.65 -196.95 L13.45 -212.6 M171.1 -85.75 L152.5 -90.6 M159.0 -74.1 L163.5 -68.1 M164.5 -85.6 L154.0 -70.6 M189.0 -55.55 L160.0 -56.05 M184.05 54.45 L183.05 53.2 169.5 56.95 M189.55 50.95 L189.75 51.35 200.05 48.45 M189.75 51.35 L197.55 64.95 M161.0 25.45 L183.05 53.2 189.75 51.35 M178.05 98.0 L178.8 97.4 175.55 85.45 M168.0 75.45 L168.0 75.1 150.5 63.45 M178.8 97.4 L195.55 83.45 M186.55 87.45 L168.0 75.1 167.5 46.45 M199.55 21.45 L215.55 34.45 M172.05 37.95 L205.05 15.45 M168.5 117.0 L199.55 104.5 M182.05 109.5 L178.8 97.4 M161.0 71.45 L151.0 80.45 M135.0 90.45 L128.5 82.45 M5.95 181.0 L0.45 164.0 M19.95 190.5 L20.3 190.9 33.95 180.5 M33.95 207.0 L20.3 190.9 12.95 196.5 M67.5 189.0 L75.0 193.0 M51.5 164.5 L51.85 172.35 56.65 157.1 60.5 144.95 M52.0 175.5 L51.85 172.35 47.6 185.9 56.0 189.5 M-6.55 169.5 L-5.05 215.5 11.95 170.5 47.6 185.9 42.95 200.5 M48.5 161.5 L30.95 161.5 M50.5 167.5 L45.95 145.95 M133.5 117.5 L123.0 117.0 M136.0 146.5 L144.45 142.8 132.0 106.5 M144.45 142.8 L153.0 139.0 M104.5 145.5 L109.5 120.5 M98.0 173.5 L89.5 149.45 M105.0 168.0 L87.5 188.0 88.5 189.0 M122.0 145.5 L121.85 156.4 121.5 179.35 143.5 178.0 M94.0 181.0 L121.5 179.35 M121.85 156.4 L96.0 141.5 M122.5 129.0 L144.0 159.5 M108.5 130.0 L128.0 127.0 M56.65 157.1 L87.5 188.0 M137.5 115.0 L152.95 98.95 164.0 87.45 M133.5 110.0 L138.5 78.45 M92.5 162.5 L79.0 161.0 M0.95 200.5 L11.45 217.5 M162.5 113.0 L142.0 119.5 M152.95 98.95 L169.5 121.5 M68.0 171.5 L65.5 201.0 M195.55 16.45 L215.55 -12.05 M189.55 25.45 L169.05 -1.55 M-187.55 -99.05 L-183.05 -118.05 M-168.05 -99.55 L-171.55 -110.05 M-184.05 -55.05 L-184.7 -54.45 -175.05 -47.05 M-215.05 -72.05 L-195.5 -44.15 -184.7 -54.45 -190.05 -58.55 M-170.05 -77.55 L-193.55 -70.55 M-172.55 -95.05 L-200.55 -97.55 M-174.05 -92.05 L-165.05 -70.05 M-174.05 -4.0 L-167.55 -17.55 M-177.05 -36.05 L-194.7 -20.05 -198.05 -17.05 -207.05 -4.0 M-200.05 -38.55 L-200.05 -30.05 M-194.05 -42.05 L-195.5 -44.15 -205.05 -35.05 M-168.05 -48.55 L-181.05 -45.05 -170.55 -28.05 M-198.05 -17.05 L-203.05 -12.55 M-194.7 -20.05 L-216.55 -23.55 M-205.05 -59.05 L-193.05 -64.55 M-178.55 -72.55 L-167.55 -48.55 M-38.5 -170.6 L-29.5 -163.85 M-27.05 -178.1 L-24.1 -184.05 -37.35 -194.45 -42.05 -198.1 M-68.05 -185.05 L-73.05 -180.05 M-63.05 -168.55 L-58.05 -160.55 M-59.05 -184.55 L-70.05 -159.05 M-37.05 -179.05 L-67.0 -187.55 -77.55 -190.55 M-32.25 -189.1 L-42.8 -159.6 M-132.55 -176.1 L-126.1 -175.45 -111.55 -174.1 -105.05 -185.55 M-83.55 -173.55 L-115.55 -167.05 -111.55 -174.1 M-87.55 -153.55 L-85.85 -159.05 -84.05 -165.05 M-104.55 -157.55 L-103.9 -157.35 -103.55 -167.55 M-88.55 -178.55 L-83.55 -196.55 M-155.55 -156.1 L-148.0 -155.15 -147.05 -161.1 M-147.55 -155.1 L-148.0 -155.15 -150.3 -141.5 -134.05 -123.55 M-126.1 -175.45 L-137.95 -154.6 -122.05 -155.1 M-137.95 -154.6 L-140.55 -150.1 M-138.55 -154.6 L-137.95 -154.6 M-131.55 -167.1 L-141.05 -172.6 M-159.55 -120.05 L-154.05 -108.55 -149.05 -98.05 M-150.55 -140.05 L-150.3 -141.5 -153.55 -145.1 M-136.05 -114.55 L-124.05 -111.55 M-127.55 -128.55 L-127.4 -136.55 -138.55 -110.05 M-105.05 -148.05 L-113.15 -130.6 -96.05 -123.05 M-113.15 -130.6 L-115.55 -125.55 M-127.05 -154.6 L-127.4 -136.55 M-126.55 -141.05 L-110.55 -145.6 M-80.55 -149.55 L-103.9 -157.35 -104.55 -140.05 M-151.55 -57.55 L-138.05 -64.55 M-158.05 -60.55 L-147.05 -52.55 M-138.55 -92.05 Q-138.7 -91.95 -138.9 -91.9 L-133.05 -87.55 M-148.55 -99.05 L-138.9 -91.9 -164.05 -81.05 M-85.85 -159.05 L-74.05 -159.05 M-65.55 -170.55 L-98.05 -180.55 M-170.55 -29.05 L-156.55 -53.55 M-170.05 -58.05 L-149.55 -65.55 M-154.05 -108.55 L-178.05 -89.55 M-141.05 -129.05 L-169.05 -117.05 M-145.05 -134.05 L-169.55 -133.55 M-67.0 -187.55 L-56.05 -199.05 M-31.0 -198.6 L-28.0 -195.35 M-37.35 -194.45 L-24.5 -204.1 M5.35 -186.7 L-14.55 -203.6 -24.1 -184.05 M-142.05 73.0 L-141.4 79.95 -128.05 72.5 M-149.1 81.0 L-140.95 85.0 -141.4 79.95 M-159.05 59.5 L-144.55 48.5 M-105.05 134.0 L-103.95 140.0 -89.45 146.3 -85.55 148.0 M-111.05 133.0 L-113.05 107.5 M-105.05 139.5 L-103.95 140.0 -101.05 156.0 M-120.55 135.5 L-95.55 131.5 M-140.55 116.5 L-140.85 116.55 -144.9 125.6 -114.05 140.5 M-135.05 103.5 L-140.85 116.55 -170.95 118.8 -170.6 119.5 M-144.9 125.6 L-153.1 144.0 M-113.55 186.0 L-104.7 177.4 -115.55 170.0 M-91.55 164.5 L-104.7 177.4 M-89.45 146.3 L-88.55 194.5 M-105.05 148.0 L-122.55 158.0 M-131.55 133.0 L-133.55 171.0 M-56.05 191.0 L-67.8 188.7 -87.05 203.0 M-67.8 188.7 L-76.55 187.0 M-53.05 160.5 L-48.8 167.9 -43.25 177.65 -29.05 164.0 M-75.55 170.0 L-73.55 153.95 M-6.55 168.0 L-30.5 195.45 -26.05 195.0 M-43.25 177.65 L-37.05 188.5 M-74.05 161.0 L-39.55 155.95 M-88.55 175.5 L-68.55 168.5 M-139.55 100.5 L-140.95 85.0 M-176.55 43.5 L-186.55 39.5 M-201.55 17.0 L-192.05 24.0 M-196.05 4.0 L-196.6 5.1 -183.55 6.5 M-175.55 21.0 L-197.55 40.5 M-183.55 10.0 L-167.55 25.5 M-195.05 81.5 L-209.25 30.4 -211.55 35.0 M-175.05 53.0 L-173.65 53.65 -163.05 51.0 M-173.65 53.65 L-164.1 57.95 -148.55 65.0 M-197.55 59.5 L-182.35 55.75 -169.05 32.0 M-183.05 57.0 L-182.35 55.75 -173.65 53.65 M-123.55 106.5 L-172.85 89.1 -175.1 97.0 M-170.1 80.5 L-170.4 80.35 -172.85 89.1 M-177.6 77.0 L-195.1 94.0 M-170.4 80.35 L-184.1 72.0 M-164.1 57.95 L-170.4 80.35 M-200.05 66.5 L-214.55 72.5 M-209.25 30.4 L-196.6 5.1 -211.55 3.5 M-180.6 119.5 L-170.95 118.8 -181.1 100.0 M-163.1 118.5 L-166.1 134.0 M-23.05 203.5 L-15.05 217.5 M-56.05 198.0 L-30.5 195.45 M-6.55 192.5 L-37.05 208.5 M-48.8 167.9 L-59.55 208.0 M-172.6 109.5 L-161.1 104.5 M-172.05 39.5 L-156.55 39.5 M-203.05 3.0 L-211.05 -9.05 M-176.05 -0.5 L-187.55 12.5 M-187.55 -26.05 L-169.05 6.0 M3.75 -179.55 L-12.55 -178.1" ffdec:has-small-stroke="true" ffdec:original-stroke-width="0.05" fill="none" stroke="#ffff00" stroke-linecap="round" stroke-linejoin="round" stroke-width="1.0"/>
    <path d="M202.7 -24.65 L197.0 -15.95 182.0 6.95 M202.7 -24.65 L206.5 -30.55" ffdec:has-small-stroke="true" ffdec:original-stroke-width="0.05" fill="none" stroke="#ffff00" stroke-linecap="round" stroke-linejoin="round" stroke-width="1.0"/>
  </g>
</svg>
