<?xml version="1.0" encoding="UTF-8" standalone="no"?>
<svg xmlns:ffdec="https://www.free-decompiler.com/flash" xmlns:xlink="http://www.w3.org/1999/xlink" ffdec:objectType="shape" height="420.6px" width="443.6px" xmlns="http://www.w3.org/2000/svg">
  <g transform="matrix(1.0, 0.0, 0.0, 1.0, 219.55, 209.1)">
    <path d="M-14.85 190.65 L-5.55 201.0 M-25.0 179.35 L-36.55 166.5 M-14.85 190.65 L-25.0 179.35" ffdec:has-small-stroke="true" ffdec:original-stroke-width="0.05" fill="none" stroke="#ffffff" stroke-linecap="round" stroke-linejoin="round" stroke-width="1.0"/>
    <path d="M94.95 -161.55 L81.45 -156.55 M71.95 -182.05 L70.55 -165.3 93.45 -170.5 92.95 -172.55 M96.95 -155.55 L93.45 -170.5 95.45 -170.95 95.45 -199.6 M95.45 -170.95 L102.1 -172.45 109.0 -174.05 M95.45 -169.55 L95.45 -170.95 M172.5 -125.55 L147.9 -143.4 142.35 -147.45 113.0 -143.55 M141.5 -148.05 L142.35 -147.45 143.0 -147.55 M153.5 -137.55 L146.7 -127.4 165.5 -110.05 M128.5 -144.05 L123.5 -130.55 M132.5 -120.05 L127.5 -107.05 M123.5 -120.05 L121.65 -122.5 116.5 -123.05 M149.5 -101.1 L150.1 -100.9 157.5 -116.55 M144.5 -120.05 L141.9 -120.3 136.0 -111.55 M127.5 -139.05 L142.5 -134.55 M146.7 -127.4 L141.9 -120.3 121.65 -122.5 111.0 -136.55 M99.5 -150.55 L104.0 -138.55 M102.5 -151.55 L123.5 -149.55 M114.5 -163.55 L83.45 -143.05 M152.0 -154.05 L147.9 -143.4 M102.1 -172.45 L131.0 -156.05 M66.45 -154.55 L42.45 -156.55 M54.95 -177.55 L80.95 -185.05 M41.45 -183.55 L60.45 -167.55 M69.45 -165.05 L70.55 -165.3 68.45 -140.55 M18.45 -186.55 L27.45 -196.6 M10.45 -193.6 L35.95 -163.55 M-6.55 -187.05 L2.2 -174.8 11.95 -187.05 M3.45 -173.05 L2.2 -174.8 -8.05 -162.05 M185.5 -89.6 L185.35 -90.55 160.2 -97.95 161.0 -96.55 M149.5 -96.55 L148.25 -96.95 144.5 -89.05 M94.45 -187.05 L70.45 -193.1 M148.25 -96.95 L131.5 -102.05 M160.2 -97.95 L150.1 -100.9 148.25 -96.95 M155.0 -107.05 L160.2 -97.95 M183.5 -107.6 L199.0 -108.1 M192.5 -65.05 L194.45 -60.65 194.5 -61.55 M194.0 -54.05 L194.45 -60.65 M181.0 -114.1 L185.35 -90.55 195.5 -87.6 164.5 -58.05 M168.5 -76.6 L174.5 -88.1 M176.5 -10.55 L184.0 -1.05 M186.0 -22.05 L168.5 -3.05 M151.0 -44.05 L174.9 -25.7 188.0 -36.55 M161.5 -19.05 L179.0 -22.55 174.9 -25.7 173.5 -24.55 M196.0 5.95 L196.65 7.7 198.75 -26.5 179.0 -22.55 M199.5 -39.55 L198.75 -26.5 M200.0 -7.05 L217.05 -15.9 218.5 -36.05 M217.0 -15.05 L217.05 -15.9 224.05 -19.55 M165.0 -36.05 L166.5 -51.05 M204.5 -66.05 L199.0 -75.6 M188.0 -48.05 L214.5 -72.6 M164.5 -57.55 L201.0 -40.05 M177.0 -72.1 L158.0 -78.1 M7.45 -195.1 L1.95 -205.6 M41.45 -191.1 L23.95 -203.1 M25.45 -178.05 L55.95 -200.6 M196.55 9.7 L197.1 8.9 196.65 7.7 196.55 9.7 184.0 28.45 180.5 4.45 175.6 57.05 190.7 59.3 197.0 33.0 M177.5 18.95 L164.15 14.05 154.5 21.45 M165.5 12.95 L164.15 14.05 149.0 8.45 M195.0 45.5 L200.0 45.5 M166.0 79.0 L166.35 80.5 207.5 56.45 198.5 60.45 190.7 59.3 190.5 60.0 M175.0 56.95 L175.6 57.05 175.5 57.95 M180.5 96.5 L180.95 95.8 172.0 100.0 M191.5 78.5 L180.95 95.8 197.5 88.0 M177.0 35.95 L163.0 52.45 M197.1 8.9 L207.0 35.45 M175.5 122.5 L175.4 121.9 147.5 101.0 M191.0 93.0 L196.0 104.0 M175.4 121.9 L166.35 80.5 M152.0 102.5 L156.05 90.05 144.0 77.0 M156.05 90.05 L158.5 82.5 M-3.05 178.0 L-7.35 177.15 5.25 188.85 38.0 171.55 38.95 171.0 M5.95 189.5 L5.25 188.85 3.95 189.5 M10.45 187.0 L13.45 192.75 35.45 197.5 M12.45 192.5 L13.45 192.75 21.95 209.0 M31.95 175.5 L34.45 189.0 M21.95 179.0 L9.45 163.0 M78.95 179.5 L79.15 186.5 91.45 186.0 M43.45 179.5 L43.45 194.0 65.95 204.0 M62.45 173.5 L59.45 155.0 M74.45 166.5 L69.45 189.5 88.6 167.5 107.4 134.9 107.5 134.0 M53.95 186.5 L73.45 165.0 M60.45 165.5 L40.45 162.5 M53.95 189.0 L38.0 171.55 M147.0 101.0 L144.9 125.2 149.5 139.0 M144.5 124.0 L144.9 125.2 143.55 140.5 143.5 141.0 M122.0 131.5 L134.0 113.0 M114.5 122.5 L100.0 123.5 M108.5 133.0 L107.4 134.9 106.0 148.0 143.55 140.5 M100.5 174.0 L101.5 173.65 93.45 161.5 M130.0 163.0 L101.5 173.65 113.0 191.0 M88.6 167.5 L89.45 166.5 M96.95 151.5 L85.95 132.5 M137.0 150.5 L117.0 157.5 M131.5 144.5 L147.5 157.0 M118.5 168.0 L130.5 179.0 M127.0 141.5 L112.0 117.5 M145.5 113.0 L138.0 96.0 M15.45 200.0 L9.95 208.5 M178.5 73.0 L158.5 62.0 M165.0 136.5 L155.5 148.0 M158.5 110.0 L167.5 145.0 M79.15 186.5 L79.45 198.5 M43.45 194.0 L43.45 204.5 M-184.05 -87.55 L-183.6 -87.55 -178.05 -104.55 M-199.05 -83.55 L-188.45 -72.75 -183.6 -87.55 -156.15 -89.85 -149.05 -100.1 -170.05 -122.6 M-192.05 -39.55 L-173.2 -57.2 -188.45 -72.75 M-172.55 -56.55 L-173.2 -57.2 -165.95 -64.0 -167.05 -65.05 M-197.05 1.45 L-182.4 -11.65 -208.05 -19.0 -215.05 -21.05 M-175.05 -41.55 L-173.5 -35.55 -172.05 -30.05 M-200.05 -5.05 L-202.1 -4.75 -185.85 16.55 -180.1 8.8 -182.05 7.45 M-177.05 -18.05 L-176.3 -17.1 -168.55 -24.05 M-168.05 -6.55 L-176.3 -17.1 -182.4 -11.65 -182.05 -11.55 M-173.5 -35.55 L-191.05 -21.05 M-202.1 -4.75 L-218.55 -2.55 M-202.1 -4.75 L-208.05 -12.55 M-196.55 -51.55 L-208.05 -19.0 M-30.55 -194.1 L-38.05 -197.6 M-20.55 -177.55 L-28.55 -181.05 M-7.55 -151.55 L-14.95 -169.4 -35.05 -162.05 M-4.05 -203.1 L-24.8 -193.05 -14.95 -169.4 -14.55 -169.55 M-25.05 -193.6 L-24.8 -193.05 -48.15 -181.7 -45.75 -180.4 -45.05 -181.05 M-49.55 -181.05 L-48.15 -181.7 -61.0 -188.55 -70.05 -161.05 M-37.55 -176.05 L-45.75 -180.4 -57.05 -170.55 M-62.05 -189.1 L-61.0 -188.55 -56.55 -202.1 M-113.55 -153.1 L-109.15 -170.1 -104.55 -188.1 M-48.05 -154.05 L-85.9 -164.85 -94.25 -157.7 -84.55 -149.6 M-85.9 -164.85 L-86.55 -165.05 -94.55 -157.9 -94.25 -157.7 -95.55 -156.6 M-85.9 -164.85 L-81.55 -168.6 M-96.05 -156.6 L-94.55 -157.9 -109.15 -170.1 M-129.55 -117.1 L-129.05 -106.55 M-132.55 -134.1 L-145.55 -127.6 M-134.55 -140.1 L-155.55 -135.6 M-149.05 -100.1 L-141.55 -111.05 M-148.05 -99.05 L-149.05 -100.1 M-118.55 -161.1 L-134.05 -166.6 M-108.55 -137.1 L-122.05 -177.1 M-129.55 -135.6 L-88.55 -135.1 M-126.55 -127.1 L-139.05 -155.1 M-133.55 -121.6 L-118.05 -130.1 M-160.55 -124.1 L-118.05 -115.6 M-156.15 -89.85 L-149.9 -90.35 -141.55 -91.05 M-149.9 -90.35 L-140.05 -78.55 M-156.15 -89.85 L-157.05 -88.55 M-77.05 -173.6 L-86.55 -165.05 M-77.55 -186.05 L-96.05 -179.55 M-65.55 -179.05 L-85.55 -191.6 M-20.05 -196.1 L-24.05 -209.1 M-161.55 -114.1 L-162.05 -143.6 M-160.05 -107.05 L-174.55 -106.55 M-200.05 -37.05 L-152.55 -47.05 M-159.55 -70.05 L-165.95 -64.0 -155.55 -54.05 M-149.55 134.0 L-150.25 134.5 -121.05 145.5 M-143.55 136.0 L-136.05 127.5 M-140.55 107.5 L-144.55 120.5 M-116.05 108.5 L-131.65 116.75 -123.55 126.0 M-133.05 117.5 L-131.65 116.75 -148.05 98.0 M-123.1 166.0 L-138.6 183.5 M-106.1 128.95 L-106.45 165.0 -106.5 171.3 -100.6 167.5 M-106.6 179.0 L-106.5 171.3 -107.6 172.0 M-96.6 155.5 L-84.1 160.5 M-105.1 158.0 L-85.6 151.5 M-84.6 187.0 L-121.1 174.5 M-124.05 131.0 L-113.05 128.0 M-130.05 121.0 L-121.05 140.0 M-137.6 163.5 L-140.6 145.5 M-106.6 143.45 L-130.6 148.0 M-150.6 163.5 L-106.45 165.0 M-59.55 175.0 L-63.55 154.5 M-58.55 185.0 L-78.55 185.5 M-39.05 188.5 L-42.9 173.5 -55.55 175.55 -58.55 197.0 M-55.55 175.55 L-61.55 176.5 M-42.9 173.5 L-46.55 159.5 M-14.55 190.0 L-14.85 190.65 -19.65 199.95 -25.55 211.5 M-25.0 179.35 L-26.05 180.5 M-15.05 168.0 L-20.8 174.55 -7.35 177.15 M-25.0 179.35 L-20.8 174.55 M-40.05 173.0 L-42.9 173.5 M-155.05 132.0 L-146.55 84.5 M-88.1 158.5 L-63.55 153.5 M-61.55 166.5 L-87.1 173.0 M-170.55 -4.05 L-180.1 8.8 -169.55 15.95 M-185.55 16.95 L-185.85 16.55 -195.05 28.8 -176.8 39.8 -164.55 34.95 M-195.55 29.45 L-195.05 28.8 -199.95 25.85 -219.55 37.45 M-163.55 57.5 L-163.55 43.5 -163.55 28.95 M-176.8 39.8 L-192.55 46.0 M-200.55 71.0 L-196.05 90.0 M-166.05 90.0 L-185.05 80.5 M-163.05 85.0 L-162.2 85.5 -158.55 75.5 M-190.05 55.5 L-208.55 79.0 M-166.55 65.0 L-209.05 46.0 M-199.95 25.85 L-208.05 20.95 M-170.05 107.0 L-169.75 106.3 -174.25 104.6 -197.05 108.0 M-173.55 104.5 L-174.25 104.6 -178.55 103.0 M-156.05 89.0 L-162.2 85.5 -169.75 106.3 -153.05 112.5 M-177.55 83.5 L-157.55 51.5 M-78.55 172.0 L-87.1 198.5 M-33.55 193.5 L-48.55 203.5 M-45.05 185.5 L-19.65 199.95 M-149.55 28.95 L-163.55 43.5 M-170.55 148.5 L-150.25 134.5 -167.55 128.0 M-2.05 -181.55 L13.95 -199.1 M2.95 187.5 L-0.05 202.5 M15.95 172.0 L-1.55 171.0" ffdec:has-small-stroke="true" ffdec:original-stroke-width="0.05" fill="none" stroke="#ffffff" stroke-linecap="round" stroke-linejoin="round" stroke-width="1.0"/>
  </g>
</svg>
