<?xml version="1.0" encoding="UTF-8" standalone="no"?>
<svg xmlns:ffdec="https://www.free-decompiler.com/flash" xmlns:xlink="http://www.w3.org/1999/xlink" ffdec:objectType="shape" height="434.6px" width="449.65px" xmlns="http://www.w3.org/2000/svg">
  <g transform="matrix(1.0, 0.0, 0.0, 1.0, 226.1, 215.6)">
    <path d="M59.8 -183.0 L84.0 -189.0 79.0 -168.0 94.0 -157.0 84.0 -149.0 139.0 -156.0 135.5 -146.8 131.0 -135.0 113.0 -123.0 148.3 -119.8 168.0 -118.0 154.0 -98.0 183.0 -109.0 154.0 -79.0 200.0 -92.0 183.55 -63.35 177.0 -52.0 183.05 -49.6 200.0 -43.0 187.0 -20.0 200.0 -20.0 195.6 -16.75 166.0 5.0 200.0 31.0 202.0 3.0 206.1 14.8 212.0 32.0 208.55 39.9 204.9 48.2 201.0 57.0 178.0 41.0 167.0 61.0 187.0 77.0 175.0 107.0 171.5 108.05 156.95 112.35 156.0 118.0 M42.6 -178.8 L59.8 -183.0 M9.35 -194.45 L7.0 -198.0 -5.95 -185.95 -11.8 -180.5 -21.0 -172.0 -45.25 -179.25 -78.0 -189.0 -64.0 -164.0 -74.1 -169.35 -98.0 -182.0 -96.35 -173.15 -94.6 -164.05 -92.0 -150.0 -107.35 -155.25 -133.0 -164.0 -124.9 -153.1 M17.95 -187.5 L15.0 -186.0 9.35 -194.45 M17.75 -174.95 L40.0 -199.0 17.95 -187.5 M17.75 -174.95 L15.0 -172.0 16.2 -172.3 17.7 -172.65 42.6 -178.8 M175.0 107.0 Q170.75 101.0 166.9 94.25 162.75 87.0 161.35 82.55 L160.2 91.55 159.65 95.25 156.95 112.35 148.85 114.75 142.25 116.7 131.0 120.0 131.0 134.85 131.0 146.0 151.0 145.0 107.0 168.0 102.0 145.0 93.85 175.15 89.0 193.0 68.95 185.05 36.0 172.0 50.0 191.0 -3.0 205.0 22.0 169.0 -36.0 201.0 -14.0 172.0 -48.0 193.0 -47.0 207.0 -56.6 187.3 -67.0 166.0 -82.0 189.0 -100.75 178.65 -111.0 173.0 -90.0 151.0 -102.1 148.45 -111.6 146.5 -133.0 142.0 -128.2 136.3 -112.0 117.0 -169.0 125.0 -159.05 107.5 -152.0 95.0 -187.0 100.0 -162.75 86.4 -146.0 77.0 -187.65 76.25 -202.0 76.0 -166.0 47.0 -164.0 61.0 -155.0 24.0 -168.8 29.3 -181.0 34.0 -197.0 57.0 -206.6 32.3 -211.0 21.0 -187.0 16.0 M161.35 82.55 Q160.15 78.75 161.0 77.0 162.2 74.65 161.35 82.55 M-184.55 -64.2 L-164.0 -51.0 -179.0 -100.0 -166.4 -99.55 -149.0 -99.0 -151.3 -104.85 -162.0 -132.0 -151.0 -140.0 -149.75 -129.05 M-199.9 -48.0 L-199.7 -48.65 -192.0 -69.0 -184.55 -64.2 M-188.2 8.85 L-209.0 -7.0 -184.0 -21.0 -197.0 -36.0 -206.0 -32.0 -199.9 -48.0 M-124.8 -152.95 L-116.45 -141.7 -110.0 -133.0 -129.75 -123.1 -148.0 -114.0 -149.7 -128.85 M-184.0 12.0 L-188.2 8.85" ffdec:has-small-stroke="true" ffdec:original-stroke-width="0.05" fill="none" stroke="#ffff00" stroke-linecap="round" stroke-linejoin="round" stroke-width="1.0"/>
    <path d="M124.45 -168.05 L137.45 -157.05 M98.45 -175.6 L118.45 -193.1 M99.45 -152.05 L97.45 -189.1 M112.45 -154.05 L112.95 -173.55 M135.5 -146.8 L157.0 -157.05 M98.45 -129.05 L84.45 -125.55 M131.45 -139.55 L100.45 -136.9 99.05 -122.75 112.95 -112.55 M97.95 -123.55 L99.05 -122.75 97.95 -111.55 M100.45 -136.9 L89.95 -136.05 M148.3 -119.8 L148.95 -120.55 M135.5 -146.8 L134.95 -146.55 M136.45 -105.55 L135.6 -105.55 127.95 -97.05 M135.6 -105.55 L123.45 -106.1 123.45 -105.05 M112.45 -106.55 L123.45 -106.1 122.95 -119.05 M135.6 -105.55 L148.3 -119.8 M183.55 -63.35 L194.1 -61.7 195.55 -61.45 204.05 -76.6 M138.95 -122.05 L156.65 -138.95 163.0 -145.05 M113.95 -166.05 L134.95 -174.55 M75.45 -191.6 L76.05 -191.9 76.85 -196.6 65.45 -196.6 M75.45 -188.6 L76.05 -191.9 88.95 -199.1 M77.45 -196.6 L76.85 -196.6 78.45 -206.1 M41.95 -181.6 L47.75 -192.1 47.45 -192.1 M59.8 -183.0 L59.45 -186.1 M59.8 -183.0 L61.9 -162.65 68.5 -154.4 68.95 -154.55 M54.95 -205.1 L47.75 -192.1 54.95 -192.1 M42.95 -179.6 L42.6 -178.8 38.4 -169.5 35.6 -163.2 39.95 -152.05 M60.45 -172.55 L49.45 -158.05 M61.9 -162.65 L61.95 -162.05 M56.45 -151.05 L68.5 -154.4 76.45 -144.55 M59.95 -165.05 L61.9 -162.65 M8.45 -193.1 L9.35 -194.45 17.45 -206.6 M-11.8 -180.5 L-13.2 -164.5 -4.8 -163.95 -5.05 -164.55 M17.95 -187.5 L17.75 -174.95 17.7 -172.65 17.45 -158.05 M16.2 -172.3 L9.45 -161.05 M16.2 -172.3 L16.95 -173.55 M35.6 -163.2 L29.45 -149.55 M38.4 -169.5 L22.45 -157.55 M85.45 -162.05 L75.85 -142.15 69.95 -130.05 M64.45 -151.05 L75.85 -142.15 M143.5 -85.6 L132.0 -78.1 M145.5 -92.6 L143.5 -77.1 M156.65 -138.95 L164.25 -135.9 172.0 -148.05 M164.0 -135.55 L164.25 -135.9 182.5 -128.55 M169.0 -132.55 L174.0 -123.05 M191.05 -101.1 L191.8 -101.25 195.55 -116.1 M202.55 -103.6 L191.8 -101.25 189.05 -90.6 M223.05 -85.1 L213.0 -82.25 217.55 -68.1 M212.55 -83.6 L213.0 -82.25 193.05 -76.6 M172.0 -70.1 L171.45 -69.25 183.55 -64.1 M171.45 -69.25 L162.0 -56.1 M171.45 -69.25 L162.5 -73.1 M194.1 -61.7 L196.55 -50.1 M195.55 -61.45 L201.05 -60.6 M182.05 -63.6 L183.55 -63.35 M195.6 -16.75 L213.55 -6.05 M182.55 -32.55 L163.5 -13.55 M191.55 -32.05 L162.5 -35.05 M195.05 -17.05 L195.6 -16.75 M206.1 14.8 L220.55 10.45 M209.55 -22.55 L223.55 -17.05 M209.55 -26.55 L205.05 -39.05 M204.05 -13.55 L215.05 -35.05 M30.45 -195.1 L18.45 -213.1 M164.0 -90.6 L133.5 -94.6 M183.05 -49.6 L153.0 -40.05 M208.55 39.9 L209.5 39.95 M204.9 48.2 L211.5 61.45 M210.5 40.45 L220.0 30.95 M204.0 46.45 L204.9 48.2 M171.5 108.05 L194.0 120.5 M206.1 14.8 L205.55 14.95 M186.05 3.95 L192.55 10.95 M208.55 39.9 L199.5 39.4 196.0 45.45 M187.0 44.45 L186.0 28.45 M163.0 42.45 L172.0 30.95 M199.5 39.4 L191.0 38.95 M177.5 66.95 L181.5 55.45 M183.0 91.0 L195.0 91.5 M166.5 93.0 L183.0 86.0 M170.5 52.95 L164.3 45.6 144.0 56.95 M188.0 78.45 L202.5 66.95 M170.5 107.5 L171.5 108.05 M155.0 138.5 L172.15 135.55 173.0 125.5 M172.0 137.0 L172.15 135.55 184.0 133.5 M179.5 102.0 L206.0 98.5 M148.85 114.75 L149.0 115.0 M160.2 91.55 L146.0 87.0 M33.0 193.5 L28.9 184.05 22.0 185.0 M28.9 184.05 L25.0 175.0 M68.95 185.05 L67.5 164.0 M69.0 186.0 L68.95 185.05 M-56.6 187.3 L-75.7 190.9 -70.55 204.0 M58.0 165.0 L74.0 155.5 M54.0 176.0 L57.0 158.0 M142.25 116.7 L148.7 122.95 149.0 122.0 M131.0 134.85 L129.5 134.5 M142.25 116.7 L141.0 115.5 M155.0 129.0 L148.7 122.95 146.0 131.5 M119.0 144.5 L119.5 126.5 M93.85 175.15 L93.45 175.0 M104.45 161.5 L103.45 173.0 M121.0 151.5 L106.45 151.5 M113.0 184.0 L108.5 195.0 M147.5 176.0 L146.0 181.5 M140.5 166.0 L156.5 163.5 M127.0 158.5 L154.5 180.5 M115.5 165.5 L123.0 172.0 M126.5 157.0 L110.0 134.0 M93.85 175.15 L127.5 186.5 M83.95 145.0 L79.45 152.5 M98.95 153.0 L73.95 139.0 M69.0 176.0 L86.0 162.0 M148.85 114.75 L136.0 93.5 M70.0 201.5 L79.5 206.5 M30.5 212.5 L33.4 211.4 24.0 198.5 M52.5 204.0 L33.4 211.4 36.0 215.0 M172.5 65.95 L156.5 66.45 M153.5 127.0 L165.0 125.5 M161.5 142.5 L168.0 159.0 M74.5 188.5 L61.5 216.0 M131.0 134.85 L174.5 145.0 M164.3 45.6 L152.0 30.95 M178.05 12.45 L191.05 -3.55 M-98.05 -197.1 L-88.9 -198.55 -91.55 -208.6 M-88.55 -198.6 L-88.9 -198.55 -83.05 -176.1 M-51.55 -206.1 L-51.05 -205.5 -47.05 -205.6 M-61.05 -187.6 L-73.05 -205.1 -51.05 -205.5 -43.05 -195.6 M-24.55 -205.1 L-26.25 -204.15 -20.0 -198.55 -7.55 -210.6 M-53.55 -189.6 L-26.25 -204.15 -39.05 -215.6 M-166.4 -99.55 L-167.6 -105.6 M-151.3 -104.85 L-153.1 -105.6 M-158.1 -117.6 L-176.5 -117.6 -181.6 -112.1 M-175.6 -118.6 L-176.5 -117.6 -186.6 -117.6 M-168.6 -119.1 L-181.6 -131.6 M-165.6 -149.1 L-172.1 -147.1 M-162.6 -88.55 L-167.6 -80.55 M-184.1 -84.55 L-191.1 -78.05 M-187.6 -53.6 L-187.1 -53.35 -181.1 -60.6 M-187.1 -53.35 L-180.6 -50.1 M-184.55 -64.2 L-181.6 -73.6 M-207.6 -65.6 L-206.2 -67.05 -224.6 -80.1 M-203.6 -88.05 L-206.1 -87.55 M-215.6 -24.1 L-223.1 -41.6 M-198.1 -14.55 L-213.5 -20.95 -225.1 -13.05 M-212.6 -21.6 L-213.5 -20.95 -224.6 -25.6 M-168.6 -33.1 L-169.35 -39.6 -184.6 -42.6 M-169.35 -39.6 L-170.1 -45.6 M-177.6 -12.55 L-166.6 -2.05 M-195.1 -0.55 L-170.1 -20.1 M-199.7 -48.65 L-194.6 -41.1 M-199.9 -48.0 L-207.1 -65.6 M-176.1 -84.05 L-216.6 -93.05 M-198.6 -75.1 L-206.2 -67.05 -200.6 -63.1 M-193.6 -45.6 L-187.1 -53.35 M-166.1 -98.05 L-166.4 -99.55 M-195.1 -97.55 L-184.1 -100.6 M-196.1 -90.05 L-195.1 -106.6 M-11.55 -183.6 L-11.8 -180.5 M-45.25 -179.25 L-38.05 -157.05 M-33.55 -196.6 L-21.05 -186.6 M-14.55 -149.55 L-13.2 -164.5 -13.55 -164.55 M1.95 -163.55 L-4.8 -163.95 -1.05 -155.55 M-45.25 -179.25 L-45.55 -180.1 M-74.05 -171.1 L-74.1 -169.35 -74.3 -163.55 -74.55 -157.55 -67.55 -144.05 M-94.6 -164.05 L-88.05 -164.05 -86.05 -164.05 M-44.05 -167.05 L-58.05 -155.55 M-26.55 -188.1 L-42.55 -184.6 M-74.55 -157.55 L-75.05 -144.05 M-117.55 -175.6 L-116.6 -173.95 -104.1 -165.75 -103.05 -169.1 M-112.55 -167.05 L-116.6 -173.95 -117.55 -174.6 M-104.55 -179.1 L-105.45 -178.9 -96.35 -173.15 M-126.05 -174.1 L-105.45 -178.9 -120.05 -188.1 M-103.05 -165.05 L-104.1 -165.75 -107.35 -155.25 -108.05 -153.05 M-94.6 -164.05 L-96.55 -164.05 M-124.9 -153.1 L-124.8 -152.95 M-116.45 -141.7 L-96.95 -135.25 -78.05 -129.05 M-88.05 -164.05 L-88.05 -154.05 M-146.6 -165.6 L-133.1 -172.1 M-157.1 -155.6 L-144.75 -154.65 -151.1 -170.1 M-124.9 -153.1 L-144.75 -154.65 -144.1 -153.1 M-132.1 -128.1 L-141.6 -128.1 M-149.75 -129.05 L-149.7 -128.85 -154.6 -118.6 M-129.75 -123.1 L-133.6 -136.1 M-129.75 -123.1 L-129.6 -122.6 M-133.1 -119.1 L-129.1 -103.6 M-151.3 -104.85 L-137.1 -99.05 M-96.95 -135.25 L-98.05 -126.05 M-120.55 -143.05 L-116.45 -141.7 M-139.6 -152.6 L-139.6 -138.6 M-82.55 -155.55 L-74.3 -163.55 M-163.6 -61.6 L-140.55 -67.1 M-186.6 -28.1 L-154.05 -36.1 M-164.6 -93.55 L-157.1 -80.05 M-156.6 -136.6 L-170.1 -158.1 M-5.95 -185.95 L-20.0 -198.55 -21.05 -197.6 M-141.1 89.0 L-132.1 83.0 M-152.1 68.0 L-142.6 74.0 M-94.05 138.5 L-98.55 144.05 -86.05 145.0 M-102.1 148.45 L-98.55 144.05 -99.05 144.0 M-111.6 146.5 L-133.9 165.7 -132.55 167.0 M-112.55 133.0 L-83.05 133.0 M-111.05 146.0 L-111.6 146.5 M-128.2 136.3 L-145.1 133.0 M-120.1 143.5 L-108.1 125.5 M-157.6 107.5 L-159.05 107.5 -176.1 107.5 M-128.2 136.3 L-124.6 137.0 M-158.55 159.0 L-144.35 155.45 -150.05 149.9 -153.55 146.5 M-142.55 155.0 L-144.35 155.45 -133.9 165.7 -143.55 174.0 M-85.55 185.5 L-82.8 175.1 -94.05 165.5 M-101.05 177.0 L-100.75 178.65 -96.55 203.0 M-56.6 187.3 L-55.05 187.0 M-104.05 164.5 L-117.55 161.0 M-102.1 148.45 L-102.55 149.0 M-111.05 163.0 L-127.05 179.5 M-150.05 149.9 L-154.55 130.45 M-80.05 167.5 L-72.05 166.0 M-89.55 193.5 L-75.7 190.9 -76.05 190.0 M-3.0 169.5 L-2.1 168.95 1.5 159.0 M-7.0 182.5 L-2.1 168.95 11.0 161.0 M-24.5 176.5 L-26.5 163.5 M-45.5 168.5 L-39.0 172.0 M-58.05 178.0 L-33.5 158.5 M-139.1 109.5 L-138.6 96.0 M-77.55 155.0 L-82.8 175.1 M-162.75 86.4 L-165.1 86.0 M-173.6 13.95 L-169.2 20.55 -167.75 20.3 -167.1 14.45 M-169.2 20.55 L-168.0 22.35 -167.75 20.3 -155.6 18.95 M-167.6 22.95 L-168.0 22.35 -168.8 29.3 -169.1 32.0 M-187.65 76.25 L-186.6 75.0 M-185.1 1.95 L-184.7 2.05 -181.1 -5.05 M-188.2 8.85 L-184.7 2.05 -169.1 5.95 M-188.2 8.85 L-192.1 16.45 M-190.1 24.95 L-200.35 29.5 -185.6 39.5 M-201.1 29.0 L-200.35 29.5 -206.6 32.3 -207.1 32.5 M-181.1 45.0 L-181.15 45.45 -178.1 49.0 M-184.6 41.5 L-181.15 45.45 -182.6 55.5 M-203.6 16.95 L-215.75 9.3 -226.1 14.95 M-215.1 8.95 L-215.75 9.3 -225.1 3.45 M-203.6 43.0 L-221.1 43.0 M-173.1 67.5 L-173.9 67.7 -173.1 76.0 M-184.6 70.5 L-173.9 67.7 -174.6 60.5 M-192.6 83.5 L-187.6 93.0 M-174.6 89.0 L-178.6 83.0 M-187.65 76.25 L-204.6 96.5 M-177.6 121.0 L-171.1 134.0 M-170.1 108.0 L-181.1 126.0 M-13.0 219.0 L-13.0 214.75 -29.5 216.5 M4.5 193.5 L-13.0 203.0 -13.0 214.75 -11.0 214.5 M-13.0 202.5 L-13.0 203.0 -19.5 206.5 M-122.6 93.5 L-162.75 86.4 M-38.0 189.5 L-39.0 218.5 M-162.1 114.0 L-128.1 110.0 M-164.6 74.0 L-138.6 59.5 M12.45 -201.1 L-7.55 -214.6" ffdec:has-small-stroke="true" ffdec:original-stroke-width="0.05" fill="none" stroke="#ffff00" stroke-linecap="round" stroke-linejoin="round" stroke-width="1.0"/>
  </g>
</svg>
