<?xml version="1.0" encoding="UTF-8" standalone="no"?>
<svg xmlns:ffdec="https://www.free-decompiler.com/flash" xmlns:xlink="http://www.w3.org/1999/xlink" ffdec:objectType="shape" height="420.6px" width="443.6px" xmlns="http://www.w3.org/2000/svg">
  <g transform="matrix(1.0, 0.0, 0.0, 1.0, 222.55, 215.1)">
    <path d="M7.05 -204.6 L16.4 -194.2 21.15 -203.55 27.05 -215.1 M139.1 -167.1 L142.1 -149.1 M124.6 -169.6 L140.1 -187.1 M106.6 -161.6 L87.1 -155.1 M98.1 -159.1 L85.6 -164.1 M108.1 -182.6 L108.05 -174.9 109.1 -175.6 M107.6 -132.55 L107.95 -168.6 108.05 -174.9 102.1 -171.1 M134.55 -121.1 L133.15 -120.35 149.55 -101.6 M117.55 -112.1 L133.15 -120.35 125.05 -129.6 M142.05 -111.1 L146.05 -124.1 M145.05 -139.6 L137.55 -131.1 M131.55 -124.6 L122.55 -143.6 M151.05 -137.6 L151.8 -138.1 122.55 -149.1 M108.1 -147.05 L132.1 -151.6 M125.55 -134.6 L114.55 -131.6 M86.1 -190.6 L122.6 -178.1 M152.1 -167.1 L107.95 -168.6 M63.05 -180.1 L57.05 -179.1 44.45 -177.05 48.05 -163.1 M41.55 -176.6 L44.45 -177.05 40.55 -192.1 M60.05 -188.6 L80.05 -189.1 M61.05 -178.6 L65.05 -158.1 M27.55 -184.1 L26.55 -182.9 38.05 -170.1 M26.55 -182.9 L22.35 -178.15 16.55 -171.6 M22.35 -178.15 L8.9 -180.75 4.55 -181.6 M16.4 -194.2 L26.55 -182.9 M16.05 -193.6 L16.4 -194.2 M63.05 -170.1 L88.6 -176.6 M89.6 -162.1 L65.05 -157.1 M156.55 -135.6 L148.05 -88.1 M198.55 -111.6 L175.75 -108.2 180.05 -106.6 M175.05 -108.1 L175.75 -108.2 171.3 -109.85 163.7 -89.1 164.55 -88.6 M171.55 -110.6 L171.3 -109.85 154.55 -116.1 M167.55 -93.6 L186.55 -84.1 M202.05 -74.6 L197.55 -93.6 M197.05 -33.05 L196.55 -32.4 201.5 -29.4 221.05 -41.05 M187.05 -20.55 L187.4 -20.1 196.55 -32.4 178.35 -43.4 166.05 -38.55 M165.05 -61.1 L165.05 -47.1 165.05 -32.55 M172.05 0.45 L181.6 -12.35 171.05 -19.55 M201.55 1.45 L203.65 1.2 187.4 -20.1 181.6 -12.35 183.55 -11.05 M168.05 -68.6 L210.55 -49.6 M191.55 -59.1 L210.05 -82.6 M201.5 -29.4 L209.55 -24.55 M178.35 -43.4 L194.05 -49.6 M35.05 -197.1 L50.05 -207.1 M80.05 -175.6 L88.6 -202.1 M179.05 -87.1 L159.05 -55.1 M151.05 -32.55 L165.05 -47.1 M160.05 -79.1 L163.7 -89.1 157.55 -92.6 M60.05 -200.6 L57.05 -179.1 M172.05 -152.1 L151.8 -138.1 169.05 -131.6 M46.55 -189.1 L21.15 -203.55 M220.05 -1.05 L203.65 1.2 209.55 8.95 M198.55 -5.05 L183.9 8.05 209.55 15.45 216.55 17.45 M173.55 26.45 L175.0 32.0 192.55 17.45 M176.55 37.95 L175.0 32.0 M183.9 8.05 L177.8 13.5 178.55 14.45 M170.05 20.45 L177.8 13.5 169.55 2.95 M183.55 7.95 L183.9 8.05 M193.55 35.95 L174.75 53.65 190.0 69.2 200.55 79.95 M190.0 69.2 L185.15 84.0 185.55 83.95 M174.75 53.65 L167.5 60.45 168.55 61.45 M174.05 52.95 L174.75 53.65 M198.05 47.95 L209.55 15.45 M163.05 110.5 L163.55 140.0 M179.55 100.95 L185.15 84.0 157.65 86.25 150.6 96.55 171.55 119.0 M149.55 95.45 L150.6 96.55 143.05 107.45 M157.65 86.25 L151.4 86.8 143.05 87.45 M151.4 86.8 L141.55 74.95 M157.65 86.25 L158.55 84.95 M5.55 199.5 L26.35 189.45 16.5 165.8 16.05 165.95 M9.05 147.95 L16.5 165.8 36.55 158.45 M26.55 190.0 L26.35 189.45 49.7 178.15 47.25 176.85 46.55 177.45 M22.05 173.95 L30.05 177.45 M32.05 190.5 L39.55 194.0 M39.05 172.45 L47.25 176.85 58.55 166.95 M51.05 177.45 L49.7 178.15 62.5 184.95 71.55 157.45 M63.55 185.5 L62.5 184.95 58.05 198.5 M136.05 136.5 L157.05 132.0 M134.05 130.5 L147.05 124.0 M131.05 113.5 L130.55 102.95 M115.05 149.5 L110.7 166.55 106.05 184.5 M97.05 153.0 L95.8 154.1 96.05 154.35 97.55 153.0 M95.8 154.1 L87.4 161.3 88.1 161.5 96.05 154.35 110.7 166.55 M83.05 165.0 L87.4 161.3 49.55 150.45 M135.05 118.0 L119.55 126.5 M128.05 123.5 L140.55 151.5 M131.05 132.0 L90.05 131.5 M110.05 133.5 L123.55 173.5 M120.05 157.5 L135.55 163.0 M95.8 154.1 L86.05 146.0 M67.05 175.45 L87.05 188.0 M79.05 182.45 L97.55 175.95 M78.55 170.0 L88.1 161.5 M201.55 33.45 L154.05 43.45 M161.55 103.45 L176.05 102.95 M21.55 192.5 L25.55 205.5 M162.05 120.5 L119.55 112.0 M161.05 66.45 L167.5 60.45 157.05 50.45 M-13.95 -203.6 L-8.45 -212.1 M-179.0 -100.1 L-179.4 -99.4 -170.5 -103.6 M-195.5 -36.6 L-189.15 -62.85 -197.0 -64.05 -206.0 -60.05 -164.8 -84.1 -173.85 -125.5 -174.0 -126.1 M-164.5 -82.6 L-164.8 -84.1 M-173.5 -60.55 L-174.05 -60.6 -179.0 -8.05 -182.5 -32.05 -195.0 -13.25 -195.15 -11.25 -194.5 -9.55 M-189.0 -63.6 L-189.15 -62.85 -174.05 -60.6 -174.0 -61.55 M-193.5 -49.1 L-198.5 -49.1 M-195.0 -13.25 L-195.6 -12.5 -195.15 -11.25 -197.2 22.95 -177.45 18.95 -160.0 15.45 M-176.0 -22.55 L-162.6 -17.6 -153.0 -25.05 M-164.0 -16.55 L-162.6 -17.6 -147.5 -12.05 M-195.6 -12.5 L-205.5 -39.05 M-189.5 -96.6 L-194.5 -107.6 M-190.0 -82.1 L-179.4 -99.4 -196.0 -91.6 M-20.45 -182.6 L-7.95 -166.6 M8.9 -180.75 L-3.7 -192.4 -36.45 -175.1 -37.45 -174.6 M-30.45 -179.1 L-32.95 -192.6 M-2.45 -193.1 L-3.7 -192.4 -4.45 -193.1 M-10.95 -196.1 L-11.9 -196.3 -8.95 -190.6 M-52.45 -190.1 L-71.95 -168.6 M-72.95 -170.1 L-67.95 -193.1 -87.05 -171.1 -105.9 -138.5 -106.0 -137.6 M-60.95 -177.1 L-57.95 -158.6 M-41.95 -183.1 L-41.95 -197.6 -64.45 -207.6 M-77.45 -183.1 L-77.6 -190.1 -89.95 -189.6 M-58.95 -169.1 L-38.95 -166.1 M-36.45 -175.1 L-52.45 -192.6 M-128.5 -166.6 L-100.0 -177.2 -111.5 -194.6 M-99.0 -177.6 L-100.0 -177.2 -91.95 -165.1 M-87.05 -171.1 L-87.95 -170.1 M-144.0 -116.6 L-136.5 -99.6 M-148.0 -142.6 L-143.4 -128.75 -142.05 -144.1 -142.0 -144.6 M-143.0 -127.6 L-143.4 -128.75 -145.5 -104.6 M-113.0 -126.1 L-98.5 -127.1 M-105.9 -138.5 L-107.0 -136.6 M-125.5 -145.1 L-110.5 -121.1 M-117.0 -171.6 L-129.0 -182.6 M-130.0 -148.1 L-146.0 -160.6 M-135.5 -154.1 L-115.5 -161.1 M-95.45 -155.1 L-84.45 -136.1 M-120.5 -135.1 L-132.5 -116.6 M-142.05 -144.1 L-104.5 -151.6 -105.9 -138.5 M-142.5 -80.6 L-154.55 -93.6 -157.0 -86.1 M-150.5 -106.1 L-154.55 -93.6 M-157.0 -113.6 L-166.0 -148.6 M-163.5 -140.1 L-154.0 -151.6 M-177.0 -76.6 L-157.0 -65.6 M-175.5 -39.55 L-161.5 -56.05 M-41.95 -197.6 L-41.95 -208.1 M-77.6 -190.1 L-77.95 -202.1 M-33.95 -201.1 L-11.9 -196.3 -20.45 -212.6 M-146.0 -104.6 L-173.85 -125.5 M-159.5 92.95 L-158.7 94.35 -148.6 97.35 -146.7 93.35 -148.0 92.95 M-143.0 85.45 L-146.7 93.35 -130.0 98.45 M-148.0 97.5 L-148.6 97.35 -156.0 112.95 M-98.0 146.95 L-102.5 134.95 M-115.0 119.45 L-120.15 118.9 -109.5 132.95 M-143.0 116.45 L-140.4 116.75 -134.5 107.95 M-131.0 116.45 L-126.0 103.45 M-152.0 133.95 L-145.15 123.8 -164.0 106.45 M-126.0 135.45 L-141.0 130.95 M-127.0 140.45 L-122.0 126.95 M-140.0 144.45 L-140.8 143.85 -141.5 143.95 M-145.15 123.8 L-140.4 116.75 -120.15 118.9 -122.0 116.45 M-171.0 121.95 L-146.4 139.8 -140.8 143.85 -111.5 139.95 M-91.45 168.95 L-91.9 166.95 -93.95 167.4 -93.95 196.0 M-93.95 165.95 L-93.95 167.4 -100.6 168.9 -107.5 170.45 M-95.45 151.95 L-91.9 166.95 -69.0 161.7 -66.95 136.95 M-113.0 159.95 L-81.95 139.45 M-101.0 147.95 L-122.0 145.95 M-100.6 168.9 L-129.5 152.45 M-150.5 150.45 L-146.4 139.8 M-53.45 173.95 L-79.45 181.45 M-64.95 150.95 L-40.95 152.95 M-67.95 161.45 L-69.0 161.7 -70.45 178.45 M-8.95 190.0 L-34.45 159.95 M-16.95 182.95 L-25.95 193.0 M8.05 183.45 L-0.65 171.25 -10.45 183.45 M-1.95 169.45 L-0.65 171.25 9.55 158.45 M-23.95 174.45 L-54.45 197.0 M-39.95 179.95 L-58.95 163.95 M-92.95 183.45 L-68.95 189.5 M-93.45 157.95 L-79.95 152.95 M-153.5 103.45 L-158.7 94.35 -183.8 87.0 -179.5 110.5 M-163.5 32.45 L-165.0 47.45 M-149.5 40.45 L-173.35 22.1 -186.5 32.95 M-177.45 18.95 L-173.35 22.1 -172.0 20.95 M-197.2 22.95 L-198.0 35.95 M-217.0 32.45 L-215.55 12.35 -222.55 15.95 M-215.5 11.45 L-215.55 12.35 -198.5 3.45 M-167.0 73.0 L-173.0 84.5 M-183.8 87.0 L-194.0 84.0 -163.0 54.45 M-192.5 50.45 L-192.95 57.1 -191.0 61.45 M-192.95 57.1 L-193.0 57.95 M-183.8 87.0 L-184.0 86.0 M-163.0 53.95 L-199.5 36.45 M-186.5 44.45 L-213.0 69.0 M-203.0 62.45 L-197.5 72.0 M-182.0 104.0 L-197.5 104.5 M-39.95 187.5 L-22.45 199.5 M-5.95 191.5 L-0.45 202.0 M-175.5 68.5 L-156.5 74.5 M-184.5 18.45 L-167.0 -0.55 M-175.0 6.95 L-182.5 -2.55 M-14.45 -175.6 L3.05 -174.6 M-1.45 -191.1 L1.55 -206.1 M3.55 177.95 L-12.45 195.5" ffdec:has-small-stroke="true" ffdec:original-stroke-width="0.05" fill="none" stroke="#ffffff" stroke-linecap="round" stroke-linejoin="round" stroke-width="1.0"/>
  </g>
</svg>
