<?xml version="1.0" encoding="UTF-8" standalone="no"?>
<svg xmlns:ffdec="https://www.free-decompiler.com/flash" xmlns:xlink="http://www.w3.org/1999/xlink" ffdec:objectType="shape" height="30.65px" width="21.4px" xmlns="http://www.w3.org/2000/svg">
  <g transform="matrix(1.0, 0.0, 0.0, 1.0, 131.95, 19.25)">
    <path d="M-122.85 -1.85 Q-122.85 -0.45 -121.9 0.5 -120.95 1.45 -119.5 1.45 -118.1 1.45 -117.15 0.5 -116.2 -0.45 -116.2 -1.85 -116.2 -3.25 -117.2 -4.2 -118.15 -5.2 -119.5 -5.2 -120.95 -5.2 -121.9 -4.25 -122.85 -3.3 -122.85 -1.85 M-130.8 -18.1 Q-129.65 -19.25 -128.05 -19.25 L-127.75 -19.25 Q-126.2 -19.25 -125.05 -18.1 -123.9 -16.95 -123.9 -15.35 L-123.9 -9.5 -121.2 -9.8 Q-116.75 -9.8 -113.65 -6.75 -110.55 -3.65 -110.55 0.75 -110.55 5.2 -113.65 8.3 -116.75 11.4 -121.2 11.4 -123.6 11.4 -125.8 10.35 -126.7 10.9 -127.75 10.9 L-128.05 10.9 Q-129.65 10.9 -130.8 9.75 -131.95 8.6 -131.95 7.05 L-131.95 -15.35 Q-131.95 -16.95 -130.8 -18.1 M-114.55 -2.2 Q-115.55 -2.2 -115.55 -1.15 -115.55 -0.15 -114.55 -0.15 -113.5 -0.15 -113.5 -1.15 -113.5 -2.2 -114.55 -2.2 M-113.5 2.65 Q-113.5 1.85 -114.1 1.25 -114.65 0.7 -115.5 0.7 -116.3 0.7 -116.85 1.25 -117.4 1.85 -117.4 2.65 -117.4 3.45 -116.85 4.0 -116.3 4.6 -115.5 4.6 -114.65 4.6 -114.1 4.0 -113.5 3.45 -113.5 2.65" fill="#ffffff" fill-rule="evenodd" stroke="none"/>
  </g>
</svg>
