<?xml version="1.0" encoding="UTF-8" standalone="no"?>
<svg xmlns:ffdec="https://www.free-decompiler.com/flash" xmlns:xlink="http://www.w3.org/1999/xlink" ffdec:objectType="shape" height="22.05px" width="22.05px" xmlns="http://www.w3.org/2000/svg">
  <g transform="matrix(1.0, 0.0, 0.0, 1.0, 11.0, 11.05)">
    <path d="M10.8 -0.05 Q10.8 4.45 7.65 7.6 4.5 10.75 0.0 10.75 -4.5 10.75 -7.6 7.6 -10.8 4.45 -10.75 -0.05 -10.8 -4.55 -7.6 -7.65 -4.5 -10.85 0.0 -10.8 4.5 -10.85 7.65 -7.65 10.8 -4.55 10.8 -0.05 M6.75 1.75 Q6.2 0.85 5.05 0.9 L5.05 0.95 4.5 1.05 4.1 1.15 3.5 1.9 3.05 2.5 3.05 3.05 3.05 3.7 3.15 3.9 3.85 4.65 Q6.75 4.85 6.85 2.05 L6.75 1.75 M1.8 5.0 Q1.55 3.9 0.4 3.8 L-0.05 3.9 Q-0.8 4.1 -1.05 4.85 -1.5 6.6 0.4 6.9 L1.1 6.6 Q1.9 6.15 2.0 5.25 L1.8 5.0 M-5.25 -3.65 Q-5.7 -4.45 -6.6 -4.5 L-7.15 -4.3 Q-8.9 -3.25 -9.0 -1.25 -8.2 0.2 -6.55 -0.3 L-6.05 -0.65 Q-4.9 -1.9 -5.2 -3.4 L-5.25 -3.65 M-2.55 -8.05 Q-3.3 -7.95 -3.55 -7.2 -4.0 -5.45 -2.05 -5.05 L-1.4 -5.4 Q-0.45 -5.85 -0.45 -6.7 L-0.65 -7.05 Q-0.9 -8.15 -2.05 -8.25 L-2.55 -8.05" fill="#7d0cba" fill-rule="evenodd" stroke="none"/>
    <path d="M6.75 1.75 L6.85 2.05 Q6.75 4.85 3.85 4.65 L3.15 3.9 3.05 3.7 3.05 3.05 3.05 2.5 3.5 1.9 4.1 1.15 4.5 1.05 5.05 0.95 5.05 0.9 Q6.2 0.85 6.75 1.75 M1.8 5.0 L2.0 5.25 Q1.9 6.15 1.1 6.6 L0.4 6.9 Q-1.5 6.6 -1.05 4.85 -0.8 4.1 -0.05 3.9 L0.4 3.8 Q1.55 3.9 1.8 5.0" fill="#b043f1" fill-rule="evenodd" stroke="none"/>
    <path d="M-2.55 -8.05 L-2.05 -8.25 Q-0.9 -8.15 -0.65 -7.05 L-0.45 -6.7 Q-0.45 -5.85 -1.4 -5.4 L-2.05 -5.05 Q-4.0 -5.45 -3.55 -7.2 -3.3 -7.95 -2.55 -8.05 M-5.25 -3.65 L-5.2 -3.4 Q-4.9 -1.9 -6.05 -0.65 L-6.55 -0.3 Q-8.2 0.2 -9.0 -1.25 -8.9 -3.25 -7.15 -4.3 L-6.6 -4.5 Q-5.7 -4.45 -5.25 -3.65" fill="#f2dffd" fill-rule="evenodd" stroke="none"/>
    <path d="M10.8 -0.05 Q10.8 4.45 7.65 7.6 4.5 10.75 0.0 10.75 -4.5 10.75 -7.6 7.6 -10.8 4.45 -10.75 -0.05 -10.8 -4.55 -7.6 -7.65 -4.5 -10.85 0.0 -10.8 4.5 -10.85 7.65 -7.65 10.8 -4.55 10.8 -0.05 Z" ffdec:has-small-stroke="true" ffdec:original-stroke-width="0.5" fill="none" stroke="#ffffff" stroke-linecap="round" stroke-linejoin="round" stroke-width="1.0"/>
  </g>
</svg>
