<?xml version="1.0" encoding="UTF-8" standalone="no"?>
<svg xmlns:ffdec="https://www.free-decompiler.com/flash" xmlns:xlink="http://www.w3.org/1999/xlink" ffdec:objectType="shape" height="2.85px" width="2.8px" xmlns="http://www.w3.org/2000/svg">
  <g transform="matrix(1.0, 0.0, 0.0, 1.0, 1.45, 1.35)">
    <path d="M-0.45 -0.1 L0.0 -0.35 0.0 -0.4 0.15 -0.25 Q0.6 0.15 0.4 0.3 L-0.25 0.4 -0.3 0.4 -0.5 0.3 -0.45 -0.1 -0.05 0.1 -0.25 0.4 -0.05 0.1 -0.45 -0.1 M0.4 0.3 L-0.05 0.1 0.15 -0.25 -0.05 0.1 0.4 0.3" fill="#d5f2ff" fill-rule="evenodd" stroke="none"/>
    <path d="M0.15 -0.25 L0.45 -0.85 M0.4 0.3 L0.85 0.5 M-0.45 -0.1 L-0.95 -0.35 M-0.25 0.4 L-0.05 0.1 -0.45 -0.1 M-0.25 0.4 L-0.6 1.0 M0.15 -0.25 L-0.05 0.1 0.4 0.3" fill="none" stroke="#d5f2ff" stroke-linecap="round" stroke-linejoin="round" stroke-width="1.0"/>
  </g>
</svg>
