<?xml version="1.0" encoding="UTF-8" standalone="no"?>
<svg xmlns:ffdec="https://www.free-decompiler.com/flash" xmlns:xlink="http://www.w3.org/1999/xlink" ffdec:objectType="shape" height="6.3px" width="5.3px" xmlns="http://www.w3.org/2000/svg">
  <g transform="matrix(1.0, 0.0, 0.0, 1.0, 2.65, 3.45)">
    <path d="M0.1 -0.3 L0.15 -0.25 Q0.6 0.15 0.4 0.3 L-0.05 0.05 0.4 0.3 -0.05 0.1 -0.25 0.4 -0.05 0.1 0.4 0.3 -0.25 0.4 -0.3 0.4 -0.1 0.05 0.1 -0.3 -0.1 0.05 -0.05 0.05 -0.1 0.05 -0.4 -0.1 -0.1 0.05 -0.05 0.1 -0.05 0.05 0.15 -0.25 -0.05 0.05 -0.05 0.1 -0.1 0.05 -0.3 0.4 -0.5 0.3 -0.45 -0.1 -0.4 -0.1 Q-0.3 -0.3 0.0 -0.35 L0.0 -0.4 0.1 -0.3 M-0.45 -0.1 L-0.1 0.05 -0.45 -0.1" fill="#d5f2ff" fill-rule="evenodd" stroke="none"/>
    <path d="M0.15 -0.25 L0.4 -0.9 M0.4 0.3 L0.85 0.55 M-0.05 0.05 L0.15 -0.25 M-0.9 -0.4 L-0.45 -0.1 -0.1 0.05 -0.05 0.1 -0.05 0.05 M0.4 0.3 L-0.05 0.1 -0.25 0.4 -0.6 1.0" fill="none" stroke="#d5f2ff" stroke-linecap="round" stroke-linejoin="round" stroke-width="1.0"/>
    <path d="M0.4 -0.9 L0.1 -0.3 -0.1 0.05 -0.05 0.05 0.4 0.3 M0.85 0.55 L2.15 1.25 M0.4 -0.9 L1.45 -2.95 M-0.4 -0.1 L-0.9 -0.4 -2.15 -1.05 M-0.4 -0.1 L-0.1 0.05 -0.3 0.4 -0.6 1.0 -1.3 2.35" fill="none" stroke="#d5f2ff" stroke-linecap="round" stroke-linejoin="round" stroke-width="1.0"/>
  </g>
</svg>
