<?xml version="1.0" encoding="UTF-8" standalone="no"?>
<svg xmlns:ffdec="https://www.free-decompiler.com/flash" xmlns:xlink="http://www.w3.org/1999/xlink" ffdec:objectType="shape" height="19.9px" width="9.15px" xmlns="http://www.w3.org/2000/svg">
  <g transform="matrix(1.0, 0.0, 0.0, 1.0, 4.1, 10.15)">
    <path d="M0.1 -0.3 L0.55 0.1 0.05 0.05 0.0 0.05 0.05 0.05 0.55 0.1 0.0 0.45 0.05 0.1 0.0 0.45 -0.05 0.5 0.0 0.1 0.05 0.1 0.55 0.1 0.05 0.1 0.0 0.1 -0.05 0.5 -0.3 0.45 -0.4 0.1 -0.4 0.05 -0.35 0.0 -0.05 -0.35 -0.1 -0.4 0.0 -0.3 0.05 -0.3 0.05 -0.1 0.05 -0.2 0.05 -0.1 0.05 -0.3 0.05 -0.2 0.05 -0.3 0.1 -0.3 0.05 -0.2 0.1 -0.3 M-0.05 0.05 L0.0 -0.3 -0.05 0.05 0.0 0.05 -0.05 0.05 -0.35 0.0 -0.05 0.05 0.0 0.1 0.0 0.05 0.05 -0.1 0.05 0.05 0.05 -0.1 0.0 0.05 0.0 0.1 -0.05 0.05 -0.4 0.05 -0.05 0.05 0.0 0.1 -0.4 0.1 0.0 0.1 -0.05 0.05 M0.05 -0.2 L0.05 0.05 0.05 -0.2 M0.05 0.05 L0.05 0.1 0.0 0.1 0.05 0.1 0.0 0.1 0.05 0.1 0.05 0.05 M0.05 0.1 L0.55 0.1 0.05 0.1 0.0 0.45 0.05 0.1" fill="#d5f2ff" fill-rule="evenodd" stroke="none"/>
    <path d="M0.15 -1.25 L0.3 -3.0 0.2 -2.15 0.05 -0.95 0.0 -0.3 -0.05 0.05 0.0 0.1 0.0 0.05 0.05 -0.1 0.05 0.05 0.05 0.1 0.0 0.1 0.05 0.1 0.0 0.1 -0.05 0.5 -0.1 1.15 0.0 0.45 0.05 0.1 0.55 0.1 0.05 0.1 M0.15 -1.25 L0.05 -0.4 0.1 -0.3 0.05 -0.2 0.05 -0.1 0.05 -0.3 M0.05 -0.4 L0.05 -0.95 M0.55 0.1 L1.55 0.2 M0.4 -4.05 L0.3 -3.0 M-0.4 0.1 L-0.95 -0.05 -2.35 -0.2 M-0.4 0.05 L-0.05 0.05 0.0 0.1 -0.4 0.1 M-0.1 1.15 L-0.2 2.7 M-0.1 1.6 L0.0 0.45 M-0.4 0.05 L-0.95 -0.05" fill="none" stroke="#d5f2ff" stroke-linecap="round" stroke-linejoin="round" stroke-width="1.0"/>
    <path d="M0.2 -2.15 L0.15 -1.25 M0.55 0.1 L1.55 0.2 4.55 0.5 M0.05 -0.2 L0.05 -0.3 0.05 -0.4 M-0.05 0.05 L0.0 0.05 0.05 0.05 0.55 0.1 M0.05 0.05 L0.05 -0.2 M-0.35 0.0 L-0.05 0.05 M0.2 -2.15 L0.4 -4.05 0.8 -9.65 M0.05 0.1 L0.0 0.45 -0.1 1.6 -0.2 2.7 -0.4 5.15 M-2.35 -0.2 L-3.6 -0.35 M-2.35 -0.2 L-0.35 0.0 M-0.65 7.35 L-0.8 9.25" fill="none" stroke="#d5f2ff" stroke-linecap="round" stroke-linejoin="round" stroke-width="1.0"/>
  </g>
</svg>
