<?xml version="1.0" encoding="UTF-8" standalone="no"?>
<svg xmlns:ffdec="https://www.free-decompiler.com/flash" xmlns:xlink="http://www.w3.org/1999/xlink" ffdec:objectType="shape" height="25.8px" width="13.25px" xmlns="http://www.w3.org/2000/svg">
  <g transform="matrix(1.0, 0.0, 0.0, 1.0, 4.3, 14.2)">
    <path d="M0.05 -0.3 L0.1 -0.25 0.15 -0.25 0.65 0.1 0.15 0.05 0.65 0.1 0.65 0.15 0.15 0.15 0.15 0.1 0.65 0.1 0.15 0.1 0.15 0.15 0.65 0.15 0.15 0.5 0.1 0.5 0.15 0.15 0.15 0.5 0.15 0.15 0.1 0.5 0.1 0.55 0.05 0.55 0.05 0.15 0.05 0.55 0.1 0.15 0.05 0.15 0.1 0.15 0.05 0.1 0.05 0.15 0.05 0.1 0.05 0.05 0.05 -0.1 0.05 -0.3 0.05 -0.1 0.05 0.05 0.1 0.05 0.1 -0.25 0.1 0.05 0.15 -0.05 0.15 -0.25 0.15 -0.15 0.15 0.05 0.15 -0.15 0.15 -0.25 0.15 -0.05 0.1 0.05 0.05 0.05 0.05 0.1 -0.25 0.05 0.05 0.1 0.1 0.15 0.05 0.55 -0.15 0.55 -0.3 0.15 -0.25 0.05 0.05 0.05 0.05 0.1 0.05 0.05 -0.25 0.05 0.0 -0.3 0.0 -0.35 0.05 -0.3 M0.1 -0.25 L0.05 -0.1 0.1 -0.25 M0.1 0.1 L0.1 0.05 0.1 0.1 0.1 0.05 0.1 0.1 0.1 0.15 0.1 0.1 0.1 0.15 0.15 0.15 0.1 0.15 0.15 0.15 0.1 0.15 0.15 0.15 0.1 0.15 0.1 0.1 0.05 0.1 -0.3 0.15 0.05 0.1 0.1 0.1 0.15 0.1 0.15 0.05 0.1 0.05 0.15 0.05 0.15 -0.05 0.15 -0.15 0.15 -0.25 0.15 -0.15 0.15 -0.05 0.15 0.05 0.15 0.1 0.1 0.1 M0.05 0.15 L-0.3 0.15 0.05 0.15 M0.1 0.15 L0.1 0.55 0.1 0.15 M0.15 0.15 L0.65 0.15 0.15 0.15 M0.05 0.05 L0.05 -0.1 0.05 0.05" fill="#d5f2ff" fill-rule="evenodd" stroke="none"/>
    <path d="M0.25 -7.0 L0.25 -3.45 0.25 -3.35 0.25 -2.95 0.2 -1.55 0.15 -0.35 0.15 -0.25 0.15 -0.35 0.1 -0.9 0.2 -2.1 0.2 -2.55 0.25 -3.35 M0.2 -2.55 L0.25 -2.95 M0.2 -1.55 L0.2 -2.1 M0.15 -0.25 L0.15 -0.15 0.15 0.05 0.15 -0.05 0.15 -0.15 0.15 -0.25 0.15 -0.05 0.1 0.05 0.1 0.1 0.05 0.1 -0.25 0.05 -1.35 0.0 -1.8 0.0 -0.85 0.05 -0.3 0.15 0.05 0.15 0.1 0.15 0.05 0.1 0.05 0.05 0.05 -0.1 0.1 -0.25 M0.65 0.1 L1.65 0.15 3.85 0.25 4.35 0.25 4.7 0.3 M0.65 0.1 L0.15 0.1 0.15 0.15 0.65 0.15 1.65 0.15 M-0.3 0.15 L0.05 0.1 M0.05 0.55 L0.1 0.15 0.15 0.15 0.1 0.15 0.1 0.1 0.15 0.1 0.15 0.05 M0.15 0.15 L0.1 0.15 M0.15 0.5 L0.15 0.15 0.1 0.5 0.1 1.65 0.15 0.5 M0.65 0.15 L0.15 0.15 M0.1 0.85 L0.1 0.5 M0.05 1.2 L0.1 0.85 M0.05 2.4 L0.05 2.75 0.1 1.65 M-0.3 0.15 L-0.85 0.05 M0.05 2.75 L0.05 3.25 M-2.25 -0.05 L-1.8 0.0" fill="none" stroke="#d5f2ff" stroke-linecap="round" stroke-linejoin="round" stroke-width="1.0"/>
    <path d="M0.25 -8.1 L0.25 -7.0 0.15 -3.45 0.1 -3.45 Q-1.15 -3.35 -2.05 -2.3 -2.9 -1.35 -3.0 -0.05 M0.25 -3.45 L0.4 -3.45 Q1.35 -3.45 2.15 -2.95 M0.1 -0.25 L0.1 -0.9 0.15 -3.45 0.25 -3.45 M3.85 0.2 L3.55 -1.15 M3.85 0.25 L3.85 0.2 M0.1 -0.25 L0.1 0.05 0.1 0.1 0.1 0.15 0.1 0.55 0.1 0.85 0.05 2.05 0.05 2.4 0.05 2.9 M3.85 0.25 L3.85 0.45 Q3.85 2.05 2.85 3.2 1.85 4.35 0.4 4.35 L0.0 4.35 0.05 3.25 M0.0 5.25 L0.0 6.35" fill="none" stroke="#d5f2ff" stroke-linecap="round" stroke-linejoin="round" stroke-width="1.0"/>
    <path d="M0.1 -3.45 L0.05 -0.3 0.05 -0.1 0.05 0.05 0.1 0.05 0.15 0.05 0.65 0.1 3.85 0.2 4.35 0.25 M0.1 -3.45 L0.25 -8.1 0.35 -13.7 M6.65 0.5 L8.45 0.6 M0.0 4.35 L0.0 5.25 M0.05 0.1 L0.05 0.15 0.05 0.55 0.05 1.2 0.05 2.05 0.05 2.9 0.05 3.25 M0.05 0.1 L0.05 0.05 -0.25 0.05 -1.35 0.0 M-3.0 -0.05 L-2.25 -0.05 M-3.0 -0.05 L-3.8 -0.1" fill="none" stroke="#ffffff" stroke-linecap="round" stroke-linejoin="round" stroke-width="1.0"/>
    <path d="M-0.05 9.2 L-0.1 11.1" fill="none" stroke="#ffffff" stroke-linecap="round" stroke-linejoin="round" stroke-width="1.0"/>
  </g>
</svg>
