<?xml version="1.0" encoding="UTF-8" standalone="no"?>
<svg xmlns:ffdec="https://www.free-decompiler.com/flash" xmlns:xlink="http://www.w3.org/1999/xlink" ffdec:objectType="shape" height="19.55px" width="9.05px" xmlns="http://www.w3.org/2000/svg">
  <g transform="matrix(1.0, 0.0, 0.0, 1.0, 4.0, 9.8)">
    <path d="M0.6 0.1 L0.1 0.2 0.05 -0.05 0.05 -0.15 0.05 -0.05 0.1 0.2 0.6 0.1 0.1 0.25 0.15 0.6 0.1 0.25 0.6 0.1 0.1 0.25 0.1 0.2 0.1 0.25 0.6 0.1 0.2 0.6 0.15 0.6 0.15 0.65 0.05 0.25 0.1 0.25 0.05 0.25 0.15 0.65 -0.1 0.7 -0.3 0.35 0.05 0.25 0.1 0.25 0.05 0.2 0.1 0.25 0.05 0.25 -0.3 0.35 -0.3 0.3 -0.3 0.25 -0.1 -0.15 -0.15 -0.2 -0.05 -0.15 0.05 -0.15 Q0.6 -0.15 0.6 0.1 M0.05 -0.05 L0.05 0.05 0.05 -0.15 0.05 0.05 0.05 -0.05 M0.05 0.2 L0.1 0.2 0.05 0.2 0.05 0.05 0.1 0.2 0.05 0.05 0.05 0.2 0.0 0.2 0.05 0.2 M0.1 0.25 L0.2 0.6 0.1 0.25 M0.05 0.25 L0.0 0.25 0.0 0.2 0.0 0.25 0.05 0.25 M0.0 0.2 L-0.05 -0.15 0.0 0.2 -0.3 0.25 0.0 0.2 M0.0 0.25 L-0.3 0.3 0.0 0.25" fill="#d5f2ff" fill-rule="evenodd" stroke="none"/>
    <path d="M0.05 -0.15 L0.05 -0.05 0.1 0.2 0.6 0.1 1.55 -0.1 4.55 -0.65 M0.05 -0.15 L0.0 -0.25 M0.1 0.2 L0.05 0.2 0.0 0.2 -0.3 0.25 -2.25 0.6 -3.5 0.85 M0.2 0.6 L0.1 0.25 M0.65 2.8 L0.4 1.7 0.2 0.6 M0.65 2.8 L1.1 5.2 M1.55 7.4 L1.9 9.25 M-0.7 -3.55 L-1.9 -9.3" fill="none" stroke="#d5f2ff" stroke-linecap="round" stroke-linejoin="round" stroke-width="1.0"/>
    <path d="M0.0 -0.25 L-0.15 -0.8 -0.05 -0.15 0.0 0.2 0.0 0.25 0.05 0.25 0.15 0.65 0.25 1.3 0.15 0.6 0.1 0.25 0.6 0.1 0.1 0.25 0.1 0.2 0.05 0.05 0.05 -0.05 M0.05 -0.15 L0.05 0.05 0.05 0.2 0.1 0.25 0.05 0.25 -0.3 0.35 -0.85 0.4 -0.3 0.3 0.0 0.25 M0.1 0.25 L0.05 0.25 M0.6 0.1 L1.55 -0.1 M0.4 1.7 L0.15 0.6 M0.25 1.3 L0.65 2.8 M-0.15 -0.8 L-0.35 -2.0 -0.7 -3.55 M0.0 -0.25 L-0.35 -2.0 M-2.25 0.6 L-0.85 0.4 M0.0 -0.25 L0.05 -0.15" fill="none" stroke="#d5f2ff" stroke-linecap="round" stroke-linejoin="round" stroke-width="1.0"/>
  </g>
</svg>
