<?xml version="1.0" encoding="UTF-8" standalone="no"?>
<svg xmlns:ffdec="https://www.free-decompiler.com/flash" xmlns:xlink="http://www.w3.org/1999/xlink" ffdec:objectType="shape" height="11.1px" width="5.65px" xmlns="http://www.w3.org/2000/svg">
  <g transform="matrix(1.0, 0.0, 0.0, 1.0, 2.75, 5.5)">
    <path d="M0.15 -0.3 L0.5 0.2 0.0 0.1 0.5 0.2 0.0 0.1 -0.05 0.05 0.05 -0.3 -0.05 0.05 0.0 0.1 0.05 -0.1 0.1 -0.3 0.05 -0.1 0.15 -0.3 0.05 -0.1 0.0 0.1 0.05 -0.1 0.0 0.1 0.5 0.2 -0.1 0.45 0.0 0.1 -0.1 0.45 -0.15 0.45 -0.35 0.4 -0.4 0.0 0.0 -0.35 0.0 -0.4 0.05 -0.3 0.1 -0.3 0.15 -0.3 M0.0 0.1 L-0.05 0.1 -0.05 0.05 -0.4 0.0 -0.05 0.05 -0.05 0.1 0.0 0.1 M-0.15 0.45 L-0.05 0.1 -0.4 0.0 -0.05 0.1 -0.15 0.45" fill="#d5f2ff" fill-rule="evenodd" stroke="none"/>
    <path d="M0.15 -0.35 L0.15 -0.3 0.05 -0.1 0.0 0.1 0.5 0.2 0.0 0.1 -0.05 0.05 -0.05 0.1 0.0 0.1 M0.5 0.2 L2.4 0.8 M0.05 -0.3 L-0.05 0.05 -0.4 0.0 -0.05 0.1 -0.15 0.45 -0.3 1.1 -0.1 0.45 M0.15 -0.35 L0.25 -0.95 0.05 -0.3 M0.9 -3.15 L0.25 -0.95 M-2.25 -0.55 L-0.9 -0.2 -0.4 0.0 -0.9 -0.2 M-0.3 1.1 L-0.65 2.6" fill="none" stroke="#d5f2ff" stroke-linecap="round" stroke-linejoin="round" stroke-width="1.0"/>
    <path d="M1.35 -5.0 L0.9 -3.15 0.15 -0.35 0.1 -0.3 0.05 -0.1 0.0 0.1 -0.1 0.45 -0.65 2.6 -1.3 5.1" fill="none" stroke="#d5f2ff" stroke-linecap="round" stroke-linejoin="round" stroke-width="1.0"/>
  </g>
</svg>
