<?xml version="1.0" encoding="UTF-8" standalone="no"?>
<svg xmlns:ffdec="https://www.free-decompiler.com/flash" xmlns:xlink="http://www.w3.org/1999/xlink" ffdec:objectType="shape" height="20.75px" width="19.15px" xmlns="http://www.w3.org/2000/svg">
  <g transform="matrix(1.0, 0.0, 0.0, 1.0, -114.4, 9.8)">
    <path d="M120.05 -0.1 Q120.85 0.7 122.0 0.7 123.2 0.7 123.95 -0.1 124.7 -0.9 124.7 -2.05 124.7 -3.15 123.95 -3.95 123.15 -4.75 122.0 -4.75 120.85 -4.75 120.05 -4.0 119.25 -3.2 119.25 -2.05 119.25 -0.9 120.05 -0.1 M125.45 -5.9 Q125.45 -6.95 124.45 -6.95 123.4 -6.95 123.4 -5.9 123.4 -4.9 124.45 -4.9 125.45 -4.9 125.45 -5.9 M126.9 -5.05 Q125.35 -5.05 125.35 -3.6 125.35 -2.1 126.9 -2.1 128.35 -2.1 128.35 -3.6 128.35 -4.2 127.9 -4.6 127.5 -5.05 126.9 -5.05 M127.2 -9.8 Q129.85 -9.8 131.7 -8.0 133.55 -6.15 133.55 -3.5 133.55 -0.85 131.7 1.0 129.9 2.85 127.2 2.85 L125.1 2.85 Q123.8 2.85 123.8 4.15 123.8 5.45 125.1 5.45 L130.65 5.45 Q131.8 5.45 132.6 6.25 133.4 7.05 133.4 8.2 133.4 9.35 132.6 10.15 131.8 10.95 130.65 10.95 L124.8 10.95 Q120.45 10.95 117.4 7.9 114.4 4.85 114.4 0.55 114.4 -3.8 117.4 -6.8 120.45 -9.8 124.8 -9.8 L127.2 -9.8" fill="#ffffff" fill-rule="evenodd" stroke="none"/>
  </g>
</svg>
