<?xml version="1.0" encoding="UTF-8" standalone="no"?>
<svg xmlns:ffdec="https://www.free-decompiler.com/flash" xmlns:xlink="http://www.w3.org/1999/xlink" ffdec:objectType="shape" height="43.05px" width="25.9px" xmlns="http://www.w3.org/2000/svg">
  <g transform="matrix(1.0, 0.0, 0.0, 1.0, 64.9, 21.4)">
    <path d="M-63.1 -19.65 Q-61.35 -21.4 -58.85 -21.4 L-57.1 -21.4 Q-54.6 -21.4 -52.85 -19.65 -51.1 -17.85 -51.1 -15.35 L-51.1 -14.5 -48.1 -14.5 Q-46.15 -14.5 -44.75 -13.25 L-44.55 -13.05 Q-43.1 -11.6 -43.1 -9.55 -43.1 -8.65 -43.4 -7.8 -41.8 -7.5 -40.75 -6.35 L-40.5 -6.05 -40.45 -5.95 Q-39.35 -4.65 -39.35 -2.95 L-39.7 0.5 -39.0 4.75 -39.4 3.45 -39.4 3.95 -39.4 5.3 -39.4 5.45 -39.4 7.3 -39.4 8.95 Q-39.4 14.2 -43.1 17.95 -46.8 21.65 -52.1 21.65 -57.4 21.65 -61.15 17.95 -64.9 14.2 -64.9 8.95 L-64.9 -15.35 Q-64.9 -17.85 -63.1 -19.65 M-62.75 -15.35 L-62.75 0.3 Q-62.75 4.7 -59.65 7.8 -56.55 10.9 -52.1 10.9 -47.65 10.9 -44.6 7.85 -42.25 5.5 -41.7 2.3 L-41.6 1.25 -41.55 1.0 -41.55 0.3 -41.5 -2.95 -41.55 -3.6 Q-41.75 -4.35 -42.35 -4.95 -42.95 -5.55 -43.7 -5.7 L-44.3 -5.75 -45.4 -5.55 -46.4 -4.95 Q-47.2 -4.2 -47.2 -2.9 -47.2 -1.65 -48.05 -0.75 -48.95 0.1 -50.2 0.1 -51.45 0.1 -52.35 -0.8 -53.25 -1.7 -53.25 -2.95 L-53.25 -6.7 -48.1 -6.7 Q-47.05 -6.7 -46.25 -7.35 L-46.05 -7.55 -45.85 -7.75 Q-45.25 -8.5 -45.25 -9.55 -45.25 -10.7 -46.05 -11.5 L-46.3 -11.75 Q-47.1 -12.35 -48.1 -12.35 L-53.25 -12.4 -53.25 -15.35 Q-53.2 -16.95 -54.35 -18.1 -55.5 -19.25 -57.1 -19.25 L-58.85 -19.25 Q-60.5 -19.25 -61.6 -18.1 -62.75 -17.0 -62.75 -15.35" fill="#ffffff" fill-rule="evenodd" stroke="none"/>
  </g>
</svg>
