<?xml version="1.0" encoding="UTF-8" standalone="no"?>
<svg xmlns:ffdec="https://www.free-decompiler.com/flash" xmlns:xlink="http://www.w3.org/1999/xlink" ffdec:objectType="shape" height="41.3px" width="77.4px" xmlns="http://www.w3.org/2000/svg">
  <g transform="matrix(1.0, 0.0, 0.0, 1.0, 54.75, 23.3)">
    <path d="M0.8 -2.85 L1.1 -3.0 Q1.45 -2.15 0.65 -1.4 L0.3 -1.25 Q0.15 -2.1 0.8 -2.85 M2.8 -4.75 Q3.1 -7.05 4.45 -9.2 L5.2 -9.2 3.0 -4.8 2.8 -4.75 M0.5 -4.75 Q-0.35 -6.8 -0.25 -8.8 L-0.15 -8.85 0.45 -9.25 Q0.3 -7.15 0.6 -4.85 L0.5 -4.75 M2.0 -0.3 L4.5 0.05 4.5 0.15 Q2.55 1.4 1.9 -0.2 L2.0 -0.3 M9.5 -0.55 L11.25 -0.2 11.25 -0.1 7.45 0.6 6.9 0.6 Q7.2 -0.2 8.25 -0.2 9.05 -0.2 9.5 -0.55 M5.95 -3.0 Q5.95 -3.8 12.3 -8.6 19.0 -13.75 22.65 -15.05 18.9 -10.3 6.15 -2.5 5.95 -2.05 5.95 -3.0 M14.75 6.4 Q10.6 4.6 6.35 3.5 L6.5 3.45 Q11.3 3.4 14.75 6.25 L14.75 6.4 M1.35 1.75 L2.25 3.1 2.3 3.25 Q0.75 3.25 1.3 1.8 L1.35 1.75 M4.6 6.25 L6.25 8.75 6.25 8.9 Q4.4 8.35 4.45 6.25 L4.6 6.25 M1.65 6.75 L4.15 16.9 3.4 17.25 Q1.55 12.7 1.0 6.8 L1.65 6.75 M-25.45 -23.3 L-14.5 -13.6 Q-8.0 -7.8 -4.05 -3.8 L-4.7 -3.3 Q-19.35 -16.2 -26.0 -22.8 L-25.45 -23.3 M-20.6 -2.3 L-7.25 -0.95 -7.25 -0.85 Q-14.3 -0.85 -20.7 -2.25 L-20.6 -2.3 M-3.6 -10.95 L-3.4 -11.0 Q-2.3 -7.9 -2.15 -4.6 L-2.25 -4.5 Q-3.4 -7.45 -3.6 -10.95 M-2.4 -1.5 L-0.75 0.1 -0.75 0.2 Q-2.45 0.25 -2.6 -1.45 L-2.4 -1.5 M-1.5 1.95 Q-0.7 2.85 -3.25 4.15 L-3.35 4.1 Q-3.15 3.15 -2.35 2.5 -1.9 2.1 -1.5 1.95 M-4.15 6.0 Q-7.7 12.1 -12.75 17.95 L-12.95 18.0 Q-9.15 11.9 -4.5 6.1 L-4.15 6.0 M-6.25 4.2 Q-6.05 5.75 -9.25 6.65 L-9.35 6.6 Q-8.1 5.4 -6.5 4.35 L-6.25 4.2 M-5.8 1.85 Q-12.3 4.0 -32.9 8.4 -52.25 12.5 -54.2 12.5 L-54.75 12.15 Q-53.05 10.9 -44.25 9.25 L-32.55 7.05 Q-10.3 1.45 -7.4 1.45 -6.3 1.45 -5.8 1.85 M-2.15 7.25 Q-2.0 8.95 -2.85 10.6 L-3.0 10.75 Q-3.4 9.25 -2.45 7.35 L-2.15 7.25" fill="#ffffff" fill-rule="evenodd" stroke="none"/>
  </g>
</svg>
