<?xml version="1.0" encoding="UTF-8" standalone="no"?>
<svg xmlns:ffdec="https://www.free-decompiler.com/flash" xmlns:xlink="http://www.w3.org/1999/xlink" ffdec:objectType="shape" height="21.2px" width="21.4px" xmlns="http://www.w3.org/2000/svg">
  <g transform="matrix(1.0, 0.0, 0.0, 1.0, 39.7, 9.8)">
    <path d="M-39.35 -2.9 L-39.35 -2.0 Q-38.65 -4.7 -36.6 -6.75 -33.5 -9.8 -29.05 -9.8 -26.9 -9.8 -24.9 -8.95 -23.85 -9.8 -22.5 -9.8 L-22.2 -9.8 Q-20.6 -9.8 -19.45 -8.7 -18.3 -7.55 -18.3 -5.95 L-18.3 7.05 Q-18.3 8.6 -19.45 9.75 -20.6 10.9 -22.2 10.9 L-22.5 10.9 Q-23.55 10.9 -24.5 10.35 -26.65 11.4 -29.05 11.4 -33.55 11.4 -36.6 8.3 -38.2 6.7 -39.0 4.75 L-39.7 0.5 -39.35 -2.95 -39.35 -2.9 M-33.9 -1.55 Q-33.9 0.0 -32.8 1.1 -31.7 2.2 -30.15 2.2 -28.6 2.2 -27.5 1.1 -26.4 0.0 -26.4 -1.55 -26.4 -3.1 -27.5 -4.2 -28.6 -5.25 -30.15 -5.25 -31.7 -5.25 -32.8 -4.2 -33.9 -3.1 -33.9 -1.55 M-23.8 0.0 Q-23.8 -0.9 -24.7 -0.9 -25.6 -0.9 -25.6 0.0 -25.6 0.9 -24.7 0.9 -23.8 0.9 -23.8 0.0 M-25.35 4.2 Q-24.95 3.75 -24.95 3.15 -24.95 2.55 -25.35 2.15 -25.8 1.75 -26.4 1.75 -27.0 1.75 -27.4 2.15 -27.8 2.55 -27.8 3.15 -27.8 4.6 -26.4 4.6 -25.8 4.6 -25.35 4.2" fill="#ffffff" fill-rule="evenodd" stroke="none"/>
  </g>
</svg>
