<?xml version="1.0" encoding="UTF-8" standalone="no"?>
<svg xmlns:ffdec="https://www.free-decompiler.com/flash" xmlns:xlink="http://www.w3.org/1999/xlink" ffdec:objectType="shape" height="183.2px" width="224.0px" xmlns="http://www.w3.org/2000/svg">
  <g transform="matrix(1.0, 0.0, 0.0, 1.0, 283.2, 333.55)">
    <path d="M-59.35 -300.7 Q-60.5 -288.3 -70.05 -280.35 -79.6 -272.45 -92.0 -273.6 -104.4 -274.75 -112.35 -284.3 -120.3 -293.85 -119.15 -306.25 -118.0 -318.65 -108.4 -326.6 -98.85 -334.55 -86.45 -333.4 -74.05 -332.25 -66.1 -322.65 -58.2 -313.1 -59.35 -300.7 M-137.5 -216.6 Q-140.3 -186.5 -163.6 -167.2 -186.85 -147.9 -216.95 -150.7 -247.05 -153.5 -266.4 -176.75 -285.65 -200.0 -282.85 -230.1 -280.05 -260.2 -256.8 -279.5 -233.55 -298.8 -203.45 -296.0 -173.35 -293.2 -154.0 -269.95 -134.7 -246.7 -137.5 -216.6" fill="#ffffff" fill-opacity="0.24705882" fill-rule="evenodd" stroke="none"/>
  </g>
</svg>
