<?xml version="1.0" encoding="UTF-8" standalone="no"?>
<svg xmlns:ffdec="https://www.free-decompiler.com/flash" xmlns:xlink="http://www.w3.org/1999/xlink" ffdec:objectType="shape" height="20.75px" width="21.25px" xmlns="http://www.w3.org/2000/svg">
  <g transform="matrix(1.0, 0.0, 0.0, 1.0, -135.2, 9.85)">
    <path d="M153.4 -6.75 Q156.45 -3.6 156.45 0.95 L156.45 8.05 Q156.45 9.25 155.65 10.1 154.85 10.9 153.65 10.9 152.45 10.9 151.65 10.1 150.8 9.3 150.8 8.1 L150.8 3.15 Q150.8 1.9 149.9 1.0 149.0 0.1 147.75 0.1 146.5 0.1 145.6 1.0 144.7 1.85 144.7 3.15 L144.7 7.05 Q144.7 8.6 143.55 9.75 142.45 10.9 140.85 10.9 L139.1 10.9 Q137.5 10.9 136.35 9.75 135.2 8.6 135.2 7.05 L135.2 -5.95 Q135.2 -7.55 136.35 -8.7 137.5 -9.8 139.1 -9.8 L139.4 -9.8 Q140.65 -9.8 141.7 -9.0 143.7 -9.85 145.85 -9.85 150.35 -9.85 153.4 -6.75" fill="#ffffff" fill-rule="evenodd" stroke="none"/>
  </g>
</svg>
