<?xml version="1.0" encoding="UTF-8" standalone="no"?>
<svg xmlns:ffdec="https://www.free-decompiler.com/flash" xmlns:xlink="http://www.w3.org/1999/xlink" ffdec:objectType="shape" height="250.0px" width="250.0px" xmlns="http://www.w3.org/2000/svg">
  <g transform="matrix(1.0, 0.0, 0.0, 1.0, 0.0, 0.0)">
    <path d="M197.4 197.35 Q227.0 167.8 227.0 125.95 227.0 84.1 197.4 54.5 167.85 24.95 126.0 24.95 84.15 24.95 54.55 54.5 25.0 84.1 25.0 125.95 25.0 167.8 54.55 197.35 84.15 226.95 126.0 226.95 167.85 226.95 197.4 197.35 M250.0 125.0 Q249.95 176.85 213.3 213.35 176.85 250.0 125.0 250.0 73.1 250.0 36.45 213.35 -0.05 176.85 0.0 125.0 -0.05 73.1 36.45 36.45 73.1 0.0 125.0 0.0 176.85 0.0 213.3 36.45 249.95 73.1 250.0 125.0" fill="url(#gradient0)" fill-rule="evenodd" stroke="none"/>
  </g>
  <defs>
    <radialGradient cx="0" cy="0" gradientTransform="matrix(0.1584, 0.0, 0.0, 0.1584, 125.0, 125.0)" gradientUnits="userSpaceOnUse" id="gradient0" r="819.2" spreadMethod="pad">
      <stop offset="0.0" stop-color="#ffffff"/>
      <stop offset="0.5725490196078431" stop-color="#ffffff" stop-opacity="0.03137255"/>
      <stop offset="0.6313725490196078" stop-color="#ffffff"/>
      <stop offset="0.6901960784313725" stop-color="#ffffff" stop-opacity="0.47058824"/>
      <stop offset="0.8156862745098039" stop-color="#ffffff" stop-opacity="0.12156863"/>
      <stop offset="0.8941176470588236" stop-color="#ddf2ff" stop-opacity="0.0"/>
      <stop offset="0.9490196078431372" stop-color="#ffffff"/>
      <stop offset="1.0" stop-color="#ddeeff" stop-opacity="0.0"/>
    </radialGradient>
  </defs>
</svg>
