<?xml version="1.0" encoding="UTF-8" standalone="no"?>
<svg xmlns:ffdec="https://www.free-decompiler.com/flash" xmlns:xlink="http://www.w3.org/1999/xlink" ffdec:objectType="shape" height="30.15px" width="21.25px" xmlns="http://www.w3.org/2000/svg">
  <g transform="matrix(1.0, 0.0, 0.0, 1.0, -6.5, 19.25)">
    <path d="M7.65 -18.1 Q8.8 -19.25 10.4 -19.25 L12.15 -19.25 Q13.75 -19.25 14.85 -18.1 16.0 -16.95 16.0 -15.35 L16.0 -9.6 Q16.0 -8.3 16.9 -7.45 17.8 -6.55 19.05 -6.55 20.3 -6.55 21.2 -7.45 22.1 -8.35 22.1 -9.6 L22.1 -10.85 Q22.1 -12.05 22.95 -12.85 23.75 -13.65 24.95 -13.65 26.1 -13.65 26.95 -12.85 27.75 -12.05 27.75 -10.85 L27.75 -7.35 Q27.75 -3.45 25.35 -0.5 27.75 2.45 27.75 6.2 27.75 8.15 26.4 9.5 25.0 10.9 23.05 10.9 21.1 10.9 19.75 9.55 18.4 8.2 18.4 6.2 L18.4 5.25 Q18.4 3.8 17.0 3.45 L16.1 3.35 Q14.7 3.6 14.55 4.95 L14.55 7.05 Q14.55 8.6 13.4 9.75 12.25 10.9 10.7 10.9 L10.4 10.9 Q8.8 10.9 7.65 9.75 6.5 8.6 6.5 7.05 L6.5 -15.35 Q6.5 -16.95 7.65 -18.1" fill="#ffffff" fill-rule="evenodd" stroke="none"/>
  </g>
</svg>
