<?xml version="1.0" encoding="UTF-8" standalone="no"?>
<svg xmlns:ffdec="https://www.free-decompiler.com/flash" xmlns:xlink="http://www.w3.org/1999/xlink" ffdec:objectType="shape" height="11.3px" width="18.6px" xmlns="http://www.w3.org/2000/svg">
  <g transform="matrix(1.0, 0.0, 0.0, 1.0, 9.3, 5.65)">
    <path d="M-7.35 -0.6 Q-7.15 -1.5 -5.8 -2.05 L-5.35 -2.15 Q-4.7 -2.15 -4.35 -1.7 L-4.2 -1.6 Q-4.0 -0.9 -4.95 -0.3 L-5.35 -0.05 Q-6.7 0.15 -7.35 -0.6 M-1.65 -3.9 Q-0.7 -3.85 -0.5 -3.35 L-0.5 -3.15 Q-0.5 -2.75 -1.15 -2.55 L-1.65 -2.4 Q-3.3 -2.55 -2.95 -3.35 L-2.15 -3.8 -1.65 -3.9" fill="#dda2b4" fill-rule="evenodd" stroke="none"/>
    <path d="M5.5 0.95 Q5.5 2.35 3.05 2.2 L2.6 1.95 2.5 1.8 2.5 1.45 2.5 1.15 2.8 0.95 3.35 0.6 3.65 0.55 4.15 0.5 4.15 0.4 Q5.05 0.4 5.5 0.85 L5.5 0.95 M1.65 2.55 Q1.65 3.05 0.95 3.15 L0.35 3.3 Q-1.15 3.15 -0.85 2.35 -0.7 2.0 -0.15 1.95 L0.35 1.8 Q1.3 1.85 1.5 2.4 L1.65 2.55" fill="#9c3857" fill-rule="evenodd" stroke="none"/>
    <path d="M6.2 -3.65 Q8.8 -2.15 8.8 0.0 8.8 2.15 6.2 3.65 3.65 5.15 0.0 5.15 -3.65 5.15 -6.2 3.65 -8.8 2.15 -8.8 0.0 -8.8 -2.15 -6.2 -3.65 -3.65 -5.15 0.0 -5.15 3.65 -5.15 6.2 -3.65 M1.65 2.55 L1.5 2.4 Q1.3 1.85 0.35 1.8 L-0.15 1.95 Q-0.7 2.0 -0.85 2.35 -1.15 3.15 0.35 3.3 L0.95 3.15 Q1.65 3.05 1.65 2.55 M5.5 0.95 L5.5 0.85 Q5.05 0.4 4.15 0.4 L4.15 0.5 3.65 0.55 3.35 0.6 2.8 0.95 2.5 1.15 2.5 1.45 2.5 1.8 2.6 1.95 3.05 2.2 Q5.5 2.35 5.5 0.95 M-1.65 -3.9 L-2.15 -3.8 -2.95 -3.35 Q-3.3 -2.55 -1.65 -2.4 L-1.15 -2.55 Q-0.5 -2.75 -0.5 -3.15 L-0.5 -3.35 Q-0.7 -3.85 -1.65 -3.9 M-7.35 -0.6 Q-6.7 0.15 -5.35 -0.05 L-4.95 -0.3 Q-4.0 -0.9 -4.2 -1.6 L-4.35 -1.7 Q-4.7 -2.15 -5.35 -2.15 L-5.8 -2.05 Q-7.15 -1.5 -7.35 -0.6" fill="#ff6699" fill-rule="evenodd" stroke="none"/>
    <path d="M6.2 -3.65 Q8.8 -2.15 8.8 0.0 8.8 2.15 6.2 3.65 3.65 5.15 0.0 5.15 -3.65 5.15 -6.2 3.65 -8.8 2.15 -8.8 0.0 -8.8 -2.15 -6.2 -3.65 -3.65 -5.15 0.0 -5.15 3.65 -5.15 6.2 -3.65 Z" fill="none" stroke="#ffffff" stroke-linecap="round" stroke-linejoin="round" stroke-width="1.0"/>
  </g>
</svg>
