<?xml version="1.0" encoding="UTF-8" standalone="no"?>
<svg xmlns:ffdec="https://www.free-decompiler.com/flash" xmlns:xlink="http://www.w3.org/1999/xlink" ffdec:objectType="shape" height="56.5px" width="72.3px" xmlns="http://www.w3.org/2000/svg">
  <g transform="matrix(1.0, 0.0, 0.0, 1.0, 4.1, 29.9)">
    <path d="M2.9 -2.8 Q4.05 -1.65 4.05 0.05 4.05 1.7 2.9 2.9 1.7 4.05 0.05 4.05 -1.65 4.05 -2.8 2.9 -4.0 1.7 -4.0 0.05 -4.0 -1.65 -2.8 -2.8 -1.65 -4.0 0.05 -4.0 1.7 -4.0 2.9 -2.8 M2.55 0.7 L1.9 0.4 1.7 0.45 1.55 0.5 1.35 0.75 1.15 1.0 1.15 1.2 1.15 1.45 1.2 1.5 1.45 1.8 Q2.55 1.85 2.6 0.8 L2.55 0.7 M0.2 1.45 L0.0 1.5 -0.35 1.85 Q-0.55 2.5 0.2 2.65 L0.45 2.5 0.8 2.0 0.7 1.9 Q0.6 1.5 0.2 1.45 M-0.15 -2.45 L-0.2 -2.6 Q-0.3 -3.0 -0.75 -3.05 L-0.9 -2.95 -1.3 -2.65 Q-1.45 -2.0 -0.75 -1.85 L-0.5 -1.95 Q-0.15 -2.15 -0.15 -2.45 M-2.65 -1.55 Q-3.3 -1.15 -3.35 -0.4 -3.05 0.1 -2.4 -0.05 L-2.25 -0.2 Q-1.8 -0.65 -1.9 -1.2 L-1.95 -1.3 -2.45 -1.65 -2.65 -1.55" fill="#d22b00" fill-rule="evenodd" stroke="none"/>
    <path d="M-2.65 -1.55 L-2.45 -1.65 -1.95 -1.3 -1.9 -1.2 Q-1.8 -0.65 -2.25 -0.2 L-2.4 -0.05 Q-3.05 0.1 -3.35 -0.4 -3.3 -1.15 -2.65 -1.55 M-0.15 -2.45 Q-0.15 -2.15 -0.5 -1.95 L-0.75 -1.85 Q-1.45 -2.0 -1.3 -2.65 L-0.9 -2.95 -0.75 -3.05 Q-0.3 -3.0 -0.2 -2.6 L-0.15 -2.45" fill="#ffd1c6" fill-rule="evenodd" stroke="none"/>
    <path d="M2.55 0.7 L2.6 0.8 Q2.55 1.85 1.45 1.8 L1.2 1.5 1.15 1.45 1.15 1.2 1.15 1.0 1.35 0.75 1.55 0.5 1.7 0.45 1.9 0.4 2.55 0.7 M0.2 1.45 Q0.6 1.5 0.7 1.9 L0.8 2.0 0.45 2.5 0.2 2.65 Q-0.55 2.5 -0.35 1.85 L0.0 1.5 0.2 1.45" fill="#ff3e0d" fill-rule="evenodd" stroke="none"/>
    <path d="M24.55 -13.1 L23.45 -12.75 Q19.2 -9.8 18.5 -5.0 20.6 -0.9 24.55 -2.0 25.6 -2.4 25.95 -3.15 28.8 -6.45 28.1 -10.15 L27.75 -10.9 Q26.7 -13.1 24.55 -13.1 M37.4 -15.35 Q39.5 -16.45 39.5 -18.65 L39.5 -19.8 Q38.8 -22.35 35.95 -22.75 L34.55 -22.0 Q32.75 -22.0 32.05 -19.8 30.95 -15.35 35.95 -14.6 L37.4 -15.35 M22.05 -21.25 Q29.9 -29.4 40.95 -29.4 52.0 -29.4 59.85 -21.25 67.7 -13.1 67.7 -1.65 67.7 9.8 59.85 17.95 52.0 26.1 40.95 26.1 29.9 26.1 22.05 17.95 14.2 9.8 14.2 -1.65 14.2 -13.1 22.05 -21.25 M45.95 12.05 Q45.95 11.65 45.6 11.3 44.85 8.35 42.0 7.95 L40.6 8.7 Q38.8 9.1 38.45 10.95 37.4 15.35 42.0 16.1 L43.8 15.35 Q45.95 14.65 45.95 12.05 M52.0 1.3 Q51.3 1.3 51.3 1.7 50.2 2.4 49.5 3.55 L48.45 4.65 48.45 6.1 48.45 7.95 Q48.45 8.35 48.8 8.7 L50.2 10.2 Q57.7 10.95 57.7 3.55 L57.7 2.8 Q56.3 0.55 53.45 0.55 L53.45 0.95 Q52.7 0.95 52.0 1.3" fill="#ff6699" fill-rule="evenodd" stroke="none"/>
    <path d="M37.4 -15.35 L35.95 -14.6 Q30.95 -15.35 32.05 -19.8 32.75 -22.0 34.55 -22.0 L35.95 -22.75 Q38.8 -22.35 39.5 -19.8 L39.5 -18.65 Q39.5 -16.45 37.4 -15.35 M24.55 -13.1 Q26.7 -13.1 27.75 -10.9 L28.1 -10.15 Q28.8 -6.45 25.95 -3.15 25.6 -2.4 24.55 -2.0 20.6 -0.9 18.5 -5.0 19.2 -9.8 23.45 -12.75 L24.55 -13.1" fill="#dda2b4" fill-rule="evenodd" stroke="none"/>
    <path d="M52.0 1.3 Q52.7 0.95 53.45 0.95 L53.45 0.55 Q56.3 0.55 57.7 2.8 L57.7 3.55 Q57.7 10.95 50.2 10.2 L48.8 8.7 Q48.45 8.35 48.45 7.95 L48.45 6.1 48.45 4.65 49.5 3.55 Q50.2 2.4 51.3 1.7 51.3 1.3 52.0 1.3 M45.95 12.05 Q45.95 14.65 43.8 15.35 L42.0 16.1 Q37.4 15.35 38.45 10.95 38.8 9.1 40.6 8.7 L42.0 7.95 Q44.85 8.35 45.6 11.3 45.95 11.65 45.95 12.05" fill="#9c3857" fill-rule="evenodd" stroke="none"/>
    <path d="M2.9 -2.8 Q4.05 -1.65 4.05 0.05 4.05 1.7 2.9 2.9 1.7 4.05 0.05 4.05 -1.65 4.05 -2.8 2.9 -4.0 1.7 -4.0 0.05 -4.0 -1.65 -2.8 -2.8 -1.65 -4.0 0.05 -4.0 1.7 -4.0 2.9 -2.8" ffdec:has-small-stroke="true" ffdec:original-stroke-width="0.25" fill="none" stroke="#ffffff" stroke-linecap="round" stroke-linejoin="round" stroke-width="1.0"/>
    <path d="M22.05 -21.25 Q29.9 -29.4 40.95 -29.4 52.0 -29.4 59.85 -21.25 67.7 -13.1 67.7 -1.65 67.7 9.8 59.85 17.95 52.0 26.1 40.95 26.1 29.9 26.1 22.05 17.95 14.2 9.8 14.2 -1.65 14.2 -13.1 22.05 -21.25 Z" fill="none" stroke="#ffffff" stroke-linecap="round" stroke-linejoin="round" stroke-width="1.0"/>
  </g>
</svg>
