<?xml version="1.0" encoding="UTF-8" standalone="no"?>
<svg xmlns:ffdec="https://www.free-decompiler.com/flash" xmlns:xlink="http://www.w3.org/1999/xlink" ffdec:objectType="shape" height="24.2px" width="24.2px" xmlns="http://www.w3.org/2000/svg">
  <g transform="matrix(1.0, 0.0, 0.0, 1.0, 12.1, 12.1)">
    <path d="M8.2 -8.2 Q11.6 -4.8 11.6 0.0 11.6 4.8 8.2 8.2 4.8 11.6 0.0 11.6 -4.8 11.6 -8.2 8.2 -11.6 4.8 -11.6 0.0 -11.6 -4.8 -8.2 -8.2 -4.8 -11.6 0.0 -11.6 4.8 -11.6 8.2 -8.2 M2.15 5.7 L2.0 5.4 Q1.7 4.2 0.45 4.0 L-0.15 4.35 Q-0.95 4.5 -1.1 5.25 -1.55 7.1 0.45 7.45 0.75 7.25 1.25 7.1 2.15 6.8 2.15 5.7 M5.4 0.95 L5.4 1.1 4.8 1.25 Q4.5 1.25 4.5 1.4 L3.7 2.15 3.25 2.65 3.25 3.25 3.25 4.0 3.4 4.35 4.0 4.95 Q7.25 5.25 7.25 2.15 L7.25 1.85 Q6.65 0.95 5.4 0.95 M-9.75 -1.4 Q-8.8 0.3 -7.1 -0.15 -6.65 -0.3 -6.5 -0.6 -5.25 -2.0 -5.55 -3.55 L-5.7 -3.85 Q-6.2 -4.8 -7.1 -4.8 L-7.6 -4.65 Q-9.45 -3.4 -9.75 -1.4 M-0.6 -7.1 L-0.6 -7.6 Q-0.95 -8.65 -2.15 -8.8 L-2.8 -8.5 Q-3.55 -8.5 -3.85 -7.6 -4.35 -5.7 -2.15 -5.4 L-1.55 -5.7 Q-0.6 -6.2 -0.6 -7.1" fill="#67effe" fill-rule="evenodd" stroke="none"/>
    <path d="M-0.6 -7.1 Q-0.6 -6.2 -1.55 -5.7 L-2.15 -5.4 Q-4.35 -5.7 -3.85 -7.6 -3.55 -8.5 -2.8 -8.5 L-2.15 -8.8 Q-0.95 -8.65 -0.6 -7.6 L-0.6 -7.1 M-9.75 -1.4 Q-9.45 -3.4 -7.6 -4.65 L-7.1 -4.8 Q-6.2 -4.8 -5.7 -3.85 L-5.55 -3.55 Q-5.25 -2.0 -6.5 -0.6 -6.65 -0.3 -7.1 -0.15 -8.8 0.3 -9.75 -1.4" fill="#d5fbff" fill-rule="evenodd" stroke="none"/>
    <path d="M5.4 0.95 Q6.65 0.95 7.25 1.85 L7.25 2.15 Q7.25 5.25 4.0 4.95 L3.4 4.35 3.25 4.0 3.25 3.25 3.25 2.65 3.7 2.15 4.5 1.4 Q4.5 1.25 4.8 1.25 L5.4 1.1 5.4 0.95 M2.15 5.7 Q2.15 6.8 1.25 7.1 0.75 7.25 0.45 7.45 -1.55 7.1 -1.1 5.25 -0.95 4.5 -0.15 4.35 L0.45 4.0 Q1.7 4.2 2.0 5.4 L2.15 5.7" fill="#01a8ba" fill-rule="evenodd" stroke="none"/>
    <path d="M8.2 -8.2 Q11.6 -4.8 11.6 0.0 11.6 4.8 8.2 8.2 4.8 11.6 0.0 11.6 -4.8 11.6 -8.2 8.2 -11.6 4.8 -11.6 0.0 -11.6 -4.8 -8.2 -8.2 -4.8 -11.6 0.0 -11.6 4.8 -11.6 8.2 -8.2 Z" fill="none" stroke="#ffffff" stroke-linecap="round" stroke-linejoin="round" stroke-width="1.0"/>
  </g>
</svg>
