<?xml version="1.0" encoding="UTF-8" standalone="no"?>
<svg xmlns:ffdec="https://www.free-decompiler.com/flash" xmlns:xlink="http://www.w3.org/1999/xlink" ffdec:objectType="shape" height="20.7px" width="21.4px" xmlns="http://www.w3.org/2000/svg">
  <g transform="matrix(1.0, 0.0, 0.0, 1.0, -181.4, 9.8)">
    <path d="M201.95 -9.0 Q202.8 -8.2 202.8 -7.05 202.8 -5.9 201.95 -5.05 201.1 -4.25 199.95 -4.25 L195.5 -4.25 Q194.25 -4.25 194.25 -3.05 194.25 -1.8 195.5 -1.8 L196.45 -1.8 Q199.05 -1.8 200.9 0.05 202.8 1.9 202.8 4.55 202.8 7.15 200.9 9.05 199.05 10.9 196.45 10.9 L184.2 10.9 Q183.05 10.9 182.25 10.1 181.4 9.25 181.4 8.1 181.4 6.95 182.25 6.15 183.1 5.3 184.25 5.3 L187.8 5.3 Q189.0 5.3 189.0 4.1 189.0 2.9 187.8 2.9 185.1 2.9 183.25 1.05 181.4 -0.8 181.4 -3.45 181.4 -6.1 183.3 -7.95 185.15 -9.8 187.8 -9.8 L200.0 -9.8 Q201.15 -9.8 201.95 -9.0" fill="#ffffff" fill-rule="evenodd" stroke="none"/>
  </g>
</svg>
