<?xml version="1.0" encoding="UTF-8" standalone="no"?>
<svg xmlns:ffdec="https://www.free-decompiler.com/flash" xmlns:xlink="http://www.w3.org/1999/xlink" ffdec:objectType="shape" height="8.5px" width="13.8px" xmlns="http://www.w3.org/2000/svg">
  <g transform="matrix(1.0, 0.0, 0.0, 1.0, 6.9, 4.25)">
    <path d="M-0.15 -2.45 L-0.15 -2.3 Q-0.15 -2.0 -0.35 -1.85 L-0.5 -1.75 -0.65 -1.8 Q-0.95 -2.0 -0.9 -2.45 L-0.65 -2.75 -0.55 -2.8 -0.5 -2.85 -0.15 -2.45 M-2.2 -0.45 L-2.15 -0.7 -2.15 -0.8 -1.75 -1.5 -1.6 -1.55 -1.3 -1.25 -1.25 -1.15 Q-1.2 -0.65 -1.5 -0.2 L-1.6 -0.05 Q-2.0 0.1 -2.2 -0.45" fill="#dda2b4" fill-rule="evenodd" stroke="none"/>
    <path d="M1.65 0.7 L1.45 1.5 0.9 1.6 0.8 1.4 0.75 1.3 0.75 1.05 0.75 0.85 0.85 0.7 1.0 0.45 1.1 0.4 1.25 0.35 1.25 0.3 Q1.5 0.3 1.6 0.55 L1.65 0.6 1.65 0.7 M0.1 1.3 L0.2 1.35 Q0.4 1.4 0.45 1.75 L0.5 1.85 0.3 2.3 0.15 2.4 0.1 2.4 Q-0.35 2.3 -0.25 1.7 L-0.05 1.4 0.05 1.4 0.1 1.3" fill="#9c3857" fill-rule="evenodd" stroke="none"/>
    <path d="M0.2 3.75 Q1.15 3.65 1.85 2.65 L2.45 1.5 2.65 0.45 2.65 0.0 Q2.65 -1.55 1.85 -2.65 1.15 -3.65 0.2 -3.75 1.15 -3.65 1.85 -2.65 2.65 -1.55 2.65 0.0 L2.65 0.45 2.45 1.5 1.85 2.65 Q1.15 3.65 0.2 3.75 L-0.2 3.75 Q-1.15 3.65 -1.85 2.65 -2.65 1.55 -2.65 0.0 L-2.45 -1.45 -1.85 -2.65 Q-1.15 -3.65 -0.2 -3.75 -1.15 -3.65 -1.85 -2.65 L-2.45 -1.45 -2.65 0.0 Q-2.65 1.55 -1.85 2.65 -1.15 3.65 -0.2 3.75 -2.7 3.7 -4.5 2.65 -6.4 1.55 -6.4 0.0 -6.4 -1.55 -4.5 -2.65 -2.7 -3.7 -0.2 -3.75 L-0.15 -3.75 0.15 -3.75 0.2 -3.75 Q2.7 -3.7 4.5 -2.65 6.4 -1.55 6.4 0.0 6.4 1.55 4.5 2.65 2.7 3.7 0.2 3.75 M0.1 1.3 L0.05 1.4 -0.05 1.4 -0.25 1.7 Q-0.35 2.3 0.1 2.4 L0.15 2.4 0.3 2.3 0.5 1.85 0.45 1.75 Q0.4 1.4 0.2 1.35 L0.1 1.3 M1.65 0.7 L1.65 0.6 1.6 0.55 Q1.5 0.3 1.25 0.3 L1.25 0.35 1.1 0.4 1.0 0.45 0.85 0.7 0.75 0.85 0.75 1.05 0.75 1.3 0.8 1.4 0.9 1.6 1.45 1.5 1.65 0.7 M-2.2 -0.45 Q-2.0 0.1 -1.6 -0.05 L-1.5 -0.2 Q-1.2 -0.65 -1.25 -1.15 L-1.3 -1.25 -1.6 -1.55 -1.75 -1.5 -2.15 -0.8 -2.15 -0.7 -2.2 -0.45 M-0.15 -2.45 L-0.5 -2.85 -0.55 -2.8 -0.65 -2.75 -0.9 -2.45 Q-0.95 -2.0 -0.65 -1.8 L-0.5 -1.75 -0.35 -1.85 Q-0.15 -2.0 -0.15 -2.3 L-0.15 -2.45" fill="#ff6699" fill-rule="evenodd" stroke="none"/>
    <path d="M0.2 -3.75 Q1.15 -3.65 1.85 -2.65 2.65 -1.55 2.65 0.0 L2.65 0.45 2.45 1.5 1.85 2.65 Q1.15 3.65 0.2 3.75 2.7 3.7 4.5 2.65 6.4 1.55 6.4 0.0 6.4 -1.55 4.5 -2.65 2.7 -3.7 0.2 -3.75 L0.15 -3.75 M-0.15 -3.75 L-0.2 -3.75 Q-1.15 -3.65 -1.85 -2.65 L-2.45 -1.45 -2.65 0.0 Q-2.65 1.55 -1.85 2.65 -1.15 3.65 -0.2 3.75 L0.2 3.75 M-0.2 3.75 Q-2.7 3.7 -4.5 2.65 -6.4 1.55 -6.4 0.0 -6.4 -1.55 -4.5 -2.65 -2.7 -3.7 -0.2 -3.75" fill="none" stroke="#ffffff" stroke-linecap="round" stroke-linejoin="round" stroke-width="1.0"/>
  </g>
</svg>
