<?xml version="1.0" encoding="UTF-8" standalone="no"?>
<svg xmlns:ffdec="https://www.free-decompiler.com/flash" xmlns:xlink="http://www.w3.org/1999/xlink" ffdec:objectType="shape" height="11.8px" width="11.8px" xmlns="http://www.w3.org/2000/svg">
  <g transform="matrix(1.0, 0.0, 0.0, 1.0, 0.5, 0.5)">
    <path d="M5.1 2.1 L4.7 2.75 4.4 2.9 Q3.4 2.75 3.6 1.85 3.75 1.45 4.1 1.45 L4.4 1.3 Q4.95 1.35 5.1 1.85 L5.1 2.1 M2.1 5.35 Q1.3 5.55 0.85 4.75 1.0 3.8 1.85 3.25 L2.1 3.15 Q2.5 3.15 2.75 3.6 L2.8 3.75 Q2.95 4.45 2.35 5.1 L2.1 5.35" fill="#a5a3d1" fill-rule="evenodd" stroke="none"/>
    <path d="M7.9 5.85 Q8.5 5.85 8.8 6.25 L8.8 6.4 Q8.8 7.85 7.25 7.7 L7.0 7.4 6.9 7.25 6.9 6.9 6.9 6.65 7.15 6.4 7.5 6.05 7.65 6.0 7.9 5.9 7.9 5.85 M5.6 7.25 Q6.2 7.35 6.35 7.9 L6.4 8.05 Q6.4 8.55 6.0 8.7 L5.6 8.85 Q4.7 8.7 4.9 7.85 4.95 7.5 5.35 7.4 L5.6 7.25" fill="#3a376f" fill-rule="evenodd" stroke="none"/>
    <path d="M5.1 2.1 L5.1 1.85 Q4.95 1.35 4.4 1.3 L4.1 1.45 Q3.75 1.45 3.6 1.85 3.4 2.75 4.4 2.9 L4.7 2.75 5.1 2.1 M7.9 5.85 L7.9 5.9 7.65 6.0 7.5 6.05 7.15 6.4 6.9 6.65 6.9 6.9 6.9 7.25 7.0 7.4 7.25 7.7 Q8.8 7.85 8.8 6.4 L8.8 6.25 Q8.5 5.85 7.9 5.85 M9.2 1.6 Q10.8 3.15 10.8 5.4 10.8 7.65 9.2 9.2 7.65 10.8 5.4 10.8 3.15 10.8 1.6 9.2 0.0 7.65 0.0 5.4 0.0 3.15 1.6 1.6 3.15 0.0 5.4 0.0 7.65 0.0 9.2 1.6 M2.1 5.35 L2.35 5.1 Q2.95 4.45 2.8 3.75 L2.75 3.6 Q2.5 3.15 2.1 3.15 L1.85 3.25 Q1.0 3.8 0.85 4.75 1.3 5.55 2.1 5.35 M5.6 7.25 L5.35 7.4 Q4.95 7.5 4.9 7.85 4.7 8.7 5.6 8.85 L6.0 8.7 Q6.4 8.55 6.4 8.05 L6.35 7.9 Q6.2 7.35 5.6 7.25" fill="#5955aa" fill-opacity="0.8392157" fill-rule="evenodd" stroke="none"/>
    <path d="M9.2 1.6 Q10.8 3.15 10.8 5.4 10.8 7.65 9.2 9.2 7.65 10.8 5.4 10.8 3.15 10.8 1.6 9.2 0.0 7.65 0.0 5.4 0.0 3.15 1.6 1.6 3.15 0.0 5.4 0.0 7.65 0.0 9.2 1.6 Z" fill="none" stroke="#ffffff" stroke-linecap="round" stroke-linejoin="round" stroke-width="1.0"/>
  </g>
</svg>
