<?xml version="1.0" encoding="UTF-8" standalone="no"?>
<svg xmlns:ffdec="https://www.free-decompiler.com/flash" xmlns:xlink="http://www.w3.org/1999/xlink" ffdec:objectType="shape" height="34.15px" width="25.95px" xmlns="http://www.w3.org/2000/svg">
  <g transform="matrix(1.0, 0.0, 0.0, 1.0, -66.05, 12.0)">
    <path d="M78.85 -12.0 L82.75 -11.4 Q84.0 -12.0 85.4 -12.0 L85.7 -12.0 Q88.2 -12.0 89.95 -10.2 91.25 -8.95 91.6 -7.35 L92.0 -8.1 92.0 9.15 91.75 8.75 91.75 15.6 Q91.75 18.1 89.95 19.9 88.2 21.65 85.7 21.65 L85.4 21.65 83.35 21.3 Q81.15 22.15 78.85 22.15 73.5 22.15 69.8 18.4 66.05 14.7 66.05 9.35 L66.05 0.75 Q66.05 -4.55 69.8 -8.25 73.55 -12.0 78.85 -12.0 M80.4 -4.2 Q81.5 -3.1 81.5 -1.55 81.5 0.0 80.4 1.1 79.3 2.2 77.75 2.2 76.2 2.2 75.1 1.1 74.0 0.0 74.0 -1.55 74.0 -3.1 75.1 -4.2 76.2 -5.25 77.75 -5.25 79.3 -5.25 80.4 -4.2 M71.3 -6.75 Q68.2 -3.65 68.2 0.75 68.2 5.25 71.3 8.3 74.35 11.4 78.85 11.4 81.25 11.4 83.4 10.35 84.35 10.9 85.4 10.9 L85.7 10.9 Q87.3 10.9 88.45 9.75 89.6 8.6 89.6 7.05 L89.6 -5.95 Q89.6 -7.55 88.45 -8.7 87.3 -9.8 85.7 -9.8 L85.4 -9.8 Q84.05 -9.8 83.0 -8.95 81.0 -9.8 78.85 -9.8 74.4 -9.8 71.3 -6.75 M82.55 2.15 Q82.95 2.55 82.95 3.15 82.95 3.75 82.55 4.2 82.1 4.6 81.5 4.6 80.1 4.6 80.1 3.15 80.1 2.55 80.5 2.15 80.9 1.75 81.5 1.75 82.1 1.75 82.55 2.15 M82.3 0.0 Q82.3 -0.9 83.2 -0.9 84.1 -0.9 84.1 0.0 84.1 0.9 83.2 0.9 82.3 0.9 82.3 0.0" fill="#ffffff" fill-rule="evenodd" stroke="none"/>
  </g>
</svg>
