<?xml version="1.0" encoding="UTF-8" standalone="no"?>
<svg xmlns:ffdec="https://www.free-decompiler.com/flash" xmlns:xlink="http://www.w3.org/1999/xlink" ffdec:objectType="shape" height="11.25px" width="11.25px" xmlns="http://www.w3.org/2000/svg">
  <g transform="matrix(1.0, 0.0, 0.0, 1.0, 5.6, 5.6)">
    <path d="M-0.2 -3.25 Q-0.25 -2.8 -0.65 -2.6 L-1.0 -2.45 Q-1.95 -2.65 -1.7 -3.5 -1.6 -3.85 -1.2 -3.9 L-1.0 -4.0 Q-0.45 -3.95 -0.3 -3.4 L-0.2 -3.25 M-2.55 -1.75 L-2.55 -1.6 Q-2.4 -0.9 -2.95 -0.25 L-3.2 -0.1 Q-4.0 0.15 -4.4 -0.55 -4.35 -1.55 -3.5 -2.05 L-3.2 -2.15 Q-2.8 -2.15 -2.55 -1.75" fill="#edf5fc" fill-rule="evenodd" stroke="none"/>
    <path d="M3.75 -3.7 Q5.3 -2.2 5.3 0.0 5.3 2.2 3.75 3.75 2.2 5.3 0.0 5.3 -2.2 5.3 -3.7 3.75 -5.25 2.2 -5.25 0.0 -5.25 -2.2 -3.7 -3.7 -2.2 -5.25 0.0 -5.25 2.2 -5.25 3.75 -3.7 M2.5 0.5 L2.2 0.55 2.0 0.6 1.75 0.95 1.5 1.25 1.5 1.55 1.5 1.85 1.55 1.95 1.9 2.3 Q3.3 2.4 3.35 1.05 L3.35 0.9 Q3.05 0.45 2.5 0.5 M0.9 2.5 Q0.75 1.95 0.2 1.9 L0.0 1.95 -0.5 2.4 Q-0.75 3.25 0.2 3.45 L0.55 3.25 1.0 2.6 0.9 2.5 M-2.55 -1.75 Q-2.8 -2.15 -3.2 -2.15 L-3.5 -2.05 Q-4.35 -1.55 -4.4 -0.55 -4.0 0.15 -3.2 -0.1 L-2.95 -0.25 Q-2.4 -0.9 -2.55 -1.6 L-2.55 -1.75 M-0.2 -3.25 L-0.3 -3.4 Q-0.45 -3.95 -1.0 -4.0 L-1.2 -3.9 Q-1.6 -3.85 -1.7 -3.5 -1.95 -2.65 -1.0 -2.45 L-0.65 -2.6 Q-0.25 -2.8 -0.2 -3.25" fill="url(#gradient0)" fill-rule="evenodd" stroke="none"/>
    <path d="M2.5 0.5 Q3.05 0.45 3.35 0.9 L3.35 1.05 Q3.3 2.4 1.9 2.3 L1.55 1.95 1.5 1.85 1.5 1.55 1.5 1.25 1.75 0.95 2.0 0.6 2.2 0.55 2.5 0.5 M0.9 2.5 L1.0 2.6 0.55 3.25 0.2 3.45 Q-0.75 3.25 -0.5 2.4 L0.0 1.95 0.2 1.9 Q0.75 1.95 0.9 2.5" fill="#b6e2f7" fill-rule="evenodd" stroke="none"/>
    <path d="M3.75 -3.7 Q5.3 -2.2 5.3 0.0 5.3 2.2 3.75 3.75 2.2 5.3 0.0 5.3 -2.2 5.3 -3.7 3.75 -5.25 2.2 -5.25 0.0 -5.25 -2.2 -3.7 -3.7 -2.2 -5.25 0.0 -5.25 2.2 -5.25 3.75 -3.7 Z" ffdec:has-small-stroke="true" ffdec:original-stroke-width="0.75" fill="none" stroke="#ffffff" stroke-linecap="round" stroke-linejoin="round" stroke-width="1.0"/>
  </g>
  <defs>
    <radialGradient cx="0" cy="0" gradientTransform="matrix(0.0071, 0.0, 0.0, 0.0071, 0.0, 0.0)" gradientUnits="userSpaceOnUse" id="gradient0" r="819.2" spreadMethod="pad">
      <stop offset="0.0" stop-color="#c2e8f8"/>
      <stop offset="1.0" stop-color="#63b9f1"/>
    </radialGradient>
  </defs>
</svg>
