<?xml version="1.0" encoding="UTF-8" standalone="no"?>
<svg xmlns:ffdec="https://www.free-decompiler.com/flash" xmlns:xlink="http://www.w3.org/1999/xlink" ffdec:objectType="shape" height="24.0px" width="25.3px" xmlns="http://www.w3.org/2000/svg">
  <g transform="matrix(1.0, 0.0, 0.0, 1.0, 12.65, 12.0)">
    <path d="M10.05 -6.4 L10.0 -6.4 9.8 -6.35 9.65 -6.3 9.45 -6.05 9.25 -5.85 9.25 -5.6 9.25 -5.35 9.3 -5.25 9.55 -5.05 Q10.65 -4.95 10.65 -6.0 L10.65 -6.1 Q10.45 -6.45 10.05 -6.4 M11.0 -9.6 Q12.15 -8.4 12.15 -6.75 12.15 -5.1 11.0 -3.9 9.8 -2.75 8.15 -2.75 6.7 -2.75 5.6 -3.65 6.65 -2.1 6.65 -0.05 6.65 2.65 4.75 4.55 2.85 6.45 0.15 6.45 -2.55 6.45 -4.45 4.55 -6.35 2.65 -6.35 -0.05 -6.35 -2.75 -4.45 -4.65 -2.55 -6.55 0.15 -6.55 2.8 -6.55 4.7 -4.7 4.15 -5.65 4.15 -6.75 4.15 -8.4 5.3 -9.6 6.5 -10.75 8.15 -10.75 9.8 -10.75 11.0 -9.6 M6.2 -8.1 Q6.05 -8.4 5.7 -8.4 L5.5 -8.35 Q4.85 -7.95 4.8 -7.2 5.1 -6.65 5.7 -6.85 L5.9 -6.95 Q6.35 -7.45 6.2 -8.0 L6.2 -8.1 M7.95 -9.25 L7.9 -9.35 7.4 -9.8 7.2 -9.75 6.85 -9.4 Q6.65 -8.75 7.4 -8.65 L7.65 -8.75 7.95 -9.25 M4.7 -4.7 L4.75 -4.65 5.6 -3.65 4.75 -4.65 4.7 -4.7 M8.55 -4.3 L8.9 -4.8 8.85 -4.9 8.3 -5.35 8.1 -5.25 7.75 -4.95 Q7.6 -4.3 8.3 -4.15 L8.55 -4.3 M3.2 0.5 L3.15 0.5 3.15 0.55 2.85 0.6 2.6 0.7 2.25 1.1 1.95 1.45 1.95 1.8 1.95 2.2 2.05 2.35 2.45 2.75 Q4.2 2.9 4.25 1.2 L4.2 1.0 Q3.85 0.45 3.2 0.5 M7.15 5.5 L7.45 5.0 7.4 4.9 Q7.3 4.5 6.9 4.45 L6.7 4.5 Q6.4 4.6 6.35 4.85 6.15 5.5 6.9 5.6 L7.15 5.5 M5.2 5.85 L5.0 5.9 Q4.35 6.3 4.3 7.05 4.6 7.6 5.2 7.4 L5.4 7.3 Q5.85 6.8 5.7 6.25 L5.7 6.15 5.2 5.85 M7.65 3.5 Q9.3 3.5 10.5 4.65 11.65 5.85 11.65 7.5 11.65 9.15 10.5 10.35 9.3 11.5 7.65 11.5 6.0 11.5 4.8 10.35 3.65 9.15 3.65 7.5 3.65 5.85 4.8 4.65 6.0 3.5 7.65 3.5 M-8.35 -9.35 Q-8.25 -8.95 -7.8 -8.9 L-7.6 -9.0 -7.25 -9.3 Q-7.1 -9.95 -7.8 -10.1 L-8.05 -9.95 -8.4 -9.45 -8.35 -9.35 M-8.8 -9.0 L-9.05 -9.2 Q-10.15 -9.3 -10.15 -8.25 L-10.15 -8.15 Q-9.95 -7.8 -9.55 -7.85 L-9.5 -7.85 -9.3 -7.9 -9.15 -7.95 -8.95 -8.2 -8.75 -8.4 -8.75 -8.65 -8.75 -8.9 -8.8 -9.0 M9.5 7.85 L9.3 7.9 9.15 7.95 8.95 8.2 8.75 8.4 8.75 8.65 8.75 8.9 8.8 9.0 9.05 9.2 Q10.15 9.3 10.15 8.25 L10.15 8.15 Q9.95 7.8 9.55 7.85 L9.5 7.85 M7.25 9.3 Q7.1 9.95 7.8 10.1 L8.05 9.95 8.4 9.45 8.35 9.35 Q8.25 8.95 7.8 8.9 L7.6 9.0 7.25 9.3 M-7.65 -11.5 Q-6.0 -11.5 -4.8 -10.35 -3.65 -9.15 -3.65 -7.5 -3.65 -5.85 -4.8 -4.65 -6.0 -3.5 -7.65 -3.5 -9.3 -3.5 -10.5 -4.65 -11.65 -5.85 -11.65 -7.5 -11.65 -9.15 -10.5 -10.35 -9.3 -11.5 -7.65 -11.5 M-1.4 -4.9 L-2.0 -4.35 Q-2.25 -3.3 -1.1 -3.1 L-0.7 -3.3 Q-0.15 -3.55 -0.15 -4.1 L-0.25 -4.3 Q-0.4 -4.95 -1.1 -5.0 L-1.4 -4.9 M-3.0 -2.05 L-3.05 -2.25 Q-3.3 -2.7 -3.85 -2.75 L-4.15 -2.65 Q-5.2 -2.0 -5.3 -0.8 -4.8 0.1 -3.8 -0.2 L-3.5 -0.4 Q-2.8 -1.15 -3.0 -2.05 M-5.2 -5.85 L-5.0 -5.9 Q-4.35 -6.3 -4.3 -7.05 -4.6 -7.6 -5.2 -7.4 L-5.4 -7.3 Q-5.85 -6.8 -5.7 -6.25 L-5.7 -6.15 -5.2 -5.85 M-7.45 -5.0 L-7.4 -4.9 Q-7.3 -4.5 -6.9 -4.45 L-6.7 -4.5 Q-6.4 -4.6 -6.35 -4.85 -6.15 -5.5 -6.9 -5.6 L-7.15 -5.5 -7.45 -5.0 M1.25 2.95 Q1.1 2.3 0.4 2.25 L0.1 2.35 Q-0.35 2.45 -0.5 2.9 -0.75 3.95 0.4 4.15 L0.8 3.95 Q1.3 3.7 1.35 3.15 L1.25 2.95 M-4.75 4.65 L-4.7 4.7 Q-4.15 5.65 -4.15 6.75 -4.15 8.4 -5.3 9.6 -6.5 10.75 -8.15 10.75 -9.8 10.75 -11.0 9.6 -12.15 8.4 -12.15 6.75 -12.15 5.1 -11.0 3.9 -9.8 2.75 -8.15 2.75 -6.7 2.75 -5.6 3.65 L-4.75 4.65 M-7.2 9.75 L-6.85 9.4 Q-6.65 8.75 -7.4 8.65 L-7.65 8.75 -7.95 9.25 -7.9 9.35 -7.4 9.8 -7.2 9.75 M-6.2 8.0 L-6.2 8.1 Q-6.05 8.4 -5.7 8.4 L-5.5 8.35 Q-4.85 7.95 -4.8 7.2 -5.1 6.65 -5.7 6.85 L-5.9 6.95 Q-6.35 7.45 -6.2 8.0 M-7.75 4.95 Q-7.6 4.3 -8.3 4.15 L-8.55 4.3 -8.9 4.8 -8.85 4.9 -8.3 5.35 -8.1 5.25 -7.75 4.95 M-10.65 6.1 Q-10.45 6.45 -10.05 6.4 L-10.0 6.4 -9.8 6.35 -9.65 6.3 -9.45 6.05 -9.25 5.85 -9.25 5.6 -9.25 5.35 -9.3 5.25 -9.55 5.05 Q-10.65 4.95 -10.65 6.0 L-10.65 6.1" fill="#d2a800" fill-rule="evenodd" stroke="none"/>
    <path d="M10.05 -6.4 Q10.45 -6.45 10.65 -6.1 L10.65 -6.0 Q10.65 -4.95 9.55 -5.05 L9.3 -5.25 9.25 -5.35 9.25 -5.6 9.25 -5.85 9.45 -6.05 9.65 -6.3 9.8 -6.35 10.0 -6.4 10.05 -6.4 M8.55 -4.3 L8.3 -4.15 Q7.6 -4.3 7.75 -4.95 L8.1 -5.25 8.3 -5.35 8.85 -4.9 8.9 -4.8 8.55 -4.3 M3.15 0.55 L3.2 0.5 Q3.85 0.45 4.2 1.0 L4.25 1.2 Q4.2 2.9 2.45 2.75 L2.05 2.35 1.95 2.2 1.95 1.8 1.95 1.45 2.25 1.1 2.6 0.7 2.85 0.6 3.15 0.55 M7.25 9.3 L7.6 9.0 7.8 8.9 Q8.25 8.95 8.35 9.35 L8.4 9.45 8.05 9.95 7.8 10.1 Q7.1 9.95 7.25 9.3 M9.5 7.85 L9.55 7.85 Q9.95 7.8 10.15 8.15 L10.15 8.25 Q10.15 9.3 9.05 9.2 L8.8 9.0 8.75 8.9 8.75 8.65 8.75 8.4 8.95 8.2 9.15 7.95 9.3 7.9 9.5 7.85 M-8.8 -9.0 L-8.75 -8.9 -8.75 -8.65 -8.75 -8.4 -8.95 -8.2 -9.15 -7.95 -9.3 -7.9 -9.5 -7.85 -9.55 -7.85 Q-9.95 -7.8 -10.15 -8.15 L-10.15 -8.25 Q-10.15 -9.3 -9.05 -9.2 L-8.8 -9.0 M-8.35 -9.35 L-8.4 -9.45 -8.05 -9.95 -7.8 -10.1 Q-7.1 -9.95 -7.25 -9.3 L-7.6 -9.0 -7.8 -8.9 Q-8.25 -8.95 -8.35 -9.35 M1.25 2.95 L1.35 3.15 Q1.3 3.7 0.8 3.95 L0.4 4.15 Q-0.75 3.95 -0.5 2.9 -0.35 2.45 0.1 2.35 L0.4 2.25 Q1.1 2.3 1.25 2.95 M-10.65 6.1 L-10.65 6.0 Q-10.65 4.95 -9.55 5.05 L-9.3 5.25 -9.25 5.35 -9.25 5.6 -9.25 5.85 -9.45 6.05 -9.65 6.3 -9.8 6.35 -10.0 6.4 -10.05 6.4 Q-10.45 6.45 -10.65 6.1 M-7.75 4.95 L-8.1 5.25 -8.3 5.35 -8.85 4.9 -8.9 4.8 -8.55 4.3 -8.3 4.15 Q-7.6 4.3 -7.75 4.95" fill="#fbc900" fill-rule="evenodd" stroke="none"/>
    <path d="M7.95 -9.25 L7.65 -8.75 7.4 -8.65 Q6.65 -8.75 6.85 -9.4 L7.2 -9.75 7.4 -9.8 7.9 -9.35 7.95 -9.25 M6.2 -8.1 L6.2 -8.0 Q6.35 -7.45 5.9 -6.95 L5.7 -6.85 Q5.1 -6.65 4.8 -7.2 4.85 -7.95 5.5 -8.35 L5.7 -8.4 Q6.05 -8.4 6.2 -8.1 M5.2 5.85 L5.7 6.15 5.7 6.25 Q5.85 6.8 5.4 7.3 L5.2 7.4 Q4.6 7.6 4.3 7.05 4.35 6.3 5.0 5.9 L5.2 5.85 M7.15 5.5 L6.9 5.6 Q6.15 5.5 6.35 4.85 6.4 4.6 6.7 4.5 L6.9 4.45 Q7.3 4.5 7.4 4.9 L7.45 5.0 7.15 5.5 M-7.45 -5.0 L-7.15 -5.5 -6.9 -5.6 Q-6.15 -5.5 -6.35 -4.85 -6.4 -4.6 -6.7 -4.5 L-6.9 -4.45 Q-7.3 -4.5 -7.4 -4.9 L-7.45 -5.0 M-5.2 -5.85 L-5.7 -6.15 -5.7 -6.25 Q-5.85 -6.8 -5.4 -7.3 L-5.2 -7.4 Q-4.6 -7.6 -4.3 -7.05 -4.35 -6.3 -5.0 -5.9 L-5.2 -5.85 M-3.0 -2.05 Q-2.8 -1.15 -3.5 -0.4 L-3.8 -0.2 Q-4.8 0.1 -5.3 -0.8 -5.2 -2.0 -4.15 -2.65 L-3.85 -2.75 Q-3.3 -2.7 -3.05 -2.25 L-3.0 -2.05 M-1.4 -4.9 L-1.1 -5.0 Q-0.4 -4.95 -0.25 -4.3 L-0.15 -4.1 Q-0.15 -3.55 -0.7 -3.3 L-1.1 -3.1 Q-2.25 -3.3 -2.0 -4.35 L-1.4 -4.9 M-6.2 8.0 Q-6.35 7.45 -5.9 6.95 L-5.7 6.85 Q-5.1 6.65 -4.8 7.2 -4.85 7.95 -5.5 8.35 L-5.7 8.4 Q-6.05 8.4 -6.2 8.1 L-6.2 8.0 M-7.2 9.75 L-7.4 9.8 -7.9 9.35 -7.95 9.25 -7.65 8.75 -7.4 8.65 Q-6.65 8.75 -6.85 9.4 L-7.2 9.75" fill="#ffeda6" fill-rule="evenodd" stroke="none"/>
    <path d="M3.2 0.5 L3.15 0.55 3.15 0.5 3.2 0.5" fill="#4f79d2" fill-rule="evenodd" stroke="none"/>
    <path d="M11.0 -9.6 Q12.15 -8.4 12.15 -6.75 12.15 -5.1 11.0 -3.9 9.8 -2.75 8.15 -2.75 6.7 -2.75 5.6 -3.65 6.65 -2.1 6.65 -0.05 6.65 2.65 4.75 4.55 2.85 6.45 0.15 6.45 -2.55 6.45 -4.45 4.55 -6.35 2.65 -6.35 -0.05 -6.35 -2.75 -4.45 -4.65 -2.55 -6.55 0.15 -6.55 2.8 -6.55 4.7 -4.7 4.15 -5.65 4.15 -6.75 4.15 -8.4 5.3 -9.6 6.5 -10.75 8.15 -10.75 9.8 -10.75 11.0 -9.6 M5.6 -3.65 L4.75 -4.65 4.7 -4.7 M7.65 3.5 Q9.3 3.5 10.5 4.65 11.65 5.85 11.65 7.5 11.65 9.15 10.5 10.35 9.3 11.5 7.65 11.5 6.0 11.5 4.8 10.35 3.65 9.15 3.65 7.5 3.65 5.85 4.8 4.65 6.0 3.5 7.65 3.5 M-7.65 -11.5 Q-6.0 -11.5 -4.8 -10.35 -3.65 -9.15 -3.65 -7.5 -3.65 -5.85 -4.8 -4.65 -6.0 -3.5 -7.65 -3.5 -9.3 -3.5 -10.5 -4.65 -11.65 -5.85 -11.65 -7.5 -11.65 -9.15 -10.5 -10.35 -9.3 -11.5 -7.65 -11.5 M-4.75 4.65 L-5.6 3.65 Q-6.7 2.75 -8.15 2.75 -9.8 2.75 -11.0 3.9 -12.15 5.1 -12.15 6.75 -12.15 8.4 -11.0 9.6 -9.8 10.75 -8.15 10.75 -6.5 10.75 -5.3 9.6 -4.15 8.4 -4.15 6.75 -4.15 5.65 -4.7 4.7 L-4.75 4.65 Z" fill="none" stroke="#ffffff" stroke-linecap="round" stroke-linejoin="round" stroke-width="1.0"/>
  </g>
</svg>
