<?xml version="1.0" encoding="UTF-8" standalone="no"?>
<svg xmlns:ffdec="https://www.free-decompiler.com/flash" xmlns:xlink="http://www.w3.org/1999/xlink" ffdec:objectType="shape" height="23.25px" width="19.5px" xmlns="http://www.w3.org/2000/svg">
  <g transform="matrix(1.0, 0.0, 0.0, 1.0, 9.75, 11.65)">
    <path d="M-5.9 -2.45 L-5.95 -2.65 Q-6.2 -3.1 -6.75 -3.15 L-7.05 -3.05 Q-8.1 -2.4 -8.2 -1.2 -7.7 -0.3 -6.7 -0.6 L-6.4 -0.8 Q-5.7 -1.55 -5.9 -2.45 M-7.35 -5.05 Q-5.45 -6.95 -2.75 -6.95 -0.1 -6.95 1.8 -5.1 1.25 -6.05 1.25 -7.15 1.25 -8.8 2.4 -10.0 3.6 -11.15 5.25 -11.15 6.9 -11.15 8.1 -10.0 9.25 -8.8 9.25 -7.15 9.25 -5.5 8.1 -4.3 6.9 -3.15 5.25 -3.15 3.8 -3.15 2.7 -4.05 3.75 -2.5 3.75 -0.45 3.75 2.25 1.85 4.15 -0.05 6.05 -2.75 6.05 -5.45 6.05 -7.35 4.15 -9.25 2.25 -9.25 -0.45 -9.25 -3.15 -7.35 -5.05 M-4.3 -5.3 L-4.9 -4.75 Q-5.15 -3.7 -4.0 -3.5 L-3.6 -3.7 Q-3.05 -3.95 -3.05 -4.5 L-3.15 -4.7 Q-3.3 -5.35 -4.0 -5.4 L-4.3 -5.3 M7.15 -6.8 L7.1 -6.8 6.9 -6.75 6.75 -6.7 6.55 -6.45 6.35 -6.25 6.35 -6.0 6.35 -5.75 6.4 -5.65 6.65 -5.45 Q7.75 -5.35 7.75 -6.4 L7.75 -6.5 Q7.55 -6.85 7.15 -6.8 M2.6 -8.75 Q1.95 -8.35 1.9 -7.6 2.2 -7.05 2.8 -7.25 L3.0 -7.35 Q3.45 -7.85 3.3 -8.4 L3.3 -8.5 2.8 -8.8 2.6 -8.75 M5.05 -9.65 L5.0 -9.75 4.5 -10.2 4.3 -10.15 3.95 -9.8 Q3.75 -9.15 4.5 -9.05 L4.75 -9.15 Q5.05 -9.3 5.05 -9.65 M2.7 -4.05 L1.85 -5.05 1.8 -5.1 1.85 -5.05 2.7 -4.05 M5.4 -5.75 L5.2 -5.65 4.85 -5.35 Q4.7 -4.7 5.4 -4.55 L5.65 -4.7 6.0 -5.2 5.95 -5.3 Q5.85 -5.7 5.4 -5.75 M0.3 0.1 L0.25 0.1 0.25 0.15 -0.05 0.2 -0.3 0.3 -0.65 0.7 -0.95 1.05 -0.95 1.4 -0.95 1.8 -0.85 1.95 -0.45 2.35 Q1.3 2.5 1.35 0.8 L1.3 0.6 Q0.95 0.05 0.3 0.1 M4.0 5.2 L4.25 5.1 4.55 4.6 4.5 4.5 Q4.4 4.1 4.0 4.05 L3.8 4.1 Q3.5 4.2 3.45 4.45 3.25 5.1 4.0 5.2 M2.3 5.45 L2.1 5.5 Q1.45 5.9 1.4 6.65 1.7 7.2 2.3 7.0 L2.5 6.9 Q2.95 6.4 2.8 5.85 L2.8 5.75 Q2.65 5.45 2.3 5.45 M4.75 3.1 Q6.4 3.1 7.6 4.25 8.75 5.45 8.75 7.1 8.75 8.75 7.6 9.95 6.4 11.1 4.75 11.1 3.1 11.1 1.9 9.95 0.75 8.75 0.75 7.1 0.75 5.45 1.9 4.25 3.1 3.1 4.75 3.1 M-1.55 2.75 L-1.65 2.55 Q-1.8 1.9 -2.5 1.85 L-2.8 1.95 Q-3.25 2.05 -3.4 2.5 -3.65 3.55 -2.5 3.75 L-2.1 3.55 Q-1.6 3.3 -1.55 2.75 M6.65 7.45 L6.6 7.45 6.4 7.5 6.25 7.55 6.05 7.8 5.85 8.0 5.85 8.25 5.85 8.5 5.9 8.6 6.15 8.8 Q7.25 8.9 7.25 7.85 L7.25 7.75 Q7.05 7.4 6.65 7.45 M4.9 9.7 L5.15 9.55 5.5 9.05 5.45 8.95 Q5.35 8.55 4.9 8.5 L4.7 8.6 4.35 8.9 Q4.2 9.55 4.9 9.7" fill="#d2a800" fill-rule="evenodd" stroke="none"/>
    <path d="M-5.9 -2.45 Q-5.7 -1.55 -6.4 -0.8 L-6.7 -0.6 Q-7.7 -0.3 -8.2 -1.2 -8.1 -2.4 -7.05 -3.05 L-6.75 -3.15 Q-6.2 -3.1 -5.95 -2.65 L-5.9 -2.45 M-4.3 -5.3 L-4.0 -5.4 Q-3.3 -5.35 -3.15 -4.7 L-3.05 -4.5 Q-3.05 -3.95 -3.6 -3.7 L-4.0 -3.5 Q-5.15 -3.7 -4.9 -4.75 L-4.3 -5.3 M5.05 -9.65 Q5.05 -9.3 4.75 -9.15 L4.5 -9.05 Q3.75 -9.15 3.95 -9.8 L4.3 -10.15 4.5 -10.2 5.0 -9.75 5.05 -9.65 M2.6 -8.75 L2.8 -8.8 3.3 -8.5 3.3 -8.4 Q3.45 -7.85 3.0 -7.35 L2.8 -7.25 Q2.2 -7.05 1.9 -7.6 1.95 -8.35 2.6 -8.75 M2.3 5.45 Q2.65 5.45 2.8 5.75 L2.8 5.85 Q2.95 6.4 2.5 6.9 L2.3 7.0 Q1.7 7.2 1.4 6.65 1.45 5.9 2.1 5.5 L2.3 5.45 M4.0 5.2 Q3.25 5.1 3.45 4.45 3.5 4.2 3.8 4.1 L4.0 4.05 Q4.4 4.1 4.5 4.5 L4.55 4.6 4.25 5.1 4.0 5.2" fill="#ffeda6" fill-rule="evenodd" stroke="none"/>
    <path d="M7.15 -6.8 Q7.55 -6.85 7.75 -6.5 L7.75 -6.4 Q7.75 -5.35 6.65 -5.45 L6.4 -5.65 6.35 -5.75 6.35 -6.0 6.35 -6.25 6.55 -6.45 6.75 -6.7 6.9 -6.75 7.1 -6.8 7.15 -6.8 M5.4 -5.75 Q5.85 -5.7 5.95 -5.3 L6.0 -5.2 5.65 -4.7 5.4 -4.55 Q4.7 -4.7 4.85 -5.35 L5.2 -5.65 5.4 -5.75 M0.3 0.1 Q0.95 0.05 1.3 0.6 L1.35 0.8 Q1.3 2.5 -0.45 2.35 L-0.85 1.95 -0.95 1.8 -0.95 1.4 -0.95 1.05 -0.65 0.7 -0.3 0.3 -0.05 0.2 0.25 0.15 0.3 0.1 M4.9 9.7 Q4.2 9.55 4.35 8.9 L4.7 8.6 4.9 8.5 Q5.35 8.55 5.45 8.95 L5.5 9.05 5.15 9.55 4.9 9.7 M6.65 7.45 Q7.05 7.4 7.25 7.75 L7.25 7.85 Q7.25 8.9 6.15 8.8 L5.9 8.6 5.85 8.5 5.85 8.25 5.85 8.0 6.05 7.8 6.25 7.55 6.4 7.5 6.6 7.45 6.65 7.45 M-1.55 2.75 Q-1.6 3.3 -2.1 3.55 L-2.5 3.75 Q-3.65 3.55 -3.4 2.5 -3.25 2.05 -2.8 1.95 L-2.5 1.85 Q-1.8 1.9 -1.65 2.55 L-1.55 2.75" fill="#fbc900" fill-rule="evenodd" stroke="none"/>
    <path d="M0.25 0.15 L0.25 0.1 0.3 0.1 0.25 0.15" fill="#4f79d2" fill-rule="evenodd" stroke="none"/>
    <path d="M-7.35 -5.05 Q-5.45 -6.95 -2.75 -6.95 -0.1 -6.95 1.8 -5.1 1.25 -6.05 1.25 -7.15 1.25 -8.8 2.4 -10.0 3.6 -11.15 5.25 -11.15 6.9 -11.15 8.1 -10.0 9.25 -8.8 9.25 -7.15 9.25 -5.5 8.1 -4.3 6.9 -3.15 5.25 -3.15 3.8 -3.15 2.7 -4.05 3.75 -2.5 3.75 -0.45 3.75 2.25 1.85 4.15 -0.05 6.05 -2.75 6.05 -5.45 6.05 -7.35 4.15 -9.25 2.25 -9.25 -0.45 -9.25 -3.15 -7.35 -5.05 M1.8 -5.1 L1.85 -5.05 2.7 -4.05 M4.75 3.1 Q6.4 3.1 7.6 4.25 8.75 5.45 8.75 7.1 8.75 8.75 7.6 9.95 6.4 11.1 4.75 11.1 3.1 11.1 1.9 9.95 0.75 8.75 0.75 7.1 0.75 5.45 1.9 4.25 3.1 3.1 4.75 3.1 Z" fill="none" stroke="#ffffff" stroke-linecap="round" stroke-linejoin="round" stroke-width="1.0"/>
  </g>
</svg>
