<?xml version="1.0" encoding="UTF-8" standalone="no"?>
<svg xmlns:ffdec="https://www.free-decompiler.com/flash" xmlns:xlink="http://www.w3.org/1999/xlink" ffdec:objectType="shape" height="20.75px" width="20.6px" xmlns="http://www.w3.org/2000/svg">
  <g transform="matrix(1.0, 0.0, 0.0, 1.0, -92.0, 9.85)">
    <path d="M109.55 -6.75 Q112.6 -3.6 112.6 0.95 L112.6 3.3 Q112.6 4.5 111.8 5.3 111.0 6.15 109.8 6.15 108.6 6.15 107.8 5.35 106.95 4.55 106.95 3.35 L106.95 3.15 Q106.95 1.9 106.05 1.0 105.15 0.1 103.9 0.1 102.65 0.1 101.75 1.0 100.85 1.85 100.85 3.15 L100.85 7.05 Q100.85 8.6 99.7 9.75 98.6 10.9 97.0 10.9 L95.25 10.9 Q93.65 10.9 92.5 9.75 L92.0 9.15 92.0 -8.1 92.5 -8.7 Q93.65 -9.8 95.25 -9.8 L95.55 -9.8 Q96.8 -9.8 97.85 -9.0 99.85 -9.85 102.0 -9.85 106.5 -9.85 109.55 -6.75" fill="#ffffff" fill-rule="evenodd" stroke="none"/>
  </g>
</svg>
