<?xml version="1.0" encoding="UTF-8" standalone="no"?>
<svg xmlns:ffdec="https://www.free-decompiler.com/flash" xmlns:xlink="http://www.w3.org/1999/xlink" ffdec:objectType="shape" height="8.55px" width="8.55px" xmlns="http://www.w3.org/2000/svg">
  <g transform="matrix(1.0, 0.0, 0.0, 1.0, 0.3, 0.3)">
    <path d="M5.5 4.45 L5.3 4.7 5.1 4.95 5.1 5.15 5.1 5.4 5.15 5.45 5.4 5.75 Q6.5 5.8 6.55 4.75 L6.5 4.65 Q6.3 4.3 5.85 4.35 L5.65 4.4 5.5 4.45 M8.0 4.0 Q8.0 5.65 6.85 6.85 5.65 8.0 4.0 8.0 2.3 8.0 1.15 6.85 -0.05 5.65 -0.05 4.0 -0.05 2.3 1.15 1.15 2.3 -0.05 4.0 -0.05 5.65 -0.05 6.85 1.15 8.0 2.3 8.0 4.0 M2.05 2.75 L2.0 2.65 1.5 2.3 1.3 2.4 Q0.65 2.8 0.6 3.55 0.9 4.05 1.55 3.9 L1.7 3.75 Q2.15 3.3 2.05 2.75 M3.8 1.5 L3.75 1.35 Q3.65 0.95 3.2 0.9 L3.05 1.0 2.65 1.3 Q2.5 1.95 3.2 2.1 L3.45 2.0 3.8 1.5 M4.65 5.85 L4.15 5.4 3.95 5.45 Q3.65 5.5 3.6 5.8 3.4 6.45 4.15 6.6 L4.4 6.45 4.75 5.95 4.65 5.85" fill="#76695f" fill-rule="evenodd" stroke="none"/>
    <path d="M3.8 1.5 L3.45 2.0 3.2 2.1 Q2.5 1.95 2.65 1.3 L3.05 1.0 3.2 0.9 Q3.65 0.95 3.75 1.35 L3.8 1.5 M2.05 2.75 Q2.15 3.3 1.7 3.75 L1.55 3.9 Q0.9 4.05 0.6 3.55 0.65 2.8 1.3 2.4 L1.5 2.3 2.0 2.65 2.05 2.75" fill="#a09389" fill-rule="evenodd" stroke="none"/>
    <path d="M5.5 4.45 L5.65 4.4 5.85 4.35 Q6.3 4.3 6.5 4.65 L6.55 4.75 Q6.5 5.8 5.4 5.75 L5.15 5.45 5.1 5.4 5.1 5.15 5.1 4.95 5.3 4.7 5.5 4.45 M4.65 5.85 L4.75 5.95 4.4 6.45 4.15 6.6 Q3.4 6.45 3.6 5.8 3.65 5.5 3.95 5.45 L4.15 5.4 4.65 5.85" fill="#514942" fill-rule="evenodd" stroke="none"/>
    <path d="M8.0 4.0 Q8.0 5.65 6.85 6.85 5.65 8.0 4.0 8.0 2.3 8.0 1.15 6.85 -0.05 5.65 -0.05 4.0 -0.05 2.3 1.15 1.15 2.3 -0.05 4.0 -0.05 5.65 -0.05 6.85 1.15 8.0 2.3 8.0 4.0 Z" ffdec:has-small-stroke="true" ffdec:original-stroke-width="0.5" fill="none" stroke="#ffffff" stroke-linecap="round" stroke-linejoin="round" stroke-width="1.0"/>
  </g>
</svg>
