<?xml version="1.0" encoding="UTF-8" standalone="no"?>
<svg xmlns:ffdec="https://www.free-decompiler.com/flash" xmlns:xlink="http://www.w3.org/1999/xlink" ffdec:objectType="shape" height="21.2px" width="21.4px" xmlns="http://www.w3.org/2000/svg">
  <g transform="matrix(1.0, 0.0, 0.0, 1.0, -158.25, 9.8)">
    <path d="M164.05 -1.55 Q164.05 0.0 165.15 1.1 166.25 2.2 167.8 2.2 169.35 2.2 170.45 1.1 171.55 0.0 171.55 -1.55 171.55 -3.1 170.45 -4.2 169.35 -5.25 167.8 -5.25 166.25 -5.25 165.15 -4.2 164.05 -3.1 164.05 -1.55 M175.45 -9.8 L175.75 -9.8 Q177.35 -9.8 178.5 -8.7 179.65 -7.55 179.65 -5.95 L179.65 7.05 Q179.65 8.6 178.5 9.75 177.35 10.9 175.75 10.9 L175.45 10.9 Q174.4 10.9 173.45 10.35 171.3 11.4 168.9 11.4 164.4 11.4 161.35 8.3 158.25 5.25 158.25 0.75 158.25 -3.65 161.35 -6.75 164.45 -9.8 168.9 -9.8 171.05 -9.8 173.05 -8.95 174.1 -9.8 175.45 -9.8 M172.6 2.15 Q172.15 1.75 171.55 1.75 170.95 1.75 170.55 2.15 170.15 2.55 170.15 3.15 170.15 4.6 171.55 4.6 172.15 4.6 172.6 4.2 173.0 3.75 173.0 3.15 173.0 2.55 172.6 2.15 M173.25 0.9 Q174.15 0.9 174.15 0.0 174.15 -0.9 173.25 -0.9 172.35 -0.9 172.35 0.0 172.35 0.9 173.25 0.9" fill="#ffffff" fill-rule="evenodd" stroke="none"/>
  </g>
</svg>
