<?xml version="1.0" encoding="UTF-8" standalone="no"?>
<svg xmlns:ffdec="https://www.free-decompiler.com/flash" xmlns:xlink="http://www.w3.org/1999/xlink" ffdec:objectType="shape" height="119.15px" width="221.0px" xmlns="http://www.w3.org/2000/svg">
  <g transform="matrix(1.0, 0.0, 0.0, 1.0, 110.5, 59.55)">
    <path d="M33.75 -4.5 L33.75 -22.55 42.75 -22.55 42.75 -4.5 60.8 -4.5 60.8 4.55 42.75 4.55 42.75 22.55 33.75 22.55 33.75 4.55 15.7 4.55 15.7 -4.5 33.75 -4.5 M82.85 -10.9 L76.05 -11.6 Q76.7 -19.1 81.5 -22.85 85.95 -26.95 93.45 -26.95 101.3 -26.95 105.7 -22.85 110.5 -18.4 110.5 -11.9 110.5 -8.85 109.15 -5.8 107.75 -2.7 104.7 0.7 101.6 4.45 94.45 10.25 L86.95 17.05 Q85.25 18.8 84.25 20.5 L110.5 20.5 110.5 26.95 75.0 26.95 Q74.65 24.6 75.7 22.55 77.05 18.8 80.15 15.35 82.85 11.6 88.65 7.2 97.55 0.0 100.6 -4.4 103.65 -8.5 103.65 -12.25 103.65 -16.0 100.95 -18.75 97.85 -21.5 93.45 -21.5 88.65 -21.5 85.95 -18.75 82.85 -15.7 82.85 -10.9 M0.45 10.1 Q0.45 22.4 -8.15 31.0 -16.75 39.65 -29.05 39.65 L-29.35 39.65 -29.35 45.15 Q-29.35 51.1 -33.55 55.35 -37.8 59.6 -43.75 59.6 L-44.45 59.6 Q-50.35 59.6 -54.6 55.35 -58.85 51.1 -58.85 45.15 L-58.85 30.05 -59.8 31.0 Q-68.4 39.65 -80.7 39.65 -86.0 39.65 -90.9 37.85 -93.1 38.55 -95.4 38.55 L-96.1 38.55 Q-102.0 38.55 -106.25 34.3 -110.5 30.1 -110.5 24.1 L-110.5 -45.1 Q-110.5 -51.05 -106.25 -55.3 -102.0 -59.55 -96.1 -59.55 L-95.4 -59.55 Q-89.45 -59.55 -85.2 -55.3 -81.0 -51.05 -81.0 -45.1 L-81.0 -38.55 -80.7 -38.55 Q-68.5 -38.55 -59.85 -29.9 L-58.25 -28.25 Q-57.3 -31.6 -54.6 -34.3 -50.35 -38.55 -44.45 -38.55 L-43.75 -38.55 Q-40.65 -38.55 -37.75 -37.25 -33.5 -38.55 -29.05 -38.55 -16.85 -38.55 -8.2 -29.9 0.45 -21.3 0.45 -9.1 L0.45 10.1 M-96.1 -52.75 Q-99.2 -52.75 -101.45 -50.5 L-101.5 -50.45 Q-103.7 -48.2 -103.7 -45.1 L-103.7 4.95 Q-103.7 8.05 -101.5 10.3 L-101.45 10.3 Q-99.2 12.55 -96.1 12.55 L-95.4 12.55 Q-93.3 12.55 -91.5 11.45 L-91.05 11.3 -90.55 11.4 Q-85.9 13.65 -80.7 13.65 -71.2 13.65 -64.65 7.0 -60.35 2.75 -58.85 -2.7 L-58.85 -15.45 Q-60.35 -20.9 -64.65 -25.15 -71.2 -31.7 -80.7 -31.7 L-86.5 -30.95 -87.1 -31.0 -87.55 -31.35 -87.75 -31.95 -87.75 -45.1 Q-87.75 -48.25 -90.0 -50.5 -92.25 -52.75 -95.4 -52.75 L-96.1 -52.75 M-85.45 -14.95 Q-85.45 -18.6 -83.0 -20.95 -80.55 -23.35 -76.95 -23.35 -73.5 -23.35 -71.05 -20.9 -68.8 -18.7 -68.55 -15.6 -67.75 -16.75 -65.85 -16.75 -62.5 -16.75 -62.5 -13.4 -62.5 -10.1 -65.85 -10.1 -68.45 -10.1 -69.0 -12.1 -69.45 -10.8 -70.35 -9.65 -69.3 -10.2 -67.95 -10.2 -65.75 -10.2 -64.15 -8.65 -62.6 -7.1 -62.6 -4.85 -62.6 -2.65 -64.15 -1.1 L-64.15 -1.05 Q-65.75 0.45 -67.95 0.45 -70.25 0.45 -71.7 -1.1 -73.25 -2.65 -73.25 -4.85 -73.25 -6.5 -72.4 -7.75 -74.4 -6.5 -76.95 -6.5 -80.55 -6.5 -83.0 -8.95 -85.45 -11.4 -85.45 -14.95 M-49.85 -29.45 Q-52.05 -27.2 -52.05 -24.1 L-52.05 -16.4 Q-51.2 -12.95 -51.2 -9.1 L-51.2 10.1 Q-51.2 14.0 -52.05 17.5 L-52.05 25.95 Q-52.05 29.1 -49.85 31.3 -47.55 33.6 -44.45 33.6 L-43.75 33.6 Q-40.6 33.6 -38.35 31.3 -36.1 29.1 -36.1 25.95 L-36.1 13.85 -35.9 13.3 -35.45 12.9 -34.85 12.9 -29.05 13.65 Q-19.55 13.65 -13.0 7.0 -6.35 0.4 -6.35 -9.1 -6.35 -18.6 -13.0 -25.15 -19.55 -31.7 -29.05 -31.7 -33.75 -31.7 -38.0 -29.85 L-38.5 -29.8 Q-38.8 -29.85 -39.0 -30.0 -41.15 -31.7 -43.75 -31.7 L-44.45 -31.7 Q-47.55 -31.7 -49.8 -29.5 L-49.85 -29.45 M-31.35 -19.35 Q-28.6 -22.1 -24.75 -22.1 -20.9 -22.1 -18.15 -19.35 -15.4 -16.6 -15.4 -12.75 -15.4 -8.9 -18.15 -6.15 -20.9 -3.4 -24.75 -3.4 -28.6 -3.4 -31.35 -6.15 -34.1 -8.9 -34.1 -12.75 -34.1 -16.6 -31.35 -19.35 M-32.9 -5.1 Q-29.95 -5.1 -30.0 -2.3 L-30.1 -1.15 -29.5 -1.8 -29.55 -1.8 Q-28.05 -3.4 -25.8 -3.4 -23.55 -3.4 -22.05 -1.8 L-22.0 -1.75 Q-20.45 -0.3 -20.45 1.95 -20.45 4.15 -22.0 5.7 L-22.05 5.75 Q-23.55 7.25 -25.8 7.25 -28.0 7.25 -29.55 5.7 L-29.55 5.75 Q-31.15 4.2 -31.15 1.95 -31.15 0.9 -30.75 0.0 -31.5 0.65 -32.9 0.65 -35.75 0.7 -35.75 -2.3 -35.75 -5.1 -32.9 -5.1" fill="#ffffff" fill-rule="evenodd" stroke="none"/>
  </g>
</svg>
