<?xml version="1.0" encoding="UTF-8" standalone="no"?>
<svg xmlns:ffdec="https://www.free-decompiler.com/flash" xmlns:xlink="http://www.w3.org/1999/xlink" ffdec:objectType="shape" height="102.5px" width="157.55px" xmlns="http://www.w3.org/2000/svg">
  <g transform="matrix(1.0, 0.0, 0.0, 1.0, 118.4, 51.25)">
    <path d="M24.55 -18.2 L24.55 -3.6 39.15 -3.6 39.15 3.65 24.55 3.65 24.55 18.2 17.3 18.2 17.3 3.65 2.75 3.65 2.75 -3.6 17.3 -3.6 17.3 -18.2 24.55 -18.2 M-81.35 -49.9 Q-78.6 -51.25 -75.5 -51.25 L-74.85 -51.25 Q-69.25 -51.25 -65.35 -47.3 L-64.2 -46.05 -63.1 -47.3 Q-59.15 -51.25 -53.65 -51.25 L-52.95 -51.25 Q-49.9 -51.25 -47.05 -49.9 -42.75 -51.25 -38.25 -51.25 -26.45 -51.25 -18.1 -42.9 -9.75 -34.6 -9.75 -22.8 L-9.75 -3.6 Q-9.75 8.3 -18.05 16.6 -26.35 24.95 -38.25 24.95 L-39.55 24.95 -39.55 31.45 Q-39.55 37.0 -43.45 40.95 -47.4 44.9 -52.95 44.9 L-53.65 44.9 Q-59.15 44.9 -63.1 40.95 -64.65 39.4 -65.55 37.65 -67.3 40.45 -69.8 42.95 -78.1 51.25 -89.9 51.25 -102.1 51.25 -110.85 41.6 -115.05 37.0 -115.05 31.25 L-115.05 9.95 Q-118.4 3.6 -118.4 -3.6 L-118.4 -22.8 Q-118.4 -34.6 -110.05 -42.9 -101.7 -51.25 -89.9 -51.25 -85.5 -51.25 -81.35 -49.9 M-99.2 -30.55 Q-97.2 -33.75 -93.45 -33.75 -90.45 -33.75 -88.5 -31.85 -86.5 -29.9 -86.5 -26.9 -86.5 -25.0 -87.6 -23.3 -89.6 -20.0 -93.1 -20.0 -96.15 -20.0 -98.2 -21.9 -100.25 -23.75 -100.25 -26.9 -100.25 -28.85 -99.2 -30.55 M-105.45 -22.15 Q-104.45 -23.05 -103.05 -23.05 -101.7 -23.05 -100.7 -22.1 -99.7 -21.05 -99.7 -19.75 -99.7 -18.3 -100.65 -17.35 -101.6 -16.35 -103.05 -16.35 -106.4 -16.35 -106.4 -19.75 -106.4 -21.2 -105.45 -22.15 M-106.75 -5.95 Q-99.9 0.95 -89.9 0.95 -86.95 0.95 -84.15 0.15 L-84.05 5.7 Q-84.05 7.25 -85.15 8.35 -86.25 9.45 -87.8 9.45 -89.4 9.45 -90.35 7.9 L-92.3 4.75 Q-95.3 1.5 -99.7 1.5 -104.0 1.5 -107.1 4.55 -110.15 7.65 -110.15 11.95 -110.15 16.0 -107.3 19.25 -104.4 22.5 -102.45 23.65 -96.65 27.25 -89.9 27.25 -80.0 27.25 -73.15 20.35 -68.6 15.85 -67.05 10.0 L-67.05 -37.8 Q-67.05 -39.4 -66.7 -40.9 -67.35 -42.55 -68.75 -43.9 -71.3 -46.4 -74.85 -46.4 L-75.5 -46.4 Q-78.45 -46.4 -80.8 -44.6 -85.2 -46.4 -89.9 -46.4 -99.8 -46.4 -106.7 -39.55 -113.6 -32.7 -113.6 -22.8 -113.6 -12.8 -106.75 -5.95 M-94.65 -16.2 Q-93.1 -15.25 -94.0 -13.7 -95.0 -12.15 -96.5 -13.1 -98.05 -14.05 -97.1 -15.6 -96.15 -17.1 -94.65 -16.2 M-59.75 -43.9 Q-61.1 -42.5 -61.7 -40.85 -61.4 -39.4 -61.4 -37.8 L-61.5 15.85 -59.75 18.3 Q-57.15 20.9 -53.65 20.9 L-52.95 20.9 Q-49.4 20.9 -46.85 18.3 -44.3 15.8 -44.3 12.25 L-44.3 0.15 Q-41.35 0.95 -38.25 0.95 -28.35 0.95 -21.5 -6.0 -14.55 -12.9 -14.55 -22.8 -14.55 -32.7 -21.5 -39.55 -28.35 -46.4 -38.25 -46.4 -43.15 -46.4 -47.6 -44.5 -50.0 -46.4 -52.95 -46.4 L-53.65 -46.4 Q-57.15 -46.4 -59.75 -43.9 M-42.1 -17.8 Q-40.2 -17.8 -40.2 -16.0 -40.2 -14.05 -42.1 -14.05 -43.95 -14.05 -43.95 -16.0 -43.95 -17.8 -42.1 -17.8 M-25.6 -26.45 Q-25.6 -23.0 -28.05 -20.55 -30.5 -18.1 -33.95 -18.1 -37.4 -18.1 -39.85 -20.55 -42.3 -23.0 -42.3 -26.45 -42.3 -29.9 -39.85 -32.35 -37.4 -34.8 -33.95 -34.8 -30.5 -34.8 -28.05 -32.35 -25.6 -29.9 -25.6 -26.45 M-31.95 -14.8 Q-30.65 -13.6 -30.65 -11.75 -30.65 -9.95 -31.95 -8.7 -33.15 -7.45 -35.0 -7.45 -36.8 -7.45 -38.05 -8.7 -39.35 -9.95 -39.35 -11.75 -39.35 -13.6 -38.05 -14.8 -36.8 -16.1 -35.0 -16.1 -33.15 -16.1 -31.95 -14.8" fill="#ffffff" fill-rule="evenodd" stroke="none"/>
  </g>
</svg>
