<?xml version="1.0" encoding="UTF-8" standalone="no"?>
<svg xmlns:ffdec="https://www.free-decompiler.com/flash" xmlns:xlink="http://www.w3.org/1999/xlink" ffdec:objectType="shape" height="43.55px" width="406.25px" xmlns="http://www.w3.org/2000/svg">
  <g transform="matrix(1.0, 0.0, 0.0, 1.0, 203.45, 21.4)">
    <path d="M195.5 -4.25 Q194.25 -4.25 194.25 -3.05 194.25 -1.8 195.5 -1.8 L196.45 -1.8 Q199.05 -1.8 200.9 0.05 202.8 1.9 202.8 4.55 202.8 7.15 200.9 9.05 199.05 10.9 196.45 10.9 L184.2 10.9 Q183.05 10.9 182.25 10.1 181.4 9.25 181.4 8.1 181.4 6.95 182.25 6.15 183.1 5.3 184.25 5.3 L187.8 5.3 Q189.0 5.3 189.0 4.1 189.0 2.9 187.8 2.9 185.1 2.9 183.25 1.05 181.4 -0.8 181.4 -3.45 181.4 -6.1 183.3 -7.95 185.15 -9.8 187.8 -9.8 L200.0 -9.8 Q201.15 -9.8 201.95 -9.0 202.8 -8.2 202.8 -7.05 202.8 -5.9 201.95 -5.05 201.1 -4.25 199.95 -4.25 L195.5 -4.25" fill="#ffffff" fill-rule="evenodd" stroke="none"/>
    <path d="M170.45 -4.2 Q169.35 -5.25 167.8 -5.25 166.25 -5.25 165.15 -4.2 164.05 -3.1 164.05 -1.55 164.05 0.0 165.15 1.1 166.25 2.2 167.8 2.2 169.35 2.2 170.45 1.1 171.55 0.0 171.55 -1.55 171.55 -3.1 170.45 -4.2 M175.75 -9.8 Q177.35 -9.8 178.5 -8.7 179.65 -7.55 179.65 -5.95 L179.65 7.05 Q179.65 8.6 178.5 9.75 177.35 10.9 175.75 10.9 L175.45 10.9 Q174.4 10.9 173.45 10.35 171.3 11.4 168.9 11.4 164.4 11.4 161.35 8.3 158.25 5.25 158.25 0.75 158.25 -3.65 161.35 -6.75 164.45 -9.8 168.9 -9.8 171.05 -9.8 173.05 -8.95 174.1 -9.8 175.45 -9.8 L175.75 -9.8 M174.15 0.0 Q174.15 -0.9 173.25 -0.9 172.35 -0.9 172.35 0.0 172.35 0.9 173.25 0.9 174.15 0.9 174.15 0.0 M173.0 3.15 Q173.0 2.55 172.6 2.15 172.15 1.75 171.55 1.75 170.95 1.75 170.55 2.15 170.15 2.55 170.15 3.15 170.15 4.6 171.55 4.6 172.15 4.6 172.6 4.2 173.0 3.75 173.0 3.15" fill="#ffffff" fill-rule="evenodd" stroke="none"/>
    <path d="M136.35 -8.7 Q137.5 -9.8 139.1 -9.8 L139.4 -9.8 Q140.65 -9.8 141.7 -9.0 143.7 -9.85 145.85 -9.85 150.35 -9.85 153.4 -6.75 156.45 -3.6 156.45 0.95 L156.45 8.05 Q156.45 9.25 155.65 10.1 154.85 10.9 153.65 10.9 152.45 10.9 151.65 10.1 150.8 9.3 150.8 8.1 L150.8 3.15 Q150.8 1.9 149.9 1.0 149.0 0.1 147.75 0.1 146.5 0.1 145.6 1.0 144.7 1.85 144.7 3.15 L144.7 7.05 Q144.7 8.6 143.55 9.75 142.45 10.9 140.85 10.9 L139.1 10.9 Q137.5 10.9 136.35 9.75 135.2 8.6 135.2 7.05 L135.2 -5.95 Q135.2 -7.55 136.35 -8.7" fill="#ffffff" fill-rule="evenodd" stroke="none"/>
    <path d="M120.05 -0.1 Q120.85 0.7 122.0 0.7 123.2 0.7 123.95 -0.1 124.7 -0.9 124.7 -2.05 124.7 -3.15 123.95 -3.95 123.15 -4.75 122.0 -4.75 120.85 -4.75 120.05 -4.0 119.25 -3.2 119.25 -2.05 119.25 -0.9 120.05 -0.1 M125.45 -5.9 Q125.45 -6.95 124.45 -6.95 123.4 -6.95 123.4 -5.9 123.4 -4.9 124.45 -4.9 125.45 -4.9 125.45 -5.9 M127.9 -4.6 Q127.5 -5.05 126.9 -5.05 125.35 -5.05 125.35 -3.6 125.35 -2.1 126.9 -2.1 128.35 -2.1 128.35 -3.6 128.35 -4.2 127.9 -4.6 M127.2 -9.8 Q129.85 -9.8 131.7 -8.0 133.55 -6.15 133.55 -3.5 133.55 -0.85 131.7 1.0 129.9 2.85 127.2 2.85 L125.1 2.85 Q123.8 2.85 123.8 4.15 123.8 5.45 125.1 5.45 L130.65 5.45 Q131.8 5.45 132.6 6.25 133.4 7.05 133.4 8.2 133.4 9.35 132.6 10.15 131.8 10.95 130.65 10.95 L124.8 10.95 Q120.45 10.95 117.4 7.9 114.4 4.85 114.4 0.55 114.4 -3.8 117.4 -6.8 120.45 -9.8 124.8 -9.8 L127.2 -9.8" fill="#ffffff" fill-rule="evenodd" stroke="none"/>
    <path d="M92.5 -8.7 Q93.65 -9.8 95.25 -9.8 L95.55 -9.8 Q96.8 -9.8 97.85 -9.0 99.85 -9.85 102.0 -9.85 106.5 -9.85 109.55 -6.75 112.6 -3.6 112.6 0.95 L112.6 3.3 Q112.6 4.5 111.8 5.3 111.0 6.15 109.8 6.15 108.6 6.15 107.8 5.35 106.95 4.55 106.95 3.35 L106.95 3.15 Q106.95 1.9 106.05 1.0 105.15 0.1 103.9 0.1 102.65 0.1 101.75 1.0 100.85 1.85 100.85 3.15 L100.85 7.05 Q100.85 8.6 99.7 9.75 98.6 10.9 97.0 10.9 L95.25 10.9 Q93.65 10.9 92.5 9.75 L92.0 9.15 92.0 -8.1 92.5 -8.7" fill="#ffffff" fill-rule="evenodd" stroke="none"/>
    <path d="M71.3 -6.75 Q68.2 -3.65 68.2 0.75 68.2 5.25 71.3 8.3 74.35 11.4 78.85 11.4 81.25 11.4 83.4 10.35 84.35 10.9 85.4 10.9 L85.7 10.9 Q87.3 10.9 88.45 9.75 89.6 8.6 89.6 7.05 L89.6 -5.95 Q89.6 -7.55 88.45 -8.7 87.3 -9.8 85.7 -9.8 L85.4 -9.8 Q84.05 -9.8 83.0 -8.95 81.0 -9.8 78.85 -9.8 74.4 -9.8 71.3 -6.75 M75.1 -4.2 Q76.2 -5.25 77.75 -5.25 79.3 -5.25 80.4 -4.2 81.5 -3.1 81.5 -1.55 81.5 0.0 80.4 1.1 79.3 2.2 77.75 2.2 76.2 2.2 75.1 1.1 74.0 0.0 74.0 -1.55 74.0 -3.1 75.1 -4.2 M78.85 -12.0 L82.75 -11.4 Q84.0 -12.0 85.4 -12.0 L85.7 -12.0 Q88.2 -12.0 89.95 -10.2 91.25 -8.95 91.6 -7.35 L92.0 -8.1 92.0 9.15 91.75 8.75 91.75 15.6 Q91.75 18.1 89.95 19.9 88.2 21.65 85.7 21.65 L85.4 21.65 83.35 21.3 Q81.15 22.15 78.85 22.15 73.5 22.15 69.8 18.4 66.05 14.7 66.05 9.35 L66.05 0.75 Q66.05 -4.55 69.8 -8.25 73.55 -12.0 78.85 -12.0 M82.95 3.15 Q82.95 3.75 82.55 4.2 82.1 4.6 81.5 4.6 80.1 4.6 80.1 3.15 80.1 2.55 80.5 2.15 80.9 1.75 81.5 1.75 82.1 1.75 82.55 2.15 82.95 2.55 82.95 3.15 M83.2 0.9 Q82.3 0.9 82.3 0.0 82.3 -0.9 83.2 -0.9 84.1 -0.9 84.1 0.0 84.1 0.9 83.2 0.9" fill="#ffffff" fill-rule="evenodd" stroke="none"/>
    <path d="M31.45 -7.95 Q33.3 -9.8 35.95 -9.8 L48.15 -9.8 Q49.3 -9.8 50.1 -9.0 50.95 -8.2 50.95 -7.05 50.95 -5.9 50.1 -5.05 49.25 -4.25 48.1 -4.25 L43.65 -4.25 Q42.4 -4.25 42.4 -3.05 42.4 -1.8 43.65 -1.8 L44.6 -1.8 Q47.2 -1.8 49.05 0.05 50.95 1.9 50.95 4.55 50.95 7.15 49.05 9.05 47.2 10.9 44.6 10.9 L32.35 10.9 Q31.2 10.9 30.4 10.1 29.55 9.25 29.55 8.1 29.55 6.95 30.4 6.15 31.25 5.3 32.4 5.3 L35.95 5.3 Q37.15 5.3 37.15 4.1 37.15 2.9 35.95 2.9 33.25 2.9 31.4 1.05 29.55 -0.8 29.55 -3.45 29.55 -6.1 31.45 -7.95" fill="#ffffff" fill-rule="evenodd" stroke="none"/>
    <path d="M7.65 -18.1 Q8.8 -19.25 10.4 -19.25 L12.15 -19.25 Q13.75 -19.25 14.85 -18.1 16.0 -16.95 16.0 -15.35 L16.0 -9.6 Q16.0 -8.3 16.9 -7.45 17.8 -6.55 19.05 -6.55 20.3 -6.55 21.2 -7.45 22.1 -8.35 22.1 -9.6 L22.1 -10.85 Q22.1 -12.05 22.95 -12.85 23.75 -13.65 24.95 -13.65 26.1 -13.65 26.95 -12.85 27.75 -12.05 27.75 -10.85 L27.75 -7.35 Q27.75 -3.45 25.35 -0.5 27.75 2.45 27.75 6.2 27.75 8.15 26.4 9.5 25.0 10.9 23.05 10.9 21.1 10.9 19.75 9.55 18.4 8.2 18.4 6.2 L18.4 5.25 Q18.4 3.8 17.0 3.45 L16.1 3.35 Q14.7 3.6 14.55 4.95 L14.55 7.05 Q14.55 8.6 13.4 9.75 12.25 10.9 10.7 10.9 L10.4 10.9 Q8.8 10.9 7.65 9.75 6.5 8.6 6.5 7.05 L6.5 -15.35 Q6.5 -16.95 7.65 -18.1" fill="#ffffff" fill-rule="evenodd" stroke="none"/>
    <path d="M-12.65 -9.8 L-12.35 -9.8 Q-11.1 -9.8 -10.05 -9.0 -8.05 -9.85 -5.9 -9.85 -1.4 -9.85 1.65 -6.75 4.7 -3.6 4.7 0.95 L4.7 8.05 Q4.7 9.25 3.9 10.1 3.1 10.9 1.9 10.9 0.7 10.9 -0.1 10.1 -0.95 9.3 -0.95 8.1 L-0.95 3.15 Q-0.95 1.9 -1.85 1.0 -2.75 0.1 -4.0 0.1 -5.25 0.1 -6.15 1.0 -7.05 1.85 -7.05 3.15 L-7.05 7.05 Q-7.05 8.6 -8.2 9.75 -9.3 10.9 -10.9 10.9 L-12.65 10.9 Q-14.25 10.9 -15.4 9.75 -16.55 8.6 -16.55 7.05 L-16.55 -5.95 Q-16.55 -7.55 -15.4 -8.7 -14.25 -9.8 -12.65 -9.8" fill="#ffffff" fill-rule="evenodd" stroke="none"/>
    <path d="M-33.9 -1.55 Q-33.9 0.0 -32.8 1.1 -31.7 2.2 -30.15 2.2 -28.6 2.2 -27.5 1.1 -26.4 0.0 -26.4 -1.55 -26.4 -3.1 -27.5 -4.2 -28.6 -5.25 -30.15 -5.25 -31.7 -5.25 -32.8 -4.2 -33.9 -3.1 -33.9 -1.55 M-39.35 -2.0 Q-38.65 -4.7 -36.6 -6.75 -33.5 -9.8 -29.05 -9.8 -26.9 -9.8 -24.9 -8.95 -23.85 -9.8 -22.5 -9.8 L-22.2 -9.8 Q-20.6 -9.8 -19.45 -8.7 -18.3 -7.55 -18.3 -5.95 L-18.3 7.05 Q-18.3 8.6 -19.45 9.75 -20.6 10.9 -22.2 10.9 L-22.5 10.9 Q-23.55 10.9 -24.5 10.35 -26.65 11.4 -29.05 11.4 -33.55 11.4 -36.6 8.3 -38.2 6.7 -39.0 4.75 L-39.7 0.5 -39.35 -2.95 -39.35 -2.9 -39.35 -2.0 M-23.8 0.0 Q-23.8 -0.9 -24.7 -0.9 -25.6 -0.9 -25.6 0.0 -25.6 0.9 -24.7 0.9 -23.8 0.9 -23.8 0.0 M-25.35 4.2 Q-24.95 3.75 -24.95 3.15 -24.95 2.55 -25.35 2.15 -25.8 1.75 -26.4 1.75 -27.0 1.75 -27.4 2.15 -27.8 2.55 -27.8 3.15 -27.8 4.6 -26.4 4.6 -25.8 4.6 -25.35 4.2" fill="#ffffff" fill-rule="evenodd" stroke="none"/>
    <path d="M-63.1 -19.65 Q-61.35 -21.4 -58.85 -21.4 L-57.1 -21.4 Q-54.6 -21.4 -52.85 -19.65 -51.1 -17.85 -51.1 -15.35 L-51.1 -14.5 -48.1 -14.5 Q-46.15 -14.5 -44.75 -13.25 L-44.55 -13.05 Q-43.1 -11.6 -43.1 -9.55 -43.1 -8.65 -43.4 -7.8 -41.8 -7.5 -40.75 -6.35 L-40.5 -6.05 -40.45 -5.95 Q-39.35 -4.65 -39.35 -2.95 L-39.7 0.5 -39.0 4.75 -39.4 3.45 -39.4 3.95 -39.4 5.3 -39.4 5.45 -39.4 7.3 -39.4 8.95 Q-39.4 14.2 -43.1 17.95 -46.8 21.65 -52.1 21.65 -57.4 21.65 -61.15 17.95 -64.9 14.2 -64.9 8.95 L-64.9 -15.35 Q-64.9 -17.85 -63.1 -19.65 M-62.75 -15.35 L-62.75 0.3 Q-62.75 4.7 -59.65 7.8 -56.55 10.9 -52.1 10.9 -47.65 10.9 -44.6 7.85 -42.25 5.5 -41.7 2.3 L-41.6 1.25 -41.55 1.0 -41.55 0.3 -41.5 -2.95 -41.55 -3.6 Q-41.75 -4.35 -42.35 -4.95 -42.95 -5.55 -43.7 -5.7 L-44.3 -5.75 -45.4 -5.55 -46.4 -4.95 Q-47.2 -4.2 -47.2 -2.9 -47.2 -1.65 -48.05 -0.75 -48.95 0.1 -50.2 0.1 -51.45 0.1 -52.35 -0.8 -53.25 -1.7 -53.25 -2.95 L-53.25 -6.7 -48.1 -6.7 Q-47.05 -6.7 -46.25 -7.35 L-46.05 -7.55 -45.85 -7.75 Q-45.25 -8.5 -45.25 -9.55 -45.25 -10.7 -46.05 -11.5 L-46.3 -11.75 Q-47.1 -12.35 -48.1 -12.35 L-53.25 -12.4 -53.25 -15.35 Q-53.2 -16.95 -54.35 -18.1 -55.5 -19.25 -57.1 -19.25 L-58.85 -19.25 Q-60.5 -19.25 -61.6 -18.1 -62.75 -17.0 -62.75 -15.35" fill="#ffffff" fill-rule="evenodd" stroke="none"/>
    <path d="M-94.2 -2.05 Q-94.2 -0.9 -93.4 -0.1 -92.6 0.7 -91.45 0.7 -90.25 0.7 -89.5 -0.1 -88.75 -0.9 -88.75 -2.05 -88.75 -3.15 -89.5 -3.95 -90.3 -4.75 -91.45 -4.75 -92.6 -4.75 -93.4 -4.0 -94.2 -3.2 -94.2 -2.05 M-86.25 -9.8 Q-83.6 -9.8 -81.75 -8.0 -79.9 -6.15 -79.9 -3.5 -79.9 -0.85 -81.75 1.0 -83.55 2.85 -86.25 2.85 L-88.35 2.85 Q-89.65 2.85 -89.65 4.15 -89.65 5.45 -88.35 5.45 L-82.8 5.45 Q-81.65 5.45 -80.85 6.25 -80.05 7.05 -80.05 8.2 -80.05 9.35 -80.85 10.15 -81.65 10.95 -82.8 10.95 L-88.65 10.95 Q-93.0 10.95 -96.05 7.9 -99.05 4.85 -99.05 0.55 -99.05 -3.8 -96.05 -6.8 -93.0 -9.8 -88.65 -9.8 L-86.25 -9.8 M-89.0 -4.9 Q-88.0 -4.9 -88.0 -5.9 -88.0 -6.95 -89.0 -6.95 -90.05 -6.95 -90.05 -5.9 -90.05 -4.9 -89.0 -4.9 M-88.1 -3.6 Q-88.1 -2.1 -86.55 -2.1 -85.1 -2.1 -85.1 -3.6 -85.1 -4.2 -85.55 -4.6 -85.95 -5.05 -86.55 -5.05 -88.1 -5.05 -88.1 -3.6" fill="#ffffff" fill-rule="evenodd" stroke="none"/>
    <path d="M-104.6 -19.25 Q-103.05 -19.25 -101.9 -18.1 -100.75 -16.95 -100.75 -15.35 L-100.75 7.05 Q-100.75 8.6 -101.9 9.75 -103.05 10.9 -104.6 10.9 L-104.9 10.9 Q-106.5 10.9 -107.65 9.75 -108.8 8.6 -108.8 7.05 L-108.8 -15.35 Q-108.8 -16.95 -107.65 -18.1 -106.5 -19.25 -104.9 -19.25 L-104.6 -19.25" fill="#ffffff" fill-rule="evenodd" stroke="none"/>
    <path d="M-128.05 -19.25 L-127.75 -19.25 Q-126.2 -19.25 -125.05 -18.1 -123.9 -16.95 -123.9 -15.35 L-123.9 -9.5 -121.2 -9.8 Q-116.75 -9.8 -113.65 -6.75 -110.55 -3.65 -110.55 0.75 -110.55 5.2 -113.65 8.3 -116.75 11.4 -121.2 11.4 -123.6 11.4 -125.8 10.35 -126.7 10.9 -127.75 10.9 L-128.05 10.9 Q-129.65 10.9 -130.8 9.75 -131.95 8.6 -131.95 7.05 L-131.95 -15.35 Q-131.95 -16.95 -130.8 -18.1 -129.65 -19.25 -128.05 -19.25 M-122.85 -1.85 Q-122.85 -0.45 -121.9 0.5 -120.95 1.45 -119.5 1.45 -118.1 1.45 -117.15 0.5 -116.2 -0.45 -116.2 -1.85 -116.2 -3.25 -117.2 -4.2 -118.15 -5.2 -119.5 -5.2 -120.95 -5.2 -121.9 -4.25 -122.85 -3.3 -122.85 -1.85 M-115.55 -1.15 Q-115.55 -0.15 -114.55 -0.15 -113.5 -0.15 -113.5 -1.15 -113.5 -2.2 -114.55 -2.2 -115.55 -2.2 -115.55 -1.15 M-113.5 2.65 Q-113.5 1.85 -114.1 1.25 -114.65 0.7 -115.5 0.7 -116.3 0.7 -116.85 1.25 -117.4 1.85 -117.4 2.65 -117.4 3.45 -116.85 4.0 -116.3 4.6 -115.5 4.6 -114.65 4.6 -114.1 4.0 -113.5 3.45 -113.5 2.65" fill="#ffffff" fill-rule="evenodd" stroke="none"/>
    <path d="M-147.05 -15.35 L-147.05 -9.5 -144.35 -9.8 Q-139.9 -9.8 -136.8 -6.75 -133.7 -3.65 -133.7 0.75 -133.7 5.2 -136.8 8.3 -139.9 11.4 -144.35 11.4 -146.75 11.4 -148.95 10.35 -149.85 10.9 -150.9 10.9 L-151.2 10.9 Q-152.8 10.9 -153.95 9.75 -155.1 8.6 -155.1 7.05 L-155.1 -15.35 Q-155.1 -16.95 -153.95 -18.1 -152.8 -19.25 -151.2 -19.25 L-150.9 -19.25 Q-149.35 -19.25 -148.2 -18.1 -147.05 -16.95 -147.05 -15.35 M-146.0 -1.85 Q-146.0 -0.45 -145.05 0.5 -144.1 1.45 -142.65 1.45 -141.25 1.45 -140.3 0.5 -139.35 -0.45 -139.35 -1.85 -139.35 -3.25 -140.35 -4.2 -141.3 -5.2 -142.65 -5.2 -144.1 -5.2 -145.05 -4.25 -146.0 -3.3 -146.0 -1.85 M-138.7 -1.15 Q-138.7 -0.15 -137.7 -0.15 -136.65 -0.15 -136.65 -1.15 -136.65 -2.2 -137.7 -2.2 -138.7 -2.2 -138.7 -1.15 M-138.65 0.7 Q-139.45 0.7 -140.0 1.25 -140.55 1.85 -140.55 2.65 -140.55 3.45 -140.0 4.0 -139.45 4.6 -138.65 4.6 -137.8 4.6 -137.25 4.0 -136.65 3.45 -136.65 2.65 -136.65 1.85 -137.25 1.25 -137.8 0.7 -138.65 0.7" fill="#ffffff" fill-rule="evenodd" stroke="none"/>
    <path d="M-175.35 -9.8 Q-174.2 -9.8 -173.35 -9.0 -172.5 -8.2 -172.5 -7.05 L-172.5 -2.5 Q-172.5 -1.25 -171.65 -0.35 -170.75 0.55 -169.45 0.55 -168.2 0.55 -167.3 -0.35 -166.4 -1.3 -166.4 -2.5 L-166.4 -5.95 Q-166.4 -7.6 -165.3 -8.7 -164.15 -9.8 -162.55 -9.8 L-160.75 -9.8 Q-159.2 -9.8 -158.05 -8.7 -156.9 -7.55 -156.9 -5.95 L-156.95 0.7 Q-156.95 5.2 -160.05 8.25 -163.1 11.3 -167.5 11.3 -172.0 11.3 -175.05 8.25 -176.7 6.65 -177.45 4.7 -177.5 3.3 -178.05 2.0 L-178.25 1.75 -178.45 -3.65 -178.15 -2.55 -178.15 -7.05 Q-178.15 -8.2 -177.3 -9.0 -176.5 -9.8 -175.35 -9.8" fill="#ffffff" fill-rule="evenodd" stroke="none"/>
    <path d="M-201.3 -15.35 L-201.3 7.05 Q-201.3 8.6 -200.15 9.75 -199.0 10.9 -197.4 10.9 L-197.1 10.9 Q-196.05 10.9 -195.15 10.35 -192.95 11.4 -190.55 11.4 -186.1 11.4 -183.0 8.3 L-181.95 7.1 Q-179.9 4.35 -179.9 0.75 -179.9 -1.35 -180.6 -3.15 -181.4 -5.15 -183.0 -6.75 -186.1 -9.8 -190.55 -9.8 L-193.25 -9.5 -193.25 -15.35 Q-193.25 -16.95 -194.4 -18.1 -195.55 -19.25 -197.1 -19.25 L-197.4 -19.25 Q-199.0 -19.25 -200.15 -18.1 -201.3 -16.95 -201.3 -15.35 M-192.85 -19.65 Q-191.1 -17.85 -191.1 -15.35 L-191.1 -12.0 -190.55 -12.0 Q-185.25 -12.0 -181.5 -8.25 L-179.65 -6.0 -179.05 -4.95 -179.0 -4.85 -178.8 -4.5 -178.45 -3.65 -178.25 1.75 -178.05 2.0 Q-177.5 3.3 -177.45 4.7 L-177.75 3.75 -177.75 9.35 Q-177.75 12.45 -179.0 15.0 L-180.0 16.7 -181.5 18.4 Q-185.2 22.15 -190.55 22.15 -192.9 22.15 -195.1 21.3 L-197.1 21.65 -197.4 21.65 Q-199.9 21.65 -201.65 19.9 -203.45 18.1 -203.45 15.6 L-203.45 -15.35 Q-203.45 -17.85 -201.65 -19.65 -199.9 -21.4 -197.4 -21.4 L-197.1 -21.4 Q-194.65 -21.4 -192.85 -19.65 M-188.85 -5.2 Q-187.5 -5.2 -186.55 -4.2 -185.55 -3.25 -185.55 -1.85 -185.55 -0.45 -186.5 0.5 -187.45 1.45 -188.85 1.45 -190.3 1.45 -191.25 0.5 -192.2 -0.45 -192.2 -1.85 -192.2 -3.3 -191.25 -4.25 -190.3 -5.2 -188.85 -5.2 M-182.85 -1.15 Q-182.85 -0.15 -183.9 -0.15 -184.9 -0.15 -184.9 -1.15 -184.9 -2.2 -183.9 -2.2 -182.85 -2.2 -182.85 -1.15 M-186.2 4.0 Q-186.75 3.45 -186.75 2.65 -186.75 1.85 -186.2 1.25 -185.65 0.7 -184.85 0.7 -184.0 0.7 -183.45 1.25 -182.85 1.85 -182.85 2.65 -182.85 3.45 -183.45 4.0 -184.0 4.6 -184.85 4.6 -185.65 4.6 -186.2 4.0" fill="#ffffff" fill-rule="evenodd" stroke="none"/>
  </g>
</svg>
