<?xml version="1.0" encoding="UTF-8" standalone="no"?>
<svg xmlns:ffdec="https://www.free-decompiler.com/flash" xmlns:xlink="http://www.w3.org/1999/xlink" ffdec:objectType="shape" height="474.15px" width="573.15px" xmlns="http://www.w3.org/2000/svg">
  <g transform="matrix(1.0, 0.0, 0.0, 1.0, 0.0, 0.0)">
    <path d="M573.15 474.15 L0.0 474.15 0.0 0.0 573.15 0.0 573.15 474.15" fill="#ffffff" fill-opacity="0.09803922" fill-rule="evenodd" stroke="none"/>
    <path d="M476.75 174.75 Q479.7 174.75 481.7 175.75 485.55 177.7 485.55 183.55 L485.55 290.55 Q485.55 299.35 476.75 299.35 L240.4 299.35 Q231.6 299.35 231.6 290.55 L231.6 183.55 Q231.6 177.7 235.5 175.75 237.45 174.75 240.4 174.75 L476.75 174.75" fill="#000000" fill-rule="evenodd" stroke="none"/>
    <path d="M294.8 217.9 L191.75 180.15 188.0 190.3 177.35 167.2 200.4 156.55 196.65 166.65 299.7 204.4 294.8 217.9" fill="#000000" fill-rule="evenodd" stroke="none"/>
  </g>
</svg>
