<?xml version="1.0" encoding="UTF-8" standalone="no"?>
<svg xmlns:ffdec="https://www.free-decompiler.com/flash" xmlns:xlink="http://www.w3.org/1999/xlink" ffdec:objectType="shape" height="192.0px" width="418.95px" xmlns="http://www.w3.org/2000/svg">
  <g transform="matrix(1.0, 0.0, 0.0, 1.0, -37.0, -74.0)">
    <path d="M37.0 220.0 Q37.0 212.0 45.0 212.0 L221.95 212.0 Q229.95 212.0 229.95 220.0 L229.95 258.0 Q229.95 266.0 221.95 266.0 L45.0 266.0 Q37.0 266.0 37.0 258.0 L37.0 220.0 M455.95 158.0 L455.95 195.0 Q455.95 203.0 447.95 203.0 L233.95 203.0 Q225.95 203.0 225.95 195.0 L225.95 158.0 Q225.95 150.0 233.95 150.0 L447.95 150.0 Q455.95 150.0 455.95 158.0 M405.95 74.0 Q413.95 74.0 413.95 82.0 L413.95 99.0 Q413.95 107.0 405.95 107.0 L215.95 107.0 Q207.95 107.0 207.95 99.0 L207.95 82.0 Q207.95 74.0 215.95 74.0 L405.95 74.0" fill="#000000" fill-rule="evenodd" stroke="none"/>
    <path d="M278.9 91.55 L170.1 104.35 171.35 115.05 151.4 99.35 167.15 79.4 168.4 90.1 277.2 77.3 278.9 91.55" fill="#000000" fill-rule="evenodd" stroke="none"/>
  </g>
</svg>
