<?xml version="1.0" encoding="UTF-8" standalone="no"?>
<svg xmlns:ffdec="https://www.free-decompiler.com/flash" xmlns:xlink="http://www.w3.org/1999/xlink" ffdec:objectType="shape" height="141.95px" width="260.25px" xmlns="http://www.w3.org/2000/svg">
  <g transform="matrix(1.0, 0.0, 0.0, 1.0, -177.7, -284.0)">
    <path d="M429.95 371.95 Q437.95 371.95 437.95 379.95 L437.95 417.95 Q437.95 425.95 429.95 425.95 L253.0 425.95 Q245.0 425.95 245.0 417.95 L245.0 379.95 Q245.0 371.95 253.0 371.95 L429.95 371.95 M390.95 284.0 Q398.95 284.0 398.95 292.0 L398.95 331.0 Q398.95 339.0 390.95 339.0 L229.95 339.0 Q221.95 339.0 221.95 331.0 L221.95 292.0 Q221.95 284.0 229.95 284.0 L390.95 284.0" fill="#000000" fill-rule="evenodd" stroke="none"/>
    <path d="M289.55 307.2 L196.7 365.25 202.4 374.35 177.7 368.65 183.4 343.95 189.1 353.05 281.95 295.0 289.55 307.2" fill="#000000" fill-rule="evenodd" stroke="none"/>
    <path d="M309.7 417.5 L200.7 407.95 199.75 418.65 183.5 399.25 202.85 383.0 201.95 393.7 310.95 403.25 309.7 417.5" fill="#000000" fill-rule="evenodd" stroke="none"/>
  </g>
</svg>
