<?xml version="1.0" encoding="UTF-8" standalone="no"?>
<svg xmlns:ffdec="https://www.free-decompiler.com/flash" xmlns:xlink="http://www.w3.org/1999/xlink" ffdec:objectType="shape" height="129.05px" width="498.05px" xmlns="http://www.w3.org/2000/svg">
  <g transform="matrix(1.0, 0.0, 0.0, 1.0, -29.0, -165.5)">
    <path d="M29.0 241.0 Q29.0 233.0 37.0 233.0 L257.95 233.0 Q265.95 233.0 265.95 241.0 L265.95 279.0 Q265.95 287.0 257.95 287.0 L37.0 287.0 Q29.0 287.0 29.0 279.0 L29.0 241.0 M527.05 226.55 L527.05 286.55 Q527.05 294.55 519.05 294.55 L294.1 294.55 Q286.1 294.55 286.1 286.55 L286.1 226.55 Q286.1 218.55 294.1 218.55 L519.05 218.55 Q527.05 218.55 527.05 226.55" fill="#000000" fill-rule="evenodd" stroke="none"/>
    <path d="M383.05 284.35 L336.9 184.8 327.1 189.35 335.85 165.5 359.7 174.25 349.95 178.75 396.1 278.3 383.05 284.35" fill="#000000" fill-rule="evenodd" stroke="none"/>
  </g>
</svg>
