<?xml version="1.0" encoding="UTF-8" standalone="no"?>
<svg xmlns:ffdec="https://www.free-decompiler.com/flash" xmlns:xlink="http://www.w3.org/1999/xlink" ffdec:objectType="shape" height="341.2px" width="480.95px" xmlns="http://www.w3.org/2000/svg">
  <g transform="matrix(1.0, 0.0, 0.0, 1.0, -10.0, -70.05)">
    <path d="M18.0 360.95 Q10.0 360.95 10.0 352.95 L10.0 299.0 Q10.0 291.0 18.0 291.0 L244.95 291.0 Q252.95 291.0 252.95 299.0 L252.95 352.95 Q252.95 360.95 244.95 360.95 L18.0 360.95 M218.95 82.05 Q226.95 82.05 226.95 90.05 L226.95 144.0 Q226.95 152.0 218.95 152.0 L20.0 152.0 Q12.0 152.0 12.0 144.0 L12.0 90.05 Q12.0 82.05 20.0 82.05 L218.95 82.05 M490.95 78.05 L490.95 132.0 Q490.95 140.0 482.95 140.0 L256.0 140.0 Q248.0 140.0 248.0 132.0 L248.0 78.05 Q248.0 70.05 256.0 70.05 L482.95 70.05 Q490.95 70.05 490.95 78.05" fill="#000000" fill-rule="evenodd" stroke="none"/>
    <path d="M136.45 332.55 L52.25 402.95 59.15 411.25 33.9 408.95 36.1 383.65 43.0 391.9 127.2 321.5 136.45 332.55" fill="#000000" fill-rule="evenodd" stroke="none"/>
  </g>
</svg>
