<?xml version="1.0" encoding="UTF-8" standalone="no"?>
<svg xmlns:ffdec="https://www.free-decompiler.com/flash" xmlns:xlink="http://www.w3.org/1999/xlink" ffdec:objectType="shape" height="130.55px" width="516.95px" xmlns="http://www.w3.org/2000/svg">
  <g transform="matrix(1.0, 0.0, 0.0, 1.0, -26.0, -174.4)">
    <path d="M26.0 236.0 Q26.0 228.0 34.0 228.0 L219.95 228.0 Q227.95 228.0 227.95 236.0 L227.95 270.0 Q227.95 278.0 219.95 278.0 L34.0 278.0 Q26.0 278.0 26.0 270.0 L26.0 236.0 M534.95 235.0 Q542.95 235.0 542.95 243.0 L542.95 296.95 Q542.95 304.95 534.95 304.95 L308.0 304.95 Q300.0 304.95 300.0 296.95 L300.0 243.0 Q300.0 235.0 308.0 235.0 L534.95 235.0" fill="#000000" fill-rule="evenodd" stroke="none"/>
    <path d="M467.95 300.95 L477.7 191.7 466.95 190.7 486.45 174.4 502.75 193.9 492.05 192.95 482.3 302.2 467.95 300.95" fill="#000000" fill-rule="evenodd" stroke="none"/>
  </g>
</svg>
