<?xml version="1.0" encoding="UTF-8" standalone="no"?>
<svg xmlns:ffdec="https://www.free-decompiler.com/flash" xmlns:xlink="http://www.w3.org/1999/xlink" ffdec:objectType="shape" height="23.85px" width="21.4px" xmlns="http://www.w3.org/2000/svg">
  <g transform="matrix(1.0, 0.0, 0.0, 1.0, 10.7, 11.9)">
    <path d="M7.7 -8.8 Q10.7 -5.7 10.7 -0.3 10.7 4.1 9.4 6.65 8.05 9.15 5.55 10.55 3.0 11.95 0.0 11.95 -4.8 11.95 -7.7 8.9 -10.7 5.8 -10.7 0.05 -10.7 -6.3 -7.15 -9.35 -4.2 -11.9 0.0 -11.9 4.7 -11.9 7.7 -8.8 M4.8 -6.5 Q2.85 -8.7 0.0 -8.7 -2.9 -8.7 -4.8 -6.5 -6.7 -4.35 -6.7 0.05 -6.7 4.4 -4.8 6.6 -2.9 8.8 0.0 8.8 2.9 8.8 4.8 6.6 6.7 4.4 6.7 -0.1 6.7 -4.3 4.8 -6.5" fill="#ffffff" fill-opacity="0.49803922" fill-rule="evenodd" stroke="none"/>
  </g>
</svg>
