<?xml version="1.0" encoding="UTF-8" standalone="no"?>
<svg xmlns:ffdec="https://www.free-decompiler.com/flash" xmlns:xlink="http://www.w3.org/1999/xlink" ffdec:objectType="shape" height="23.3px" width="18.5px" xmlns="http://www.w3.org/2000/svg">
  <g transform="matrix(1.0, 0.0, 0.0, 1.0, 9.25, 11.65)">
    <path d="M-5.35 -11.65 L-5.35 1.0 -5.15 5.05 Q-4.75 6.6 -3.6 7.5 -2.4 8.35 -0.65 8.35 1.1 8.35 2.6 7.45 4.15 6.55 4.75 5.05 5.4 3.5 5.4 0.55 L5.4 -11.65 9.25 -11.65 9.25 11.15 5.8 11.15 5.8 7.8 Q3.15 11.65 -1.45 11.65 -3.45 11.65 -5.2 10.9 -6.95 10.1 -7.8 8.95 -8.65 7.8 -9.0 6.1 L-9.25 2.45 -9.25 -11.65 -5.35 -11.65" fill="#ffffff" fill-opacity="0.49803922" fill-rule="evenodd" stroke="none"/>
  </g>
</svg>
