<?xml version="1.0" encoding="UTF-8" standalone="no"?>
<svg xmlns:ffdec="https://www.free-decompiler.com/flash" xmlns:xlink="http://www.w3.org/1999/xlink" ffdec:objectType="shape" height="31.5px" width="24.05px" xmlns="http://www.w3.org/2000/svg">
  <g transform="matrix(1.0, 0.0, 0.0, 1.0, 12.0, 15.75)">
    <path d="M7.75 -6.5 Q7.75 -8.5 6.75 -9.9 5.75 -11.3 4.1 -11.75 L0.2 -12.05 -7.85 -12.05 -7.85 -0.75 0.3 -0.75 Q4.35 -0.75 6.05 -2.3 7.75 -3.8 7.75 -6.5 M8.55 -13.95 Q10.1 -12.9 11.1 -10.95 12.05 -9.0 12.05 -6.65 12.05 -2.6 9.5 0.15 6.9 2.95 0.25 2.95 L-7.85 2.95 -7.85 15.75 -12.0 15.75 -12.0 -15.75 -0.1 -15.75 4.65 -15.45 Q7.0 -15.05 8.55 -13.95" fill="#ffffff" fill-opacity="0.49803922" fill-rule="evenodd" stroke="none"/>
  </g>
</svg>
