<?xml version="1.0" encoding="UTF-8" standalone="no"?>
<svg xmlns:ffdec="https://www.free-decompiler.com/flash" xmlns:xlink="http://www.w3.org/1999/xlink" ffdec:objectType="shape" height="32.0px" width="19.8px" xmlns="http://www.w3.org/2000/svg">
  <g transform="matrix(1.0, 0.0, 0.0, 1.0, 9.9, 19.8)">
    <path d="M6.05 -19.8 L9.9 -19.8 9.9 11.7 6.3 11.7 6.3 8.8 Q5.15 10.65 3.35 11.5 L-0.1 12.2 Q-1.95 12.2 -3.6 11.5 -4.35 11.2 -5.1 10.7 -7.4 9.2 -8.65 6.5 -9.9 3.8 -9.9 0.3 -9.9 -3.1 -8.75 -5.85 -7.6 -8.65 -5.35 -10.15 -3.05 -11.65 -0.25 -11.65 1.8 -11.65 3.4 -10.75 5.05 -9.9 6.05 -8.5 L6.05 -19.8 M0.1 -8.45 Q-2.45 -8.45 -4.2 -6.35 -5.9 -4.2 -5.9 0.3 -5.9 4.7 -4.05 6.85 -2.25 9.05 0.3 9.05 2.8 9.05 4.6 6.95 6.35 4.9 6.35 0.65 6.35 -4.05 4.55 -6.25 2.75 -8.45 0.1 -8.45" fill="#ffffff" fill-opacity="0.49803922" fill-rule="evenodd" stroke="none"/>
  </g>
</svg>
