<?xml version="1.0" encoding="UTF-8" standalone="no"?>
<svg xmlns:ffdec="https://www.free-decompiler.com/flash" xmlns:xlink="http://www.w3.org/1999/xlink" ffdec:objectType="shape" height="23.85px" width="21.05px" xmlns="http://www.w3.org/2000/svg">
  <g transform="matrix(1.0, 0.0, 0.0, 1.0, 10.5, 11.9)">
    <path d="M0.15 -11.9 Q4.75 -11.9 7.65 -8.75 10.55 -5.65 10.55 0.0 L10.5 1.05 -6.5 1.05 Q-6.3 4.8 -4.35 6.8 -2.45 8.8 0.4 8.8 2.55 8.8 4.05 7.65 5.55 6.55 6.4 4.1 L10.4 4.6 Q9.45 8.1 6.9 10.05 4.35 11.95 0.4 11.95 -4.6 11.95 -7.55 8.9 -10.5 5.8 -10.5 0.25 -10.5 -5.5 -7.5 -8.7 -4.55 -11.9 0.15 -11.9 M-6.3 -2.15 L6.45 -2.15 Q6.2 -5.05 5.0 -6.45 3.15 -8.7 0.2 -8.7 -2.45 -8.7 -4.25 -6.9 -6.1 -5.15 -6.3 -2.15" fill="#ffffff" fill-opacity="0.49803922" fill-rule="evenodd" stroke="none"/>
  </g>
</svg>
