<?xml version="1.0" encoding="UTF-8" standalone="no"?>
<svg xmlns:ffdec="https://www.free-decompiler.com/flash" xmlns:xlink="http://www.w3.org/1999/xlink" ffdec:objectType="shape" height="32.1px" width="19.8px" xmlns="http://www.w3.org/2000/svg">
  <g transform="matrix(1.0, 0.0, 0.0, 1.0, 9.4, 12.05)">
    <path d="M0.4 -9.0 Q-2.1 -9.0 -4.0 -6.7 -5.9 -4.4 -5.9 0.0 -5.9 4.45 -4.1 6.55 -2.35 8.65 0.2 8.65 2.8 8.65 4.65 6.45 6.45 4.25 6.45 -0.3 6.45 -4.65 4.65 -6.85 2.85 -9.0 0.4 -9.0 M10.4 -0.3 Q10.4 3.2 9.15 6.05 7.9 8.85 5.5 10.35 3.1 11.8 0.45 11.8 -1.45 11.8 -3.0 11.0 -4.55 10.2 -5.55 8.95 L-5.55 20.05 -9.4 20.05 -9.4 -11.5 -5.9 -11.5 -5.9 -8.55 Q-4.65 -10.3 -3.05 -11.15 -1.5 -12.05 0.75 -12.05 3.65 -12.05 5.9 -10.55 8.15 -9.0 9.25 -6.25 10.4 -3.55 10.4 -0.3" fill="#ffffff" fill-opacity="0.49803922" fill-rule="evenodd" stroke="none"/>
  </g>
</svg>
