<?xml version="1.0" encoding="UTF-8" standalone="no"?>
<svg xmlns:ffdec="https://www.free-decompiler.com/flash" xmlns:xlink="http://www.w3.org/1999/xlink" ffdec:objectType="shape" height="287.95px" width="354.95px" xmlns="http://www.w3.org/2000/svg">
  <g transform="matrix(1.0, 0.0, 0.0, 1.0, -98.0, -61.0)">
    <path d="M385.95 187.0 Q393.95 187.0 393.95 195.0 L393.95 340.95 Q393.95 348.95 385.95 348.95 L165.0 348.95 Q157.0 348.95 157.0 340.95 L157.0 195.0 Q157.0 187.0 165.0 187.0 L385.95 187.0 M444.95 61.0 Q452.95 61.0 452.95 69.0 L452.95 166.0 Q452.95 174.0 444.95 174.0 L106.0 174.0 Q98.0 174.0 98.0 166.0 L98.0 69.0 Q98.0 61.0 106.0 61.0 L444.95 61.0" fill="#000000" fill-opacity="0.8980392" fill-rule="evenodd" stroke="none"/>
  </g>
</svg>
