<?xml version="1.0" encoding="UTF-8" standalone="no"?>
<svg xmlns:ffdec="https://www.free-decompiler.com/flash" xmlns:xlink="http://www.w3.org/1999/xlink" ffdec:objectType="shape" height="271.95px" width="354.95px" xmlns="http://www.w3.org/2000/svg">
  <g transform="matrix(1.0, 0.0, 0.0, 1.0, -98.0, -68.0)">
    <path d="M385.95 178.0 Q393.95 178.0 393.95 186.0 L393.95 331.95 Q393.95 339.95 385.95 339.95 L165.0 339.95 Q157.0 339.95 157.0 331.95 L157.0 186.0 Q157.0 178.0 165.0 178.0 L385.95 178.0 M444.95 68.0 Q452.95 68.0 452.95 76.0 L452.95 159.0 Q452.95 167.0 444.95 167.0 L106.0 167.0 Q98.0 167.0 98.0 159.0 L98.0 76.0 Q98.0 68.0 106.0 68.0 L444.95 68.0" fill="#000000" fill-opacity="0.8980392" fill-rule="evenodd" stroke="none"/>
  </g>
</svg>
