<?xml version="1.0" encoding="UTF-8" standalone="no"?>
<svg xmlns:ffdec="https://www.free-decompiler.com/flash" xmlns:xlink="http://www.w3.org/1999/xlink" ffdec:objectType="shape" height="259.4px" width="224.2px" xmlns="http://www.w3.org/2000/svg">
  <g transform="matrix(1.0, 0.0, 0.0, 1.0, 43.6, -35.3)">
    <path d="M180.1 58.2 L105.7 58.2 31.3 58.2 -43.1 58.2 -43.1 35.8 31.3 35.8 105.7 35.8 180.1 35.8 180.1 58.2 M180.1 104.2 L105.7 104.2 31.3 104.2 -43.1 104.2 -43.1 81.8 31.3 81.8 105.7 81.8 180.1 81.8 180.1 104.2 M105.7 58.2 L105.7 35.8 M31.3 35.8 L31.3 58.2 M31.3 152.2 L105.7 152.2 105.7 129.8 31.3 129.8 31.3 152.2 -43.1 152.2 -43.1 129.8 31.3 129.8 M105.7 104.2 L105.7 81.8 M31.3 176.8 L31.3 199.2 105.7 199.2 105.7 176.8 31.3 176.8 -43.1 176.8 -43.1 199.2 31.3 199.2 M31.3 81.8 L31.3 104.2 M105.7 223.8 L31.3 223.8 31.3 246.2 105.7 246.2 105.7 223.8 M105.7 271.8 L31.3 271.8 31.3 294.2 105.7 294.2 105.7 271.8 M31.3 223.8 L-43.1 223.8 -43.1 246.2 31.3 246.2 M31.3 271.8 L-43.1 271.8 -43.1 294.2 31.3 294.2" fill="none" stroke="#ffffff" stroke-linecap="round" stroke-linejoin="round" stroke-width="1.0"/>
  </g>
</svg>
