<?xml version="1.0" encoding="UTF-8" standalone="no"?>
<svg xmlns:ffdec="https://www.free-decompiler.com/flash" xmlns:xlink="http://www.w3.org/1999/xlink" ffdec:objectType="shape" height="239.0px" width="366.85px" xmlns="http://www.w3.org/2000/svg">
  <g transform="matrix(1.0, 0.0, 0.0, 1.0, 70.5, 598.5)">
    <path d="M116.0 -598.0 L209.0 -598.0 209.0 -570.0 116.0 -570.0 23.0 -570.0 -70.0 -570.0 -70.0 -598.0 23.0 -598.0 116.0 -598.0 116.0 -570.0 M116.0 -501.0 L209.0 -501.0 209.0 -529.0 116.0 -529.0 116.0 -501.0 23.0 -501.0 -70.0 -501.0 -70.0 -529.0 23.0 -529.0 116.0 -529.0 M23.0 -529.0 L23.0 -501.0 M23.0 -430.0 L116.0 -430.0 116.0 -458.0 23.0 -458.0 23.0 -430.0 -70.0 -430.0 -70.0 -458.0 23.0 -458.0 M221.45 -402.25 L221.45 -379.85 295.85 -379.85 295.85 -402.25 221.45 -402.25 147.05 -402.25 147.05 -379.85 221.45 -379.85 M23.0 -570.0 L23.0 -598.0 M116.0 -360.0 L23.0 -360.0 -70.0 -360.0 -70.0 -388.0 23.0 -388.0 116.0 -388.0 116.0 -360.0 M23.0 -360.0 L23.0 -388.0" fill="none" stroke="#ffffff" stroke-linecap="round" stroke-linejoin="round" stroke-width="1.0"/>
  </g>
</svg>
