<?xml version="1.0" encoding="UTF-8" standalone="no"?>
<svg xmlns:ffdec="https://www.free-decompiler.com/flash" xmlns:xlink="http://www.w3.org/1999/xlink" ffdec:objectType="shape" height="50.0px" width="385.1px" xmlns="http://www.w3.org/2000/svg">
  <g transform="matrix(1.0, 0.0, 0.0, 1.0, 119.15, 12.4)">
    <path d="M253.45 -12.4 Q258.65 -12.4 262.3 -8.75 265.95 -5.1 265.95 0.1 265.95 5.3 262.3 8.95 258.65 12.6 253.45 12.6 L-106.65 12.6 Q-111.85 12.6 -115.5 8.95 -119.15 5.3 -119.15 0.1 -119.15 -5.1 -115.5 -8.75 -111.85 -12.4 -106.65 -12.4 L253.45 -12.4" fill="#ffffff" fill-opacity="0.078431375" fill-rule="evenodd" stroke="none"/>
    <path d="M255.2 17.65 Q259.35 17.65 262.25 20.55 265.2 23.5 265.2 27.65 265.2 31.8 262.25 34.7 259.35 37.6 255.2 37.6 L-109.15 37.6 Q-113.3 37.6 -116.2 34.7 -119.15 31.8 -119.15 27.65 -119.15 23.5 -116.2 20.55 -113.3 17.65 -109.15 17.65 L255.2 17.65" fill="#ffffff" fill-opacity="0.078431375" fill-rule="evenodd" stroke="none"/>
  </g>
</svg>
