<?xml version="1.0" encoding="UTF-8" standalone="no"?>
<svg xmlns:ffdec="https://www.free-decompiler.com/flash" xmlns:xlink="http://www.w3.org/1999/xlink" ffdec:objectType="shape" height="206.0px" width="183.0px" xmlns="http://www.w3.org/2000/svg">
  <g transform="matrix(1.0, 0.0, 0.0, 1.0, 0.0, 0.0)">
    <path d="M182.85 165.75 L183.0 165.75 183.0 193.8 182.75 193.8 Q180.95 206.0 167.0 206.0 L16.0 206.0 Q2.05 206.0 0.25 193.8 L0.0 193.8 0.0 165.75 0.2 165.75 Q1.7 153.0 16.0 153.0 L167.0 153.0 Q181.3 153.0 182.85 165.75" fill="#ffffff" fill-opacity="0.09803922" fill-rule="evenodd" stroke="none"/>
    <path d="M0.0 34.75 L183.0 34.75 183.0 132.0 Q183.0 148.0 167.0 148.0 L16.0 148.0 Q0.0 148.0 0.0 132.0 L0.0 34.75" fill="#ffffff" fill-opacity="0.09803922" fill-rule="evenodd" stroke="none"/>
    <path d="M0.0 34.75 L0.0 16.0 Q0.0 0.0 16.0 0.0 L167.0 0.0 Q183.0 0.0 183.0 16.0 L183.0 34.75 0.0 34.75" fill="#ffffff" fill-opacity="0.1882353" fill-rule="evenodd" stroke="none"/>
  </g>
</svg>
