<?xml version="1.0" encoding="UTF-8" standalone="no"?>
<svg xmlns:ffdec="https://www.free-decompiler.com/flash" xmlns:xlink="http://www.w3.org/1999/xlink" ffdec:objectType="shape" height="29.0px" width="306.0px" xmlns="http://www.w3.org/2000/svg">
  <g transform="matrix(1.0, 0.0, 0.0, 1.0, -7.0, -30.0)">
    <path d="M306.0 30.0 Q313.0 30.0 313.0 37.0 L313.0 52.0 Q313.0 59.0 306.0 59.0 L14.05 59.0 Q7.0 59.0 7.0 52.0 L7.0 37.0 Q7.0 30.0 14.05 30.0 L306.0 30.0" fill="#220000" fill-opacity="0.2" fill-rule="evenodd" stroke="none"/>
    <path d="M124.0 41.35 L124.0 46.6 Q124.0 49.65 121.95 51.85 119.85 54.0 116.95 54.0 L18.05 54.0 Q15.1 54.0 13.05 51.85 11.0 49.65 11.0 46.6 L11.0 41.35 Q11.0 38.3 13.05 36.15 15.1 34.0 18.05 34.0 L116.95 34.0 Q119.85 34.0 121.95 36.15 124.0 38.3 124.0 41.35" fill="#ffffff" fill-opacity="0.09803922" fill-rule="evenodd" stroke="none"/>
  </g>
</svg>
