<?xml version="1.0" encoding="UTF-8" standalone="no"?>
<svg xmlns:ffdec="https://www.free-decompiler.com/flash" xmlns:xlink="http://www.w3.org/1999/xlink" ffdec:objectType="shape" height="499.95px" width="595.95px" xmlns="http://www.w3.org/2000/svg">
  <g transform="matrix(1.0, 0.0, 0.0, 1.0, 0.0, 0.0)">
    <path d="M0.0 0.0 L595.95 0.0 595.95 499.95 0.0 499.95 0.0 0.0" fill="#131112" fill-opacity="0.9490196" fill-rule="evenodd" stroke="none"/>
    <path d="M477.25 228.6 L483.25 228.6 M465.25 228.6 L471.25 228.6 M453.25 228.6 L459.25 228.6 M463.0 209.0 L457.0 209.0 M475.0 209.0 L469.0 209.0 M429.25 228.6 L435.25 228.6 M417.25 228.6 L423.25 228.6 M405.25 228.6 L411.25 228.6 M415.0 209.0 L409.0 209.0 M427.0 209.0 L421.0 209.0 M439.0 209.0 L433.0 209.0 M439.0 253.0 L433.0 253.0 M415.0 253.0 L409.0 253.0 M405.25 272.6 L411.25 272.6 M417.25 272.6 L423.25 272.6 M429.25 272.6 L435.25 272.6 M427.0 253.0 L421.0 253.0 M477.25 272.6 L483.25 272.6 M465.25 272.6 L471.25 272.6 M453.25 272.6 L459.25 272.6 M463.0 253.0 L457.0 253.0 M475.0 253.0 L469.0 253.0 M441.25 228.6 L447.25 228.6 M451.0 209.0 L445.0 209.0 M441.25 272.6 L447.25 272.6 M451.0 253.0 L445.0 253.0 M393.25 228.6 L399.25 228.6 M381.25 228.6 L387.25 228.6 M369.25 228.6 L375.25 228.6 M379.0 209.0 L373.0 209.0 M391.0 209.0 L385.0 209.0 M403.0 209.0 L397.0 209.0 M357.25 228.6 L363.25 228.6 M345.25 228.6 L351.25 228.6 M333.25 228.6 L339.25 228.6 M331.0 209.0 L325.0 209.0 M343.0 209.0 L337.0 209.0 M355.0 209.0 L349.0 209.0 M355.0 253.0 L349.0 253.0 M343.0 253.0 L337.0 253.0 M331.0 253.0 L325.0 253.0 M333.25 272.6 L339.25 272.6 M345.25 272.6 L351.25 272.6 M357.25 272.6 L363.25 272.6 M403.0 253.0 L397.0 253.0 M391.0 253.0 L385.0 253.0 M379.0 253.0 L373.0 253.0 M369.25 272.6 L375.25 272.6 M393.25 272.6 L399.25 272.6 M381.25 272.6 L387.25 272.6 M367.0 209.0 L361.0 209.0 M367.0 253.0 L361.0 253.0 M523.0 214.3 L523.0 209.0 517.0 209.0 M523.0 226.3 L523.0 220.3 M513.25 228.6 L519.25 228.6 M501.25 228.6 L507.25 228.6 M489.25 228.6 L495.25 228.6 M499.0 209.0 L493.0 209.0 M511.0 209.0 L505.0 209.0 M523.0 258.3 L523.0 253.0 517.0 253.0 M523.0 270.3 L523.0 264.3 M499.0 253.0 L493.0 253.0 M489.25 272.6 L495.25 272.6 M513.25 272.6 L519.25 272.6 M511.0 253.0 L505.0 253.0 M501.25 272.6 L507.25 272.6 M487.0 209.0 L481.0 209.0 M487.0 253.0 L481.0 253.0 M309.25 228.6 L315.25 228.6 M299.95 225.9 L299.95 228.6 303.25 228.6 M299.95 213.9 L299.95 219.9 M307.0 209.0 L301.0 209.0 M319.0 209.0 L313.0 209.0 M319.0 253.0 L313.0 253.0 M299.95 257.9 L299.95 263.9 M299.95 269.9 L299.95 272.6 303.25 272.6 M309.25 272.6 L315.25 272.6 M307.0 253.0 L301.0 253.0 M321.25 228.6 L327.25 228.6 M321.25 272.6 L327.25 272.6" fill="none" stroke="#ffffff" stroke-linecap="round" stroke-linejoin="round" stroke-opacity="0.41960785" stroke-width="1.0"/>
    <path d="M423.8 296.25 L417.8 296.25 M411.8 296.25 L405.8 296.25 M435.8 296.25 L429.8 296.25 M459.8 296.25 L453.8 296.25 M471.8 296.25 L465.8 296.25 M483.8 296.25 L477.8 296.25 M447.8 296.25 L441.8 296.25 M339.8 296.25 L333.8 296.25 M363.8 296.25 L357.8 296.25 M351.8 296.25 L345.8 296.25 M375.8 296.25 L369.8 296.25 M399.8 296.25 L393.8 296.25 M387.8 296.25 L381.8 296.25 M495.8 296.25 L489.8 296.25 M519.8 296.25 L513.8 296.25 M507.8 296.25 L501.8 296.25 M531.8 296.25 L525.8 296.25 M87.8 296.25 L81.8 296.25 M99.8 296.25 L93.8 296.25 M111.8 296.25 L105.8 296.25 M135.8 296.25 L129.8 296.25 M147.8 296.25 L141.8 296.25 M159.8 296.25 L153.8 296.25 M123.8 296.25 L117.8 296.25 M51.8 296.25 L45.8 296.25 M63.8 296.25 L57.8 296.25 M75.8 296.25 L69.8 296.25 M255.8 296.25 L249.8 296.25 M267.8 296.25 L261.8 296.25 M279.8 296.25 L273.8 296.25 M291.8 296.25 L285.8 296.25 M315.8 296.25 L309.8 296.25 M303.8 296.25 L297.8 296.25 M171.8 296.25 L165.8 296.25 M183.8 296.25 L177.8 296.25 M195.8 296.25 L189.8 296.25 M219.8 296.25 L213.8 296.25 M231.8 296.25 L225.8 296.25 M207.8 296.25 L201.8 296.25 M243.8 296.25 L237.8 296.25 M327.8 296.25 L321.8 296.25" fill="none" stroke="#ffffff" stroke-linecap="round" stroke-linejoin="round" stroke-opacity="0.11764706" stroke-width="1.0"/>
  </g>
</svg>
