<?xml version="1.0" encoding="UTF-8" standalone="no"?>
<svg xmlns:ffdec="https://www.free-decompiler.com/flash" xmlns:xlink="http://www.w3.org/1999/xlink" ffdec:objectType="shape" height="49.95px" width="349.95px" xmlns="http://www.w3.org/2000/svg">
  <g transform="matrix(1.0, 0.0, 0.0, 1.0, 160.0, 24.95)">
    <path d="M9.95 -24.95 L39.95 -24.95 -10.0 25.0 -40.0 25.0 9.95 -24.95 M69.95 -24.95 L99.95 -24.95 50.0 25.0 20.0 25.0 69.95 -24.95 M129.95 -24.95 L159.95 -24.95 110.0 25.0 80.0 25.0 129.95 -24.95 M-70.0 25.0 L-100.0 25.0 -50.05 -24.95 -20.05 -24.95 -70.0 25.0 M-130.0 25.0 L-160.0 25.0 -110.05 -24.95 -80.05 -24.95 -130.0 25.0" fill="#ffffff" fill-opacity="0.7529412" fill-rule="evenodd" stroke="none"/>
    <path d="M39.95 -24.95 L69.95 -24.95 20.0 25.0 -10.0 25.0 39.95 -24.95 M99.95 -24.95 L129.95 -24.95 80.0 25.0 50.0 25.0 99.95 -24.95 M159.95 -24.95 L189.95 -24.95 140.0 25.0 110.0 25.0 159.95 -24.95 M-40.0 25.0 L-70.0 25.0 -20.05 -24.95 9.95 -24.95 -40.0 25.0 M-100.0 25.0 L-130.0 25.0 -80.05 -24.95 -50.05 -24.95 -100.0 25.0" fill="#ffffff" fill-opacity="0.2509804" fill-rule="evenodd" stroke="none"/>
  </g>
</svg>
