<?xml version="1.0" encoding="UTF-8" standalone="no"?>
<svg xmlns:ffdec="https://www.free-decompiler.com/flash" xmlns:xlink="http://www.w3.org/1999/xlink" ffdec:objectType="shape" height="14.0px" width="14.0px" xmlns="http://www.w3.org/2000/svg">
  <g transform="matrix(1.0, 0.0, 0.0, 1.0, 0.5, 0.5)">
    <path d="M11.1 11.1 Q9.2 13.0 6.5 13.0 3.8 13.0 1.9 11.1 0.0 9.2 0.0 6.5 0.0 3.8 1.9 1.9 3.8 0.0 6.5 0.0 9.2 0.0 11.1 1.9 13.0 3.8 13.0 6.5 13.0 9.2 11.1 11.1 M10.6 7.75 L10.55 7.55 Q10.2 7.0 9.5 7.05 L9.5 7.1 9.2 7.15 8.95 7.25 8.6 7.65 8.3 8.0 8.3 8.35 8.3 8.75 8.4 8.9 8.8 9.3 Q10.55 9.45 10.6 7.75 M2.2 3.9 Q1.15 4.55 1.05 5.75 1.55 6.65 2.55 6.35 L2.85 6.15 Q3.55 5.4 3.35 4.5 L3.3 4.3 2.5 3.8 2.2 3.9 M5.25 3.45 L5.65 3.25 Q6.2 3.0 6.2 2.45 L6.1 2.25 Q5.95 1.6 5.25 1.55 L4.95 1.65 Q4.5 1.75 4.35 2.2 4.1 3.25 5.25 3.45 M6.75 8.8 L6.45 8.9 Q6.0 9.0 5.85 9.45 5.6 10.5 6.75 10.7 L7.15 10.5 Q7.65 10.25 7.7 9.7 L7.6 9.5 Q7.45 8.85 6.75 8.8" fill="#d92626" fill-rule="evenodd" stroke="none"/>
    <path d="M5.25 3.45 Q4.1 3.25 4.35 2.2 4.5 1.75 4.95 1.65 L5.25 1.55 Q5.95 1.6 6.1 2.25 L6.2 2.45 Q6.2 3.0 5.65 3.25 L5.25 3.45 M2.2 3.9 L2.5 3.8 3.3 4.3 3.35 4.5 Q3.55 5.4 2.85 6.15 L2.55 6.35 Q1.55 6.65 1.05 5.75 1.15 4.55 2.2 3.9" fill="#fe8989" fill-rule="evenodd" stroke="none"/>
    <path d="M10.6 7.75 Q10.55 9.45 8.8 9.3 L8.4 8.9 8.3 8.75 8.3 8.35 8.3 8.0 8.6 7.65 8.95 7.25 9.2 7.15 9.5 7.1 9.5 7.05 Q10.2 7.0 10.55 7.55 L10.6 7.75 M6.75 8.8 Q7.45 8.85 7.6 9.5 L7.7 9.7 Q7.65 10.25 7.15 10.5 L6.75 10.7 Q5.6 10.5 5.85 9.45 6.0 9.0 6.45 8.9 L6.75 8.8" fill="#df4a4a" fill-rule="evenodd" stroke="none"/>
    <path d="M11.1 11.1 Q9.2 13.0 6.5 13.0 3.8 13.0 1.9 11.1 0.0 9.2 0.0 6.5 0.0 3.8 1.9 1.9 3.8 0.0 6.5 0.0 9.2 0.0 11.1 1.9 13.0 3.8 13.0 6.5 13.0 9.2 11.1 11.1 Z" fill="none" stroke="#ffffff" stroke-linecap="round" stroke-linejoin="round" stroke-width="1.0"/>
  </g>
</svg>
