<?xml version="1.0" encoding="UTF-8" standalone="no"?>
<svg xmlns:ffdec="https://www.free-decompiler.com/flash" xmlns:xlink="http://www.w3.org/1999/xlink" ffdec:objectType="shape" height="25.2px" width="25.2px" xmlns="http://www.w3.org/2000/svg">
  <g transform="matrix(1.0, 0.0, 0.0, 1.0, 0.6, 0.6)">
    <path d="M20.5 20.5 Q17.0 24.0 12.0 24.0 7.0 24.0 3.5 20.5 0.0 17.0 0.0 12.0 0.0 7.0 3.5 3.5 7.0 0.0 12.0 0.0 17.0 0.0 20.5 3.5 24.0 7.0 24.0 12.0 24.0 17.0 20.5 20.5 M4.05 7.2 Q2.1 8.4 1.95 10.6 2.85 12.3 4.7 11.7 L5.25 11.35 Q6.55 9.95 6.2 8.3 L6.1 7.95 Q5.65 7.1 4.6 7.0 L4.05 7.2 M11.45 4.5 L11.25 4.15 Q11.0 2.95 9.7 2.85 L9.15 3.05 Q8.3 3.25 8.05 4.05 7.55 6.0 9.7 6.35 10.05 6.2 10.45 6.0 11.45 5.55 11.45 4.5 M14.2 17.9 L14.05 17.55 Q13.75 16.35 12.45 16.25 L11.9 16.45 Q11.1 16.6 10.8 17.45 10.35 19.4 12.45 19.75 L13.2 19.4 Q14.1 18.9 14.2 17.9 M19.55 14.3 L19.5 13.95 Q18.85 12.9 17.55 13.0 L17.55 13.1 17.0 13.2 16.5 13.4 15.9 14.1 15.3 14.75 15.3 15.4 15.3 16.15 15.5 16.45 16.25 17.15 Q19.5 17.45 19.55 14.3" fill="#d92626" fill-rule="evenodd" stroke="none"/>
    <path d="M11.45 4.5 Q11.45 5.55 10.45 6.0 10.05 6.2 9.7 6.35 7.55 6.0 8.05 4.05 8.3 3.25 9.15 3.05 L9.7 2.85 Q11.0 2.95 11.25 4.15 L11.45 4.5 M4.05 7.2 L4.6 7.0 Q5.65 7.1 6.1 7.95 L6.2 8.3 Q6.55 9.95 5.25 11.35 L4.7 11.7 Q2.85 12.3 1.95 10.6 2.1 8.4 4.05 7.2" fill="#fe8989" fill-rule="evenodd" stroke="none"/>
    <path d="M19.55 14.3 Q19.5 17.45 16.25 17.15 L15.5 16.45 15.3 16.15 15.3 15.4 15.3 14.75 15.9 14.1 16.5 13.4 17.0 13.2 17.55 13.1 17.55 13.0 Q18.85 12.9 19.5 13.95 L19.55 14.3 M14.2 17.9 Q14.1 18.9 13.2 19.4 L12.45 19.75 Q10.35 19.4 10.8 17.45 11.1 16.6 11.9 16.45 L12.45 16.25 Q13.75 16.35 14.05 17.55 L14.2 17.9" fill="#df4a4a" fill-rule="evenodd" stroke="none"/>
    <path d="M20.5 20.5 Q17.0 24.0 12.0 24.0 7.0 24.0 3.5 20.5 0.0 17.0 0.0 12.0 0.0 7.0 3.5 3.5 7.0 0.0 12.0 0.0 17.0 0.0 20.5 3.5 24.0 7.0 24.0 12.0 24.0 17.0 20.5 20.5 Z" fill="none" stroke="#ffffff" stroke-linecap="round" stroke-linejoin="round" stroke-width="1.25"/>
  </g>
</svg>
