<?xml version="1.0" encoding="UTF-8" standalone="no"?>
<svg xmlns:ffdec="https://www.free-decompiler.com/flash" xmlns:xlink="http://www.w3.org/1999/xlink" ffdec:objectType="shape" height="28.1px" width="28.1px" xmlns="http://www.w3.org/2000/svg">
  <g transform="matrix(1.0, 0.0, 0.0, 1.0, 14.05, 14.05)">
    <path d="M9.7 -9.7 Q13.7 -5.7 13.7 0.0 13.7 5.7 9.7 9.7 5.7 13.7 0.0 13.7 -5.7 13.7 -9.7 9.7 -13.7 5.7 -13.7 0.0 -13.7 -5.7 -9.7 -9.7 -5.7 -13.7 0.0 -13.7 5.7 -13.7 9.7 -9.7 M1.4 8.45 Q2.4 7.9 2.55 6.75 L2.35 6.35 Q2.0 4.95 0.55 4.85 L-0.1 5.05 Q-1.05 5.25 -1.35 6.25 -1.9 8.45 0.55 8.85 L1.4 8.45 M8.65 2.65 L8.55 2.25 Q7.8 1.05 6.35 1.15 L6.35 1.3 5.7 1.4 Q5.4 1.45 5.2 1.6 L4.45 2.45 3.8 3.15 3.8 3.9 3.8 4.75 4.0 5.05 4.85 5.9 Q8.55 6.2 8.65 2.65 M-6.65 -4.2 L-6.75 -4.6 Q-7.25 -5.6 -8.4 -5.7 L-9.05 -5.45 Q-11.3 -4.1 -11.45 -1.55 -10.45 0.3 -8.3 -0.3 -8.0 -0.45 -7.7 -0.75 -6.25 -2.35 -6.65 -4.2 M-3.25 -10.2 Q-4.2 -10.0 -4.5 -9.05 -5.05 -6.85 -2.6 -6.4 L-1.8 -6.85 Q-0.65 -7.35 -0.6 -8.5 L-0.85 -8.95 Q-1.15 -10.3 -2.6 -10.4 L-3.25 -10.2" fill="#d92626" fill-rule="evenodd" stroke="none"/>
    <path d="M-3.25 -10.2 L-2.6 -10.4 Q-1.15 -10.3 -0.85 -8.95 L-0.6 -8.5 Q-0.65 -7.35 -1.8 -6.85 L-2.6 -6.4 Q-5.05 -6.85 -4.5 -9.05 -4.2 -10.0 -3.25 -10.2 M-6.65 -4.2 Q-6.25 -2.35 -7.7 -0.75 -8.0 -0.45 -8.3 -0.3 -10.45 0.3 -11.45 -1.55 -11.3 -4.1 -9.05 -5.45 L-8.4 -5.7 Q-7.25 -5.6 -6.75 -4.6 L-6.65 -4.2" fill="#fe8989" fill-rule="evenodd" stroke="none"/>
    <path d="M8.65 2.65 Q8.55 6.2 4.85 5.9 L4.0 5.05 3.8 4.75 3.8 3.9 3.8 3.15 4.45 2.45 5.2 1.6 Q5.4 1.45 5.7 1.4 L6.35 1.3 6.35 1.15 Q7.8 1.05 8.55 2.25 L8.65 2.65 M1.4 8.45 L0.55 8.85 Q-1.9 8.45 -1.35 6.25 -1.05 5.25 -0.1 5.05 L0.55 4.85 Q2.0 4.95 2.35 6.35 L2.55 6.75 Q2.4 7.9 1.4 8.45" fill="#df4a4a" fill-rule="evenodd" stroke="none"/>
    <path d="M9.7 -9.7 Q13.7 -5.7 13.7 0.0 13.7 5.7 9.7 9.7 5.7 13.7 0.0 13.7 -5.7 13.7 -9.7 9.7 -13.7 5.7 -13.7 0.0 -13.7 -5.7 -9.7 -9.7 -5.7 -13.7 0.0 -13.7 5.7 -13.7 9.7 -9.7 Z" ffdec:has-small-stroke="true" ffdec:original-stroke-width="0.75" fill="none" stroke="#ffffff" stroke-linecap="round" stroke-linejoin="round" stroke-width="1.0"/>
  </g>
</svg>
