<?xml version="1.0" encoding="UTF-8" standalone="no"?>
<svg xmlns:ffdec="https://www.free-decompiler.com/flash" xmlns:xlink="http://www.w3.org/1999/xlink" ffdec:objectType="shape" height="84.1px" width="84.1px" xmlns="http://www.w3.org/2000/svg">
  <g transform="matrix(1.0, 0.0, 0.0, 1.0, 42.05, 42.05)">
    <path d="M29.5 -29.5 Q41.7 -17.35 41.7 0.0 41.7 17.35 29.5 29.5 17.35 41.7 0.0 41.7 -17.35 41.7 -29.5 29.5 -41.7 17.35 -41.7 0.0 -41.7 -17.35 -29.5 -29.5 -17.35 -41.7 0.0 -41.7 17.35 -41.7 29.5 -29.5 M7.15 19.35 Q6.1 15.05 1.65 14.75 L-0.3 15.35 Q-3.2 16.0 -4.1 19.0 -5.8 25.7 1.65 26.95 2.9 26.35 4.25 25.7 7.3 24.05 7.75 20.55 7.3 19.95 7.15 19.35 M26.35 8.05 L26.0 6.85 Q23.75 3.2 19.35 3.5 L19.35 3.95 17.35 4.25 Q16.45 4.4 15.85 4.85 14.45 6.1 13.55 7.45 12.5 8.35 11.55 9.6 L11.55 11.85 11.55 14.45 12.2 15.35 14.75 17.95 Q26.0 18.85 26.35 8.05 M-25.25 -0.9 L-23.45 -2.3 Q-19.0 -7.15 -20.25 -12.8 -20.25 -13.4 -20.55 -14.0 -22.05 -17.05 -25.55 -17.35 L-27.55 -16.6 Q-34.4 -12.5 -34.85 -4.7 -31.8 0.9 -25.25 -0.9 M-1.85 -25.85 L-2.6 -27.25 Q-3.5 -31.35 -7.9 -31.65 L-9.9 -31.05 Q-12.8 -30.45 -13.7 -27.55 -15.35 -20.85 -7.9 -19.5 L-5.5 -20.85 Q-2.0 -22.35 -1.85 -25.85" fill="#d92626" fill-rule="evenodd" stroke="none"/>
    <path d="M-1.85 -25.85 Q-2.0 -22.35 -5.5 -20.85 L-7.9 -19.5 Q-15.35 -20.85 -13.7 -27.55 -12.8 -30.45 -9.9 -31.05 L-7.9 -31.65 Q-3.5 -31.35 -2.6 -27.25 L-1.85 -25.85 M-25.25 -0.9 Q-31.8 0.9 -34.85 -4.7 -34.4 -12.5 -27.55 -16.6 L-25.55 -17.35 Q-22.05 -17.05 -20.55 -14.0 -20.25 -13.4 -20.25 -12.8 -19.0 -7.15 -23.45 -2.3 L-25.25 -0.9" fill="#fe8989" fill-rule="evenodd" stroke="none"/>
    <path d="M26.35 8.05 Q26.0 18.85 14.75 17.95 L12.2 15.35 11.55 14.45 11.55 11.85 11.55 9.6 Q12.5 8.35 13.55 7.45 14.45 6.1 15.85 4.85 16.45 4.4 17.35 4.25 L19.35 3.95 19.35 3.5 Q23.75 3.2 26.0 6.85 L26.35 8.05 M7.15 19.35 Q7.3 19.95 7.75 20.55 7.3 24.05 4.25 25.7 2.9 26.35 1.65 26.95 -5.8 25.7 -4.1 19.0 -3.2 16.0 -0.3 15.35 L1.65 14.75 Q6.1 15.05 7.15 19.35" fill="#df4a4a" fill-rule="evenodd" stroke="none"/>
    <path d="M29.5 -29.5 Q41.7 -17.35 41.7 0.0 41.7 17.35 29.5 29.5 17.35 41.7 0.0 41.7 -17.35 41.7 -29.5 29.5 -41.7 17.35 -41.7 0.0 -41.7 -17.35 -29.5 -29.5 -17.35 -41.7 0.0 -41.7 17.35 -41.7 29.5 -29.5 Z" ffdec:has-small-stroke="true" ffdec:original-stroke-width="0.75" fill="none" stroke="#ffffff" stroke-linecap="round" stroke-linejoin="round" stroke-width="1.0"/>
  </g>
</svg>
