<?xml version="1.0" encoding="UTF-8" standalone="no"?>
<svg xmlns:ffdec="https://www.free-decompiler.com/flash" xmlns:xlink="http://www.w3.org/1999/xlink" ffdec:objectType="shape" height="35.0px" width="51.85px" xmlns="http://www.w3.org/2000/svg">
  <g transform="matrix(1.0, 0.0, 0.0, 1.0, 25.9, 17.5)">
    <path d="M0.0 -0.3 L0.3 -0.5 Q1.0 -1.25 0.8 -2.15 L0.75 -2.35 Q0.5 -2.8 -0.05 -2.85 L-0.35 -2.75 Q-1.4 -2.1 -1.5 -0.9 -1.0 0.0 0.0 -0.3 M3.65 -4.2 L3.55 -4.4 Q3.4 -5.05 2.7 -5.1 L2.4 -5.0 Q1.95 -4.9 1.8 -4.45 1.55 -3.4 2.7 -3.2 L3.1 -3.4 Q3.65 -3.65 3.65 -4.2 M8.55 -4.75 Q10.45 -2.85 10.45 -0.15 10.45 2.55 8.55 4.45 6.65 6.35 3.95 6.35 1.25 6.35 -0.65 4.45 -2.55 2.55 -2.55 -0.15 -2.55 -2.85 -0.65 -4.75 1.25 -6.65 3.95 -6.65 6.65 -6.65 8.55 -4.75 M13.5 -0.9 Q14.0 0.0 15.0 -0.3 L15.3 -0.5 Q16.0 -1.25 15.8 -2.15 L15.75 -2.35 Q15.5 -2.8 14.95 -2.85 L14.65 -2.75 Q13.6 -2.1 13.5 -0.9 M14.35 -4.75 Q16.25 -6.65 18.95 -6.65 21.65 -6.65 23.55 -4.75 25.45 -2.85 25.45 -0.15 25.45 2.55 23.55 4.45 21.65 6.35 18.95 6.35 16.25 6.35 14.35 4.45 12.45 2.55 12.45 -0.15 12.45 -2.85 14.35 -4.75 M18.1 -3.4 Q18.65 -3.65 18.65 -4.2 L18.55 -4.4 Q18.4 -5.05 17.7 -5.1 L17.4 -5.0 Q16.95 -4.9 16.8 -4.45 16.55 -3.4 17.7 -3.2 L18.1 -3.4 M21.95 0.45 L21.65 0.5 21.4 0.6 21.05 1.0 20.75 1.35 20.75 1.7 20.75 2.1 20.85 2.25 21.25 2.65 Q23.0 2.8 23.05 1.1 L23.0 0.9 Q22.65 0.35 22.0 0.4 L21.95 0.4 21.95 0.45 M6.95 0.45 L6.65 0.5 6.4 0.6 6.05 1.0 5.75 1.35 5.75 1.7 5.75 2.1 5.85 2.25 6.25 2.65 Q8.0 2.8 8.05 1.1 L8.0 0.9 Q7.65 0.35 7.0 0.4 L6.95 0.4 6.95 0.45 M18.9 2.25 Q18.45 2.35 18.3 2.8 18.05 3.85 19.2 4.05 L19.6 3.85 Q20.1 3.6 20.15 3.05 L20.05 2.85 Q19.9 2.2 19.2 2.15 L18.9 2.25 M3.3 2.8 Q3.05 3.85 4.2 4.05 L4.6 3.85 5.15 3.05 5.05 2.85 Q4.9 2.2 4.2 2.15 L3.9 2.25 Q3.45 2.35 3.3 2.8 M-20.45 -11.85 L-21.05 -11.3 Q-21.3 -10.25 -20.15 -10.05 L-19.75 -10.25 Q-19.2 -10.5 -19.2 -11.05 L-19.3 -11.25 Q-19.45 -11.9 -20.15 -11.95 L-20.45 -11.85 M-22.05 -9.0 L-22.1 -9.2 -22.9 -9.7 -23.2 -9.6 Q-24.25 -8.95 -24.35 -7.75 -23.85 -6.85 -22.85 -7.15 L-22.55 -7.35 Q-21.85 -8.1 -22.05 -9.0 M-23.5 -11.6 Q-21.6 -13.5 -18.9 -13.5 -16.2 -13.5 -14.3 -11.6 -13.25 -10.55 -12.8 -9.3 L-12.9 -10.5 Q-12.9 -13.2 -11.0 -15.1 -9.1 -17.0 -6.4 -17.0 -3.7 -17.0 -1.8 -15.1 0.1 -13.2 0.1 -10.5 0.1 -7.8 -1.8 -5.9 -3.7 -4.0 -6.4 -4.0 -9.1 -4.0 -11.0 -5.9 -12.05 -6.95 -12.5 -8.15 L-12.4 -7.0 Q-12.4 -4.3 -14.3 -2.4 -16.2 -0.5 -18.9 -0.5 -21.6 -0.5 -23.5 -2.4 -25.4 -4.3 -25.4 -7.0 -25.4 -9.7 -23.5 -11.6 M-9.55 -12.5 L-9.6 -12.7 Q-9.85 -13.15 -10.4 -13.2 L-10.7 -13.1 Q-11.75 -12.45 -11.85 -11.25 -11.35 -10.35 -10.35 -10.65 L-10.05 -10.85 Q-9.35 -11.6 -9.55 -12.5 M-6.7 -14.55 L-6.8 -14.75 Q-6.95 -15.4 -7.65 -15.45 L-7.95 -15.35 -8.55 -14.8 Q-8.8 -13.75 -7.65 -13.55 L-7.25 -13.75 Q-6.7 -14.0 -6.7 -14.55 M-12.5 -8.15 L-12.8 -9.3 -12.5 -8.15 M-15.9 -6.4 L-16.2 -6.35 -16.45 -6.25 -16.8 -5.85 -17.1 -5.5 -17.1 -5.15 -17.1 -4.75 -17.0 -4.6 -16.6 -4.2 Q-14.85 -4.05 -14.8 -5.75 L-14.85 -5.95 Q-15.2 -6.5 -15.85 -6.45 L-15.9 -6.45 -15.9 -6.4 M-18.95 -4.6 L-19.55 -4.05 Q-19.8 -3.0 -18.65 -2.8 L-18.25 -3.0 Q-17.75 -3.25 -17.7 -3.8 L-17.8 -4.0 Q-17.95 -4.65 -18.65 -4.7 L-18.95 -4.6 M-3.4 -9.9 L-3.7 -9.85 -3.95 -9.75 -4.3 -9.35 -4.6 -9.0 -4.6 -8.65 -4.6 -8.25 -4.5 -8.1 -4.1 -7.7 Q-2.35 -7.55 -2.3 -9.25 L-2.35 -9.45 Q-2.7 -10.0 -3.35 -9.95 L-3.4 -9.95 -3.4 -9.9 M-7.05 -7.55 Q-7.3 -6.5 -6.15 -6.3 L-5.75 -6.5 Q-5.25 -6.75 -5.2 -7.3 L-5.3 -7.5 Q-5.45 -8.15 -6.15 -8.2 L-6.45 -8.1 Q-6.9 -8.0 -7.05 -7.55 M-9.55 8.5 L-9.6 8.3 Q-9.85 7.85 -10.4 7.8 L-10.7 7.9 Q-11.75 8.55 -11.85 9.75 -11.35 10.65 -10.35 10.35 L-10.05 10.15 Q-9.35 9.4 -9.55 8.5 M-7.65 5.55 L-7.95 5.65 Q-8.4 5.75 -8.55 6.2 -8.8 7.25 -7.65 7.45 L-7.25 7.25 Q-6.7 7.0 -6.7 6.45 L-6.8 6.25 Q-6.95 5.6 -7.65 5.55 M-3.4 11.1 L-3.7 11.15 -3.95 11.25 -4.3 11.65 -4.6 12.0 -4.6 12.35 -4.6 12.75 -4.5 12.9 -4.1 13.3 Q-2.35 13.45 -2.3 11.75 L-2.35 11.55 Q-2.7 11.0 -3.35 11.05 L-3.4 11.05 -3.4 11.1 M-1.8 5.9 Q0.1 7.8 0.1 10.5 0.1 13.2 -1.8 15.1 -3.7 17.0 -6.4 17.0 -9.1 17.0 -11.0 15.1 -12.9 13.2 -12.9 10.5 L-12.8 9.35 Q-13.25 10.55 -14.3 11.6 -16.2 13.5 -18.9 13.5 -21.6 13.5 -23.5 11.6 -25.4 9.7 -25.4 7.0 -25.4 4.3 -23.5 2.4 -21.6 0.5 -18.9 0.5 -16.2 0.5 -14.3 2.4 -12.4 4.3 -12.4 7.0 L-12.5 8.2 Q-12.05 6.95 -11.0 5.9 -9.1 4.0 -6.4 4.0 -3.7 4.0 -1.8 5.9 M-19.3 2.75 Q-19.45 2.1 -20.15 2.05 L-20.45 2.15 Q-20.9 2.25 -21.05 2.7 -21.3 3.75 -20.15 3.95 L-19.75 3.75 Q-19.2 3.5 -19.2 2.95 L-19.3 2.75 M-15.9 7.6 L-16.2 7.65 -16.45 7.75 -16.8 8.15 -17.1 8.5 -17.1 8.85 -17.1 9.25 -17.0 9.4 -16.6 9.8 Q-14.85 9.95 -14.8 8.25 L-14.85 8.05 Q-15.2 7.5 -15.85 7.55 L-15.9 7.55 -15.9 7.6 M-18.65 9.3 L-18.95 9.4 Q-19.4 9.5 -19.55 9.95 -19.8 11.0 -18.65 11.2 L-18.25 11.0 Q-17.75 10.75 -17.7 10.2 L-17.8 10.0 Q-17.95 9.35 -18.65 9.3 M-12.5 8.2 L-12.8 9.35 -12.5 8.2 M-7.05 13.45 Q-7.3 14.5 -6.15 14.7 L-5.75 14.5 Q-5.25 14.25 -5.2 13.7 L-5.3 13.5 Q-5.45 12.85 -6.15 12.8 L-6.45 12.9 Q-6.9 13.0 -7.05 13.45 M-22.9 4.3 L-23.2 4.4 Q-24.25 5.05 -24.35 6.25 -23.85 7.15 -22.85 6.85 L-22.55 6.65 Q-21.85 5.9 -22.05 5.0 L-22.1 4.8 -22.9 4.3" fill="#d2a800" fill-rule="evenodd" stroke="none"/>
    <path d="M3.65 -4.2 Q3.65 -3.65 3.1 -3.4 L2.7 -3.2 Q1.55 -3.4 1.8 -4.45 1.95 -4.9 2.4 -5.0 L2.7 -5.1 Q3.4 -5.05 3.55 -4.4 L3.65 -4.2 M0.0 -0.3 Q-1.0 0.0 -1.5 -0.9 -1.4 -2.1 -0.35 -2.75 L-0.05 -2.85 Q0.5 -2.8 0.75 -2.35 L0.8 -2.15 Q1.0 -1.25 0.3 -0.5 L0.0 -0.3 M13.5 -0.9 Q13.6 -2.1 14.65 -2.75 L14.95 -2.85 Q15.5 -2.8 15.75 -2.35 L15.8 -2.15 Q16.0 -1.25 15.3 -0.5 L15.0 -0.3 Q14.0 0.0 13.5 -0.9 M18.1 -3.4 L17.7 -3.2 Q16.55 -3.4 16.8 -4.45 16.95 -4.9 17.4 -5.0 L17.7 -5.1 Q18.4 -5.05 18.55 -4.4 L18.65 -4.2 Q18.65 -3.65 18.1 -3.4 M-22.05 -9.0 Q-21.85 -8.1 -22.55 -7.35 L-22.85 -7.15 Q-23.85 -6.85 -24.35 -7.75 -24.25 -8.95 -23.2 -9.6 L-22.9 -9.7 -22.1 -9.2 -22.05 -9.0 M-20.45 -11.85 L-20.15 -11.95 Q-19.45 -11.9 -19.3 -11.25 L-19.2 -11.05 Q-19.2 -10.5 -19.75 -10.25 L-20.15 -10.05 Q-21.3 -10.25 -21.05 -11.3 L-20.45 -11.85 M-6.7 -14.55 Q-6.7 -14.0 -7.25 -13.75 L-7.65 -13.55 Q-8.8 -13.75 -8.55 -14.8 L-7.95 -15.35 -7.65 -15.45 Q-6.95 -15.4 -6.8 -14.75 L-6.7 -14.55 M-9.55 -12.5 Q-9.35 -11.6 -10.05 -10.85 L-10.35 -10.65 Q-11.35 -10.35 -11.85 -11.25 -11.75 -12.45 -10.7 -13.1 L-10.4 -13.2 Q-9.85 -13.15 -9.6 -12.7 L-9.55 -12.5 M-7.65 5.55 Q-6.95 5.6 -6.8 6.25 L-6.7 6.45 Q-6.7 7.0 -7.25 7.25 L-7.65 7.45 Q-8.8 7.25 -8.55 6.2 -8.4 5.75 -7.95 5.65 L-7.65 5.55 M-9.55 8.5 Q-9.35 9.4 -10.05 10.15 L-10.35 10.35 Q-11.35 10.65 -11.85 9.75 -11.75 8.55 -10.7 7.9 L-10.4 7.8 Q-9.85 7.85 -9.6 8.3 L-9.55 8.5 M-19.3 2.75 L-19.2 2.95 Q-19.2 3.5 -19.75 3.75 L-20.15 3.95 Q-21.3 3.75 -21.05 2.7 -20.9 2.25 -20.45 2.15 L-20.15 2.05 Q-19.45 2.1 -19.3 2.75 M-22.9 4.3 L-22.1 4.8 -22.05 5.0 Q-21.85 5.9 -22.55 6.65 L-22.85 6.85 Q-23.85 7.15 -24.35 6.25 -24.25 5.05 -23.2 4.4 L-22.9 4.3" fill="#ffeda6" fill-rule="evenodd" stroke="none"/>
    <path d="M22.0 0.4 Q22.65 0.35 23.0 0.9 L23.05 1.1 Q23.0 2.8 21.25 2.65 L20.85 2.25 20.75 2.1 20.75 1.7 20.75 1.35 21.05 1.0 21.4 0.6 21.65 0.5 21.95 0.45 22.0 0.4 M18.9 2.25 L19.2 2.15 Q19.9 2.2 20.05 2.85 L20.15 3.05 Q20.1 3.6 19.6 3.85 L19.2 4.05 Q18.05 3.85 18.3 2.8 18.45 2.35 18.9 2.25 M7.0 0.4 Q7.65 0.35 8.0 0.9 L8.05 1.1 Q8.0 2.8 6.25 2.65 L5.85 2.25 5.75 2.1 5.75 1.7 5.75 1.35 6.05 1.0 6.4 0.6 6.65 0.5 6.95 0.45 7.0 0.4 M3.3 2.8 Q3.45 2.35 3.9 2.25 L4.2 2.15 Q4.9 2.2 5.05 2.85 L5.15 3.05 4.6 3.85 4.2 4.05 Q3.05 3.85 3.3 2.8 M-15.9 -6.4 L-15.85 -6.45 Q-15.2 -6.5 -14.85 -5.95 L-14.8 -5.75 Q-14.85 -4.05 -16.6 -4.2 L-17.0 -4.6 -17.1 -4.75 -17.1 -5.15 -17.1 -5.5 -16.8 -5.85 -16.45 -6.25 -16.2 -6.35 -15.9 -6.4 M-18.95 -4.6 L-18.65 -4.7 Q-17.95 -4.65 -17.8 -4.0 L-17.7 -3.8 Q-17.75 -3.25 -18.25 -3.0 L-18.65 -2.8 Q-19.8 -3.0 -19.55 -4.05 L-18.95 -4.6 M-3.4 -9.9 L-3.35 -9.95 Q-2.7 -10.0 -2.35 -9.45 L-2.3 -9.25 Q-2.35 -7.55 -4.1 -7.7 L-4.5 -8.1 -4.6 -8.25 -4.6 -8.65 -4.6 -9.0 -4.3 -9.35 -3.95 -9.75 -3.7 -9.85 -3.4 -9.9 M-7.05 -7.55 Q-6.9 -8.0 -6.45 -8.1 L-6.15 -8.2 Q-5.45 -8.15 -5.3 -7.5 L-5.2 -7.3 Q-5.25 -6.75 -5.75 -6.5 L-6.15 -6.3 Q-7.3 -6.5 -7.05 -7.55 M-3.4 11.1 L-3.35 11.05 Q-2.7 11.0 -2.35 11.55 L-2.3 11.75 Q-2.35 13.45 -4.1 13.3 L-4.5 12.9 -4.6 12.75 -4.6 12.35 -4.6 12.0 -4.3 11.65 -3.95 11.25 -3.7 11.15 -3.4 11.1 M-15.85 7.55 Q-15.2 7.5 -14.85 8.05 L-14.8 8.25 Q-14.85 9.95 -16.6 9.8 L-17.0 9.4 -17.1 9.25 -17.1 8.85 -17.1 8.5 -16.8 8.15 -16.45 7.75 -16.2 7.65 -15.9 7.6 -15.85 7.55 M-18.65 9.3 Q-17.95 9.35 -17.8 10.0 L-17.7 10.2 Q-17.75 10.75 -18.25 11.0 L-18.65 11.2 Q-19.8 11.0 -19.55 9.95 -19.4 9.5 -18.95 9.4 L-18.65 9.3 M-7.05 13.45 Q-6.9 13.0 -6.45 12.9 L-6.15 12.8 Q-5.45 12.85 -5.3 13.5 L-5.2 13.7 Q-5.25 14.25 -5.75 14.5 L-6.15 14.7 Q-7.3 14.5 -7.05 13.45" fill="#fbc900" fill-rule="evenodd" stroke="none"/>
    <path d="M21.95 0.45 L21.95 0.4 22.0 0.4 21.95 0.45 M6.95 0.45 L6.95 0.4 7.0 0.4 6.95 0.45 M-15.85 -6.45 L-15.9 -6.4 -15.9 -6.45 -15.85 -6.45 M-3.35 -9.95 L-3.4 -9.9 -3.4 -9.95 -3.35 -9.95 M-3.35 11.05 L-3.4 11.1 -3.4 11.05 -3.35 11.05 M-15.85 7.55 L-15.9 7.6 -15.9 7.55 -15.85 7.55" fill="#4f79d2" fill-rule="evenodd" stroke="none"/>
    <path d="M8.55 -4.75 Q10.45 -2.85 10.45 -0.15 10.45 2.55 8.55 4.45 6.65 6.35 3.95 6.35 1.25 6.35 -0.65 4.45 -2.55 2.55 -2.55 -0.15 -2.55 -2.85 -0.65 -4.75 1.25 -6.65 3.95 -6.65 6.65 -6.65 8.55 -4.75 M14.35 -4.75 Q16.25 -6.65 18.95 -6.65 21.65 -6.65 23.55 -4.75 25.45 -2.85 25.45 -0.15 25.45 2.55 23.55 4.45 21.65 6.35 18.95 6.35 16.25 6.35 14.35 4.45 12.45 2.55 12.45 -0.15 12.45 -2.85 14.35 -4.75 M-23.5 -11.6 Q-21.6 -13.5 -18.9 -13.5 -16.2 -13.5 -14.3 -11.6 -13.25 -10.55 -12.8 -9.3 L-12.9 -10.5 Q-12.9 -13.2 -11.0 -15.1 -9.1 -17.0 -6.4 -17.0 -3.7 -17.0 -1.8 -15.1 0.1 -13.2 0.1 -10.5 0.1 -7.8 -1.8 -5.9 -3.7 -4.0 -6.4 -4.0 -9.1 -4.0 -11.0 -5.9 -12.05 -6.95 -12.5 -8.15 L-12.4 -7.0 Q-12.4 -4.3 -14.3 -2.4 -16.2 -0.5 -18.9 -0.5 -21.6 -0.5 -23.5 -2.4 -25.4 -4.3 -25.4 -7.0 -25.4 -9.7 -23.5 -11.6 M-12.8 -9.3 L-12.5 -8.15 M-1.8 5.9 Q0.1 7.8 0.1 10.5 0.1 13.2 -1.8 15.1 -3.7 17.0 -6.4 17.0 -9.1 17.0 -11.0 15.1 -12.9 13.2 -12.9 10.5 L-12.8 9.35 Q-13.25 10.55 -14.3 11.6 -16.2 13.5 -18.9 13.5 -21.6 13.5 -23.5 11.6 -25.4 9.7 -25.4 7.0 -25.4 4.3 -23.5 2.4 -21.6 0.5 -18.9 0.5 -16.2 0.5 -14.3 2.4 -12.4 4.3 -12.4 7.0 L-12.5 8.2 Q-12.05 6.95 -11.0 5.9 -9.1 4.0 -6.4 4.0 -3.7 4.0 -1.8 5.9 M-12.8 9.35 L-12.5 8.2" fill="none" stroke="#ffffff" stroke-linecap="round" stroke-linejoin="round" stroke-width="1.0"/>
  </g>
</svg>
