<?xml version="1.0" encoding="UTF-8" standalone="no"?>
<svg xmlns:ffdec="https://www.free-decompiler.com/flash" xmlns:xlink="http://www.w3.org/1999/xlink" ffdec:objectType="shape" height="35.0px" width="71.85px" xmlns="http://www.w3.org/2000/svg">
  <g transform="matrix(1.0, 0.0, 0.0, 1.0, 3.65, 17.5)">
    <path d="M18.1 -13.75 Q18.95 -14.0 18.95 -14.55 L18.8 -14.75 Q18.55 -15.4 17.5 -15.45 L17.05 -15.35 Q16.35 -15.25 16.15 -14.8 15.75 -13.75 17.5 -13.55 L18.1 -13.75 M13.3 -13.2 L12.85 -13.1 Q11.3 -12.45 11.1 -11.25 11.9 -10.35 13.4 -10.65 L13.85 -10.85 Q14.9 -11.6 14.6 -12.5 L14.55 -12.7 Q14.15 -13.15 13.3 -13.2 M19.4 -17.0 Q23.5 -17.0 26.35 -15.1 29.25 -13.2 29.25 -10.5 29.25 -7.8 26.35 -5.9 23.5 -4.0 19.4 -4.0 15.3 -4.0 12.4 -5.9 10.8 -6.95 10.15 -8.15 L10.3 -7.0 Q10.3 -5.2 9.0 -3.75 L7.95 -2.4 Q6.05 -0.5 3.35 -0.5 0.65 -0.5 -1.25 -2.4 -3.15 -4.3 -3.15 -7.0 -3.15 -9.7 -1.25 -11.6 0.65 -13.5 3.35 -13.5 6.05 -13.5 7.95 -11.6 L9.0 -10.25 9.7 -9.3 9.55 -10.5 Q9.55 -13.2 12.4 -15.1 15.3 -17.0 19.4 -17.0 M6.35 -6.4 L6.05 -6.35 5.8 -6.25 5.45 -5.85 5.15 -5.5 5.15 -5.15 5.15 -4.75 5.25 -4.6 5.65 -4.2 Q7.4 -4.05 7.45 -5.75 L7.4 -5.95 Q7.05 -6.5 6.4 -6.45 L6.35 -6.45 6.35 -6.4 M2.95 -11.25 Q2.8 -11.9 2.1 -11.95 L1.8 -11.85 Q1.35 -11.75 1.2 -11.3 0.95 -10.25 2.1 -10.05 L2.5 -10.25 Q3.05 -10.5 3.05 -11.05 L2.95 -11.25 M0.2 -9.0 L0.15 -9.2 -0.65 -9.7 -0.95 -9.6 Q-2.0 -8.95 -2.1 -7.75 -1.6 -6.85 -0.6 -7.15 L-0.3 -7.35 Q0.4 -8.1 0.2 -9.0 M18.4 -7.55 Q18.05 -6.5 19.75 -6.3 L20.4 -6.5 Q21.15 -6.75 21.2 -7.3 L21.05 -7.5 Q20.85 -8.15 19.75 -8.2 L19.3 -8.1 18.4 -7.55 M3.6 -4.7 L3.3 -4.6 Q2.85 -4.5 2.7 -4.05 2.45 -3.0 3.6 -2.8 L4.0 -3.0 Q4.5 -3.25 4.55 -3.8 L4.45 -4.0 Q4.3 -4.65 3.6 -4.7 M9.7 -9.3 L10.15 -8.15 9.7 -9.3 M23.95 -9.9 L23.5 -9.85 23.1 -9.75 22.6 -9.35 22.1 -9.0 22.1 -8.65 22.1 -8.25 22.25 -8.1 22.9 -7.7 Q25.55 -7.55 25.6 -9.25 L25.55 -9.45 Q25.0 -10.0 24.0 -9.95 L23.95 -9.95 23.95 -9.9 M29.55 -0.5 Q30.6 -1.25 30.3 -2.15 L30.25 -2.35 Q29.85 -2.8 29.0 -2.85 L28.55 -2.75 Q27.0 -2.1 26.8 -0.9 27.6 0.0 29.1 -0.3 L29.55 -0.5 M28.1 -4.75 Q31.0 -6.65 35.1 -6.65 39.2 -6.65 42.05 -4.75 44.95 -2.85 44.95 -0.15 44.95 2.55 42.05 4.45 39.2 6.35 35.1 6.35 31.0 6.35 28.1 4.45 25.25 2.55 25.25 -0.15 25.25 -2.85 28.1 -4.75 M55.5 -5.0 L54.6 -4.45 Q54.2 -3.4 55.95 -3.2 L56.55 -3.4 Q57.4 -3.65 57.4 -4.2 L57.25 -4.4 Q57.0 -5.05 55.95 -5.1 L55.5 -5.0 M53.0 -2.35 Q52.6 -2.8 51.75 -2.85 L51.3 -2.75 Q49.75 -2.1 49.6 -0.9 50.35 0.0 51.85 -0.3 L52.3 -0.5 Q53.35 -1.25 53.05 -2.15 L53.0 -2.35 M34.5 -4.4 Q34.25 -5.05 33.2 -5.1 L32.75 -5.0 Q32.05 -4.9 31.85 -4.45 31.45 -3.4 33.2 -3.2 L33.8 -3.4 Q34.65 -3.65 34.65 -4.2 L34.5 -4.4 M57.85 -6.65 Q61.95 -6.65 64.8 -4.75 67.7 -2.85 67.7 -0.15 67.7 2.55 64.8 4.45 61.95 6.35 57.85 6.35 53.75 6.35 50.85 4.45 48.0 2.55 48.0 -0.15 48.0 -2.85 50.85 -4.75 53.75 -6.65 57.85 -6.65 M62.4 0.45 L61.95 0.5 61.55 0.6 61.05 1.0 60.55 1.35 60.55 1.7 60.55 2.1 60.7 2.25 61.35 2.65 Q64.0 2.8 64.05 1.1 L64.0 0.9 Q63.45 0.35 62.45 0.4 L62.4 0.4 62.4 0.45 M39.65 0.45 L39.2 0.5 38.8 0.6 38.3 1.0 37.8 1.35 37.8 1.7 37.8 2.1 37.95 2.25 38.6 2.65 Q41.25 2.8 41.3 1.1 L41.25 0.9 Q40.7 0.35 39.7 0.4 L39.65 0.4 39.65 0.45 M59.65 3.05 L59.5 2.85 Q59.3 2.2 58.2 2.15 L57.75 2.25 Q57.1 2.35 56.85 2.8 56.5 3.85 58.2 4.05 L58.85 3.85 Q59.6 3.6 59.65 3.05 M36.9 3.05 L36.75 2.85 Q36.55 2.2 35.45 2.15 L35.0 2.25 Q34.35 2.35 34.1 2.8 33.75 3.85 35.45 4.05 L36.1 3.85 Q36.85 3.6 36.9 3.05 M23.95 11.1 L23.5 11.15 23.1 11.25 22.6 11.65 22.1 12.0 22.1 12.35 22.1 12.75 22.25 12.9 22.9 13.3 Q25.55 13.45 25.6 11.75 L25.55 11.55 Q25.0 11.0 24.0 11.05 L23.95 11.05 23.95 11.1 M29.25 10.5 Q29.25 13.2 26.35 15.1 23.5 17.0 19.4 17.0 15.3 17.0 12.4 15.1 9.55 13.2 9.55 10.5 9.55 9.9 9.7 9.35 L9.0 10.25 7.95 11.6 Q6.05 13.5 3.35 13.5 0.65 13.5 -1.25 11.6 -3.15 9.7 -3.15 7.0 -3.15 4.3 -1.25 2.4 0.65 0.5 3.35 0.5 6.05 0.5 7.95 2.4 L9.0 3.75 Q10.3 5.2 10.3 7.0 L10.15 8.2 Q10.8 6.95 12.4 5.9 15.3 4.0 19.4 4.0 23.5 4.0 26.35 5.9 29.25 7.8 29.25 10.5 M20.4 14.5 Q21.15 14.25 21.2 13.7 L21.05 13.5 Q20.85 12.85 19.75 12.8 L19.3 12.9 Q18.65 13.0 18.4 13.45 18.05 14.5 19.75 14.7 L20.4 14.5 M2.95 2.75 Q2.8 2.1 2.1 2.05 L1.8 2.15 Q1.35 2.25 1.2 2.7 0.95 3.75 2.1 3.95 L2.5 3.75 Q3.05 3.5 3.05 2.95 L2.95 2.75 M0.2 5.0 L0.15 4.8 -0.65 4.3 -0.95 4.4 Q-2.0 5.05 -2.1 6.25 -1.6 7.15 -0.6 6.85 L-0.3 6.65 Q0.4 5.9 0.2 5.0 M14.55 8.3 Q14.15 7.85 13.3 7.8 L12.85 7.9 Q11.3 8.55 11.1 9.75 11.9 10.65 13.4 10.35 L13.85 10.15 Q14.9 9.4 14.6 8.5 L14.55 8.3 M17.5 5.55 L17.05 5.65 Q16.35 5.75 16.15 6.2 15.75 7.25 17.5 7.45 L18.1 7.25 Q18.95 7.0 18.95 6.45 L18.8 6.25 Q18.55 5.6 17.5 5.55 M4.55 10.2 L4.45 10.0 Q4.3 9.35 3.6 9.3 L3.3 9.4 Q2.85 9.5 2.7 9.95 2.45 11.0 3.6 11.2 L4.0 11.0 Q4.5 10.75 4.55 10.2 M6.4 7.55 L6.35 7.55 6.35 7.6 6.05 7.65 5.8 7.75 5.45 8.15 5.15 8.5 5.15 8.85 5.15 9.25 5.25 9.4 5.65 9.8 Q7.4 9.95 7.45 8.25 L7.4 8.05 Q7.05 7.5 6.4 7.55 M10.15 8.2 L9.7 9.35 10.15 8.2" fill="#d2a800" fill-rule="evenodd" stroke="none"/>
    <path d="M13.3 -13.2 Q14.15 -13.15 14.55 -12.7 L14.6 -12.5 Q14.9 -11.6 13.85 -10.85 L13.4 -10.65 Q11.9 -10.35 11.1 -11.25 11.3 -12.45 12.85 -13.1 L13.3 -13.2 M18.1 -13.75 L17.5 -13.55 Q15.75 -13.75 16.15 -14.8 16.35 -15.25 17.05 -15.35 L17.5 -15.45 Q18.55 -15.4 18.8 -14.75 L18.95 -14.55 Q18.95 -14.0 18.1 -13.75 M0.2 -9.0 Q0.4 -8.1 -0.3 -7.35 L-0.6 -7.15 Q-1.6 -6.85 -2.1 -7.75 -2.0 -8.95 -0.95 -9.6 L-0.65 -9.7 0.15 -9.2 0.2 -9.0 M2.95 -11.25 L3.05 -11.05 Q3.05 -10.5 2.5 -10.25 L2.1 -10.05 Q0.95 -10.25 1.2 -11.3 1.35 -11.75 1.8 -11.85 L2.1 -11.95 Q2.8 -11.9 2.95 -11.25 M29.55 -0.5 L29.1 -0.3 Q27.6 0.0 26.8 -0.9 27.0 -2.1 28.55 -2.75 L29.0 -2.85 Q29.85 -2.8 30.25 -2.35 L30.3 -2.15 Q30.6 -1.25 29.55 -0.5 M34.5 -4.4 L34.65 -4.2 Q34.65 -3.65 33.8 -3.4 L33.2 -3.2 Q31.45 -3.4 31.85 -4.45 32.05 -4.9 32.75 -5.0 L33.2 -5.1 Q34.25 -5.05 34.5 -4.4 M53.0 -2.35 L53.05 -2.15 Q53.35 -1.25 52.3 -0.5 L51.85 -0.3 Q50.35 0.0 49.6 -0.9 49.75 -2.1 51.3 -2.75 L51.75 -2.85 Q52.6 -2.8 53.0 -2.35 M55.5 -5.0 L55.95 -5.1 Q57.0 -5.05 57.25 -4.4 L57.4 -4.2 Q57.4 -3.65 56.55 -3.4 L55.95 -3.2 Q54.2 -3.4 54.6 -4.45 L55.5 -5.0 M17.5 5.55 Q18.55 5.6 18.8 6.25 L18.95 6.45 Q18.95 7.0 18.1 7.25 L17.5 7.45 Q15.75 7.25 16.15 6.2 16.35 5.75 17.05 5.65 L17.5 5.55 M14.55 8.3 L14.6 8.5 Q14.9 9.4 13.85 10.15 L13.4 10.35 Q11.9 10.65 11.1 9.75 11.3 8.55 12.85 7.9 L13.3 7.8 Q14.15 7.85 14.55 8.3 M0.2 5.0 Q0.4 5.9 -0.3 6.65 L-0.6 6.85 Q-1.6 7.15 -2.1 6.25 -2.0 5.05 -0.95 4.4 L-0.65 4.3 0.15 4.8 0.2 5.0 M2.95 2.75 L3.05 2.95 Q3.05 3.5 2.5 3.75 L2.1 3.95 Q0.95 3.75 1.2 2.7 1.35 2.25 1.8 2.15 L2.1 2.05 Q2.8 2.1 2.95 2.75" fill="#ffeda6" fill-rule="evenodd" stroke="none"/>
    <path d="M6.35 -6.4 L6.35 -6.45 6.4 -6.45 6.35 -6.4 M23.95 -9.9 L23.95 -9.95 24.0 -9.95 23.95 -9.9 M62.4 0.45 L62.4 0.4 62.45 0.4 62.4 0.45 M39.65 0.45 L39.65 0.4 39.7 0.4 39.65 0.45 M24.0 11.05 L23.95 11.1 23.95 11.05 24.0 11.05 M6.4 7.55 L6.35 7.6 6.35 7.55 6.4 7.55" fill="#4f79d2" fill-rule="evenodd" stroke="none"/>
    <path d="M6.4 -6.45 Q7.05 -6.5 7.4 -5.95 L7.45 -5.75 Q7.4 -4.05 5.65 -4.2 L5.25 -4.6 5.15 -4.75 5.15 -5.15 5.15 -5.5 5.45 -5.85 5.8 -6.25 6.05 -6.35 6.35 -6.4 6.4 -6.45 M3.6 -4.7 Q4.3 -4.65 4.45 -4.0 L4.55 -3.8 Q4.5 -3.25 4.0 -3.0 L3.6 -2.8 Q2.45 -3.0 2.7 -4.05 2.85 -4.5 3.3 -4.6 L3.6 -4.7 M18.4 -7.55 L19.3 -8.1 19.75 -8.2 Q20.85 -8.15 21.05 -7.5 L21.2 -7.3 Q21.15 -6.75 20.4 -6.5 L19.75 -6.3 Q18.05 -6.5 18.4 -7.55 M24.0 -9.95 Q25.0 -10.0 25.55 -9.45 L25.6 -9.25 Q25.55 -7.55 22.9 -7.7 L22.25 -8.1 22.1 -8.25 22.1 -8.65 22.1 -9.0 22.6 -9.35 23.1 -9.75 23.5 -9.85 23.95 -9.9 24.0 -9.95 M62.45 0.4 Q63.45 0.35 64.0 0.9 L64.05 1.1 Q64.0 2.8 61.35 2.65 L60.7 2.25 60.55 2.1 60.55 1.7 60.55 1.35 61.05 1.0 61.55 0.6 61.95 0.5 62.4 0.45 62.45 0.4 M59.65 3.05 Q59.6 3.6 58.85 3.85 L58.2 4.05 Q56.5 3.85 56.85 2.8 57.1 2.35 57.75 2.25 L58.2 2.15 Q59.3 2.2 59.5 2.85 L59.65 3.05 M39.7 0.4 Q40.7 0.35 41.25 0.9 L41.3 1.1 Q41.25 2.8 38.6 2.65 L37.95 2.25 37.8 2.1 37.8 1.7 37.8 1.35 38.3 1.0 38.8 0.6 39.2 0.5 39.65 0.45 39.7 0.4 M36.9 3.05 Q36.85 3.6 36.1 3.85 L35.45 4.05 Q33.75 3.85 34.1 2.8 34.35 2.35 35.0 2.25 L35.45 2.15 Q36.55 2.2 36.75 2.85 L36.9 3.05 M23.95 11.1 L24.0 11.05 Q25.0 11.0 25.55 11.55 L25.6 11.75 Q25.55 13.45 22.9 13.3 L22.25 12.9 22.1 12.75 22.1 12.35 22.1 12.0 22.6 11.65 23.1 11.25 23.5 11.15 23.95 11.1 M20.4 14.5 L19.75 14.7 Q18.05 14.5 18.4 13.45 18.65 13.0 19.3 12.9 L19.75 12.8 Q20.85 12.85 21.05 13.5 L21.2 13.7 Q21.15 14.25 20.4 14.5 M4.55 10.2 Q4.5 10.75 4.0 11.0 L3.6 11.2 Q2.45 11.0 2.7 9.95 2.85 9.5 3.3 9.4 L3.6 9.3 Q4.3 9.35 4.45 10.0 L4.55 10.2 M6.35 7.6 L6.4 7.55 Q7.05 7.5 7.4 8.05 L7.45 8.25 Q7.4 9.95 5.65 9.8 L5.25 9.4 5.15 9.25 5.15 8.85 5.15 8.5 5.45 8.15 5.8 7.75 6.05 7.65 6.35 7.6" fill="#fbc900" fill-rule="evenodd" stroke="none"/>
    <path d="M19.4 -17.0 Q23.5 -17.0 26.35 -15.1 29.25 -13.2 29.25 -10.5 29.25 -7.8 26.35 -5.9 23.5 -4.0 19.4 -4.0 15.3 -4.0 12.4 -5.9 10.8 -6.95 10.15 -8.15 L10.3 -7.0 Q10.3 -5.2 9.0 -3.75 L7.95 -2.4 Q6.05 -0.5 3.35 -0.5 0.65 -0.5 -1.25 -2.4 -3.15 -4.3 -3.15 -7.0 -3.15 -9.7 -1.25 -11.6 0.65 -13.5 3.35 -13.5 6.05 -13.5 7.95 -11.6 L9.0 -10.25 9.7 -9.3 9.55 -10.5 Q9.55 -13.2 12.4 -15.1 15.3 -17.0 19.4 -17.0 M10.15 -8.15 L9.7 -9.3 M28.1 -4.75 Q31.0 -6.65 35.1 -6.65 39.2 -6.65 42.05 -4.75 44.95 -2.85 44.95 -0.15 44.95 2.55 42.05 4.45 39.2 6.35 35.1 6.35 31.0 6.35 28.1 4.45 25.25 2.55 25.25 -0.15 25.25 -2.85 28.1 -4.75 M57.85 -6.65 Q61.95 -6.65 64.8 -4.75 67.7 -2.85 67.7 -0.15 67.7 2.55 64.8 4.45 61.95 6.35 57.85 6.35 53.75 6.35 50.85 4.45 48.0 2.55 48.0 -0.15 48.0 -2.85 50.85 -4.75 53.75 -6.65 57.85 -6.65 M29.25 10.5 Q29.25 13.2 26.35 15.1 23.5 17.0 19.4 17.0 15.3 17.0 12.4 15.1 9.55 13.2 9.55 10.5 9.55 9.9 9.7 9.35 L9.0 10.25 7.95 11.6 Q6.05 13.5 3.35 13.5 0.65 13.5 -1.25 11.6 -3.15 9.7 -3.15 7.0 -3.15 4.3 -1.25 2.4 0.65 0.5 3.35 0.5 6.05 0.5 7.95 2.4 L9.0 3.75 Q10.3 5.2 10.3 7.0 L10.15 8.2 Q10.8 6.95 12.4 5.9 15.3 4.0 19.4 4.0 23.5 4.0 26.35 5.9 29.25 7.8 29.25 10.5 M9.7 9.35 L10.15 8.2" fill="none" stroke="#ffffff" stroke-linecap="round" stroke-linejoin="round" stroke-width="1.0"/>
  </g>
</svg>
