<?xml version="1.0" encoding="UTF-8" standalone="no"?>
<svg xmlns:ffdec="https://www.free-decompiler.com/flash" xmlns:xlink="http://www.w3.org/1999/xlink" ffdec:objectType="shape" height="81.7px" width="81.65px" xmlns="http://www.w3.org/2000/svg">
  <g transform="matrix(1.0, 0.0, 0.0, 1.0, 40.8, 40.85)">
    <path d="M18.5 3.7 L18.5 3.4 18.65 3.4 18.5 3.7" fill="#4f79d2" fill-rule="evenodd" stroke="none"/>
    <path d="M28.4 -28.35 Q40.1 -16.65 40.1 0.0 40.1 16.65 28.4 28.4 16.65 40.1 0.0 40.1 -16.65 40.1 -28.35 28.4 -40.1 16.65 -40.05 0.0 -40.1 -16.65 -28.35 -28.35 -16.65 -40.1 0.0 -40.1 16.65 -40.1 28.4 -28.35 M18.5 3.7 L16.65 4.0 15.15 4.65 12.95 7.1 Q12.05 8.0 11.1 9.25 L11.1 11.4 11.1 13.9 11.75 14.8 14.2 17.25 Q24.95 18.2 25.3 7.7 L25.0 6.5 Q22.85 3.15 18.65 3.4 L18.5 3.4 18.5 3.7 M4.05 24.65 Q7.1 23.1 7.45 19.75 L6.8 18.5 Q5.85 14.5 1.55 14.2 L-0.3 14.8 Q-3.1 15.4 -4.0 18.2 -5.55 24.65 1.55 25.9 L4.05 24.65 M-24.35 -0.9 Q-23.4 -1.25 -22.5 -2.15 -18.2 -6.8 -19.4 -12.35 -19.4 -12.95 -19.7 -13.55 -21.25 -16.35 -24.65 -16.65 L-26.5 -16.05 Q-33.0 -12.05 -33.6 -4.6 -30.5 0.95 -24.35 -0.9 M-9.55 -29.9 Q-12.35 -29.3 -13.25 -26.5 -14.8 -20.05 -7.7 -18.8 L-5.2 -20.05 Q-1.85 -21.6 -1.85 -24.95 L-2.45 -26.2 Q-3.4 -30.2 -7.7 -30.5 L-9.55 -29.9" fill="#d2a800" fill-rule="evenodd" stroke="none"/>
    <path d="M18.65 3.4 Q22.85 3.15 25.0 6.5 L25.3 7.7 Q24.95 18.2 14.2 17.25 L11.75 14.8 11.1 13.9 11.1 11.4 11.1 9.25 Q12.05 8.0 12.95 7.1 L15.15 4.65 16.65 4.0 18.5 3.7 18.65 3.4 M4.05 24.65 L1.55 25.9 Q-5.55 24.65 -4.0 18.2 -3.1 15.4 -0.3 14.8 L1.55 14.2 Q5.85 14.5 6.8 18.5 L7.45 19.75 Q7.1 23.1 4.05 24.65" fill="#fbc900" fill-rule="evenodd" stroke="none"/>
    <path d="M-9.55 -29.9 L-7.7 -30.5 Q-3.4 -30.2 -2.45 -26.2 L-1.85 -24.95 Q-1.85 -21.6 -5.2 -20.05 L-7.7 -18.8 Q-14.8 -20.05 -13.25 -26.5 -12.35 -29.3 -9.55 -29.9 M-24.35 -0.9 Q-30.5 0.95 -33.6 -4.6 -33.0 -12.05 -26.5 -16.05 L-24.65 -16.65 Q-21.25 -16.35 -19.7 -13.55 -19.4 -12.95 -19.4 -12.35 -18.2 -6.8 -22.5 -2.15 -23.4 -1.25 -24.35 -0.9" fill="#ffeda6" fill-rule="evenodd" stroke="none"/>
    <path d="M28.4 -28.35 Q40.1 -16.65 40.1 0.0 40.1 16.65 28.4 28.4 16.65 40.1 0.0 40.1 -16.65 40.1 -28.35 28.4 -40.1 16.65 -40.05 0.0 -40.1 -16.65 -28.35 -28.35 -16.65 -40.1 0.0 -40.1 16.65 -40.1 28.4 -28.35 Z" fill="none" stroke="#ffffff" stroke-linecap="round" stroke-linejoin="round" stroke-width="1.5"/>
  </g>
</svg>
