<?xml version="1.0" encoding="UTF-8" standalone="no"?>
<svg xmlns:ffdec="https://www.free-decompiler.com/flash" xmlns:xlink="http://www.w3.org/1999/xlink" ffdec:objectType="shape" height="21.6px" width="37.3px" xmlns="http://www.w3.org/2000/svg">
  <g transform="matrix(1.0, 0.0, 0.0, 1.0, 8.5, 11.5)">
    <path d="M8.65 -8.85 L8.7 -9.1 8.65 -9.2 8.25 -9.6 8.1 -9.55 7.85 -9.4 7.05 -9.9 7.85 -9.4 8.65 -8.85 9.6 -8.0 10.6 -6.85 Q10.8 -7.55 11.4 -8.1 L11.9 -8.55 11.4 -8.1 Q10.8 -7.55 10.6 -6.85 L9.6 -8.0 8.65 -8.85 M7.05 -9.9 Q7.85 -10.4 8.9 -10.4 10.25 -10.4 11.25 -9.4 L11.9 -8.55 Q12.7 -9.1 13.8 -9.1 15.15 -9.1 16.15 -8.1 17.15 -7.15 17.15 -5.7 L17.95 -5.8 Q19.3 -5.8 20.3 -4.8 L20.95 -3.9 Q22.0 -4.5 23.3 -4.5 25.35 -4.5 26.85 -3.05 28.25 -1.6 28.3 0.45 28.25 2.5 26.85 4.0 25.35 5.4 23.3 5.45 21.8 5.4 20.7 4.7 L20.3 5.1 Q19.3 6.1 17.95 6.1 L17.1 6.0 Q16.9 6.95 16.15 7.7 15.15 8.7 13.8 8.7 12.6 8.7 11.75 8.0 L11.25 8.6 Q10.25 9.6 8.9 9.6 7.55 9.6 6.6 8.7 4.65 9.6 2.3 9.6 -2.0 9.6 -5.0 6.6 -8.0 3.55 -8.0 -0.7 -8.0 -5.0 -5.0 -8.0 -2.0 -11.0 2.3 -11.0 4.9 -11.0 7.05 -9.9 M1.7 -7.4 Q1.45 -8.45 0.35 -8.55 L-0.15 -8.35 Q-0.85 -8.25 -1.1 -7.5 -1.5 -5.85 0.35 -5.5 L0.95 -5.85 Q1.8 -6.25 1.85 -7.1 L1.7 -7.4 M13.35 -7.4 L13.6 -7.8 13.55 -7.9 13.15 -8.3 13.0 -8.25 12.65 -7.95 Q12.5 -7.4 13.15 -7.3 L13.35 -7.4 M11.7 -7.1 L11.55 -7.05 Q11.1 -6.8 11.0 -6.35 L11.0 -6.3 10.95 -6.1 11.3 -5.8 11.75 -5.8 11.9 -5.9 Q12.25 -6.3 12.15 -6.75 L12.1 -6.85 11.7 -7.1 M15.9 -5.15 L15.9 -5.2 15.35 -5.45 15.35 -5.4 15.2 -5.4 15.05 -5.35 14.85 -5.15 14.7 -4.95 14.7 -4.75 14.7 -4.55 14.75 -4.5 14.95 -4.25 15.1 -4.25 15.55 -4.8 15.9 -5.15 Q16.45 -5.55 17.15 -5.7 16.45 -5.55 15.9 -5.15 M13.75 -4.5 L13.45 -4.2 Q13.3 -3.65 13.9 -3.55 L14.1 -3.65 14.4 -4.05 14.35 -4.15 13.9 -4.55 13.75 -4.5 M10.6 -6.85 L10.4 -5.7 Q10.4 -4.35 11.4 -3.35 L12.45 -2.6 11.4 -3.35 Q10.4 -4.35 10.4 -5.7 L10.6 -6.85 M12.6 -0.7 Q12.6 0.9 12.2 2.35 12.9 1.95 13.8 1.95 L14.6 2.05 Q14.8 1.05 15.55 0.35 L15.75 0.15 15.55 -0.05 Q14.55 -1.05 14.55 -2.4 L14.55 -2.45 13.8 -2.35 12.45 -2.6 12.6 -0.7 M15.1 -4.25 Q14.55 -3.45 14.55 -2.45 14.55 -3.45 15.1 -4.25 M16.3 -3.45 L16.25 -3.55 15.85 -3.8 15.7 -3.75 Q15.15 -3.45 15.1 -2.8 L15.2 -2.65 Q15.45 -2.4 15.9 -2.5 L16.05 -2.6 Q16.4 -3.0 16.3 -3.45 M17.05 -4.9 L16.8 -4.65 Q16.75 -4.45 16.85 -4.3 16.9 -4.1 17.3 -4.0 L17.5 -4.1 17.75 -4.5 17.7 -4.6 17.3 -5.0 17.15 -4.95 17.05 -4.9 M18.5 -0.8 L18.5 -0.85 18.05 -1.25 17.9 -1.2 17.6 -0.9 17.55 -0.6 Q17.6 -0.35 18.05 -0.25 L18.25 -0.35 18.45 -0.45 18.5 -0.8 Q18.85 -2.1 19.8 -3.05 L20.95 -3.9 19.8 -3.05 Q18.85 -2.1 18.5 -0.8 M22.35 -3.3 L22.15 -3.25 21.7 -2.8 Q21.5 -2.05 22.35 -1.85 L22.65 -2.0 Q23.05 -2.2 23.1 -2.6 L23.0 -2.75 Q22.9 -3.3 22.35 -3.3 M20.05 -1.5 L19.45 -0.95 19.15 -0.1 Q19.4 0.3 19.8 0.4 L20.3 0.35 20.35 0.35 20.55 0.2 Q21.0 -0.3 20.95 -0.9 L20.9 -1.05 20.9 -1.2 20.25 -1.6 20.05 -1.5 M25.6 0.95 L25.4 0.95 25.2 1.05 24.9 1.35 24.7 1.6 24.7 1.9 24.7 2.2 24.75 2.3 25.1 2.6 Q26.4 2.7 26.45 1.4 L26.4 1.25 Q26.15 0.85 25.65 0.9 L25.6 0.9 25.6 0.95 M23.3 2.3 Q22.95 2.35 22.85 2.7 22.65 3.5 23.5 3.7 L23.8 3.5 Q24.2 3.3 24.25 2.9 L24.15 2.75 Q24.05 2.25 23.5 2.25 L23.3 2.3 M19.15 3.15 Q18.45 2.15 18.4 0.9 L18.35 0.45 18.45 -0.45 18.35 0.45 18.4 0.9 Q18.45 2.15 19.15 3.15 L19.0 3.3 18.85 3.5 18.85 3.7 18.85 3.9 18.9 3.95 19.1 4.2 19.85 4.0 19.8 4.0 19.15 3.15 M17.65 0.95 L17.95 0.95 18.4 0.9 17.95 0.95 17.65 0.95 16.8 0.75 17.3 1.15 17.5 1.05 17.65 0.95 M20.7 4.7 L19.85 4.0 20.7 4.7 M15.75 0.15 Q16.2 0.55 16.8 0.75 16.2 0.55 15.75 0.15 M15.85 1.35 L15.7 1.4 Q15.2 1.7 15.15 2.2 L15.1 2.35 Q15.35 2.8 15.85 2.65 L15.9 2.65 16.05 2.55 16.3 1.7 16.25 1.6 15.85 1.35 M15.9 5.85 Q15.7 5.55 15.35 5.6 L15.35 5.65 15.2 5.65 15.05 5.7 14.85 5.9 14.7 6.1 14.7 6.3 14.7 6.5 14.75 6.55 14.95 6.8 Q15.85 6.85 15.9 6.0 L15.9 5.85 M14.6 2.05 L14.55 2.75 Q14.55 4.1 15.55 5.1 16.2 5.75 17.1 6.0 16.2 5.75 15.55 5.1 14.55 4.1 14.55 2.75 L14.6 2.05 M18.5 4.3 L18.05 3.9 17.9 3.95 17.6 4.25 Q17.45 4.8 18.05 4.9 L18.25 4.8 18.55 4.4 18.5 4.3 M13.15 2.75 L13.0 2.8 12.65 3.1 Q12.5 3.65 13.15 3.75 L13.35 3.65 13.6 3.25 13.55 3.15 13.15 2.75 M10.95 4.9 L10.95 4.95 Q11.2 5.4 11.75 5.25 L11.9 5.15 12.0 5.0 12.15 4.3 12.1 4.2 11.7 3.95 11.55 4.0 11.5 4.05 10.95 4.9 10.4 5.65 10.6 6.5 10.4 5.65 10.95 4.9 M10.95 7.2 L10.6 6.5 10.45 6.5 10.45 6.55 10.3 6.55 10.15 6.6 9.95 6.8 9.8 7.0 9.8 7.2 9.8 7.4 9.85 7.45 10.05 7.7 Q10.8 7.75 10.95 7.2 L11.4 7.7 11.75 8.0 11.4 7.7 10.95 7.2 M11.55 4.0 L12.2 2.35 11.55 4.0 M14.1 7.4 L14.4 7.0 14.35 6.9 13.9 6.5 13.75 6.55 13.45 6.85 Q13.3 7.4 13.9 7.5 L14.1 7.4 M7.05 0.25 L6.6 0.35 6.2 0.5 5.65 1.15 5.15 1.7 5.15 2.25 5.15 2.9 5.3 3.1 5.95 3.75 6.6 3.75 Q7.8 3.7 8.35 2.9 8.75 2.3 8.8 1.3 L8.75 1.0 Q8.2 0.1 7.1 0.2 L7.05 0.2 7.05 0.25 M9.5 7.9 L9.45 7.8 9.0 7.4 8.85 7.45 8.55 7.75 Q8.4 8.3 9.0 8.4 L9.2 8.3 9.5 7.9 M3.35 5.65 Q4.1 5.25 4.2 4.4 L4.05 4.05 Q3.8 3.0 2.7 2.95 L2.25 3.1 Q1.5 3.25 1.3 4.0 0.9 5.65 2.7 5.95 L3.35 5.65 M6.6 8.7 Q8.2 7.95 9.6 6.6 L10.4 5.65 9.6 6.6 Q8.2 7.95 6.6 8.7 M-3.95 -0.95 L-3.45 -1.25 Q-2.35 -2.45 -2.7 -3.85 L-2.75 -4.15 Q-3.15 -4.9 -4.05 -4.95 L-4.5 -4.8 Q-6.2 -3.8 -6.3 -1.9 -5.55 -0.45 -3.95 -0.95" fill="#d2a800" fill-rule="evenodd" stroke="none"/>
    <path d="M7.85 -9.4 L8.1 -9.55 8.25 -9.6 8.65 -9.2 8.7 -9.1 8.65 -8.85 7.85 -9.4 M1.7 -7.4 L1.85 -7.1 Q1.8 -6.25 0.95 -5.85 L0.35 -5.5 Q-1.5 -5.85 -1.1 -7.5 -0.85 -8.25 -0.15 -8.35 L0.35 -8.55 Q1.45 -8.45 1.7 -7.4 M11.7 -7.1 L12.1 -6.85 12.15 -6.75 Q12.25 -6.3 11.9 -5.9 L11.75 -5.8 11.3 -5.8 10.95 -6.1 11.0 -6.3 11.0 -6.35 Q11.1 -6.8 11.55 -7.05 L11.7 -7.1 M13.35 -7.4 L13.15 -7.3 Q12.5 -7.4 12.65 -7.95 L13.0 -8.25 13.15 -8.3 13.55 -7.9 13.6 -7.8 13.35 -7.4 M17.05 -4.9 L17.15 -4.95 17.3 -5.0 17.7 -4.6 17.75 -4.5 17.5 -4.1 17.3 -4.0 Q16.9 -4.1 16.85 -4.3 16.75 -4.45 16.8 -4.65 L17.05 -4.9 M16.3 -3.45 Q16.4 -3.0 16.05 -2.6 L15.9 -2.5 Q15.45 -2.4 15.2 -2.65 L15.1 -2.8 Q15.15 -3.45 15.7 -3.75 L15.85 -3.8 16.25 -3.55 16.3 -3.45 M20.05 -1.5 L20.25 -1.6 20.9 -1.2 20.9 -1.05 20.95 -0.9 Q21.0 -0.3 20.55 0.2 L20.35 0.35 20.3 0.35 19.8 0.4 Q19.4 0.3 19.15 -0.1 L19.45 -0.95 20.05 -1.5 M22.35 -3.3 Q22.9 -3.3 23.0 -2.75 L23.1 -2.6 Q23.05 -2.2 22.65 -2.0 L22.35 -1.85 Q21.5 -2.05 21.7 -2.8 L22.15 -3.25 22.35 -3.3 M17.65 0.95 L17.5 1.05 17.3 1.15 16.8 0.75 17.65 0.95 M15.85 1.35 L16.25 1.6 16.3 1.7 16.05 2.55 15.9 2.65 15.85 2.65 Q15.35 2.8 15.1 2.35 L15.15 2.2 Q15.2 1.7 15.7 1.4 L15.85 1.35 M13.15 2.75 L13.55 3.15 13.6 3.25 13.35 3.65 13.15 3.75 Q12.5 3.65 12.65 3.1 L13.0 2.8 13.15 2.75 M11.55 4.0 L11.7 3.95 12.1 4.2 12.15 4.3 12.0 5.0 11.9 5.15 11.75 5.25 Q11.2 5.4 10.95 4.95 L10.95 4.9 11.5 4.05 11.55 4.0 M-3.95 -0.95 Q-5.55 -0.45 -6.3 -1.9 -6.2 -3.8 -4.5 -4.8 L-4.05 -4.95 Q-3.15 -4.9 -2.75 -4.15 L-2.7 -3.85 Q-2.35 -2.45 -3.45 -1.25 L-3.95 -0.95" fill="#ffeda6" fill-rule="evenodd" stroke="none"/>
    <path d="M15.1 -4.25 L14.95 -4.25 14.75 -4.5 14.7 -4.55 14.7 -4.75 14.7 -4.95 14.85 -5.15 15.05 -5.35 15.2 -5.4 15.35 -5.4 15.35 -5.45 15.9 -5.2 15.9 -5.15 15.55 -4.8 15.1 -4.25 M13.75 -4.5 L13.9 -4.55 14.35 -4.15 14.4 -4.05 14.1 -3.65 13.9 -3.55 Q13.3 -3.65 13.45 -4.2 L13.75 -4.5 M18.45 -0.45 L18.25 -0.35 18.05 -0.25 Q17.6 -0.35 17.55 -0.6 L17.6 -0.9 17.9 -1.2 18.05 -1.25 18.5 -0.85 18.5 -0.8 18.45 -0.45 M25.65 0.9 Q26.15 0.85 26.4 1.25 L26.45 1.4 Q26.4 2.7 25.1 2.6 L24.75 2.3 24.7 2.2 24.7 1.9 24.7 1.6 24.9 1.35 25.2 1.05 25.4 0.95 25.6 0.95 25.65 0.9 M23.3 2.3 L23.5 2.25 Q24.05 2.25 24.15 2.75 L24.25 2.9 Q24.2 3.3 23.8 3.5 L23.5 3.7 Q22.65 3.5 22.85 2.7 22.95 2.35 23.3 2.3 M19.15 3.15 L19.8 4.0 19.85 4.0 19.1 4.2 18.9 3.95 18.85 3.9 18.85 3.7 18.85 3.5 19.0 3.3 19.15 3.15 M15.9 5.85 L15.9 6.0 Q15.85 6.85 14.95 6.8 L14.75 6.55 14.7 6.5 14.7 6.3 14.7 6.1 14.85 5.9 15.05 5.7 15.2 5.65 15.35 5.65 15.35 5.6 Q15.7 5.55 15.9 5.85 M18.5 4.3 L18.55 4.4 18.25 4.8 18.05 4.9 Q17.45 4.8 17.6 4.25 L17.9 3.95 18.05 3.9 18.5 4.3 M10.6 6.5 L10.95 7.2 Q10.8 7.75 10.05 7.7 L9.85 7.45 9.8 7.4 9.8 7.2 9.8 7.0 9.95 6.8 10.15 6.6 10.3 6.55 10.45 6.55 10.45 6.5 10.6 6.5 M14.1 7.4 L13.9 7.5 Q13.3 7.4 13.45 6.85 L13.75 6.55 13.9 6.5 14.35 6.9 14.4 7.0 14.1 7.4 M7.1 0.2 Q8.2 0.1 8.75 1.0 L8.8 1.3 Q8.75 2.3 8.35 2.9 7.8 3.7 6.6 3.75 L5.95 3.75 5.3 3.1 5.15 2.9 5.15 2.25 5.15 1.7 5.65 1.15 6.2 0.5 6.6 0.35 7.05 0.25 7.1 0.2 M3.35 5.65 L2.7 5.95 Q0.9 5.65 1.3 4.0 1.5 3.25 2.25 3.1 L2.7 2.95 Q3.8 3.0 4.05 4.05 L4.2 4.4 Q4.1 5.25 3.35 5.65 M9.5 7.9 L9.2 8.3 9.0 8.4 Q8.4 8.3 8.55 7.75 L8.85 7.45 9.0 7.4 9.45 7.8 9.5 7.9" fill="#fbc900" fill-rule="evenodd" stroke="none"/>
    <path d="M25.65 0.9 L25.6 0.95 25.6 0.9 25.65 0.9 M7.05 0.25 L7.05 0.2 7.1 0.2 7.05 0.25" fill="#4f79d2" fill-rule="evenodd" stroke="none"/>
    <path d="M8.65 -8.85 L9.6 -8.0 10.6 -6.85 Q10.8 -7.55 11.4 -8.1 L11.9 -8.55 11.25 -9.4 Q10.25 -10.4 8.9 -10.4 7.85 -10.4 7.05 -9.9 L7.85 -9.4 8.65 -8.85 M11.9 -8.55 Q12.7 -9.1 13.8 -9.1 15.15 -9.1 16.15 -8.1 17.15 -7.15 17.15 -5.7 L17.95 -5.8 Q19.3 -5.8 20.3 -4.8 L20.95 -3.9 Q22.0 -4.5 23.3 -4.5 25.35 -4.5 26.85 -3.05 28.25 -1.6 28.3 0.45 28.25 2.5 26.85 4.0 25.35 5.4 23.3 5.45 21.8 5.4 20.7 4.7 L20.3 5.1 Q19.3 6.1 17.95 6.1 L17.1 6.0 Q16.9 6.95 16.15 7.7 15.15 8.7 13.8 8.7 12.6 8.7 11.75 8.0 L11.25 8.6 Q10.25 9.6 8.9 9.6 7.55 9.6 6.6 8.7 4.65 9.6 2.3 9.6 -2.0 9.6 -5.0 6.6 -8.0 3.55 -8.0 -0.7 -8.0 -5.0 -5.0 -8.0 -2.0 -11.0 2.3 -11.0 4.9 -11.0 7.05 -9.9 M15.1 -4.25 L15.55 -4.8 15.9 -5.15 Q16.45 -5.55 17.15 -5.7 M12.45 -2.6 L11.4 -3.35 Q10.4 -4.35 10.4 -5.7 L10.6 -6.85 M12.6 -0.7 Q12.6 0.9 12.2 2.35 12.9 1.95 13.8 1.95 L14.6 2.05 Q14.8 1.05 15.55 0.35 L15.75 0.15 15.55 -0.05 Q14.55 -1.05 14.55 -2.4 L14.55 -2.45 13.8 -2.35 12.45 -2.6 12.6 -0.7 M14.55 -2.45 Q14.55 -3.45 15.1 -4.25 M18.45 -0.45 L18.5 -0.8 Q18.85 -2.1 19.8 -3.05 L20.95 -3.9 M18.45 -0.45 L18.35 0.45 18.4 0.9 Q18.45 2.15 19.15 3.15 L19.8 4.0 19.85 4.0 20.7 4.7 M18.4 0.9 L17.95 0.95 17.65 0.95 16.8 0.75 Q16.2 0.55 15.75 0.15 M17.1 6.0 Q16.2 5.75 15.55 5.1 14.55 4.1 14.55 2.75 L14.6 2.05 M11.55 4.0 L11.5 4.05 10.95 4.9 10.4 5.65 10.6 6.5 10.95 7.2 11.4 7.7 11.75 8.0 M12.2 2.35 L11.55 4.0 M10.4 5.65 L9.6 6.6 Q8.2 7.95 6.6 8.7" fill="none" stroke="#ffffff" stroke-linecap="round" stroke-linejoin="round" stroke-width="1.0"/>
  </g>
</svg>
