<?xml version="1.0" encoding="UTF-8" standalone="no"?>
<svg xmlns:ffdec="https://www.free-decompiler.com/flash" xmlns:xlink="http://www.w3.org/1999/xlink" ffdec:objectType="shape" height="21.6px" width="37.3px" xmlns="http://www.w3.org/2000/svg">
  <g transform="matrix(1.0, 0.0, 0.0, 1.0, 1.5, 11.5)">
    <path d="M3.05 -0.95 L3.55 -1.25 Q4.65 -2.45 4.3 -3.85 L4.25 -4.15 Q3.85 -4.9 2.95 -4.95 L2.5 -4.8 Q0.8 -3.8 0.7 -1.9 1.45 -0.45 3.05 -0.95 M7.35 -8.55 L6.85 -8.35 Q6.15 -8.25 5.9 -7.5 5.5 -5.85 7.35 -5.5 L7.95 -5.85 Q8.8 -6.25 8.85 -7.1 L8.7 -7.4 Q8.45 -8.45 7.35 -8.55 M9.3 -11.0 Q11.9 -11.0 14.05 -9.9 14.85 -10.4 15.9 -10.4 17.25 -10.4 18.25 -9.4 L18.9 -8.55 Q19.7 -9.1 20.8 -9.1 22.15 -9.1 23.15 -8.1 24.15 -7.15 24.15 -5.7 L24.95 -5.8 Q26.3 -5.8 27.3 -4.8 L27.95 -3.9 Q29.0 -4.5 30.3 -4.5 32.35 -4.5 33.85 -3.05 35.25 -1.6 35.3 0.45 35.25 2.5 33.85 4.0 32.35 5.4 30.3 5.45 28.8 5.4 27.65 4.7 L27.3 5.1 Q26.3 6.1 24.95 6.1 L24.1 6.0 Q23.9 6.95 23.15 7.7 22.15 8.7 20.8 8.7 19.6 8.7 18.75 8.0 L18.25 8.6 Q17.25 9.6 15.9 9.6 14.55 9.6 13.6 8.7 11.65 9.6 9.3 9.6 5.0 9.6 2.0 6.6 -1.0 3.55 -1.0 -0.7 -1.0 -5.0 2.0 -8.0 5.0 -11.0 9.3 -11.0 M15.65 -8.85 L15.7 -9.1 15.65 -9.2 15.25 -9.6 15.1 -9.55 14.85 -9.4 15.65 -8.85 16.6 -8.0 17.6 -6.85 Q17.8 -7.55 18.4 -8.1 L18.9 -8.55 18.4 -8.1 Q17.8 -7.55 17.6 -6.85 L16.6 -8.0 15.65 -8.85 M18.55 -7.05 Q18.1 -6.8 18.0 -6.35 L18.0 -6.3 17.95 -6.1 Q18.1 -5.9 18.3 -5.8 L18.75 -5.8 18.9 -5.9 Q19.25 -6.3 19.15 -6.75 L19.1 -6.85 18.7 -7.1 18.55 -7.05 M20.15 -8.3 L20.0 -8.25 19.65 -7.95 Q19.5 -7.4 20.15 -7.3 L20.35 -7.4 20.6 -7.8 20.55 -7.9 20.15 -8.3 M17.6 -6.85 L17.4 -5.7 Q17.4 -4.35 18.4 -3.35 L19.45 -2.6 18.4 -3.35 Q17.4 -4.35 17.4 -5.7 L17.6 -6.85 M14.85 -9.4 L14.05 -9.9 14.85 -9.4 M21.55 -2.45 L20.8 -2.35 19.45 -2.6 19.6 -0.7 Q19.6 0.9 19.2 2.35 19.9 1.95 20.8 1.95 L21.6 2.05 21.55 2.75 Q21.55 4.1 22.55 5.1 23.2 5.75 24.1 6.0 23.2 5.75 22.55 5.1 21.55 4.1 21.55 2.75 L21.6 2.05 Q21.8 1.05 22.55 0.35 L22.75 0.15 22.55 -0.05 Q21.55 -1.05 21.55 -2.4 L21.55 -2.45 Q21.55 -3.45 22.1 -4.25 21.55 -3.45 21.55 -2.45 M22.9 -5.15 L22.9 -5.2 Q22.7 -5.5 22.35 -5.45 L22.35 -5.4 22.2 -5.4 22.05 -5.35 21.85 -5.15 21.7 -4.95 21.7 -4.75 21.7 -4.55 21.75 -4.5 21.95 -4.25 22.1 -4.25 22.55 -4.8 22.9 -5.15 Q23.45 -5.55 24.15 -5.7 23.45 -5.55 22.9 -5.15 M23.3 -3.45 L23.25 -3.55 22.85 -3.8 22.7 -3.75 Q22.15 -3.45 22.1 -2.8 L22.2 -2.65 Q22.45 -2.4 22.9 -2.5 L23.05 -2.6 Q23.4 -3.0 23.3 -3.45 M24.15 -4.95 L24.05 -4.9 23.8 -4.65 Q23.75 -4.45 23.85 -4.3 L24.3 -4.0 24.5 -4.1 24.75 -4.5 24.7 -4.6 24.3 -5.0 24.15 -4.95 M21.35 -4.15 L20.9 -4.55 20.75 -4.5 20.45 -4.2 Q20.3 -3.65 20.9 -3.55 L21.1 -3.65 21.4 -4.05 21.35 -4.15 M23.8 0.75 Q23.2 0.55 22.75 0.15 23.2 0.55 23.8 0.75 L24.3 1.15 24.5 1.05 24.65 0.95 23.8 0.75 M25.45 -0.45 L25.35 0.45 25.4 0.9 24.95 0.95 24.65 0.95 24.95 0.95 25.4 0.9 25.35 0.45 25.45 -0.45 25.5 -0.8 25.5 -0.85 25.05 -1.25 24.9 -1.2 24.6 -0.9 24.55 -0.6 Q24.6 -0.35 25.05 -0.25 L25.25 -0.35 25.45 -0.45 M27.95 -3.9 L26.8 -3.05 Q25.85 -2.1 25.5 -0.8 25.85 -2.1 26.8 -3.05 L27.95 -3.9 M26.45 -0.95 L26.15 -0.1 Q26.4 0.3 26.8 0.4 L27.3 0.35 27.35 0.35 27.55 0.2 Q28.0 -0.3 27.95 -0.9 L27.9 -1.05 27.9 -1.2 Q27.7 -1.55 27.25 -1.6 L27.05 -1.5 Q26.9 -1.05 26.45 -0.95 M29.35 -3.3 L29.15 -3.25 28.7 -2.8 Q28.5 -2.05 29.35 -1.85 L29.65 -2.0 30.1 -2.6 30.0 -2.75 Q29.9 -3.3 29.35 -3.3 M32.6 0.95 L32.4 0.95 32.2 1.05 31.9 1.35 31.7 1.6 31.7 1.9 31.7 2.2 31.75 2.3 32.1 2.6 Q33.4 2.7 33.45 1.4 L33.4 1.25 Q33.15 0.85 32.65 0.9 L32.6 0.9 32.6 0.95 M31.15 2.75 Q31.05 2.25 30.5 2.25 L30.3 2.3 Q29.95 2.35 29.85 2.7 29.65 3.5 30.5 3.7 L30.8 3.5 Q31.2 3.3 31.25 2.9 L31.15 2.75 M26.85 4.0 L26.8 4.0 26.15 3.15 26.0 3.3 25.85 3.5 25.85 3.7 25.85 3.9 25.9 3.95 26.1 4.2 26.85 4.0 27.65 4.7 26.85 4.0 M25.55 4.4 L25.5 4.3 Q25.4 3.95 25.05 3.9 L24.9 3.95 24.6 4.25 Q24.45 4.8 25.05 4.9 L25.25 4.8 25.55 4.4 M25.4 0.9 Q25.45 2.15 26.15 3.15 25.45 2.15 25.4 0.9 M22.85 2.65 L22.9 2.65 23.05 2.55 23.3 1.7 23.25 1.6 22.85 1.35 22.7 1.4 Q22.2 1.7 22.15 2.2 L22.1 2.35 Q22.35 2.8 22.85 2.65 M18.55 4.0 L19.2 2.35 18.55 4.0 18.5 4.05 17.95 4.9 17.95 4.95 Q18.2 5.4 18.75 5.25 L18.9 5.15 19.0 5.0 19.15 4.3 19.1 4.2 18.7 3.95 18.55 4.0 M17.6 6.5 L17.4 5.65 17.95 4.9 17.4 5.65 17.6 6.5 17.45 6.5 17.45 6.55 17.3 6.55 17.15 6.6 16.95 6.8 16.8 7.0 16.8 7.2 16.8 7.4 16.85 7.45 17.05 7.7 Q17.8 7.75 17.95 7.2 L17.6 6.5 M18.75 8.0 L18.4 7.7 17.95 7.2 18.4 7.7 18.75 8.0 M20.35 3.65 L20.6 3.25 20.55 3.15 20.15 2.75 20.0 2.8 19.65 3.1 Q19.5 3.65 20.15 3.75 L20.35 3.65 M14.05 0.25 L13.6 0.35 13.2 0.5 12.65 1.15 12.15 1.7 12.15 2.25 12.15 2.9 12.3 3.1 12.95 3.75 13.6 3.75 Q14.8 3.7 15.35 2.9 15.75 2.3 15.8 1.3 L15.75 1.0 Q15.2 0.1 14.1 0.2 L14.05 0.2 14.05 0.25 M20.45 6.85 Q20.3 7.4 20.9 7.5 L21.1 7.4 21.4 7.0 21.35 6.9 20.9 6.5 20.75 6.55 20.45 6.85 M21.85 5.9 L21.7 6.1 21.7 6.3 21.7 6.5 21.75 6.55 21.95 6.8 Q22.85 6.85 22.9 6.0 L22.9 5.85 Q22.7 5.55 22.35 5.6 L22.35 5.65 22.2 5.65 22.05 5.7 21.85 5.9 M16.0 7.4 L15.85 7.45 15.55 7.75 Q15.4 8.3 16.0 8.4 L16.2 8.3 16.5 7.9 16.45 7.8 Q16.35 7.45 16.0 7.4 M11.2 4.4 L11.05 4.05 Q10.8 3.0 9.7 2.95 L9.25 3.1 Q8.5 3.25 8.3 4.0 7.9 5.65 9.7 5.95 L10.35 5.65 Q11.1 5.25 11.2 4.4 M17.4 5.65 L16.6 6.6 Q15.2 7.95 13.6 8.7 15.2 7.95 16.6 6.6 L17.4 5.65" fill="#d2a800" fill-rule="evenodd" stroke="none"/>
    <path d="M7.35 -8.55 Q8.45 -8.45 8.7 -7.4 L8.85 -7.1 Q8.8 -6.25 7.95 -5.85 L7.35 -5.5 Q5.5 -5.85 5.9 -7.5 6.15 -8.25 6.85 -8.35 L7.35 -8.55 M3.05 -0.95 Q1.45 -0.45 0.7 -1.9 0.8 -3.8 2.5 -4.8 L2.95 -4.95 Q3.85 -4.9 4.25 -4.15 L4.3 -3.85 Q4.65 -2.45 3.55 -1.25 L3.05 -0.95 M14.85 -9.4 L15.1 -9.55 15.25 -9.6 15.65 -9.2 15.7 -9.1 15.65 -8.85 14.85 -9.4 M20.15 -8.3 L20.55 -7.9 20.6 -7.8 20.35 -7.4 20.15 -7.3 Q19.5 -7.4 19.65 -7.95 L20.0 -8.25 20.15 -8.3 M18.55 -7.05 L18.7 -7.1 19.1 -6.85 19.15 -6.75 Q19.25 -6.3 18.9 -5.9 L18.75 -5.8 18.3 -5.8 Q18.1 -5.9 17.95 -6.1 L18.0 -6.3 18.0 -6.35 Q18.1 -6.8 18.55 -7.05 M24.15 -4.95 L24.3 -5.0 24.7 -4.6 24.75 -4.5 24.5 -4.1 24.3 -4.0 23.85 -4.3 Q23.75 -4.45 23.8 -4.65 L24.05 -4.9 24.15 -4.95 M23.3 -3.45 Q23.4 -3.0 23.05 -2.6 L22.9 -2.5 Q22.45 -2.4 22.2 -2.65 L22.1 -2.8 Q22.15 -3.45 22.7 -3.75 L22.85 -3.8 23.25 -3.55 23.3 -3.45 M23.8 0.75 L24.65 0.95 24.5 1.05 24.3 1.15 23.8 0.75 M29.35 -3.3 Q29.9 -3.3 30.0 -2.75 L30.1 -2.6 29.65 -2.0 29.35 -1.85 Q28.5 -2.05 28.7 -2.8 L29.15 -3.25 29.35 -3.3 M26.45 -0.95 Q26.9 -1.05 27.05 -1.5 L27.25 -1.6 Q27.7 -1.55 27.9 -1.2 L27.9 -1.05 27.95 -0.9 Q28.0 -0.3 27.55 0.2 L27.35 0.35 27.3 0.35 26.8 0.4 Q26.4 0.3 26.15 -0.1 L26.45 -0.95 M22.85 2.65 Q22.35 2.8 22.1 2.35 L22.15 2.2 Q22.2 1.7 22.7 1.4 L22.85 1.35 23.25 1.6 23.3 1.7 23.05 2.55 22.9 2.65 22.85 2.65 M18.55 4.0 L18.7 3.95 19.1 4.2 19.15 4.3 19.0 5.0 18.9 5.15 18.75 5.25 Q18.2 5.4 17.95 4.95 L17.95 4.9 18.5 4.05 18.55 4.0 M20.35 3.65 L20.15 3.75 Q19.5 3.65 19.65 3.1 L20.0 2.8 20.15 2.75 20.55 3.15 20.6 3.25 20.35 3.65" fill="#ffeda6" fill-rule="evenodd" stroke="none"/>
    <path d="M22.1 -4.25 L21.95 -4.25 21.75 -4.5 21.7 -4.55 21.7 -4.75 21.7 -4.95 21.85 -5.15 22.05 -5.35 22.2 -5.4 22.35 -5.4 22.35 -5.45 Q22.7 -5.5 22.9 -5.2 L22.9 -5.15 22.55 -4.8 22.1 -4.25 M21.35 -4.15 L21.4 -4.05 21.1 -3.65 20.9 -3.55 Q20.3 -3.65 20.45 -4.2 L20.75 -4.5 20.9 -4.55 21.35 -4.15 M25.45 -0.45 L25.25 -0.35 25.05 -0.25 Q24.6 -0.35 24.55 -0.6 L24.6 -0.9 24.9 -1.2 25.05 -1.25 25.5 -0.85 25.5 -0.8 25.45 -0.45 M32.65 0.9 Q33.15 0.85 33.4 1.25 L33.45 1.4 Q33.4 2.7 32.1 2.6 L31.75 2.3 31.7 2.2 31.7 1.9 31.7 1.6 31.9 1.35 32.2 1.05 32.4 0.95 32.6 0.95 32.65 0.9 M31.15 2.75 L31.25 2.9 Q31.2 3.3 30.8 3.5 L30.5 3.7 Q29.65 3.5 29.85 2.7 29.95 2.35 30.3 2.3 L30.5 2.25 Q31.05 2.25 31.15 2.75 M26.15 3.15 L26.8 4.0 26.85 4.0 26.1 4.2 25.9 3.95 25.85 3.9 25.85 3.7 25.85 3.5 26.0 3.3 26.15 3.15 M25.55 4.4 L25.25 4.8 25.05 4.9 Q24.45 4.8 24.6 4.25 L24.9 3.95 25.05 3.9 Q25.4 3.95 25.5 4.3 L25.55 4.4 M17.6 6.5 L17.95 7.2 Q17.8 7.75 17.05 7.7 L16.85 7.45 16.8 7.4 16.8 7.2 16.8 7.0 16.95 6.8 17.15 6.6 17.3 6.55 17.45 6.55 17.45 6.5 17.6 6.5 M21.85 5.9 L22.05 5.7 22.2 5.65 22.35 5.65 22.35 5.6 Q22.7 5.55 22.9 5.85 L22.9 6.0 Q22.85 6.85 21.95 6.8 L21.75 6.55 21.7 6.5 21.7 6.3 21.7 6.1 21.85 5.9 M20.45 6.85 L20.75 6.55 20.9 6.5 21.35 6.9 21.4 7.0 21.1 7.4 20.9 7.5 Q20.3 7.4 20.45 6.85 M14.1 0.2 Q15.2 0.1 15.75 1.0 L15.8 1.3 Q15.75 2.3 15.35 2.9 14.8 3.7 13.6 3.75 L12.95 3.75 12.3 3.1 12.15 2.9 12.15 2.25 12.15 1.7 12.65 1.15 13.2 0.5 13.6 0.35 14.05 0.25 14.1 0.2 M11.2 4.4 Q11.1 5.25 10.35 5.65 L9.7 5.95 Q7.9 5.65 8.3 4.0 8.5 3.25 9.25 3.1 L9.7 2.95 Q10.8 3.0 11.05 4.05 L11.2 4.4 M16.0 7.4 Q16.35 7.45 16.45 7.8 L16.5 7.9 16.2 8.3 16.0 8.4 Q15.4 8.3 15.55 7.75 L15.85 7.45 16.0 7.4" fill="#fbc900" fill-rule="evenodd" stroke="none"/>
    <path d="M32.65 0.9 L32.6 0.95 32.6 0.9 32.65 0.9 M14.05 0.25 L14.05 0.2 14.1 0.2 14.05 0.25" fill="#4f79d2" fill-rule="evenodd" stroke="none"/>
    <path d="M9.3 -11.0 Q11.9 -11.0 14.05 -9.9 14.85 -10.4 15.9 -10.4 17.25 -10.4 18.25 -9.4 L18.9 -8.55 Q19.7 -9.1 20.8 -9.1 22.15 -9.1 23.15 -8.1 24.15 -7.15 24.15 -5.7 L24.95 -5.8 Q26.3 -5.8 27.3 -4.8 L27.95 -3.9 Q29.0 -4.5 30.3 -4.5 32.35 -4.5 33.85 -3.05 35.25 -1.6 35.3 0.45 35.25 2.5 33.85 4.0 32.35 5.4 30.3 5.45 28.8 5.4 27.65 4.7 L27.3 5.1 Q26.3 6.1 24.95 6.1 L24.1 6.0 Q23.9 6.95 23.15 7.7 22.15 8.7 20.8 8.7 19.6 8.7 18.75 8.0 L18.25 8.6 Q17.25 9.6 15.9 9.6 14.55 9.6 13.6 8.7 11.65 9.6 9.3 9.6 5.0 9.6 2.0 6.6 -1.0 3.55 -1.0 -0.7 -1.0 -5.0 2.0 -8.0 5.0 -11.0 9.3 -11.0 M14.85 -9.4 L15.65 -8.85 16.6 -8.0 17.6 -6.85 Q17.8 -7.55 18.4 -8.1 L18.9 -8.55 M14.05 -9.9 L14.85 -9.4 M19.45 -2.6 L18.4 -3.35 Q17.4 -4.35 17.4 -5.7 L17.6 -6.85 M19.2 2.35 Q19.6 0.9 19.6 -0.7 L19.45 -2.6 20.8 -2.35 21.55 -2.45 Q21.55 -3.45 22.1 -4.25 L22.55 -4.8 22.9 -5.15 Q23.45 -5.55 24.15 -5.7 M21.55 -2.45 L21.55 -2.4 Q21.55 -1.05 22.55 -0.05 L22.75 0.15 Q23.2 0.55 23.8 0.75 L24.65 0.95 24.95 0.95 25.4 0.9 25.35 0.45 25.45 -0.45 25.5 -0.8 Q25.85 -2.1 26.8 -3.05 L27.95 -3.9 M26.85 4.0 L26.8 4.0 26.15 3.15 Q25.45 2.15 25.4 0.9 M26.85 4.0 L27.65 4.7 M24.1 6.0 Q23.2 5.75 22.55 5.1 21.55 4.1 21.55 2.75 L21.6 2.05 20.8 1.95 Q19.9 1.95 19.2 2.35 L18.55 4.0 18.5 4.05 17.95 4.9 17.4 5.65 17.6 6.5 17.95 7.2 18.4 7.7 18.75 8.0 M22.75 0.15 L22.55 0.35 Q21.8 1.05 21.6 2.05 M13.6 8.7 Q15.2 7.95 16.6 6.6 L17.4 5.65" fill="none" stroke="#ffffff" stroke-linecap="round" stroke-linejoin="round" stroke-width="1.0"/>
  </g>
</svg>
