<?xml version="1.0" encoding="UTF-8" standalone="no"?>
<svg xmlns:ffdec="https://www.free-decompiler.com/flash" xmlns:xlink="http://www.w3.org/1999/xlink" ffdec:objectType="shape" height="8.25px" width="8.25px" xmlns="http://www.w3.org/2000/svg">
  <g transform="matrix(1.0, 0.0, 0.0, 1.0, 4.1, 4.1)">
    <path d="M2.9 -2.8 Q4.05 -1.65 4.05 0.05 4.05 1.7 2.9 2.9 1.7 4.05 0.05 4.05 -1.65 4.05 -2.8 2.9 -4.0 1.7 -4.0 0.05 -4.0 -1.65 -2.8 -2.8 -1.65 -4.0 0.05 -4.0 1.7 -4.0 2.9 -2.8 M2.55 0.7 L1.9 0.4 1.7 0.45 1.55 0.5 1.35 0.75 1.15 1.0 1.15 1.2 1.15 1.45 1.2 1.5 1.45 1.8 Q2.55 1.85 2.6 0.8 L2.55 0.7 M0.2 1.45 L0.0 1.5 -0.35 1.85 Q-0.55 2.5 0.2 2.65 L0.45 2.5 0.8 2.0 0.7 1.9 Q0.6 1.5 0.2 1.45 M-0.15 -2.45 L-0.2 -2.6 Q-0.3 -3.0 -0.75 -3.05 L-0.9 -2.95 -1.3 -2.65 Q-1.45 -2.0 -0.75 -1.85 L-0.5 -1.95 Q-0.15 -2.15 -0.15 -2.45 M-2.65 -1.55 Q-3.3 -1.15 -3.35 -0.4 -3.05 0.1 -2.4 -0.05 L-2.25 -0.2 Q-1.8 -0.65 -1.9 -1.2 L-1.95 -1.3 -2.45 -1.65 -2.65 -1.55" fill="#ff6699" fill-rule="evenodd" stroke="none"/>
    <path d="M-2.65 -1.55 L-2.45 -1.65 -1.95 -1.3 -1.9 -1.2 Q-1.8 -0.65 -2.25 -0.2 L-2.4 -0.05 Q-3.05 0.1 -3.35 -0.4 -3.3 -1.15 -2.65 -1.55 M-0.15 -2.45 Q-0.15 -2.15 -0.5 -1.95 L-0.75 -1.85 Q-1.45 -2.0 -1.3 -2.65 L-0.9 -2.95 -0.75 -3.05 Q-0.3 -3.0 -0.2 -2.6 L-0.15 -2.45" fill="#dda2b4" fill-rule="evenodd" stroke="none"/>
    <path d="M2.55 0.7 L2.6 0.8 Q2.55 1.85 1.45 1.8 L1.2 1.5 1.15 1.45 1.15 1.2 1.15 1.0 1.35 0.75 1.55 0.5 1.7 0.45 1.9 0.4 2.55 0.7 M0.2 1.45 Q0.6 1.5 0.7 1.9 L0.8 2.0 0.45 2.5 0.2 2.65 Q-0.55 2.5 -0.35 1.85 L0.0 1.5 0.2 1.45" fill="#9c3857" fill-rule="evenodd" stroke="none"/>
    <path d="M2.9 -2.8 Q4.05 -1.65 4.05 0.05 4.05 1.7 2.9 2.9 1.7 4.05 0.05 4.05 -1.65 4.05 -2.8 2.9 -4.0 1.7 -4.0 0.05 -4.0 -1.65 -2.8 -2.8 -1.65 -4.0 0.05 -4.0 1.7 -4.0 2.9 -2.8 Z" ffdec:has-small-stroke="true" ffdec:original-stroke-width="0.25" fill="none" stroke="#ffffff" stroke-linecap="round" stroke-linejoin="round" stroke-width="1.0"/>
  </g>
</svg>
