<?xml version="1.0" encoding="UTF-8" standalone="no"?>
<svg xmlns:ffdec="https://www.free-decompiler.com/flash" xmlns:xlink="http://www.w3.org/1999/xlink" ffdec:objectType="shape" height="20.3px" width="20.3px" xmlns="http://www.w3.org/2000/svg">
  <g transform="matrix(1.0, 0.0, 0.0, 1.0, 1.15, 1.2)">
    <path d="M14.4 18.0 L3.6 18.0 Q0.0 18.0 0.0 14.4 L0.0 3.6 Q0.0 0.0 3.6 0.0 L14.4 0.0 Q18.0 0.0 18.0 3.6 L18.0 14.4 Q18.0 18.0 14.4 18.0" fill="#000000" fill-opacity="0.09803922" fill-rule="evenodd" stroke="none"/>
    <path d="M11.15 10.55 L11.05 15.1 8.25 11.5 3.9 12.8 6.5 9.05 3.9 5.25 8.25 6.55 11.05 2.95 11.15 7.5 15.5 9.05 11.15 10.55" fill="#ff6600" fill-rule="evenodd" stroke="none"/>
    <path d="M8.25 11.2 L3.9 12.55 6.5 8.8 3.9 5.0 8.25 6.3 11.05 2.7 11.15 7.25 15.5 8.8 11.15 10.25 11.05 14.85 8.25 11.2" fill="url(#gradient0)" fill-rule="evenodd" stroke="none"/>
    <path d="M14.95 2.0 L15.45 2.45 Q18.15 5.15 18.15 8.95 18.15 12.75 15.45 15.4 12.8 18.1 9.0 18.1 5.4 18.1 2.85 15.75 L2.5 15.4 Q-0.15 12.75 -0.15 8.95 -0.15 5.15 2.5 2.45 5.2 -0.2 9.0 -0.2 12.4 -0.2 14.95 2.0 L2.85 15.75" fill="none" stroke="#990000" stroke-linecap="round" stroke-linejoin="round" stroke-width="2.0"/>
  </g>
  <defs>
    <linearGradient gradientTransform="matrix(0.0071, 0.0, 0.0, 0.0074, 9.7, 8.75)" gradientUnits="userSpaceOnUse" id="gradient0" spreadMethod="pad" x1="-819.2" x2="819.2">
      <stop offset="0.0" stop-color="#ffcc00"/>
      <stop offset="1.0" stop-color="#ffff00"/>
    </linearGradient>
  </defs>
</svg>
