<?xml version="1.0" encoding="UTF-8" standalone="no"?>
<svg xmlns:ffdec="https://www.free-decompiler.com/flash" xmlns:xlink="http://www.w3.org/1999/xlink" ffdec:objectType="shape" height="23.35px" width="21.75px" xmlns="http://www.w3.org/2000/svg">
  <g transform="matrix(1.0, 0.0, 0.0, 1.0, 0.7, 2.7)">
    <path d="M14.4 18.0 L3.6 18.0 Q0.0 18.0 0.0 14.4 L0.0 3.6 Q0.0 0.0 3.6 0.0 L14.4 0.0 Q18.0 0.0 18.0 3.6 L18.0 14.4 Q18.0 18.0 14.4 18.0" fill="#ffffff" fill-opacity="0.09803922" fill-rule="evenodd" stroke="none"/>
    <path d="M12.95 12.05 L12.75 20.65 7.5 13.85 -0.7 16.3 4.15 9.25 -0.7 2.15 7.5 4.55 12.75 -2.2 12.95 6.35 21.05 9.25 12.95 12.05" fill="#ff6600" fill-rule="evenodd" stroke="none"/>
    <path d="M7.5 13.3 L-0.7 15.8 4.15 8.75 -0.7 1.6 7.5 4.05 12.75 -2.7 12.95 5.85 21.05 8.75 12.95 11.5 12.75 20.1 7.5 13.3" fill="url(#gradient0)" fill-rule="evenodd" stroke="none"/>
  </g>
  <defs>
    <linearGradient gradientTransform="matrix(0.0133, 0.0, 0.0, 0.0139, 10.15, 8.7)" gradientUnits="userSpaceOnUse" id="gradient0" spreadMethod="pad" x1="-819.2" x2="819.2">
      <stop offset="0.0" stop-color="#ffcc00"/>
      <stop offset="1.0" stop-color="#ffff00"/>
    </linearGradient>
  </defs>
</svg>
