<?xml version="1.0" encoding="UTF-8" standalone="no"?>
<svg xmlns:ffdec="https://www.free-decompiler.com/flash" xmlns:xlink="http://www.w3.org/1999/xlink" ffdec:objectType="shape" height="12.25px" width="12.25px" xmlns="http://www.w3.org/2000/svg">
  <g transform="matrix(1.0, 0.0, 0.0, 1.0, 18.5, -1.25)">
    <path d="M-6.75 1.8 L-6.75 13.0 -6.9 13.0 -17.9 13.0 -18.0 13.0 -18.0 1.9 -18.0 1.75 -6.75 1.75 -6.75 1.8 -12.4 7.5 -6.9 13.0 -12.4 7.5 -6.75 1.8 M-17.9 13.0 L-12.4 7.5 -18.0 1.9 -12.4 7.5 -17.9 13.0" fill="#ffffff" fill-opacity="0.6" fill-rule="evenodd" stroke="none"/>
    <path d="M-6.75 1.8 L-6.75 13.0 -6.9 13.0 -17.9 13.0 -18.0 13.0 -18.0 1.9 -18.0 1.75 -6.75 1.75 -6.75 1.8 -12.4 7.5 -6.9 13.0 M-18.0 1.9 L-12.4 7.5 -17.9 13.0" fill="none" stroke="#ffffff" stroke-linecap="round" stroke-linejoin="round" stroke-width="1.0"/>
  </g>
</svg>
