<?xml version="1.0" encoding="UTF-8" standalone="no"?>
<svg xmlns:ffdec="https://www.free-decompiler.com/flash" xmlns:xlink="http://www.w3.org/1999/xlink" ffdec:objectType="shape" height="271.05px" width="153.05px" xmlns="http://www.w3.org/2000/svg">
  <g transform="matrix(1.0, 0.0, 0.0, 1.0, 0.0, 0.0)">
    <path d="M147.5 81.0 L129.5 81.0 129.5 266.05 147.5 266.05 147.5 81.0 M148.0 76.05 L148.0 5.0 4.0 5.0 4.0 76.05 148.0 76.05 M126.0 81.0 L4.0 81.0 4.0 266.05 126.0 266.05 126.0 81.0 M153.05 0.0 L153.05 271.05 0.0 271.05 0.0 0.0 153.05 0.0" fill="#ffffff" fill-opacity="0.29803923" fill-rule="evenodd" stroke="none"/>
    <path d="M148.0 76.05 L4.0 76.05 4.0 5.0 148.0 5.0 148.0 76.05" fill="#000000" fill-opacity="0.2" fill-rule="evenodd" stroke="none"/>
    <path d="M147.5 81.0 L147.5 266.05 129.5 266.05 129.5 81.0 147.5 81.0 M126.0 81.0 L126.0 266.05 4.0 266.05 4.0 81.0 126.0 81.0" fill="#ffffff" fill-opacity="0.101960786" fill-rule="evenodd" stroke="none"/>
    <path d="M148.0 76.05 L4.0 76.05 4.0 5.0 148.0 5.0 148.0 76.05" fill="none" stroke="#ffffff" stroke-linecap="round" stroke-linejoin="round" stroke-width="1.0"/>
    <path d="M147.5 81.0 L147.5 266.05 129.5 266.05 129.5 81.0 147.5 81.0 M126.0 81.0 L126.0 266.05 4.0 266.05 4.0 81.0 126.0 81.0 Z" fill="none" stroke="#888888" stroke-linecap="round" stroke-linejoin="round" stroke-width="1.0"/>
  </g>
</svg>
