<?xml version="1.0" encoding="UTF-8" standalone="no"?>
<svg xmlns:ffdec="https://www.free-decompiler.com/flash" xmlns:xlink="http://www.w3.org/1999/xlink" ffdec:objectType="shape" height="147.5px" width="16.5px" xmlns="http://www.w3.org/2000/svg">
  <g transform="matrix(1.0, 0.0, 0.0, 1.0, 0.5, 0.5)">
    <path d="M0.0 0.0 L15.5 0.0 15.5 146.5 0.0 146.5 0.0 0.0" fill="#6d0101" fill-rule="evenodd" stroke="none"/>
    <path d="M0.0 0.0 L0.0 146.5 15.5 146.5 15.5 0.0 0.0 0.0 Z" fill="none" stroke="#430101" stroke-linecap="round" stroke-linejoin="round" stroke-width="1.0"/>
    <path d="M1.9 67.3 L13.5 67.3" fill="none" stroke="#430101" stroke-linecap="round" stroke-linejoin="round" stroke-width="1.0"/>
    <path d="M1.9 66.45 L13.5 66.45" fill="none" stroke="#af0303" stroke-linecap="round" stroke-linejoin="round" stroke-width="1.0"/>
    <path d="M1.9 71.55 L13.5 71.55" fill="none" stroke="#430101" stroke-linecap="round" stroke-linejoin="round" stroke-width="1.0"/>
    <path d="M1.9 70.7 L13.5 70.7" fill="none" stroke="#af0303" stroke-linecap="round" stroke-linejoin="round" stroke-width="1.0"/>
    <path d="M1.9 75.8 L13.5 75.8" fill="none" stroke="#430101" stroke-linecap="round" stroke-linejoin="round" stroke-width="1.0"/>
    <path d="M1.9 74.95 L13.5 74.95" fill="none" stroke="#af0303" stroke-linecap="round" stroke-linejoin="round" stroke-width="1.0"/>
    <path d="M1.9 80.0 L13.5 80.0" fill="none" stroke="#430101" stroke-linecap="round" stroke-linejoin="round" stroke-width="1.0"/>
    <path d="M1.9 79.15 L13.5 79.15" fill="none" stroke="#af0303" stroke-linecap="round" stroke-linejoin="round" stroke-width="1.0"/>
  </g>
</svg>
