<?xml version="1.0" encoding="UTF-8" standalone="no"?>
<svg xmlns:ffdec="https://www.free-decompiler.com/flash" xmlns:xlink="http://www.w3.org/1999/xlink" ffdec:objectType="shape" height="91.0px" width="91.0px" xmlns="http://www.w3.org/2000/svg">
  <g transform="matrix(1.0, 0.0, 0.0, 1.0, 45.5, 45.5)">
    <path d="M1.2 -45.5 Q19.25 -45.1 32.15 -32.2 42.9 -21.45 45.0 -7.05 45.5 -3.65 45.5 0.0 45.5 3.65 45.0 7.1 42.9 21.4 32.15 32.15 22.5 41.85 9.9 44.5 5.15 45.5 0.0 45.5 -5.15 45.5 -9.9 44.5 -22.5 41.85 -32.2 32.15 -45.5 18.85 -45.5 0.0 -45.5 -18.85 -32.2 -32.2 -19.25 -45.1 -1.15 -45.5 L1.2 -45.5" fill="#ffffff" fill-opacity="0.101960786" fill-rule="evenodd" stroke="none"/>
  </g>
</svg>
