<?xml version="1.0" encoding="UTF-8" standalone="no"?>
<svg xmlns:ffdec="https://www.free-decompiler.com/flash" xmlns:xlink="http://www.w3.org/1999/xlink" ffdec:objectType="shape" height="348.5px" width="347.95px" xmlns="http://www.w3.org/2000/svg">
  <g transform="matrix(1.0, 0.0, 0.0, 1.0, 173.95, 174.2)">
    <path d="M161.65 0.0 L152.35 6.8 152.35 -6.8 161.65 0.0" fill="#ffffff" fill-opacity="0.8" fill-rule="evenodd" stroke="none"/>
    <path d="M-161.6 0.0 L146.35 0.0" ffdec:has-small-stroke="true" ffdec:original-stroke-width="0.05" fill="none" stroke="#ffffff" stroke-linecap="round" stroke-linejoin="round" stroke-opacity="0.8" stroke-width="1.0"/>
    <path d="M14.3 -32.05 L156.45 -174.2 M26.05 -23.35 L174.0 -171.3 M33.55 -10.3 L174.0 -150.8 M32.95 174.3 L174.0 33.25 M12.5 174.3 L174.0 12.8 M159.65 174.3 L174.0 159.95 M137.2 174.3 L174.0 137.5 M118.75 174.3 L174.0 119.05 M96.3 174.3 L174.0 96.6 M53.4 174.3 L174.0 53.7 M73.85 174.3 L174.0 74.15 M33.65 10.05 L174.0 -130.35 M-173.95 -171.0 L-170.75 -174.2 M-173.95 -130.1 L-129.85 -174.2 M-173.95 -109.65 L-109.4 -174.2 M-173.95 -68.75 L-68.5 -174.2 M-173.95 -48.3 L-48.05 -174.2 M-173.95 -27.85 L-27.6 -174.2 M-173.95 -7.4 L-7.15 -174.2 M-173.95 -89.2 L-88.95 -174.2 M-173.95 -150.55 L-150.3 -174.2 M-151.1 174.3 L-10.3 33.55 M-171.6 174.3 L-23.35 26.05 M-173.95 156.2 L-32.05 14.3 M-173.95 135.75 L-34.85 -3.35 M-69.3 174.3 L174.0 -69.0 M-130.65 174.3 L10.05 33.65 M-89.75 174.3 L174.0 -89.45 M-110.2 174.3 L174.0 -109.9 M-173.95 115.3 L115.55 -174.2 M-173.95 94.85 L95.1 -174.2 M-173.95 74.4 L74.65 -174.2 M-7.95 174.3 L174.0 -7.65 M-28.4 174.3 L174.0 -28.1 M-48.85 174.3 L174.0 -48.55 M-3.35 -34.85 L136.0 -174.2 M-173.95 13.05 L13.3 -174.2 M-173.95 33.5 L33.75 -174.2 M-173.95 53.95 L54.2 -174.2" ffdec:has-small-stroke="true" ffdec:original-stroke-width="0.05" fill="none" stroke="#ffffff" stroke-linecap="round" stroke-linejoin="round" stroke-opacity="0.17254902" stroke-width="1.0"/>
  </g>
</svg>
