<?xml version="1.0" encoding="UTF-8" standalone="no"?>
<svg xmlns:ffdec="https://www.free-decompiler.com/flash" xmlns:xlink="http://www.w3.org/1999/xlink" ffdec:objectType="shape" height="348.5px" width="347.95px" xmlns="http://www.w3.org/2000/svg">
  <g transform="matrix(1.0, 0.0, 0.0, 1.0, 173.95, 174.2)">
    <path d="M161.65 0.0 L152.35 6.8 152.35 -6.8 161.65 0.0" fill="#ffffff" fill-opacity="0.8" fill-rule="evenodd" stroke="none"/>
    <path d="M-161.6 0.0 L146.35 0.0" ffdec:has-small-stroke="true" ffdec:original-stroke-width="0.05" fill="none" stroke="#ffffff" stroke-linecap="round" stroke-linejoin="round" stroke-opacity="0.8" stroke-width="1.0"/>
    <path d="M88.0 -105.7 L156.45 -174.2 M34.0 -133.55 L74.65 -174.2 M16.6 -136.6 L54.2 -174.2 M49.6 -128.7 L95.1 -174.2 M63.65 -122.3 L115.55 -174.2 M76.4 -114.55 L136.0 -174.2 M116.75 -73.1 L174.0 -130.35 M98.55 -95.85 L174.0 -171.3 M108.2 -84.95 L174.0 -150.8 M124.15 -60.0 L174.0 -109.9 M130.15 -45.55 L174.0 -89.45 M134.55 -29.55 L174.0 -69.0 M137.1 -11.6 L174.0 -48.55 M12.5 174.3 L65.7 121.1 M121.1 65.7 L174.0 12.8 M159.65 174.3 L174.0 159.95 M137.2 174.3 L174.0 137.5 M118.75 174.3 L174.0 119.05 M96.3 174.3 L174.0 96.6 M32.95 174.3 L174.0 33.25 M53.4 174.3 L174.0 53.7 M73.85 174.3 L174.0 74.15 M137.25 8.65 L174.0 -28.1 M133.9 32.45 L174.0 -7.65 M-173.95 -171.0 L-170.75 -174.2 M-54.75 -126.6 L-7.15 -174.2 M-173.95 -7.4 L-126.6 -54.75 M-173.95 -130.1 L-129.85 -174.2 M-173.95 -109.65 L-109.4 -174.2 M-173.95 -68.75 L-68.5 -174.2 M-173.95 -48.3 L-48.05 -174.2 M-173.95 -27.85 L-27.6 -174.2 M-173.95 -89.2 L-88.95 -174.2 M-173.95 -150.55 L-150.3 -174.2 M-151.1 174.3 L-84.95 108.2 M-48.85 174.3 L-11.6 137.1 M-69.3 174.3 L-29.55 134.55 M-89.75 174.3 L-45.55 130.15 M-110.2 174.3 L-60.0 124.1 M-130.65 174.3 L-73.05 116.75 M-171.6 174.3 L-95.85 98.55 M-173.95 53.95 L-136.6 16.6 M-173.95 156.2 L-105.7 88.0 M-173.95 135.75 L-114.55 76.4 M-173.95 115.3 L-122.3 63.65 M-173.95 94.85 L-128.7 49.6 M-173.95 74.4 L-133.55 34.0 M-173.95 33.5 L-137.45 -2.95 M-173.95 13.05 L-135.3 -25.55 M-25.55 -135.3 L13.3 -174.2 M-2.95 -137.45 L33.75 -174.2 M-7.95 174.3 L32.45 133.9 M-28.4 174.3 L8.65 137.25" ffdec:has-small-stroke="true" ffdec:original-stroke-width="0.05" fill="none" stroke="#ffffff" stroke-linecap="round" stroke-linejoin="round" stroke-opacity="0.17254902" stroke-width="1.0"/>
  </g>
</svg>
