<?xml version="1.0" encoding="UTF-8" standalone="no"?>
<svg xmlns:ffdec="https://www.free-decompiler.com/flash" xmlns:xlink="http://www.w3.org/1999/xlink" ffdec:objectType="shape" height="8.5px" width="121.75px" xmlns="http://www.w3.org/2000/svg">
  <g transform="matrix(1.0, 0.0, 0.0, 1.0, 60.85, 1.8)">
    <path d="M52.4 2.45 Q52.4 0.7 53.65 -0.55 54.9 -1.8 56.65 -1.8 58.4 -1.8 59.65 -0.55 60.9 0.7 60.9 2.45 60.9 4.2 59.65 5.45 58.4 6.7 56.65 6.7 54.9 6.7 53.65 5.45 52.4 4.2 52.4 2.45 L-52.35 2.45 Q-52.35 4.2 -53.6 5.45 -54.85 6.7 -56.6 6.7 -58.35 6.7 -59.6 5.45 -60.85 4.2 -60.85 2.45 -60.85 0.7 -59.6 -0.55 -58.35 -1.8 -56.6 -1.8 -54.85 -1.8 -53.6 -0.55 -52.35 0.7 -52.35 2.45" ffdec:has-small-stroke="true" ffdec:original-stroke-width="0.05" fill="none" stroke="#ffffff" stroke-linecap="round" stroke-linejoin="round" stroke-width="1.0"/>
  </g>
</svg>
