<?xml version="1.0" encoding="UTF-8" standalone="no"?>
<svg xmlns:ffdec="https://www.free-decompiler.com/flash" xmlns:xlink="http://www.w3.org/1999/xlink" ffdec:objectType="shape" height="18.0px" width="18.0px" xmlns="http://www.w3.org/2000/svg">
  <g transform="matrix(1.0, 0.0, 0.0, 1.0, 9.0, 9.0)">
    <path d="M6.35 -6.4 Q9.0 -3.75 9.0 0.0 9.0 3.75 6.35 6.35 3.75 9.0 0.0 9.0 -3.75 9.0 -6.4 6.35 -9.0 3.75 -9.0 0.0 -9.0 -3.75 -6.4 -6.4 -3.75 -9.0 0.0 -9.0 3.75 -9.0 6.35 -6.4" fill="#ff3300" fill-opacity="0.0" fill-rule="evenodd" stroke="none"/>
    <path d="M6.15 -6.2 Q8.75 -3.6 8.75 0.0 8.75 3.6 6.15 6.15 3.6 8.75 0.0 8.75 -3.6 8.75 -6.2 6.15 -8.75 3.6 -8.75 0.0 -8.75 -3.6 -6.2 -6.2 -3.6 -8.75 0.0 -8.75 3.6 -8.75 6.15 -6.2" fill="url(#gradient0)" fill-rule="evenodd" stroke="none"/>
    <path d="M3.1 -3.15 Q4.45 -1.85 4.45 0.0 4.45 1.8 3.1 3.1 1.85 4.4 0.0 4.4 -1.85 4.4 -3.15 3.1 -4.4 1.8 -4.4 0.0 -4.4 -1.85 -3.15 -3.15 -1.85 -4.45 0.0 -4.45 1.85 -4.45 3.1 -3.15" fill="url(#gradient1)" fill-rule="evenodd" stroke="none"/>
    <path d="M4.15 -4.2 Q5.9 -2.45 5.9 0.0 5.9 2.45 4.15 4.15 2.45 5.9 0.0 5.9 -2.45 5.9 -4.2 4.15 -5.9 2.45 -5.9 0.0 -5.9 -2.45 -4.2 -4.2 -2.45 -5.9 0.0 -5.9 2.45 -5.9 4.15 -4.2 Z" fill="none" stroke="#ffffff" stroke-linecap="round" stroke-linejoin="round" stroke-width="1.0"/>
  </g>
  <defs>
    <radialGradient cx="0" cy="0" gradientTransform="matrix(0.0108, 0.0, 0.0, 0.0108, 0.0, 0.0)" gradientUnits="userSpaceOnUse" id="gradient0" r="819.2" spreadMethod="pad">
      <stop offset="0.6823529411764706" stop-color="#ffffff" stop-opacity="0.6627451"/>
      <stop offset="1.0" stop-color="#ffffff" stop-opacity="0.0"/>
    </radialGradient>
    <radialGradient cx="0" cy="0" gradientTransform="matrix(0.0093, 0.0, 0.0, 0.0093, -1.5, -2.6)" gradientUnits="userSpaceOnUse" id="gradient1" r="819.2" spreadMethod="pad">
      <stop offset="0.0" stop-color="#ffffff"/>
      <stop offset="1.0" stop-color="#b7b7b7"/>
    </radialGradient>
  </defs>
</svg>
