<?xml version="1.0" encoding="UTF-8" standalone="no"?>
<svg xmlns:ffdec="https://www.free-decompiler.com/flash" xmlns:xlink="http://www.w3.org/1999/xlink" ffdec:objectType="shape" height="8.0px" width="8.0px" xmlns="http://www.w3.org/2000/svg">
  <g transform="matrix(1.0, 0.0, 0.0, 1.0, -64.0, 5.5)">
    <path d="M71.5 -5.0 L71.5 2.0 64.5 2.0 64.5 -5.0 71.5 -5.0 M65.15 1.5 L68.05 -1.35 70.65 1.25 68.05 -1.35 65.15 1.5 M70.9 -4.25 L68.05 -1.35 64.9 -4.5 68.05 -1.35 70.9 -4.25" fill="#669999" fill-opacity="0.0" fill-rule="evenodd" stroke="none"/>
    <path d="M71.5 -5.0 L71.5 2.0 64.5 2.0 64.5 -5.0 71.5 -5.0 M64.9 -4.5 L68.05 -1.35 70.9 -4.25 M70.65 1.25 L68.05 -1.35 65.15 1.5" fill="none" stroke="#ffffff" stroke-linecap="round" stroke-linejoin="round" stroke-width="1.0"/>
  </g>
</svg>
