<?xml version="1.0" encoding="UTF-8" standalone="no"?>
<svg xmlns:ffdec="https://www.free-decompiler.com/flash" xmlns:xlink="http://www.w3.org/1999/xlink" ffdec:objectType="shape" height="91.3px" width="28.4px" xmlns="http://www.w3.org/2000/svg">
  <g transform="matrix(1.0, 0.0, 0.0, 1.0, -84.0, -58.35)">
    <path d="M111.9 58.35 Q112.1 58.35 112.25 58.5 L112.4 58.85 112.25 59.2 112.2 59.25 112.25 59.3 112.4 59.65 112.25 60.0 111.9 60.15 111.55 60.0 111.4 59.65 Q111.4 59.45 111.55 59.3 L111.6 59.25 111.55 59.2 111.4 58.85 Q111.4 58.65 111.55 58.5 111.7 58.35 111.9 58.35 M103.55 58.5 Q103.7 58.35 103.9 58.35 L104.25 58.5 104.4 58.85 104.25 59.2 103.9 59.35 103.55 59.2 103.4 58.85 103.55 58.5 M108.25 58.5 L108.4 58.85 108.25 59.2 107.9 59.35 107.55 59.2 107.4 58.85 Q107.4 58.65 107.55 58.5 107.7 58.35 107.9 58.35 108.1 58.35 108.25 58.5 M105.75 69.5 L106.1 69.35 Q106.3 69.35 106.45 69.5 L106.6 69.85 106.45 70.2 106.1 70.35 105.75 70.2 105.6 69.85 105.75 69.5 M101.75 69.5 L102.1 69.35 102.45 69.5 102.6 69.85 102.45 70.2 102.1 70.35 101.75 70.2 101.6 69.85 101.75 69.5 M109.75 69.5 Q109.9 69.35 110.1 69.35 L110.45 69.5 110.6 69.85 110.45 70.2 110.1 70.35 109.75 70.2 109.6 69.85 109.75 69.5 M111.55 63.3 Q111.7 63.15 111.9 63.15 112.1 63.15 112.25 63.3 L112.4 63.65 112.25 64.0 111.9 64.15 111.55 64.0 111.4 63.65 Q111.4 63.45 111.55 63.3 M111.55 67.3 Q111.7 67.15 111.9 67.15 112.1 67.15 112.25 67.3 L112.4 67.65 112.25 68.0 111.9 68.15 111.55 68.0 111.4 67.65 Q111.4 67.45 111.55 67.3 M95.9 58.35 Q96.1 58.35 96.25 58.5 L96.4 58.85 96.25 59.2 95.9 59.35 95.55 59.2 95.4 58.85 Q95.4 58.65 95.55 58.5 95.7 58.35 95.9 58.35 M92.25 58.5 L92.4 58.85 92.25 59.2 91.9 59.35 91.55 59.2 91.4 58.85 91.55 58.5 Q91.7 58.35 91.9 58.35 L92.25 58.5 M100.25 58.5 L100.4 58.85 100.25 59.2 99.9 59.35 99.55 59.2 99.4 58.85 Q99.4 58.65 99.55 58.5 99.7 58.35 99.9 58.35 100.1 58.35 100.25 58.5 M84.15 59.1 Q84.3 58.95 84.5 58.95 84.7 58.95 84.85 59.1 L85.0 59.45 84.85 59.8 84.5 59.95 84.15 59.8 84.0 59.45 84.15 59.1 M88.25 58.5 L88.4 58.85 88.25 59.2 87.9 59.35 87.55 59.2 87.4 58.85 Q87.4 58.65 87.55 58.5 87.7 58.35 87.9 58.35 88.1 58.35 88.25 58.5 M84.15 63.1 Q84.3 62.95 84.5 62.95 84.7 62.95 84.85 63.1 L85.0 63.45 84.85 63.8 84.5 63.95 84.15 63.8 84.0 63.45 84.15 63.1 M84.15 67.1 Q84.3 66.95 84.5 66.95 84.7 66.95 84.85 67.1 L85.0 67.45 84.85 67.8 84.5 67.95 84.15 67.8 84.0 67.45 84.15 67.1 M85.75 69.5 Q85.9 69.35 86.1 69.35 L86.45 69.5 86.6 69.85 86.45 70.2 86.1 70.35 85.75 70.2 85.6 69.85 Q85.6 69.65 85.75 69.5 M89.75 69.5 L90.1 69.35 90.45 69.5 90.6 69.85 90.45 70.2 90.1 70.35 89.75 70.2 89.6 69.85 89.75 69.5 M94.45 69.5 L94.6 69.85 94.45 70.2 94.1 70.35 93.75 70.2 93.6 69.85 93.75 69.5 Q93.9 69.35 94.1 69.35 L94.45 69.5 M97.75 69.5 Q97.9 69.35 98.1 69.35 L98.45 69.5 98.6 69.85 98.45 70.2 98.1 70.35 97.75 70.2 97.6 69.85 Q97.6 69.65 97.75 69.5 M111.9 99.35 Q112.1 99.35 112.25 99.5 L112.4 99.85 112.25 100.2 112.2 100.25 112.25 100.3 112.4 100.65 112.25 101.0 111.9 101.15 111.55 101.0 111.4 100.65 Q111.4 100.45 111.55 100.3 L111.6 100.25 111.55 100.2 111.4 99.85 Q111.4 99.65 111.55 99.5 111.7 99.35 111.9 99.35 M111.55 104.3 Q111.7 104.15 111.9 104.15 112.1 104.15 112.25 104.3 L112.4 104.65 112.25 105.0 111.9 105.15 111.55 105.0 111.4 104.65 Q111.4 104.45 111.55 104.3 M111.55 108.3 Q111.7 108.15 111.9 108.15 112.1 108.15 112.25 108.3 L112.4 108.65 112.25 109.0 111.9 109.15 111.55 109.0 111.4 108.65 Q111.4 108.45 111.55 108.3 M108.25 99.5 L108.4 99.85 108.25 100.2 107.9 100.35 107.55 100.2 107.4 99.85 Q107.4 99.65 107.55 99.5 107.7 99.35 107.9 99.35 108.1 99.35 108.25 99.5 M103.55 99.5 Q103.7 99.35 103.9 99.35 L104.25 99.5 104.4 99.85 104.25 100.2 103.9 100.35 103.55 100.2 103.4 99.85 103.55 99.5 M102.45 110.5 L102.6 110.85 102.45 111.2 102.1 111.35 101.75 111.2 101.6 110.85 101.75 110.5 102.1 110.35 102.45 110.5 M105.75 110.5 L106.1 110.35 Q106.3 110.35 106.45 110.5 L106.6 110.85 106.45 111.2 106.1 111.35 105.75 111.2 105.6 110.85 105.75 110.5 M109.75 110.5 Q109.9 110.35 110.1 110.35 L110.45 110.5 110.6 110.85 110.45 111.2 110.1 111.35 109.75 111.2 109.6 110.85 109.75 110.5 M100.25 99.5 L100.4 99.85 100.25 100.2 99.9 100.35 99.55 100.2 99.4 99.85 Q99.4 99.65 99.55 99.5 99.7 99.35 99.9 99.35 100.1 99.35 100.25 99.5 M96.4 99.85 L96.25 100.2 95.9 100.35 95.55 100.2 95.4 99.85 Q95.4 99.65 95.55 99.5 95.7 99.35 95.9 99.35 96.1 99.35 96.25 99.5 L96.4 99.85 M91.55 99.5 Q91.7 99.35 91.9 99.35 L92.25 99.5 92.4 99.85 92.25 100.2 91.9 100.35 91.55 100.2 91.4 99.85 91.55 99.5 M93.75 110.5 Q93.9 110.35 94.1 110.35 L94.45 110.5 94.6 110.85 94.45 111.2 94.1 111.35 93.75 111.2 93.6 110.85 93.75 110.5 M97.75 110.5 Q97.9 110.35 98.1 110.35 L98.45 110.5 98.6 110.85 98.45 111.2 98.1 111.35 97.75 111.2 97.6 110.85 Q97.6 110.65 97.75 110.5 M88.25 99.5 L88.4 99.85 88.25 100.2 87.9 100.35 87.55 100.2 87.4 99.85 Q87.4 99.65 87.55 99.5 87.7 99.35 87.9 99.35 88.1 99.35 88.25 99.5 M84.85 100.1 L85.0 100.45 84.85 100.8 84.5 100.95 84.15 100.8 84.0 100.45 84.15 100.1 Q84.3 99.95 84.5 99.95 84.7 99.95 84.85 100.1 M84.15 104.1 Q84.3 103.95 84.5 103.95 84.7 103.95 84.85 104.1 L85.0 104.45 84.85 104.8 84.5 104.95 84.15 104.8 84.0 104.45 84.15 104.1 M84.85 108.1 L85.0 108.45 84.85 108.8 84.5 108.95 84.15 108.8 84.0 108.45 84.15 108.1 Q84.3 107.95 84.5 107.95 84.7 107.95 84.85 108.1 M85.75 110.5 Q85.9 110.35 86.1 110.35 L86.45 110.5 86.6 110.85 86.45 111.2 86.1 111.35 85.75 111.2 85.6 110.85 Q85.6 110.65 85.75 110.5 M89.75 110.5 L90.1 110.35 90.45 110.5 90.6 110.85 90.45 111.2 90.1 111.35 89.75 111.2 89.6 110.85 89.75 110.5 M88.95 137.8 L89.3 137.65 Q89.5 137.65 89.65 137.8 L89.8 138.15 89.65 138.5 89.3 138.65 88.95 138.5 88.8 138.15 88.95 137.8 M84.0 138.15 L84.15 137.8 Q84.3 137.65 84.5 137.65 84.7 137.65 84.85 137.8 L84.9 137.85 84.95 137.8 85.3 137.65 85.65 137.8 85.8 138.15 85.65 138.5 85.3 138.65 84.95 138.5 84.9 138.45 84.85 138.5 84.5 138.65 84.15 138.5 84.0 138.15 M84.15 141.8 Q84.3 141.65 84.5 141.65 84.7 141.65 84.85 141.8 L85.0 142.15 84.85 142.5 84.5 142.65 84.15 142.5 84.0 142.15 84.15 141.8 M84.15 145.8 Q84.3 145.65 84.5 145.65 84.7 145.65 84.85 145.8 L85.0 146.15 84.85 146.5 84.5 146.65 84.15 146.5 84.0 146.15 84.15 145.8 M100.95 137.8 Q101.1 137.65 101.3 137.65 101.5 137.65 101.65 137.8 L101.8 138.15 101.65 138.5 101.3 138.65 100.95 138.5 100.8 138.15 100.95 137.8 M96.95 137.8 Q97.1 137.65 97.3 137.65 L97.65 137.8 97.8 138.15 97.65 138.5 97.3 138.65 96.95 138.5 96.8 138.15 96.95 137.8 M92.95 137.8 Q93.1 137.65 93.3 137.65 L93.65 137.8 93.8 138.15 93.65 138.5 93.3 138.65 92.95 138.5 92.8 138.15 92.95 137.8 M109.65 137.8 L109.8 138.15 109.65 138.5 109.3 138.65 108.95 138.5 108.8 138.15 108.95 137.8 Q109.1 137.65 109.3 137.65 L109.65 137.8 M105.65 137.8 L105.8 138.15 105.65 138.5 105.3 138.65 Q105.1 138.65 104.95 138.5 L104.8 138.15 104.95 137.8 Q105.1 137.65 105.3 137.65 L105.65 137.8 M111.55 139.2 Q111.7 139.05 111.9 139.05 112.1 139.05 112.25 139.2 L112.4 139.55 112.25 139.9 111.9 140.05 111.55 139.9 111.4 139.55 Q111.4 139.35 111.55 139.2 M111.55 143.2 Q111.7 143.05 111.9 143.05 112.1 143.05 112.25 143.2 L112.4 143.55 112.25 143.9 111.9 144.05 111.55 143.9 111.4 143.55 Q111.4 143.35 111.55 143.2 M112.25 147.2 L112.4 147.55 112.25 147.9 111.9 148.05 111.55 147.9 111.4 147.55 Q111.4 147.35 111.55 147.2 111.7 147.05 111.9 147.05 112.1 147.05 112.25 147.2 M109.15 148.8 Q109.3 148.65 109.5 148.65 L109.85 148.8 110.0 149.15 109.85 149.5 109.5 149.65 Q109.3 149.65 109.15 149.5 L109.0 149.15 109.15 148.8 M105.15 148.8 Q105.3 148.65 105.5 148.65 105.7 148.65 105.85 148.8 L106.0 149.15 105.85 149.5 105.5 149.65 105.15 149.5 105.0 149.15 105.15 148.8 M101.85 148.8 L102.0 149.15 101.85 149.5 101.5 149.65 101.15 149.5 101.0 149.15 101.15 148.8 Q101.3 148.65 101.5 148.65 L101.85 148.8 M97.85 148.8 L98.0 149.15 97.85 149.5 97.5 149.65 97.15 149.5 97.0 149.15 97.15 148.8 Q97.3 148.65 97.5 148.65 L97.85 148.8 M93.85 148.8 L94.0 149.15 93.85 149.5 93.5 149.65 93.15 149.5 93.0 149.15 93.15 148.8 93.5 148.65 Q93.7 148.65 93.85 148.8 M89.15 148.8 L89.5 148.65 89.85 148.8 90.0 149.15 89.85 149.5 89.5 149.65 89.15 149.5 89.0 149.15 89.15 148.8 M85.85 148.8 L86.0 149.15 85.85 149.5 85.5 149.65 85.15 149.5 85.0 149.15 Q85.0 148.95 85.15 148.8 85.3 148.65 85.5 148.65 L85.85 148.8" fill="#ffffff" fill-rule="evenodd" stroke="none"/>
  </g>
</svg>
