<?xml version="1.0" encoding="UTF-8" standalone="no"?>
<svg xmlns:ffdec="https://www.free-decompiler.com/flash" xmlns:xlink="http://www.w3.org/1999/xlink" ffdec:objectType="shape" height="18.2px" width="644.15px" xmlns="http://www.w3.org/2000/svg">
  <g transform="matrix(1.0, 0.0, 0.0, 1.0, 51.65, -146.3)">
    <path d="M-47.85 163.95 L-32.6 163.95 -32.4 163.95 -32.2 163.95 Q-31.8 163.95 -31.55 163.65 -31.25 163.4 -31.25 163.0 -31.25 162.6 -31.55 162.3 L-31.65 162.2 -35.35 156.0 -40.05 148.05 -40.35 147.5 -41.0 147.25 -41.7 147.5 -41.9 147.95 -50.45 162.25 -50.55 162.3 -50.8 163.0 -50.55 163.65 -49.85 163.95 -49.65 163.95 -49.45 163.95 -47.85 163.95 M-30.45 163.2 Q-30.45 163.75 -30.85 164.1 -31.2 164.5 -31.65 164.5 L-50.35 164.5 Q-50.9 164.5 -51.3 164.1 -51.65 163.75 -51.65 163.2 L-51.55 162.65 -42.0 146.65 Q-41.6 146.3 -41.05 146.3 -40.5 146.3 -40.15 146.65 L-39.95 146.85 -30.5 162.8 -30.45 163.2" fill="#ffffff" fill-rule="evenodd" stroke="none"/>
    <path d="M-47.85 163.95 L-49.45 163.95 -49.65 163.95 -49.85 163.95 -50.55 163.65 -50.8 163.0 -50.55 162.3 -50.45 162.25 -41.9 147.95 -41.7 147.5 -41.0 147.25 -40.35 147.5 -40.05 148.05 -35.35 156.0 Q-40.75 155.75 -45.0 160.15 -46.6 161.8 -47.85 163.95" fill="#ff9900" fill-rule="evenodd" stroke="none"/>
    <path d="M-35.35 156.0 L-31.65 162.2 -31.55 162.3 Q-31.25 162.6 -31.25 163.0 -31.25 163.4 -31.55 163.65 -31.8 163.95 -32.2 163.95 L-32.4 163.95 -32.6 163.95 -47.85 163.95 Q-46.6 161.8 -45.0 160.15 -40.75 155.75 -35.35 156.0" fill="#febe5f" fill-rule="evenodd" stroke="none"/>
    <path d="M-35.35 156.0 L-31.65 162.2 -31.55 162.3 Q-31.25 162.6 -31.25 163.0 -31.25 163.4 -31.55 163.65 -31.8 163.95 -32.2 163.95 L-32.4 163.95 -32.6 163.95 -47.85 163.95 -49.45 163.95 -49.65 163.95 -49.85 163.95 -50.55 163.65 -50.8 163.0 -50.55 162.3 -50.45 162.25 -41.9 147.95 -41.7 147.5 -41.0 147.25 -40.35 147.5 -40.05 148.05 -35.35 156.0 M-30.45 163.2 Q-30.45 163.75 -30.85 164.1 -31.2 164.5 -31.65 164.5 L-50.35 164.5 Q-50.9 164.5 -51.3 164.1 -51.65 163.75 -51.65 163.2 L-51.55 162.65 -42.0 146.65 Q-41.6 146.3 -41.05 146.3 -40.5 146.3 -40.15 146.65 L-39.95 146.85 -30.5 162.8 -30.45 163.2 Z" ffdec:has-small-stroke="true" ffdec:original-stroke-width="0.05" fill="none" stroke="#ff6600" stroke-linecap="round" stroke-linejoin="round" stroke-width="1.0"/>
    <path d="M-41.0 151.05 L-40.8 151.1 Q-40.3 151.2 -40.05 151.55 L-39.85 152.1 -39.9 154.75 Q-40.05 157.5 -40.3 158.0 L-41.0 159.05 -41.75 158.0 -42.15 154.75 -42.2 152.1 -42.0 151.55 -41.25 151.1 -41.0 151.05 M-42.1 161.2 L-41.8 160.45 -41.0 160.15 Q-40.55 160.15 -40.25 160.45 -39.95 160.75 -39.95 161.2 -39.95 161.65 -40.25 161.95 -40.55 162.25 -41.0 162.25 L-41.8 161.95 -42.1 161.2" fill="#cc5302" fill-rule="evenodd" stroke="none"/>
    <path d="M581.9 146.3 Q582.45 146.3 582.8 146.65 L583.0 146.85 592.45 162.8 592.5 163.2 Q592.5 163.75 592.1 164.1 591.75 164.5 591.3 164.5 L572.6 164.5 Q572.05 164.5 571.65 164.1 571.3 163.75 571.3 163.2 L571.4 162.65 580.95 146.65 Q581.35 146.3 581.9 146.3 M587.6 156.0 L582.9 148.05 582.6 147.5 581.95 147.25 Q581.55 147.25 581.25 147.5 L581.05 147.95 572.5 162.25 572.4 162.3 572.15 163.0 Q572.15 163.4 572.4 163.65 L573.1 163.95 573.3 163.95 573.5 163.95 575.1 163.95 590.35 163.95 590.55 163.95 590.75 163.95 Q591.15 163.95 591.4 163.65 L591.7 163.0 591.4 162.3 591.3 162.2 587.6 156.0" fill="#ffffff" fill-rule="evenodd" stroke="none"/>
    <path d="M575.1 163.95 L573.5 163.95 573.3 163.95 573.1 163.95 572.4 163.65 Q572.15 163.4 572.15 163.0 L572.4 162.3 572.5 162.25 581.05 147.95 581.25 147.5 Q581.55 147.25 581.95 147.25 L582.6 147.5 582.9 148.05 587.6 156.0 Q582.2 155.75 577.95 160.15 576.35 161.8 575.1 163.95" fill="#ff9900" fill-rule="evenodd" stroke="none"/>
    <path d="M587.6 156.0 L591.3 162.2 591.4 162.3 591.7 163.0 591.4 163.65 Q591.15 163.95 590.75 163.95 L590.55 163.95 590.35 163.95 575.1 163.95 Q576.35 161.8 577.95 160.15 582.2 155.75 587.6 156.0" fill="#febe5f" fill-rule="evenodd" stroke="none"/>
    <path d="M581.9 146.3 Q582.45 146.3 582.8 146.65 L583.0 146.85 592.45 162.8 592.5 163.2 Q592.5 163.75 592.1 164.1 591.75 164.5 591.3 164.5 L572.6 164.5 Q572.05 164.5 571.65 164.1 571.3 163.75 571.3 163.2 L571.4 162.65 580.95 146.65 Q581.35 146.3 581.9 146.3 M575.1 163.95 L573.5 163.95 573.3 163.95 573.1 163.95 572.4 163.65 Q572.15 163.4 572.15 163.0 L572.4 162.3 572.5 162.25 581.05 147.95 581.25 147.5 Q581.55 147.25 581.95 147.25 L582.6 147.5 582.9 148.05 587.6 156.0 591.3 162.2 591.4 162.3 591.7 163.0 591.4 163.65 Q591.15 163.95 590.75 163.95 L590.55 163.95 590.35 163.95 575.1 163.95 Z" ffdec:has-small-stroke="true" ffdec:original-stroke-width="0.05" fill="none" stroke="#ff6600" stroke-linecap="round" stroke-linejoin="round" stroke-width="1.0"/>
    <path d="M580.95 151.55 Q581.2 151.2 581.7 151.1 L581.95 151.05 582.15 151.1 582.9 151.55 583.1 152.1 583.05 154.75 582.65 158.0 581.95 159.05 581.2 158.0 Q580.95 157.5 580.8 154.75 L580.75 152.1 580.95 151.55 M580.85 161.2 Q580.85 160.75 581.15 160.45 581.5 160.15 581.95 160.15 L582.7 160.45 583.0 161.2 582.7 161.95 581.95 162.25 581.15 161.95 Q580.85 161.65 580.85 161.2" fill="#cc5302" fill-rule="evenodd" stroke="none"/>
  </g>
</svg>
