<?xml version="1.0" encoding="UTF-8" standalone="no"?>
<svg xmlns:ffdec="https://www.free-decompiler.com/flash" xmlns:xlink="http://www.w3.org/1999/xlink" ffdec:objectType="shape" height="132.4px" width="325.65px" xmlns="http://www.w3.org/2000/svg">
  <g transform="matrix(1.0, 0.0, 0.0, 1.0, -49.65, -211.4)">
    <path d="M324.6 244.0 Q332.6 244.0 332.6 252.0 L332.6 306.0 Q332.6 314.0 324.6 314.0 L57.65 314.0 Q49.65 314.0 49.65 306.0 L49.65 252.0 Q49.65 244.0 57.65 244.0 L324.6 244.0" fill="#000000" fill-rule="evenodd" stroke="none"/>
    <path d="M260.95 275.7 L356.15 220.75 350.75 211.4 375.3 218.0 368.75 242.6 363.35 233.25 268.15 288.2 260.95 275.7" fill="#000000" fill-rule="evenodd" stroke="none"/>
    <path d="M247.4 269.75 L357.3 269.75 357.3 258.95 375.3 276.95 357.3 294.95 357.3 284.15 247.4 284.15 247.4 269.75" fill="#000000" fill-rule="evenodd" stroke="none"/>
    <path d="M260.95 279.5 L356.15 334.45 350.75 343.8 375.3 337.2 368.75 312.6 363.35 321.95 268.15 267.0 260.95 279.5" fill="#000000" fill-rule="evenodd" stroke="none"/>
  </g>
</svg>
