<?xml version="1.0" encoding="UTF-8" standalone="no"?>
<svg xmlns:ffdec="https://www.free-decompiler.com/flash" xmlns:xlink="http://www.w3.org/1999/xlink" ffdec:objectType="shape" height="349.2px" width="299.95px" xmlns="http://www.w3.org/2000/svg">
  <g transform="matrix(1.0, 0.0, 0.0, 1.0, -33.65, -80.0)">
    <path d="M284.6 80.0 Q292.6 80.0 292.6 88.0 L292.6 169.0 Q292.6 177.0 284.6 177.0 L41.65 177.0 Q33.65 177.0 33.65 169.0 L33.65 88.0 Q33.65 80.0 41.65 80.0 L284.6 80.0 M325.6 287.0 Q333.6 287.0 333.6 295.0 L333.6 378.95 Q333.6 386.95 325.6 386.95 L84.65 386.95 Q76.65 386.95 76.65 378.95 L76.65 295.0 Q76.65 287.0 84.65 287.0 L325.6 287.0" fill="#000000" fill-rule="evenodd" stroke="none"/>
    <path d="M154.85 316.35 L108.65 415.9 118.4 420.45 94.5 429.2 85.8 405.3 95.6 409.85 141.8 310.3 154.85 316.35" fill="#000000" fill-rule="evenodd" stroke="none"/>
    <path d="M232.65 299.85 L229.15 409.4 239.95 409.75 221.4 427.05 204.05 408.6 214.8 408.95 218.3 299.4 232.65 299.85" fill="#000000" fill-rule="evenodd" stroke="none"/>
  </g>
</svg>
