<?xml version="1.0" encoding="UTF-8" standalone="no"?>
<svg xmlns:ffdec="https://www.free-decompiler.com/flash" xmlns:xlink="http://www.w3.org/1999/xlink" ffdec:objectType="shape" height="27.8px" width="33.7px" xmlns="http://www.w3.org/2000/svg">
  <g transform="matrix(1.0, 0.0, 0.0, 1.0, 15.85, 13.25)">
    <path d="M0.9 -4.65 L7.8 -10.95 10.6 -13.25 Q13.75 -12.1 16.35 -9.5 L17.85 -7.8 12.75 -4.85 5.55 -0.1 Q9.6 4.05 12.95 8.15 11.8 10.95 9.45 13.3 L8.05 14.55 3.15 9.4 -1.3 5.1 -8.3 11.1 Q-9.55 9.4 -10.25 7.45 L-5.2 1.65 -10.55 -2.6 -15.85 -6.3 -13.35 -9.5 Q-11.2 -11.65 -8.6 -12.8 L-5.5 -10.35 0.9 -4.65" fill="#ff9900" fill-rule="evenodd" stroke="none"/>
  </g>
</svg>
