<?xml version="1.0" encoding="UTF-8" standalone="no"?>
<svg xmlns:ffdec="https://www.free-decompiler.com/flash" xmlns:xlink="http://www.w3.org/1999/xlink" ffdec:objectType="shape" height="21.4px" width="205.95px" xmlns="http://www.w3.org/2000/svg">
  <g transform="matrix(1.0, 0.0, 0.0, 1.0, 106.5, -3.8)">
    <path d="M-5.1 9.8 L-5.1 19.0 Q-5.1 25.2 -11.3 25.2 L-100.3 25.2 Q-106.5 25.2 -106.5 19.0 L-106.5 9.8 Q-106.4 3.8 -100.3 3.8 L-11.3 3.8 Q-5.2 3.8 -5.1 9.8 M93.2 3.8 Q99.35 3.8 99.45 9.8 L99.45 19.0 Q99.45 25.2 93.2 25.2 L4.2 25.2 Q-2.0 25.2 -2.0 19.0 L-2.0 9.8 Q-1.9 3.8 4.2 3.8 L93.2 3.8" fill="#ffffff" fill-opacity="0.15686275" fill-rule="evenodd" stroke="none"/>
  </g>
</svg>
