<?xml version="1.0" encoding="UTF-8" standalone="no"?>
<svg xmlns:ffdec="https://www.free-decompiler.com/flash" xmlns:xlink="http://www.w3.org/1999/xlink" ffdec:objectType="shape" height="91.7px" width="104.25px" xmlns="http://www.w3.org/2000/svg">
  <g transform="matrix(1.0, 0.0, 0.0, 1.0, 52.15, 45.85)">
    <path d="M3.5 -42.6 L3.5 -42.65 3.45 -42.65 3.5 -42.6 M2.9 -42.35 L2.95 -42.25 2.95 -42.4 2.9 -42.35 M2.75 -44.85 L3.8 -43.6 51.55 39.0 51.7 39.35 51.7 39.65 51.75 39.85 51.7 39.35 Q52.3 41.3 51.95 42.45 L51.95 41.95 51.55 42.85 51.7 42.4 51.65 42.45 51.65 42.5 51.65 42.55 51.55 42.85 51.4 43.15 51.45 43.15 51.65 42.95 50.55 44.65 49.25 45.55 47.6 45.75 -47.8 45.75 -48.75 45.45 -50.25 44.95 -50.4 44.85 -50.75 44.65 -52.1 42.45 -52.15 41.65 -52.15 41.15 -51.85 39.35 -51.95 39.9 -51.7 39.15 -4.05 -43.6 -2.9 -44.6 -2.05 -45.3 Q-1.1 -45.85 -0.1 -45.85 1.6 -45.85 2.75 -44.85 M0.75 -43.8 L0.75 -43.85 0.7 -43.85 0.75 -43.8 M1.95 -41.25 L1.9 -41.3 1.85 -41.4 1.75 -41.4 1.9 -41.2 1.95 -41.25 M47.55 41.75 L47.7 41.75 47.55 41.65 47.55 41.75 M1.95 -40.8 L2.0 -40.85 1.9 -41.05 1.8 -41.0 1.9 -40.9 1.95 -40.8 M1.75 -40.4 L1.8 -40.45 1.8 -40.55 1.65 -40.5 1.55 -40.45 1.65 -40.35 1.75 -40.4 48.3 40.15 48.3 40.25 48.25 40.3 48.25 40.35 48.4 40.2 48.4 40.15 48.35 40.2 48.4 40.05 1.85 -40.45 1.75 -40.4 M49.45 41.7 L49.4 41.65 49.4 41.7 49.45 41.7 M49.55 41.7 L49.55 41.75 49.6 41.75 49.55 41.7 M49.6 41.6 L49.7 41.65 49.7 41.6 49.6 41.55 49.6 41.6 M50.3 41.7 L50.3 41.65 50.25 41.65 50.3 41.7 M48.85 40.3 L48.8 40.25 48.8 40.3 48.85 40.3 M49.15 41.7 L49.3 41.7 49.2 41.65 49.15 41.65 49.15 41.7 M49.45 43.15 L49.5 43.15 49.5 43.1 49.45 43.15 M49.8 41.8 L49.9 41.8 49.8 41.75 49.8 41.8 M50.55 42.15 L50.45 42.25 50.5 42.25 50.55 42.15 M49.45 42.65 L49.5 42.65 49.5 42.6 49.45 42.6 49.45 42.65 M43.25 38.0 L43.25 38.05 43.3 38.15 43.4 38.25 43.25 38.0 M43.1 38.9 L43.15 38.85 43.2 38.85 43.15 38.75 43.1 38.75 43.05 38.8 43.1 38.85 43.1 38.9 42.95 38.9 43.0 39.0 43.1 38.95 43.1 39.0 43.2 38.9 43.1 38.9 M43.65 39.15 L43.6 39.1 43.6 39.15 43.65 39.15 M44.65 39.6 L44.55 39.75 44.65 39.65 44.65 39.6 M42.4 38.3 L42.4 38.25 42.5 38.35 42.5 38.3 42.55 38.25 42.4 38.25 42.35 38.25 42.4 38.3 M41.3 39.4 L39.75 36.75 41.6 36.75 0.8 -34.0 -0.05 -32.45 -0.2 -32.45 -1.1 -33.9 -41.8 36.75 -39.9 36.75 -40.7 38.05 -41.55 39.25 -41.6 39.3 Q-41.85 39.75 -42.0 39.5 L-42.2 39.65 -42.75 40.15 -42.95 40.15 -43.0 40.25 42.8 40.25 42.75 40.15 Q42.45 39.9 42.4 40.0 L42.3 39.85 42.25 39.75 42.1 39.7 42.0 39.65 41.8 39.5 41.65 39.45 41.6 39.4 41.4 39.35 41.35 39.25 41.3 39.4 M51.4 41.95 L51.4 42.0 51.3 42.6 51.45 42.25 51.55 41.9 51.45 41.9 51.4 41.95 M51.4 41.9 L51.4 41.85 51.05 41.85 50.95 41.8 50.95 41.85 51.05 41.85 51.15 41.9 51.15 41.95 51.2 41.9 51.4 41.9 M51.55 42.45 L51.55 42.5 51.25 42.85 51.1 43.2 51.15 43.2 51.4 42.8 51.5 42.6 51.55 42.45 M51.7 41.75 L51.8 41.6 51.75 41.25 51.7 41.75 M51.6 41.7 L51.7 41.6 51.6 41.3 51.6 41.7 M51.45 41.7 L51.55 41.6 51.5 41.25 51.45 41.7 M51.35 41.7 L51.45 41.6 51.35 41.3 51.35 41.7 M51.25 41.3 L51.2 41.7 51.3 41.6 51.25 41.3 M50.7 41.65 L50.7 41.6 50.65 41.5 50.6 41.6 50.7 41.65 M51.95 41.55 L51.9 41.3 51.85 41.75 51.95 41.75 51.95 41.55 M51.1 39.6 L51.1 39.55 51.0 39.4 51.15 39.9 51.1 39.6 M50.95 42.25 L50.85 42.25 50.75 42.55 50.9 42.3 50.95 42.25 M-0.4 -37.35 L-0.45 -37.35 -0.4 -37.3 -0.4 -37.35 M-0.95 -37.7 L-0.95 -37.65 -0.9 -37.7 -0.95 -37.7 M-0.2 -41.2 L-0.2 -41.25 -0.25 -41.25 -0.2 -41.2 M-0.65 -36.2 L-0.6 -36.3 -0.7 -36.25 -0.75 -36.15 -0.75 -36.05 -0.65 -36.15 -0.65 -36.2 M-0.15 -35.35 L-0.1 -35.45 -0.15 -35.45 -0.15 -35.35 M-0.6 -36.3 L-0.55 -36.4 -0.65 -36.4 -0.6 -36.3 M-0.1 -35.5 L-0.05 -35.45 -0.1 -35.55 -0.1 -35.5 M-51.0 42.3 L-51.1 42.3 -50.95 42.55 -50.9 42.55 -51.0 42.3 M-51.8 41.25 L-51.85 41.6 -51.75 41.7 -51.8 41.25 M-50.65 42.15 L-50.65 42.1 -50.75 42.1 -50.7 42.15 -50.65 42.15 M-51.5 41.9 L-51.45 41.95 -51.45 41.9 -51.35 41.9 -51.25 41.85 -51.5 41.85 -51.5 41.9 M-51.1 41.9 L-51.2 41.9 -51.2 41.95 -51.1 41.9 M-51.75 42.85 L-52.0 42.4 -51.85 42.9 -51.6 43.15 -51.7 42.9 -51.75 42.85 M-51.5 42.8 L-51.75 42.4 -51.6 42.75 -51.35 43.1 -51.35 43.05 -51.45 42.8 -51.5 42.8 M-51.3 42.35 L-51.25 42.5 -51.15 42.65 -51.3 42.35 M-42.2 39.65 L-42.2 39.6 -42.25 39.65 -42.2 39.65 M-43.7 38.45 L-43.65 38.4 -43.6 38.25 -43.7 38.25 -43.85 38.5 -43.7 38.5 -43.7 38.45 M-43.6 38.25 L-43.5 38.15 -43.6 38.15 -43.65 38.2 -43.6 38.25 M-48.6 41.65 L-48.55 41.65 -48.6 41.6 -48.6 41.65 M-49.15 41.3 L-49.2 41.25 -49.2 41.3 -49.15 41.3 M-49.2 42.7 L-49.2 42.65 -49.25 42.7 -49.2 42.7 M-50.15 42.2 L-50.1 42.2 -50.15 42.15 -50.15 42.2 M-49.8 42.5 L-49.85 42.5 -49.8 42.55 -49.8 42.5 M-49.8 42.2 L-49.75 42.15 -49.85 42.15 -49.8 42.2 M-49.45 42.1 L-49.4 42.1 -49.35 42.05 -49.4 42.0 -49.45 42.05 -49.45 42.1 M-49.85 41.75 L-49.7 41.75 -49.6 41.7 -49.75 41.7 -49.85 41.75 M-49.3 42.2 L-49.4 42.2 -49.35 42.3 -49.3 42.2 M-49.25 45.25 L-49.85 45.05 -48.9 45.4 -49.25 45.25" fill="#ffffff" fill-opacity="0.38039216" fill-rule="evenodd" stroke="none"/>
  </g>
</svg>
